<svg width="43" height="44" viewBox="0 0 43 44" fill="none" xmlns="http://www.w3.org/2000/svg">
<rect x="0.5" y="1" width="42" height="42" rx="7.5" fill="url(#paint0_linear_13_479)"/>
<rect x="0.5" y="1" width="42" height="42" rx="7.5" stroke="#6064C9"/>
<path d="M22.2917 18.0417C22.2917 17.6044 21.9372 17.25 21.5 17.25C21.0628 17.25 20.7084 17.6044 20.7084 18.0417V20.9444H17.5417C15.9381 20.9444 14.6389 22.2436 14.6389 23.8472V25.4306C14.6389 25.8678 14.9934 26.2222 15.4306 26.2222C15.8678 26.2222 16.2222 25.8678 16.2222 25.4306V23.8472C16.2222 23.118 16.8125 22.5278 17.5417 22.5278H20.7084V25.4306C20.7084 25.8678 21.0628 26.2222 21.5 26.2222C21.9372 26.2222 22.2917 25.8678 22.2917 25.4306V22.5278H25.4584C26.1875 22.5278 26.7778 23.118 26.7778 23.8472V25.4306C26.7778 25.8678 27.1323 26.2222 27.5695 26.2222C28.0067 26.2222 28.3611 25.8678 28.3611 25.4306V23.8472C28.3611 22.2436 27.062 20.9444 25.4584 20.9444H22.2917V18.0417Z" fill="#D9A3FF" fill-opacity="0.4"/>
<path fill-rule="evenodd" clip-rule="evenodd" d="M18.8611 15.4029C18.8611 14.383 19.6885 13.5557 20.7084 13.5557H22.2917C23.3116 13.5557 24.1389 14.383 24.1389 15.4029V16.9862C24.1389 18.0061 23.3116 18.8334 22.2917 18.8334H20.7084C19.6885 18.8334 18.8611 18.0061 18.8611 16.9862V15.4029Z" fill="#F5E2FF"/>
<path fill-rule="evenodd" clip-rule="evenodd" d="M12.7917 26.4861C12.7917 25.4663 13.619 24.6389 14.6389 24.6389H16.2222C17.2421 24.6389 18.0695 25.4663 18.0695 26.4861V28.0695C18.0695 29.0893 17.2421 29.9167 16.2222 29.9167H14.6389C13.619 29.9167 12.7917 29.0893 12.7917 28.0695V26.4861Z" fill="#F5E2FF"/>
<path fill-rule="evenodd" clip-rule="evenodd" d="M18.8611 26.4861C18.8611 25.4663 19.6885 24.6389 20.7084 24.6389H22.2917C23.3116 24.6389 24.1389 25.4663 24.1389 26.4861V28.0695C24.1389 29.0893 23.3116 29.9167 22.2917 29.9167H20.7084C19.6885 29.9167 18.8611 29.0893 18.8611 28.0695V26.4861Z" fill="#F5E2FF"/>
<path fill-rule="evenodd" clip-rule="evenodd" d="M24.9306 26.4861C24.9306 25.4663 25.7579 24.6389 26.7778 24.6389H28.3612C29.381 24.6389 30.2084 25.4663 30.2084 26.4861V28.0695C30.2084 29.0893 29.381 29.9167 28.3612 29.9167H26.7778C25.7579 29.9167 24.9306 29.0893 24.9306 28.0695V26.4861Z" fill="#F5E2FF"/>
<defs>
<linearGradient id="paint0_linear_13_479" x1="0" y1="22" x2="43" y2="22" gradientUnits="userSpaceOnUse">
<stop stop-color="#333693"/>
<stop offset="1" stop-color="#181946"/>
</linearGradient>
</defs>
</svg>
