<svg width="533" height="44" viewBox="0 0 533 44" fill="none" xmlns="http://www.w3.org/2000/svg">
<rect y="0.5" width="533" height="43" rx="8" fill="url(#paint0_linear_13_1022)"/>
<path d="M16.5733 27.5V16.3H19.2267V27.5H16.5733ZM22.3702 27.5V16.3H25.7702L28.5435 24.1533H28.7435L31.5169 16.3H34.9169V27.5H32.3702V20.7533H32.1435L29.6769 27.5H27.6102L25.1435 20.7533H24.9169V27.5H22.3702ZM38.0577 27.5V16.3H43.911C46.8977 16.3 48.5244 17.7267 48.5244 20.4067C48.5244 23.0733 46.8977 24.5 43.911 24.5H40.711V27.5H38.0577ZM40.711 22.2733H43.7377C45.0444 22.2733 45.8577 21.6467 45.8577 20.4067C45.8577 19.1533 45.0444 18.5267 43.7377 18.5267H40.711V22.2733ZM51.5265 27.5V16.3H54.1798V25.2733H60.6331V27.5H51.5265ZM72.7798 27.5L72.0865 25.62H66.5665L65.8731 27.5H63.1265L67.4598 16.3H71.1931L75.5398 27.5H72.7798ZM67.3131 23.6067H71.3398L69.5798 18.82H69.0731L67.3131 23.6067ZM78.2765 27.5V16.3H81.3565L86.5565 23.8333H86.8098V16.3H89.4098V27.5H86.3831L81.1165 19.9667H80.8765V27.5H78.2765ZM103.529 16.3V18.5267H99.3288V27.5H96.6621V18.5267H92.4754V16.3H103.529ZM113.577 27.5L112.883 25.62H107.363L106.67 27.5H103.923L108.257 16.3H111.99L116.337 27.5H113.577ZM108.11 23.6067H112.137L110.377 18.82H109.87L108.11 23.6067ZM123.991 25.5667C125.378 25.5667 126.484 24.9267 126.964 23.4733H129.511C128.991 26.5933 126.738 27.74 124.404 27.86L124.218 28.02C124.938 28.0733 125.684 28.5267 125.684 29.4867C125.684 30.8333 124.191 31.3 122.618 30.9933V29.8333C123.644 30.0333 124.098 29.78 124.098 29.5133C124.098 29.22 123.644 28.9 122.618 29.1933V28.38L123.244 27.8333C120.031 27.5267 117.858 25.18 117.858 21.9C117.858 18.38 120.364 15.9267 123.991 15.9267C126.444 15.9267 128.964 17.02 129.511 20.3133H126.964C126.484 18.8733 125.378 18.2333 123.991 18.2333C122.004 18.2333 120.484 19.74 120.484 21.9C120.484 24.0467 122.004 25.5667 123.991 25.5667ZM135.454 15.4067H134.561C134.428 14.02 135.361 13.4333 136.388 13.4333C137.494 13.4333 138.054 14.3267 138.881 14.3267C139.347 14.3267 139.614 14.0733 139.668 13.7H140.548C140.681 15.0733 139.761 15.6733 138.721 15.6733C137.628 15.6733 137.068 14.78 136.241 14.78C135.774 14.78 135.508 15.02 135.454 15.4067ZM141.014 27.5L140.321 25.62H134.801L134.108 27.5H131.361L135.694 16.3H139.427L143.774 27.5H141.014ZM135.548 23.6067H139.574L137.814 18.82H137.308L135.548 23.6067ZM151.442 27.8733C147.789 27.8733 145.295 25.42 145.295 21.9C145.295 18.38 147.789 15.9267 151.442 15.9267C155.109 15.9267 157.602 18.38 157.602 21.9C157.602 25.42 155.109 27.8733 151.442 27.8733ZM151.442 25.5667C153.442 25.5667 154.962 24.1 154.962 21.9C154.962 19.7 153.442 18.2333 151.442 18.2333C149.455 18.2333 147.922 19.7 147.922 21.9C147.922 24.1 149.455 25.5667 151.442 25.5667ZM171.064 16.3C175.41 16.3 177.064 18.7133 177.064 21.9C177.064 25.0867 175.41 27.5 171.064 27.5H165.917V16.3H171.064ZM171.05 25.26C173.224 25.26 174.397 24.06 174.397 21.9C174.397 19.74 173.224 18.54 171.05 18.54H168.597L168.57 25.26H171.05ZM180.058 27.5V16.3H189.484V18.4733H182.711V20.9267H189.244V22.8467H182.711V25.3133H189.484V27.5H180.058ZM203.944 27.8733C200.318 27.8733 197.811 25.42 197.811 21.9C197.811 18.38 200.318 15.9267 203.944 15.9267C206.398 15.9267 208.918 17.02 209.464 20.3133H206.918C206.438 18.8733 205.331 18.2333 203.944 18.2333C201.957 18.2333 200.438 19.74 200.438 21.9C200.438 24.0467 201.957 25.5667 203.944 25.5667C205.331 25.5667 206.438 24.9267 206.918 23.4733H209.464C208.918 26.78 206.424 27.8733 203.944 27.8733ZM223.164 27.5H220.524L218.684 24.1667H215.07V27.5H212.417V16.3H218.297C221.297 16.3 222.884 17.7 222.884 20.3133C222.884 21.8733 222.124 23.0067 220.977 23.6333L223.164 27.5ZM215.07 18.5267V22.1267H218.15C219.497 22.1267 220.244 21.5133 220.244 20.3267C220.244 19.14 219.497 18.5267 218.15 18.5267H215.07ZM226.058 27.5V16.3H229.458L232.231 24.1533H232.431L235.204 16.3H238.604V27.5H236.058V20.7533H235.831L233.364 27.5H231.298L228.831 20.7533H228.604V27.5H226.058ZM247.12 27.5V16.3H256.547V18.4733H249.774V20.9267H256.307V22.8467H249.774V25.3133H256.547V27.5H247.12ZM265.073 27.5V16.3H270.927C273.913 16.3 275.54 17.7267 275.54 20.4067C275.54 23.0733 273.913 24.5 270.927 24.5H267.727V27.5H265.073ZM267.727 22.2733H270.753C272.06 22.2733 272.873 21.6467 272.873 20.4067C272.873 19.1533 272.06 18.5267 270.753 18.5267H267.727V22.2733ZM289.289 27.5H286.649L284.809 24.1667H281.195V27.5H278.542V16.3H284.422C287.422 16.3 289.009 17.7 289.009 20.3133C289.009 21.8733 288.249 23.0067 287.102 23.6333L289.289 27.5ZM281.195 18.5267V22.1267H284.275C285.622 22.1267 286.369 21.5133 286.369 20.3267C286.369 19.14 285.622 18.5267 284.275 18.5267H281.195ZM297.801 27.8733C294.148 27.8733 291.655 25.42 291.655 21.9C291.655 18.38 294.148 15.9267 297.801 15.9267C301.468 15.9267 303.961 18.38 303.961 21.9C303.961 25.42 301.468 27.8733 297.801 27.8733ZM297.801 25.5667C299.801 25.5667 301.321 24.1 301.321 21.9C301.321 19.7 299.801 18.2333 297.801 18.2333C295.815 18.2333 294.281 19.7 294.281 21.9C294.281 24.1 295.815 25.5667 297.801 25.5667ZM312.913 27.8733C309.286 27.8733 306.78 25.42 306.78 21.9C306.78 18.38 309.286 15.9267 312.913 15.9267C315.366 15.9267 317.886 17.02 318.433 20.3133H315.886C315.406 18.8733 314.3 18.2333 312.913 18.2333C310.926 18.2333 309.406 19.74 309.406 21.9C309.406 24.0467 310.926 25.5667 312.913 25.5667C314.3 25.5667 315.406 24.9267 315.886 23.4733H318.433C317.886 26.78 315.393 27.8733 312.913 27.8733ZM321.386 27.5V16.3H330.812V18.4733H324.039V20.9267H330.573V22.8467H324.039V25.3133H330.812V27.5H321.386ZM338.85 27.8733C335.437 27.8733 333.637 26.66 333.65 24.0333H336.05C336.144 25.0867 337.01 25.7533 338.85 25.7667C340.584 25.7667 341.53 25.18 341.53 24.3C341.53 23.5267 340.904 23.14 339.57 22.9133L338.184 22.6733C336.064 22.3 333.957 21.74 333.957 19.3C333.957 17.18 335.744 15.9267 338.877 15.9267C341.797 15.9267 343.824 16.9533 343.85 19.7267H341.464C341.29 18.7133 340.504 18.0333 338.824 18.0333C337.304 18.0333 336.504 18.5533 336.504 19.42C336.504 20.1 337.05 20.5267 338.197 20.74L339.41 20.9533C341.544 21.34 344.17 21.7 344.17 24.38C344.17 26.6067 342.344 27.8733 338.85 27.8733ZM352.085 27.8733C348.671 27.8733 346.871 26.66 346.885 24.0333H349.285C349.378 25.0867 350.245 25.7533 352.085 25.7667C353.818 25.7667 354.765 25.18 354.765 24.3C354.765 23.5267 354.138 23.14 352.805 22.9133L351.418 22.6733C349.298 22.3 347.191 21.74 347.191 19.3C347.191 17.18 348.978 15.9267 352.111 15.9267C355.031 15.9267 357.058 16.9533 357.085 19.7267H354.698C354.525 18.7133 353.738 18.0333 352.058 18.0333C350.538 18.0333 349.738 18.5533 349.738 19.42C349.738 20.1 350.285 20.5267 351.431 20.74L352.645 20.9533C354.778 21.34 357.405 21.7 357.405 24.38C357.405 26.6067 355.578 27.8733 352.085 27.8733ZM366.254 27.8733C362.601 27.8733 360.108 25.42 360.108 21.9C360.108 18.38 362.601 15.9267 366.254 15.9267C369.921 15.9267 372.414 18.38 372.414 21.9C372.414 25.42 369.921 27.8733 366.254 27.8733ZM366.254 25.5667C368.254 25.5667 369.774 24.1 369.774 21.9C369.774 19.7 368.254 18.2333 366.254 18.2333C364.268 18.2333 362.734 19.7 362.734 21.9C362.734 24.1 364.268 25.5667 366.254 25.5667ZM380.225 27.8733C376.812 27.8733 375.012 26.66 375.025 24.0333H377.425C377.519 25.0867 378.385 25.7533 380.225 25.7667C381.959 25.7667 382.905 25.18 382.905 24.3C382.905 23.5267 382.279 23.14 380.945 22.9133L379.559 22.6733C377.439 22.3 375.332 21.74 375.332 19.3C375.332 17.18 377.119 15.9267 380.252 15.9267C383.172 15.9267 385.199 16.9533 385.225 19.7267H382.839C382.665 18.7133 381.879 18.0333 380.199 18.0333C378.679 18.0333 377.879 18.5533 377.879 19.42C377.879 20.1 378.425 20.5267 379.572 20.74L380.785 20.9533C382.919 21.34 385.545 21.7 385.545 24.38C385.545 26.6067 383.719 27.8733 380.225 27.8733ZM399.757 27.8733C396.13 27.8733 393.623 25.42 393.623 21.9C393.623 18.38 396.13 15.9267 399.757 15.9267C402.21 15.9267 404.73 17.02 405.277 20.3133H402.73C402.25 18.8733 401.143 18.2333 399.757 18.2333C397.77 18.2333 396.25 19.74 396.25 21.9C396.25 24.0467 397.77 25.5667 399.757 25.5667C401.143 25.5667 402.25 24.9267 402.73 23.4733H405.277C404.73 26.78 402.237 27.8733 399.757 27.8733ZM414.223 27.8733C410.57 27.8733 408.076 25.42 408.076 21.9C408.076 18.38 410.57 15.9267 414.223 15.9267C417.89 15.9267 420.383 18.38 420.383 21.9C420.383 25.42 417.89 27.8733 414.223 27.8733ZM414.223 25.5667C416.223 25.5667 417.743 24.1 417.743 21.9C417.743 19.7 416.223 18.2333 414.223 18.2333C412.236 18.2333 410.703 19.7 410.703 21.9C410.703 24.1 412.236 25.5667 414.223 25.5667ZM423.323 27.5V16.3H426.723L429.497 24.1533H429.697L432.47 16.3H435.87V27.5H433.323V20.7533H433.097L430.63 27.5H428.563L426.097 20.7533H425.87V27.5H423.323ZM439.011 27.5V16.3H448.438V18.4733H441.664V20.9267H448.198V22.8467H441.664V25.3133H448.438V27.5H439.011ZM462.336 27.5H459.696L457.856 24.1667H454.242V27.5H451.589V16.3H457.469C460.469 16.3 462.056 17.7 462.056 20.3133C462.056 21.8733 461.296 23.0067 460.149 23.6333L462.336 27.5ZM454.242 18.5267V22.1267H457.322C458.669 22.1267 459.416 21.5133 459.416 20.3267C459.416 19.14 458.669 18.5267 457.322 18.5267H454.242ZM470.835 27.8733C467.208 27.8733 464.701 25.42 464.701 21.9C464.701 18.38 467.208 15.9267 470.835 15.9267C473.288 15.9267 475.808 17.02 476.355 20.3133H473.808C473.328 18.8733 472.221 18.2333 470.835 18.2333C468.848 18.2333 467.328 19.74 467.328 21.9C467.328 24.0467 468.848 25.5667 470.835 25.5667C472.221 25.5667 473.328 24.9267 473.808 23.4733H476.355C475.808 26.78 473.315 27.8733 470.835 27.8733ZM479.308 27.5V16.3H481.961V27.5H479.308ZM494.358 27.5L493.665 25.62H488.145L487.451 27.5H484.705L489.038 16.3H492.771L497.118 27.5H494.358ZM488.891 23.6067H492.918L491.158 18.82H490.651L488.891 23.6067ZM499.855 27.5V16.3H502.508V27.5H499.855ZM510.585 27.8733C507.171 27.8733 505.371 26.66 505.385 24.0333H507.785C507.878 25.0867 508.745 25.7533 510.585 25.7667C512.318 25.7667 513.265 25.18 513.265 24.3C513.265 23.5267 512.638 23.14 511.305 22.9133L509.918 22.6733C507.798 22.3 505.691 21.74 505.691 19.3C505.691 17.18 507.478 15.9267 510.611 15.9267C513.531 15.9267 515.558 16.9533 515.585 19.7267H513.198C513.025 18.7133 512.238 18.0333 510.558 18.0333C509.038 18.0333 508.238 18.5533 508.238 19.42C508.238 20.1 508.785 20.5267 509.931 20.74L511.145 20.9533C513.278 21.34 515.905 21.7 515.905 24.38C515.905 26.6067 514.078 27.8733 510.585 27.8733Z" fill="#F8F8F8"/>
<defs>
<linearGradient id="paint0_linear_13_1022" x1="533" y1="22" x2="0" y2="22" gradientUnits="userSpaceOnUse">
<stop stop-color="#575AC0"/>
<stop offset="1" stop-color="#333693"/>
</linearGradient>
</defs>
</svg>
