<svg width="573" height="57" viewBox="0 0 573 57" fill="none" xmlns="http://www.w3.org/2000/svg">
<path d="M6.12 21.5L0.06 4.7H6.3L10.04 15.82H10.68L14.42 4.7H20.68L14.6 21.5H6.12ZM29.0616 22.06C23.2016 22.06 19.4616 18.52 19.4616 13.1C19.4616 7.68 23.2016 4.14 29.0616 4.14C34.9416 4.14 38.6816 7.68 38.6816 13.1C38.6816 18.52 34.9416 22.06 29.0616 22.06ZM29.0616 16.84C31.0016 16.84 32.6616 15.54 32.6616 13.1C32.6616 10.66 31.0016 9.36 29.0616 9.36C27.1416 9.36 25.4616 10.66 25.4616 13.1C25.4616 15.54 27.1416 16.84 29.0616 16.84ZM49.1378 22.06C43.3978 22.06 39.6178 18.52 39.6178 13.1C39.6178 7.68 43.3978 4.14 49.1378 4.14C53.3578 4.14 57.7178 6 58.1778 11.92H52.4178C52.0378 10.18 50.8578 9.36 49.1378 9.36C47.1978 9.36 45.6178 10.78 45.6178 13.1C45.6178 15.4 47.1978 16.84 49.1378 16.84C50.8578 16.84 52.0378 16.02 52.4178 14.24H58.1778C57.7178 20.2 53.4178 22.06 49.1378 22.06ZM60.5269 3.7L63.1469 0.119999H70.4069L73.0269 3.7H68.0669L67.3469 2.82H66.2069L65.4869 3.7H60.5269ZM59.2069 21.5V4.7H74.6669V9.52H65.2469V11.16H74.3069V15.04H65.2469V16.66H74.6669V21.5H59.2069ZM81.2381 21.5V4.7H96.6981V9.52H87.2781V11.16H96.3381V15.04H87.2781V16.66H96.6981V21.5H81.2381ZM106.223 22.06C100.203 22.04 97.4628 20.24 97.6428 15.74H103.063C103.103 16.74 103.943 17.32 106.223 17.36C108.183 17.38 109.023 16.86 109.023 16.26C109.023 15.94 108.943 15.38 107.423 15.18L105.223 14.84C102.063 14.34 98.0228 14.12 98.0228 9.6C98.0228 6.22 100.723 4.14 106.283 4.14C111.243 4.14 114.703 5.42 114.563 10.42H109.163C108.983 9.44 108.123 8.84 106.143 8.84C104.443 8.84 103.823 9.32 103.823 9.92C103.823 10.2 103.963 10.76 105.103 10.94L106.863 11.22C110.243 11.78 115.043 11.72 115.043 16.52C115.043 20.28 112.163 22.08 106.223 22.06ZM133.364 4.7V9.74H127.404V21.5H121.344V9.74H115.404V4.7H133.364ZM144.94 0.119999L143.48 3.7H138.14L139.6 0.119999H144.94ZM144.92 21.5L144.28 19.48H137.44L136.8 21.5H130.56L136.62 4.7H145.1L151.18 21.5H144.92ZM138.86 15.02H142.86L141.38 10.38H140.34L138.86 15.02ZM157.129 21.5V4.7H166.909C171.529 4.7 174.349 6.7 174.349 11.4C174.349 16.08 171.529 18.08 166.929 18.08H163.169V21.5H157.129ZM163.169 13.06H166.369C167.489 13.06 168.229 12.5 168.229 11.4C168.229 10.28 167.489 9.72 166.389 9.72H163.169V13.06ZM175.457 21.5V4.7H190.917V9.52H181.497V11.16H190.557V15.04H181.497V16.66H190.917V21.5H175.457ZM210.138 21.5H204.198L202.078 17.38H198.278V21.5H192.238V4.7H202.118C206.838 4.7 209.518 6.66 209.518 11.26C209.518 13.46 208.558 15.06 207.218 16.06L210.138 21.5ZM198.278 9.72V12.88H201.678C202.878 12.88 203.458 12.28 203.458 11.3C203.458 10.32 202.878 9.72 201.678 9.72H198.278ZM219.856 4.7C226.796 4.7 229.176 8.24 229.176 13.1C229.176 17.94 226.796 21.5 219.856 21.5H211.176V4.7H219.856ZM219.856 16.44C221.636 16.44 223.096 15.6 223.096 13.1C223.096 10.58 221.636 9.76 219.856 9.76H217.256L217.236 16.44H219.856ZM230.277 21.5V4.7H245.737V9.52H236.317V11.16H245.377V15.04H236.317V16.66H245.737V21.5H230.277ZM247.058 21.5V4.7H253.978L258.818 13.04H259.378V4.7H265.278V21.5H258.498L253.498 13.16H252.958V21.5H247.058ZM275.262 4.7C282.202 4.7 284.582 8.24 284.582 13.1C284.582 17.94 282.202 21.5 275.262 21.5H266.582V4.7H275.262ZM275.262 16.44C277.042 16.44 278.502 15.6 278.502 13.1C278.502 10.58 277.042 9.76 275.262 9.76H272.662L272.642 16.44H275.262ZM294.983 22.06C289.123 22.06 285.383 18.52 285.383 13.1C285.383 7.68 289.123 4.14 294.983 4.14C300.863 4.14 304.603 7.68 304.603 13.1C304.603 18.52 300.863 22.06 294.983 22.06ZM294.983 16.84C296.923 16.84 298.583 15.54 298.583 13.1C298.583 10.66 296.923 9.36 294.983 9.36C293.063 9.36 291.383 10.66 291.383 13.1C291.383 15.54 293.063 16.84 294.983 16.84ZM316.339 21.5L310.279 4.7H316.519L320.259 15.82H320.899L324.639 4.7H330.899L324.819 21.5H316.339ZM331.597 21.5V4.7H347.058V9.52H337.638V11.16H346.698V15.04H337.638V16.66H347.058V21.5H331.597ZM348.379 21.5V4.7H355.299L360.139 13.04H360.699V4.7H366.599V21.5H359.819L354.819 13.16H354.279V21.5H348.379ZM376.582 4.7C383.522 4.7 385.902 8.24 385.902 13.1C385.902 17.94 383.522 21.5 376.582 21.5H367.902V4.7H376.582ZM376.582 16.44C378.362 16.44 379.822 15.6 379.822 13.1C379.822 10.58 378.362 9.76 376.582 9.76H373.982L373.962 16.44H376.582ZM399.147 21.5L398.507 19.48H391.667L391.027 21.5H384.787L390.847 4.7H399.327L405.407 21.5H399.147ZM393.087 15.02H397.087L395.607 10.38H394.567L393.087 15.02ZM413.559 22.06C407.539 22.04 404.799 20.24 404.979 15.74H410.399C410.439 16.74 411.279 17.32 413.559 17.36C415.519 17.38 416.359 16.86 416.359 16.26C416.359 15.94 416.279 15.38 414.759 15.18L412.559 14.84C409.399 14.34 405.359 14.12 405.359 9.6C405.359 6.22 408.059 4.14 413.619 4.14C418.579 4.14 422.039 5.42 421.899 10.42H416.499C416.319 9.44 415.459 8.84 413.479 8.84C411.779 8.84 411.159 9.32 411.159 9.92C411.159 10.2 411.299 10.76 412.439 10.94L414.199 11.22C417.579 11.78 422.379 11.72 422.379 16.52C422.379 20.28 419.499 22.08 413.559 22.06ZM428.582 21.5V4.7H438.362C442.982 4.7 445.802 6.7 445.802 11.4C445.802 16.08 442.982 18.08 438.382 18.08H434.622V21.5H428.582ZM434.622 13.06H437.822C438.942 13.06 439.682 12.5 439.682 11.4C439.682 10.28 438.942 9.72 437.842 9.72H434.622V13.06ZM456.21 22.06C450.35 22.06 446.61 18.52 446.61 13.1C446.61 7.68 450.35 4.14 456.21 4.14C462.09 4.14 465.83 7.68 465.83 13.1C465.83 18.52 462.09 22.06 456.21 22.06ZM456.21 16.84C458.15 16.84 459.81 15.54 459.81 13.1C459.81 10.66 458.15 9.36 456.21 9.36C454.29 9.36 452.61 10.66 452.61 13.1C452.61 15.54 454.29 16.84 456.21 16.84ZM484.755 21.5H478.815L476.695 17.38H472.895V21.5H466.855V4.7H476.735C481.455 4.7 484.135 6.66 484.135 11.26C484.135 13.46 483.175 15.06 481.835 16.06L484.755 21.5ZM472.895 9.72V12.88H476.295C477.495 12.88 478.075 12.28 478.075 11.3C478.075 10.32 477.495 9.72 476.295 9.72H472.895ZM491.043 21.5V4.7H506.463V9.74H497.083V11.46H506.083V15.8H497.083V21.5H491.043ZM519.311 21.5L518.671 19.48H511.831L511.191 21.5H504.951L511.011 4.7H519.491L525.571 21.5H519.311ZM513.251 15.02H517.251L515.771 10.38H514.731L513.251 15.02ZM526.269 21.5V4.7H532.309V16.46H541.029V21.5H526.269ZM554.747 4.7V9.74H548.787V21.5H542.727V9.74H536.787V4.7H554.747ZM566.303 21.5L565.663 19.48H558.823L558.183 21.5H551.943L558.003 4.7H566.483L572.563 21.5H566.303ZM560.243 15.02H564.243L562.763 10.38H561.723L560.243 15.02ZM9.34 33.7C16.28 33.7 18.66 37.24 18.66 42.1C18.66 46.94 16.28 50.5 9.34 50.5H0.66V33.7H9.34ZM9.34 45.44C11.12 45.44 12.58 44.6 12.58 42.1C12.58 39.58 11.12 38.76 9.34 38.76H6.74L6.72 45.44H9.34ZM19.7616 50.5V33.7H35.2216V38.52H25.8016V40.16H34.8616V44.04H25.8016V45.66H35.2216V50.5H19.7616ZM51.0928 51.06C45.2328 51.06 41.4928 47.52 41.4928 42.1C41.4928 36.68 45.2328 33.14 51.0928 33.14C56.9728 33.14 60.7128 36.68 60.7128 42.1C60.7128 47.52 56.9728 51.06 51.0928 51.06ZM51.0928 45.84C53.0328 45.84 54.6928 44.54 54.6928 42.1C54.6928 39.66 53.0328 38.36 51.0928 38.36C49.1728 38.36 47.4928 39.66 47.4928 42.1C47.4928 44.54 49.1728 45.84 51.0928 45.84ZM79.6381 50.5H73.6981L71.5781 46.38H67.7781V50.5H61.7381V33.7H71.6181C76.3381 33.7 79.0181 35.66 79.0181 40.26C79.0181 42.46 78.0581 44.06 76.7181 45.06L79.6381 50.5ZM67.7781 38.72V41.88H71.1781C72.3781 41.88 72.9581 41.28 72.9581 40.3C72.9581 39.32 72.3781 38.72 71.1781 38.72H67.7781ZM98.4634 41.08V50.5H95.3434L95.2634 48.42H95.2034C94.0234 49.94 91.9634 51.06 89.0434 51.06C83.8634 51.06 79.8834 47.52 79.8834 42.1C79.8834 36.68 83.6434 33.14 89.5834 33.14C93.6634 33.14 97.8634 35.12 98.4434 39.74H92.4234C92.1834 39.14 91.2434 38.36 89.7234 38.36C87.4634 38.36 85.8834 39.78 85.8834 42.1C85.8834 44.4 87.5034 45.84 89.5434 45.84C90.1034 45.84 92.0634 45.78 92.6434 44.02H89.3234V41.08H98.4634ZM113.42 50.5L112.78 48.48H105.94L105.3 50.5H99.06L105.12 33.7H113.6L119.68 50.5H113.42ZM107.36 44.02H111.36L109.88 39.38H108.84L107.36 44.02ZM120.379 50.5V33.7H127.299L132.139 42.04H132.699V33.7H138.599V50.5H131.819L126.819 42.16H126.279V50.5H120.379ZM139.902 50.5V33.7H145.942V50.5H139.902ZM146.962 50.5V45.64L155.122 39.2V38.74H147.142V33.7H163.022V38.56L154.722 45V45.46H162.902V50.5H146.962ZM177.592 50.5L176.952 48.48H170.112L169.472 50.5H163.232L169.292 33.7H177.772L183.852 50.5H177.592ZM171.532 44.02H175.532L174.052 39.38H173.012L171.532 44.02ZM192.153 45.84C193.873 45.84 195.053 45.02 195.433 43.24H201.193C200.753 48.84 196.933 50.82 192.913 51.04L192.753 51.16C193.873 51.24 195.133 51.92 195.133 53.48C195.133 55.64 192.653 56.46 189.773 55.88V53.66C191.433 54.02 191.993 53.7 191.993 53.58C191.993 53.4 191.433 52.94 189.773 53.34V51.98L191.073 51.02C185.953 50.6 182.633 47.18 182.633 42.1C182.633 36.68 186.413 33.14 192.153 33.14C196.373 33.14 200.733 35 201.193 40.92H195.433C195.053 39.18 193.873 38.36 192.153 38.36C190.213 38.36 188.633 39.78 188.633 42.1C188.633 44.4 190.213 45.84 192.153 45.84ZM207.177 32.6H205.617C205.177 30 207.037 28.92 208.837 28.92C210.437 28.92 211.517 30.02 212.837 30.02C213.557 30.02 214.037 29.66 214.097 29.06H215.637C216.077 31.64 214.237 32.74 212.417 32.74C210.817 32.74 209.757 31.64 208.437 31.64C207.717 31.64 207.237 31.98 207.177 32.6ZM214.717 50.5L214.077 48.48H207.237L206.597 50.5H200.357L206.417 33.7H214.897L220.977 50.5H214.717ZM208.657 44.02H212.657L211.177 39.38H210.137L208.657 44.02ZM229.358 51.06C223.498 51.06 219.758 47.52 219.758 42.1C219.758 36.68 223.498 33.14 229.358 33.14C235.238 33.14 238.978 36.68 238.978 42.1C238.978 47.52 235.238 51.06 229.358 51.06ZM229.358 45.84C231.298 45.84 232.958 44.54 232.958 42.1C232.958 39.66 231.298 38.36 229.358 38.36C227.438 38.36 225.758 39.66 225.758 42.1C225.758 44.54 227.438 45.84 229.358 45.84ZM245.254 50.5V33.7H260.714V38.52H251.294V40.16H260.354V44.04H251.294V45.66H260.714V50.5H245.254ZM267.285 50.5V33.7H277.065C281.685 33.7 284.505 35.7 284.505 40.4C284.505 45.08 281.685 47.08 277.085 47.08H273.325V50.5H267.285ZM273.325 42.06H276.525C277.645 42.06 278.385 41.5 278.385 40.4C278.385 39.28 277.645 38.72 276.545 38.72H273.325V42.06ZM303.513 50.5H297.573L295.453 46.38H291.653V50.5H285.613V33.7H295.493C300.213 33.7 302.893 35.66 302.893 40.26C302.893 42.46 301.933 44.06 300.593 45.06L303.513 50.5ZM291.653 38.72V41.88H295.053C296.253 41.88 296.833 41.28 296.833 40.3C296.833 39.32 296.253 38.72 295.053 38.72H291.653ZM313.358 51.06C307.498 51.06 303.758 47.52 303.758 42.1C303.758 36.68 307.498 33.14 313.358 33.14C319.238 33.14 322.978 36.68 322.978 42.1C322.978 47.52 319.238 51.06 313.358 51.06ZM313.358 45.84C315.298 45.84 316.958 44.54 316.958 42.1C316.958 39.66 315.298 38.36 313.358 38.36C311.438 38.36 309.758 39.66 309.758 42.1C309.758 44.54 311.438 45.84 313.358 45.84ZM333.435 51.06C327.695 51.06 323.915 47.52 323.915 42.1C323.915 36.68 327.695 33.14 333.435 33.14C337.655 33.14 342.015 35 342.475 40.92H336.715C336.335 39.18 335.155 38.36 333.435 38.36C331.495 38.36 329.915 39.78 329.915 42.1C329.915 44.4 331.495 45.84 333.435 45.84C335.155 45.84 336.335 45.02 336.715 43.24H342.475C342.015 49.2 337.715 51.06 333.435 51.06ZM343.504 50.5V33.7H358.964V38.52H349.544V40.16H358.604V44.04H349.544V45.66H358.964V50.5H343.504ZM368.488 51.06C362.468 51.04 359.728 49.24 359.908 44.74H365.328C365.368 45.74 366.208 46.32 368.488 46.36C370.448 46.38 371.288 45.86 371.288 45.26C371.288 44.94 371.208 44.38 369.688 44.18L367.488 43.84C364.328 43.34 360.288 43.12 360.288 38.6C360.288 35.22 362.988 33.14 368.548 33.14C373.508 33.14 376.968 34.42 376.828 39.42H371.428C371.248 38.44 370.388 37.84 368.408 37.84C366.708 37.84 366.088 38.32 366.088 38.92C366.088 39.2 366.228 39.76 367.368 39.94L369.128 40.22C372.508 40.78 377.308 40.72 377.308 45.52C377.308 49.28 374.428 51.08 368.488 51.06ZM386.653 51.06C380.632 51.04 377.893 49.24 378.072 44.74H383.493C383.533 45.74 384.373 46.32 386.653 46.36C388.613 46.38 389.453 45.86 389.453 45.26C389.453 44.94 389.373 44.38 387.853 44.18L385.653 43.84C382.493 43.34 378.453 43.12 378.453 38.6C378.453 35.22 381.153 33.14 386.713 33.14C391.672 33.14 395.133 34.42 394.993 39.42H389.593C389.413 38.44 388.553 37.84 386.573 37.84C384.873 37.84 384.253 38.32 384.253 38.92C384.253 39.2 384.393 39.76 385.533 39.94L387.293 40.22C390.673 40.78 395.473 40.72 395.473 45.52C395.473 49.28 392.593 51.08 386.653 51.06ZM405.726 51.06C399.866 51.06 396.126 47.52 396.126 42.1C396.126 36.68 399.866 33.14 405.726 33.14C411.606 33.14 415.346 36.68 415.346 42.1C415.346 47.52 411.606 51.06 405.726 51.06ZM405.726 45.84C407.666 45.84 409.326 44.54 409.326 42.1C409.326 39.66 407.666 38.36 405.726 38.36C403.806 38.36 402.126 39.66 402.126 42.1C402.126 44.54 403.806 45.84 405.726 45.84ZM424.457 51.06C418.437 51.04 415.697 49.24 415.877 44.74H421.297C421.337 45.74 422.177 46.32 424.457 46.36C426.417 46.38 427.257 45.86 427.257 45.26C427.257 44.94 427.177 44.38 425.657 44.18L423.457 43.84C420.297 43.34 416.257 43.12 416.257 38.6C416.257 35.22 418.957 33.14 424.517 33.14C429.477 33.14 432.937 34.42 432.797 39.42H427.397C427.217 38.44 426.357 37.84 424.377 37.84C422.677 37.84 422.057 38.32 422.057 38.92C422.057 39.2 422.197 39.76 423.337 39.94L425.097 40.22C428.477 40.78 433.277 40.72 433.277 45.52C433.277 49.28 430.397 51.08 424.457 51.06ZM438.97 44.14C438.33 39.66 443.65 40.94 443.65 39.08C443.65 38.46 442.85 38.06 441.71 38.06C440.81 38.06 439.29 38.24 439.29 40.02H433.83C433.59 35.44 436.51 33.26 441.67 33.26C446.45 33.26 449.67 34.8 449.67 38.36C449.67 42.9 444.87 41.52 444.81 44.14H438.97ZM441.87 50.82C440.27 50.82 438.91 49.48 438.91 47.9C438.91 46.3 440.27 44.96 441.87 44.96C443.49 44.96 444.85 46.3 444.85 47.9C444.85 49.48 443.49 50.82 441.87 50.82Z" fill="#F8F8F8"/>
</svg>
