<svg width="330" height="106" viewBox="0 0 330 106" fill="none" xmlns="http://www.w3.org/2000/svg">
<path d="M21.9561 19V7.8H27.8095C30.7961 7.8 32.4228 9.22667 32.4228 11.9067C32.4228 14.5733 30.7961 16 27.8095 16H24.6095V19H21.9561ZM24.6095 13.7733H27.6361C28.9428 13.7733 29.7561 13.1467 29.7561 11.9067C29.7561 10.6533 28.9428 10.0267 27.6361 10.0267H24.6095V13.7733ZM48.1716 19H45.5316L43.6916 15.6667H40.0782V19H37.4249V7.8H43.3049C46.3049 7.8 47.8916 9.2 47.8916 11.8133C47.8916 13.3733 47.1316 14.5067 45.9849 15.1333L48.1716 19ZM40.0782 10.0267V13.6267H43.1582C44.5049 13.6267 45.2516 13.0133 45.2516 11.8267C45.2516 10.64 44.5049 10.0267 43.1582 10.0267H40.0782ZM53.0655 19V7.8H55.7189V19H53.0655ZM60.8624 19V7.8H63.9424L69.1424 15.3333H69.3957V7.8H71.9957V19H68.9691L63.7024 11.4667H63.4624V19H60.8624ZM83.0614 19.3733C79.4347 19.3733 76.928 16.92 76.928 13.4C76.928 9.88 79.4347 7.42667 83.0614 7.42667C85.5147 7.42667 88.0347 8.52 88.5814 11.8133H86.0347C85.5547 10.3733 84.448 9.73333 83.0614 9.73333C81.0747 9.73333 79.5547 11.24 79.5547 13.4C79.5547 15.5467 81.0747 17.0667 83.0614 17.0667C84.448 17.0667 85.5547 16.4267 86.0347 14.9733H88.5814C88.0347 18.28 85.5414 19.3733 83.0614 19.3733ZM93.5343 19V7.8H96.1876V19H93.5343ZM101.331 19V7.8H107.184C110.171 7.8 111.798 9.22667 111.798 11.9067C111.798 14.5733 110.171 16 107.184 16H103.984V19H101.331ZM103.984 13.7733H107.011C108.318 13.7733 109.131 13.1467 109.131 11.9067C109.131 10.6533 108.318 10.0267 107.011 10.0267H103.984V13.7733ZM124.553 19L123.86 17.12H118.34L117.647 19H114.9L119.233 7.8H122.967L127.313 19H124.553ZM119.087 15.1067H123.113L121.353 10.32H120.847L119.087 15.1067ZM132.05 19V7.8H134.703V19H132.05ZM144.78 19.3733C141.367 19.3733 139.567 18.16 139.58 15.5333H141.98C142.073 16.5867 142.94 17.2533 144.78 17.2667C146.513 17.2667 147.46 16.68 147.46 15.8C147.46 15.0267 146.833 14.64 145.5 14.4133L144.113 14.1733C141.993 13.8 139.887 13.24 139.887 10.8C139.887 8.68 141.673 7.42667 144.807 7.42667C147.727 7.42667 149.753 8.45333 149.78 11.2267H147.393C147.22 10.2133 146.433 9.53333 144.753 9.53333C143.233 9.53333 142.433 10.0533 142.433 10.92C142.433 11.6 142.98 12.0267 144.127 12.24L145.34 12.4533C147.473 12.84 150.1 13.2 150.1 15.88C150.1 18.1067 148.273 19.3733 144.78 19.3733ZM173.125 19H170.485L168.645 15.6667H165.031V19H162.378V7.8H168.258C171.258 7.8 172.845 9.2 172.845 11.8133C172.845 13.3733 172.085 14.5067 170.938 15.1333L173.125 19ZM165.031 10.0267V13.6267H168.111C169.458 13.6267 170.205 13.0133 170.205 11.8267C170.205 10.64 169.458 10.0267 168.111 10.0267H165.031ZM178.019 19V7.8H187.445V9.97333H180.672V12.4267H187.205V14.3467H180.672V16.8133H187.445V19H178.019ZM197.483 19.3733C194.07 19.3733 192.27 18.16 192.283 15.5333H194.683C194.777 16.5867 195.643 17.2533 197.483 17.2667C199.217 17.2667 200.163 16.68 200.163 15.8C200.163 15.0267 199.537 14.64 198.203 14.4133L196.817 14.1733C194.697 13.8 192.59 13.24 192.59 10.8C192.59 8.68 194.377 7.42667 197.51 7.42667C200.43 7.42667 202.457 8.45333 202.483 11.2267H200.097C199.923 10.2133 199.137 9.53333 197.457 9.53333C195.937 9.53333 195.137 10.0533 195.137 10.92C195.137 11.6 195.683 12.0267 196.83 12.24L198.043 12.4533C200.177 12.84 202.803 13.2 202.803 15.88C202.803 18.1067 200.977 19.3733 197.483 19.3733ZM213.106 19.3733C209.653 19.3733 207.706 17.7467 207.706 14.3333V7.8H210.386V14.2667C210.386 16.0533 211.279 17.1333 213.106 17.1333C214.933 17.1333 215.839 16.0533 215.839 14.2667V7.8H218.506V14.3333C218.506 17.7467 216.559 19.3733 213.106 19.3733ZM223.644 19V7.8H226.297V16.7733H232.75V19H223.644ZM245.365 7.8V10.0267H241.165V19H238.498V10.0267H234.311V7.8H245.365ZM257.413 19L256.719 17.12H251.199L250.506 19H247.759L252.093 7.8H255.826L260.173 19H257.413ZM251.946 15.1067H255.973L254.213 10.32H253.706L251.946 15.1067ZM270.056 7.8C274.403 7.8 276.056 10.2133 276.056 13.4C276.056 16.5867 274.403 19 270.056 19H264.909V7.8H270.056ZM270.043 16.76C272.216 16.76 273.389 15.56 273.389 13.4C273.389 11.24 272.216 10.04 270.043 10.04H267.589L267.563 16.76H270.043ZM286.997 19.3733C283.343 19.3733 280.85 16.92 280.85 13.4C280.85 9.88 283.343 7.42667 286.997 7.42667C290.663 7.42667 293.157 9.88 293.157 13.4C293.157 16.92 290.663 19.3733 286.997 19.3733ZM286.997 17.0667C288.997 17.0667 290.517 15.6 290.517 13.4C290.517 11.2 288.997 9.73333 286.997 9.73333C285.01 9.73333 283.477 11.2 283.477 13.4C283.477 15.6 285.01 17.0667 286.997 17.0667ZM302.968 19.3733C299.554 19.3733 297.754 18.16 297.768 15.5333H300.168C300.261 16.5867 301.128 17.2533 302.968 17.2667C304.701 17.2667 305.648 16.68 305.648 15.8C305.648 15.0267 305.021 14.64 303.688 14.4133L302.301 14.1733C300.181 13.8 298.074 13.24 298.074 10.8C298.074 8.68 299.861 7.42667 302.994 7.42667C305.914 7.42667 307.941 8.45333 307.968 11.2267H305.581C305.408 10.2133 304.621 9.53333 302.941 9.53333C301.421 9.53333 300.621 10.0533 300.621 10.92C300.621 11.6 301.168 12.0267 302.314 12.24L303.528 12.4533C305.661 12.84 308.288 13.2 308.288 15.88C308.288 18.1067 306.461 19.3733 302.968 19.3733Z" fill="#F8F8F8"/>
<path d="M51.8753 37C63.4419 37 67.4086 42.9 67.4086 51C67.4086 59.0667 63.4419 65 51.8753 65H37.4086V37H51.8753ZM51.8753 56.5667C54.8419 56.5667 57.2753 55.1667 57.2753 51C57.2753 46.8 54.8419 45.4333 51.8753 45.4333H47.5419L47.5086 56.5667H51.8753ZM69.2445 65V37H95.0112V45.0333H79.3112V47.7667H94.4112V54.2333H79.3112V56.9333H95.0112V65H69.2445ZM105.963 65V37H117.497L125.563 50.9H126.497V37H136.33V65H125.03L116.697 51.1H115.797V65H105.963ZM154.002 65.9333C144.236 65.9333 138.002 60.0333 138.002 51C138.002 41.9667 144.236 36.0667 154.002 36.0667C163.802 36.0667 170.036 41.9667 170.036 51C170.036 60.0333 163.802 65.9333 154.002 65.9333ZM154.002 57.2333C157.236 57.2333 160.002 55.0667 160.002 51C160.002 46.9333 157.236 44.7667 154.002 44.7667C150.802 44.7667 148.002 46.9333 148.002 51C148.002 55.0667 150.802 57.2333 154.002 57.2333ZM185.222 65.9333C175.188 65.9 170.622 62.9 170.922 55.4H179.955C180.022 57.0667 181.422 58.0333 185.222 58.1C188.488 58.1333 189.888 57.2667 189.888 56.2667C189.888 55.7333 189.755 54.8 187.222 54.4667L183.555 53.9C178.288 53.0667 171.555 52.7 171.555 45.1667C171.555 39.5333 176.055 36.0667 185.322 36.0667C193.588 36.0667 199.355 38.2 199.122 46.5333H190.122C189.822 44.9 188.388 43.9 185.088 43.9C182.255 43.9 181.222 44.7 181.222 45.7C181.222 46.1667 181.455 47.1 183.355 47.4L186.288 47.8667C191.922 48.8 199.922 48.7 199.922 56.7C199.922 62.9667 195.122 65.9667 185.222 65.9333ZM215.495 65.9333C205.462 65.9 200.895 62.9 201.195 55.4H210.228C210.295 57.0667 211.695 58.0333 215.495 58.1C218.762 58.1333 220.162 57.2667 220.162 56.2667C220.162 55.7333 220.028 54.8 217.495 54.4667L213.828 53.9C208.562 53.0667 201.828 52.7 201.828 45.1667C201.828 39.5333 206.328 36.0667 215.595 36.0667C223.862 36.0667 229.628 38.2 229.395 46.5333H220.395C220.095 44.9 218.662 43.9 215.362 43.9C212.528 43.9 211.495 44.7 211.495 45.7C211.495 46.1667 211.728 47.1 213.628 47.4L216.562 47.8667C222.195 48.8 230.195 48.7 230.195 56.7C230.195 62.9667 225.395 65.9667 215.495 65.9333ZM247.284 65.9333C237.517 65.9333 231.284 60.0333 231.284 51C231.284 41.9667 237.517 36.0667 247.284 36.0667C257.084 36.0667 263.317 41.9667 263.317 51C263.317 60.0333 257.084 65.9333 247.284 65.9333ZM247.284 57.2333C250.517 57.2333 253.284 55.0667 253.284 51C253.284 46.9333 250.517 44.7667 247.284 44.7667C244.084 44.7667 241.284 46.9333 241.284 51C241.284 55.0667 244.084 57.2333 247.284 57.2333ZM278.503 65.9333C268.47 65.9 263.903 62.9 264.203 55.4H273.236C273.303 57.0667 274.703 58.0333 278.503 58.1C281.77 58.1333 283.17 57.2667 283.17 56.2667C283.17 55.7333 283.036 54.8 280.503 54.4667L276.836 53.9C271.57 53.0667 264.836 52.7 264.836 45.1667C264.836 39.5333 269.336 36.0667 278.603 36.0667C286.87 36.0667 292.636 38.2 292.403 46.5333H283.403C283.103 44.9 281.67 43.9 278.37 43.9C275.536 43.9 274.503 44.7 274.503 45.7C274.503 46.1667 274.736 47.1 276.636 47.4L279.57 47.8667C285.203 48.8 293.203 48.7 293.203 56.7C293.203 62.9667 288.403 65.9667 278.503 65.9333ZM70.7245 105.933C61.1578 105.933 54.8578 100.033 54.8578 91C54.8578 81.9667 61.1578 76.0667 70.7245 76.0667C77.7578 76.0667 85.0245 79.1667 85.7911 89.0333H76.1911C75.5578 86.1333 73.5911 84.7667 70.7245 84.7667C67.4911 84.7667 64.8578 87.1333 64.8578 91C64.8578 94.8333 67.4911 97.2333 70.7245 97.2333C73.5911 97.2333 75.5578 95.8667 76.1911 92.9H85.7911C85.0245 102.833 77.8578 105.933 70.7245 105.933ZM87.5062 105V77H97.5729V96.6H112.106V105H87.5062ZM114.381 105V77H124.448V105H114.381ZM126.647 105V77H152.414V85.0333H136.714V87.7667H151.814V94.2333H136.714V96.9333H152.414V105H126.647ZM154.616 105V77H166.149L174.216 90.9H175.149V77H184.982V105H173.682L165.349 91.1H164.449V105H154.616ZM216.921 77V85.4H206.988V105H196.888V85.4H186.988V77H216.921ZM218.912 105V77H244.679V85.0333H228.979V87.7667H244.079V94.2333H228.979V96.9333H244.679V105H218.912ZM260.554 105.933C250.52 105.9 245.954 102.9 246.254 95.4H255.287C255.354 97.0667 256.754 98.0333 260.554 98.1C263.82 98.1333 265.22 97.2667 265.22 96.2667C265.22 95.7333 265.087 94.8 262.554 94.4667L258.887 93.9C253.62 93.0667 246.887 92.7 246.887 85.1667C246.887 79.5333 251.387 76.0667 260.654 76.0667C268.92 76.0667 274.687 78.2 274.454 86.5333H265.454C265.154 84.9 263.72 83.9 260.42 83.9C257.587 83.9 256.554 84.7 256.554 85.7C256.554 86.1667 256.787 87.1 258.687 87.4L261.62 87.8667C267.254 88.8 275.254 88.7 275.254 96.7C275.254 102.967 270.454 105.967 260.554 105.933Z" fill="#F8F8F8"/>
<path d="M51.8753 37C63.4419 37 67.4086 42.9 67.4086 51C67.4086 59.0667 63.4419 65 51.8753 65H37.4086V37H51.8753ZM51.8753 56.5667C54.8419 56.5667 57.2753 55.1667 57.2753 51C57.2753 46.8 54.8419 45.4333 51.8753 45.4333H47.5419L47.5086 56.5667H51.8753ZM69.2445 65V37H95.0112V45.0333H79.3112V47.7667H94.4112V54.2333H79.3112V56.9333H95.0112V65H69.2445ZM105.963 65V37H117.497L125.563 50.9H126.497V37H136.33V65H125.03L116.697 51.1H115.797V65H105.963ZM154.002 65.9333C144.236 65.9333 138.002 60.0333 138.002 51C138.002 41.9667 144.236 36.0667 154.002 36.0667C163.802 36.0667 170.036 41.9667 170.036 51C170.036 60.0333 163.802 65.9333 154.002 65.9333ZM154.002 57.2333C157.236 57.2333 160.002 55.0667 160.002 51C160.002 46.9333 157.236 44.7667 154.002 44.7667C150.802 44.7667 148.002 46.9333 148.002 51C148.002 55.0667 150.802 57.2333 154.002 57.2333ZM185.222 65.9333C175.188 65.9 170.622 62.9 170.922 55.4H179.955C180.022 57.0667 181.422 58.0333 185.222 58.1C188.488 58.1333 189.888 57.2667 189.888 56.2667C189.888 55.7333 189.755 54.8 187.222 54.4667L183.555 53.9C178.288 53.0667 171.555 52.7 171.555 45.1667C171.555 39.5333 176.055 36.0667 185.322 36.0667C193.588 36.0667 199.355 38.2 199.122 46.5333H190.122C189.822 44.9 188.388 43.9 185.088 43.9C182.255 43.9 181.222 44.7 181.222 45.7C181.222 46.1667 181.455 47.1 183.355 47.4L186.288 47.8667C191.922 48.8 199.922 48.7 199.922 56.7C199.922 62.9667 195.122 65.9667 185.222 65.9333ZM215.495 65.9333C205.462 65.9 200.895 62.9 201.195 55.4H210.228C210.295 57.0667 211.695 58.0333 215.495 58.1C218.762 58.1333 220.162 57.2667 220.162 56.2667C220.162 55.7333 220.028 54.8 217.495 54.4667L213.828 53.9C208.562 53.0667 201.828 52.7 201.828 45.1667C201.828 39.5333 206.328 36.0667 215.595 36.0667C223.862 36.0667 229.628 38.2 229.395 46.5333H220.395C220.095 44.9 218.662 43.9 215.362 43.9C212.528 43.9 211.495 44.7 211.495 45.7C211.495 46.1667 211.728 47.1 213.628 47.4L216.562 47.8667C222.195 48.8 230.195 48.7 230.195 56.7C230.195 62.9667 225.395 65.9667 215.495 65.9333ZM247.284 65.9333C237.517 65.9333 231.284 60.0333 231.284 51C231.284 41.9667 237.517 36.0667 247.284 36.0667C257.084 36.0667 263.317 41.9667 263.317 51C263.317 60.0333 257.084 65.9333 247.284 65.9333ZM247.284 57.2333C250.517 57.2333 253.284 55.0667 253.284 51C253.284 46.9333 250.517 44.7667 247.284 44.7667C244.084 44.7667 241.284 46.9333 241.284 51C241.284 55.0667 244.084 57.2333 247.284 57.2333ZM278.503 65.9333C268.47 65.9 263.903 62.9 264.203 55.4H273.236C273.303 57.0667 274.703 58.0333 278.503 58.1C281.77 58.1333 283.17 57.2667 283.17 56.2667C283.17 55.7333 283.036 54.8 280.503 54.4667L276.836 53.9C271.57 53.0667 264.836 52.7 264.836 45.1667C264.836 39.5333 269.336 36.0667 278.603 36.0667C286.87 36.0667 292.636 38.2 292.403 46.5333H283.403C283.103 44.9 281.67 43.9 278.37 43.9C275.536 43.9 274.503 44.7 274.503 45.7C274.503 46.1667 274.736 47.1 276.636 47.4L279.57 47.8667C285.203 48.8 293.203 48.7 293.203 56.7C293.203 62.9667 288.403 65.9667 278.503 65.9333ZM70.7245 105.933C61.1578 105.933 54.8578 100.033 54.8578 91C54.8578 81.9667 61.1578 76.0667 70.7245 76.0667C77.7578 76.0667 85.0245 79.1667 85.7911 89.0333H76.1911C75.5578 86.1333 73.5911 84.7667 70.7245 84.7667C67.4911 84.7667 64.8578 87.1333 64.8578 91C64.8578 94.8333 67.4911 97.2333 70.7245 97.2333C73.5911 97.2333 75.5578 95.8667 76.1911 92.9H85.7911C85.0245 102.833 77.8578 105.933 70.7245 105.933ZM87.5062 105V77H97.5729V96.6H112.106V105H87.5062ZM114.381 105V77H124.448V105H114.381ZM126.647 105V77H152.414V85.0333H136.714V87.7667H151.814V94.2333H136.714V96.9333H152.414V105H126.647ZM154.616 105V77H166.149L174.216 90.9H175.149V77H184.982V105H173.682L165.349 91.1H164.449V105H154.616ZM216.921 77V85.4H206.988V105H196.888V85.4H186.988V77H216.921ZM218.912 105V77H244.679V85.0333H228.979V87.7667H244.079V94.2333H228.979V96.9333H244.679V105H218.912ZM260.554 105.933C250.52 105.9 245.954 102.9 246.254 95.4H255.287C255.354 97.0667 256.754 98.0333 260.554 98.1C263.82 98.1333 265.22 97.2667 265.22 96.2667C265.22 95.7333 265.087 94.8 262.554 94.4667L258.887 93.9C253.62 93.0667 246.887 92.7 246.887 85.1667C246.887 79.5333 251.387 76.0667 260.654 76.0667C268.92 76.0667 274.687 78.2 274.454 86.5333H265.454C265.154 84.9 263.72 83.9 260.42 83.9C257.587 83.9 256.554 84.7 256.554 85.7C256.554 86.1667 256.787 87.1 258.687 87.4L261.62 87.8667C267.254 88.8 275.254 88.7 275.254 96.7C275.254 102.967 270.454 105.967 260.554 105.933Z" fill="url(#paint0_linear_13_780)"/>
<defs>
<linearGradient id="paint0_linear_13_780" x1="330" y1="66" x2="0" y2="66" gradientUnits="userSpaceOnUse">
<stop stop-color="#9A9EED"/>
<stop offset="1" stop-color="#575AC0"/>
</linearGradient>
</defs>
</svg>
