<svg width="43" height="44" viewBox="0 0 43 44" fill="none" xmlns="http://www.w3.org/2000/svg">
<rect x="0.5" y="1" width="42" height="42" rx="7.5" fill="url(#paint0_linear_13_466)"/>
<rect x="0.5" y="1" width="42" height="42" rx="7.5" stroke="#6064C9"/>
<path fill-rule="evenodd" clip-rule="evenodd" d="M19.9534 12.8187C20.8075 11.9532 22.1916 11.9544 23.0459 12.8178L24.6071 14.3999H26.8125C28.0202 14.3999 29 15.3927 29 16.6166V18.8502L30.559 20.423C31.4149 21.2879 31.4155 22.7022 30.5601 23.5674L29 25.1483V27.3831C29 28.6069 28.0202 29.5998 26.8125 29.5998H24.6071L23.0467 31.1809C22.1926 32.0465 20.8084 32.0452 19.9542 31.1818L18.393 29.5998H16.1875C14.9798 29.5998 14 28.6069 14 27.3831V25.1483L12.4406 23.568C11.5851 22.703 11.5847 21.2972 12.4401 20.4322L14 18.8514V16.6166C14 15.3927 14.9798 14.3999 16.1875 14.3999H18.393L19.9534 12.8187Z" fill="#D9A3FF" fill-opacity="0.4"/>
<path d="M26.0075 20.2962C25.9525 20.1239 25.8062 19.9985 25.63 19.9732L23.0662 19.5957L21.92 17.2422C21.7613 16.918 21.2375 16.918 21.0787 17.2422L19.9325 19.5957L17.3688 19.9732C17.1925 19.9998 17.0463 20.1252 16.9913 20.2962C16.9363 20.4684 16.9825 20.6571 17.11 20.7825L18.965 22.6141L18.5263 25.2007C18.4963 25.3794 18.5688 25.5592 18.7125 25.6656C18.8563 25.772 19.0487 25.7846 19.2062 25.7023L21.4987 24.4812L23.7912 25.7023C23.86 25.7392 23.935 25.7568 24.0087 25.7568C24.1062 25.7568 24.2025 25.7264 24.285 25.6656C24.4287 25.5592 24.5012 25.3793 24.4712 25.2007L24.0325 22.6141L25.8875 20.7825C26.015 20.6559 26.0612 20.4672 26.0062 20.2962H26.0075Z" fill="#F5E2FF"/>
<defs>
<linearGradient id="paint0_linear_13_466" x1="0" y1="22" x2="43" y2="22" gradientUnits="userSpaceOnUse">
<stop stop-color="#333693"/>
<stop offset="1" stop-color="#181946"/>
</linearGradient>
</defs>
</svg>
