<svg width="246" height="44" viewBox="0 0 246 44" fill="none" xmlns="http://www.w3.org/2000/svg">
<rect y="0.5" width="246" height="43" rx="8" fill="url(#paint0_linear_29_1032)"/>
<path d="M16.5733 27.5V16.3H19.2267V27.5H16.5733ZM22.3702 27.5V16.3H25.4502L30.6502 23.8333H30.9035V16.3H33.5035V27.5H30.4769L25.2102 19.9667H24.9702V27.5H22.3702ZM45.3158 21.62C46.5292 22.1133 47.2225 22.9933 47.2225 24.34C47.2225 26.1933 45.9292 27.5 42.6225 27.5H36.6358V16.3H42.6492C45.8492 16.3 46.8625 17.62 46.8625 19.1667C46.8625 20.3533 46.2758 21.02 45.3158 21.4467V21.62ZM42.4492 18.38H39.2892V20.86H42.4492C43.6625 20.86 44.3158 20.4467 44.3158 19.6333C44.3158 18.82 43.6625 18.38 42.4492 18.38ZM42.5825 25.42C43.8225 25.42 44.5292 24.8333 44.5292 23.94C44.5292 23.0333 43.8225 22.54 42.5825 22.54H39.2892V25.42H42.5825ZM56.0356 27.8733C52.3823 27.8733 49.889 25.42 49.889 21.9C49.889 18.38 52.3823 15.9267 56.0356 15.9267C59.7023 15.9267 62.1956 18.38 62.1956 21.9C62.1956 25.42 59.7023 27.8733 56.0356 27.8733ZM56.0356 25.5667C58.0356 25.5667 59.5556 24.1 59.5556 21.9C59.5556 19.7 58.0356 18.2333 56.0356 18.2333C54.049 18.2333 52.5156 19.7 52.5156 21.9C52.5156 24.1 54.049 25.5667 56.0356 25.5667ZM70.5358 27.8733C67.0825 27.8733 65.1358 26.2467 65.1358 22.8333V16.3H67.8158V22.7667C67.8158 24.5533 68.7092 25.6333 70.5358 25.6333C72.3625 25.6333 73.2692 24.5533 73.2692 22.7667V16.3H75.9358V22.8333C75.9358 26.2467 73.9892 27.8733 70.5358 27.8733ZM79.0733 27.5V16.3H82.1533L87.3533 23.8333H87.6067V16.3H90.2067V27.5H87.18L81.9133 19.9667H81.6733V27.5H79.0733ZM98.4856 16.3C102.832 16.3 104.486 18.7133 104.486 21.9C104.486 25.0867 102.832 27.5 98.4856 27.5H93.339V16.3H98.4856ZM98.4723 25.26C100.646 25.26 101.819 24.06 101.819 21.9C101.819 19.74 100.646 18.54 98.4723 18.54H96.019L95.9923 25.26H98.4723ZM112.855 27.5V16.3H116.255L119.028 24.1533H119.228L122.001 16.3H125.401V27.5H122.855V20.7533H122.628L120.161 27.5H118.095L115.628 20.7533H115.401V27.5H112.855ZM137.795 27.5L137.102 25.62H131.582L130.889 27.5H128.142L132.475 16.3H136.209L140.555 27.5H137.795ZM132.329 23.6067H136.355L134.595 18.82H134.089L132.329 23.6067ZM154.039 27.5H151.399L149.559 24.1667H145.945V27.5H143.292V16.3H149.172C152.172 16.3 153.759 17.7 153.759 20.3133C153.759 21.8733 152.999 23.0067 151.852 23.6333L154.039 27.5ZM145.945 18.5267V22.1267H149.025C150.372 22.1267 151.119 21.5133 151.119 20.3267C151.119 19.14 150.372 18.5267 149.025 18.5267H145.945ZM168.133 27.5H165.359L161.693 22.8867H161.506L159.573 24.8867V27.5H156.933V16.3H159.573V21.6733H159.773L164.866 16.3H167.879L163.213 21.2733L168.133 27.5ZM170.636 27.5V16.3H180.062V18.4733H173.289V20.9267H179.823V22.8467H173.289V25.3133H180.062V27.5H170.636ZM194.201 16.3V18.5267H190.001V27.5H187.334V18.5267H183.147V16.3H194.201ZM197.261 27.5V16.3H199.914V27.5H197.261ZM203.058 27.5V16.3H206.138L211.338 23.8333H211.591V16.3H214.191V27.5H211.164L205.898 19.9667H205.658V27.5H203.058ZM228.963 21.58V27.5H227.297L227.27 25.8733C226.497 27.0467 225.083 27.8733 223.097 27.8733C219.71 27.8733 217.123 25.42 217.123 21.9C217.123 18.38 219.63 15.9267 223.31 15.9267C225.737 15.9267 228.19 17.06 228.79 19.8733H226.137C225.71 18.86 224.697 18.2333 223.35 18.2333C221.27 18.2333 219.75 19.74 219.75 21.9C219.75 24.0467 221.283 25.5667 223.297 25.5667C224.417 25.5667 225.977 25.0733 226.363 23.38H223.11V21.58H228.963Z" fill="#F8F8F8"/>
<defs>
<linearGradient id="paint0_linear_29_1032" x1="246" y1="22" x2="0" y2="22" gradientUnits="userSpaceOnUse">
<stop stop-color="#575AC0"/>
<stop offset="1" stop-color="#333693"/>
</linearGradient>
</defs>
</svg>
