<svg width="611" height="84" viewBox="0 0 611 84" fill="none" xmlns="http://www.w3.org/2000/svg">
<path d="M7.28 15.82C5.34667 15.82 3.76667 15.1467 2.54 13.8C1.31333 12.4533 0.7 10.6467 0.7 8.38C0.7 6.11333 1.31333 4.30667 2.54 2.96C3.76667 1.61333 5.34667 0.939999 7.28 0.939999C8.81333 0.939999 10.12 1.36 11.2 2.2C12.28 3.02667 12.9933 4.24 13.34 5.84H11.64C11.04 3.6 9.58667 2.48 7.28 2.48C5.82667 2.48 4.66 3 3.78 4.04C2.9 5.09333 2.46 6.54 2.46 8.38C2.46 10.22 2.9 11.66 3.78 12.7C4.66 13.7533 5.82667 14.28 7.28 14.28C8.37333 14.28 9.34667 13.94 10.2 13.26C11.04 12.6067 11.5533 11.6267 11.74 10.32H13.42C13.2333 12.0933 12.56 13.4467 11.4 14.38C10.2267 15.34 8.85333 15.82 7.28 15.82ZM23.3234 14.26C22.3768 15.2467 21.1768 15.74 19.7234 15.74C18.2701 15.74 17.0701 15.2467 16.1234 14.26C15.1901 13.2867 14.7234 11.98 14.7234 10.34C14.7234 8.7 15.1901 7.39333 16.1234 6.42C17.0701 5.43333 18.2701 4.94 19.7234 4.94C21.1768 4.94 22.3768 5.43333 23.3234 6.42C24.2568 7.39333 24.7234 8.7 24.7234 10.34C24.7234 11.98 24.2568 13.2867 23.3234 14.26ZM17.3034 13.24C17.9034 13.9467 18.7101 14.3 19.7234 14.3C20.7368 14.3 21.5434 13.9467 22.1434 13.24C22.7434 12.5467 23.0434 11.58 23.0434 10.34C23.0434 9.08667 22.7434 8.11333 22.1434 7.42C21.5434 6.72667 20.7368 6.38 19.7234 6.38C18.7101 6.38 17.9034 6.72667 17.3034 7.42C16.7034 8.11333 16.4034 9.08667 16.4034 10.34C16.4034 11.58 16.7034 12.5467 17.3034 13.24ZM37.4897 4.94C38.6097 4.94 39.4764 5.26667 40.0897 5.92C40.7164 6.56 41.0297 7.42 41.0297 8.5V15.5H39.4297V8.66C39.4297 7.14 38.7097 6.38 37.2697 6.38C36.5097 6.38 35.8764 6.68667 35.3697 7.3C34.8764 7.9 34.6297 8.75333 34.6297 9.86V15.5H33.0297V8.66C33.0297 7.14 32.3097 6.38 30.8697 6.38C30.123 6.38 29.4964 6.68667 28.9897 7.3C28.483 7.9 28.2297 8.75333 28.2297 9.86V15.5H26.6297V5.18H28.1497V6.7C28.8297 5.52667 29.823 4.94 31.1297 4.94C32.6764 4.94 33.7364 5.58667 34.3097 6.88C35.0297 5.58667 36.0897 4.94 37.4897 4.94ZM56.2352 10.34V10.9H48.3952C48.4752 12.02 48.7885 12.8667 49.3352 13.44C49.8818 14 50.6285 14.28 51.5752 14.28C53.0018 14.28 53.9152 13.64 54.3152 12.36H55.9752C55.6952 13.4 55.1752 14.2267 54.4152 14.84C53.6552 15.44 52.6952 15.74 51.5352 15.74C50.1085 15.74 48.9552 15.2533 48.0752 14.28C47.1818 13.3067 46.7352 11.9933 46.7352 10.34C46.7352 8.71333 47.1752 7.40667 48.0552 6.42C48.9218 5.43333 50.0685 4.94 51.4952 4.94C52.9752 4.94 54.1352 5.45333 54.9752 6.48C55.8152 7.50667 56.2352 8.79333 56.2352 10.34ZM51.4952 6.4C50.6552 6.4 49.9685 6.66667 49.4352 7.2C48.9018 7.72 48.5685 8.47333 48.4352 9.46H54.5152C54.4352 8.55333 54.1285 7.82 53.5952 7.26C53.0618 6.68667 52.3618 6.4 51.4952 6.4ZM61.6759 15.74C58.9159 15.74 57.4559 14.5667 57.2959 12.22H58.9159C59.0093 12.9933 59.2626 13.5467 59.6759 13.88C60.1026 14.2 60.7693 14.36 61.6759 14.36C63.3293 14.36 64.1559 13.8267 64.1559 12.76C64.1559 12.2933 63.9826 11.94 63.6359 11.7C63.3026 11.46 62.6893 11.2533 61.7959 11.08L60.8359 10.9C58.6893 10.5 57.6159 9.48667 57.6159 7.86C57.6159 6.96667 57.9493 6.26 58.6159 5.74C59.2959 5.20667 60.2159 4.94 61.3759 4.94C64.1093 4.94 65.5093 6.08 65.5759 8.36H63.9759C63.9359 7.61333 63.7093 7.08667 63.2959 6.78C62.8826 6.47333 62.2426 6.32 61.3759 6.32C60.6826 6.32 60.1493 6.45333 59.7759 6.72C59.4026 6.98667 59.2159 7.36 59.2159 7.84C59.2159 8.29333 59.3759 8.63333 59.6959 8.86C60.0159 9.08667 60.5493 9.28 61.2959 9.44L62.2159 9.62C63.4826 9.87333 64.3893 10.2333 64.9359 10.7C65.4959 11.1667 65.7759 11.82 65.7759 12.66C65.7759 13.6333 65.4093 14.3933 64.6759 14.94C63.9559 15.4733 62.9559 15.74 61.6759 15.74ZM71.6966 5.18V6.58H69.5766V13.28C69.5766 13.8667 69.9699 14.16 70.7566 14.16H71.6966V15.5C71.2566 15.54 70.8766 15.56 70.5566 15.56C68.8366 15.56 67.9766 14.8467 67.9766 13.42V6.58H66.2766V5.18H67.9766V2.26H69.5766V5.18H71.6966ZM78.2275 5.02C78.4942 5.02 78.6742 5.02667 78.7675 5.04V6.58H78.3675C77.3008 6.58 76.4675 6.84667 75.8675 7.38C75.2808 7.9 74.9875 8.64667 74.9875 9.62V15.5H73.3875V5.18H74.9075V7C75.6008 5.68 76.7075 5.02 78.2275 5.02ZM87.9994 14.2H88.5794V15.5C88.3127 15.54 88.0194 15.56 87.6994 15.56C86.6194 15.56 86.0394 15.0667 85.9594 14.08C85.2394 15.1867 84.1194 15.74 82.5994 15.74C81.466 15.74 80.5727 15.48 79.9194 14.96C79.2794 14.4267 78.9594 13.68 78.9594 12.72C78.9594 10.8533 80.2327 9.78667 82.7794 9.52L84.2594 9.36C85.3394 9.24 85.8794 8.76667 85.8794 7.94C85.8794 7.36667 85.6994 6.95333 85.3394 6.7C84.9927 6.44667 84.3994 6.32 83.5594 6.32C82.666 6.32 82.0194 6.47333 81.6194 6.78C81.2327 7.07333 81.0127 7.6 80.9594 8.36H79.3594C79.4927 6.08 80.8927 4.94 83.5594 4.94C86.146 4.94 87.4394 5.94 87.4394 7.94V13.7C87.4394 14.0333 87.626 14.2 87.9994 14.2ZM82.6794 14.38C83.5327 14.38 84.2794 14.12 84.9194 13.6C85.5594 13.0933 85.8794 12.3667 85.8794 11.42V10.2C85.586 10.4267 85.1327 10.5733 84.5194 10.64L83.0194 10.82C82.1527 10.9267 81.5327 11.1267 81.1594 11.42C80.7994 11.7133 80.6194 12.1333 80.6194 12.68C80.6194 13.2133 80.7927 13.6333 81.1394 13.94C81.486 14.2333 81.9994 14.38 82.6794 14.38ZM94.1184 5.18V6.58H91.9984V13.28C91.9984 13.8667 92.3918 14.16 93.1784 14.16H94.1184V15.5C93.6784 15.54 93.2984 15.56 92.9784 15.56C91.2584 15.56 90.3984 14.8467 90.3984 13.42V6.58H88.6984V5.18H90.3984V2.26H91.9984V5.18H94.1184ZM100.934 0.739999H103.094L100.634 3.62H99.2141L100.934 0.739999ZM104.614 10.34V10.9H96.7741C96.8541 12.02 97.1674 12.8667 97.7141 13.44C98.2607 14 99.0074 14.28 99.9541 14.28C101.381 14.28 102.294 13.64 102.694 12.36H104.354C104.074 13.4 103.554 14.2267 102.794 14.84C102.034 15.44 101.074 15.74 99.9141 15.74C98.4874 15.74 97.3341 15.2533 96.4541 14.28C95.5607 13.3067 95.1141 11.9933 95.1141 10.34C95.1141 8.71333 95.5541 7.40667 96.4341 6.42C97.3007 5.43333 98.4474 4.94 99.8741 4.94C101.354 4.94 102.514 5.45333 103.354 6.48C104.194 7.50667 104.614 8.79333 104.614 10.34ZM99.8741 6.4C99.0341 6.4 98.3474 6.66667 97.8141 7.2C97.2807 7.72 96.9474 8.47333 96.8141 9.46H102.894C102.814 8.55333 102.507 7.82 101.974 7.26C101.441 6.68667 100.741 6.4 99.8741 6.4ZM114.353 6.68V5.18H115.872V15.1C115.872 16.5133 115.459 17.6267 114.633 18.44C113.806 19.2533 112.619 19.66 111.073 19.66C109.793 19.66 108.766 19.3667 107.993 18.78C107.219 18.1933 106.779 17.38 106.673 16.34H108.273C108.473 17.6467 109.406 18.3 111.073 18.3C113.206 18.3 114.273 17.2333 114.273 15.1V14.1C113.459 15.1933 112.306 15.74 110.813 15.74C109.359 15.74 108.199 15.2467 107.333 14.26C106.453 13.2733 106.013 11.9667 106.013 10.34C106.013 8.68667 106.453 7.37333 107.333 6.4C108.186 5.42667 109.346 4.94 110.813 4.94C112.346 4.94 113.526 5.52 114.353 6.68ZM111.013 14.3C112.026 14.3 112.833 13.9467 113.433 13.24C114.033 12.5333 114.333 11.5667 114.333 10.34C114.333 9.11333 114.033 8.14667 113.433 7.44C112.833 6.73333 112.026 6.38 111.013 6.38C110.013 6.38 109.206 6.74 108.593 7.46C107.993 8.18 107.693 9.14 107.693 10.34C107.693 11.54 107.993 12.5 108.593 13.22C109.206 13.94 110.013 14.3 111.013 14.3ZM119.91 3.62H118.21V1.66H119.91V3.62ZM119.87 15.5H118.27V5.18H119.87V15.5ZM130.714 14.2H131.294V15.5C131.028 15.54 130.734 15.56 130.414 15.56C129.334 15.56 128.754 15.0667 128.674 14.08C127.954 15.1867 126.834 15.74 125.314 15.74C124.181 15.74 123.288 15.48 122.634 14.96C121.994 14.4267 121.674 13.68 121.674 12.72C121.674 10.8533 122.948 9.78667 125.494 9.52L126.974 9.36C128.054 9.24 128.594 8.76667 128.594 7.94C128.594 7.36667 128.414 6.95333 128.054 6.7C127.708 6.44667 127.114 6.32 126.274 6.32C125.381 6.32 124.734 6.47333 124.334 6.78C123.948 7.07333 123.728 7.6 123.674 8.36H122.074C122.208 6.08 123.608 4.94 126.274 4.94C128.861 4.94 130.154 5.94 130.154 7.94V13.7C130.154 14.0333 130.341 14.2 130.714 14.2ZM125.394 14.38C126.248 14.38 126.994 14.12 127.634 13.6C128.274 13.0933 128.594 12.3667 128.594 11.42V10.2C128.301 10.4267 127.848 10.5733 127.234 10.64L125.734 10.82C124.868 10.9267 124.248 11.1267 123.874 11.42C123.514 11.7133 123.334 12.1333 123.334 12.68C123.334 13.2133 123.508 13.6333 123.854 13.94C124.201 14.2333 124.714 14.38 125.394 14.38ZM136.344 15.74C133.584 15.74 132.124 14.5667 131.964 12.22H133.584C133.677 12.9933 133.931 13.5467 134.344 13.88C134.771 14.2 135.437 14.36 136.344 14.36C137.997 14.36 138.824 13.8267 138.824 12.76C138.824 12.2933 138.651 11.94 138.304 11.7C137.971 11.46 137.357 11.2533 136.464 11.08L135.504 10.9C133.357 10.5 132.284 9.48667 132.284 7.86C132.284 6.96667 132.617 6.26 133.284 5.74C133.964 5.20667 134.884 4.94 136.044 4.94C138.777 4.94 140.177 6.08 140.244 8.36H138.644C138.604 7.61333 138.377 7.08667 137.964 6.78C137.551 6.47333 136.911 6.32 136.044 6.32C135.351 6.32 134.817 6.45333 134.444 6.72C134.071 6.98667 133.884 7.36 133.884 7.84C133.884 8.29333 134.044 8.63333 134.364 8.86C134.684 9.08667 135.217 9.28 135.964 9.44L136.884 9.62C138.151 9.87333 139.057 10.2333 139.604 10.7C140.164 11.1667 140.444 11.82 140.444 12.66C140.444 13.6333 140.077 14.3933 139.344 14.94C138.624 15.4733 137.624 15.74 136.344 15.74ZM153.608 6.66V1.26H155.208V15.5H153.688V13.9C152.862 15.1267 151.682 15.74 150.148 15.74C148.695 15.74 147.535 15.2467 146.668 14.26C145.788 13.2733 145.348 11.9667 145.348 10.34C145.348 8.68667 145.788 7.37333 146.668 6.4C147.522 5.42667 148.682 4.94 150.148 4.94C151.628 4.94 152.782 5.51333 153.608 6.66ZM147.028 10.42C147.028 11.6467 147.328 12.6 147.928 13.28C148.528 13.96 149.335 14.3 150.348 14.3C151.362 14.3 152.168 13.9467 152.768 13.24C153.368 12.5467 153.668 11.58 153.668 10.34C153.668 9.11333 153.368 8.14667 152.768 7.44C152.168 6.73333 151.362 6.38 150.348 6.38C149.348 6.38 148.542 6.74667 147.928 7.48C147.328 8.2 147.028 9.18 147.028 10.42ZM166.606 10.34V10.9H158.766C158.846 12.02 159.16 12.8667 159.706 13.44C160.253 14 161 14.28 161.946 14.28C163.373 14.28 164.286 13.64 164.686 12.36H166.346C166.066 13.4 165.546 14.2267 164.786 14.84C164.026 15.44 163.066 15.74 161.906 15.74C160.48 15.74 159.326 15.2533 158.446 14.28C157.553 13.3067 157.106 11.9933 157.106 10.34C157.106 8.71333 157.546 7.40667 158.426 6.42C159.293 5.43333 160.44 4.94 161.866 4.94C163.346 4.94 164.506 5.45333 165.346 6.48C166.186 7.50667 166.606 8.79333 166.606 10.34ZM161.866 6.4C161.026 6.4 160.34 6.66667 159.806 7.2C159.273 7.72 158.94 8.47333 158.806 9.46H164.886C164.806 8.55333 164.5 7.82 163.966 7.26C163.433 6.68667 162.733 6.4 161.866 6.4ZM176.593 15.74C175.167 15.74 174.013 15.2467 173.133 14.26C172.253 13.2733 171.813 11.9667 171.813 10.34C171.813 8.68667 172.253 7.37333 173.133 6.4C173.987 5.42667 175.14 4.94 176.593 4.94C177.82 4.94 178.827 5.27333 179.613 5.94C180.4 6.60667 180.873 7.52 181.033 8.68H179.373C179.253 7.94667 178.933 7.38 178.413 6.98C177.907 6.58 177.3 6.38 176.593 6.38C175.647 6.38 174.893 6.72667 174.333 7.42C173.773 8.1 173.493 9.07333 173.493 10.34C173.493 11.5933 173.773 12.5667 174.333 13.26C174.907 13.9533 175.66 14.3 176.593 14.3C177.3 14.3 177.913 14.0933 178.433 13.68C178.953 13.2667 179.273 12.6933 179.393 11.96H181.033C180.86 13.12 180.367 14.04 179.553 14.72C178.753 15.4 177.767 15.74 176.593 15.74ZM190.843 14.26C189.896 15.2467 188.696 15.74 187.243 15.74C185.79 15.74 184.59 15.2467 183.643 14.26C182.71 13.2867 182.243 11.98 182.243 10.34C182.243 8.7 182.71 7.39333 183.643 6.42C184.59 5.43333 185.79 4.94 187.243 4.94C188.696 4.94 189.896 5.43333 190.843 6.42C191.776 7.39333 192.243 8.7 192.243 10.34C192.243 11.98 191.776 13.2867 190.843 14.26ZM184.823 13.24C185.423 13.9467 186.23 14.3 187.243 14.3C188.256 14.3 189.063 13.9467 189.663 13.24C190.263 12.5467 190.563 11.58 190.563 10.34C190.563 9.08667 190.263 8.11333 189.663 7.42C189.063 6.72667 188.256 6.38 187.243 6.38C186.23 6.38 185.423 6.72667 184.823 7.42C184.223 8.11333 183.923 9.08667 183.923 10.34C183.923 11.58 184.223 12.5467 184.823 13.24ZM198.909 4.94C200.056 4.94 200.949 5.25333 201.589 5.88C202.229 6.50667 202.549 7.38667 202.549 8.52V15.5H200.949V8.68C200.949 7.14667 200.163 6.38 198.589 6.38C197.843 6.38 197.183 6.66 196.609 7.22C196.036 7.78 195.749 8.59333 195.749 9.66V15.5H194.149V5.18H195.669V6.72C196.456 5.53333 197.536 4.94 198.909 4.94ZM209.079 5.18V6.58H206.959V13.28C206.959 13.8667 207.353 14.16 208.139 14.16H209.079V15.5C208.639 15.54 208.259 15.56 207.939 15.56C206.219 15.56 205.359 14.8467 205.359 13.42V6.58H203.659V5.18H205.359V2.26H206.959V5.18H209.079ZM219.575 10.34V10.9H211.735C211.815 12.02 212.128 12.8667 212.675 13.44C213.222 14 213.968 14.28 214.915 14.28C216.342 14.28 217.255 13.64 217.655 12.36H219.315C219.035 13.4 218.515 14.2267 217.755 14.84C216.995 15.44 216.035 15.74 214.875 15.74C213.448 15.74 212.295 15.2533 211.415 14.28C210.522 13.3067 210.075 11.9933 210.075 10.34C210.075 8.71333 210.515 7.40667 211.395 6.42C212.262 5.43333 213.408 4.94 214.835 4.94C216.315 4.94 217.475 5.45333 218.315 6.48C219.155 7.50667 219.575 8.79333 219.575 10.34ZM214.835 6.4C213.995 6.4 213.308 6.66667 212.775 7.2C212.242 7.72 211.908 8.47333 211.775 9.46H217.855C217.775 8.55333 217.468 7.82 216.935 7.26C216.402 6.68667 215.702 6.4 214.835 6.4ZM226.34 0.739999H228.5L226.04 3.62H224.62L226.34 0.739999ZM227.98 11.02V5.18H229.58V15.5H228.06V13.96C227.274 15.1467 226.194 15.74 224.82 15.74C223.674 15.74 222.78 15.4267 222.14 14.8C221.5 14.1733 221.18 13.2933 221.18 12.16V5.18H222.78V12C222.78 13.5333 223.567 14.3 225.14 14.3C225.887 14.3 226.547 14.02 227.12 13.46C227.694 12.9 227.98 12.0867 227.98 11.02ZM239.741 6.66V1.26H241.341V15.5H239.821V13.9C238.995 15.1267 237.815 15.74 236.281 15.74C234.828 15.74 233.668 15.2467 232.801 14.26C231.921 13.2733 231.481 11.9667 231.481 10.34C231.481 8.68667 231.921 7.37333 232.801 6.4C233.655 5.42667 234.815 4.94 236.281 4.94C237.761 4.94 238.915 5.51333 239.741 6.66ZM233.161 10.42C233.161 11.6467 233.461 12.6 234.061 13.28C234.661 13.96 235.468 14.3 236.481 14.3C237.495 14.3 238.301 13.9467 238.901 13.24C239.501 12.5467 239.801 11.58 239.801 10.34C239.801 9.11333 239.501 8.14667 238.901 7.44C238.301 6.73333 237.495 6.38 236.481 6.38C235.481 6.38 234.675 6.74667 234.061 7.48C233.461 8.2 233.161 9.18 233.161 10.42ZM251.839 14.26C250.892 15.2467 249.692 15.74 248.239 15.74C246.786 15.74 245.586 15.2467 244.639 14.26C243.706 13.2867 243.239 11.98 243.239 10.34C243.239 8.7 243.706 7.39333 244.639 6.42C245.586 5.43333 246.786 4.94 248.239 4.94C249.692 4.94 250.892 5.43333 251.839 6.42C252.772 7.39333 253.239 8.7 253.239 10.34C253.239 11.98 252.772 13.2867 251.839 14.26ZM245.819 13.24C246.419 13.9467 247.226 14.3 248.239 14.3C249.252 14.3 250.059 13.9467 250.659 13.24C251.259 12.5467 251.559 11.58 251.559 10.34C251.559 9.08667 251.259 8.11333 250.659 7.42C250.059 6.72667 249.252 6.38 248.239 6.38C247.226 6.38 246.419 6.72667 245.819 7.42C245.219 8.11333 244.919 9.08667 244.919 10.34C244.919 11.58 245.219 12.5467 245.819 13.24ZM254.045 15.5V13.5H256.065V15.68C256.065 17.28 255.458 18.14 254.245 18.26L254.045 18.28V17.2L254.185 17.18C254.678 17.1267 254.925 16.6733 254.925 15.82V15.5H254.045ZM270.421 14.2H271.001V15.5C270.735 15.54 270.441 15.56 270.121 15.56C269.041 15.56 268.461 15.0667 268.381 14.08C267.661 15.1867 266.541 15.74 265.021 15.74C263.888 15.74 262.995 15.48 262.341 14.96C261.701 14.4267 261.381 13.68 261.381 12.72C261.381 10.8533 262.655 9.78667 265.201 9.52L266.681 9.36C267.761 9.24 268.301 8.76667 268.301 7.94C268.301 7.36667 268.121 6.95333 267.761 6.7C267.415 6.44667 266.821 6.32 265.981 6.32C265.088 6.32 264.441 6.47333 264.041 6.78C263.655 7.07333 263.435 7.6 263.381 8.36H261.781C261.915 6.08 263.315 4.94 265.981 4.94C268.568 4.94 269.861 5.94 269.861 7.94V13.7C269.861 14.0333 270.048 14.2 270.421 14.2ZM265.101 14.38C265.955 14.38 266.701 14.12 267.341 13.6C267.981 13.0933 268.301 12.3667 268.301 11.42V10.2C268.008 10.4267 267.555 10.5733 266.941 10.64L265.441 10.82C264.575 10.9267 263.955 11.1267 263.581 11.42C263.221 11.7133 263.041 12.1333 263.041 12.68C263.041 13.2133 263.215 13.6333 263.561 13.94C263.908 14.2333 264.421 14.38 265.101 14.38ZM279.211 11.02V5.18H280.811V15.5H279.291V13.96C278.504 15.1467 277.424 15.74 276.051 15.74C274.904 15.74 274.011 15.4267 273.371 14.8C272.731 14.1733 272.411 13.2933 272.411 12.16V5.18H274.011V12C274.011 13.5333 274.798 14.3 276.371 14.3C277.118 14.3 277.778 14.02 278.351 13.46C278.924 12.9 279.211 12.0867 279.211 11.02ZM287.732 5.18V6.58H285.612V13.28C285.612 13.8667 286.005 14.16 286.792 14.16H287.732V15.5C287.292 15.54 286.912 15.56 286.592 15.56C284.872 15.56 284.012 14.8467 284.012 13.42V6.58H282.312V5.18H284.012V2.26H285.612V5.18H287.732ZM297.327 14.26C296.381 15.2467 295.181 15.74 293.727 15.74C292.274 15.74 291.074 15.2467 290.127 14.26C289.194 13.2867 288.727 11.98 288.727 10.34C288.727 8.7 289.194 7.39333 290.127 6.42C291.074 5.43333 292.274 4.94 293.727 4.94C295.181 4.94 296.381 5.43333 297.327 6.42C298.261 7.39333 298.727 8.7 298.727 10.34C298.727 11.98 298.261 13.2867 297.327 14.26ZM291.307 13.24C291.907 13.9467 292.714 14.3 293.727 14.3C294.741 14.3 295.547 13.9467 296.147 13.24C296.747 12.5467 297.047 11.58 297.047 10.34C297.047 9.08667 296.747 8.11333 296.147 7.42C295.547 6.72667 294.741 6.38 293.727 6.38C292.714 6.38 291.907 6.72667 291.307 7.42C290.707 8.11333 290.407 9.08667 290.407 10.34C290.407 11.58 290.707 12.5467 291.307 13.24ZM311.494 4.94C312.614 4.94 313.48 5.26667 314.094 5.92C314.72 6.56 315.034 7.42 315.034 8.5V15.5H313.434V8.66C313.434 7.14 312.714 6.38 311.274 6.38C310.514 6.38 309.88 6.68667 309.374 7.3C308.88 7.9 308.634 8.75333 308.634 9.86V15.5H307.034V8.66C307.034 7.14 306.314 6.38 304.874 6.38C304.127 6.38 303.5 6.68667 302.994 7.3C302.487 7.9 302.234 8.75333 302.234 9.86V15.5H300.634V5.18H302.154V6.7C302.834 5.52667 303.827 4.94 305.134 4.94C306.68 4.94 307.74 5.58667 308.314 6.88C309.034 5.58667 310.094 4.94 311.494 4.94ZM325.87 14.2H326.45V15.5C326.184 15.54 325.89 15.56 325.57 15.56C324.49 15.56 323.91 15.0667 323.83 14.08C323.11 15.1867 321.99 15.74 320.47 15.74C319.337 15.74 318.444 15.48 317.79 14.96C317.15 14.4267 316.83 13.68 316.83 12.72C316.83 10.8533 318.104 9.78667 320.65 9.52L322.13 9.36C323.21 9.24 323.75 8.76667 323.75 7.94C323.75 7.36667 323.57 6.95333 323.21 6.7C322.864 6.44667 322.27 6.32 321.43 6.32C320.537 6.32 319.89 6.47333 319.49 6.78C319.104 7.07333 318.884 7.6 318.83 8.36H317.23C317.364 6.08 318.764 4.94 321.43 4.94C324.017 4.94 325.31 5.94 325.31 7.94V13.7C325.31 14.0333 325.497 14.2 325.87 14.2ZM320.55 14.38C321.404 14.38 322.15 14.12 322.79 13.6C323.43 13.0933 323.75 12.3667 323.75 11.42V10.2C323.457 10.4267 323.004 10.5733 322.39 10.64L320.89 10.82C320.024 10.9267 319.404 11.1267 319.03 11.42C318.67 11.7133 318.49 12.1333 318.49 12.68C318.49 13.2133 318.664 13.6333 319.01 13.94C319.357 14.2333 319.87 14.38 320.55 14.38ZM332.043 14.3C332.749 14.3 333.363 14.0933 333.883 13.68C334.403 13.2667 334.723 12.6933 334.843 11.96H336.483C336.336 12.96 335.949 13.7867 335.323 14.44C334.709 15.0933 333.923 15.5 332.963 15.66L332.143 16.6H332.323C332.869 16.6 333.303 16.7467 333.623 17.04C333.956 17.3333 334.123 17.7133 334.123 18.18C334.123 19.46 333.209 20.1 331.383 20.1C330.969 20.1 330.563 20.06 330.163 19.98V19.06C330.536 19.1133 330.923 19.14 331.323 19.14C331.709 19.14 332.016 19.06 332.243 18.9C332.469 18.74 332.583 18.5133 332.583 18.22C332.583 17.6733 332.203 17.4 331.443 17.4C331.189 17.4 331.003 17.4067 330.883 17.42V16.66L331.623 15.72C330.289 15.6133 329.229 15.08 328.443 14.12C327.656 13.1467 327.263 11.8867 327.263 10.34C327.263 8.68667 327.703 7.37333 328.583 6.4C329.436 5.42667 330.589 4.94 332.043 4.94C333.269 4.94 334.276 5.27333 335.063 5.94C335.849 6.60667 336.323 7.52 336.483 8.68H334.823C334.703 7.94667 334.383 7.38 333.863 6.98C333.356 6.58 332.749 6.38 332.043 6.38C331.096 6.38 330.343 6.72667 329.783 7.42C329.223 8.1 328.943 9.07333 328.943 10.34C328.943 11.5933 329.223 12.5667 329.783 13.26C330.356 13.9533 331.109 14.3 332.043 14.3ZM340.672 3.62H339.312C339.312 1.98 339.912 1.16 341.112 1.16C341.539 1.16 342.119 1.34667 342.852 1.72C343.399 2.01333 343.819 2.16 344.112 2.16C344.486 2.16 344.672 1.82667 344.672 1.16H346.032C346.032 2.8 345.432 3.62 344.232 3.62C343.859 3.62 343.252 3.42667 342.412 3.04C341.826 2.76 341.432 2.62 341.232 2.62C340.859 2.62 340.672 2.95333 340.672 3.62ZM346.292 14.26C345.346 15.2467 344.146 15.74 342.692 15.74C341.239 15.74 340.039 15.2467 339.092 14.26C338.159 13.2867 337.692 11.98 337.692 10.34C337.692 8.7 338.159 7.39333 339.092 6.42C340.039 5.43333 341.239 4.94 342.692 4.94C344.146 4.94 345.346 5.43333 346.292 6.42C347.226 7.39333 347.692 8.7 347.692 10.34C347.692 11.98 347.226 13.2867 346.292 14.26ZM340.272 13.24C340.872 13.9467 341.679 14.3 342.692 14.3C343.706 14.3 344.512 13.9467 345.112 13.24C345.712 12.5467 346.012 11.58 346.012 10.34C346.012 9.08667 345.712 8.11333 345.112 7.42C344.512 6.72667 343.706 6.38 342.692 6.38C341.679 6.38 340.872 6.72667 340.272 7.42C339.672 8.11333 339.372 9.08667 339.372 10.34C339.372 11.58 339.672 12.5467 340.272 13.24ZM358.598 10.34V10.9H350.758C350.838 12.02 351.152 12.8667 351.698 13.44C352.245 14 352.992 14.28 353.938 14.28C355.365 14.28 356.278 13.64 356.678 12.36H358.338C358.058 13.4 357.538 14.2267 356.778 14.84C356.018 15.44 355.058 15.74 353.898 15.74C352.472 15.74 351.318 15.2533 350.438 14.28C349.545 13.3067 349.098 11.9933 349.098 10.34C349.098 8.71333 349.538 7.40667 350.418 6.42C351.285 5.43333 352.432 4.94 353.858 4.94C355.338 4.94 356.498 5.45333 357.338 6.48C358.178 7.50667 358.598 8.79333 358.598 10.34ZM353.858 6.4C353.018 6.4 352.332 6.66667 351.798 7.2C351.265 7.72 350.932 8.47333 350.798 9.46H356.878C356.798 8.55333 356.492 7.82 355.958 7.26C355.425 6.68667 354.725 6.4 353.858 6.4ZM364.039 15.74C361.279 15.74 359.819 14.5667 359.659 12.22H361.279C361.373 12.9933 361.626 13.5467 362.039 13.88C362.466 14.2 363.133 14.36 364.039 14.36C365.693 14.36 366.519 13.8267 366.519 12.76C366.519 12.2933 366.346 11.94 365.999 11.7C365.666 11.46 365.053 11.2533 364.159 11.08L363.199 10.9C361.053 10.5 359.979 9.48667 359.979 7.86C359.979 6.96667 360.313 6.26 360.979 5.74C361.659 5.20667 362.579 4.94 363.739 4.94C366.473 4.94 367.873 6.08 367.939 8.36H366.339C366.299 7.61333 366.073 7.08667 365.659 6.78C365.246 6.47333 364.606 6.32 363.739 6.32C363.046 6.32 362.513 6.45333 362.139 6.72C361.766 6.98667 361.579 7.36 361.579 7.84C361.579 8.29333 361.739 8.63333 362.059 8.86C362.379 9.08667 362.913 9.28 363.659 9.44L364.579 9.62C365.846 9.87333 366.753 10.2333 367.299 10.7C367.859 11.1667 368.139 11.82 368.139 12.66C368.139 13.6333 367.773 14.3933 367.039 14.94C366.319 15.4733 365.319 15.74 364.039 15.74ZM382.544 10.34V10.9H374.704C374.784 12.02 375.097 12.8667 375.644 13.44C376.19 14 376.937 14.28 377.884 14.28C379.31 14.28 380.224 13.64 380.624 12.36H382.284C382.004 13.4 381.484 14.2267 380.724 14.84C379.964 15.44 379.004 15.74 377.844 15.74C376.417 15.74 375.264 15.2533 374.384 14.28C373.49 13.3067 373.044 11.9933 373.044 10.34C373.044 8.71333 373.484 7.40667 374.364 6.42C375.23 5.43333 376.377 4.94 377.804 4.94C379.284 4.94 380.444 5.45333 381.284 6.48C382.124 7.50667 382.544 8.79333 382.544 10.34ZM377.804 6.4C376.964 6.4 376.277 6.66667 375.744 7.2C375.21 7.72 374.877 8.47333 374.744 9.46H380.824C380.744 8.55333 380.437 7.82 379.904 7.26C379.37 6.68667 378.67 6.4 377.804 6.4ZM393.011 4.94C394.157 4.94 395.051 5.25333 395.691 5.88C396.331 6.50667 396.651 7.38667 396.651 8.52V15.5H395.051V8.68C395.051 7.14667 394.264 6.38 392.691 6.38C391.944 6.38 391.284 6.66 390.711 7.22C390.137 7.78 389.851 8.59333 389.851 9.66V15.5H388.251V5.18H389.771V6.72C390.557 5.53333 391.637 4.94 393.011 4.94ZM405.461 11.02V5.18H407.061V15.5H405.541V13.96C404.754 15.1467 403.674 15.74 402.301 15.74C401.154 15.74 400.261 15.4267 399.621 14.8C398.981 14.1733 398.661 13.2933 398.661 12.16V5.18H400.261V12C400.261 13.5333 401.048 14.3 402.621 14.3C403.368 14.3 404.028 14.02 404.601 13.46C405.174 12.9 405.461 12.0867 405.461 11.02ZM413.982 5.18V6.58H411.862V13.28C411.862 13.8667 412.255 14.16 413.042 14.16H413.982V15.5C413.542 15.54 413.162 15.56 412.842 15.56C411.122 15.56 410.262 14.8467 410.262 13.42V6.58H408.562V5.18H410.262V2.26H411.862V5.18H413.982ZM420.513 5.02C420.779 5.02 420.959 5.02667 421.053 5.04V6.58H420.653C419.586 6.58 418.753 6.84667 418.153 7.38C417.566 7.9 417.273 8.64667 417.273 9.62V15.5H415.673V5.18H417.193V7C417.886 5.68 418.993 5.02 420.513 5.02ZM424.188 3.62H422.488V1.66H424.188V3.62ZM424.148 15.5H422.548V5.18H424.148V15.5ZM430.832 14.3C431.538 14.3 432.152 14.0933 432.672 13.68C433.192 13.2667 433.512 12.6933 433.632 11.96H435.272C435.125 12.96 434.738 13.7867 434.112 14.44C433.498 15.0933 432.712 15.5 431.752 15.66L430.932 16.6H431.112C431.658 16.6 432.092 16.7467 432.412 17.04C432.745 17.3333 432.912 17.7133 432.912 18.18C432.912 19.46 431.998 20.1 430.172 20.1C429.758 20.1 429.352 20.06 428.952 19.98V19.06C429.325 19.1133 429.712 19.14 430.112 19.14C430.498 19.14 430.805 19.06 431.032 18.9C431.258 18.74 431.372 18.5133 431.372 18.22C431.372 17.6733 430.992 17.4 430.232 17.4C429.978 17.4 429.792 17.4067 429.672 17.42V16.66L430.412 15.72C429.078 15.6133 428.018 15.08 427.232 14.12C426.445 13.1467 426.052 11.8867 426.052 10.34C426.052 8.68667 426.492 7.37333 427.372 6.4C428.225 5.42667 429.378 4.94 430.832 4.94C432.058 4.94 433.065 5.27333 433.852 5.94C434.638 6.60667 435.112 7.52 435.272 8.68H433.612C433.492 7.94667 433.172 7.38 432.652 6.98C432.145 6.58 431.538 6.38 430.832 6.38C429.885 6.38 429.132 6.72667 428.572 7.42C428.012 8.1 427.732 9.07333 427.732 10.34C427.732 11.5933 428.012 12.5667 428.572 13.26C429.145 13.9533 429.898 14.3 430.832 14.3ZM439.521 2.62C439.148 2.62 438.961 2.95333 438.961 3.62H437.601C437.601 1.98 438.201 1.16 439.401 1.16C439.828 1.16 440.408 1.34667 441.141 1.72C441.688 2.01333 442.108 2.16 442.401 2.16C442.775 2.16 442.961 1.82667 442.961 1.16H444.321C444.321 2.8 443.721 3.62 442.521 3.62C442.148 3.62 441.541 3.42667 440.701 3.04C440.115 2.76 439.721 2.62 439.521 2.62ZM445.421 14.2H446.001V15.5C445.735 15.54 445.441 15.56 445.121 15.56C444.041 15.56 443.461 15.0667 443.381 14.08C442.661 15.1867 441.541 15.74 440.021 15.74C438.888 15.74 437.995 15.48 437.341 14.96C436.701 14.4267 436.381 13.68 436.381 12.72C436.381 10.8533 437.655 9.78667 440.201 9.52L441.681 9.36C442.761 9.24 443.301 8.76667 443.301 7.94C443.301 7.36667 443.121 6.95333 442.761 6.7C442.415 6.44667 441.821 6.32 440.981 6.32C440.088 6.32 439.441 6.47333 439.041 6.78C438.655 7.07333 438.435 7.6 438.381 8.36H436.781C436.915 6.08 438.315 4.94 440.981 4.94C443.568 4.94 444.861 5.94 444.861 7.94V13.7C444.861 14.0333 445.048 14.2 445.421 14.2ZM440.101 14.38C440.955 14.38 441.701 14.12 442.341 13.6C442.981 13.0933 443.301 12.3667 443.301 11.42V10.2C443.008 10.4267 442.555 10.5733 441.941 10.64L440.441 10.82C439.575 10.9267 438.955 11.1267 438.581 11.42C438.221 11.7133 438.041 12.1333 438.041 12.68C438.041 13.2133 438.215 13.6333 438.561 13.94C438.908 14.2333 439.421 14.38 440.101 14.38ZM455.413 14.26C454.467 15.2467 453.267 15.74 451.813 15.74C450.36 15.74 449.16 15.2467 448.213 14.26C447.28 13.2867 446.813 11.98 446.813 10.34C446.813 8.7 447.28 7.39333 448.213 6.42C449.16 5.43333 450.36 4.94 451.813 4.94C453.267 4.94 454.467 5.43333 455.413 6.42C456.347 7.39333 456.813 8.7 456.813 10.34C456.813 11.98 456.347 13.2867 455.413 14.26ZM449.393 13.24C449.993 13.9467 450.8 14.3 451.813 14.3C452.827 14.3 453.633 13.9467 454.233 13.24C454.833 12.5467 455.133 11.58 455.133 10.34C455.133 9.08667 454.833 8.11333 454.233 7.42C453.633 6.72667 452.827 6.38 451.813 6.38C450.8 6.38 449.993 6.72667 449.393 7.42C448.793 8.11333 448.493 9.08667 448.493 10.34C448.493 11.58 448.793 12.5467 449.393 13.24ZM470.288 6.66V1.26H471.888V15.5H470.368V13.9C469.541 15.1267 468.361 15.74 466.828 15.74C465.375 15.74 464.215 15.2467 463.348 14.26C462.468 13.2733 462.028 11.9667 462.028 10.34C462.028 8.68667 462.468 7.37333 463.348 6.4C464.201 5.42667 465.361 4.94 466.828 4.94C468.308 4.94 469.461 5.51333 470.288 6.66ZM463.708 10.42C463.708 11.6467 464.008 12.6 464.608 13.28C465.208 13.96 466.015 14.3 467.028 14.3C468.041 14.3 468.848 13.9467 469.448 13.24C470.048 12.5467 470.348 11.58 470.348 10.34C470.348 9.11333 470.048 8.14667 469.448 7.44C468.848 6.73333 468.041 6.38 467.028 6.38C466.028 6.38 465.221 6.74667 464.608 7.48C464.008 8.2 463.708 9.18 463.708 10.42ZM483.286 10.34V10.9H475.446C475.526 12.02 475.839 12.8667 476.386 13.44C476.933 14 477.679 14.28 478.626 14.28C480.053 14.28 480.966 13.64 481.366 12.36H483.026C482.746 13.4 482.226 14.2267 481.466 14.84C480.706 15.44 479.746 15.74 478.586 15.74C477.159 15.74 476.006 15.2533 475.126 14.28C474.233 13.3067 473.786 11.9933 473.786 10.34C473.786 8.71333 474.226 7.40667 475.106 6.42C475.973 5.43333 477.119 4.94 478.546 4.94C480.026 4.94 481.186 5.45333 482.026 6.48C482.866 7.50667 483.286 8.79333 483.286 10.34ZM478.546 6.4C477.706 6.4 477.019 6.66667 476.486 7.2C475.953 7.72 475.619 8.47333 475.486 9.46H481.566C481.486 8.55333 481.179 7.82 480.646 7.26C480.113 6.68667 479.413 6.4 478.546 6.4ZM490.593 15.5H488.993V1.26H490.593V15.5ZM501.997 10.34V10.9H494.157C494.237 12.02 494.55 12.8667 495.097 13.44C495.644 14 496.39 14.28 497.337 14.28C498.764 14.28 499.677 13.64 500.077 12.36H501.737C501.457 13.4 500.937 14.2267 500.177 14.84C499.417 15.44 498.457 15.74 497.297 15.74C495.87 15.74 494.717 15.2533 493.837 14.28C492.944 13.3067 492.497 11.9933 492.497 10.34C492.497 8.71333 492.937 7.40667 493.817 6.42C494.684 5.43333 495.83 4.94 497.257 4.94C498.737 4.94 499.897 5.45333 500.737 6.48C501.577 7.50667 501.997 8.79333 501.997 10.34ZM497.257 6.4C496.417 6.4 495.73 6.66667 495.197 7.2C494.664 7.72 494.33 8.47333 494.197 9.46H500.277C500.197 8.55333 499.89 7.82 499.357 7.26C498.824 6.68667 498.124 6.4 497.257 6.4ZM512.238 14.2H512.818V15.5C512.551 15.54 512.258 15.56 511.938 15.56C510.858 15.56 510.278 15.0667 510.198 14.08C509.478 15.1867 508.358 15.74 506.838 15.74C505.704 15.74 504.811 15.48 504.158 14.96C503.518 14.4267 503.198 13.68 503.198 12.72C503.198 10.8533 504.471 9.78667 507.018 9.52L508.498 9.36C509.578 9.24 510.118 8.76667 510.118 7.94C510.118 7.36667 509.938 6.95333 509.578 6.7C509.231 6.44667 508.638 6.32 507.798 6.32C506.904 6.32 506.258 6.47333 505.858 6.78C505.471 7.07333 505.251 7.6 505.198 8.36H503.598C503.731 6.08 505.131 4.94 507.798 4.94C510.384 4.94 511.678 5.94 511.678 7.94V13.7C511.678 14.0333 511.864 14.2 512.238 14.2ZM506.918 14.38C507.771 14.38 508.518 14.12 509.158 13.6C509.798 13.0933 510.118 12.3667 510.118 11.42V10.2C509.824 10.4267 509.371 10.5733 508.758 10.64L507.258 10.82C506.391 10.9267 505.771 11.1267 505.398 11.42C505.038 11.7133 504.858 12.1333 504.858 12.68C504.858 13.2133 505.031 13.6333 505.378 13.94C505.724 14.2333 506.238 14.38 506.918 14.38ZM521.89 6.66V1.26H523.49V15.5H521.97V13.9C521.143 15.1267 519.963 15.74 518.43 15.74C516.976 15.74 515.816 15.2467 514.95 14.26C514.07 13.2733 513.63 11.9667 513.63 10.34C513.63 8.68667 514.07 7.37333 514.95 6.4C515.803 5.42667 516.963 4.94 518.43 4.94C519.91 4.94 521.063 5.51333 521.89 6.66ZM515.31 10.42C515.31 11.6467 515.61 12.6 516.21 13.28C516.81 13.96 517.616 14.3 518.63 14.3C519.643 14.3 520.45 13.9467 521.05 13.24C521.65 12.5467 521.95 11.58 521.95 10.34C521.95 9.11333 521.65 8.14667 521.05 7.44C520.45 6.73333 519.643 6.38 518.63 6.38C517.63 6.38 516.823 6.74667 516.21 7.48C515.61 8.2 515.31 9.18 515.31 10.42ZM529.528 15.74C526.768 15.74 525.308 14.5667 525.148 12.22H526.768C526.861 12.9933 527.114 13.5467 527.528 13.88C527.954 14.2 528.621 14.36 529.528 14.36C531.181 14.36 532.008 13.8267 532.008 12.76C532.008 12.2933 531.834 11.94 531.488 11.7C531.154 11.46 530.541 11.2533 529.648 11.08L528.688 10.9C526.541 10.5 525.468 9.48667 525.468 7.86C525.468 6.96667 525.801 6.26 526.468 5.74C527.148 5.20667 528.068 4.94 529.228 4.94C531.961 4.94 533.361 6.08 533.428 8.36H531.828C531.788 7.61333 531.561 7.08667 531.148 6.78C530.734 6.47333 530.094 6.32 529.228 6.32C528.534 6.32 528.001 6.45333 527.627 6.72C527.254 6.98667 527.068 7.36 527.068 7.84C527.068 8.29333 527.228 8.63333 527.548 8.86C527.868 9.08667 528.401 9.28 529.148 9.44L530.068 9.62C531.334 9.87333 532.241 10.2333 532.788 10.7C533.348 11.1667 533.628 11.82 533.628 12.66C533.628 13.6333 533.261 14.3933 532.528 14.94C531.808 15.4733 530.808 15.74 529.528 15.74ZM534.923 15.5V13.5H536.943V15.68C536.943 17.28 536.337 18.14 535.123 18.26L534.923 18.28V17.2L535.063 17.18C535.557 17.1267 535.803 16.6733 535.803 15.82V15.5H534.923ZM547.14 15.74C545.713 15.74 544.56 15.2467 543.68 14.26C542.8 13.2733 542.36 11.9667 542.36 10.34C542.36 8.68667 542.8 7.37333 543.68 6.4C544.533 5.42667 545.687 4.94 547.14 4.94C548.367 4.94 549.373 5.27333 550.16 5.94C550.947 6.60667 551.42 7.52 551.58 8.68H549.92C549.8 7.94667 549.48 7.38 548.96 6.98C548.453 6.58 547.847 6.38 547.14 6.38C546.193 6.38 545.44 6.72667 544.88 7.42C544.32 8.1 544.04 9.07333 544.04 10.34C544.04 11.5933 544.32 12.5667 544.88 13.26C545.453 13.9533 546.207 14.3 547.14 14.3C547.847 14.3 548.46 14.0933 548.98 13.68C549.5 13.2667 549.82 12.6933 549.94 11.96H551.58C551.407 13.12 550.913 14.04 550.1 14.72C549.3 15.4 548.313 15.74 547.14 15.74ZM558.13 5.02C558.397 5.02 558.577 5.02667 558.67 5.04V6.58H558.27C557.203 6.58 556.37 6.84667 555.77 7.38C555.183 7.9 554.89 8.64667 554.89 9.62V15.5H553.29V5.18H554.81V7C555.503 5.68 556.61 5.02 558.13 5.02ZM561.805 3.62H560.105V1.66H561.805V3.62ZM561.765 15.5H560.165V5.18H561.765V15.5ZM572.609 14.2H573.189V15.5C572.922 15.54 572.629 15.56 572.309 15.56C571.229 15.56 570.649 15.0667 570.569 14.08C569.849 15.1867 568.729 15.74 567.209 15.74C566.075 15.74 565.182 15.48 564.529 14.96C563.889 14.4267 563.569 13.68 563.569 12.72C563.569 10.8533 564.842 9.78667 567.389 9.52L568.869 9.36C569.949 9.24 570.489 8.76667 570.489 7.94C570.489 7.36667 570.309 6.95333 569.949 6.7C569.602 6.44667 569.009 6.32 568.169 6.32C567.275 6.32 566.629 6.47333 566.229 6.78C565.842 7.07333 565.622 7.6 565.569 8.36H563.969C564.102 6.08 565.502 4.94 568.169 4.94C570.755 4.94 572.049 5.94 572.049 7.94V13.7C572.049 14.0333 572.235 14.2 572.609 14.2ZM567.289 14.38C568.142 14.38 568.889 14.12 569.529 13.6C570.169 13.0933 570.489 12.3667 570.489 11.42V10.2C570.195 10.4267 569.742 10.5733 569.129 10.64L567.629 10.82C566.762 10.9267 566.142 11.1267 565.769 11.42C565.409 11.7133 565.229 12.1333 565.229 12.68C565.229 13.2133 565.402 13.6333 565.749 13.94C566.095 14.2333 566.609 14.38 567.289 14.38ZM585.458 4.94C586.578 4.94 587.445 5.26667 588.058 5.92C588.685 6.56 588.998 7.42 588.998 8.5V15.5H587.398V8.66C587.398 7.14 586.678 6.38 585.238 6.38C584.478 6.38 583.845 6.68667 583.338 7.3C582.845 7.9 582.598 8.75333 582.598 9.86V15.5H580.998V8.66C580.998 7.14 580.278 6.38 578.838 6.38C578.092 6.38 577.465 6.68667 576.958 7.3C576.452 7.9 576.198 8.75333 576.198 9.86V15.5H574.598V5.18H576.118V6.7C576.798 5.52667 577.792 4.94 579.098 4.94C580.645 4.94 581.705 5.58667 582.278 6.88C582.998 5.58667 584.058 4.94 585.458 4.94ZM599.495 14.26C598.549 15.2467 597.349 15.74 595.895 15.74C594.442 15.74 593.242 15.2467 592.295 14.26C591.362 13.2867 590.895 11.98 590.895 10.34C590.895 8.7 591.362 7.39333 592.295 6.42C593.242 5.43333 594.442 4.94 595.895 4.94C597.349 4.94 598.549 5.43333 599.495 6.42C600.429 7.39333 600.895 8.7 600.895 10.34C600.895 11.98 600.429 13.2867 599.495 14.26ZM593.475 13.24C594.075 13.9467 594.882 14.3 595.895 14.3C596.909 14.3 597.715 13.9467 598.315 13.24C598.915 12.5467 599.215 11.58 599.215 10.34C599.215 9.08667 598.915 8.11333 598.315 7.42C597.715 6.72667 596.909 6.38 595.895 6.38C594.882 6.38 594.075 6.72667 593.475 7.42C592.875 8.11333 592.575 9.08667 592.575 10.34C592.575 11.58 592.875 12.5467 593.475 13.24ZM606.246 15.74C603.486 15.74 602.026 14.5667 601.866 12.22H603.486C603.58 12.9933 603.833 13.5467 604.246 13.88C604.673 14.2 605.34 14.36 606.246 14.36C607.9 14.36 608.726 13.8267 608.726 12.76C608.726 12.2933 608.553 11.94 608.206 11.7C607.873 11.46 607.26 11.2533 606.366 11.08L605.406 10.9C603.26 10.5 602.186 9.48667 602.186 7.86C602.186 6.96667 602.52 6.26 603.186 5.74C603.866 5.20667 604.786 4.94 605.946 4.94C608.68 4.94 610.08 6.08 610.146 8.36H608.546C608.506 7.61333 608.28 7.08667 607.866 6.78C607.453 6.47333 606.813 6.32 605.946 6.32C605.253 6.32 604.72 6.45333 604.346 6.72C603.973 6.98667 603.786 7.36 603.786 7.84C603.786 8.29333 603.946 8.63333 604.266 8.86C604.586 9.08667 605.12 9.28 605.866 9.44L606.786 9.62C608.053 9.87333 608.96 10.2333 609.506 10.7C610.066 11.1667 610.346 11.82 610.346 12.66C610.346 13.6333 609.98 14.3933 609.246 14.94C608.526 15.4733 607.526 15.74 606.246 15.74ZM8 43.02V37.18H9.6V47.5H8.08V45.96C7.29333 47.1467 6.21333 47.74 4.84 47.74C3.69333 47.74 2.8 47.4267 2.16 46.8C1.52 46.1733 1.2 45.2933 1.2 44.16V37.18H2.8V44C2.8 45.5333 3.58667 46.3 5.16 46.3C5.90667 46.3 6.56667 46.02 7.14 45.46C7.71333 44.9 8 44.0867 8 43.02ZM22.8608 36.94C23.9808 36.94 24.8474 37.2667 25.4608 37.92C26.0874 38.56 26.4008 39.42 26.4008 40.5V47.5H24.8008V40.66C24.8008 39.14 24.0808 38.38 22.6408 38.38C21.8808 38.38 21.2474 38.6867 20.7408 39.3C20.2474 39.9 20.0008 40.7533 20.0008 41.86V47.5H18.4008V40.66C18.4008 39.14 17.6808 38.38 16.2408 38.38C15.4941 38.38 14.8674 38.6867 14.3608 39.3C13.8541 39.9 13.6008 40.7533 13.6008 41.86V47.5H12.0008V37.18H13.5208V38.7C14.2008 37.5267 15.1941 36.94 16.5008 36.94C18.0474 36.94 19.1074 37.5867 19.6808 38.88C20.4008 37.5867 21.4608 36.94 22.8608 36.94ZM37.2377 46.2H37.8177V47.5C37.551 47.54 37.2577 47.56 36.9377 47.56C35.8577 47.56 35.2777 47.0667 35.1977 46.08C34.4777 47.1867 33.3577 47.74 31.8377 47.74C30.7043 47.74 29.811 47.48 29.1577 46.96C28.5177 46.4267 28.1977 45.68 28.1977 44.72C28.1977 42.8533 29.471 41.7867 32.0177 41.52L33.4977 41.36C34.5777 41.24 35.1177 40.7667 35.1177 39.94C35.1177 39.3667 34.9377 38.9533 34.5777 38.7C34.231 38.4467 33.6377 38.32 32.7977 38.32C31.9043 38.32 31.2577 38.4733 30.8577 38.78C30.471 39.0733 30.251 39.6 30.1977 40.36H28.5977C28.731 38.08 30.131 36.94 32.7977 36.94C35.3843 36.94 36.6777 37.94 36.6777 39.94V45.7C36.6777 46.0333 36.8643 46.2 37.2377 46.2ZM31.9177 46.38C32.771 46.38 33.5177 46.12 34.1577 45.6C34.7977 45.0933 35.1177 44.3667 35.1177 43.42V42.2C34.8243 42.4267 34.371 42.5733 33.7577 42.64L32.2577 42.82C31.391 42.9267 30.771 43.1267 30.3977 43.42C30.0377 43.7133 29.8577 44.1333 29.8577 44.68C29.8577 45.2133 30.031 45.6333 30.3777 45.94C30.7243 46.2333 31.2377 46.38 31.9177 46.38ZM44.6759 35.62H42.9759V33.66H44.6759V35.62ZM42.2559 51.48C41.8293 51.48 41.5426 51.4733 41.3959 51.46V50.08H42.0559C42.7093 50.08 43.0359 49.7867 43.0359 49.2V37.18H44.6359V49.34C44.6359 50.7667 43.8426 51.48 42.2559 51.48ZM55.1398 46.26C54.1932 47.2467 52.9932 47.74 51.5398 47.74C50.0865 47.74 48.8865 47.2467 47.9398 46.26C47.0065 45.2867 46.5398 43.98 46.5398 42.34C46.5398 40.7 47.0065 39.3933 47.9398 38.42C48.8865 37.4333 50.0865 36.94 51.5398 36.94C52.9932 36.94 54.1932 37.4333 55.1398 38.42C56.0732 39.3933 56.5398 40.7 56.5398 42.34C56.5398 43.98 56.0732 45.2867 55.1398 46.26ZM49.1198 45.24C49.7198 45.9467 50.5265 46.3 51.5398 46.3C52.5532 46.3 53.3598 45.9467 53.9598 45.24C54.5598 44.5467 54.8598 43.58 54.8598 42.34C54.8598 41.0867 54.5598 40.1133 53.9598 39.42C53.3598 38.7267 52.5532 38.38 51.5398 38.38C50.5265 38.38 49.7198 38.7267 49.1198 39.42C48.5198 40.1133 48.2198 41.0867 48.2198 42.34C48.2198 43.58 48.5198 44.5467 49.1198 45.24ZM63.2861 37.02C63.5528 37.02 63.7328 37.0267 63.8261 37.04V38.58H63.4261C62.3594 38.58 61.5261 38.8467 60.9261 39.38C60.3394 39.9 60.0461 40.6467 60.0461 41.62V47.5H58.4461V37.18H59.9661V39C60.6594 37.68 61.7661 37.02 63.2861 37.02ZM70.0811 36.94C71.2278 36.94 72.1211 37.2533 72.7611 37.88C73.4011 38.5067 73.7211 39.3867 73.7211 40.52V47.5H72.1211V40.68C72.1211 39.1467 71.3344 38.38 69.7611 38.38C69.0144 38.38 68.3544 38.66 67.7811 39.22C67.2078 39.78 66.9211 40.5933 66.9211 41.66V47.5H65.3211V37.18H66.8411V38.72C67.6278 37.5333 68.7078 36.94 70.0811 36.94ZM84.5619 46.2H85.1419V47.5C84.8752 47.54 84.5819 47.56 84.2619 47.56C83.1819 47.56 82.6019 47.0667 82.5219 46.08C81.8019 47.1867 80.6819 47.74 79.1619 47.74C78.0285 47.74 77.1352 47.48 76.4819 46.96C75.8419 46.4267 75.5219 45.68 75.5219 44.72C75.5219 42.8533 76.7952 41.7867 79.3419 41.52L80.8219 41.36C81.9019 41.24 82.4419 40.7667 82.4419 39.94C82.4419 39.3667 82.2619 38.9533 81.9019 38.7C81.5552 38.4467 80.9619 38.32 80.1219 38.32C79.2285 38.32 78.5819 38.4733 78.1819 38.78C77.7952 39.0733 77.5752 39.6 77.5219 40.36H75.9219C76.0552 38.08 77.4552 36.94 80.1219 36.94C82.7085 36.94 84.0019 37.94 84.0019 39.94V45.7C84.0019 46.0333 84.1885 46.2 84.5619 46.2ZM79.2419 46.38C80.0952 46.38 80.8419 46.12 81.4819 45.6C82.1219 45.0933 82.4419 44.3667 82.4419 43.42V42.2C82.1485 42.4267 81.6952 42.5733 81.0819 42.64L79.5819 42.82C78.7152 42.9267 78.0952 43.1267 77.7219 43.42C77.3619 43.7133 77.1819 44.1333 77.1819 44.68C77.1819 45.2133 77.3552 45.6333 77.7019 45.94C78.0485 46.2333 78.5619 46.38 79.2419 46.38ZM94.2139 38.66V33.26H95.8139V47.5H94.2939V45.9C93.4672 47.1267 92.2872 47.74 90.7539 47.74C89.3006 47.74 88.1406 47.2467 87.2739 46.26C86.3939 45.2733 85.9539 43.9667 85.9539 42.34C85.9539 40.6867 86.3939 39.3733 87.2739 38.4C88.1272 37.4267 89.2872 36.94 90.7539 36.94C92.2339 36.94 93.3872 37.5133 94.2139 38.66ZM87.6339 42.42C87.6339 43.6467 87.9339 44.6 88.5339 45.28C89.1339 45.96 89.9406 46.3 90.9539 46.3C91.9672 46.3 92.7739 45.9467 93.3739 45.24C93.9739 44.5467 94.2739 43.58 94.2739 42.34C94.2739 41.1133 93.9739 40.1467 93.3739 39.44C92.7739 38.7333 91.9672 38.38 90.9539 38.38C89.9539 38.38 89.1472 38.7467 88.5339 39.48C87.9339 40.2 87.6339 41.18 87.6339 42.42ZM106.652 46.2H107.232V47.5C106.965 47.54 106.672 47.56 106.352 47.56C105.272 47.56 104.692 47.0667 104.612 46.08C103.892 47.1867 102.772 47.74 101.252 47.74C100.118 47.74 99.2251 47.48 98.5717 46.96C97.9317 46.4267 97.6117 45.68 97.6117 44.72C97.6117 42.8533 98.8851 41.7867 101.432 41.52L102.912 41.36C103.992 41.24 104.532 40.7667 104.532 39.94C104.532 39.3667 104.352 38.9533 103.992 38.7C103.645 38.4467 103.052 38.32 102.212 38.32C101.318 38.32 100.672 38.4733 100.272 38.78C99.8851 39.0733 99.6651 39.6 99.6117 40.36H98.0117C98.1451 38.08 99.5451 36.94 102.212 36.94C104.798 36.94 106.092 37.94 106.092 39.94V45.7C106.092 46.0333 106.278 46.2 106.652 46.2ZM101.332 46.38C102.185 46.38 102.932 46.12 103.572 45.6C104.212 45.0933 104.532 44.3667 104.532 43.42V42.2C104.238 42.4267 103.785 42.5733 103.172 42.64L101.672 42.82C100.805 42.9267 100.185 43.1267 99.8117 43.42C99.4517 43.7133 99.2717 44.1333 99.2717 44.68C99.2717 45.2133 99.4451 45.6333 99.7917 45.94C100.138 46.2333 100.652 46.38 101.332 46.38ZM120.29 38.78V37.18H121.81V51.42H120.21V46.02C119.383 47.1667 118.23 47.74 116.75 47.74C115.297 47.74 114.137 47.2467 113.27 46.26C112.39 45.2733 111.95 43.9667 111.95 42.34C111.95 40.6867 112.39 39.3733 113.27 38.4C114.123 37.4267 115.283 36.94 116.75 36.94C118.283 36.94 119.463 37.5533 120.29 38.78ZM113.63 42.42C113.63 43.6467 113.93 44.6 114.53 45.28C115.13 45.96 115.937 46.3 116.95 46.3C117.963 46.3 118.77 45.9467 119.37 45.24C119.97 44.5467 120.27 43.58 120.27 42.34C120.27 41.1133 119.97 40.1467 119.37 39.44C118.77 38.7333 117.963 38.38 116.95 38.38C115.95 38.38 115.143 38.7467 114.53 39.48C113.93 40.2 113.63 41.18 113.63 42.42ZM131.008 43.02V37.18H132.608V47.5H131.088V45.96C130.301 47.1467 129.221 47.74 127.848 47.74C126.701 47.74 125.808 47.4267 125.168 46.8C124.528 46.1733 124.208 45.2933 124.208 44.16V37.18H125.808V44C125.808 45.5333 126.594 46.3 128.168 46.3C128.914 46.3 129.574 46.02 130.148 45.46C130.721 44.9 131.008 44.0867 131.008 43.02ZM144.009 42.34V42.9H136.169C136.249 44.02 136.562 44.8667 137.109 45.44C137.655 46 138.402 46.28 139.349 46.28C140.775 46.28 141.689 45.64 142.089 44.36H143.749C143.469 45.4 142.949 46.2267 142.189 46.84C141.429 47.44 140.469 47.74 139.309 47.74C137.882 47.74 136.729 47.2533 135.849 46.28C134.955 45.3067 134.509 43.9933 134.509 42.34C134.509 40.7133 134.949 39.4067 135.829 38.42C136.695 37.4333 137.842 36.94 139.269 36.94C140.749 36.94 141.909 37.4533 142.749 38.48C143.589 39.5067 144.009 40.7933 144.009 42.34ZM139.269 38.4C138.429 38.4 137.742 38.6667 137.209 39.2C136.675 39.72 136.342 40.4733 136.209 41.46H142.289C142.209 40.5533 141.902 39.82 141.369 39.26C140.835 38.6867 140.135 38.4 139.269 38.4ZM158.156 46.2H158.736V47.5C158.469 47.54 158.176 47.56 157.856 47.56C156.776 47.56 156.196 47.0667 156.116 46.08C155.396 47.1867 154.276 47.74 152.756 47.74C151.622 47.74 150.729 47.48 150.076 46.96C149.436 46.4267 149.116 45.68 149.116 44.72C149.116 42.8533 150.389 41.7867 152.936 41.52L154.416 41.36C155.496 41.24 156.036 40.7667 156.036 39.94C156.036 39.3667 155.856 38.9533 155.496 38.7C155.149 38.4467 154.556 38.32 153.716 38.32C152.822 38.32 152.176 38.4733 151.776 38.78C151.389 39.0733 151.169 39.6 151.116 40.36H149.516C149.649 38.08 151.049 36.94 153.716 36.94C156.302 36.94 157.596 37.94 157.596 39.94V45.7C157.596 46.0333 157.782 46.2 158.156 46.2ZM152.836 46.38C153.689 46.38 154.436 46.12 155.076 45.6C155.716 45.0933 156.036 44.3667 156.036 43.42V42.2C155.742 42.4267 155.289 42.5733 154.676 42.64L153.176 42.82C152.309 42.9267 151.689 43.1267 151.316 43.42C150.956 43.7133 150.776 44.1333 150.776 44.68C150.776 45.2133 150.949 45.6333 151.296 45.94C151.642 46.2333 152.156 46.38 152.836 46.38ZM164.275 37.18V38.58H162.155V45.28C162.155 45.8667 162.548 46.16 163.335 46.16H164.275V47.5C163.835 47.54 163.455 47.56 163.135 47.56C161.415 47.56 160.555 46.8467 160.555 45.42V38.58H158.855V37.18H160.555V34.26H162.155V37.18H164.275ZM170.806 37.02C171.072 37.02 171.252 37.0267 171.346 37.04V38.58H170.946C169.879 38.58 169.046 38.8467 168.446 39.38C167.859 39.9 167.566 40.6467 167.566 41.62V47.5H165.966V37.18H167.486V39C168.179 37.68 169.286 37.02 170.806 37.02ZM180.578 46.2H181.158V47.5C180.891 47.54 180.598 47.56 180.278 47.56C179.198 47.56 178.618 47.0667 178.538 46.08C177.818 47.1867 176.698 47.74 175.178 47.74C174.044 47.74 173.151 47.48 172.498 46.96C171.858 46.4267 171.538 45.68 171.538 44.72C171.538 42.8533 172.811 41.7867 175.358 41.52L176.838 41.36C177.918 41.24 178.458 40.7667 178.458 39.94C178.458 39.3667 178.278 38.9533 177.918 38.7C177.571 38.4467 176.978 38.32 176.138 38.32C175.244 38.32 174.598 38.4733 174.198 38.78C173.811 39.0733 173.591 39.6 173.538 40.36H171.938C172.071 38.08 173.471 36.94 176.138 36.94C178.724 36.94 180.018 37.94 180.018 39.94V45.7C180.018 46.0333 180.204 46.2 180.578 46.2ZM175.258 46.38C176.111 46.38 176.858 46.12 177.498 45.6C178.138 45.0933 178.458 44.3667 178.458 43.42V42.2C178.164 42.4267 177.711 42.5733 177.098 42.64L175.598 42.82C174.731 42.9267 174.111 43.1267 173.738 43.42C173.378 43.7133 173.198 44.1333 173.198 44.68C173.198 45.2133 173.371 45.6333 173.718 45.94C174.064 46.2333 174.578 46.38 175.258 46.38ZM184.11 35.62H182.41V33.66H184.11V35.62ZM184.07 47.5H182.47V37.18H184.07V47.5ZM186.173 47.5V45.5H188.193V47.68C188.193 49.28 187.587 50.14 186.373 50.26L186.173 50.28V49.2L186.313 49.18C186.807 49.1267 187.053 48.6733 187.053 47.82V47.5H186.173ZM203.11 42.34V42.9H195.27C195.35 44.02 195.663 44.8667 196.21 45.44C196.757 46 197.503 46.28 198.45 46.28C199.877 46.28 200.79 45.64 201.19 44.36H202.85C202.57 45.4 202.05 46.2267 201.29 46.84C200.53 47.44 199.57 47.74 198.41 47.74C196.983 47.74 195.83 47.2533 194.95 46.28C194.057 45.3067 193.61 43.9933 193.61 42.34C193.61 40.7133 194.05 39.4067 194.93 38.42C195.797 37.4333 196.943 36.94 198.37 36.94C199.85 36.94 201.01 37.4533 201.85 38.48C202.69 39.5067 203.11 40.7933 203.11 42.34ZM198.37 38.4C197.53 38.4 196.843 38.6667 196.31 39.2C195.777 39.72 195.443 40.4733 195.31 41.46H201.39C201.31 40.5533 201.003 39.82 200.47 39.26C199.937 38.6867 199.237 38.4 198.37 38.4ZM209.769 36.94C210.915 36.94 211.809 37.2533 212.449 37.88C213.089 38.5067 213.409 39.3867 213.409 40.52V47.5H211.809V40.68C211.809 39.1467 211.022 38.38 209.449 38.38C208.702 38.38 208.042 38.66 207.469 39.22C206.895 39.78 206.609 40.5933 206.609 41.66V47.5H205.009V37.18H206.529V38.72C207.315 37.5333 208.395 36.94 209.769 36.94ZM220.562 41.76L222.262 37.18H223.982L219.922 47.5H218.242L214.202 37.18H215.942L217.642 41.78C218.482 44.0333 218.968 45.3667 219.102 45.78C219.342 45.0733 219.828 43.7333 220.562 41.76ZM232.777 46.26C231.83 47.2467 230.63 47.74 229.177 47.74C227.723 47.74 226.523 47.2467 225.577 46.26C224.643 45.2867 224.177 43.98 224.177 42.34C224.177 40.7 224.643 39.3933 225.577 38.42C226.523 37.4333 227.723 36.94 229.177 36.94C230.63 36.94 231.83 37.4333 232.777 38.42C233.71 39.3933 234.177 40.7 234.177 42.34C234.177 43.98 233.71 45.2867 232.777 46.26ZM226.757 45.24C227.357 45.9467 228.163 46.3 229.177 46.3C230.19 46.3 230.997 45.9467 231.597 45.24C232.197 44.5467 232.497 43.58 232.497 42.34C232.497 41.0867 232.197 40.1133 231.597 39.42C230.997 38.7267 230.19 38.38 229.177 38.38C228.163 38.38 227.357 38.7267 226.757 39.42C226.157 40.1133 225.857 41.0867 225.857 42.34C225.857 43.58 226.157 44.5467 226.757 45.24ZM237.683 47.5H236.083V33.26H237.683V47.5ZM245.151 41.76L246.851 37.18H248.571L244.511 47.5H242.831L238.791 37.18H240.531L242.231 41.78C243.071 44.0333 243.558 45.3667 243.691 45.78C243.931 45.0733 244.418 43.7333 245.151 41.76ZM258.266 42.34V42.9H250.426C250.506 44.02 250.82 44.8667 251.366 45.44C251.913 46 252.66 46.28 253.606 46.28C255.033 46.28 255.946 45.64 256.346 44.36H258.006C257.726 45.4 257.206 46.2267 256.446 46.84C255.686 47.44 254.726 47.74 253.566 47.74C252.14 47.74 250.986 47.2533 250.106 46.28C249.213 45.3067 248.766 43.9933 248.766 42.34C248.766 40.7133 249.206 39.4067 250.086 38.42C250.953 37.4333 252.1 36.94 253.526 36.94C255.006 36.94 256.166 37.4533 257.006 38.48C257.846 39.5067 258.266 40.7933 258.266 42.34ZM253.526 38.4C252.686 38.4 252 38.6667 251.466 39.2C250.933 39.72 250.6 40.4733 250.466 41.46H256.546C256.466 40.5533 256.16 39.82 255.626 39.26C255.093 38.6867 254.393 38.4 253.526 38.4ZM272.973 42.34V42.9H265.133C265.213 44.02 265.527 44.8667 266.073 45.44C266.62 46 267.367 46.28 268.313 46.28C269.74 46.28 270.653 45.64 271.053 44.36H272.713C272.433 45.4 271.913 46.2267 271.153 46.84C270.393 47.44 269.433 47.74 268.273 47.74C266.847 47.74 265.693 47.2533 264.813 46.28C263.92 45.3067 263.473 43.9933 263.473 42.34C263.473 40.7133 263.913 39.4067 264.793 38.42C265.66 37.4333 266.807 36.94 268.233 36.94C269.713 36.94 270.873 37.4533 271.713 38.48C272.553 39.5067 272.973 40.7933 272.973 42.34ZM268.233 38.4C267.393 38.4 266.707 38.6667 266.173 39.2C265.64 39.72 265.307 40.4733 265.173 41.46H271.253C271.173 40.5533 270.867 39.82 270.333 39.26C269.8 38.6867 269.1 38.4 268.233 38.4ZM282.96 47.74C281.534 47.74 280.38 47.2467 279.5 46.26C278.62 45.2733 278.18 43.9667 278.18 42.34C278.18 40.6867 278.62 39.3733 279.5 38.4C280.354 37.4267 281.507 36.94 282.96 36.94C284.187 36.94 285.194 37.2733 285.98 37.94C286.767 38.6067 287.24 39.52 287.4 40.68H285.74C285.62 39.9467 285.3 39.38 284.78 38.98C284.274 38.58 283.667 38.38 282.96 38.38C282.014 38.38 281.26 38.7267 280.7 39.42C280.14 40.1 279.86 41.0733 279.86 42.34C279.86 43.5933 280.14 44.5667 280.7 45.26C281.274 45.9533 282.027 46.3 282.96 46.3C283.667 46.3 284.28 46.0933 284.8 45.68C285.32 45.2667 285.64 44.6933 285.76 43.96H287.4C287.227 45.12 286.734 46.04 285.92 46.72C285.12 47.4 284.134 47.74 282.96 47.74ZM297.21 46.26C296.263 47.2467 295.063 47.74 293.61 47.74C292.157 47.74 290.957 47.2467 290.01 46.26C289.077 45.2867 288.61 43.98 288.61 42.34C288.61 40.7 289.077 39.3933 290.01 38.42C290.957 37.4333 292.157 36.94 293.61 36.94C295.063 36.94 296.263 37.4333 297.21 38.42C298.143 39.3933 298.61 40.7 298.61 42.34C298.61 43.98 298.143 45.2867 297.21 46.26ZM291.19 45.24C291.79 45.9467 292.597 46.3 293.61 46.3C294.623 46.3 295.43 45.9467 296.03 45.24C296.63 44.5467 296.93 43.58 296.93 42.34C296.93 41.0867 296.63 40.1133 296.03 39.42C295.43 38.7267 294.623 38.38 293.61 38.38C292.597 38.38 291.79 38.7267 291.19 39.42C290.59 40.1133 290.29 41.0867 290.29 42.34C290.29 43.58 290.59 44.5467 291.19 45.24ZM305.276 36.94C306.423 36.94 307.316 37.2533 307.956 37.88C308.596 38.5067 308.916 39.3867 308.916 40.52V47.5H307.316V40.68C307.316 39.1467 306.53 38.38 304.956 38.38C304.21 38.38 303.55 38.66 302.976 39.22C302.403 39.78 302.116 40.5933 302.116 41.66V47.5H300.516V37.18H302.036V38.72C302.823 37.5333 303.903 36.94 305.276 36.94ZM316.069 41.76L317.769 37.18H319.489L315.429 47.5H313.749L309.709 37.18H311.449L313.149 41.78C313.989 44.0333 314.476 45.3667 314.609 45.78C314.849 45.0733 315.336 43.7333 316.069 41.76ZM329.184 42.34V42.9H321.344C321.424 44.02 321.738 44.8667 322.284 45.44C322.831 46 323.578 46.28 324.524 46.28C325.951 46.28 326.864 45.64 327.264 44.36H328.924C328.644 45.4 328.124 46.2267 327.364 46.84C326.604 47.44 325.644 47.74 324.484 47.74C323.058 47.74 321.904 47.2533 321.024 46.28C320.131 45.3067 319.684 43.9933 319.684 42.34C319.684 40.7133 320.124 39.4067 321.004 38.42C321.871 37.4333 323.018 36.94 324.444 36.94C325.924 36.94 327.084 37.4533 327.924 38.48C328.764 39.5067 329.184 40.7933 329.184 42.34ZM324.444 38.4C323.604 38.4 322.918 38.6667 322.384 39.2C321.851 39.72 321.518 40.4733 321.384 41.46H327.464C327.384 40.5533 327.078 39.82 326.544 39.26C326.011 38.6867 325.311 38.4 324.444 38.4ZM335.923 37.02C336.189 37.02 336.369 37.0267 336.463 37.04V38.58H336.063C334.996 38.58 334.163 38.8467 333.563 39.38C332.976 39.9 332.683 40.6467 332.683 41.62V47.5H331.083V37.18H332.603V39C333.296 37.68 334.403 37.02 335.923 37.02ZM342.575 37.18V38.58H340.455V45.28C340.455 45.8667 340.849 46.16 341.635 46.16H342.575V47.5C342.135 47.54 341.755 47.56 341.435 47.56C339.715 47.56 338.855 46.8467 338.855 45.42V38.58H337.155V37.18H338.855V34.26H340.455V37.18H342.575ZM353.071 42.34V42.9H345.231C345.311 44.02 345.624 44.8667 346.171 45.44C346.718 46 347.464 46.28 348.411 46.28C349.838 46.28 350.751 45.64 351.151 44.36H352.811C352.531 45.4 352.011 46.2267 351.251 46.84C350.491 47.44 349.531 47.74 348.371 47.74C346.944 47.74 345.791 47.2533 344.911 46.28C344.018 45.3067 343.571 43.9933 343.571 42.34C343.571 40.7133 344.011 39.4067 344.891 38.42C345.758 37.4333 346.904 36.94 348.331 36.94C349.811 36.94 350.971 37.4533 351.811 38.48C352.651 39.5067 353.071 40.7933 353.071 42.34ZM348.331 38.4C347.491 38.4 346.804 38.6667 346.271 39.2C345.738 39.72 345.404 40.4733 345.271 41.46H351.351C351.271 40.5533 350.964 39.82 350.431 39.26C349.898 38.6867 349.198 38.4 348.331 38.4ZM355.889 47.5H353.869V45.5H355.889V47.5ZM371.805 33.26V34.78H363.585V39.32H371.005V40.84H363.585V45.98H371.725V47.5H361.905V33.26H371.805ZM384.365 36.94C385.485 36.94 386.351 37.2667 386.965 37.92C387.591 38.56 387.905 39.42 387.905 40.5V47.5H386.305V40.66C386.305 39.14 385.585 38.38 384.145 38.38C383.385 38.38 382.751 38.6867 382.245 39.3C381.751 39.9 381.505 40.7533 381.505 41.86V47.5H379.905V40.66C379.905 39.14 379.185 38.38 377.745 38.38C376.998 38.38 376.371 38.6867 375.865 39.3C375.358 39.9 375.105 40.7533 375.105 41.86V47.5H373.505V37.18H375.025V38.7C375.705 37.5267 376.698 36.94 378.005 36.94C379.551 36.94 380.611 37.5867 381.185 38.88C381.905 37.5867 382.965 36.94 384.365 36.94ZM399.37 41.76L401.07 37.18H402.79L398.73 47.5H397.05L393.01 37.18H394.75L396.45 41.78C397.29 44.0333 397.777 45.3667 397.91 45.78C398.15 45.0733 398.637 43.7333 399.37 41.76ZM412.485 42.34V42.9H404.645C404.725 44.02 405.038 44.8667 405.585 45.44C406.132 46 406.878 46.28 407.825 46.28C409.252 46.28 410.165 45.64 410.565 44.36H412.225C411.945 45.4 411.425 46.2267 410.665 46.84C409.905 47.44 408.945 47.74 407.785 47.74C406.358 47.74 405.205 47.2533 404.325 46.28C403.432 45.3067 402.985 43.9933 402.985 42.34C402.985 40.7133 403.425 39.4067 404.305 38.42C405.172 37.4333 406.318 36.94 407.745 36.94C409.225 36.94 410.385 37.4533 411.225 38.48C412.065 39.5067 412.485 40.7933 412.485 42.34ZM407.745 38.4C406.905 38.4 406.218 38.6667 405.685 39.2C405.152 39.72 404.818 40.4733 404.685 41.46H410.765C410.685 40.5533 410.378 39.82 409.845 39.26C409.312 38.6867 408.612 38.4 407.745 38.4ZM417.38 46.1H421.52V47.5H413.18V46.3L417.9 40.22C418.127 39.94 418.394 39.6067 418.7 39.22C419.007 38.8333 419.187 38.6067 419.24 38.54C418.574 38.5667 417.84 38.58 417.04 38.58H413.38V37.18H421.24V38.38L416.52 44.46C416.294 44.74 416.027 45.0733 415.72 45.46C415.414 45.8467 415.234 46.0733 415.18 46.14C415.847 46.1133 416.58 46.1 417.38 46.1ZM434.995 38.66V33.26H436.595V47.5H435.075V45.9C434.248 47.1267 433.068 47.74 431.535 47.74C430.082 47.74 428.922 47.2467 428.055 46.26C427.175 45.2733 426.735 43.9667 426.735 42.34C426.735 40.6867 427.175 39.3733 428.055 38.4C428.908 37.4267 430.068 36.94 431.535 36.94C433.015 36.94 434.168 37.5133 434.995 38.66ZM428.415 42.42C428.415 43.6467 428.715 44.6 429.315 45.28C429.915 45.96 430.722 46.3 431.735 46.3C432.748 46.3 433.555 45.9467 434.155 45.24C434.755 44.5467 435.055 43.58 435.055 42.34C435.055 41.1133 434.755 40.1467 434.155 39.44C433.555 38.7333 432.748 38.38 431.735 38.38C430.735 38.38 429.928 38.7467 429.315 39.48C428.715 40.2 428.415 41.18 428.415 42.42ZM447.993 42.34V42.9H440.153C440.233 44.02 440.546 44.8667 441.093 45.44C441.64 46 442.386 46.28 443.333 46.28C444.76 46.28 445.673 45.64 446.073 44.36H447.733C447.453 45.4 446.933 46.2267 446.173 46.84C445.413 47.44 444.453 47.74 443.293 47.74C441.866 47.74 440.713 47.2533 439.833 46.28C438.94 45.3067 438.493 43.9933 438.493 42.34C438.493 40.7133 438.933 39.4067 439.813 38.42C440.68 37.4333 441.826 36.94 443.253 36.94C444.733 36.94 445.893 37.4533 446.733 38.48C447.573 39.5067 447.993 40.7933 447.993 42.34ZM443.253 38.4C442.413 38.4 441.726 38.6667 441.193 39.2C440.66 39.72 440.326 40.4733 440.193 41.46H446.273C446.193 40.5533 445.886 39.82 445.353 39.26C444.82 38.6867 444.12 38.4 443.253 38.4ZM457.98 47.74C456.553 47.74 455.4 47.2467 454.52 46.26C453.64 45.2733 453.2 43.9667 453.2 42.34C453.2 40.6867 453.64 39.3733 454.52 38.4C455.373 37.4267 456.527 36.94 457.98 36.94C459.207 36.94 460.213 37.2733 461 37.94C461.787 38.6067 462.26 39.52 462.42 40.68H460.76C460.64 39.9467 460.32 39.38 459.8 38.98C459.293 38.58 458.687 38.38 457.98 38.38C457.033 38.38 456.28 38.7267 455.72 39.42C455.16 40.1 454.88 41.0733 454.88 42.34C454.88 43.5933 455.16 44.5667 455.72 45.26C456.293 45.9533 457.047 46.3 457.98 46.3C458.687 46.3 459.3 46.0933 459.82 45.68C460.34 45.2667 460.66 44.6933 460.78 43.96H462.42C462.247 45.12 461.753 46.04 460.94 46.72C460.14 47.4 459.153 47.74 457.98 47.74ZM472.23 46.26C471.283 47.2467 470.083 47.74 468.63 47.74C467.176 47.74 465.976 47.2467 465.03 46.26C464.096 45.2867 463.63 43.98 463.63 42.34C463.63 40.7 464.096 39.3933 465.03 38.42C465.976 37.4333 467.176 36.94 468.63 36.94C470.083 36.94 471.283 37.4333 472.23 38.42C473.163 39.3933 473.63 40.7 473.63 42.34C473.63 43.98 473.163 45.2867 472.23 46.26ZM466.21 45.24C466.81 45.9467 467.616 46.3 468.63 46.3C469.643 46.3 470.45 45.9467 471.05 45.24C471.65 44.5467 471.95 43.58 471.95 42.34C471.95 41.0867 471.65 40.1133 471.05 39.42C470.45 38.7267 469.643 38.38 468.63 38.38C467.616 38.38 466.81 38.7267 466.21 39.42C465.61 40.1133 465.31 41.0867 465.31 42.34C465.31 43.58 465.61 44.5467 466.21 45.24ZM480.376 37.02C480.643 37.02 480.823 37.0267 480.916 37.04V38.58H480.516C479.449 38.58 478.616 38.8467 478.016 39.38C477.429 39.9 477.136 40.6467 477.136 41.62V47.5H475.536V37.18H477.056V39C477.749 37.68 478.856 37.02 480.376 37.02ZM487.251 37.02C487.518 37.02 487.698 37.0267 487.791 37.04V38.58H487.391C486.324 38.58 485.491 38.8467 484.891 39.38C484.304 39.9 484.011 40.6467 484.011 41.62V47.5H482.411V37.18H483.931V39C484.624 37.68 485.731 37.02 487.251 37.02ZM497.68 42.34V42.9H489.84C489.92 44.02 490.234 44.8667 490.78 45.44C491.327 46 492.074 46.28 493.02 46.28C494.447 46.28 495.36 45.64 495.76 44.36H497.42C497.14 45.4 496.62 46.2267 495.86 46.84C495.1 47.44 494.14 47.74 492.98 47.74C491.554 47.74 490.4 47.2533 489.52 46.28C488.627 45.3067 488.18 43.9933 488.18 42.34C488.18 40.7133 488.62 39.4067 489.5 38.42C490.367 37.4333 491.514 36.94 492.94 36.94C494.42 36.94 495.58 37.4533 496.42 38.48C497.26 39.5067 497.68 40.7933 497.68 42.34ZM492.94 38.4C492.1 38.4 491.414 38.6667 490.88 39.2C490.347 39.72 490.014 40.4733 489.88 41.46H495.96C495.88 40.5533 495.574 39.82 495.04 39.26C494.507 38.6867 493.807 38.4 492.94 38.4ZM504.419 37.02C504.686 37.02 504.866 37.0267 504.959 37.04V38.58H504.559C503.492 38.58 502.659 38.8467 502.059 39.38C501.472 39.9 501.179 40.6467 501.179 41.62V47.5H499.579V37.18H501.099V39C501.792 37.68 502.899 37.02 504.419 37.02ZM518.898 46.2H519.478V47.5C519.211 47.54 518.918 47.56 518.598 47.56C517.518 47.56 516.938 47.0667 516.858 46.08C516.138 47.1867 515.018 47.74 513.498 47.74C512.364 47.74 511.471 47.48 510.818 46.96C510.178 46.4267 509.858 45.68 509.858 44.72C509.858 42.8533 511.131 41.7867 513.678 41.52L515.158 41.36C516.238 41.24 516.778 40.7667 516.778 39.94C516.778 39.3667 516.598 38.9533 516.238 38.7C515.891 38.4467 515.298 38.32 514.458 38.32C513.564 38.32 512.918 38.4733 512.518 38.78C512.131 39.0733 511.911 39.6 511.858 40.36H510.258C510.391 38.08 511.791 36.94 514.458 36.94C517.044 36.94 518.338 37.94 518.338 39.94V45.7C518.338 46.0333 518.524 46.2 518.898 46.2ZM513.578 46.38C514.431 46.38 515.178 46.12 515.818 45.6C516.458 45.0933 516.778 44.3667 516.778 43.42V42.2C516.484 42.4267 516.031 42.5733 515.418 42.64L513.918 42.82C513.051 42.9267 512.431 43.1267 512.058 43.42C511.698 43.7133 511.518 44.1333 511.518 44.68C511.518 45.2133 511.691 45.6333 512.038 45.94C512.384 46.2333 512.898 46.38 513.578 46.38ZM525.017 37.18V38.58H522.897V45.28C522.897 45.8667 523.29 46.16 524.077 46.16H525.017V47.5C524.577 47.54 524.197 47.56 523.877 47.56C522.157 47.56 521.297 46.8467 521.297 45.42V38.58H519.597V37.18H521.297V34.26H522.897V37.18H525.017ZM531.548 37.02C531.814 37.02 531.994 37.0267 532.088 37.04V38.58H531.688C530.621 38.58 529.788 38.8467 529.188 39.38C528.601 39.9 528.308 40.6467 528.308 41.62V47.5H526.708V37.18H528.228V39C528.921 37.68 530.028 37.02 531.548 37.02ZM537.94 32.74H540.1L537.64 35.62H536.22L537.94 32.74ZM541.32 46.2H541.9V47.5C541.633 47.54 541.34 47.56 541.02 47.56C539.94 47.56 539.36 47.0667 539.28 46.08C538.56 47.1867 537.44 47.74 535.92 47.74C534.786 47.74 533.893 47.48 533.24 46.96C532.6 46.4267 532.28 45.68 532.28 44.72C532.28 42.8533 533.553 41.7867 536.1 41.52L537.58 41.36C538.66 41.24 539.2 40.7667 539.2 39.94C539.2 39.3667 539.02 38.9533 538.66 38.7C538.313 38.4467 537.72 38.32 536.88 38.32C535.986 38.32 535.34 38.4733 534.94 38.78C534.553 39.0733 534.333 39.6 534.28 40.36H532.68C532.813 38.08 534.213 36.94 536.88 36.94C539.466 36.94 540.76 37.94 540.76 39.94V45.7C540.76 46.0333 540.946 46.2 541.32 46.2ZM536 46.38C536.853 46.38 537.6 46.12 538.24 45.6C538.88 45.0933 539.2 44.3667 539.2 43.42V42.2C538.906 42.4267 538.453 42.5733 537.84 42.64L536.34 42.82C535.473 42.9267 534.853 43.1267 534.48 43.42C534.12 43.7133 533.94 44.1333 533.94 44.68C533.94 45.2133 534.113 45.6333 534.46 45.94C534.806 46.2333 535.32 46.38 536 46.38ZM546.949 47.74C544.189 47.74 542.729 46.5667 542.569 44.22H544.189C544.283 44.9933 544.536 45.5467 544.949 45.88C545.376 46.2 546.043 46.36 546.949 46.36C548.603 46.36 549.429 45.8267 549.429 44.76C549.429 44.2933 549.256 43.94 548.909 43.7C548.576 43.46 547.963 43.2533 547.069 43.08L546.109 42.9C543.963 42.5 542.889 41.4867 542.889 39.86C542.889 38.9667 543.223 38.26 543.889 37.74C544.569 37.2067 545.489 36.94 546.649 36.94C549.383 36.94 550.783 38.08 550.849 40.36H549.249C549.209 39.6133 548.983 39.0867 548.569 38.78C548.156 38.4733 547.516 38.32 546.649 38.32C545.956 38.32 545.423 38.4533 545.049 38.72C544.676 38.9867 544.489 39.36 544.489 39.84C544.489 40.2933 544.649 40.6333 544.969 40.86C545.289 41.0867 545.823 41.28 546.569 41.44L547.489 41.62C548.756 41.8733 549.663 42.2333 550.209 42.7C550.769 43.1667 551.049 43.82 551.049 44.66C551.049 45.6333 550.683 46.3933 549.949 46.94C549.229 47.4733 548.229 47.74 546.949 47.74ZM564.214 38.66V33.26H565.814V47.5H564.294V45.9C563.467 47.1267 562.287 47.74 560.754 47.74C559.301 47.74 558.141 47.2467 557.274 46.26C556.394 45.2733 555.954 43.9667 555.954 42.34C555.954 40.6867 556.394 39.3733 557.274 38.4C558.127 37.4267 559.287 36.94 560.754 36.94C562.234 36.94 563.387 37.5133 564.214 38.66ZM557.634 42.42C557.634 43.6467 557.934 44.6 558.534 45.28C559.134 45.96 559.941 46.3 560.954 46.3C561.967 46.3 562.774 45.9467 563.374 45.24C563.974 44.5467 564.274 43.58 564.274 42.34C564.274 41.1133 563.974 40.1467 563.374 39.44C562.774 38.7333 561.967 38.38 560.954 38.38C559.954 38.38 559.147 38.7467 558.534 39.48C557.934 40.2 557.634 41.18 557.634 42.42ZM576.312 46.26C575.365 47.2467 574.165 47.74 572.712 47.74C571.258 47.74 570.058 47.2467 569.112 46.26C568.178 45.2867 567.712 43.98 567.712 42.34C567.712 40.7 568.178 39.3933 569.112 38.42C570.058 37.4333 571.258 36.94 572.712 36.94C574.165 36.94 575.365 37.4333 576.312 38.42C577.245 39.3933 577.712 40.7 577.712 42.34C577.712 43.98 577.245 45.2867 576.312 46.26ZM570.292 45.24C570.892 45.9467 571.698 46.3 572.712 46.3C573.725 46.3 574.532 45.9467 575.132 45.24C575.732 44.5467 576.032 43.58 576.032 42.34C576.032 41.0867 575.732 40.1133 575.132 39.42C574.532 38.7267 573.725 38.38 572.712 38.38C571.698 38.38 570.892 38.7267 570.292 39.42C569.692 40.1133 569.392 41.0867 569.392 42.34C569.392 43.58 569.692 44.5467 570.292 45.24ZM583.063 47.74C580.303 47.74 578.843 46.5667 578.683 44.22H580.303C580.396 44.9933 580.649 45.5467 581.063 45.88C581.489 46.2 582.156 46.36 583.063 46.36C584.716 46.36 585.543 45.8267 585.543 44.76C585.543 44.2933 585.369 43.94 585.023 43.7C584.689 43.46 584.076 43.2533 583.183 43.08L582.223 42.9C580.076 42.5 579.003 41.4867 579.003 39.86C579.003 38.9667 579.336 38.26 580.003 37.74C580.683 37.2067 581.603 36.94 582.763 36.94C585.496 36.94 586.896 38.08 586.963 40.36H585.363C585.323 39.6133 585.096 39.0867 584.683 38.78C584.269 38.4733 583.629 38.32 582.763 38.32C582.069 38.32 581.536 38.4533 581.163 38.72C580.789 38.9867 580.603 39.36 580.603 39.84C580.603 40.2933 580.763 40.6333 581.083 40.86C581.403 41.0867 581.936 41.28 582.683 41.44L583.603 41.62C584.869 41.8733 585.776 42.2333 586.323 42.7C586.883 43.1667 587.163 43.82 587.163 44.66C587.163 45.6333 586.796 46.3933 586.063 46.94C585.343 47.4733 584.343 47.74 583.063 47.74ZM5.48 79.74C4.05333 79.74 2.9 79.2467 2.02 78.26C1.14 77.2733 0.7 75.9667 0.7 74.34C0.7 72.6867 1.14 71.3733 2.02 70.4C2.87333 69.4267 4.02667 68.94 5.48 68.94C6.70667 68.94 7.71333 69.2733 8.5 69.94C9.28667 70.6067 9.76 71.52 9.92 72.68H8.26C8.14 71.9467 7.82 71.38 7.3 70.98C6.79333 70.58 6.18667 70.38 5.48 70.38C4.53333 70.38 3.78 70.7267 3.22 71.42C2.66 72.1 2.38 73.0733 2.38 74.34C2.38 75.5933 2.66 76.5667 3.22 77.26C3.79333 77.9533 4.54667 78.3 5.48 78.3C6.18667 78.3 6.8 78.0933 7.32 77.68C7.84 77.2667 8.16 76.6933 8.28 75.96H9.92C9.74667 77.12 9.25333 78.04 8.44 78.72C7.64 79.4 6.65333 79.74 5.48 79.74ZM13.2297 79.5H11.6297V65.26H13.2297V79.5ZM17.2736 67.62H15.5736V65.66H17.2736V67.62ZM17.2336 79.5H15.6336V69.18H17.2336V79.5ZM28.6375 74.34V74.9H20.7975C20.8775 76.02 21.1908 76.8667 21.7375 77.44C22.2842 78 23.0308 78.28 23.9775 78.28C25.4042 78.28 26.3175 77.64 26.7175 76.36H28.3775C28.0975 77.4 27.5775 78.2267 26.8175 78.84C26.0575 79.44 25.0975 79.74 23.9375 79.74C22.5108 79.74 21.3575 79.2533 20.4775 78.28C19.5842 77.3067 19.1375 75.9933 19.1375 74.34C19.1375 72.7133 19.5775 71.4067 20.4575 70.42C21.3242 69.4333 22.4708 68.94 23.8975 68.94C25.3775 68.94 26.5375 69.4533 27.3775 70.48C28.2175 71.5067 28.6375 72.7933 28.6375 74.34ZM23.8975 70.4C23.0575 70.4 22.3708 70.6667 21.8375 71.2C21.3042 71.72 20.9708 72.4733 20.8375 73.46H26.9175C26.8375 72.5533 26.5308 71.82 25.9975 71.26C25.4642 70.6867 24.7642 70.4 23.8975 70.4ZM35.2959 68.94C36.4426 68.94 37.3359 69.2533 37.9759 69.88C38.6159 70.5067 38.9359 71.3867 38.9359 72.52V79.5H37.3359V72.68C37.3359 71.1467 36.5493 70.38 34.9759 70.38C34.2293 70.38 33.5693 70.66 32.9959 71.22C32.4226 71.78 32.1359 72.5933 32.1359 73.66V79.5H30.5359V69.18H32.0559V70.72C32.8426 69.5333 33.9226 68.94 35.2959 68.94ZM45.4661 69.18V70.58H43.3461V77.28C43.3461 77.8667 43.7394 78.16 44.5261 78.16H45.4661V79.5C45.0261 79.54 44.6461 79.56 44.3261 79.56C42.6061 79.56 41.7461 78.8467 41.7461 77.42V70.58H40.0461V69.18H41.7461V66.26H43.3461V69.18H45.4661ZM55.9617 74.34V74.9H48.1217C48.2017 76.02 48.5151 76.8667 49.0617 77.44C49.6084 78 50.3551 78.28 51.3017 78.28C52.7284 78.28 53.6417 77.64 54.0417 76.36H55.7017C55.4217 77.4 54.9017 78.2267 54.1417 78.84C53.3817 79.44 52.4217 79.74 51.2617 79.74C49.8351 79.74 48.6817 79.2533 47.8017 78.28C46.9084 77.3067 46.4617 75.9933 46.4617 74.34C46.4617 72.7133 46.9017 71.4067 47.7817 70.42C48.6484 69.4333 49.7951 68.94 51.2217 68.94C52.7017 68.94 53.8617 69.4533 54.7017 70.48C55.5417 71.5067 55.9617 72.7933 55.9617 74.34ZM51.2217 70.4C50.3817 70.4 49.6951 70.6667 49.1617 71.2C48.6284 71.72 48.2951 72.4733 48.1617 73.46H54.2417C54.1617 72.5533 53.8551 71.82 53.3217 71.26C52.7884 70.6867 52.0884 70.4 51.2217 70.4ZM61.4025 79.74C58.6425 79.74 57.1825 78.5667 57.0225 76.22H58.6425C58.7358 76.9933 58.9892 77.5467 59.4025 77.88C59.8292 78.2 60.4958 78.36 61.4025 78.36C63.0558 78.36 63.8825 77.8267 63.8825 76.76C63.8825 76.2933 63.7092 75.94 63.3625 75.7C63.0292 75.46 62.4158 75.2533 61.5225 75.08L60.5625 74.9C58.4158 74.5 57.3425 73.4867 57.3425 71.86C57.3425 70.9667 57.6758 70.26 58.3425 69.74C59.0225 69.2067 59.9425 68.94 61.1025 68.94C63.8358 68.94 65.2358 70.08 65.3025 72.36H63.7025C63.6625 71.6133 63.4358 71.0867 63.0225 70.78C62.6092 70.4733 61.9692 70.32 61.1025 70.32C60.4092 70.32 59.8758 70.4533 59.5025 70.72C59.1292 70.9867 58.9425 71.36 58.9425 71.84C58.9425 72.2933 59.1025 72.6333 59.4225 72.86C59.7425 73.0867 60.2758 73.28 61.0225 73.44L61.9425 73.62C63.2092 73.8733 64.1158 74.2333 64.6625 74.7C65.2225 75.1667 65.5025 75.82 65.5025 76.66C65.5025 77.6333 65.1358 78.3933 64.4025 78.94C63.6825 79.4733 62.6825 79.74 61.4025 79.74ZM66.7984 79.5V77.5H68.8184V79.68C68.8184 81.28 68.2118 82.14 66.9984 82.26L66.7984 82.28V81.2L66.9384 81.18C67.4318 81.1267 67.6784 80.6733 67.6784 79.82V79.5H66.7984ZM79.4352 66.62H78.5152C77.5952 66.62 77.1352 67.1067 77.1352 68.08V69.18H79.3352V70.58H77.1352V79.5H75.5352V70.58H73.8352V69.18H75.5352V68.12C75.5352 66.1867 76.4952 65.22 78.4152 65.22C78.6685 65.22 79.0085 65.2333 79.4352 65.26V66.62ZM88.7806 78.2H89.3606V79.5C89.094 79.54 88.8006 79.56 88.4806 79.56C87.4006 79.56 86.8206 79.0667 86.7406 78.08C86.0206 79.1867 84.9006 79.74 83.3806 79.74C82.2473 79.74 81.354 79.48 80.7006 78.96C80.0606 78.4267 79.7406 77.68 79.7406 76.72C79.7406 74.8533 81.014 73.7867 83.5606 73.52L85.0406 73.36C86.1206 73.24 86.6606 72.7667 86.6606 71.94C86.6606 71.3667 86.4806 70.9533 86.1206 70.7C85.774 70.4467 85.1806 70.32 84.3406 70.32C83.4473 70.32 82.8006 70.4733 82.4006 70.78C82.014 71.0733 81.794 71.6 81.7406 72.36H80.1406C80.274 70.08 81.674 68.94 84.3406 68.94C86.9273 68.94 88.2206 69.94 88.2206 71.94V77.7C88.2206 78.0333 88.4073 78.2 88.7806 78.2ZM83.4606 78.38C84.314 78.38 85.0606 78.12 85.7006 77.6C86.3406 77.0933 86.6606 76.3667 86.6606 75.42V74.2C86.3673 74.4267 85.914 74.5733 85.3006 74.64L83.8006 74.82C82.934 74.9267 82.314 75.1267 81.9406 75.42C81.5806 75.7133 81.4006 76.1333 81.4006 76.68C81.4006 77.2133 81.574 77.6333 81.9206 77.94C82.2673 78.2333 82.7806 78.38 83.4606 78.38ZM94.4703 78.1H98.6103V79.5H90.2703V78.3L94.9903 72.22C95.217 71.94 95.4836 71.6067 95.7903 71.22C96.097 70.8333 96.277 70.6067 96.3303 70.54C95.6636 70.5667 94.9303 70.58 94.1303 70.58H90.4703V69.18H98.3303V70.38L93.6103 76.46C93.3836 76.74 93.117 77.0733 92.8103 77.46C92.5036 77.8467 92.3236 78.0733 92.2703 78.14C92.937 78.1133 93.6703 78.1 94.4703 78.1ZM108.716 74.34V74.9H100.876C100.956 76.02 101.269 76.8667 101.816 77.44C102.362 78 103.109 78.28 104.056 78.28C105.482 78.28 106.396 77.64 106.796 76.36H108.456C108.176 77.4 107.656 78.2267 106.896 78.84C106.136 79.44 105.176 79.74 104.016 79.74C102.589 79.74 101.436 79.2533 100.556 78.28C99.6623 77.3067 99.2156 75.9933 99.2156 74.34C99.2156 72.7133 99.6556 71.4067 100.536 70.42C101.402 69.4333 102.549 68.94 103.976 68.94C105.456 68.94 106.616 69.4533 107.456 70.48C108.296 71.5067 108.716 72.7933 108.716 74.34ZM103.976 70.4C103.136 70.4 102.449 70.6667 101.916 71.2C101.382 71.72 101.049 72.4733 100.916 73.46H106.996C106.916 72.5533 106.609 71.82 106.076 71.26C105.542 70.6867 104.842 70.4 103.976 70.4ZM121.474 68.94C122.594 68.94 123.461 69.2667 124.074 69.92C124.701 70.56 125.014 71.42 125.014 72.5V79.5H123.414V72.66C123.414 71.14 122.694 70.38 121.254 70.38C120.494 70.38 119.861 70.6867 119.354 71.3C118.861 71.9 118.614 72.7533 118.614 73.86V79.5H117.014V72.66C117.014 71.14 116.294 70.38 114.854 70.38C114.107 70.38 113.481 70.6867 112.974 71.3C112.467 71.9 112.214 72.7533 112.214 73.86V79.5H110.614V69.18H112.134V70.7C112.814 69.5267 113.807 68.94 115.114 68.94C116.661 68.94 117.721 69.5867 118.294 70.88C119.014 69.5867 120.074 68.94 121.474 68.94ZM135.511 78.26C134.564 79.2467 133.364 79.74 131.911 79.74C130.458 79.74 129.258 79.2467 128.311 78.26C127.378 77.2867 126.911 75.98 126.911 74.34C126.911 72.7 127.378 71.3933 128.311 70.42C129.258 69.4333 130.458 68.94 131.911 68.94C133.364 68.94 134.564 69.4333 135.511 70.42C136.444 71.3933 136.911 72.7 136.911 74.34C136.911 75.98 136.444 77.2867 135.511 78.26ZM129.491 77.24C130.091 77.9467 130.898 78.3 131.911 78.3C132.924 78.3 133.731 77.9467 134.331 77.24C134.931 76.5467 135.231 75.58 135.231 74.34C135.231 73.0867 134.931 72.1133 134.331 71.42C133.731 70.7267 132.924 70.38 131.911 70.38C130.898 70.38 130.091 70.7267 129.491 71.42C128.891 72.1133 128.591 73.0867 128.591 74.34C128.591 75.58 128.891 76.5467 129.491 77.24ZM142.262 79.74C139.502 79.74 138.042 78.5667 137.882 76.22H139.502C139.595 76.9933 139.849 77.5467 140.262 77.88C140.689 78.2 141.355 78.36 142.262 78.36C143.915 78.36 144.742 77.8267 144.742 76.76C144.742 76.2933 144.569 75.94 144.222 75.7C143.889 75.46 143.275 75.2533 142.382 75.08L141.422 74.9C139.275 74.5 138.202 73.4867 138.202 71.86C138.202 70.9667 138.535 70.26 139.202 69.74C139.882 69.2067 140.802 68.94 141.962 68.94C144.695 68.94 146.095 70.08 146.162 72.36H144.562C144.522 71.6133 144.295 71.0867 143.882 70.78C143.469 70.4733 142.829 70.32 141.962 70.32C141.269 70.32 140.735 70.4533 140.362 70.72C139.989 70.9867 139.802 71.36 139.802 71.84C139.802 72.2933 139.962 72.6333 140.282 72.86C140.602 73.0867 141.135 73.28 141.882 73.44L142.802 73.62C144.069 73.8733 144.975 74.2333 145.522 74.7C146.082 75.1667 146.362 75.82 146.362 76.66C146.362 77.6333 145.995 78.3933 145.262 78.94C144.542 79.4733 143.542 79.74 142.262 79.74ZM160.766 74.34V74.9H152.926C153.006 76.02 153.32 76.8667 153.866 77.44C154.413 78 155.16 78.28 156.106 78.28C157.533 78.28 158.446 77.64 158.846 76.36H160.506C160.226 77.4 159.706 78.2267 158.946 78.84C158.186 79.44 157.226 79.74 156.066 79.74C154.64 79.74 153.486 79.2533 152.606 78.28C151.713 77.3067 151.266 75.9933 151.266 74.34C151.266 72.7133 151.706 71.4067 152.586 70.42C153.453 69.4333 154.6 68.94 156.026 68.94C157.506 68.94 158.666 69.4533 159.506 70.48C160.346 71.5067 160.766 72.7933 160.766 74.34ZM156.026 70.4C155.186 70.4 154.5 70.6667 153.966 71.2C153.433 71.72 153.1 72.4733 152.966 73.46H159.046C158.966 72.5533 158.66 71.82 158.126 71.26C157.593 70.6867 156.893 70.4 156.026 70.4ZM164.265 79.5H162.665V65.26H164.265V79.5ZM175.669 74.34V74.9H167.829C167.909 76.02 168.222 76.8667 168.769 77.44C169.315 78 170.062 78.28 171.009 78.28C172.435 78.28 173.349 77.64 173.749 76.36H175.409C175.129 77.4 174.609 78.2267 173.849 78.84C173.089 79.44 172.129 79.74 170.969 79.74C169.542 79.74 168.389 79.2533 167.509 78.28C166.615 77.3067 166.169 75.9933 166.169 74.34C166.169 72.7133 166.609 71.4067 167.489 70.42C168.355 69.4333 169.502 68.94 170.929 68.94C172.409 68.94 173.569 69.4533 174.409 70.48C175.249 71.5067 175.669 72.7933 175.669 74.34ZM170.929 70.4C170.089 70.4 169.402 70.6667 168.869 71.2C168.335 71.72 168.002 72.4733 167.869 73.46H173.949C173.869 72.5533 173.562 71.82 173.029 71.26C172.495 70.6867 171.795 70.4 170.929 70.4ZM181.11 79.74C178.35 79.74 176.89 78.5667 176.73 76.22H178.35C178.443 76.9933 178.696 77.5467 179.11 77.88C179.536 78.2 180.203 78.36 181.11 78.36C182.763 78.36 183.59 77.8267 183.59 76.76C183.59 76.2933 183.416 75.94 183.07 75.7C182.736 75.46 182.123 75.2533 181.23 75.08L180.27 74.9C178.123 74.5 177.05 73.4867 177.05 71.86C177.05 70.9667 177.383 70.26 178.05 69.74C178.73 69.2067 179.65 68.94 180.81 68.94C183.543 68.94 184.943 70.08 185.01 72.36H183.41C183.37 71.6133 183.143 71.0867 182.73 70.78C182.316 70.4733 181.676 70.32 180.81 70.32C180.116 70.32 179.583 70.4533 179.21 70.72C178.836 70.9867 178.65 71.36 178.65 71.84C178.65 72.2933 178.81 72.6333 179.13 72.86C179.45 73.0867 179.983 73.28 180.73 73.44L181.65 73.62C182.916 73.8733 183.823 74.2333 184.37 74.7C184.93 75.1667 185.21 75.82 185.21 76.66C185.21 77.6333 184.843 78.3933 184.11 78.94C183.39 79.4733 182.39 79.74 181.11 79.74ZM195.874 73.76L197.574 69.18H199.294L195.234 79.5H193.554L189.514 69.18H191.254L192.954 73.78C193.794 76.0333 194.281 77.3667 194.414 77.78C194.654 77.0733 195.141 75.7333 195.874 73.76ZM202.137 67.62H200.437V65.66H202.137V67.62ZM202.097 79.5H200.497V69.18H202.097V79.5ZM209.341 69.02C209.607 69.02 209.787 69.0267 209.881 69.04V70.58H209.481C208.414 70.58 207.581 70.8467 206.981 71.38C206.394 71.9 206.101 72.6467 206.101 73.62V79.5H204.501V69.18H206.021V71C206.714 69.68 207.821 69.02 209.341 69.02ZM219.77 74.34V74.9H211.93C212.01 76.02 212.324 76.8667 212.87 77.44C213.417 78 214.164 78.28 215.11 78.28C216.537 78.28 217.45 77.64 217.85 76.36H219.51C219.23 77.4 218.71 78.2267 217.95 78.84C217.19 79.44 216.23 79.74 215.07 79.74C213.644 79.74 212.49 79.2533 211.61 78.28C210.717 77.3067 210.27 75.9933 210.27 74.34C210.27 72.7133 210.71 71.4067 211.59 70.42C212.457 69.4333 213.604 68.94 215.03 68.94C216.51 68.94 217.67 69.4533 218.51 70.48C219.35 71.5067 219.77 72.7933 219.77 74.34ZM215.03 70.4C214.19 70.4 213.504 70.6667 212.97 71.2C212.437 71.72 212.104 72.4733 211.97 73.46H218.05C217.97 72.5533 217.664 71.82 217.13 71.26C216.597 70.6867 215.897 70.4 215.03 70.4ZM232.529 68.94C233.649 68.94 234.515 69.2667 235.129 69.92C235.755 70.56 236.069 71.42 236.069 72.5V79.5H234.469V72.66C234.469 71.14 233.749 70.38 232.309 70.38C231.549 70.38 230.915 70.6867 230.409 71.3C229.915 71.9 229.669 72.7533 229.669 73.86V79.5H228.069V72.66C228.069 71.14 227.349 70.38 225.909 70.38C225.162 70.38 224.535 70.6867 224.029 71.3C223.522 71.9 223.269 72.7533 223.269 73.86V79.5H221.669V69.18H223.189V70.7C223.869 69.5267 224.862 68.94 226.169 68.94C227.715 68.94 228.775 69.5867 229.349 70.88C230.069 69.5867 231.129 68.94 232.529 68.94ZM250.714 78.2H251.294V79.5C251.028 79.54 250.734 79.56 250.414 79.56C249.334 79.56 248.754 79.0667 248.674 78.08C247.954 79.1867 246.834 79.74 245.314 79.74C244.181 79.74 243.288 79.48 242.634 78.96C241.994 78.4267 241.674 77.68 241.674 76.72C241.674 74.8533 242.948 73.7867 245.494 73.52L246.974 73.36C248.054 73.24 248.594 72.7667 248.594 71.94C248.594 71.3667 248.414 70.9533 248.054 70.7C247.708 70.4467 247.114 70.32 246.274 70.32C245.381 70.32 244.734 70.4733 244.334 70.78C243.948 71.0733 243.728 71.6 243.674 72.36H242.074C242.208 70.08 243.608 68.94 246.274 68.94C248.861 68.94 250.154 69.94 250.154 71.94V77.7C250.154 78.0333 250.341 78.2 250.714 78.2ZM245.394 78.38C246.248 78.38 246.994 78.12 247.634 77.6C248.274 77.0933 248.594 76.3667 248.594 75.42V74.2C248.301 74.4267 247.848 74.5733 247.234 74.64L245.734 74.82C244.868 74.9267 244.248 75.1267 243.874 75.42C243.514 75.7133 243.334 76.1333 243.334 76.68C243.334 77.2133 243.508 77.6333 243.854 77.94C244.201 78.2333 244.714 78.38 245.394 78.38ZM256.833 69.18V70.58H254.713V77.28C254.713 77.8667 255.107 78.16 255.893 78.16H256.833V79.5C256.393 79.54 256.013 79.56 255.693 79.56C253.973 79.56 253.113 78.8467 253.113 77.42V70.58H251.413V69.18H253.113V66.26H254.713V69.18H256.833ZM263.649 64.74H265.809L263.349 67.62H261.929L263.649 64.74ZM267.329 74.34V74.9H259.489C259.569 76.02 259.882 76.8667 260.429 77.44C260.976 78 261.722 78.28 262.669 78.28C264.096 78.28 265.009 77.64 265.409 76.36H267.069C266.789 77.4 266.269 78.2267 265.509 78.84C264.749 79.44 263.789 79.74 262.629 79.74C261.202 79.74 260.049 79.2533 259.169 78.28C258.276 77.3067 257.829 75.9933 257.829 74.34C257.829 72.7133 258.269 71.4067 259.149 70.42C260.016 69.4333 261.162 68.94 262.589 68.94C264.069 68.94 265.229 69.4533 266.069 70.48C266.909 71.5067 267.329 72.7933 267.329 74.34ZM262.589 70.4C261.749 70.4 261.062 70.6667 260.529 71.2C259.996 71.72 259.662 72.4733 259.529 73.46H265.609C265.529 72.5533 265.222 71.82 264.689 71.26C264.156 70.6867 263.456 70.4 262.589 70.4ZM278.296 73.76L279.996 69.18H281.716L277.656 79.5H275.976L271.936 69.18H273.676L275.376 73.78C276.216 76.0333 276.703 77.3667 276.836 77.78C277.076 77.0733 277.563 75.7333 278.296 73.76ZM290.511 78.26C289.564 79.2467 288.364 79.74 286.911 79.74C285.458 79.74 284.258 79.2467 283.311 78.26C282.378 77.2867 281.911 75.98 281.911 74.34C281.911 72.7 282.378 71.3933 283.311 70.42C284.258 69.4333 285.458 68.94 286.911 68.94C288.364 68.94 289.564 69.4333 290.511 70.42C291.444 71.3933 291.911 72.7 291.911 74.34C291.911 75.98 291.444 77.2867 290.511 78.26ZM284.491 77.24C285.091 77.9467 285.898 78.3 286.911 78.3C287.924 78.3 288.731 77.9467 289.331 77.24C289.931 76.5467 290.231 75.58 290.231 74.34C290.231 73.0867 289.931 72.1133 289.331 71.42C288.731 70.7267 287.924 70.38 286.911 70.38C285.898 70.38 285.091 70.7267 284.491 71.42C283.891 72.1133 283.591 73.0867 283.591 74.34C283.591 75.58 283.891 76.5467 284.491 77.24ZM298.097 79.74C296.671 79.74 295.517 79.2467 294.637 78.26C293.757 77.2733 293.317 75.9667 293.317 74.34C293.317 72.6867 293.757 71.3733 294.637 70.4C295.491 69.4267 296.644 68.94 298.097 68.94C299.324 68.94 300.331 69.2733 301.117 69.94C301.904 70.6067 302.377 71.52 302.537 72.68H300.877C300.757 71.9467 300.437 71.38 299.917 70.98C299.411 70.58 298.804 70.38 298.097 70.38C297.151 70.38 296.397 70.7267 295.837 71.42C295.277 72.1 294.997 73.0733 294.997 74.34C294.997 75.5933 295.277 76.5667 295.837 77.26C296.411 77.9533 297.164 78.3 298.097 78.3C298.804 78.3 299.417 78.0933 299.937 77.68C300.457 77.2667 300.777 76.6933 300.897 75.96H302.537C302.364 77.12 301.871 78.04 301.057 78.72C300.257 79.4 299.271 79.74 298.097 79.74ZM310.387 67.62L308.507 65.68L306.627 67.62H305.027L307.307 64.74H309.707L311.987 67.62H310.387ZM313.247 74.34V74.9H305.407C305.487 76.02 305.8 76.8667 306.347 77.44C306.894 78 307.64 78.28 308.587 78.28C310.014 78.28 310.927 77.64 311.327 76.36H312.987C312.707 77.4 312.187 78.2267 311.427 78.84C310.667 79.44 309.707 79.74 308.547 79.74C307.12 79.74 305.967 79.2533 305.087 78.28C304.194 77.3067 303.747 75.9933 303.747 74.34C303.747 72.7133 304.187 71.4067 305.067 70.42C305.934 69.4333 307.08 68.94 308.507 68.94C309.987 68.94 311.147 69.4533 311.987 70.48C312.827 71.5067 313.247 72.7933 313.247 74.34ZM308.507 70.4C307.667 70.4 306.98 70.6667 306.447 71.2C305.914 71.72 305.58 72.4733 305.447 73.46H311.527C311.447 72.5533 311.14 71.82 310.607 71.26C310.074 70.6867 309.374 70.4 308.507 70.4ZM336.174 74.58H318.554V73.14H336.174V74.58ZM347.041 68.94C348.495 68.94 349.661 69.4267 350.541 70.4C351.408 71.3867 351.841 72.7 351.841 74.34C351.841 75.9667 351.408 77.2733 350.541 78.26C349.661 79.2467 348.495 79.74 347.041 79.74C345.561 79.74 344.408 79.1667 343.581 78.02V83.42H341.981V69.18H343.501V70.78C344.328 69.5533 345.508 68.94 347.041 68.94ZM346.841 78.3C347.841 78.3 348.641 77.94 349.241 77.22C349.855 76.4867 350.161 75.5 350.161 74.26C350.161 73.0467 349.861 72.1 349.261 71.42C348.675 70.7267 347.868 70.38 346.841 70.38C345.828 70.38 345.021 70.7267 344.421 71.42C343.821 72.1133 343.521 73.0867 343.521 74.34C343.521 75.58 343.821 76.5467 344.421 77.24C345.021 77.9467 345.828 78.3 346.841 78.3ZM358.579 69.02C358.846 69.02 359.026 69.0267 359.119 69.04V70.58H358.719C357.652 70.58 356.819 70.8467 356.219 71.38C355.632 71.9 355.339 72.6467 355.339 73.62V79.5H353.739V69.18H355.259V71C355.952 69.68 357.059 69.02 358.579 69.02ZM368.109 78.26C367.162 79.2467 365.962 79.74 364.509 79.74C363.055 79.74 361.855 79.2467 360.909 78.26C359.975 77.2867 359.509 75.98 359.509 74.34C359.509 72.7 359.975 71.3933 360.909 70.42C361.855 69.4333 363.055 68.94 364.509 68.94C365.962 68.94 367.162 69.4333 368.109 70.42C369.042 71.3933 369.509 72.7 369.509 74.34C369.509 75.98 369.042 77.2867 368.109 78.26ZM362.089 77.24C362.689 77.9467 363.495 78.3 364.509 78.3C365.522 78.3 366.329 77.9467 366.929 77.24C367.529 76.5467 367.829 75.58 367.829 74.34C367.829 73.0867 367.529 72.1133 366.929 71.42C366.329 70.7267 365.522 70.38 364.509 70.38C363.495 70.38 362.689 70.7267 362.089 71.42C361.489 72.1133 361.189 73.0867 361.189 74.34C361.189 75.58 361.489 76.5467 362.089 77.24ZM376.175 68.94C377.322 68.94 378.215 69.2533 378.855 69.88C379.495 70.5067 379.815 71.3867 379.815 72.52V79.5H378.215V72.68C378.215 71.1467 377.428 70.38 375.855 70.38C375.108 70.38 374.448 70.66 373.875 71.22C373.302 71.78 373.015 72.5933 373.015 73.66V79.5H371.415V69.18H372.935V70.72C373.722 69.5333 374.802 68.94 376.175 68.94ZM386.345 69.18V70.58H384.225V77.28C384.225 77.8667 384.618 78.16 385.405 78.16H386.345V79.5C385.905 79.54 385.525 79.56 385.205 79.56C383.485 79.56 382.625 78.8467 382.625 77.42V70.58H380.925V69.18H382.625V66.26H384.225V69.18H386.345ZM395.941 78.26C394.994 79.2467 393.794 79.74 392.341 79.74C390.887 79.74 389.687 79.2467 388.741 78.26C387.807 77.2867 387.341 75.98 387.341 74.34C387.341 72.7 387.807 71.3933 388.741 70.42C389.687 69.4333 390.887 68.94 392.341 68.94C393.794 68.94 394.994 69.4333 395.941 70.42C396.874 71.3933 397.341 72.7 397.341 74.34C397.341 75.98 396.874 77.2867 395.941 78.26ZM389.921 77.24C390.521 77.9467 391.327 78.3 392.341 78.3C393.354 78.3 394.161 77.9467 394.761 77.24C395.361 76.5467 395.661 75.58 395.661 74.34C395.661 73.0867 395.361 72.1133 394.761 71.42C394.161 70.7267 393.354 70.38 392.341 70.38C391.327 70.38 390.521 70.7267 389.921 71.42C389.321 72.1133 389.021 73.0867 389.021 74.34C389.021 75.58 389.321 76.5467 389.921 77.24ZM402.692 79.74C399.932 79.74 398.472 78.5667 398.312 76.22H399.932C400.025 76.9933 400.278 77.5467 400.692 77.88C401.118 78.2 401.785 78.36 402.692 78.36C404.345 78.36 405.172 77.8267 405.172 76.76C405.172 76.2933 404.998 75.94 404.652 75.7C404.318 75.46 403.705 75.2533 402.812 75.08L401.852 74.9C399.705 74.5 398.632 73.4867 398.632 71.86C398.632 70.9667 398.965 70.26 399.632 69.74C400.312 69.2067 401.232 68.94 402.392 68.94C405.125 68.94 406.525 70.08 406.592 72.36H404.992C404.952 71.6133 404.725 71.0867 404.312 70.78C403.898 70.4733 403.258 70.32 402.392 70.32C401.698 70.32 401.165 70.4533 400.792 70.72C400.418 70.9867 400.232 71.36 400.232 71.84C400.232 72.2933 400.392 72.6333 400.712 72.86C401.032 73.0867 401.565 73.28 402.312 73.44L403.232 73.62C404.498 73.8733 405.405 74.2333 405.952 74.7C406.512 75.1667 406.792 75.82 406.792 76.66C406.792 77.6333 406.425 78.3933 405.692 78.94C404.972 79.4733 403.972 79.74 402.692 79.74ZM417.256 68.94C418.709 68.94 419.876 69.4267 420.756 70.4C421.623 71.3867 422.056 72.7 422.056 74.34C422.056 75.9667 421.623 77.2733 420.756 78.26C419.876 79.2467 418.709 79.74 417.256 79.74C415.776 79.74 414.623 79.1667 413.796 78.02V83.42H412.196V69.18H413.716V70.78C414.543 69.5533 415.723 68.94 417.256 68.94ZM417.056 78.3C418.056 78.3 418.856 77.94 419.456 77.22C420.069 76.4867 420.376 75.5 420.376 74.26C420.376 73.0467 420.076 72.1 419.476 71.42C418.889 70.7267 418.083 70.38 417.056 70.38C416.043 70.38 415.236 70.7267 414.636 71.42C414.036 72.1133 413.736 73.0867 413.736 74.34C413.736 75.58 414.036 76.5467 414.636 77.24C415.236 77.9467 416.043 78.3 417.056 78.3ZM432.199 78.2H432.779V79.5C432.512 79.54 432.219 79.56 431.899 79.56C430.819 79.56 430.239 79.0667 430.159 78.08C429.439 79.1867 428.319 79.74 426.799 79.74C425.665 79.74 424.772 79.48 424.119 78.96C423.479 78.4267 423.159 77.68 423.159 76.72C423.159 74.8533 424.432 73.7867 426.979 73.52L428.459 73.36C429.539 73.24 430.079 72.7667 430.079 71.94C430.079 71.3667 429.899 70.9533 429.539 70.7C429.192 70.4467 428.599 70.32 427.759 70.32C426.865 70.32 426.219 70.4733 425.819 70.78C425.432 71.0733 425.212 71.6 425.159 72.36H423.559C423.692 70.08 425.092 68.94 427.759 68.94C430.345 68.94 431.639 69.94 431.639 71.94V77.7C431.639 78.0333 431.825 78.2 432.199 78.2ZM426.879 78.38C427.732 78.38 428.479 78.12 429.119 77.6C429.759 77.0933 430.079 76.3667 430.079 75.42V74.2C429.785 74.4267 429.332 74.5733 428.719 74.64L427.219 74.82C426.352 74.9267 425.732 75.1267 425.359 75.42C424.999 75.7133 424.819 76.1333 424.819 76.68C424.819 77.2133 424.992 77.6333 425.339 77.94C425.685 78.2333 426.199 78.38 426.879 78.38ZM439.028 69.02C439.295 69.02 439.475 69.0267 439.568 69.04V70.58H439.168C438.102 70.58 437.268 70.8467 436.668 71.38C436.082 71.9 435.788 72.6467 435.788 73.62V79.5H434.188V69.18H435.708V71C436.402 69.68 437.508 69.02 439.028 69.02ZM448.8 78.2H449.38V79.5C449.113 79.54 448.82 79.56 448.5 79.56C447.42 79.56 446.84 79.0667 446.76 78.08C446.04 79.1867 444.92 79.74 443.4 79.74C442.267 79.74 441.373 79.48 440.72 78.96C440.08 78.4267 439.76 77.68 439.76 76.72C439.76 74.8533 441.033 73.7867 443.58 73.52L445.06 73.36C446.14 73.24 446.68 72.7667 446.68 71.94C446.68 71.3667 446.5 70.9533 446.14 70.7C445.793 70.4467 445.2 70.32 444.36 70.32C443.467 70.32 442.82 70.4733 442.42 70.78C442.033 71.0733 441.813 71.6 441.76 72.36H440.16C440.293 70.08 441.693 68.94 444.36 68.94C446.947 68.94 448.24 69.94 448.24 71.94V77.7C448.24 78.0333 448.427 78.2 448.8 78.2ZM443.48 78.38C444.333 78.38 445.08 78.12 445.72 77.6C446.36 77.0933 446.68 76.3667 446.68 75.42V74.2C446.387 74.4267 445.933 74.5733 445.32 74.64L443.82 74.82C442.953 74.9267 442.333 75.1267 441.96 75.42C441.6 75.7133 441.42 76.1333 441.42 76.68C441.42 77.2133 441.593 77.6333 441.94 77.94C442.287 78.2333 442.8 78.38 443.48 78.38ZM458.878 79.74C457.452 79.74 456.298 79.2467 455.418 78.26C454.538 77.2733 454.098 75.9667 454.098 74.34C454.098 72.6867 454.538 71.3733 455.418 70.4C456.272 69.4267 457.425 68.94 458.878 68.94C460.105 68.94 461.112 69.2733 461.898 69.94C462.685 70.6067 463.158 71.52 463.318 72.68H461.658C461.538 71.9467 461.218 71.38 460.698 70.98C460.192 70.58 459.585 70.38 458.878 70.38C457.932 70.38 457.178 70.7267 456.618 71.42C456.058 72.1 455.778 73.0733 455.778 74.34C455.778 75.5933 456.058 76.5667 456.618 77.26C457.192 77.9533 457.945 78.3 458.878 78.3C459.585 78.3 460.198 78.0933 460.718 77.68C461.238 77.2667 461.558 76.6933 461.678 75.96H463.318C463.145 77.12 462.652 78.04 461.838 78.72C461.038 79.4 460.052 79.74 458.878 79.74ZM473.128 78.26C472.181 79.2467 470.981 79.74 469.528 79.74C468.075 79.74 466.875 79.2467 465.928 78.26C464.995 77.2867 464.528 75.98 464.528 74.34C464.528 72.7 464.995 71.3933 465.928 70.42C466.875 69.4333 468.075 68.94 469.528 68.94C470.981 68.94 472.181 69.4333 473.128 70.42C474.061 71.3933 474.528 72.7 474.528 74.34C474.528 75.98 474.061 77.2867 473.128 78.26ZM467.108 77.24C467.708 77.9467 468.515 78.3 469.528 78.3C470.541 78.3 471.348 77.9467 471.948 77.24C472.548 76.5467 472.848 75.58 472.848 74.34C472.848 73.0867 472.548 72.1133 471.948 71.42C471.348 70.7267 470.541 70.38 469.528 70.38C468.515 70.38 467.708 70.7267 467.108 71.42C466.508 72.1133 466.208 73.0867 466.208 74.34C466.208 75.58 466.508 76.5467 467.108 77.24ZM487.294 68.94C488.414 68.94 489.281 69.2667 489.894 69.92C490.521 70.56 490.834 71.42 490.834 72.5V79.5H489.234V72.66C489.234 71.14 488.514 70.38 487.074 70.38C486.314 70.38 485.681 70.6867 485.174 71.3C484.681 71.9 484.434 72.7533 484.434 73.86V79.5H482.834V72.66C482.834 71.14 482.114 70.38 480.674 70.38C479.928 70.38 479.301 70.6867 478.794 71.3C478.288 71.9 478.034 72.7533 478.034 73.86V79.5H476.434V69.18H477.954V70.7C478.634 69.5267 479.628 68.94 480.934 68.94C482.481 68.94 483.541 69.5867 484.114 70.88C484.834 69.5867 485.894 68.94 487.294 68.94ZM498.291 68.94C499.745 68.94 500.911 69.4267 501.791 70.4C502.658 71.3867 503.091 72.7 503.091 74.34C503.091 75.9667 502.658 77.2733 501.791 78.26C500.911 79.2467 499.745 79.74 498.291 79.74C496.811 79.74 495.658 79.1667 494.831 78.02V83.42H493.231V69.18H494.751V70.78C495.578 69.5533 496.758 68.94 498.291 68.94ZM498.091 78.3C499.091 78.3 499.891 77.94 500.491 77.22C501.105 76.4867 501.411 75.5 501.411 74.26C501.411 73.0467 501.111 72.1 500.511 71.42C499.925 70.7267 499.118 70.38 498.091 70.38C497.078 70.38 496.271 70.7267 495.671 71.42C495.071 72.1133 494.771 73.0867 494.771 74.34C494.771 75.58 495.071 76.5467 495.671 77.24C496.271 77.9467 497.078 78.3 498.091 78.3ZM509.829 69.02C510.096 69.02 510.276 69.0267 510.369 69.04V70.58H509.969C508.902 70.58 508.069 70.8467 507.469 71.38C506.882 71.9 506.589 72.6467 506.589 73.62V79.5H504.989V69.18H506.509V71C507.202 69.68 508.309 69.02 509.829 69.02ZM519.601 78.2H520.181V79.5C519.914 79.54 519.621 79.56 519.301 79.56C518.221 79.56 517.641 79.0667 517.561 78.08C516.841 79.1867 515.721 79.74 514.201 79.74C513.068 79.74 512.174 79.48 511.521 78.96C510.881 78.4267 510.561 77.68 510.561 76.72C510.561 74.8533 511.834 73.7867 514.381 73.52L515.861 73.36C516.941 73.24 517.481 72.7667 517.481 71.94C517.481 71.3667 517.301 70.9533 516.941 70.7C516.594 70.4467 516.001 70.32 515.161 70.32C514.268 70.32 513.621 70.4733 513.221 70.78C512.834 71.0733 512.614 71.6 512.561 72.36H510.961C511.094 70.08 512.494 68.94 515.161 68.94C517.748 68.94 519.041 69.94 519.041 71.94V77.7C519.041 78.0333 519.228 78.2 519.601 78.2ZM514.281 78.38C515.134 78.38 515.881 78.12 516.521 77.6C517.161 77.0933 517.481 76.3667 517.481 75.42V74.2C517.188 74.4267 516.734 74.5733 516.121 74.64L514.621 74.82C513.754 74.9267 513.134 75.1267 512.761 75.42C512.401 75.7133 512.221 76.1333 512.221 76.68C512.221 77.2133 512.394 77.6333 512.741 77.94C513.088 78.2333 513.601 78.38 514.281 78.38ZM526.431 69.02C526.697 69.02 526.877 69.0267 526.971 69.04V70.58H526.571C525.504 70.58 524.671 70.8467 524.071 71.38C523.484 71.9 523.191 72.6467 523.191 73.62V79.5H521.591V69.18H523.111V71C523.804 69.68 524.911 69.02 526.431 69.02ZM528.389 79.5H526.369V77.5H528.389V79.5Z" fill="#CBCDF6"/>
</svg>
