<svg width="599" height="52" viewBox="0 0 599 52" fill="none" xmlns="http://www.w3.org/2000/svg">
<path d="M8.84 22.06C2.82 22.04 0.08 20.24 0.26 15.74H5.68C5.72 16.74 6.56 17.32 8.84 17.36C10.8 17.38 11.64 16.86 11.64 16.26C11.64 15.94 11.56 15.38 10.04 15.18L7.84 14.84C4.68 14.34 0.64 14.12 0.64 9.6C0.64 6.22 3.34 4.14 8.9 4.14C13.86 4.14 17.32 5.42 17.18 10.42H11.78C11.6 9.44 10.74 8.84 8.76 8.84C7.06 8.84 6.44 9.32 6.44 9.92C6.44 10.2 6.58 10.76 7.72 10.94L9.48 11.22C12.86 11.78 17.66 11.72 17.66 16.52C17.66 20.28 14.78 22.08 8.84 22.06ZM18.6131 21.5V4.7H34.0731V9.52H24.6531V11.16H33.7131V15.04H24.6531V16.66H34.0731V21.5H18.6131ZM44.2944 22.06C38.3144 22.06 35.3944 19.58 35.3944 14.06V4.7H41.4944V13.92C41.4944 15.8 42.2744 17 44.2944 17C46.3144 17 47.1344 15.8 47.1344 13.92V4.7H53.1944V14.02C53.1944 19.58 50.2744 22.06 44.2944 22.06ZM68.9659 22.06C63.2259 22.06 59.4459 18.52 59.4459 13.1C59.4459 7.68 63.2259 4.14 68.9659 4.14C73.1859 4.14 77.5459 6 78.0059 11.92H72.2459C71.8659 10.18 70.6859 9.36 68.9659 9.36C67.0259 9.36 65.4459 10.78 65.4459 13.1C65.4459 15.4 67.0259 16.84 68.9659 16.84C70.6859 16.84 71.8659 16.02 72.2459 14.24H78.0059C77.5459 20.2 73.2459 22.06 68.9659 22.06ZM79.035 21.5V4.7H85.075V16.46H93.795V21.5H79.035ZM95.16 21.5V4.7H101.2V21.5H95.16ZM102.519 21.5V4.7H117.979V9.52H108.559V11.16H117.619V15.04H108.559V16.66H117.979V21.5H102.519ZM119.301 21.5V4.7H126.221L131.061 13.04H131.621V4.7H137.521V21.5H130.741L125.741 13.16H125.201V21.5H119.301ZM156.684 4.7V9.74H150.724V21.5H144.664V9.74H138.724V4.7H156.684ZM157.879 21.5V4.7H173.339V9.52H163.919V11.16H172.979V15.04H163.919V16.66H173.339V21.5H157.879ZM179.91 21.5V4.7H195.37V9.52H185.95V11.16H195.01V15.04H185.95V16.66H195.37V21.5H179.91ZM204.895 22.06C198.875 22.04 196.135 20.24 196.315 15.74H201.735C201.775 16.74 202.615 17.32 204.895 17.36C206.855 17.38 207.695 16.86 207.695 16.26C207.695 15.94 207.615 15.38 206.095 15.18L203.895 14.84C200.735 14.34 196.695 14.12 196.695 9.6C196.695 6.22 199.395 4.14 204.955 4.14C209.915 4.14 213.375 5.42 213.235 10.42H207.835C207.655 9.44 206.795 8.84 204.815 8.84C203.115 8.84 202.495 9.32 202.495 9.92C202.495 10.2 202.635 10.76 203.775 10.94L205.535 11.22C208.915 11.78 213.715 11.72 213.715 16.52C213.715 20.28 210.835 22.08 204.895 22.06ZM232.036 4.7V9.74H226.076V21.5H220.016V9.74H214.076V4.7H232.036ZM243.612 0.119999L242.152 3.7H236.812L238.272 0.119999H243.612ZM243.592 21.5L242.952 19.48H236.112L235.472 21.5H229.232L235.292 4.7H243.772L249.852 21.5H243.592ZM237.532 15.02H241.532L240.052 10.38H239.012L237.532 15.02ZM255.801 21.5V4.7H265.581C270.201 4.7 273.021 6.7 273.021 11.4C273.021 16.08 270.201 18.08 265.601 18.08H261.841V21.5H255.801ZM261.841 13.06H265.041C266.161 13.06 266.901 12.5 266.901 11.4C266.901 10.28 266.161 9.72 265.061 9.72H261.841V13.06ZM292.029 21.5H286.089L283.969 17.38H280.169V21.5H274.129V4.7H284.009C288.729 4.7 291.409 6.66 291.409 11.26C291.409 13.46 290.449 15.06 289.109 16.06L292.029 21.5ZM280.169 9.72V12.88H283.569C284.769 12.88 285.349 12.28 285.349 11.3C285.349 10.32 284.769 9.72 283.569 9.72H280.169ZM301.874 22.06C296.014 22.06 292.274 18.52 292.274 13.1C292.274 7.68 296.014 4.14 301.874 4.14C307.754 4.14 311.494 7.68 311.494 13.1C311.494 18.52 307.754 22.06 301.874 22.06ZM301.874 16.84C303.814 16.84 305.474 15.54 305.474 13.1C305.474 10.66 303.814 9.36 301.874 9.36C299.954 9.36 298.274 10.66 298.274 13.1C298.274 15.54 299.954 16.84 301.874 16.84ZM321.95 22.06C316.21 22.06 312.43 18.52 312.43 13.1C312.43 7.68 316.21 4.14 321.95 4.14C326.17 4.14 330.53 6 330.99 11.92H325.23C324.85 10.18 323.67 9.36 321.95 9.36C320.01 9.36 318.43 10.78 318.43 13.1C318.43 15.4 320.01 16.84 321.95 16.84C323.67 16.84 324.85 16.02 325.23 14.24H330.99C330.53 20.2 326.23 22.06 321.95 22.06ZM340.919 22.06C334.939 22.06 332.019 19.58 332.019 14.06V4.7H338.119V13.92C338.119 15.8 338.899 17 340.919 17C342.939 17 343.759 15.8 343.759 13.92V4.7H349.819V14.02C349.819 19.58 346.899 22.06 340.919 22.06ZM369.021 21.5H363.081L360.961 17.38H357.161V21.5H351.121V4.7H361.001C365.721 4.7 368.401 6.66 368.401 11.26C368.401 13.46 367.441 15.06 366.101 16.06L369.021 21.5ZM357.161 9.72V12.88H360.561C361.761 12.88 362.341 12.28 362.341 11.3C362.341 10.32 361.761 9.72 360.561 9.72H357.161ZM383.514 21.5L382.874 19.48H376.034L375.394 21.5H369.154L375.214 4.7H383.694L389.774 21.5H383.514ZM377.454 15.02H381.454L379.974 10.38H378.934L377.454 15.02ZM390.472 21.5V4.7H397.392L402.232 13.04H402.793V4.7H408.693V21.5H401.912L396.913 13.16H396.373V21.5H390.472ZM418.676 4.7C425.616 4.7 427.996 8.24 427.996 13.1C427.996 17.94 425.616 21.5 418.676 21.5H409.996V4.7H418.676ZM418.676 16.44C420.456 16.44 421.916 15.6 421.916 13.1C421.916 10.58 420.456 9.76 418.676 9.76H416.076L416.056 16.44H418.676ZM438.398 22.06C432.538 22.06 428.798 18.52 428.798 13.1C428.798 7.68 432.538 4.14 438.398 4.14C444.278 4.14 448.017 7.68 448.017 13.1C448.017 18.52 444.278 22.06 438.398 22.06ZM438.398 16.84C440.338 16.84 441.997 15.54 441.997 13.1C441.997 10.66 440.338 9.36 438.398 9.36C436.478 9.36 434.798 10.66 434.798 13.1C434.798 15.54 436.478 16.84 438.398 16.84ZM454.293 21.5V4.7H464.073C468.693 4.7 471.513 6.7 471.513 11.4C471.513 16.08 468.693 18.08 464.093 18.08H460.333V21.5H454.293ZM460.333 13.06H463.533C464.653 13.06 465.393 12.5 465.393 11.4C465.393 10.28 464.653 9.72 463.553 9.72H460.333V13.06ZM481.921 22.06C476.061 22.06 472.321 18.52 472.321 13.1C472.321 7.68 476.061 4.14 481.921 4.14C487.801 4.14 491.541 7.68 491.541 13.1C491.541 18.52 487.801 22.06 481.921 22.06ZM481.921 16.84C483.861 16.84 485.521 15.54 485.521 13.1C485.521 10.66 483.861 9.36 481.921 9.36C480.001 9.36 478.321 10.66 478.321 13.1C478.321 15.54 480.001 16.84 481.921 16.84ZM510.466 21.5H504.526L502.406 17.38H498.606V21.5H492.566V4.7H502.446C507.166 4.7 509.846 6.66 509.846 11.26C509.846 13.46 508.886 15.06 507.546 16.06L510.466 21.5ZM498.606 9.72V12.88H502.006C503.206 12.88 503.786 12.28 503.786 11.3C503.786 10.32 503.206 9.72 502.006 9.72H498.606ZM522.214 21.5L516.154 4.7H522.394L526.134 15.82H526.774L530.514 4.7H536.774L530.694 21.5H522.214ZM545.155 22.06C539.295 22.06 535.555 18.52 535.555 13.1C535.555 7.68 539.295 4.14 545.155 4.14C551.035 4.14 554.775 7.68 554.775 13.1C554.775 18.52 551.035 22.06 545.155 22.06ZM545.155 16.84C547.095 16.84 548.755 15.54 548.755 13.1C548.755 10.66 547.095 9.36 545.155 9.36C543.235 9.36 541.555 10.66 541.555 13.1C541.555 15.54 543.235 16.84 545.155 16.84ZM565.232 22.06C559.492 22.06 555.712 18.52 555.712 13.1C555.712 7.68 559.492 4.14 565.232 4.14C569.452 4.14 573.812 6 574.272 11.92H568.512C568.132 10.18 566.952 9.36 565.232 9.36C563.292 9.36 561.712 10.78 561.712 13.1C561.712 15.4 563.292 16.84 565.232 16.84C566.952 16.84 568.132 16.02 568.512 14.24H574.272C573.812 20.2 569.512 22.06 565.232 22.06ZM576.621 3.7L579.241 0.119999H586.501L589.121 3.7H584.161L583.441 2.82H582.301L581.581 3.7H576.621ZM575.301 21.5V4.7H590.761V9.52H581.341V11.16H590.401V15.04H581.341V16.66H590.761V21.5H575.301ZM594.022 26.32C594.222 24.72 594.282 22.84 594.262 21.5H591.982V16.46H598.982V17.54C598.982 22.5 598.222 25.4 597.722 26.32H594.022ZM0.66 50.5V33.7H8.26L10.52 42.54H10.96L13.22 33.7H20.82V50.5H15.06V43.94H14.6L12.96 50.5H8.52L6.88 43.94H6.42V50.5H0.66ZM35.8888 50.5L35.2487 48.48H28.4087L27.7688 50.5H21.5287L27.5887 33.7H36.0688L42.1488 50.5H35.8888ZM29.8287 44.02H33.8287L32.3488 39.38H31.3087L29.8287 44.02ZM50.3009 51.06C44.2809 51.04 41.5409 49.24 41.7209 44.74H47.1409C47.1809 45.74 48.0209 46.32 50.3009 46.36C52.2609 46.38 53.1009 45.86 53.1009 45.26C53.1009 44.94 53.0209 44.38 51.5009 44.18L49.3009 43.84C46.1409 43.34 42.1009 43.12 42.1009 38.6C42.1009 35.22 44.8009 33.14 50.3609 33.14C55.3209 33.14 58.7809 34.42 58.6409 39.42H53.2409C53.0609 38.44 52.2009 37.84 50.2209 37.84C48.5209 37.84 47.9009 38.32 47.9009 38.92C47.9009 39.2 48.0409 39.76 49.1809 39.94L50.9409 40.22C54.3209 40.78 59.1209 40.72 59.1209 45.52C59.1209 49.28 56.2409 51.08 50.3009 51.06ZM65.3241 50.5V33.7H80.7841V38.52H71.3641V40.16H80.4241V44.04H71.3641V45.66H80.7841V50.5H65.3241ZM82.1053 50.5V33.7H88.1453V45.46H96.8653V50.5H82.1053ZM98.2303 50.5V33.7H113.69V38.52H104.27V40.16H113.33V44.04H104.27V45.66H113.69V50.5H98.2303ZM134.022 50.5L133.382 48.48H126.542L125.902 50.5H119.662L125.722 33.7H134.202L140.282 50.5H134.022ZM127.962 44.02H131.962L130.482 39.38H129.442L127.962 44.02ZM140.98 50.5V33.7H147.02V50.5H140.98ZM148.34 50.5V33.7H155.26L160.1 42.04H160.66V33.7H166.56V50.5H159.78L154.78 42.16H154.24V50.5H148.34ZM176.543 33.7C183.483 33.7 185.863 37.24 185.863 42.1C185.863 46.94 183.483 50.5 176.543 50.5H167.863V33.7H176.543ZM176.543 45.44C178.323 45.44 179.783 44.6 179.783 42.1C179.783 39.58 178.323 38.76 176.543 38.76H173.943L173.923 45.44H176.543ZM199.108 50.5L198.467 48.48H191.627L190.988 50.5H184.747L190.807 33.7H199.288L205.368 50.5H199.108ZM193.047 44.02H197.047L195.568 39.38H194.527L193.047 44.02ZM211.316 50.5V33.7H218.236L223.076 42.04H223.636V33.7H229.536V50.5H222.756L217.756 42.16H217.216V50.5H211.316ZM237.06 32.6H235.5C235.06 30 236.92 28.92 238.72 28.92C240.32 28.92 241.4 30.02 242.72 30.02C243.44 30.02 243.92 29.66 243.98 29.06H245.52C245.96 31.64 244.12 32.74 242.3 32.74C240.7 32.74 239.64 31.64 238.32 31.64C237.6 31.64 237.12 31.98 237.06 32.6ZM244.6 50.5L243.96 48.48H237.12L236.48 50.5H230.24L236.3 33.7H244.78L250.86 50.5H244.6ZM238.54 44.02H242.54L241.06 39.38H240.02L238.54 44.02ZM259.241 51.06C253.381 51.06 249.641 47.52 249.641 42.1C249.641 36.68 253.381 33.14 259.241 33.14C265.121 33.14 268.861 36.68 268.861 42.1C268.861 47.52 265.121 51.06 259.241 51.06ZM259.241 45.84C261.181 45.84 262.841 44.54 262.841 42.1C262.841 39.66 261.181 38.36 259.241 38.36C257.321 38.36 255.641 39.66 255.641 42.1C255.641 44.54 257.321 45.84 259.241 45.84ZM292.387 33.7V38.74H286.427V50.5H280.367V38.74H274.427V33.7H292.387ZM293.582 50.5V33.7H309.042V38.52H299.622V40.16H308.682V44.04H299.622V45.66H309.042V50.5H293.582ZM315.613 50.5V33.7H331.073V38.52H321.653V40.16H330.713V44.04H321.653V45.66H331.073V50.5H315.613ZM332.394 50.5V33.7H339.314L344.154 42.04H344.714V33.7H350.614V50.5H343.834L338.834 42.16H338.294V50.5H332.394ZM361.138 51.06C355.398 51.06 351.618 47.52 351.618 42.1C351.618 36.68 355.398 33.14 361.138 33.14C365.358 33.14 369.718 35 370.178 40.92H364.418C364.038 39.18 362.858 38.36 361.138 38.36C359.198 38.36 357.618 39.78 357.618 42.1C357.618 44.4 359.198 45.84 361.138 45.84C362.858 45.84 364.038 45.02 364.418 43.24H370.178C369.718 49.2 365.418 51.06 361.138 51.06ZM380.765 51.06C374.905 51.06 371.165 47.52 371.165 42.1C371.165 36.68 374.905 33.14 380.765 33.14C386.645 33.14 390.385 36.68 390.385 42.1C390.385 47.52 386.645 51.06 380.765 51.06ZM380.765 45.84C382.705 45.84 384.365 44.54 384.365 42.1C384.365 39.66 382.705 38.36 380.765 38.36C378.845 38.36 377.165 39.66 377.165 42.1C377.165 44.54 378.845 45.84 380.765 45.84ZM391.41 50.5V33.7H398.33L403.17 42.04H403.73V33.7H409.63V50.5H402.85L397.85 42.16H397.31V50.5H391.41ZM428.793 33.7V38.74H422.833V50.5H416.773V38.74H410.833V33.7H428.793ZM447.888 50.5H441.948L439.828 46.38H436.028V50.5H429.988V33.7H439.868C444.588 33.7 447.268 35.66 447.268 40.26C447.268 42.46 446.308 44.06 444.968 45.06L447.888 50.5ZM436.028 38.72V41.88H439.428C440.628 41.88 441.208 41.28 441.208 40.3C441.208 39.32 440.628 38.72 439.428 38.72H436.028ZM457.733 51.06C451.873 51.06 448.133 47.52 448.133 42.1C448.133 36.68 451.873 33.14 457.733 33.14C463.613 33.14 467.353 36.68 467.353 42.1C467.353 47.52 463.613 51.06 457.733 51.06ZM457.733 45.84C459.673 45.84 461.333 44.54 461.333 42.1C461.333 39.66 459.673 38.36 457.733 38.36C455.813 38.36 454.133 39.66 454.133 42.1C454.133 44.54 455.813 45.84 457.733 45.84ZM477.279 51.06C471.299 51.06 468.379 48.58 468.379 43.06V33.7H474.479V42.92C474.479 44.8 475.259 46 477.279 46C479.299 46 480.119 44.8 480.119 42.92V33.7H486.179V43.02C486.179 48.58 483.259 51.06 477.279 51.06ZM490.226 50.82C488.626 50.82 487.266 49.48 487.266 47.9C487.266 46.3 488.626 44.96 490.226 44.96C491.846 44.96 493.206 46.3 493.206 47.9C493.206 49.48 491.846 50.82 490.226 50.82Z" fill="#F8F8F8"/>
</svg>
