<svg width="293" height="104" viewBox="0 0 293 104" fill="none" xmlns="http://www.w3.org/2000/svg">
<path d="M6.33194 7.76V5.648H11.5799V12H9.69194L9.37194 10.496C8.60394 11.6693 7.37194 12.256 5.67594 12.256C4.0226 12.256 2.69994 11.712 1.70794 10.624C0.715938 9.55733 0.219938 8.11733 0.219938 6.304C0.219938 4.46933 0.737271 3.01867 1.77194 1.952C2.79594 0.885333 4.20394 0.351999 5.99594 0.351999C7.4786 0.351999 8.7106 0.719999 9.69194 1.456C10.6839 2.20267 11.2653 3.2 11.4359 4.448H8.66794C8.50794 3.89333 8.1986 3.46133 7.73994 3.152C7.28127 2.84267 6.70527 2.688 6.01194 2.688C5.08394 2.688 4.35327 3.008 3.81994 3.648C3.29727 4.288 3.03594 5.17333 3.03594 6.304C3.03594 7.43467 3.30794 8.32 3.85194 8.96C4.4066 9.6 5.16927 9.92 6.13994 9.92C6.84394 9.92 7.4466 9.72267 7.94794 9.328C8.45994 8.92267 8.76394 8.4 8.85994 7.76H6.33194ZM21.2476 8.112V8.608H15.1356C15.2209 9.17333 15.4289 9.60533 15.7596 9.904C16.0902 10.2027 16.5116 10.352 17.0236 10.352C17.8342 10.352 18.3889 10.0427 18.6876 9.424H21.0556C20.8316 10.2773 20.3569 10.9547 19.6316 11.456C18.9062 11.9467 18.0369 12.192 17.0236 12.192C15.7436 12.192 14.7089 11.7973 13.9196 11.008C13.1302 10.2187 12.7356 9.17333 12.7356 7.872C12.7356 6.56 13.1249 5.51467 13.9036 4.736C14.6716 3.94667 15.7009 3.552 16.9916 3.552C18.2716 3.552 19.3062 3.96267 20.0956 4.784C20.8636 5.616 21.2476 6.72533 21.2476 8.112ZM16.9596 5.392C15.9356 5.392 15.3329 5.936 15.1516 7.024H18.7996C18.7142 6.512 18.5116 6.112 18.1916 5.824C17.8716 5.536 17.4609 5.392 16.9596 5.392ZM27.1993 3.616C27.242 3.616 27.4233 3.62667 27.7433 3.648V5.92H27.1033C25.642 5.92 24.9113 6.66667 24.9113 8.16V12H22.4153V3.744H24.8473V5.28C25.2313 4.17067 26.0153 3.616 27.1993 3.616ZM36.2736 12H33.7616C33.6336 11.7547 33.5642 11.4453 33.5536 11.072C32.9989 11.8187 32.1189 12.192 30.9136 12.192C30.0069 12.192 29.2762 11.968 28.7216 11.52C28.1776 11.072 27.9056 10.4533 27.9056 9.664C27.9056 8.128 28.9829 7.26933 31.1376 7.088L32.4336 6.976C33.1482 6.90133 33.5056 6.62933 33.5056 6.16C33.5056 5.60533 33.0842 5.328 32.2416 5.328C31.7296 5.328 31.3669 5.408 31.1536 5.568C30.9509 5.71733 30.8282 6 30.7856 6.416H28.3056C28.4549 4.50667 29.7722 3.552 32.2576 3.552C34.7109 3.552 35.9376 4.4 35.9376 6.096V10.48C35.9376 11.1733 36.0496 11.68 36.2736 12ZM31.6656 10.512C32.2309 10.512 32.6789 10.368 33.0096 10.08C33.3402 9.78133 33.5056 9.33867 33.5056 8.752V8.144C33.3562 8.304 33.0789 8.41067 32.6736 8.464L31.6496 8.576C30.8496 8.66133 30.4496 8.992 30.4496 9.568C30.4496 9.856 30.5562 10.0853 30.7696 10.256C30.9829 10.4267 31.2816 10.512 31.6656 10.512ZM47.1791 3.552C48.0857 3.552 48.7951 3.824 49.3071 4.368C49.8191 4.90133 50.0751 5.65867 50.0751 6.64V12H47.5791V7.072C47.5791 6.144 47.1684 5.68 46.3471 5.68C45.9097 5.68 45.5631 5.82933 45.3071 6.128C45.0511 6.42667 44.9231 6.864 44.9231 7.44V12H42.4271V7.072C42.4271 6.144 42.0164 5.68 41.1951 5.68C40.7577 5.68 40.4057 5.82933 40.1391 6.128C39.8831 6.42667 39.7551 6.864 39.7551 7.44V12H37.2591V3.744H39.6911V4.912C40.2991 4.00533 41.0831 3.552 42.0431 3.552C43.2804 3.552 44.1337 4.048 44.6031 5.04C45.2751 4.048 46.1337 3.552 47.1791 3.552ZM58.6611 11.008C57.8717 11.7973 56.8211 12.192 55.5091 12.192C54.1971 12.192 53.1464 11.7973 52.3571 11.008C51.5677 10.2187 51.1731 9.17333 51.1731 7.872C51.1731 6.56 51.5677 5.50933 52.3571 4.72C53.1357 3.94133 54.1864 3.552 55.5091 3.552C56.8317 3.552 57.8824 3.94133 58.6611 4.72C59.4397 5.49867 59.8291 6.54933 59.8291 7.872C59.8291 9.184 59.4397 10.2293 58.6611 11.008ZM55.5091 10.192C56.0851 10.192 56.5277 9.99467 56.8371 9.6C57.1464 9.20533 57.3011 8.62933 57.3011 7.872C57.3011 7.11467 57.1464 6.53867 56.8371 6.144C56.5277 5.74933 56.0851 5.552 55.5091 5.552C54.9224 5.552 54.4744 5.74933 54.1651 6.144C53.8557 6.53867 53.7011 7.11467 53.7011 7.872C53.7011 8.62933 53.8557 9.20533 54.1651 9.6C54.4744 9.99467 54.9224 10.192 55.5091 10.192ZM64.3561 12.24C63.0547 12.24 62.0841 12.016 61.4441 11.568C60.8147 11.1093 60.4627 10.3787 60.3881 9.376H62.8201C62.8627 9.81333 63.0014 10.1227 63.2361 10.304C63.4814 10.4853 63.8707 10.576 64.4041 10.576C65.3321 10.576 65.7961 10.3093 65.7961 9.776C65.7961 9.52 65.6947 9.328 65.4921 9.2C65.2894 9.06133 64.9161 8.94933 64.3721 8.864L63.3001 8.688C61.4441 8.4 60.5161 7.55733 60.5161 6.16C60.5161 5.328 60.8361 4.688 61.4761 4.24C62.1161 3.78133 63.0334 3.552 64.2281 3.552C66.6921 3.552 67.9721 4.496 68.0681 6.384H65.7481C65.7374 5.60533 65.2307 5.216 64.2281 5.216C63.3854 5.216 62.9641 5.47733 62.9641 6C62.9641 6.23467 63.0601 6.416 63.2521 6.544C63.4441 6.672 63.7481 6.768 64.1641 6.832L65.3961 7.008C66.3881 7.15733 67.1187 7.44 67.5881 7.856C68.0574 8.272 68.2921 8.84267 68.2921 9.568C68.2921 10.4213 67.9454 11.0827 67.2521 11.552C66.5694 12.0107 65.6041 12.24 64.3561 12.24ZM76.8349 12.192C75.5443 12.192 74.5149 11.7973 73.7469 11.008C72.9789 10.2187 72.5949 9.17333 72.5949 7.872C72.5949 6.54933 72.9789 5.49867 73.7469 4.72C74.5149 3.94133 75.5443 3.552 76.8349 3.552C77.9656 3.552 78.8883 3.85067 79.6029 4.448C80.3283 5.03467 80.7496 5.83467 80.8669 6.848H78.3869C78.2483 6.00533 77.7309 5.584 76.8349 5.584C75.6936 5.584 75.1229 6.34667 75.1229 7.872C75.1229 9.38667 75.6936 10.144 76.8349 10.144C77.7949 10.144 78.3283 9.68 78.4349 8.752H80.9149C80.8403 9.79733 80.4296 10.6347 79.6829 11.264C78.9363 11.8827 77.9869 12.192 76.8349 12.192ZM86.6368 3.616C86.6795 3.616 86.8608 3.62667 87.1808 3.648V5.92H86.5408C85.0795 5.92 84.3488 6.66667 84.3488 8.16V12H81.8528V3.744H84.2848V5.28C84.6688 4.17067 85.4528 3.616 86.6368 3.616ZM96.0601 8.112V8.608H89.9481C90.0334 9.17333 90.2414 9.60533 90.5721 9.904C90.9027 10.2027 91.3241 10.352 91.8361 10.352C92.6467 10.352 93.2014 10.0427 93.5001 9.424H95.8681C95.6441 10.2773 95.1694 10.9547 94.4441 11.456C93.7187 11.9467 92.8494 12.192 91.8361 12.192C90.5561 12.192 89.5214 11.7973 88.7321 11.008C87.9427 10.2187 87.5481 9.17333 87.5481 7.872C87.5481 6.56 87.9374 5.51467 88.7161 4.736C89.4841 3.94667 90.5134 3.552 91.8041 3.552C93.0841 3.552 94.1187 3.96267 94.9081 4.784C95.6761 5.616 96.0601 6.72533 96.0601 8.112ZM91.7721 5.392C90.7481 5.392 90.1454 5.936 89.9641 7.024H93.6121C93.5267 6.512 93.3241 6.112 93.0041 5.824C92.6841 5.536 92.2734 5.392 91.7721 5.392ZM100.731 12.24C99.4297 12.24 98.4591 12.016 97.8191 11.568C97.1897 11.1093 96.8377 10.3787 96.7631 9.376H99.1951C99.2377 9.81333 99.3764 10.1227 99.6111 10.304C99.8564 10.4853 100.246 10.576 100.779 10.576C101.707 10.576 102.171 10.3093 102.171 9.776C102.171 9.52 102.07 9.328 101.867 9.2C101.664 9.06133 101.291 8.94933 100.747 8.864L99.6751 8.688C97.8191 8.4 96.8911 7.55733 96.8911 6.16C96.8911 5.328 97.2111 4.688 97.8511 4.24C98.4911 3.78133 99.4084 3.552 100.603 3.552C103.067 3.552 104.347 4.496 104.443 6.384H102.123C102.112 5.60533 101.606 5.216 100.603 5.216C99.7604 5.216 99.3391 5.47733 99.3391 6C99.3391 6.23467 99.4351 6.416 99.6271 6.544C99.8191 6.672 100.123 6.768 100.539 6.832L101.771 7.008C102.763 7.15733 103.494 7.44 103.963 7.856C104.432 8.272 104.667 8.84267 104.667 9.568C104.667 10.4213 104.32 11.0827 103.627 11.552C102.944 12.0107 101.979 12.24 100.731 12.24ZM109.476 12.192C108.185 12.192 107.156 11.7973 106.388 11.008C105.62 10.2187 105.236 9.17333 105.236 7.872C105.236 6.54933 105.62 5.49867 106.388 4.72C107.156 3.94133 108.185 3.552 109.476 3.552C110.606 3.552 111.529 3.85067 112.244 4.448C112.969 5.03467 113.39 5.83467 113.508 6.848H111.028C110.889 6.00533 110.372 5.584 109.476 5.584C108.334 5.584 107.764 6.34667 107.764 7.872C107.764 9.38667 108.334 10.144 109.476 10.144C110.436 10.144 110.969 9.68 111.076 8.752H113.556C113.481 9.79733 113.07 10.6347 112.324 11.264C111.577 11.8827 110.628 12.192 109.476 12.192ZM116.941 2.8H114.557V0.688H116.941V2.8ZM116.989 12H114.493V3.744H116.989V12ZM128.367 3.552C129.273 3.552 129.983 3.824 130.495 4.368C131.007 4.90133 131.263 5.65867 131.263 6.64V12H128.767V7.072C128.767 6.144 128.356 5.68 127.535 5.68C127.097 5.68 126.751 5.82933 126.495 6.128C126.239 6.42667 126.111 6.864 126.111 7.44V12H123.615V7.072C123.615 6.144 123.204 5.68 122.383 5.68C121.945 5.68 121.593 5.82933 121.327 6.128C121.071 6.42667 120.943 6.864 120.943 7.44V12H118.447V3.744H120.879V4.912C121.487 4.00533 122.271 3.552 123.231 3.552C124.468 3.552 125.321 4.048 125.791 5.04C126.463 4.048 127.321 3.552 128.367 3.552ZM140.873 8.112V8.608H134.761C134.846 9.17333 135.054 9.60533 135.385 9.904C135.715 10.2027 136.137 10.352 136.649 10.352C137.459 10.352 138.014 10.0427 138.313 9.424H140.681C140.457 10.2773 139.982 10.9547 139.257 11.456C138.531 11.9467 137.662 12.192 136.649 12.192C135.369 12.192 134.334 11.7973 133.545 11.008C132.755 10.2187 132.361 9.17333 132.361 7.872C132.361 6.56 132.75 5.51467 133.529 4.736C134.297 3.94667 135.326 3.552 136.617 3.552C137.897 3.552 138.931 3.96267 139.721 4.784C140.489 5.616 140.873 6.72533 140.873 8.112ZM136.585 5.392C135.561 5.392 134.958 5.936 134.777 7.024H138.425C138.339 6.512 138.137 6.112 137.817 5.824C137.497 5.536 137.086 5.392 136.585 5.392ZM147.064 3.552C147.939 3.552 148.632 3.81867 149.144 4.352C149.667 4.87467 149.928 5.62133 149.928 6.592V12H147.432V7.088C147.432 6.14933 146.99 5.68 146.104 5.68C145.656 5.68 145.283 5.82933 144.984 6.128C144.686 6.42667 144.536 6.848 144.536 7.392V12H142.04V3.744H144.472V4.912C145.112 4.00533 145.976 3.552 147.064 3.552ZM155.886 3.744V5.568H154.302V9.424C154.302 9.70133 154.372 9.89333 154.51 10C154.649 10.096 154.894 10.144 155.246 10.144H155.886V12C155.588 12.0427 155.204 12.064 154.734 12.064C153.7 12.064 152.953 11.8827 152.494 11.52C152.036 11.1467 151.806 10.5387 151.806 9.696V5.568H150.574V3.744H151.806V1.296H154.302V3.744H155.886ZM163.942 11.008C163.153 11.7973 162.102 12.192 160.79 12.192C159.478 12.192 158.428 11.7973 157.638 11.008C156.849 10.2187 156.454 9.17333 156.454 7.872C156.454 6.56 156.849 5.50933 157.638 4.72C158.417 3.94133 159.468 3.552 160.79 3.552C162.113 3.552 163.164 3.94133 163.942 4.72C164.721 5.49867 165.11 6.54933 165.11 7.872C165.11 9.184 164.721 10.2293 163.942 11.008ZM160.79 10.192C161.366 10.192 161.809 9.99467 162.118 9.6C162.428 9.20533 162.582 8.62933 162.582 7.872C162.582 7.11467 162.428 6.53867 162.118 6.144C161.809 5.74933 161.366 5.552 160.79 5.552C160.204 5.552 159.756 5.74933 159.446 6.144C159.137 6.53867 158.982 7.11467 158.982 7.872C158.982 8.62933 159.137 9.20533 159.446 9.6C159.756 9.99467 160.204 10.192 160.79 10.192ZM178.123 8.112V8.608H172.011C172.096 9.17333 172.304 9.60533 172.635 9.904C172.965 10.2027 173.387 10.352 173.899 10.352C174.709 10.352 175.264 10.0427 175.563 9.424H177.931C177.707 10.2773 177.232 10.9547 176.507 11.456C175.781 11.9467 174.912 12.192 173.899 12.192C172.619 12.192 171.584 11.7973 170.795 11.008C170.005 10.2187 169.611 9.17333 169.611 7.872C169.611 6.56 170 5.51467 170.779 4.736C171.547 3.94667 172.576 3.552 173.867 3.552C175.147 3.552 176.181 3.96267 176.971 4.784C177.739 5.616 178.123 6.72533 178.123 8.112ZM173.835 5.392C172.811 5.392 172.208 5.936 172.027 7.024H175.675C175.589 6.512 175.387 6.112 175.067 5.824C174.747 5.536 174.336 5.392 173.835 5.392ZM189.21 3.552C190.117 3.552 190.826 3.824 191.338 4.368C191.85 4.90133 192.106 5.65867 192.106 6.64V12H189.61V7.072C189.61 6.144 189.2 5.68 188.378 5.68C187.941 5.68 187.594 5.82933 187.338 6.128C187.082 6.42667 186.954 6.864 186.954 7.44V12H184.458V7.072C184.458 6.144 184.048 5.68 183.226 5.68C182.789 5.68 182.437 5.82933 182.17 6.128C181.914 6.42667 181.786 6.864 181.786 7.44V12H179.29V3.744H181.722V4.912C182.33 4.00533 183.114 3.552 184.074 3.552C185.312 3.552 186.165 4.048 186.634 5.04C187.306 4.048 188.165 3.552 189.21 3.552ZM202.123 2.464H201.451C200.789 2.464 200.459 2.75733 200.459 3.344V3.744H202.091V5.568H200.459V12H197.963V5.568H196.731V3.744H197.963V3.264C197.963 2.432 198.208 1.77067 198.699 1.28C199.2 0.789333 199.947 0.544 200.939 0.544C201.312 0.544 201.707 0.565333 202.123 0.608V2.464ZM210.664 12H208.152C208.024 11.7547 207.955 11.4453 207.944 11.072C207.39 11.8187 206.51 12.192 205.304 12.192C204.398 12.192 203.667 11.968 203.112 11.52C202.568 11.072 202.296 10.4533 202.296 9.664C202.296 8.128 203.374 7.26933 205.528 7.088L206.824 6.976C207.539 6.90133 207.896 6.62933 207.896 6.16C207.896 5.60533 207.475 5.328 206.632 5.328C206.12 5.328 205.758 5.408 205.544 5.568C205.342 5.71733 205.219 6 205.176 6.416H202.696C202.846 4.50667 204.163 3.552 206.648 3.552C209.102 3.552 210.328 4.4 210.328 6.096V10.48C210.328 11.1733 210.44 11.68 210.664 12ZM206.056 10.512C206.622 10.512 207.07 10.368 207.4 10.08C207.731 9.78133 207.896 9.33867 207.896 8.752V8.144C207.747 8.304 207.47 8.41067 207.064 8.464L206.04 8.576C205.24 8.66133 204.84 8.992 204.84 9.568C204.84 9.856 204.947 10.0853 205.16 10.256C205.374 10.4267 205.672 10.512 206.056 10.512ZM216.215 3.744V5.568H214.631V9.424C214.631 9.70133 214.7 9.89333 214.839 10C214.977 10.096 215.223 10.144 215.575 10.144H216.215V12C215.916 12.0427 215.532 12.064 215.063 12.064C214.028 12.064 213.281 11.8827 212.823 11.52C212.364 11.1467 212.135 10.5387 212.135 9.696V5.568H210.903V3.744H212.135V1.296H214.631V3.744H216.215ZM222.667 8.352V3.744H225.163V12H222.731V10.832C222.091 11.7387 221.227 12.192 220.139 12.192C219.264 12.192 218.565 11.9307 218.043 11.408C217.531 10.8747 217.275 10.1227 217.275 9.152V3.744H219.771V8.656C219.771 9.59467 220.213 10.064 221.099 10.064C221.547 10.064 221.92 9.91467 222.219 9.616C222.517 9.31733 222.667 8.896 222.667 8.352ZM231.387 3.616C231.429 3.616 231.611 3.62667 231.931 3.648V5.92H231.291C229.829 5.92 229.099 6.66667 229.099 8.16V12H226.603V3.744H229.035V5.28C229.419 4.17067 230.203 3.616 231.387 3.616ZM240.461 12H237.949C237.821 11.7547 237.752 11.4453 237.741 11.072C237.186 11.8187 236.306 12.192 235.101 12.192C234.194 12.192 233.464 11.968 232.909 11.52C232.365 11.072 232.093 10.4533 232.093 9.664C232.093 8.128 233.17 7.26933 235.325 7.088L236.621 6.976C237.336 6.90133 237.693 6.62933 237.693 6.16C237.693 5.60533 237.272 5.328 236.429 5.328C235.917 5.328 235.554 5.408 235.341 5.568C235.138 5.71733 235.016 6 234.973 6.416H232.493C232.642 4.50667 233.96 3.552 236.445 3.552C238.898 3.552 240.125 4.4 240.125 6.096V10.48C240.125 11.1733 240.237 11.68 240.461 12ZM235.853 10.512C236.418 10.512 236.866 10.368 237.197 10.08C237.528 9.78133 237.693 9.33867 237.693 8.752V8.144C237.544 8.304 237.266 8.41067 236.861 8.464L235.837 8.576C235.037 8.66133 234.637 8.992 234.637 9.568C234.637 9.856 234.744 10.0853 234.957 10.256C235.17 10.4267 235.469 10.512 235.853 10.512ZM251.367 3.552C252.273 3.552 252.983 3.824 253.495 4.368C254.007 4.90133 254.263 5.65867 254.263 6.64V12H251.767V7.072C251.767 6.144 251.356 5.68 250.535 5.68C250.097 5.68 249.751 5.82933 249.495 6.128C249.239 6.42667 249.111 6.864 249.111 7.44V12H246.615V7.072C246.615 6.144 246.204 5.68 245.383 5.68C244.945 5.68 244.593 5.82933 244.327 6.128C244.071 6.42667 243.943 6.864 243.943 7.44V12H241.447V3.744H243.879V4.912C244.487 4.00533 245.271 3.552 246.231 3.552C247.468 3.552 248.321 4.048 248.791 5.04C249.463 4.048 250.321 3.552 251.367 3.552ZM263.873 8.112V8.608H257.761C257.846 9.17333 258.054 9.60533 258.385 9.904C258.715 10.2027 259.137 10.352 259.649 10.352C260.459 10.352 261.014 10.0427 261.313 9.424H263.681C263.457 10.2773 262.982 10.9547 262.257 11.456C261.531 11.9467 260.662 12.192 259.649 12.192C258.369 12.192 257.334 11.7973 256.545 11.008C255.755 10.2187 255.361 9.17333 255.361 7.872C255.361 6.56 255.75 5.51467 256.529 4.736C257.297 3.94667 258.326 3.552 259.617 3.552C260.897 3.552 261.931 3.96267 262.721 4.784C263.489 5.616 263.873 6.72533 263.873 8.112ZM259.585 5.392C258.561 5.392 257.958 5.936 257.777 7.024H261.425C261.339 6.512 261.137 6.112 260.817 5.824C260.497 5.536 260.086 5.392 259.585 5.392ZM270.064 3.552C270.939 3.552 271.632 3.81867 272.144 4.352C272.667 4.87467 272.928 5.62133 272.928 6.592V12H270.432V7.088C270.432 6.14933 269.99 5.68 269.104 5.68C268.656 5.68 268.283 5.82933 267.984 6.128C267.686 6.42667 267.536 6.848 267.536 7.392V12H265.04V3.744H267.472V4.912C268.112 4.00533 268.976 3.552 270.064 3.552ZM278.886 3.744V5.568H277.302V9.424C277.302 9.70133 277.372 9.89333 277.51 10C277.649 10.096 277.894 10.144 278.246 10.144H278.886V12C278.588 12.0427 278.204 12.064 277.734 12.064C276.7 12.064 275.953 11.8827 275.494 11.52C275.036 11.1467 274.806 10.5387 274.806 9.696V5.568H273.574V3.744H274.806V1.296H277.302V3.744H278.886ZM286.942 11.008C286.153 11.7973 285.102 12.192 283.79 12.192C282.478 12.192 281.428 11.7973 280.638 11.008C279.849 10.2187 279.454 9.17333 279.454 7.872C279.454 6.56 279.849 5.50933 280.638 4.72C281.417 3.94133 282.468 3.552 283.79 3.552C285.113 3.552 286.164 3.94133 286.942 4.72C287.721 5.49867 288.11 6.54933 288.11 7.872C288.11 9.184 287.721 10.2293 286.942 11.008ZM283.79 10.192C284.366 10.192 284.809 9.99467 285.118 9.6C285.428 9.20533 285.582 8.62933 285.582 7.872C285.582 7.11467 285.428 6.53867 285.118 6.144C284.809 5.74933 284.366 5.552 283.79 5.552C283.204 5.552 282.756 5.74933 282.446 6.144C282.137 6.53867 281.982 7.11467 281.982 7.872C281.982 8.62933 282.137 9.20533 282.446 9.6C282.756 9.99467 283.204 10.192 283.79 10.192ZM291.571 12H288.755V9.248H291.571V12ZM13.3618 34H11.5538L10.4338 31.04H5.31381L4.20981 34H2.43381L6.88181 22.608H8.84981L13.3618 34ZM6.09781 28.928L5.85781 29.552H9.87381L9.63381 28.928C9.06848 27.52 8.47648 25.9627 7.85781 24.256C7.12181 26.2187 6.53515 27.776 6.09781 28.928ZM27.8931 34H26.0851L24.9651 31.04H19.8451L18.7411 34H16.9651L21.4131 22.608H23.3811L27.8931 34ZM20.6291 28.928L20.3891 29.552H24.4051L24.1651 28.928C23.5997 27.52 23.0077 25.9627 22.3891 24.256C21.6531 26.2187 21.0664 27.776 20.6291 28.928ZM32.9689 25.616C33.2036 25.616 33.3583 25.6213 33.4329 25.632V27.152H33.0329C32.2116 27.152 31.5769 27.3547 31.1289 27.76C30.6809 28.1653 30.4569 28.752 30.4569 29.52V34H28.8569V25.744H30.3929V27.216C30.9156 26.1493 31.7743 25.616 32.9689 25.616ZM43.6153 25.552C44.5113 25.552 45.21 25.8187 45.7113 26.352C46.2126 26.8747 46.4633 27.5787 46.4633 28.464V34H44.8473V28.672C44.8473 27.5307 44.3193 26.96 43.2633 26.96C42.698 26.96 42.234 27.1787 41.8713 27.616C41.5086 28.0427 41.3273 28.6613 41.3273 29.472V34H39.7273V28.672C39.7273 27.5307 39.194 26.96 38.1273 26.96C37.562 26.96 37.098 27.1787 36.7353 27.616C36.3726 28.0533 36.1913 28.672 36.1913 29.472V34H34.5913V25.744H36.1273V26.976C36.6926 26.0267 37.4873 25.552 38.5113 25.552C39.7593 25.552 40.6073 26.0693 41.0553 27.104C41.642 26.0693 42.4953 25.552 43.6153 25.552ZM54.9196 33.008C54.1622 33.7973 53.1756 34.192 51.9596 34.192C50.7436 34.192 49.7569 33.7973 48.9996 33.008C48.2422 32.2187 47.8636 31.1733 47.8636 29.872C47.8636 28.56 48.2422 27.5093 48.9996 26.72C49.7462 25.9413 50.7329 25.552 51.9596 25.552C53.1862 25.552 54.1729 25.9413 54.9196 26.72C55.6662 27.4987 56.0396 28.5493 56.0396 29.872C56.0396 31.184 55.6662 32.2293 54.9196 33.008ZM50.1836 32.032C50.6209 32.5547 51.2129 32.816 51.9596 32.816C52.7062 32.816 53.2929 32.5547 53.7196 32.032C54.1569 31.5093 54.3756 30.7893 54.3756 29.872C54.3756 28.9547 54.1569 28.2347 53.7196 27.712C53.2929 27.1893 52.7062 26.928 51.9596 26.928C51.2129 26.928 50.6209 27.1893 50.1836 27.712C49.7462 28.2347 49.5276 28.9547 49.5276 29.872C49.5276 30.7893 49.7462 31.5093 50.1836 32.032ZM67.7891 32.768H68.2371V34C68.0024 34.032 67.7411 34.048 67.4531 34.048C66.9411 34.048 66.5571 33.9573 66.3011 33.776C66.0557 33.584 65.9064 33.2853 65.8531 32.88C65.2984 33.7547 64.4024 34.192 63.1651 34.192C62.2584 34.192 61.5384 33.9787 61.0051 33.552C60.4824 33.1147 60.2211 32.512 60.2211 31.744C60.2211 30.2507 61.2557 29.3973 63.3251 29.184L64.5411 29.056C64.9677 29.0027 65.2771 28.896 65.4691 28.736C65.6717 28.5653 65.7731 28.3253 65.7731 28.016C65.7731 27.6 65.6397 27.3013 65.3731 27.12C65.1171 26.928 64.6851 26.832 64.0771 26.832C63.4157 26.832 62.9411 26.944 62.6531 27.168C62.3651 27.3813 62.1997 27.7653 62.1571 28.32H60.5731C60.6904 26.4747 61.8584 25.552 64.0771 25.552C66.2531 25.552 67.3411 26.3627 67.3411 27.984V32.352C67.3411 32.6293 67.4904 32.768 67.7891 32.768ZM63.4051 32.944C64.0877 32.944 64.6531 32.752 65.1011 32.368C65.5491 31.984 65.7731 31.44 65.7731 30.736V29.872C65.5704 30.0427 65.2291 30.1547 64.7491 30.208L63.5971 30.336C62.9784 30.4107 62.5357 30.56 62.2691 30.784C62.0024 30.9973 61.8691 31.3013 61.8691 31.696C61.8691 32.0907 61.9971 32.4 62.2531 32.624C62.5197 32.8373 62.9037 32.944 63.4051 32.944ZM72.9332 25.744V27.056H71.2692V32.016C71.2692 32.2613 71.3385 32.4427 71.4772 32.56C71.6265 32.6667 71.8719 32.72 72.2132 32.72H72.9332V34C72.5812 34.032 72.2559 34.048 71.9572 34.048C71.1785 34.048 70.6025 33.8987 70.2292 33.6C69.8559 33.3013 69.6692 32.8213 69.6692 32.16V27.056H68.3412V25.744H69.6692V23.376H71.2692V25.744H72.9332ZM79.6403 30.4V25.744H81.2403V34H79.7043V32.768C79.075 33.7173 78.211 34.192 77.1123 34.192C76.2056 34.192 75.4963 33.936 74.9843 33.424C74.4723 32.912 74.2163 32.1973 74.2163 31.28V25.744H75.8163V31.056C75.8163 32.208 76.3976 32.784 77.5603 32.784C78.147 32.784 78.6376 32.576 79.0323 32.16C79.4376 31.7333 79.6403 31.1467 79.6403 30.4ZM90.1484 32.768H90.5964V34C90.3618 34.032 90.1004 34.048 89.8124 34.048C89.3004 34.048 88.9164 33.9573 88.6604 33.776C88.4151 33.584 88.2658 33.2853 88.2124 32.88C87.6578 33.7547 86.7618 34.192 85.5244 34.192C84.6178 34.192 83.8978 33.9787 83.3644 33.552C82.8418 33.1147 82.5804 32.512 82.5804 31.744C82.5804 30.2507 83.6151 29.3973 85.6844 29.184L86.9004 29.056C87.3271 29.0027 87.6364 28.896 87.8284 28.736C88.0311 28.5653 88.1324 28.3253 88.1324 28.016C88.1324 27.6 87.9991 27.3013 87.7324 27.12C87.4764 26.928 87.0444 26.832 86.4364 26.832C85.7751 26.832 85.3004 26.944 85.0124 27.168C84.7244 27.3813 84.5591 27.7653 84.5164 28.32H82.9324C83.0498 26.4747 84.2178 25.552 86.4364 25.552C88.6124 25.552 89.7004 26.3627 89.7004 27.984V32.352C89.7004 32.6293 89.8498 32.768 90.1484 32.768ZM85.7644 32.944C86.4471 32.944 87.0124 32.752 87.4604 32.368C87.9084 31.984 88.1324 31.44 88.1324 30.736V29.872C87.9298 30.0427 87.5884 30.1547 87.1084 30.208L85.9564 30.336C85.3378 30.4107 84.8951 30.56 84.6284 30.784C84.3618 30.9973 84.2284 31.3013 84.2284 31.696C84.2284 32.0907 84.3564 32.4 84.6124 32.624C84.8791 32.8373 85.2631 32.944 85.7644 32.944ZM98.4402 34.192C97.2669 34.192 96.3175 33.7973 95.5922 33.008C94.8669 32.2187 94.5042 31.1733 94.5042 29.872C94.5042 28.56 94.8669 27.5093 95.5922 26.72C96.3069 25.9413 97.2562 25.552 98.4402 25.552C99.4535 25.552 100.286 25.8293 100.936 26.384C101.598 26.9387 101.992 27.6853 102.12 28.624H100.488C100.382 28.08 100.142 27.664 99.7682 27.376C99.4055 27.088 98.9629 26.944 98.4402 26.944C97.7469 26.944 97.1922 27.2 96.7762 27.712C96.3709 28.2133 96.1682 28.9333 96.1682 29.872C96.1682 30.8107 96.3709 31.536 96.7762 32.048C97.1922 32.5493 97.7469 32.8 98.4402 32.8C98.9735 32.8 99.4269 32.6507 99.8002 32.352C100.174 32.0533 100.408 31.6213 100.504 31.056H102.136C102.008 32.016 101.608 32.7787 100.936 33.344C100.264 33.9093 99.4322 34.192 98.4402 34.192ZM110.076 33.008C109.318 33.7973 108.332 34.192 107.116 34.192C105.9 34.192 104.913 33.7973 104.156 33.008C103.398 32.2187 103.02 31.1733 103.02 29.872C103.02 28.56 103.398 27.5093 104.156 26.72C104.902 25.9413 105.889 25.552 107.116 25.552C108.342 25.552 109.329 25.9413 110.076 26.72C110.822 27.4987 111.196 28.5493 111.196 29.872C111.196 31.184 110.822 32.2293 110.076 33.008ZM105.34 32.032C105.777 32.5547 106.369 32.816 107.116 32.816C107.862 32.816 108.449 32.5547 108.876 32.032C109.313 31.5093 109.532 30.7893 109.532 29.872C109.532 28.9547 109.313 28.2347 108.876 27.712C108.449 27.1893 107.862 26.928 107.116 26.928C106.369 26.928 105.777 27.1893 105.34 27.712C104.902 28.2347 104.684 28.9547 104.684 29.872C104.684 30.7893 104.902 31.5093 105.34 32.032ZM121.631 25.552C122.527 25.552 123.226 25.8187 123.727 26.352C124.228 26.8747 124.479 27.5787 124.479 28.464V34H122.863V28.672C122.863 27.5307 122.335 26.96 121.279 26.96C120.714 26.96 120.25 27.1787 119.887 27.616C119.524 28.0427 119.343 28.6613 119.343 29.472V34H117.743V28.672C117.743 27.5307 117.21 26.96 116.143 26.96C115.578 26.96 115.114 27.1787 114.751 27.616C114.388 28.0533 114.207 28.672 114.207 29.472V34H112.607V25.744H114.143V26.976C114.708 26.0267 115.503 25.552 116.527 25.552C117.775 25.552 118.623 26.0693 119.071 27.104C119.658 26.0693 120.511 25.552 121.631 25.552ZM132.935 33.008C132.178 33.7973 131.191 34.192 129.975 34.192C128.759 34.192 127.773 33.7973 127.015 33.008C126.258 32.2187 125.879 31.1733 125.879 29.872C125.879 28.56 126.258 27.5093 127.015 26.72C127.762 25.9413 128.749 25.552 129.975 25.552C131.202 25.552 132.189 25.9413 132.935 26.72C133.682 27.4987 134.055 28.5493 134.055 29.872C134.055 31.184 133.682 32.2293 132.935 33.008ZM128.199 32.032C128.637 32.5547 129.229 32.816 129.975 32.816C130.722 32.816 131.309 32.5547 131.735 32.032C132.173 31.5093 132.391 30.7893 132.391 29.872C132.391 28.9547 132.173 28.2347 131.735 27.712C131.309 27.1893 130.722 26.928 129.975 26.928C129.229 26.928 128.637 27.1893 128.199 27.712C127.762 28.2347 127.543 28.9547 127.543 29.872C127.543 30.7893 127.762 31.5093 128.199 32.032ZM141.757 34.208C139.463 34.208 138.258 33.264 138.141 31.376H139.741C139.805 31.952 139.991 32.3573 140.301 32.592C140.61 32.8267 141.101 32.944 141.773 32.944C142.989 32.944 143.597 32.56 143.597 31.792C143.597 31.4613 143.469 31.2053 143.213 31.024C142.957 30.8427 142.498 30.6933 141.837 30.576L140.989 30.416C139.239 30.096 138.365 29.2747 138.365 27.952C138.365 27.216 138.647 26.6347 139.213 26.208C139.778 25.7707 140.557 25.552 141.549 25.552C143.821 25.552 144.983 26.4747 145.037 28.32H143.485C143.453 27.7653 143.282 27.376 142.973 27.152C142.663 26.9173 142.189 26.8 141.549 26.8C141.037 26.8 140.642 26.896 140.365 27.088C140.087 27.28 139.949 27.552 139.949 27.904C139.949 28.224 140.071 28.4747 140.317 28.656C140.562 28.8267 140.951 28.9653 141.485 29.072L142.349 29.216C143.362 29.408 144.093 29.696 144.541 30.08C144.989 30.464 145.213 30.9973 145.213 31.68C145.213 32.48 144.909 33.104 144.301 33.552C143.693 33.9893 142.845 34.208 141.757 34.208ZM153.86 29.936V30.4H147.636C147.71 31.2107 147.95 31.824 148.356 32.24C148.761 32.6453 149.31 32.848 150.004 32.848C151.049 32.848 151.732 32.3893 152.052 31.472H153.668C153.444 32.3147 153.006 32.9813 152.356 33.472C151.716 33.952 150.921 34.192 149.972 34.192C148.788 34.192 147.833 33.7973 147.108 33.008C146.382 32.2187 146.02 31.1733 146.02 29.872C146.02 28.5707 146.382 27.5253 147.108 26.736C147.833 25.9467 148.777 25.552 149.94 25.552C151.156 25.552 152.116 25.9627 152.82 26.784C153.513 27.6053 153.86 28.656 153.86 29.936ZM149.94 26.896C149.31 26.896 148.793 27.088 148.388 27.472C147.993 27.856 147.748 28.4107 147.652 29.136H152.212C152.137 28.464 151.897 27.9253 151.492 27.52C151.097 27.104 150.58 26.896 149.94 26.896ZM160.484 30.4V25.744H162.084V34H160.548V32.768C159.919 33.7173 159.055 34.192 157.956 34.192C157.049 34.192 156.34 33.936 155.828 33.424C155.316 32.912 155.06 32.1973 155.06 31.28V25.744H156.66V31.056C156.66 32.208 157.241 32.784 158.404 32.784C158.991 32.784 159.481 32.576 159.876 32.16C160.281 31.7333 160.484 31.1467 160.484 30.4ZM171.411 25.552C172.563 25.552 173.48 25.9413 174.163 26.72C174.845 27.4987 175.187 28.5493 175.187 29.872C175.187 31.184 174.845 32.2293 174.163 33.008C173.469 33.7973 172.552 34.192 171.411 34.192C170.195 34.192 169.277 33.712 168.659 32.752V34H167.123V22.608H168.723V26.896C169.341 26 170.237 25.552 171.411 25.552ZM169.347 32.032C169.773 32.5547 170.36 32.816 171.107 32.816C171.853 32.816 172.445 32.5493 172.883 32.016C173.309 31.4933 173.523 30.7573 173.523 29.808C173.523 28.8907 173.309 28.1813 172.883 27.68C172.456 27.1787 171.864 26.928 171.107 26.928C170.371 26.928 169.784 27.184 169.347 27.696C168.909 28.2293 168.691 28.9547 168.691 29.872C168.691 30.7893 168.909 31.5093 169.347 32.032ZM180.703 25.616C180.938 25.616 181.093 25.6213 181.167 25.632V27.152H180.767C179.946 27.152 179.311 27.3547 178.863 27.76C178.415 28.1653 178.191 28.752 178.191 29.52V34H176.591V25.744H178.127V27.216C178.65 26.1493 179.509 25.616 180.703 25.616ZM188.898 32.768H189.346V34C189.112 34.032 188.85 34.048 188.562 34.048C188.05 34.048 187.666 33.9573 187.41 33.776C187.165 33.584 187.016 33.2853 186.962 32.88C186.408 33.7547 185.512 34.192 184.274 34.192C183.368 34.192 182.648 33.9787 182.114 33.552C181.592 33.1147 181.33 32.512 181.33 31.744C181.33 30.2507 182.365 29.3973 184.434 29.184L185.65 29.056C186.077 29.0027 186.386 28.896 186.578 28.736C186.781 28.5653 186.882 28.3253 186.882 28.016C186.882 27.6 186.749 27.3013 186.482 27.12C186.226 26.928 185.794 26.832 185.186 26.832C184.525 26.832 184.05 26.944 183.762 27.168C183.474 27.3813 183.309 27.7653 183.266 28.32H181.682C181.8 26.4747 182.968 25.552 185.186 25.552C187.362 25.552 188.45 26.3627 188.45 27.984V32.352C188.45 32.6293 188.6 32.768 188.898 32.768ZM184.514 32.944C185.197 32.944 185.762 32.752 186.21 32.368C186.658 31.984 186.882 31.44 186.882 30.736V29.872C186.68 30.0427 186.338 30.1547 185.858 30.208L184.706 30.336C184.088 30.4107 183.645 30.56 183.378 30.784C183.112 30.9973 182.978 31.3013 182.978 31.696C182.978 32.0907 183.106 32.4 183.362 32.624C183.629 32.8373 184.013 32.944 184.514 32.944ZM195.942 31.056H197.574C197.467 31.888 197.152 32.576 196.63 33.12C196.107 33.664 195.44 34 194.63 34.128L193.974 34.88H194.134C194.592 34.88 194.96 34.9973 195.238 35.232C195.515 35.4773 195.654 35.7813 195.654 36.144C195.654 36.624 195.462 36.9973 195.078 37.264C194.704 37.5413 194.139 37.68 193.382 37.68C193.019 37.68 192.678 37.648 192.358 37.584V36.8C192.656 36.8427 192.966 36.864 193.286 36.864C193.958 36.864 194.294 36.6293 194.294 36.16C194.294 35.7333 193.99 35.52 193.382 35.52C193.179 35.52 193.03 35.5253 192.934 35.536V34.928L193.526 34.176C192.459 34.1013 191.595 33.6693 190.934 32.88C190.272 32.1013 189.942 31.0987 189.942 29.872C189.942 28.56 190.304 27.5093 191.03 26.72C191.744 25.9413 192.694 25.552 193.878 25.552C194.891 25.552 195.723 25.8293 196.374 26.384C197.035 26.9387 197.43 27.6853 197.558 28.624H195.926C195.819 28.08 195.579 27.664 195.206 27.376C194.843 27.088 194.4 26.944 193.878 26.944C193.184 26.944 192.63 27.2 192.214 27.712C191.808 28.2133 191.606 28.9333 191.606 29.872C191.606 30.8107 191.808 31.536 192.214 32.048C192.63 32.5493 193.184 32.8 193.878 32.8C194.411 32.8 194.864 32.6507 195.238 32.352C195.611 32.0533 195.846 31.6213 195.942 31.056ZM205.513 33.008C204.756 33.7973 203.769 34.192 202.553 34.192C201.337 34.192 200.351 33.7973 199.593 33.008C198.836 32.2187 198.457 31.1733 198.457 29.872C198.457 28.56 198.836 27.5093 199.593 26.72C200.34 25.9413 201.327 25.552 202.553 25.552C203.78 25.552 204.767 25.9413 205.513 26.72C206.26 27.4987 206.633 28.5493 206.633 29.872C206.633 31.184 206.26 32.2293 205.513 33.008ZM200.777 32.032C201.215 32.5547 201.807 32.816 202.553 32.816C203.3 32.816 203.887 32.5547 204.313 32.032C204.751 31.5093 204.969 30.7893 204.969 29.872C204.969 28.9547 204.751 28.2347 204.313 27.712C203.887 27.1893 203.3 26.928 202.553 26.928C201.807 26.928 201.215 27.1893 200.777 27.712C200.34 28.2347 200.121 28.9547 200.121 29.872C200.121 30.7893 200.34 31.5093 200.777 32.032ZM218.735 29.936V30.4H212.511C212.585 31.2107 212.825 31.824 213.231 32.24C213.636 32.6453 214.185 32.848 214.879 32.848C215.924 32.848 216.607 32.3893 216.927 31.472H218.543C218.319 32.3147 217.881 32.9813 217.231 33.472C216.591 33.952 215.796 34.192 214.847 34.192C213.663 34.192 212.708 33.7973 211.983 33.008C211.257 32.2187 210.895 31.1733 210.895 29.872C210.895 28.5707 211.257 27.5253 211.983 26.736C212.708 25.9467 213.652 25.552 214.815 25.552C216.031 25.552 216.991 25.9627 217.695 26.784C218.388 27.6053 218.735 28.656 218.735 29.936ZM214.815 26.896C214.185 26.896 213.668 27.088 213.263 27.472C212.868 27.856 212.623 28.4107 212.527 29.136H217.087C217.012 28.464 216.772 27.9253 216.367 27.52C215.972 27.104 215.455 26.896 214.815 26.896ZM223.163 34.208C220.87 34.208 219.664 33.264 219.547 31.376H221.147C221.211 31.952 221.398 32.3573 221.707 32.592C222.016 32.8267 222.507 32.944 223.179 32.944C224.395 32.944 225.003 32.56 225.003 31.792C225.003 31.4613 224.875 31.2053 224.619 31.024C224.363 30.8427 223.904 30.6933 223.243 30.576L222.395 30.416C220.646 30.096 219.771 29.2747 219.771 27.952C219.771 27.216 220.054 26.6347 220.619 26.208C221.184 25.7707 221.963 25.552 222.955 25.552C225.227 25.552 226.39 26.4747 226.443 28.32H224.891C224.859 27.7653 224.688 27.376 224.379 27.152C224.07 26.9173 223.595 26.8 222.955 26.8C222.443 26.8 222.048 26.896 221.771 27.088C221.494 27.28 221.355 27.552 221.355 27.904C221.355 28.224 221.478 28.4747 221.723 28.656C221.968 28.8267 222.358 28.9653 222.891 29.072L223.755 29.216C224.768 29.408 225.499 29.696 225.947 30.08C226.395 30.464 226.619 30.9973 226.619 31.68C226.619 32.48 226.315 33.104 225.707 33.552C225.099 33.9893 224.251 34.208 223.163 34.208ZM231.589 25.744V27.056H229.925V32.016C229.925 32.2613 229.995 32.4427 230.133 32.56C230.283 32.6667 230.528 32.72 230.869 32.72H231.589V34C231.237 34.032 230.912 34.048 230.613 34.048C229.835 34.048 229.259 33.8987 228.885 33.6C228.512 33.3013 228.325 32.8213 228.325 32.16V27.056H226.997V25.744H228.325V23.376H229.925V25.744H231.589ZM236.985 25.616C237.219 25.616 237.374 25.6213 237.449 25.632V27.152H237.049C236.227 27.152 235.593 27.3547 235.145 27.76C234.697 28.1653 234.473 28.752 234.473 29.52V34H232.873V25.744H234.409V27.216C234.931 26.1493 235.79 25.616 236.985 25.616ZM245.18 32.768H245.628V34C245.393 34.032 245.132 34.048 244.844 34.048C244.332 34.048 243.948 33.9573 243.692 33.776C243.446 33.584 243.297 33.2853 243.244 32.88C242.689 33.7547 241.793 34.192 240.556 34.192C239.649 34.192 238.929 33.9787 238.396 33.552C237.873 33.1147 237.612 32.512 237.612 31.744C237.612 30.2507 238.646 29.3973 240.716 29.184L241.932 29.056C242.358 29.0027 242.668 28.896 242.86 28.736C243.062 28.5653 243.164 28.3253 243.164 28.016C243.164 27.6 243.03 27.3013 242.764 27.12C242.508 26.928 242.076 26.832 241.468 26.832C240.806 26.832 240.332 26.944 240.044 27.168C239.756 27.3813 239.59 27.7653 239.548 28.32H237.964C238.081 26.4747 239.249 25.552 241.468 25.552C243.644 25.552 244.732 26.3627 244.732 27.984V32.352C244.732 32.6293 244.881 32.768 245.18 32.768ZM240.796 32.944C241.478 32.944 242.044 32.752 242.492 32.368C242.94 31.984 243.164 31.44 243.164 30.736V29.872C242.961 30.0427 242.62 30.1547 242.14 30.208L240.988 30.336C240.369 30.4107 239.926 30.56 239.66 30.784C239.393 30.9973 239.26 31.3013 239.26 31.696C239.26 32.0907 239.388 32.4 239.644 32.624C239.91 32.8373 240.294 32.944 240.796 32.944ZM250.324 25.744V27.056H248.66V32.016C248.66 32.2613 248.729 32.4427 248.868 32.56C249.017 32.6667 249.262 32.72 249.604 32.72H250.324V34C249.972 34.032 249.646 34.048 249.348 34.048C248.569 34.048 247.993 33.8987 247.62 33.6C247.246 33.3013 247.06 32.8213 247.06 32.16V27.056H245.732V25.744H247.06V23.376H248.66V25.744H250.324ZM255.755 22.272H257.755L255.739 24.576H254.363L255.755 22.272ZM258.907 29.936V30.4H252.683C252.757 31.2107 252.997 31.824 253.403 32.24C253.808 32.6453 254.357 32.848 255.051 32.848C256.096 32.848 256.779 32.3893 257.099 31.472H258.715C258.491 32.3147 258.053 32.9813 257.403 33.472C256.763 33.952 255.968 34.192 255.019 34.192C253.835 34.192 252.88 33.7973 252.155 33.008C251.429 32.2187 251.067 31.1733 251.067 29.872C251.067 28.5707 251.429 27.5253 252.155 26.736C252.88 25.9467 253.824 25.552 254.987 25.552C256.203 25.552 257.163 25.9627 257.867 26.784C258.56 27.6053 258.907 28.656 258.907 29.936ZM254.987 26.896C254.357 26.896 253.84 27.088 253.435 27.472C253.04 27.856 252.795 28.4107 252.699 29.136H257.259C257.184 28.464 256.944 27.9253 256.539 27.52C256.144 27.104 255.627 26.896 254.987 26.896ZM266.454 26.912V25.744H267.99V33.696C267.99 34.8267 267.648 35.712 266.966 36.352C266.283 37.0027 265.312 37.328 264.054 37.328C262.976 37.328 262.118 37.0827 261.478 36.592C260.848 36.1013 260.491 35.4293 260.406 34.576H262.006C262.134 35.5467 262.822 36.032 264.07 36.032C265.616 36.032 266.39 35.264 266.39 33.728V32.816C265.76 33.6693 264.875 34.096 263.734 34.096C262.582 34.096 261.664 33.7067 260.982 32.928C260.288 32.1387 259.942 31.104 259.942 29.824C259.942 28.544 260.288 27.5093 260.982 26.72C261.664 25.9413 262.576 25.552 263.718 25.552C264.923 25.552 265.835 26.0053 266.454 26.912ZM264.022 32.72C264.768 32.72 265.355 32.464 265.782 31.952C266.219 31.4293 266.438 30.72 266.438 29.824C266.438 28.928 266.219 28.224 265.782 27.712C265.355 27.1893 264.768 26.928 264.022 26.928C263.286 26.928 262.699 27.1893 262.262 27.712C261.824 28.2347 261.606 28.9387 261.606 29.824C261.606 30.72 261.824 31.4293 262.262 31.952C262.699 32.464 263.286 32.72 264.022 32.72ZM271.41 24.576H269.778V22.864H271.41V24.576ZM271.394 34H269.794V25.744H271.394V34ZM276.737 34.192C275.564 34.192 274.614 33.7973 273.889 33.008C273.164 32.2187 272.801 31.1733 272.801 29.872C272.801 28.56 273.164 27.5093 273.889 26.72C274.604 25.9413 275.553 25.552 276.737 25.552C277.75 25.552 278.582 25.8293 279.233 26.384C279.894 26.9387 280.289 27.6853 280.417 28.624H278.785C278.678 28.08 278.438 27.664 278.065 27.376C277.702 27.088 277.26 26.944 276.737 26.944C276.044 26.944 275.489 27.2 275.073 27.712C274.668 28.2133 274.465 28.9333 274.465 29.872C274.465 30.8107 274.668 31.536 275.073 32.048C275.489 32.5493 276.044 32.8 276.737 32.8C277.27 32.8 277.724 32.6507 278.097 32.352C278.47 32.0533 278.705 31.6213 278.801 31.056H280.433C280.305 32.016 279.905 32.7787 279.233 33.344C278.561 33.9093 277.729 34.192 276.737 34.192ZM288.373 33.008C287.615 33.7973 286.629 34.192 285.413 34.192C284.197 34.192 283.21 33.7973 282.453 33.008C281.695 32.2187 281.317 31.1733 281.317 29.872C281.317 28.56 281.695 27.5093 282.453 26.72C283.199 25.9413 284.186 25.552 285.413 25.552C286.639 25.552 287.626 25.9413 288.373 26.72C289.119 27.4987 289.493 28.5493 289.493 29.872C289.493 31.184 289.119 32.2293 288.373 33.008ZM283.637 32.032C284.074 32.5547 284.666 32.816 285.413 32.816C286.159 32.816 286.746 32.5547 287.173 32.032C287.61 31.5093 287.829 30.7893 287.829 29.872C287.829 28.9547 287.61 28.2347 287.173 27.712C286.746 27.1893 286.159 26.928 285.413 26.928C284.666 26.928 284.074 27.1893 283.637 27.712C283.199 28.2347 282.981 28.9547 282.981 29.872C282.981 30.7893 283.199 31.5093 283.637 32.032ZM290.133 34V32.096H292.069V34.16C292.069 35.5467 291.493 36.272 290.341 36.336L290.133 36.352V35.36L290.309 35.344C290.746 35.2907 290.965 34.928 290.965 34.256V34H290.133ZM8.08231 46.576H6.45031V44.864H8.08231V46.576ZM8.06631 56H6.46631V47.744H8.06631V56ZM13.9849 47.552C14.8916 47.552 15.6009 47.808 16.1129 48.32C16.6249 48.8213 16.8809 49.536 16.8809 50.464V56H15.2809V50.688C15.2809 49.536 14.6996 48.96 13.5369 48.96C13.0036 48.96 12.5236 49.1627 12.0969 49.568C11.6703 49.984 11.4569 50.576 11.4569 51.344V56H9.85694V47.744H11.3929V48.976C12.0223 48.0267 12.8863 47.552 13.9849 47.552ZM22.3082 47.744V49.056H20.6442V54.016C20.6442 54.2613 20.7135 54.4427 20.8522 54.56C21.0015 54.6667 21.2469 54.72 21.5882 54.72H22.3082V56C21.9562 56.032 21.6309 56.048 21.3322 56.048C20.5535 56.048 19.9775 55.8987 19.6042 55.6C19.2309 55.3013 19.0442 54.8213 19.0442 54.16V49.056H17.7162V47.744H19.0442V45.376H20.6442V47.744H22.3082ZM30.8911 51.936V52.4H24.6671C24.7417 53.2107 24.9817 53.824 25.3871 54.24C25.7924 54.6453 26.3417 54.848 27.0351 54.848C28.0804 54.848 28.7631 54.3893 29.0831 53.472H30.6991C30.4751 54.3147 30.0377 54.9813 29.3871 55.472C28.7471 55.952 27.9524 56.192 27.0031 56.192C25.8191 56.192 24.8644 55.7973 24.1391 55.008C23.4137 54.2187 23.0511 53.1733 23.0511 51.872C23.0511 50.5707 23.4137 49.5253 24.1391 48.736C24.8644 47.9467 25.8084 47.552 26.9711 47.552C28.1871 47.552 29.1471 47.9627 29.8511 48.784C30.5444 49.6053 30.8911 50.656 30.8911 51.936ZM26.9711 48.896C26.3417 48.896 25.8244 49.088 25.4191 49.472C25.0244 49.856 24.7791 50.4107 24.6831 51.136H29.2431C29.1684 50.464 28.9284 49.9253 28.5231 49.52C28.1284 49.104 27.6111 48.896 26.9711 48.896ZM38.4381 48.912V47.744H39.9741V55.696C39.9741 56.8267 39.6327 57.712 38.9501 58.352C38.2674 59.0027 37.2967 59.328 36.0381 59.328C34.9607 59.328 34.1021 59.0827 33.4621 58.592C32.8327 58.1013 32.4754 57.4293 32.3901 56.576H33.9901C34.1181 57.5467 34.8061 58.032 36.0541 58.032C37.6007 58.032 38.3741 57.264 38.3741 55.728V54.816C37.7447 55.6693 36.8594 56.096 35.7181 56.096C34.5661 56.096 33.6487 55.7067 32.9661 54.928C32.2727 54.1387 31.9261 53.104 31.9261 51.824C31.9261 50.544 32.2727 49.5093 32.9661 48.72C33.6487 47.9413 34.5607 47.552 35.7021 47.552C36.9074 47.552 37.8194 48.0053 38.4381 48.912ZM36.0061 54.72C36.7527 54.72 37.3394 54.464 37.7661 53.952C38.2034 53.4293 38.4221 52.72 38.4221 51.824C38.4221 50.928 38.2034 50.224 37.7661 49.712C37.3394 49.1893 36.7527 48.928 36.0061 48.928C35.2701 48.928 34.6834 49.1893 34.2461 49.712C33.8087 50.2347 33.5901 50.9387 33.5901 51.824C33.5901 52.72 33.8087 53.4293 34.2461 53.952C34.6834 54.464 35.2701 54.72 36.0061 54.72ZM45.8908 47.616C46.1255 47.616 46.2801 47.6213 46.3548 47.632V49.152H45.9548C45.1335 49.152 44.4988 49.3547 44.0508 49.76C43.6028 50.1653 43.3788 50.752 43.3788 51.52V56H41.7788V47.744H43.3148V49.216C43.8375 48.1493 44.6961 47.616 45.8908 47.616ZM54.0859 54.768H54.5339V56C54.2993 56.032 54.0379 56.048 53.7499 56.048C53.2379 56.048 52.8539 55.9573 52.5979 55.776C52.3526 55.584 52.2033 55.2853 52.1499 54.88C51.5953 55.7547 50.6993 56.192 49.4619 56.192C48.5553 56.192 47.8353 55.9787 47.3019 55.552C46.7793 55.1147 46.5179 54.512 46.5179 53.744C46.5179 52.2507 47.5526 51.3973 49.6219 51.184L50.8379 51.056C51.2646 51.0027 51.5739 50.896 51.7659 50.736C51.9686 50.5653 52.0699 50.3253 52.0699 50.016C52.0699 49.6 51.9366 49.3013 51.6699 49.12C51.4139 48.928 50.9819 48.832 50.3739 48.832C49.7126 48.832 49.2379 48.944 48.9499 49.168C48.6619 49.3813 48.4966 49.7653 48.4539 50.32H46.8699C46.9873 48.4747 48.1553 47.552 50.3739 47.552C52.5499 47.552 53.6379 48.3627 53.6379 49.984V54.352C53.6379 54.6293 53.7873 54.768 54.0859 54.768ZM49.7019 54.944C50.3846 54.944 50.9499 54.752 51.3979 54.368C51.8459 53.984 52.0699 53.44 52.0699 52.736V51.872C51.8673 52.0427 51.5259 52.1547 51.0459 52.208L49.8939 52.336C49.2753 52.4107 48.8326 52.56 48.5659 52.784C48.2993 52.9973 48.1659 53.3013 48.1659 53.696C48.1659 54.0907 48.2939 54.4 48.5499 54.624C48.8166 54.8373 49.2006 54.944 49.7019 54.944ZM59.7193 47.552C60.626 47.552 61.3353 47.808 61.8473 48.32C62.3593 48.8213 62.6153 49.536 62.6153 50.464V56H61.0153V50.688C61.0153 49.536 60.434 48.96 59.2713 48.96C58.738 48.96 58.258 49.1627 57.8313 49.568C57.4046 49.984 57.1913 50.576 57.1913 51.344V56H55.5913V47.744H57.1273V48.976C57.7566 48.0267 58.6206 47.552 59.7193 47.552ZM70.4834 48.864V44.608H72.0834V56H70.5474V54.784C69.9288 55.7227 69.0168 56.192 67.8114 56.192C66.6594 56.192 65.7421 55.8027 65.0594 55.024C64.3768 54.2453 64.0354 53.1947 64.0354 51.872C64.0354 50.5493 64.3768 49.4987 65.0594 48.72C65.7421 47.9413 66.6594 47.552 67.8114 47.552C68.9741 47.552 69.8648 47.9893 70.4834 48.864ZM65.6994 51.936C65.6994 52.8533 65.9181 53.5627 66.3554 54.064C66.7928 54.5653 67.3794 54.816 68.1154 54.816C68.8728 54.816 69.4648 54.5547 69.8914 54.032C70.3181 53.5307 70.5314 52.8107 70.5314 51.872C70.5314 50.944 70.3181 50.2187 69.8914 49.696C69.4648 49.184 68.8728 48.928 68.1154 48.928C67.3794 48.928 66.7928 49.1947 66.3554 49.728C65.9181 50.2613 65.6994 50.9973 65.6994 51.936ZM80.5602 55.008C79.8029 55.7973 78.8162 56.192 77.6002 56.192C76.3842 56.192 75.3975 55.7973 74.6402 55.008C73.8829 54.2187 73.5042 53.1733 73.5042 51.872C73.5042 50.56 73.8829 49.5093 74.6402 48.72C75.3869 47.9413 76.3735 47.552 77.6002 47.552C78.8269 47.552 79.8135 47.9413 80.5602 48.72C81.3069 49.4987 81.6802 50.5493 81.6802 51.872C81.6802 53.184 81.3069 54.2293 80.5602 55.008ZM75.8242 54.032C76.2615 54.5547 76.8535 54.816 77.6002 54.816C78.3469 54.816 78.9335 54.5547 79.3602 54.032C79.7975 53.5093 80.0162 52.7893 80.0162 51.872C80.0162 50.9547 79.7975 50.2347 79.3602 49.712C78.9335 49.1893 78.3469 48.928 77.6002 48.928C76.8535 48.928 76.2615 49.1893 75.8242 49.712C75.3869 50.2347 75.1682 50.9547 75.1682 51.872C75.1682 52.7893 75.3869 53.5093 75.8242 54.032ZM95.3497 47.552C96.2457 47.552 96.9444 47.8187 97.4457 48.352C97.947 48.8747 98.1977 49.5787 98.1977 50.464V56H96.5817V50.672C96.5817 49.5307 96.0537 48.96 94.9977 48.96C94.4324 48.96 93.9684 49.1787 93.6057 49.616C93.243 50.0427 93.0617 50.6613 93.0617 51.472V56H91.4617V50.672C91.4617 49.5307 90.9284 48.96 89.8617 48.96C89.2964 48.96 88.8324 49.1787 88.4697 49.616C88.107 50.0533 87.9257 50.672 87.9257 51.472V56H86.3257V47.744H87.8617V48.976C88.427 48.0267 89.2217 47.552 90.2457 47.552C91.4937 47.552 92.3417 48.0693 92.7897 49.104C93.3764 48.0693 94.2297 47.552 95.3497 47.552ZM107.086 54.768H107.534V56C107.299 56.032 107.038 56.048 106.75 56.048C106.238 56.048 105.854 55.9573 105.598 55.776C105.353 55.584 105.203 55.2853 105.15 54.88C104.595 55.7547 103.699 56.192 102.462 56.192C101.555 56.192 100.835 55.9787 100.302 55.552C99.7793 55.1147 99.5179 54.512 99.5179 53.744C99.5179 52.2507 100.553 51.3973 102.622 51.184L103.838 51.056C104.265 51.0027 104.574 50.896 104.766 50.736C104.969 50.5653 105.07 50.3253 105.07 50.016C105.07 49.6 104.937 49.3013 104.67 49.12C104.414 48.928 103.982 48.832 103.374 48.832C102.713 48.832 102.238 48.944 101.95 49.168C101.662 49.3813 101.497 49.7653 101.454 50.32H99.8699C99.9873 48.4747 101.155 47.552 103.374 47.552C105.55 47.552 106.638 48.3627 106.638 49.984V54.352C106.638 54.6293 106.787 54.768 107.086 54.768ZM102.702 54.944C103.385 54.944 103.95 54.752 104.398 54.368C104.846 53.984 105.07 53.44 105.07 52.736V51.872C104.867 52.0427 104.526 52.1547 104.046 52.208L102.894 52.336C102.275 52.4107 101.833 52.56 101.566 52.784C101.299 52.9973 101.166 53.3013 101.166 53.696C101.166 54.0907 101.294 54.4 101.55 54.624C101.817 54.8373 102.201 54.944 102.702 54.944ZM112.703 47.616C112.938 47.616 113.093 47.6213 113.167 47.632V49.152H112.767C111.946 49.152 111.311 49.3547 110.863 49.76C110.415 50.1653 110.191 50.752 110.191 51.52V56H108.591V47.744H110.127V49.216C110.65 48.1493 111.509 47.616 112.703 47.616ZM121.75 56H119.91L117.286 51.824L115.91 53.168V56H114.326V44.608H115.91V51.328L119.542 47.744H121.542L118.422 50.784L121.75 56ZM129.579 51.936V52.4H123.355C123.429 53.2107 123.669 53.824 124.075 54.24C124.48 54.6453 125.029 54.848 125.723 54.848C126.768 54.848 127.451 54.3893 127.771 53.472H129.387C129.163 54.3147 128.725 54.9813 128.075 55.472C127.435 55.952 126.64 56.192 125.691 56.192C124.507 56.192 123.552 55.7973 122.827 55.008C122.101 54.2187 121.739 53.1733 121.739 51.872C121.739 50.5707 122.101 49.5253 122.827 48.736C123.552 47.9467 124.496 47.552 125.659 47.552C126.875 47.552 127.835 47.9627 128.539 48.784C129.232 49.6053 129.579 50.656 129.579 51.936ZM125.659 48.896C125.029 48.896 124.512 49.088 124.107 49.472C123.712 49.856 123.467 50.4107 123.371 51.136H127.931C127.856 50.464 127.616 49.9253 127.211 49.52C126.816 49.104 126.299 48.896 125.659 48.896ZM134.464 47.744V49.056H132.8V54.016C132.8 54.2613 132.87 54.4427 133.008 54.56C133.158 54.6667 133.403 54.72 133.744 54.72H134.464V56C134.112 56.032 133.787 56.048 133.488 56.048C132.71 56.048 132.134 55.8987 131.76 55.6C131.387 55.3013 131.2 54.8213 131.2 54.16V49.056H129.872V47.744H131.2V45.376H132.8V47.744H134.464ZM137.364 46.576H135.732V44.864H137.364V46.576ZM137.348 56H135.748V47.744H137.348V56ZM143.266 47.552C144.173 47.552 144.882 47.808 145.394 48.32C145.906 48.8213 146.162 49.536 146.162 50.464V56H144.562V50.688C144.562 49.536 143.981 48.96 142.818 48.96C142.285 48.96 141.805 49.1627 141.378 49.568C140.952 49.984 140.738 50.576 140.738 51.344V56H139.138V47.744H140.674V48.976C141.304 48.0267 142.168 47.552 143.266 47.552ZM154.094 48.912V47.744H155.63V55.696C155.63 56.8267 155.289 57.712 154.606 58.352C153.924 59.0027 152.953 59.328 151.694 59.328C150.617 59.328 149.758 59.0827 149.118 58.592C148.489 58.1013 148.132 57.4293 148.046 56.576H149.646C149.774 57.5467 150.462 58.032 151.71 58.032C153.257 58.032 154.03 57.264 154.03 55.728V54.816C153.401 55.6693 152.516 56.096 151.374 56.096C150.222 56.096 149.305 55.7067 148.622 54.928C147.929 54.1387 147.582 53.104 147.582 51.824C147.582 50.544 147.929 49.5093 148.622 48.72C149.305 47.9413 150.217 47.552 151.358 47.552C152.564 47.552 153.476 48.0053 154.094 48.912ZM151.662 54.72C152.409 54.72 152.996 54.464 153.422 53.952C153.86 53.4293 154.078 52.72 154.078 51.824C154.078 50.928 153.86 50.224 153.422 49.712C152.996 49.1893 152.409 48.928 151.662 48.928C150.926 48.928 150.34 49.1893 149.902 49.712C149.465 50.2347 149.246 50.9387 149.246 51.824C149.246 52.72 149.465 53.4293 149.902 53.952C150.34 54.464 150.926 54.72 151.662 54.72ZM157.211 56V54.096H159.147V56.16C159.147 57.5467 158.571 58.272 157.419 58.336L157.211 58.352V57.36L157.387 57.344C157.824 57.2907 158.043 56.928 158.043 56.256V56H157.211ZM168.415 50.768L169.519 47.744H171.215L168.047 56H166.271L163.119 47.744H164.847L165.967 50.768C166.724 53.0187 167.129 54.2453 167.183 54.448C167.215 54.3413 167.284 54.128 167.391 53.808C167.497 53.488 167.647 53.0507 167.839 52.496C168.031 51.9307 168.223 51.3547 168.415 50.768ZM179.172 51.936V52.4H172.948C173.023 53.2107 173.263 53.824 173.668 54.24C174.074 54.6453 174.623 54.848 175.316 54.848C176.362 54.848 177.044 54.3893 177.364 53.472H178.98C178.756 54.3147 178.319 54.9813 177.668 55.472C177.028 55.952 176.234 56.192 175.284 56.192C174.1 56.192 173.146 55.7973 172.42 55.008C171.695 54.2187 171.332 53.1733 171.332 51.872C171.332 50.5707 171.695 49.5253 172.42 48.736C173.146 47.9467 174.09 47.552 175.252 47.552C176.468 47.552 177.428 47.9627 178.132 48.784C178.826 49.6053 179.172 50.656 179.172 51.936ZM175.252 48.896C174.623 48.896 174.106 49.088 173.7 49.472C173.306 49.856 173.06 50.4107 172.964 51.136H177.524C177.45 50.464 177.21 49.9253 176.804 49.52C176.41 49.104 175.892 48.896 175.252 48.896ZM184.719 47.552C185.626 47.552 186.335 47.808 186.847 48.32C187.359 48.8213 187.615 49.536 187.615 50.464V56H186.015V50.688C186.015 49.536 185.434 48.96 184.271 48.96C183.738 48.96 183.258 49.1627 182.831 49.568C182.405 49.984 182.191 50.576 182.191 51.344V56H180.591V47.744H182.127V48.976C182.757 48.0267 183.621 47.552 184.719 47.552ZM195.483 48.864V44.608H197.083V56H195.547V54.784C194.929 55.7227 194.017 56.192 192.811 56.192C191.659 56.192 190.742 55.8027 190.059 55.024C189.377 54.2453 189.035 53.1947 189.035 51.872C189.035 50.5493 189.377 49.4987 190.059 48.72C190.742 47.9413 191.659 47.552 192.811 47.552C193.974 47.552 194.865 47.9893 195.483 48.864ZM190.699 51.936C190.699 52.8533 190.918 53.5627 191.355 54.064C191.793 54.5653 192.379 54.816 193.115 54.816C193.873 54.816 194.465 54.5547 194.891 54.032C195.318 53.5307 195.531 52.8107 195.531 51.872C195.531 50.944 195.318 50.2187 194.891 49.696C194.465 49.184 193.873 48.928 193.115 48.928C192.379 48.928 191.793 49.1947 191.355 49.728C190.918 50.2613 190.699 50.9973 190.699 51.936ZM205.992 54.768H206.44V56C206.206 56.032 205.944 56.048 205.656 56.048C205.144 56.048 204.76 55.9573 204.504 55.776C204.259 55.584 204.11 55.2853 204.056 54.88C203.502 55.7547 202.606 56.192 201.368 56.192C200.462 56.192 199.742 55.9787 199.208 55.552C198.686 55.1147 198.424 54.512 198.424 53.744C198.424 52.2507 199.459 51.3973 201.528 51.184L202.744 51.056C203.171 51.0027 203.48 50.896 203.672 50.736C203.875 50.5653 203.976 50.3253 203.976 50.016C203.976 49.6 203.843 49.3013 203.576 49.12C203.32 48.928 202.888 48.832 202.28 48.832C201.619 48.832 201.144 48.944 200.856 49.168C200.568 49.3813 200.403 49.7653 200.36 50.32H198.776C198.894 48.4747 200.062 47.552 202.28 47.552C204.456 47.552 205.544 48.3627 205.544 49.984V54.352C205.544 54.6293 205.694 54.768 205.992 54.768ZM201.608 54.944C202.291 54.944 202.856 54.752 203.304 54.368C203.752 53.984 203.976 53.44 203.976 52.736V51.872C203.774 52.0427 203.432 52.1547 202.952 52.208L201.8 52.336C201.182 52.4107 200.739 52.56 200.472 52.784C200.206 52.9973 200.072 53.3013 200.072 53.696C200.072 54.0907 200.2 54.4 200.456 54.624C200.723 54.8373 201.107 54.944 201.608 54.944ZM210.585 56.208C208.291 56.208 207.086 55.264 206.969 53.376H208.569C208.633 53.952 208.819 54.3573 209.129 54.592C209.438 54.8267 209.929 54.944 210.601 54.944C211.817 54.944 212.425 54.56 212.425 53.792C212.425 53.4613 212.297 53.2053 212.041 53.024C211.785 52.8427 211.326 52.6933 210.665 52.576L209.817 52.416C208.067 52.096 207.193 51.2747 207.193 49.952C207.193 49.216 207.475 48.6347 208.041 48.208C208.606 47.7707 209.385 47.552 210.377 47.552C212.649 47.552 213.811 48.4747 213.865 50.32H212.313C212.281 49.7653 212.11 49.376 211.801 49.152C211.491 48.9173 211.017 48.8 210.377 48.8C209.865 48.8 209.47 48.896 209.193 49.088C208.915 49.28 208.777 49.552 208.777 49.904C208.777 50.224 208.899 50.4747 209.145 50.656C209.39 50.8267 209.779 50.9653 210.313 51.072L211.177 51.216C212.19 51.408 212.921 51.696 213.369 52.08C213.817 52.464 214.041 52.9973 214.041 53.68C214.041 54.48 213.737 55.104 213.129 55.552C212.521 55.9893 211.673 56.208 210.585 56.208ZM225.922 51.936V52.4H219.698C219.773 53.2107 220.013 53.824 220.418 54.24C220.824 54.6453 221.373 54.848 222.066 54.848C223.112 54.848 223.794 54.3893 224.114 53.472H225.73C225.506 54.3147 225.069 54.9813 224.418 55.472C223.778 55.952 222.984 56.192 222.034 56.192C220.85 56.192 219.896 55.7973 219.17 55.008C218.445 54.2187 218.082 53.1733 218.082 51.872C218.082 50.5707 218.445 49.5253 219.17 48.736C219.896 47.9467 220.84 47.552 222.002 47.552C223.218 47.552 224.178 47.9627 224.882 48.784C225.576 49.6053 225.922 50.656 225.922 51.936ZM222.002 48.896C221.373 48.896 220.856 49.088 220.45 49.472C220.056 49.856 219.81 50.4107 219.714 51.136H224.274C224.2 50.464 223.96 49.9253 223.554 49.52C223.16 49.104 222.642 48.896 222.002 48.896ZM231.232 47.744V46.992C231.232 45.3707 232.058 44.56 233.712 44.56C233.872 44.56 234.176 44.576 234.624 44.608V45.904H233.904C233.189 45.904 232.832 46.2667 232.832 46.992V47.744H234.56V49.056H232.832V56H231.232V49.056H229.904V47.744H231.232ZM235.76 46.576V44.864H237.392V46.576H235.76ZM237.376 56H235.776V47.744H237.376V56ZM243.313 47.552C244.22 47.552 244.929 47.808 245.441 48.32C245.953 48.8213 246.209 49.536 246.209 50.464V56H244.609V50.688C244.609 49.536 244.028 48.96 242.865 48.96C242.332 48.96 241.852 49.1627 241.425 49.568C240.998 49.984 240.785 50.576 240.785 51.344V56H239.185V47.744H240.721V48.976C241.35 48.0267 242.214 47.552 243.313 47.552ZM255.117 54.768H255.565V56C255.331 56.032 255.069 56.048 254.781 56.048C254.269 56.048 253.885 55.9573 253.629 55.776C253.384 55.584 253.235 55.2853 253.181 54.88C252.627 55.7547 251.731 56.192 250.493 56.192C249.587 56.192 248.867 55.9787 248.333 55.552C247.811 55.1147 247.549 54.512 247.549 53.744C247.549 52.2507 248.584 51.3973 250.653 51.184L251.869 51.056C252.296 51.0027 252.605 50.896 252.797 50.736C253 50.5653 253.101 50.3253 253.101 50.016C253.101 49.6 252.968 49.3013 252.701 49.12C252.445 48.928 252.013 48.832 251.405 48.832C250.744 48.832 250.269 48.944 249.981 49.168C249.693 49.3813 249.528 49.7653 249.485 50.32H247.901C248.019 48.4747 249.187 47.552 251.405 47.552C253.581 47.552 254.669 48.3627 254.669 49.984V54.352C254.669 54.6293 254.819 54.768 255.117 54.768ZM250.733 54.944C251.416 54.944 251.981 54.752 252.429 54.368C252.877 53.984 253.101 53.44 253.101 52.736V51.872C252.899 52.0427 252.557 52.1547 252.077 52.208L250.925 52.336C250.307 52.4107 249.864 52.56 249.597 52.784C249.331 52.9973 249.197 53.3013 249.197 53.696C249.197 54.0907 249.325 54.4 249.581 54.624C249.848 54.8373 250.232 54.944 250.733 54.944ZM260.751 47.552C261.657 47.552 262.367 47.808 262.879 48.32C263.391 48.8213 263.647 49.536 263.647 50.464V56H262.047V50.688C262.047 49.536 261.465 48.96 260.303 48.96C259.769 48.96 259.289 49.1627 258.863 49.568C258.436 49.984 258.223 50.576 258.223 51.344V56H256.623V47.744H258.159V48.976C258.788 48.0267 259.652 47.552 260.751 47.552ZM271.067 53.056H272.699C272.592 53.888 272.277 54.576 271.755 55.12C271.232 55.664 270.565 56 269.755 56.128L269.099 56.88H269.259C269.717 56.88 270.085 56.9973 270.363 57.232C270.64 57.4773 270.779 57.7813 270.779 58.144C270.779 58.624 270.587 58.9973 270.203 59.264C269.829 59.5413 269.264 59.68 268.507 59.68C268.144 59.68 267.803 59.648 267.483 59.584V58.8C267.781 58.8427 268.091 58.864 268.411 58.864C269.083 58.864 269.419 58.6293 269.419 58.16C269.419 57.7333 269.115 57.52 268.507 57.52C268.304 57.52 268.155 57.5253 268.059 57.536V56.928L268.651 56.176C267.584 56.1013 266.72 55.6693 266.059 54.88C265.397 54.1013 265.067 53.0987 265.067 51.872C265.067 50.56 265.429 49.5093 266.155 48.72C266.869 47.9413 267.819 47.552 269.003 47.552C270.016 47.552 270.848 47.8293 271.499 48.384C272.16 48.9387 272.555 49.6853 272.683 50.624H271.051C270.944 50.08 270.704 49.664 270.331 49.376C269.968 49.088 269.525 48.944 269.003 48.944C268.309 48.944 267.755 49.2 267.339 49.712C266.933 50.2133 266.731 50.9333 266.731 51.872C266.731 52.8107 266.933 53.536 267.339 54.048C267.755 54.5493 268.309 54.8 269.003 54.8C269.536 54.8 269.989 54.6507 270.363 54.352C270.736 54.0533 270.971 53.6213 271.067 53.056ZM281.086 54.768H281.534V56C281.299 56.032 281.038 56.048 280.75 56.048C280.238 56.048 279.854 55.9573 279.598 55.776C279.353 55.584 279.203 55.2853 279.15 54.88C278.595 55.7547 277.699 56.192 276.462 56.192C275.555 56.192 274.835 55.9787 274.302 55.552C273.779 55.1147 273.518 54.512 273.518 53.744C273.518 52.2507 274.553 51.3973 276.622 51.184L277.838 51.056C278.265 51.0027 278.574 50.896 278.766 50.736C278.969 50.5653 279.07 50.3253 279.07 50.016C279.07 49.6 278.937 49.3013 278.67 49.12C278.414 48.928 277.982 48.832 277.374 48.832C276.713 48.832 276.238 48.944 275.95 49.168C275.662 49.3813 275.497 49.7653 275.454 50.32H273.87C273.987 48.4747 275.155 47.552 277.374 47.552C279.55 47.552 280.638 48.3627 280.638 49.984V54.352C280.638 54.6293 280.787 54.768 281.086 54.768ZM276.702 54.944C277.385 54.944 277.95 54.752 278.398 54.368C278.846 53.984 279.07 53.44 279.07 52.736V51.872C278.867 52.0427 278.526 52.1547 278.046 52.208L276.894 52.336C276.275 52.4107 275.833 52.56 275.566 52.784C275.299 52.9973 275.166 53.3013 275.166 53.696C275.166 54.0907 275.294 54.4 275.55 54.624C275.817 54.8373 276.201 54.944 276.702 54.944ZM285.679 56.208C283.385 56.208 282.18 55.264 282.063 53.376H283.663C283.727 53.952 283.913 54.3573 284.223 54.592C284.532 54.8267 285.023 54.944 285.695 54.944C286.911 54.944 287.519 54.56 287.519 53.792C287.519 53.4613 287.391 53.2053 287.135 53.024C286.879 52.8427 286.42 52.6933 285.759 52.576L284.911 52.416C283.161 52.096 282.287 51.2747 282.287 49.952C282.287 49.216 282.569 48.6347 283.135 48.208C283.7 47.7707 284.479 47.552 285.471 47.552C287.743 47.552 288.905 48.4747 288.959 50.32H287.407C287.375 49.7653 287.204 49.376 286.895 49.152C286.585 48.9173 286.111 48.8 285.471 48.8C284.959 48.8 284.564 48.896 284.287 49.088C284.009 49.28 283.871 49.552 283.871 49.904C283.871 50.224 283.993 50.4747 284.239 50.656C284.484 50.8267 284.873 50.9653 285.407 51.072L286.271 51.216C287.284 51.408 288.015 51.696 288.463 52.08C288.911 52.464 289.135 52.9973 289.135 53.68C289.135 54.48 288.831 55.104 288.223 55.552C287.615 55.9893 286.767 56.208 285.679 56.208ZM7.82463 69.552C8.97663 69.552 9.89396 69.9413 10.5766 70.72C11.2593 71.4987 11.6006 72.5493 11.6006 73.872C11.6006 75.184 11.2593 76.2293 10.5766 77.008C9.88329 77.7973 8.96596 78.192 7.82463 78.192C6.65129 78.192 5.75529 77.744 5.13663 76.848V81.136H3.53663V69.744H5.07263V70.992C5.69129 70.032 6.60863 69.552 7.82463 69.552ZM5.76063 76.032C6.18729 76.5547 6.77396 76.816 7.52063 76.816C8.26729 76.816 8.85929 76.5493 9.29663 76.016C9.72329 75.4933 9.93663 74.7573 9.93663 73.808C9.93663 72.8907 9.72329 72.1813 9.29663 71.68C8.86996 71.1787 8.27796 70.928 7.52063 70.928C6.78463 70.928 6.19796 71.184 5.76063 71.696C5.32329 72.2293 5.10463 72.9547 5.10463 73.872C5.10463 74.7893 5.32329 75.5093 5.76063 76.032ZM19.9844 76.768H20.4324V78C20.1977 78.032 19.9364 78.048 19.6484 78.048C19.1364 78.048 18.7524 77.9573 18.4964 77.776C18.251 77.584 18.1017 77.2853 18.0484 76.88C17.4937 77.7547 16.5977 78.192 15.3604 78.192C14.4537 78.192 13.7337 77.9787 13.2004 77.552C12.6777 77.1147 12.4164 76.512 12.4164 75.744C12.4164 74.2507 13.451 73.3973 15.5204 73.184L16.7364 73.056C17.163 73.0027 17.4724 72.896 17.6644 72.736C17.867 72.5653 17.9684 72.3253 17.9684 72.016C17.9684 71.6 17.835 71.3013 17.5684 71.12C17.3124 70.928 16.8804 70.832 16.2724 70.832C15.611 70.832 15.1364 70.944 14.8484 71.168C14.5604 71.3813 14.395 71.7653 14.3524 72.32H12.7684C12.8857 70.4747 14.0537 69.552 16.2724 69.552C18.4484 69.552 19.5364 70.3627 19.5364 71.984V76.352C19.5364 76.6293 19.6857 76.768 19.9844 76.768ZM15.6004 76.944C16.283 76.944 16.8484 76.752 17.2964 76.368C17.7444 75.984 17.9684 75.44 17.9684 74.736V73.872C17.7657 74.0427 17.4244 74.1547 16.9444 74.208L15.7924 74.336C15.1737 74.4107 14.731 74.56 14.4644 74.784C14.1977 74.9973 14.0644 75.3013 14.0644 75.696C14.0644 76.0907 14.1924 76.4 14.4484 76.624C14.715 76.8373 15.099 76.944 15.6004 76.944ZM25.6018 69.616C25.8364 69.616 25.9911 69.6213 26.0658 69.632V71.152H25.6658C24.8444 71.152 24.2098 71.3547 23.7618 71.76C23.3138 72.1653 23.0898 72.752 23.0898 73.52V78H21.4898V69.744H23.0258V71.216C23.5484 70.1493 24.4071 69.616 25.6018 69.616ZM33.7969 76.768H34.2449V78C34.0102 78.032 33.7489 78.048 33.4609 78.048C32.9489 78.048 32.5649 77.9573 32.3089 77.776C32.0635 77.584 31.9142 77.2853 31.8609 76.88C31.3062 77.7547 30.4102 78.192 29.1729 78.192C28.2662 78.192 27.5462 77.9787 27.0129 77.552C26.4902 77.1147 26.2289 76.512 26.2289 75.744C26.2289 74.2507 27.2635 73.3973 29.3329 73.184L30.5489 73.056C30.9755 73.0027 31.2849 72.896 31.4769 72.736C31.6795 72.5653 31.7809 72.3253 31.7809 72.016C31.7809 71.6 31.6475 71.3013 31.3809 71.12C31.1249 70.928 30.6929 70.832 30.0849 70.832C29.4235 70.832 28.9489 70.944 28.6609 71.168C28.3729 71.3813 28.2075 71.7653 28.1649 72.32H26.5809C26.6982 70.4747 27.8662 69.552 30.0849 69.552C32.2609 69.552 33.3489 70.3627 33.3489 71.984V76.352C33.3489 76.6293 33.4982 76.768 33.7969 76.768ZM29.4129 76.944C30.0955 76.944 30.6609 76.752 31.1089 76.368C31.5569 75.984 31.7809 75.44 31.7809 74.736V73.872C31.5782 74.0427 31.2369 74.1547 30.7569 74.208L29.6049 74.336C28.9862 74.4107 28.5435 74.56 28.2769 74.784C28.0102 74.9973 27.8769 75.3013 27.8769 75.696C27.8769 76.0907 28.0049 76.4 28.2609 76.624C28.5275 76.8373 28.9115 76.944 29.4129 76.944ZM44.6646 70.912V69.744H46.2006V77.696C46.2006 78.8267 45.8593 79.712 45.1766 80.352C44.494 81.0027 43.5233 81.328 42.2646 81.328C41.1873 81.328 40.3286 81.0827 39.6886 80.592C39.0593 80.1013 38.702 79.4293 38.6166 78.576H40.2166C40.3446 79.5467 41.0326 80.032 42.2806 80.032C43.8273 80.032 44.6006 79.264 44.6006 77.728V76.816C43.9713 77.6693 43.086 78.096 41.9446 78.096C40.7926 78.096 39.8753 77.7067 39.1926 76.928C38.4993 76.1387 38.1526 75.104 38.1526 73.824C38.1526 72.544 38.4993 71.5093 39.1926 70.72C39.8753 69.9413 40.7873 69.552 41.9286 69.552C43.134 69.552 44.046 70.0053 44.6646 70.912ZM42.2326 76.72C42.9793 76.72 43.566 76.464 43.9926 75.952C44.43 75.4293 44.6486 74.72 44.6486 73.824C44.6486 72.928 44.43 72.224 43.9926 71.712C43.566 71.1893 42.9793 70.928 42.2326 70.928C41.4966 70.928 40.91 71.1893 40.4726 71.712C40.0353 72.2347 39.8166 72.9387 39.8166 73.824C39.8166 74.72 40.0353 75.4293 40.4726 75.952C40.91 76.464 41.4966 76.72 42.2326 76.72ZM55.4614 73.936V74.4H49.2374C49.312 75.2107 49.552 75.824 49.9574 76.24C50.3627 76.6453 50.912 76.848 51.6054 76.848C52.6507 76.848 53.3334 76.3893 53.6534 75.472H55.2694C55.0454 76.3147 54.608 76.9813 53.9574 77.472C53.3174 77.952 52.5227 78.192 51.5734 78.192C50.3894 78.192 49.4347 77.7973 48.7094 77.008C47.984 76.2187 47.6214 75.1733 47.6214 73.872C47.6214 72.5707 47.984 71.5253 48.7094 70.736C49.4347 69.9467 50.3787 69.552 51.5414 69.552C52.7574 69.552 53.7174 69.9627 54.4214 70.784C55.1147 71.6053 55.4614 72.656 55.4614 73.936ZM51.5414 70.896C50.912 70.896 50.3947 71.088 49.9894 71.472C49.5947 71.856 49.3494 72.4107 49.2534 73.136H53.8134C53.7387 72.464 53.4987 71.9253 53.0934 71.52C52.6987 71.104 52.1814 70.896 51.5414 70.896ZM60.9924 69.616C61.227 69.616 61.3817 69.6213 61.4564 69.632V71.152H61.0564C60.235 71.152 59.6004 71.3547 59.1524 71.76C58.7044 72.1653 58.4804 72.752 58.4804 73.52V78H56.8804V69.744H58.4164V71.216C58.939 70.1493 59.7977 69.616 60.9924 69.616ZM69.1875 76.768H69.6355V78C69.4008 78.032 69.1395 78.048 68.8515 78.048C68.3395 78.048 67.9555 77.9573 67.6995 77.776C67.4542 77.584 67.3048 77.2853 67.2515 76.88C66.6968 77.7547 65.8008 78.192 64.5635 78.192C63.6568 78.192 62.9368 77.9787 62.4035 77.552C61.8808 77.1147 61.6195 76.512 61.6195 75.744C61.6195 74.2507 62.6542 73.3973 64.7235 73.184L65.9395 73.056C66.3662 73.0027 66.6755 72.896 66.8675 72.736C67.0702 72.5653 67.1715 72.3253 67.1715 72.016C67.1715 71.6 67.0382 71.3013 66.7715 71.12C66.5155 70.928 66.0835 70.832 65.4755 70.832C64.8142 70.832 64.3395 70.944 64.0515 71.168C63.7635 71.3813 63.5982 71.7653 63.5555 72.32H61.9715C62.0888 70.4747 63.2568 69.552 65.4755 69.552C67.6515 69.552 68.7395 70.3627 68.7395 71.984V76.352C68.7395 76.6293 68.8888 76.768 69.1875 76.768ZM64.8035 76.944C65.4862 76.944 66.0515 76.752 66.4995 76.368C66.9475 75.984 67.1715 75.44 67.1715 74.736V73.872C66.9688 74.0427 66.6275 74.1547 66.1475 74.208L64.9955 74.336C64.3768 74.4107 63.9342 74.56 63.6675 74.784C63.4008 74.9973 63.2675 75.3013 63.2675 75.696C63.2675 76.0907 63.3955 76.4 63.6515 76.624C63.9182 76.8373 64.3022 76.944 64.8035 76.944ZM74.8049 69.616C75.0395 69.616 75.1942 69.6213 75.2689 69.632V71.152H74.8689C74.0475 71.152 73.4129 71.3547 72.9649 71.76C72.5169 72.1653 72.2929 72.752 72.2929 73.52V78H70.6929V69.744H72.2289V71.216C72.7515 70.1493 73.6102 69.616 74.8049 69.616ZM83.3386 78.192C82.1653 78.192 81.216 77.7973 80.4906 77.008C79.7653 76.2187 79.4026 75.1733 79.4026 73.872C79.4026 72.56 79.7653 71.5093 80.4906 70.72C81.2053 69.9413 82.1546 69.552 83.3386 69.552C84.352 69.552 85.184 69.8293 85.8346 70.384C86.496 70.9387 86.8906 71.6853 87.0186 72.624H85.3866C85.28 72.08 85.04 71.664 84.6666 71.376C84.304 71.088 83.8613 70.944 83.3386 70.944C82.6453 70.944 82.0906 71.2 81.6746 71.712C81.2693 72.2133 81.0666 72.9333 81.0666 73.872C81.0666 74.8107 81.2693 75.536 81.6746 76.048C82.0906 76.5493 82.6453 76.8 83.3386 76.8C83.872 76.8 84.3253 76.6507 84.6986 76.352C85.072 76.0533 85.3066 75.6213 85.4026 75.056H87.0346C86.9066 76.016 86.5066 76.7787 85.8346 77.344C85.1626 77.9093 84.3306 78.192 83.3386 78.192ZM92.3986 69.616C92.6333 69.616 92.788 69.6213 92.8626 69.632V71.152H92.4626C91.6413 71.152 91.0066 71.3547 90.5586 71.76C90.1106 72.1653 89.8866 72.752 89.8866 73.52V78H88.2866V69.744H89.8226V71.216C90.3453 70.1493 91.204 69.616 92.3986 69.616ZM101.04 73.936V74.4H94.8155C94.8902 75.2107 95.1302 75.824 95.5355 76.24C95.9408 76.6453 96.4902 76.848 97.1835 76.848C98.2288 76.848 98.9115 76.3893 99.2315 75.472H100.848C100.624 76.3147 100.186 76.9813 99.5355 77.472C98.8955 77.952 98.1008 78.192 97.1515 78.192C95.9675 78.192 95.0128 77.7973 94.2875 77.008C93.5622 76.2187 93.1995 75.1733 93.1995 73.872C93.1995 72.5707 93.5622 71.5253 94.2875 70.736C95.0128 69.9467 95.9568 69.552 97.1195 69.552C98.3355 69.552 99.2955 69.9627 99.9995 70.784C100.693 71.6053 101.04 72.656 101.04 73.936ZM97.1195 70.896C96.4902 70.896 95.9728 71.088 95.5675 71.472C95.1728 71.856 94.9275 72.4107 94.8315 73.136H99.3915C99.3168 72.464 99.0768 71.9253 98.6715 71.52C98.2768 71.104 97.7595 70.896 97.1195 70.896ZM105.468 78.208C103.174 78.208 101.969 77.264 101.852 75.376H103.452C103.516 75.952 103.702 76.3573 104.012 76.592C104.321 76.8267 104.812 76.944 105.484 76.944C106.7 76.944 107.308 76.56 107.308 75.792C107.308 75.4613 107.18 75.2053 106.924 75.024C106.668 74.8427 106.209 74.6933 105.548 74.576L104.7 74.416C102.95 74.096 102.076 73.2747 102.076 71.952C102.076 71.216 102.358 70.6347 102.924 70.208C103.489 69.7707 104.268 69.552 105.26 69.552C107.532 69.552 108.694 70.4747 108.748 72.32H107.196C107.164 71.7653 106.993 71.376 106.684 71.152C106.374 70.9173 105.9 70.8 105.26 70.8C104.748 70.8 104.353 70.896 104.076 71.088C103.798 71.28 103.66 71.552 103.66 71.904C103.66 72.224 103.782 72.4747 104.028 72.656C104.273 72.8267 104.662 72.9653 105.196 73.072L106.06 73.216C107.073 73.408 107.804 73.696 108.252 74.08C108.7 74.464 108.924 74.9973 108.924 75.68C108.924 76.48 108.62 77.104 108.012 77.552C107.404 77.9893 106.556 78.208 105.468 78.208ZM113.667 78.192C112.493 78.192 111.544 77.7973 110.819 77.008C110.093 76.2187 109.731 75.1733 109.731 73.872C109.731 72.56 110.093 71.5093 110.819 70.72C111.533 69.9413 112.483 69.552 113.667 69.552C114.68 69.552 115.512 69.8293 116.163 70.384C116.824 70.9387 117.219 71.6853 117.347 72.624H115.715C115.608 72.08 115.368 71.664 114.995 71.376C114.632 71.088 114.189 70.944 113.667 70.944C112.973 70.944 112.419 71.2 112.003 71.712C111.597 72.2133 111.395 72.9333 111.395 73.872C111.395 74.8107 111.597 75.536 112.003 76.048C112.419 76.5493 112.973 76.8 113.667 76.8C114.2 76.8 114.653 76.6507 115.027 76.352C115.4 76.0533 115.635 75.6213 115.731 75.056H117.363C117.235 76.016 116.835 76.7787 116.163 77.344C115.491 77.9093 114.659 78.192 113.667 78.192ZM120.231 68.576H118.599V66.864H120.231V68.576ZM120.215 78H118.615V69.744H120.215V78ZM131.029 69.552C131.925 69.552 132.624 69.8187 133.125 70.352C133.627 70.8747 133.877 71.5787 133.877 72.464V78H132.261V72.672C132.261 71.5307 131.733 70.96 130.677 70.96C130.112 70.96 129.648 71.1787 129.285 71.616C128.923 72.0427 128.741 72.6613 128.741 73.472V78H127.141V72.672C127.141 71.5307 126.608 70.96 125.541 70.96C124.976 70.96 124.512 71.1787 124.149 71.616C123.787 72.0533 123.605 72.672 123.605 73.472V78H122.005V69.744H123.541V70.976C124.107 70.0267 124.901 69.552 125.925 69.552C127.173 69.552 128.021 70.0693 128.469 71.104C129.056 70.0693 129.909 69.552 131.029 69.552ZM143.118 73.936V74.4H136.894C136.968 75.2107 137.208 75.824 137.614 76.24C138.019 76.6453 138.568 76.848 139.262 76.848C140.307 76.848 140.99 76.3893 141.31 75.472H142.926C142.702 76.3147 142.264 76.9813 141.614 77.472C140.974 77.952 140.179 78.192 139.23 78.192C138.046 78.192 137.091 77.7973 136.366 77.008C135.64 76.2187 135.278 75.1733 135.278 73.872C135.278 72.5707 135.64 71.5253 136.366 70.736C137.091 69.9467 138.035 69.552 139.198 69.552C140.414 69.552 141.374 69.9627 142.078 70.784C142.771 71.6053 143.118 72.656 143.118 73.936ZM139.198 70.896C138.568 70.896 138.051 71.088 137.646 71.472C137.251 71.856 137.006 72.4107 136.91 73.136H141.47C141.395 72.464 141.155 71.9253 140.75 71.52C140.355 71.104 139.838 70.896 139.198 70.896ZM148.665 69.552C149.571 69.552 150.281 69.808 150.793 70.32C151.305 70.8213 151.561 71.536 151.561 72.464V78H149.961V72.688C149.961 71.536 149.379 70.96 148.217 70.96C147.683 70.96 147.203 71.1627 146.777 71.568C146.35 71.984 146.137 72.576 146.137 73.344V78H144.537V69.744H146.073V70.976C146.702 70.0267 147.566 69.552 148.665 69.552ZM156.988 69.744V71.056H155.324V76.016C155.324 76.2613 155.393 76.4427 155.532 76.56C155.681 76.6667 155.927 76.72 156.268 76.72H156.988V78C156.636 78.032 156.311 78.048 156.012 78.048C155.233 78.048 154.657 77.8987 154.284 77.6C153.911 77.3013 153.724 76.8213 153.724 76.16V71.056H152.396V69.744H153.724V67.376H155.324V69.744H156.988ZM164.787 77.008C164.029 77.7973 163.043 78.192 161.827 78.192C160.611 78.192 159.624 77.7973 158.867 77.008C158.109 76.2187 157.731 75.1733 157.731 73.872C157.731 72.56 158.109 71.5093 158.867 70.72C159.613 69.9413 160.6 69.552 161.827 69.552C163.053 69.552 164.04 69.9413 164.787 70.72C165.533 71.4987 165.907 72.5493 165.907 73.872C165.907 75.184 165.533 76.2293 164.787 77.008ZM160.051 76.032C160.488 76.5547 161.08 76.816 161.827 76.816C162.573 76.816 163.16 76.5547 163.587 76.032C164.024 75.5093 164.243 74.7893 164.243 73.872C164.243 72.9547 164.024 72.2347 163.587 71.712C163.16 71.1893 162.573 70.928 161.827 70.928C161.08 70.928 160.488 71.1893 160.051 71.712C159.613 72.2347 159.395 72.9547 159.395 73.872C159.395 74.7893 159.613 75.5093 160.051 76.032ZM174.664 69.616C174.899 69.616 175.054 69.6213 175.128 69.632V71.152H174.728C173.907 71.152 173.272 71.3547 172.824 71.76C172.376 72.1653 172.152 72.752 172.152 73.52V78H170.552V69.744H172.088V71.216C172.611 70.1493 173.47 69.616 174.664 69.616ZM183.305 73.936V74.4H177.081C177.156 75.2107 177.396 75.824 177.801 76.24C178.206 76.6453 178.756 76.848 179.449 76.848C180.494 76.848 181.177 76.3893 181.497 75.472H183.113C182.889 76.3147 182.452 76.9813 181.801 77.472C181.161 77.952 180.366 78.192 179.417 78.192C178.233 78.192 177.278 77.7973 176.553 77.008C175.828 76.2187 175.465 75.1733 175.465 73.872C175.465 72.5707 175.828 71.5253 176.553 70.736C177.278 69.9467 178.222 69.552 179.385 69.552C180.601 69.552 181.561 69.9627 182.265 70.784C182.958 71.6053 183.305 72.656 183.305 73.936ZM179.385 70.896C178.756 70.896 178.238 71.088 177.833 71.472C177.438 71.856 177.193 72.4107 177.097 73.136H181.657C181.582 72.464 181.342 71.9253 180.937 71.52C180.542 71.104 180.025 70.896 179.385 70.896ZM191.75 76.768H192.198V78C191.963 78.032 191.702 78.048 191.414 78.048C190.902 78.048 190.518 77.9573 190.262 77.776C190.017 77.584 189.867 77.2853 189.814 76.88C189.259 77.7547 188.363 78.192 187.126 78.192C186.219 78.192 185.499 77.9787 184.966 77.552C184.443 77.1147 184.182 76.512 184.182 75.744C184.182 74.2507 185.217 73.3973 187.286 73.184L188.502 73.056C188.929 73.0027 189.238 72.896 189.43 72.736C189.633 72.5653 189.734 72.3253 189.734 72.016C189.734 71.6 189.601 71.3013 189.334 71.12C189.078 70.928 188.646 70.832 188.038 70.832C187.377 70.832 186.902 70.944 186.614 71.168C186.326 71.3813 186.161 71.7653 186.118 72.32H184.534C184.651 70.4747 185.819 69.552 188.038 69.552C190.214 69.552 191.302 70.3627 191.302 71.984V76.352C191.302 76.6293 191.451 76.768 191.75 76.768ZM187.366 76.944C188.049 76.944 188.614 76.752 189.062 76.368C189.51 75.984 189.734 75.44 189.734 74.736V73.872C189.531 74.0427 189.19 74.1547 188.71 74.208L187.558 74.336C186.939 74.4107 186.497 74.56 186.23 74.784C185.963 74.9973 185.83 75.3013 185.83 75.696C185.83 76.0907 185.958 76.4 186.214 76.624C186.481 76.8373 186.865 76.944 187.366 76.944ZM194.793 78H193.193V66.608H194.793V78ZM207.274 73.936V74.4H201.05C201.125 75.2107 201.365 75.824 201.77 76.24C202.175 76.6453 202.725 76.848 203.418 76.848C204.463 76.848 205.146 76.3893 205.466 75.472H207.082C206.858 76.3147 206.421 76.9813 205.77 77.472C205.13 77.952 204.335 78.192 203.386 78.192C202.202 78.192 201.247 77.7973 200.522 77.008C199.797 76.2187 199.434 75.1733 199.434 73.872C199.434 72.5707 199.797 71.5253 200.522 70.736C201.247 69.9467 202.191 69.552 203.354 69.552C204.57 69.552 205.53 69.9627 206.234 70.784C206.927 71.6053 207.274 72.656 207.274 73.936ZM203.354 70.896C202.725 70.896 202.207 71.088 201.802 71.472C201.407 71.856 201.162 72.4107 201.066 73.136H205.626C205.551 72.464 205.311 71.9253 204.906 71.52C204.511 71.104 203.994 70.896 203.354 70.896ZM220.951 69.552C221.847 69.552 222.546 69.8187 223.047 70.352C223.549 70.8747 223.799 71.5787 223.799 72.464V78H222.183V72.672C222.183 71.5307 221.655 70.96 220.599 70.96C220.034 70.96 219.57 71.1787 219.207 71.616C218.845 72.0427 218.663 72.6613 218.663 73.472V78H217.063V72.672C217.063 71.5307 216.53 70.96 215.463 70.96C214.898 70.96 214.434 71.1787 214.071 71.616C213.709 72.0533 213.527 72.672 213.527 73.472V78H211.927V69.744H213.463V70.976C214.029 70.0267 214.823 69.552 215.847 69.552C217.095 69.552 217.943 70.0693 218.391 71.104C218.978 70.0693 219.831 69.552 220.951 69.552ZM233.04 73.936V74.4H226.816C226.89 75.2107 227.13 75.824 227.536 76.24C227.941 76.6453 228.49 76.848 229.184 76.848C230.229 76.848 230.912 76.3893 231.232 75.472H232.848C232.624 76.3147 232.186 76.9813 231.536 77.472C230.896 77.952 230.101 78.192 229.152 78.192C227.968 78.192 227.013 77.7973 226.288 77.008C225.562 76.2187 225.2 75.1733 225.2 73.872C225.2 72.5707 225.562 71.5253 226.288 70.736C227.013 69.9467 227.957 69.552 229.12 69.552C230.336 69.552 231.296 69.9627 232 70.784C232.693 71.6053 233.04 72.656 233.04 73.936ZM229.12 70.896C228.49 70.896 227.973 71.088 227.568 71.472C227.173 71.856 226.928 72.4107 226.832 73.136H231.392C231.317 72.464 231.077 71.9253 230.672 71.52C230.277 71.104 229.76 70.896 229.12 70.896ZM238.587 69.552C239.493 69.552 240.203 69.808 240.715 70.32C241.227 70.8213 241.483 71.536 241.483 72.464V78H239.883V72.688C239.883 71.536 239.301 70.96 238.139 70.96C237.605 70.96 237.125 71.1627 236.699 71.568C236.272 71.984 236.059 72.576 236.059 73.344V78H234.459V69.744H235.995V70.976C236.624 70.0267 237.488 69.552 238.587 69.552ZM246.343 78.208C244.049 78.208 242.844 77.264 242.727 75.376H244.327C244.391 75.952 244.577 76.3573 244.887 76.592C245.196 76.8267 245.687 76.944 246.359 76.944C247.575 76.944 248.183 76.56 248.183 75.792C248.183 75.4613 248.055 75.2053 247.799 75.024C247.543 74.8427 247.084 74.6933 246.423 74.576L245.575 74.416C243.825 74.096 242.951 73.2747 242.951 71.952C242.951 71.216 243.233 70.6347 243.799 70.208C244.364 69.7707 245.143 69.552 246.135 69.552C248.407 69.552 249.569 70.4747 249.623 72.32H248.071C248.039 71.7653 247.868 71.376 247.559 71.152C247.249 70.9173 246.775 70.8 246.135 70.8C245.623 70.8 245.228 70.896 244.951 71.088C244.673 71.28 244.535 71.552 244.535 71.904C244.535 72.224 244.657 72.4747 244.903 72.656C245.148 72.8267 245.537 72.9653 246.071 73.072L246.935 73.216C247.948 73.408 248.679 73.696 249.127 74.08C249.575 74.464 249.799 74.9973 249.799 75.68C249.799 76.48 249.495 77.104 248.887 77.552C248.279 77.9893 247.431 78.208 246.343 78.208ZM256.414 74.4V69.744H258.014V78H256.478V76.768C255.848 77.7173 254.984 78.192 253.886 78.192C252.979 78.192 252.27 77.936 251.758 77.424C251.246 76.912 250.99 76.1973 250.99 75.28V69.744H252.59V75.056C252.59 76.208 253.171 76.784 254.334 76.784C254.92 76.784 255.411 76.576 255.806 76.16C256.211 75.7333 256.414 75.1467 256.414 74.4ZM263.93 69.616C264.165 69.616 264.319 69.6213 264.394 69.632V71.152H263.994C263.173 71.152 262.538 71.3547 262.09 71.76C261.642 72.1653 261.418 72.752 261.418 73.52V78H259.818V69.744H261.354V71.216C261.877 70.1493 262.735 69.616 263.93 69.616ZM269.165 66.272H271.165L269.149 68.576H267.773L269.165 66.272ZM272.125 76.768H272.573V78C272.338 78.032 272.077 78.048 271.789 78.048C271.277 78.048 270.893 77.9573 270.637 77.776C270.392 77.584 270.242 77.2853 270.189 76.88C269.634 77.7547 268.738 78.192 267.501 78.192C266.594 78.192 265.874 77.9787 265.341 77.552C264.818 77.1147 264.557 76.512 264.557 75.744C264.557 74.2507 265.592 73.3973 267.661 73.184L268.877 73.056C269.304 73.0027 269.613 72.896 269.805 72.736C270.008 72.5653 270.109 72.3253 270.109 72.016C270.109 71.6 269.976 71.3013 269.709 71.12C269.453 70.928 269.021 70.832 268.413 70.832C267.752 70.832 267.277 70.944 266.989 71.168C266.701 71.3813 266.536 71.7653 266.493 72.32H264.909C265.026 70.4747 266.194 69.552 268.413 69.552C270.589 69.552 271.677 70.3627 271.677 71.984V76.352C271.677 76.6293 271.826 76.768 272.125 76.768ZM267.741 76.944C268.424 76.944 268.989 76.752 269.437 76.368C269.885 75.984 270.109 75.44 270.109 74.736V73.872C269.906 74.0427 269.565 74.1547 269.085 74.208L267.933 74.336C267.314 74.4107 266.872 74.56 266.605 74.784C266.338 74.9973 266.205 75.3013 266.205 75.696C266.205 76.0907 266.333 76.4 266.589 76.624C266.856 76.8373 267.24 76.944 267.741 76.944ZM277.688 72.768L278.792 69.744H280.488L277.32 78H275.544L272.392 69.744H274.12L275.24 72.768C275.997 75.0187 276.403 76.2453 276.456 76.448C276.488 76.3413 276.557 76.128 276.664 75.808C276.771 75.488 276.92 75.0507 277.112 74.496C277.304 73.9307 277.496 73.3547 277.688 72.768ZM288.446 73.936V74.4H282.222C282.296 75.2107 282.536 75.824 282.942 76.24C283.347 76.6453 283.896 76.848 284.59 76.848C285.635 76.848 286.318 76.3893 286.638 75.472H288.254C288.03 76.3147 287.592 76.9813 286.942 77.472C286.302 77.952 285.507 78.192 284.558 78.192C283.374 78.192 282.419 77.7973 281.694 77.008C280.968 76.2187 280.606 75.1733 280.606 73.872C280.606 72.5707 280.968 71.5253 281.694 70.736C282.419 69.9467 283.363 69.552 284.526 69.552C285.742 69.552 286.702 69.9627 287.406 70.784C288.099 71.6053 288.446 72.656 288.446 73.936ZM284.526 70.896C283.896 70.896 283.379 71.088 282.974 71.472C282.579 71.856 282.334 72.4107 282.238 73.136H286.798C286.723 72.464 286.483 71.9253 286.078 71.52C285.683 71.104 285.166 70.896 284.526 70.896ZM291.465 78H289.865V66.608H291.465V78ZM90.5981 91.552C91.7501 91.552 92.6674 91.9413 93.3501 92.72C94.0327 93.4987 94.3741 94.5493 94.3741 95.872C94.3741 97.184 94.0327 98.2293 93.3501 99.008C92.6567 99.7973 91.7394 100.192 90.5981 100.192C89.4247 100.192 88.5287 99.744 87.9101 98.848V103.136H86.3101V91.744H87.8461V92.992C88.4647 92.032 89.3821 91.552 90.5981 91.552ZM88.5341 98.032C88.9607 98.5547 89.5474 98.816 90.2941 98.816C91.0407 98.816 91.6327 98.5493 92.0701 98.016C92.4967 97.4933 92.7101 96.7573 92.7101 95.808C92.7101 94.8907 92.4967 94.1813 92.0701 93.68C91.6434 93.1787 91.0514 92.928 90.2941 92.928C89.5581 92.928 88.9714 93.184 88.5341 93.696C88.0967 94.2293 87.8781 94.9547 87.8781 95.872C87.8781 96.7893 88.0967 97.5093 88.5341 98.032ZM102.758 98.768H103.206V100C102.971 100.032 102.71 100.048 102.422 100.048C101.91 100.048 101.526 99.9573 101.27 99.776C101.024 99.584 100.875 99.2853 100.822 98.88C100.267 99.7547 99.3711 100.192 98.1338 100.192C97.2271 100.192 96.5071 99.9787 95.9738 99.552C95.4511 99.1147 95.1898 98.512 95.1898 97.744C95.1898 96.2507 96.2245 95.3973 98.2938 95.184L99.5098 95.056C99.9365 95.0027 100.246 94.896 100.438 94.736C100.64 94.5653 100.742 94.3253 100.742 94.016C100.742 93.6 100.608 93.3013 100.342 93.12C100.086 92.928 99.6538 92.832 99.0458 92.832C98.3845 92.832 97.9098 92.944 97.6218 93.168C97.3338 93.3813 97.1685 93.7653 97.1258 94.32H95.5418C95.6591 92.4747 96.8271 91.552 99.0458 91.552C101.222 91.552 102.31 92.3627 102.31 93.984V98.352C102.31 98.6293 102.459 98.768 102.758 98.768ZM98.3738 98.944C99.0565 98.944 99.6218 98.752 100.07 98.368C100.518 97.984 100.742 97.44 100.742 96.736V95.872C100.539 96.0427 100.198 96.1547 99.7178 96.208L98.5658 96.336C97.9471 96.4107 97.5045 96.56 97.2378 96.784C96.9711 96.9973 96.8378 97.3013 96.8378 97.696C96.8378 98.0907 96.9658 98.4 97.2218 98.624C97.4885 98.8373 97.8725 98.944 98.3738 98.944ZM108.375 91.616C108.61 91.616 108.765 91.6213 108.839 91.632V93.152H108.439C107.618 93.152 106.983 93.3547 106.535 93.76C106.087 94.1653 105.863 94.752 105.863 95.52V100H104.263V91.744H105.799V93.216C106.322 92.1493 107.181 91.616 108.375 91.616ZM116.57 98.768H117.018V100C116.784 100.032 116.522 100.048 116.234 100.048C115.722 100.048 115.338 99.9573 115.082 99.776C114.837 99.584 114.688 99.2853 114.634 98.88C114.08 99.7547 113.184 100.192 111.946 100.192C111.04 100.192 110.32 99.9787 109.786 99.552C109.264 99.1147 109.002 98.512 109.002 97.744C109.002 96.2507 110.037 95.3973 112.106 95.184L113.322 95.056C113.749 95.0027 114.058 94.896 114.25 94.736C114.453 94.5653 114.554 94.3253 114.554 94.016C114.554 93.6 114.421 93.3013 114.154 93.12C113.898 92.928 113.466 92.832 112.858 92.832C112.197 92.832 111.722 92.944 111.434 93.168C111.146 93.3813 110.981 93.7653 110.938 94.32H109.354C109.472 92.4747 110.64 91.552 112.858 91.552C115.034 91.552 116.122 92.3627 116.122 93.984V98.352C116.122 98.6293 116.272 98.768 116.57 98.768ZM112.186 98.944C112.869 98.944 113.434 98.752 113.882 98.368C114.33 97.984 114.554 97.44 114.554 96.736V95.872C114.352 96.0427 114.01 96.1547 113.53 96.208L112.378 96.336C111.76 96.4107 111.317 96.56 111.05 96.784C110.784 96.9973 110.65 97.3013 110.65 97.696C110.65 98.0907 110.778 98.4 111.034 98.624C111.301 98.8373 111.685 98.944 112.186 98.944ZM124.366 100.208C122.073 100.208 120.867 99.264 120.75 97.376H122.35C122.414 97.952 122.601 98.3573 122.91 98.592C123.219 98.8267 123.71 98.944 124.382 98.944C125.598 98.944 126.206 98.56 126.206 97.792C126.206 97.4613 126.078 97.2053 125.822 97.024C125.566 96.8427 125.107 96.6933 124.446 96.576L123.598 96.416C121.849 96.096 120.974 95.2747 120.974 93.952C120.974 93.216 121.257 92.6347 121.822 92.208C122.387 91.7707 123.166 91.552 124.158 91.552C126.43 91.552 127.593 92.4747 127.646 94.32H126.094C126.062 93.7653 125.891 93.376 125.582 93.152C125.273 92.9173 124.798 92.8 124.158 92.8C123.646 92.8 123.251 92.896 122.974 93.088C122.697 93.28 122.558 93.552 122.558 93.904C122.558 94.224 122.681 94.4747 122.926 94.656C123.171 94.8267 123.561 94.9653 124.094 95.072L124.958 95.216C125.971 95.408 126.702 95.696 127.15 96.08C127.598 96.464 127.822 96.9973 127.822 97.68C127.822 98.48 127.518 99.104 126.91 99.552C126.302 99.9893 125.454 100.208 124.366 100.208ZM136.469 95.936V96.4H130.245C130.32 97.2107 130.56 97.824 130.965 98.24C131.371 98.6453 131.92 98.848 132.613 98.848C133.659 98.848 134.341 98.3893 134.661 97.472H136.277C136.053 98.3147 135.616 98.9813 134.965 99.472C134.325 99.952 133.531 100.192 132.581 100.192C131.397 100.192 130.443 99.7973 129.717 99.008C128.992 98.2187 128.629 97.1733 128.629 95.872C128.629 94.5707 128.992 93.5253 129.717 92.736C130.443 91.9467 131.387 91.552 132.549 91.552C133.765 91.552 134.725 91.9627 135.429 92.784C136.123 93.6053 136.469 94.656 136.469 95.936ZM132.549 92.896C131.92 92.896 131.403 93.088 130.997 93.472C130.603 93.856 130.357 94.4107 130.261 95.136H134.821C134.747 94.464 134.507 93.9253 134.101 93.52C133.707 93.104 133.189 92.896 132.549 92.896ZM143.093 96.4V91.744H144.693V100H143.157V98.768C142.528 99.7173 141.664 100.192 140.565 100.192C139.659 100.192 138.949 99.936 138.437 99.424C137.925 98.912 137.669 98.1973 137.669 97.28V91.744H139.269V97.056C139.269 98.208 139.851 98.784 141.013 98.784C141.6 98.784 142.091 98.576 142.485 98.16C142.891 97.7333 143.093 97.1467 143.093 96.4ZM153.86 91.552C154.767 91.552 155.476 91.808 155.988 92.32C156.5 92.8213 156.756 93.536 156.756 94.464V100H155.156V94.688C155.156 93.536 154.575 92.96 153.412 92.96C152.879 92.96 152.399 93.1627 151.972 93.568C151.545 93.984 151.332 94.576 151.332 95.344V100H149.732V91.744H151.268V92.976C151.897 92.0267 152.761 91.552 153.86 91.552ZM166.016 95.936V96.4H159.792C159.867 97.2107 160.107 97.824 160.512 98.24C160.917 98.6453 161.467 98.848 162.16 98.848C163.205 98.848 163.888 98.3893 164.208 97.472H165.824C165.6 98.3147 165.163 98.9813 164.512 99.472C163.872 99.952 163.077 100.192 162.128 100.192C160.944 100.192 159.989 99.7973 159.264 99.008C158.539 98.2187 158.176 97.1733 158.176 95.872C158.176 94.5707 158.539 93.5253 159.264 92.736C159.989 91.9467 160.933 91.552 162.096 91.552C163.312 91.552 164.272 91.9627 164.976 92.784C165.669 93.6053 166.016 94.656 166.016 95.936ZM162.096 92.896C161.467 92.896 160.949 93.088 160.544 93.472C160.149 93.856 159.904 94.4107 159.808 95.136H164.368C164.293 94.464 164.053 93.9253 163.648 93.52C163.253 93.104 162.736 92.896 162.096 92.896ZM173.563 92.912V91.744H175.099V99.696C175.099 100.827 174.758 101.712 174.075 102.352C173.392 103.003 172.422 103.328 171.163 103.328C170.086 103.328 169.227 103.083 168.587 102.592C167.958 102.101 167.6 101.429 167.515 100.576H169.115C169.243 101.547 169.931 102.032 171.179 102.032C172.726 102.032 173.499 101.264 173.499 99.728V98.816C172.87 99.6693 171.984 100.096 170.843 100.096C169.691 100.096 168.774 99.7067 168.091 98.928C167.398 98.1387 167.051 97.104 167.051 95.824C167.051 94.544 167.398 93.5093 168.091 92.72C168.774 91.9413 169.686 91.552 170.827 91.552C172.032 91.552 172.944 92.0053 173.563 92.912ZM171.131 98.72C171.878 98.72 172.464 98.464 172.891 97.952C173.328 97.4293 173.547 96.72 173.547 95.824C173.547 94.928 173.328 94.224 172.891 93.712C172.464 93.1893 171.878 92.928 171.131 92.928C170.395 92.928 169.808 93.1893 169.371 93.712C168.934 94.2347 168.715 94.9387 168.715 95.824C168.715 96.72 168.934 97.4293 169.371 97.952C169.808 98.464 170.395 98.72 171.131 98.72ZM181.352 90.576H179.976L181.368 88.272H183.368L181.352 90.576ZM183.576 99.008C182.818 99.7973 181.832 100.192 180.616 100.192C179.4 100.192 178.413 99.7973 177.656 99.008C176.898 98.2187 176.52 97.1733 176.52 95.872C176.52 94.56 176.898 93.5093 177.656 92.72C178.402 91.9413 179.389 91.552 180.616 91.552C181.842 91.552 182.829 91.9413 183.576 92.72C184.322 93.4987 184.696 94.5493 184.696 95.872C184.696 97.184 184.322 98.2293 183.576 99.008ZM178.84 98.032C179.277 98.5547 179.869 98.816 180.616 98.816C181.362 98.816 181.949 98.5547 182.376 98.032C182.813 97.5093 183.032 96.7893 183.032 95.872C183.032 94.9547 182.813 94.2347 182.376 93.712C181.949 93.1893 181.362 92.928 180.616 92.928C179.869 92.928 179.277 93.1893 178.84 93.712C178.402 94.2347 178.184 94.9547 178.184 95.872C178.184 96.7893 178.402 97.5093 178.84 98.032ZM189.659 100.192C188.486 100.192 187.536 99.7973 186.811 99.008C186.086 98.2187 185.723 97.1733 185.723 95.872C185.723 94.56 186.086 93.5093 186.811 92.72C187.526 91.9413 188.475 91.552 189.659 91.552C190.672 91.552 191.504 91.8293 192.155 92.384C192.816 92.9387 193.211 93.6853 193.339 94.624H191.707C191.6 94.08 191.36 93.664 190.987 93.376C190.624 93.088 190.182 92.944 189.659 92.944C188.966 92.944 188.411 93.2 187.995 93.712C187.59 94.2133 187.387 94.9333 187.387 95.872C187.387 96.8107 187.59 97.536 187.995 98.048C188.411 98.5493 188.966 98.8 189.659 98.8C190.192 98.8 190.646 98.6507 191.019 98.352C191.392 98.0533 191.627 97.6213 191.723 97.056H193.355C193.227 98.016 192.827 98.7787 192.155 99.344C191.483 99.9093 190.651 100.192 189.659 100.192ZM196.223 90.576H194.591V88.864H196.223V90.576ZM196.207 100H194.607V91.744H196.207V100ZM204.67 99.008C203.912 99.7973 202.926 100.192 201.71 100.192C200.494 100.192 199.507 99.7973 198.75 99.008C197.992 98.2187 197.614 97.1733 197.614 95.872C197.614 94.56 197.992 93.5093 198.75 92.72C199.496 91.9413 200.483 91.552 201.71 91.552C202.936 91.552 203.923 91.9413 204.67 92.72C205.416 93.4987 205.79 94.5493 205.79 95.872C205.79 97.184 205.416 98.2293 204.67 99.008ZM199.934 98.032C200.371 98.5547 200.963 98.816 201.71 98.816C202.456 98.816 203.043 98.5547 203.47 98.032C203.907 97.5093 204.126 96.7893 204.126 95.872C204.126 94.9547 203.907 94.2347 203.47 93.712C203.043 93.1893 202.456 92.928 201.71 92.928C200.963 92.928 200.371 93.1893 199.934 93.712C199.496 94.2347 199.278 94.9547 199.278 95.872C199.278 96.7893 199.496 97.5093 199.934 98.032ZM208.417 96.8H207.441L207.105 91.648V88.608H208.801V91.648L208.417 96.8ZM208.913 100H206.977V98.096H208.913V100Z" fill="#6064C9"/>
</svg>
