<svg width="553" height="133" viewBox="0 0 553 133" fill="none" xmlns="http://www.w3.org/2000/svg">
<path d="M19.76 36.12C8.28 36.12 0.72 29.04 0.72 18.2C0.72 7.36 8.28 0.279999 19.76 0.279999C28.2 0.279999 36.92 4 37.84 15.84H26.32C25.56 12.36 23.2 10.72 19.76 10.72C15.88 10.72 12.72 13.56 12.72 18.2C12.72 22.8 15.88 25.68 19.76 25.68C23.2 25.68 25.56 24.04 26.32 20.48H37.84C36.92 32.4 28.32 36.12 19.76 36.12ZM59.0138 36.12C47.2938 36.12 39.8138 29.04 39.8138 18.2C39.8138 7.36 47.2938 0.279999 59.0138 0.279999C70.7738 0.279999 78.2537 7.36 78.2537 18.2C78.2537 29.04 70.7738 36.12 59.0138 36.12ZM59.0138 25.68C62.8938 25.68 66.2137 23.08 66.2137 18.2C66.2137 13.32 62.8938 10.72 59.0138 10.72C55.1738 10.72 51.8138 13.32 51.8138 18.2C51.8138 23.08 55.1738 25.68 59.0138 25.68ZM80.3044 35V1.4H95.5044L100.024 19.08H100.904L105.424 1.4H120.624V35H109.104V21.88H108.184L104.904 35H96.0244L92.7444 21.88H91.8244V35H80.3044ZM141.842 36.12C130.122 36.12 122.642 29.04 122.642 18.2C122.642 7.36 130.122 0.279999 141.842 0.279999C153.602 0.279999 161.082 7.36 161.082 18.2C161.082 29.04 153.602 36.12 141.842 36.12ZM141.842 25.68C145.722 25.68 149.042 23.08 149.042 18.2C149.042 13.32 145.722 10.72 141.842 10.72C138.002 10.72 134.642 13.32 134.642 18.2C134.642 23.08 138.002 25.68 141.842 25.68ZM173.632 35V1.4H204.553V11.04H185.713V14.32H203.833V22.08H185.713V25.32H204.553V35H173.632ZM207.195 35V1.4H221.035L230.715 18.08H231.835V1.4H243.635V35H230.075L220.075 18.32H218.995V35H207.195ZM281.962 1.4V11.48H270.042V35H257.922V11.48H246.042V1.4H281.962ZM320.151 35H308.271L304.031 26.76H296.431V35H284.351V1.4H304.111C313.551 1.4 318.911 5.32 318.911 14.52C318.911 18.92 316.991 22.12 314.311 24.12L320.151 35ZM296.431 11.44V17.76H303.231C305.631 17.76 306.791 16.56 306.791 14.6C306.791 12.64 305.631 11.44 303.231 11.44H296.431ZM322.226 35V1.4H353.146V11.04H334.306V14.32H352.426V22.08H334.306V25.32H353.146V35H322.226ZM391.927 16.16V35H385.687L385.527 30.84H385.407C383.047 33.88 378.927 36.12 373.087 36.12C362.727 36.12 354.767 29.04 354.767 18.2C354.767 7.36 362.287 0.279999 374.167 0.279999C382.327 0.279999 390.727 4.24 391.887 13.48H379.847C379.367 12.28 377.487 10.72 374.447 10.72C369.927 10.72 366.767 13.56 366.767 18.2C366.767 22.8 370.007 25.68 374.087 25.68C375.207 25.68 379.127 25.56 380.287 22.04H373.647V16.16H391.927ZM421.84 35L420.56 30.96H406.88L405.6 35H393.12L405.24 1.4H422.2L434.36 35H421.84ZM409.72 22.04H417.72L414.76 12.76H412.68L409.72 22.04ZM435.757 35V1.4H450.957L455.477 19.08H456.358L460.878 1.4H476.078V35H464.557V21.88H463.638L460.358 35H451.478L448.197 21.88H447.278V35H435.757ZM497.295 36.12C485.575 36.12 478.095 29.04 478.095 18.2C478.095 7.36 485.575 0.279999 497.295 0.279999C509.055 0.279999 516.535 7.36 516.535 18.2C516.535 29.04 509.055 36.12 497.295 36.12ZM497.295 25.68C501.175 25.68 504.495 23.08 504.495 18.2C504.495 13.32 501.175 10.72 497.295 10.72C493.455 10.72 490.095 13.32 490.095 18.2C490.095 23.08 493.455 25.68 497.295 25.68ZM534.758 36.12C522.718 36.08 517.238 32.48 517.598 23.48H528.438C528.518 25.48 530.198 26.64 534.758 26.72C538.678 26.76 540.358 25.72 540.358 24.52C540.358 23.88 540.198 22.76 537.158 22.36L532.758 21.68C526.438 20.68 518.358 20.24 518.358 11.2C518.358 4.44 523.758 0.279999 534.878 0.279999C544.798 0.279999 551.718 2.84 551.438 12.84H540.638C540.278 10.88 538.558 9.68 534.598 9.68C531.198 9.68 529.958 10.64 529.958 11.84C529.958 12.4 530.238 13.52 532.518 13.88L536.038 14.44C542.798 15.56 552.398 15.44 552.398 25.04C552.398 32.56 546.638 36.16 534.758 36.12Z" fill="#F8F8F8"/>
<path d="M1.32 83V49.4H16.52L21.04 67.08H21.92L26.44 49.4H41.64V83H30.12V69.88H29.2L25.92 83H17.04L13.76 69.88H12.84V83H1.32ZM71.7775 83L70.4975 78.96H56.8175L55.5375 83H43.0575L55.1775 49.4H72.1375L84.2975 83H71.7775ZM59.6575 70.04H67.6575L64.6975 60.76H62.6175L59.6575 70.04ZM85.695 83V49.4H97.775V83H85.695ZM116.774 84.12C104.734 84.08 99.2538 80.48 99.6137 71.48H110.454C110.534 73.48 112.214 74.64 116.774 74.72C120.694 74.76 122.374 73.72 122.374 72.52C122.374 71.88 122.214 70.76 119.174 70.36L114.774 69.68C108.454 68.68 100.374 68.24 100.374 59.2C100.374 52.44 105.774 48.28 116.894 48.28C126.814 48.28 133.734 50.84 133.454 60.84H122.654C122.294 58.88 120.574 57.68 116.614 57.68C113.214 57.68 111.974 58.64 111.974 59.84C111.974 60.4 112.254 61.52 114.534 61.88L118.054 62.44C124.814 63.56 134.414 63.44 134.414 73.04C134.414 80.56 128.654 84.16 116.774 84.12ZM182.62 83H170.74L166.5 74.76H158.9V83H146.82V49.4H166.58C176.02 49.4 181.38 53.32 181.38 62.52C181.38 66.92 179.46 70.12 176.78 72.12L182.62 83ZM158.9 59.44V65.76H165.7C168.1 65.76 169.26 64.56 169.26 62.6C169.26 60.64 168.1 59.44 165.7 59.44H158.9ZM184.695 83V49.4H215.615V59.04H196.775V62.32H214.895V70.08H196.775V73.32H215.615V83H184.695ZM236.276 84.12C224.796 84.12 217.236 77.04 217.236 66.2C217.236 55.36 224.796 48.28 236.276 48.28C244.716 48.28 253.436 52 254.356 63.84H242.836C242.076 60.36 239.716 58.72 236.276 58.72C232.396 58.72 229.236 61.56 229.236 66.2C229.236 70.8 232.396 73.68 236.276 73.68C239.716 73.68 242.076 72.04 242.836 68.48H254.356C253.436 80.4 244.836 84.12 236.276 84.12ZM256.414 83V49.4H287.334V59.04H268.494V62.32H286.614V70.08H268.494V73.32H287.334V83H256.414ZM289.976 83V49.4H302.056V83H289.976ZM340.415 49.4V59.48H328.495V83H316.375V59.48H304.495V49.4H340.415ZM363.528 83L362.247 78.96H348.567L347.288 83H334.807L346.927 49.4H363.888L376.048 83H363.528ZM351.407 70.04H359.407L356.448 60.76H354.367L351.407 70.04ZM387.945 83V49.4H407.505C416.745 49.4 422.385 53.4 422.385 62.8C422.385 72.16 416.745 76.16 407.545 76.16H400.025V83H387.945ZM400.025 66.12H406.425C408.665 66.12 410.145 65 410.145 62.8C410.145 60.56 408.665 59.44 406.465 59.44H400.025V66.12ZM460.401 83H448.521L444.281 74.76H436.681V83H424.601V49.4H444.361C453.801 49.4 459.161 53.32 459.161 62.52C459.161 66.92 457.241 70.12 454.561 72.12L460.401 83ZM436.681 59.44V65.76H443.481C445.881 65.76 447.041 64.56 447.041 62.6C447.041 60.64 445.881 59.44 443.481 59.44H436.681ZM480.092 84.12C468.372 84.12 460.892 77.04 460.892 66.2C460.892 55.36 468.372 48.28 480.092 48.28C491.852 48.28 499.332 55.36 499.332 66.2C499.332 77.04 491.852 84.12 480.092 84.12ZM480.092 73.68C483.972 73.68 487.292 71.08 487.292 66.2C487.292 61.32 483.972 58.72 480.092 58.72C476.252 58.72 472.892 61.32 472.892 66.2C472.892 71.08 476.252 73.68 480.092 73.68ZM17.68 132.12C5.64 132.08 0.16 128.48 0.52 119.48H11.36C11.44 121.48 13.12 122.64 17.68 122.72C21.6 122.76 23.28 121.72 23.28 120.52C23.28 119.88 23.12 118.76 20.08 118.36L15.68 117.68C9.36 116.68 1.28 116.24 1.28 107.2C1.28 100.44 6.68 96.28 17.8 96.28C27.72 96.28 34.64 98.84 34.36 108.84H23.56C23.2 106.88 21.48 105.68 17.52 105.68C14.12 105.68 12.88 106.64 12.88 107.84C12.88 108.4 13.16 109.52 15.44 109.88L18.96 110.44C25.72 111.56 35.32 111.44 35.32 121.04C35.32 128.56 29.56 132.16 17.68 132.12ZM37.2262 131V97.4H68.1463V107.04H49.3063V110.32H67.4263V118.08H49.3063V121.32H68.1463V131H37.2262ZM88.5888 132.12C76.6288 132.12 70.7887 127.16 70.7887 116.12V97.4H82.9887V115.84C82.9887 119.6 84.5487 122 88.5888 122C92.6288 122 94.2687 119.6 94.2687 115.84V97.4H106.389V116.04C106.389 127.16 100.549 132.12 88.5888 132.12ZM119.492 131V97.4H133.332L143.012 114.08H144.132V97.4H155.932V131H142.372L132.372 114.32H131.292V131H119.492ZM158.539 131V97.4H189.459V107.04H170.619V110.32H188.739V118.08H170.619V121.32H189.459V131H158.539ZM228.239 112.16V131H221.999L221.839 126.84H221.719C219.359 129.88 215.239 132.12 209.399 132.12C199.039 132.12 191.079 125.04 191.079 114.2C191.079 103.36 198.599 96.28 210.479 96.28C218.639 96.28 227.039 100.24 228.199 109.48H216.159C215.679 108.28 213.799 106.72 210.759 106.72C206.239 106.72 203.079 109.56 203.079 114.2C203.079 118.8 206.319 121.68 210.399 121.68C211.519 121.68 215.439 121.56 216.599 118.04H209.959V112.16H228.239ZM244.214 95.24L247.134 88.08H257.814L254.894 95.24H244.214ZM249.654 132.12C237.934 132.12 230.454 125.04 230.454 114.2C230.454 103.36 237.934 96.28 249.654 96.28C261.414 96.28 268.894 103.36 268.894 114.2C268.894 125.04 261.414 132.12 249.654 132.12ZM249.654 121.68C253.534 121.68 256.854 119.08 256.854 114.2C256.854 109.32 253.534 106.72 249.654 106.72C245.814 106.72 242.454 109.32 242.454 114.2C242.454 119.08 245.814 121.68 249.654 121.68ZM289.807 132.12C278.327 132.12 270.767 125.04 270.767 114.2C270.767 103.36 278.327 96.28 289.807 96.28C298.247 96.28 306.967 100 307.887 111.84H296.367C295.607 108.36 293.247 106.72 289.807 106.72C285.927 106.72 282.767 109.56 282.767 114.2C282.767 118.8 285.927 121.68 289.807 121.68C293.247 121.68 295.607 120.04 296.367 116.48H307.887C306.967 128.4 298.367 132.12 289.807 132.12ZM309.945 131V97.4H322.025V131H309.945ZM343.264 132.12C331.544 132.12 324.064 125.04 324.064 114.2C324.064 103.36 331.544 96.28 343.264 96.28C355.024 96.28 362.504 103.36 362.504 114.2C362.504 125.04 355.024 132.12 343.264 132.12ZM343.264 121.68C347.144 121.68 350.464 119.08 350.464 114.2C350.464 109.32 347.144 106.72 343.264 106.72C339.424 106.72 336.064 109.32 336.064 114.2C336.064 119.08 339.424 121.68 343.264 121.68ZM374.034 118.28C372.754 109.32 383.394 111.88 383.394 108.16C383.394 106.92 381.794 106.12 379.514 106.12C377.714 106.12 374.674 106.48 374.674 110.04H363.754C363.274 100.88 369.114 96.52 379.434 96.52C388.994 96.52 395.434 99.6 395.434 106.72C395.434 115.8 385.834 113.04 385.714 118.28H374.034ZM379.834 131.64C376.634 131.64 373.914 128.96 373.914 125.8C373.914 122.6 376.634 119.92 379.834 119.92C383.074 119.92 385.794 122.6 385.794 125.8C385.794 128.96 383.074 131.64 379.834 131.64Z" fill="url(#paint0_linear_7_422)"/>
<defs>
<linearGradient id="paint0_linear_7_422" x1="590" y1="60" x2="0" y2="60" gradientUnits="userSpaceOnUse">
<stop stop-color="#575AC0"/>
<stop offset="1" stop-color="#333693"/>
</linearGradient>
</defs>
</svg>
