<svg width="328" height="67" viewBox="0 0 328 67" fill="none" xmlns="http://www.w3.org/2000/svg">
<path d="M28.6339 18.56C22.8939 18.56 19.1139 15.02 19.1139 9.6C19.1139 4.18 22.8939 0.639999 28.6339 0.639999C32.8539 0.639999 37.2139 2.5 37.6739 8.42H31.9139C31.5339 6.68 30.3539 5.86 28.6339 5.86C26.6939 5.86 25.1139 7.28 25.1139 9.6C25.1139 11.9 26.6939 13.34 28.6339 13.34C30.3539 13.34 31.5339 12.52 31.9139 10.74H37.6739C37.2139 16.7 32.9139 18.56 28.6339 18.56ZM49.2608 18.56C43.4008 18.56 39.6608 15.02 39.6608 9.6C39.6608 4.18 43.4008 0.639999 49.2608 0.639999C55.1408 0.639999 58.8808 4.18 58.8808 9.6C58.8808 15.02 55.1408 18.56 49.2608 18.56ZM49.2608 13.34C51.2008 13.34 52.8608 12.04 52.8608 9.6C52.8608 7.16 51.2008 5.86 49.2608 5.86C47.3408 5.86 45.6608 7.16 45.6608 9.6C45.6608 12.04 47.3408 13.34 49.2608 13.34ZM60.9061 18V1.2H68.5061L70.7661 10.04H71.2061L73.4661 1.2H81.0661V18H75.3061V11.44H74.8461L73.2061 18H68.7661L67.1261 11.44H66.6661V18H60.9061ZM92.6748 18.56C86.8148 18.56 83.0748 15.02 83.0748 9.6C83.0748 4.18 86.8148 0.639999 92.6748 0.639999C98.5548 0.639999 102.295 4.18 102.295 9.6C102.295 15.02 98.5548 18.56 92.6748 18.56ZM92.6748 13.34C94.6148 13.34 96.2748 12.04 96.2748 9.6C96.2748 7.16 94.6148 5.86 92.6748 5.86C90.7548 5.86 89.0748 7.16 89.0748 9.6C89.0748 12.04 90.7548 13.34 92.6748 13.34ZM110.57 18V1.2H126.03V6.02H116.61V7.66H125.67V11.54H116.61V13.16H126.03V18H110.57ZM128.351 18V1.2H135.271L140.111 9.54H140.671V1.2H146.571V18H139.791L134.791 9.66H134.251V18H128.351ZM166.735 1.2V6.24H160.775V18H154.715V6.24H148.775V1.2H166.735ZM186.83 18H180.89L178.77 13.88H174.97V18H168.93V1.2H178.81C183.53 1.2 186.21 3.16 186.21 7.76C186.21 9.96 185.25 11.56 183.91 12.56L186.83 18ZM174.97 6.22V9.38H178.37C179.57 9.38 180.15 8.78 180.15 7.8C180.15 6.82 179.57 6.22 178.37 6.22H174.97ZM188.867 18V1.2H204.327V6.02H194.907V7.66H203.967V11.54H194.907V13.16H204.327V18H188.867ZM224.717 8.58V18H221.597L221.517 15.92H221.457C220.277 17.44 218.217 18.56 215.297 18.56C210.117 18.56 206.137 15.02 206.137 9.6C206.137 4.18 209.897 0.639999 215.837 0.639999C219.917 0.639999 224.117 2.62 224.697 7.24H218.677C218.437 6.64 217.497 5.86 215.977 5.86C213.717 5.86 212.137 7.28 212.137 9.6C212.137 11.9 213.757 13.34 215.797 13.34C216.357 13.34 218.317 13.28 218.897 11.52H215.577V8.58H224.717ZM240.674 18L240.034 15.98H233.194L232.554 18H226.314L232.374 1.2H240.854L246.934 18H240.674ZM234.614 11.52H238.614L237.134 6.88H236.094L234.614 11.52ZM248.633 18V1.2H256.233L258.493 10.04H258.933L261.193 1.2H268.793V18H263.033V11.44H262.573L260.933 18H256.493L254.853 11.44H254.393V18H248.633ZM280.401 18.56C274.541 18.56 270.801 15.02 270.801 9.6C270.801 4.18 274.541 0.639999 280.401 0.639999C286.281 0.639999 290.021 4.18 290.021 9.6C290.021 15.02 286.281 18.56 280.401 18.56ZM280.401 13.34C282.341 13.34 284.001 12.04 284.001 9.6C284.001 7.16 282.341 5.86 280.401 5.86C278.481 5.86 276.801 7.16 276.801 9.6C276.801 12.04 278.481 13.34 280.401 13.34ZM300.133 18.56C294.113 18.54 291.373 16.74 291.553 12.24H296.973C297.013 13.24 297.853 13.82 300.133 13.86C302.093 13.88 302.933 13.36 302.933 12.76C302.933 12.44 302.853 11.88 301.333 11.68L299.133 11.34C295.973 10.84 291.933 10.62 291.933 6.1C291.933 2.72 294.633 0.639999 300.193 0.639999C305.153 0.639999 308.613 1.92 308.473 6.92H303.073C302.893 5.94 302.033 5.34 300.053 5.34C298.353 5.34 297.733 5.82 297.733 6.42C297.733 6.7 297.873 7.26 299.013 7.44L300.773 7.72C304.153 8.28 308.953 8.22 308.953 13.02C308.953 16.78 306.073 18.58 300.133 18.56Z" fill="#F8F8F8"/>
<path d="M0.601406 42V25.2H8.20141L10.4614 34.04H10.9014L13.1614 25.2H20.7614V42H15.0014V35.44H14.5414L12.9014 42H8.46141L6.82141 35.44H6.36141V42H0.601406ZM36.8302 42L36.1902 39.98H29.3502L28.7102 42H22.4702L28.5302 25.2H37.0102L43.0902 42H36.8302ZM30.7702 35.52H34.7702L33.2902 30.88H32.2502L30.7702 35.52ZM44.7889 42V25.2H50.8289V42H44.7889ZM61.3283 42.56C55.3083 42.54 52.5683 40.74 52.7483 36.24H58.1683C58.2083 37.24 59.0483 37.82 61.3283 37.86C63.2883 37.88 64.1283 37.36 64.1283 36.76C64.1283 36.44 64.0483 35.88 62.5283 35.68L60.3283 35.34C57.1683 34.84 53.1283 34.62 53.1283 30.1C53.1283 26.72 55.8283 24.64 61.3883 24.64C66.3483 24.64 69.8083 25.92 69.6683 30.92H64.2683C64.0883 29.94 63.2283 29.34 61.2483 29.34C59.5483 29.34 58.9283 29.82 58.9283 30.42C58.9283 30.7 59.0683 31.26 60.2083 31.44L61.9683 31.72C65.3483 32.28 70.1483 32.22 70.1483 37.02C70.1483 40.78 67.2683 42.58 61.3283 42.56ZM96.2514 42H90.3114L88.1914 37.88H84.3914V42H78.3514V25.2H88.2314C92.9514 25.2 95.6314 27.16 95.6314 31.76C95.6314 33.96 94.6714 35.56 93.3314 36.56L96.2514 42ZM84.3914 30.22V33.38H87.7914C88.9914 33.38 89.5714 32.78 89.5714 31.8C89.5714 30.82 88.9914 30.22 87.7914 30.22H84.3914ZM98.2889 42V25.2H113.749V30.02H104.329V31.66H113.389V35.54H104.329V37.16H113.749V42H98.2889ZM125.079 42.56C119.339 42.56 115.559 39.02 115.559 33.6C115.559 28.18 119.339 24.64 125.079 24.64C129.299 24.64 133.659 26.5 134.119 32.42H128.359C127.979 30.68 126.799 29.86 125.079 29.86C123.139 29.86 121.559 31.28 121.559 33.6C121.559 35.9 123.139 37.34 125.079 37.34C126.799 37.34 127.979 36.52 128.359 34.74H134.119C133.659 40.7 129.359 42.56 125.079 42.56ZM136.148 42V25.2H151.608V30.02H142.188V31.66H151.248V35.54H142.188V37.16H151.608V42H136.148ZM153.93 42V25.2H159.97V42H153.93ZM180.149 25.2V30.24H174.189V42H168.129V30.24H162.189V25.2H180.149ZM192.705 42L192.065 39.98H185.225L184.585 42H178.345L184.405 25.2H192.885L198.965 42H192.705ZM186.645 35.52H190.645L189.165 30.88H188.125L186.645 35.52ZM206.914 42V25.2H216.694C221.314 25.2 224.134 27.2 224.134 31.9C224.134 36.58 221.314 38.58 216.714 38.58H212.954V42H206.914ZM212.954 33.56H216.154C217.274 33.56 218.014 33 218.014 31.9C218.014 30.78 217.274 30.22 216.174 30.22H212.954V33.56ZM244.142 42H238.202L236.082 37.88H232.282V42H226.242V25.2H236.122C240.842 25.2 243.522 27.16 243.522 31.76C243.522 33.96 242.562 35.56 241.222 36.56L244.142 42ZM232.282 30.22V33.38H235.682C236.882 33.38 237.462 32.78 237.462 31.8C237.462 30.82 236.882 30.22 235.682 30.22H232.282ZM254.987 42.56C249.127 42.56 245.387 39.02 245.387 33.6C245.387 28.18 249.127 24.64 254.987 24.64C260.867 24.64 264.607 28.18 264.607 33.6C264.607 39.02 260.867 42.56 254.987 42.56ZM254.987 37.34C256.927 37.34 258.587 36.04 258.587 33.6C258.587 31.16 256.927 29.86 254.987 29.86C253.067 29.86 251.387 31.16 251.387 33.6C251.387 36.04 253.067 37.34 254.987 37.34ZM281.063 42.56C275.043 42.54 272.303 40.74 272.483 36.24H277.903C277.943 37.24 278.783 37.82 281.063 37.86C283.023 37.88 283.863 37.36 283.863 36.76C283.863 36.44 283.783 35.88 282.263 35.68L280.063 35.34C276.903 34.84 272.863 34.62 272.863 30.1C272.863 26.72 275.563 24.64 281.123 24.64C286.083 24.64 289.543 25.92 289.403 30.92H284.003C283.823 29.94 282.963 29.34 280.983 29.34C279.283 29.34 278.663 29.82 278.663 30.42C278.663 30.7 278.803 31.26 279.943 31.44L281.703 31.72C285.083 32.28 289.883 32.22 289.883 37.02C289.883 40.78 287.003 42.58 281.063 42.56ZM291.836 42V25.2H307.296V30.02H297.876V31.66H306.936V35.54H297.876V37.16H307.296V42H291.836ZM318.517 42.56C312.537 42.56 309.617 40.08 309.617 34.56V25.2H315.717V34.42C315.717 36.3 316.497 37.5 318.517 37.5C320.537 37.5 321.357 36.3 321.357 34.42V25.2H327.417V34.52C327.417 40.08 324.497 42.56 318.517 42.56ZM92.2147 66V49.2H99.1347L103.975 57.54H104.535V49.2H110.435V66H103.655L98.6547 57.66H98.1147V66H92.2147ZM112.738 66V49.2H128.198V54.02H118.778V55.66H127.838V59.54H118.778V61.16H128.198V66H112.738ZM148.588 56.58V66H145.468L145.388 63.92H145.328C144.148 65.44 142.088 66.56 139.168 66.56C133.988 66.56 130.008 63.02 130.008 57.6C130.008 52.18 133.768 48.64 139.708 48.64C143.788 48.64 147.988 50.62 148.568 55.24H142.548C142.308 54.64 141.368 53.86 139.848 53.86C137.588 53.86 136.008 55.28 136.008 57.6C136.008 59.9 137.628 61.34 139.668 61.34C140.228 61.34 142.188 61.28 142.768 59.52H139.448V56.58H148.588ZM157.576 48.12L159.036 44.54H164.376L162.916 48.12H157.576ZM160.296 66.56C154.436 66.56 150.696 63.02 150.696 57.6C150.696 52.18 154.436 48.64 160.296 48.64C166.176 48.64 169.916 52.18 169.916 57.6C169.916 63.02 166.176 66.56 160.296 66.56ZM160.296 61.34C162.236 61.34 163.896 60.04 163.896 57.6C163.896 55.16 162.236 53.86 160.296 53.86C158.376 53.86 156.696 55.16 156.696 57.6C156.696 60.04 158.376 61.34 160.296 61.34ZM181.372 66.56C175.632 66.56 171.852 63.02 171.852 57.6C171.852 52.18 175.632 48.64 181.372 48.64C185.592 48.64 189.952 50.5 190.412 56.42H184.652C184.272 54.68 183.092 53.86 181.372 53.86C179.432 53.86 177.852 55.28 177.852 57.6C177.852 59.9 179.432 61.34 181.372 61.34C183.092 61.34 184.272 60.52 184.652 58.74H190.412C189.952 64.7 185.652 66.56 181.372 66.56ZM192.441 66V49.2H198.481V66H192.441ZM210.101 66.56C204.241 66.56 200.501 63.02 200.501 57.6C200.501 52.18 204.241 48.64 210.101 48.64C215.981 48.64 219.721 52.18 219.721 57.6C219.721 63.02 215.981 66.56 210.101 66.56ZM210.101 61.34C212.041 61.34 213.701 60.04 213.701 57.6C213.701 55.16 212.041 53.86 210.101 53.86C208.181 53.86 206.501 55.16 206.501 57.6C206.501 60.04 208.181 61.34 210.101 61.34ZM226.486 59.64C225.846 55.16 231.166 56.44 231.166 54.58C231.166 53.96 230.366 53.56 229.226 53.56C228.326 53.56 226.806 53.74 226.806 55.52H221.346C221.106 50.94 224.026 48.76 229.186 48.76C233.966 48.76 237.186 50.3 237.186 53.86C237.186 58.4 232.386 57.02 232.326 59.64H226.486ZM229.386 66.32C227.786 66.32 226.426 64.98 226.426 63.4C226.426 61.8 227.786 60.46 229.386 60.46C231.006 60.46 232.366 61.8 232.366 63.4C232.366 64.98 231.006 66.32 229.386 66.32Z" fill="url(#paint0_linear_13_608)"/>
<defs>
<linearGradient id="paint0_linear_13_608" x1="344" y1="31" x2="-15" y2="31" gradientUnits="userSpaceOnUse">
<stop stop-color="#575AC0"/>
<stop offset="1" stop-color="#333693"/>
</linearGradient>
</defs>
</svg>
