<svg width="201" height="43" viewBox="0 0 201 43" fill="none" xmlns="http://www.w3.org/2000/svg">
<rect width="201" height="43" rx="8" fill="url(#paint0_linear_13_701)"/>
<path d="M16.43 25.5V17.1H18.42V25.5H16.43ZM21.2777 25.5V17.1H23.5877L27.4877 22.75H27.6777V17.1H29.6277V25.5H27.3577L23.4077 19.85H23.2277V25.5H21.2777ZM38.9869 21.09C39.8969 21.46 40.4169 22.12 40.4169 23.13C40.4169 24.52 39.4469 25.5 36.9669 25.5H32.4769V17.1H36.9869C39.3869 17.1 40.1469 18.09 40.1469 19.25C40.1469 20.14 39.7069 20.64 38.9869 20.96V21.09ZM36.8369 18.66H34.4669V20.52H36.8369C37.7469 20.52 38.2369 20.21 38.2369 19.6C38.2369 18.99 37.7469 18.66 36.8369 18.66ZM36.9369 23.94C37.8669 23.94 38.3969 23.5 38.3969 22.83C38.3969 22.15 37.8669 21.78 36.9369 21.78H34.4669V23.94H36.9369ZM47.5267 25.78C44.7867 25.78 42.9167 23.94 42.9167 21.3C42.9167 18.66 44.7867 16.82 47.5267 16.82C50.2767 16.82 52.1467 18.66 52.1467 21.3C52.1467 23.94 50.2767 25.78 47.5267 25.78ZM47.5267 24.05C49.0267 24.05 50.1667 22.95 50.1667 21.3C50.1667 19.65 49.0267 18.55 47.5267 18.55C46.0367 18.55 44.8867 19.65 44.8867 21.3C44.8867 22.95 46.0367 24.05 47.5267 24.05ZM58.9019 25.78C56.3119 25.78 54.8519 24.56 54.8519 22V17.1H56.8619V21.95C56.8619 23.29 57.5319 24.1 58.9019 24.1C60.2719 24.1 60.9519 23.29 60.9519 21.95V17.1H62.9519V22C62.9519 24.56 61.4919 25.78 58.9019 25.78ZM65.805 25.5V17.1H68.115L72.015 22.75H72.205V17.1H74.155V25.5H71.885L67.935 19.85H67.755V25.5H65.805ZM80.8642 17.1C84.1242 17.1 85.3642 18.91 85.3642 21.3C85.3642 23.69 84.1242 25.5 80.8642 25.5H77.0042V17.1H80.8642ZM80.8542 23.82C82.4842 23.82 83.3642 22.92 83.3642 21.3C83.3642 19.68 82.4842 18.78 80.8542 18.78H79.0142L78.9942 23.82H80.8542ZM92.6409 25.5V17.1H95.1909L97.2709 22.99H97.4209L99.5009 17.1H102.051V25.5H100.141V20.44H99.9709L98.1209 25.5H96.5709L94.7209 20.44H94.5509V25.5H92.6409ZM111.847 25.5L111.327 24.09H107.187L106.667 25.5H104.607L107.857 17.1H110.657L113.917 25.5H111.847ZM107.747 22.58H110.767L109.447 18.99H109.067L107.747 22.58ZM124.529 25.5H122.549L121.169 23H118.459V25.5H116.469V17.1H120.879C123.129 17.1 124.319 18.15 124.319 20.11C124.319 21.28 123.749 22.13 122.889 22.6L124.529 25.5ZM118.459 18.77V21.47H120.769C121.779 21.47 122.339 21.01 122.339 20.12C122.339 19.23 121.779 18.77 120.769 18.77H118.459ZM135.6 25.5H133.52L130.77 22.04H130.63L129.18 23.54V25.5H127.2V17.1H129.18V21.13H129.33L133.15 17.1H135.41L131.91 20.83L135.6 25.5ZM137.977 25.5V17.1H145.047V18.73H139.967V20.57H144.867V22.01H139.967V23.86H145.047V25.5H137.977ZM156.15 17.1V18.77H153V25.5H151V18.77H147.86V17.1H156.15ZM158.946 25.5V17.1H160.936V25.5H158.946ZM163.793 25.5V17.1H166.103L170.003 22.75H170.193V17.1H172.143V25.5H169.873L165.923 19.85H165.743V25.5H163.793ZM183.723 21.06V25.5H182.473L182.453 24.28C181.873 25.16 180.813 25.78 179.323 25.78C176.783 25.78 174.843 23.94 174.843 21.3C174.843 18.66 176.723 16.82 179.482 16.82C181.303 16.82 183.143 17.67 183.592 19.78H181.603C181.283 19.02 180.523 18.55 179.513 18.55C177.952 18.55 176.812 19.68 176.812 21.3C176.812 22.91 177.962 24.05 179.472 24.05C180.313 24.05 181.482 23.68 181.773 22.41H179.333V21.06H183.723Z" fill="#F8F8F8"/>
<defs>
<linearGradient id="paint0_linear_13_701" x1="201" y1="21.5" x2="0" y2="21.5" gradientUnits="userSpaceOnUse">
<stop stop-color="#575AC0"/>
<stop offset="1" stop-color="#333693"/>
</linearGradient>
</defs>
</svg>
