<svg width="333" height="112" viewBox="0 0 333 112" fill="none" xmlns="http://www.w3.org/2000/svg">
<path d="M5.824 12.256C4.27733 12.256 3.01333 11.7173 2.032 10.64C1.05067 9.56267 0.56 8.11733 0.56 6.304C0.56 4.49067 1.05067 3.04533 2.032 1.968C3.01333 0.890666 4.27733 0.351999 5.824 0.351999C7.05067 0.351999 8.096 0.687999 8.96 1.36C9.824 2.02133 10.3947 2.992 10.672 4.272H9.312C8.832 2.48 7.66933 1.584 5.824 1.584C4.66133 1.584 3.728 2 3.024 2.832C2.32 3.67467 1.968 4.832 1.968 6.304C1.968 7.776 2.32 8.928 3.024 9.76C3.728 10.6027 4.66133 11.024 5.824 11.024C6.69867 11.024 7.47733 10.752 8.16 10.208C8.832 9.68533 9.24267 8.90133 9.392 7.856H10.736C10.5867 9.27467 10.048 10.3573 9.12 11.104C8.18133 11.872 7.08267 12.256 5.824 12.256ZM18.6588 11.008C17.9014 11.7973 16.9414 12.192 15.7788 12.192C14.6161 12.192 13.6561 11.7973 12.8988 11.008C12.1521 10.2293 11.7788 9.184 11.7788 7.872C11.7788 6.56 12.1521 5.51467 12.8988 4.736C13.6561 3.94667 14.6161 3.552 15.7788 3.552C16.9414 3.552 17.9014 3.94667 18.6588 4.736C19.4054 5.51467 19.7788 6.56 19.7788 7.872C19.7788 9.184 19.4054 10.2293 18.6588 11.008ZM13.8428 10.192C14.3228 10.7573 14.9681 11.04 15.7788 11.04C16.5894 11.04 17.2348 10.7573 17.7148 10.192C18.1948 9.63733 18.4348 8.864 18.4348 7.872C18.4348 6.86933 18.1948 6.09067 17.7148 5.536C17.2348 4.98133 16.5894 4.704 15.7788 4.704C14.9681 4.704 14.3228 4.98133 13.8428 5.536C13.3628 6.09067 13.1228 6.86933 13.1228 7.872C13.1228 8.864 13.3628 9.63733 13.8428 10.192ZM29.9918 3.552C30.8878 3.552 31.5811 3.81333 32.0718 4.336C32.5731 4.848 32.8238 5.536 32.8238 6.4V12H31.5438V6.528C31.5438 5.312 30.9678 4.704 29.8158 4.704C29.2078 4.704 28.7011 4.94933 28.2958 5.44C27.9011 5.92 27.7038 6.60267 27.7038 7.488V12H26.4238V6.528C26.4238 5.312 25.8478 4.704 24.6958 4.704C24.0984 4.704 23.5971 4.94933 23.1918 5.44C22.7864 5.92 22.5838 6.60267 22.5838 7.488V12H21.3038V3.744H22.5198V4.96C23.0638 4.02133 23.8584 3.552 24.9038 3.552C26.1411 3.552 26.9891 4.06933 27.4478 5.104C28.0238 4.06933 28.8718 3.552 29.9918 3.552ZM44.9881 7.872V8.32H38.7161C38.7801 9.216 39.0308 9.89333 39.4681 10.352C39.9055 10.8 40.5028 11.024 41.2601 11.024C42.4015 11.024 43.1321 10.512 43.4521 9.488H44.7801C44.5561 10.32 44.1401 10.9813 43.5321 11.472C42.9241 11.952 42.1561 12.192 41.2281 12.192C40.0868 12.192 39.1641 11.8027 38.4601 11.024C37.7455 10.2453 37.3881 9.19467 37.3881 7.872C37.3881 6.57067 37.7401 5.52533 38.4441 4.736C39.1375 3.94667 40.0548 3.552 41.1961 3.552C42.3801 3.552 43.3081 3.96267 43.9801 4.784C44.6521 5.60533 44.9881 6.63467 44.9881 7.872ZM41.1961 4.72C40.5241 4.72 39.9748 4.93333 39.5481 5.36C39.1215 5.776 38.8548 6.37867 38.7481 7.168H43.6121C43.5481 6.44267 43.3028 5.856 42.8761 5.408C42.4495 4.94933 41.8895 4.72 41.1961 4.72ZM49.3408 12.192C47.1328 12.192 45.9648 11.2533 45.8368 9.376H47.1328C47.2074 9.99467 47.4101 10.4373 47.7408 10.704C48.0821 10.96 48.6154 11.088 49.3408 11.088C50.6634 11.088 51.3248 10.6613 51.3248 9.808C51.3248 9.43467 51.1861 9.152 50.9088 8.96C50.6421 8.768 50.1514 8.60267 49.4368 8.464L48.6688 8.32C46.9514 8 46.0928 7.18933 46.0928 5.888C46.0928 5.17333 46.3594 4.608 46.8928 4.192C47.4368 3.76533 48.1728 3.552 49.1008 3.552C51.2874 3.552 52.4074 4.464 52.4608 6.288H51.1808C51.1488 5.69067 50.9674 5.26933 50.6368 5.024C50.3061 4.77867 49.7941 4.656 49.1008 4.656C48.5461 4.656 48.1194 4.76267 47.8207 4.976C47.5221 5.18933 47.3728 5.488 47.3728 5.872C47.3728 6.23467 47.5008 6.50667 47.7568 6.688C48.0128 6.86933 48.4394 7.024 49.0368 7.152L49.7728 7.296C50.7861 7.49867 51.5114 7.78667 51.9488 8.16C52.3968 8.53333 52.6208 9.056 52.6208 9.728C52.6208 10.5067 52.3274 11.1147 51.7408 11.552C51.1648 11.9787 50.3648 12.192 49.3408 12.192ZM57.3573 3.744V4.864H55.6613V10.224C55.6613 10.6933 55.9759 10.928 56.6053 10.928H57.3573V12C57.0053 12.032 56.7013 12.048 56.4453 12.048C55.0693 12.048 54.3813 11.4773 54.3813 10.336V4.864H53.0213V3.744H54.3813V1.408H55.6613V3.744H57.3573ZM62.582 3.616C62.7953 3.616 62.9393 3.62133 63.014 3.632V4.864H62.694C61.8407 4.864 61.174 5.07733 60.694 5.504C60.2247 5.92 59.99 6.51733 59.99 7.296V12H58.71V3.744H59.926V5.2C60.4807 4.144 61.366 3.616 62.582 3.616ZM70.3995 10.96H70.8635V12C70.6502 12.032 70.4155 12.048 70.1595 12.048C69.2955 12.048 68.8315 11.6533 68.7675 10.864C68.1915 11.7493 67.2955 12.192 66.0795 12.192C65.1728 12.192 64.4582 11.984 63.9355 11.568C63.4235 11.1413 63.1675 10.544 63.1675 9.776C63.1675 8.28267 64.1862 7.42933 66.2235 7.216L67.4075 7.088C68.2715 6.992 68.7035 6.61333 68.7035 5.952C68.7035 5.49333 68.5595 5.16267 68.2715 4.96C67.9942 4.75733 67.5195 4.656 66.8475 4.656C66.1328 4.656 65.6155 4.77867 65.2955 5.024C64.9862 5.25867 64.8102 5.68 64.7675 6.288H63.4875C63.5942 4.464 64.7142 3.552 66.8475 3.552C68.9168 3.552 69.9515 4.352 69.9515 5.952V10.56C69.9515 10.8267 70.1008 10.96 70.3995 10.96ZM66.1435 11.104C66.8262 11.104 67.4235 10.896 67.9355 10.48C68.4475 10.0747 68.7035 9.49333 68.7035 8.736V7.76C68.4688 7.94133 68.1062 8.05867 67.6155 8.112L66.4155 8.256C65.7222 8.34133 65.2262 8.50133 64.9275 8.736C64.6395 8.97067 64.4955 9.30667 64.4955 9.744C64.4955 10.1707 64.6342 10.5067 64.9115 10.752C65.1888 10.9867 65.5995 11.104 66.1435 11.104ZM75.2948 3.744V4.864H73.5988V10.224C73.5988 10.6933 73.9134 10.928 74.5428 10.928H75.2948V12C74.9428 12.032 74.6388 12.048 74.3828 12.048C73.0068 12.048 72.3188 11.4773 72.3188 10.336V4.864H70.9588V3.744H72.3188V1.408H73.5988V3.744H75.2948ZM80.7473 0.191999H82.4753L80.5073 2.496H79.3713L80.7473 0.191999ZM83.6913 7.872V8.32H77.4193C77.4833 9.216 77.7339 9.89333 78.1713 10.352C78.6086 10.8 79.2059 11.024 79.9633 11.024C81.1046 11.024 81.8353 10.512 82.1553 9.488H83.4833C83.2593 10.32 82.8433 10.9813 82.2353 11.472C81.6273 11.952 80.8593 12.192 79.9313 12.192C78.7899 12.192 77.8673 11.8027 77.1633 11.024C76.4486 10.2453 76.0913 9.19467 76.0913 7.872C76.0913 6.57067 76.4433 5.52533 77.1473 4.736C77.8406 3.94667 78.7579 3.552 79.8993 3.552C81.0833 3.552 82.0113 3.96267 82.6833 4.784C83.3553 5.60533 83.6913 6.63467 83.6913 7.872ZM79.8993 4.72C79.2273 4.72 78.6779 4.93333 78.2513 5.36C77.8246 5.776 77.5579 6.37867 77.4513 7.168H82.3153C82.2513 6.44267 82.0059 5.856 81.5793 5.408C81.1526 4.94933 80.5926 4.72 79.8993 4.72ZM91.482 4.944V3.744H92.698V11.68C92.698 12.8107 92.3673 13.7013 91.706 14.352C91.0447 15.0027 90.0953 15.328 88.858 15.328C87.834 15.328 87.0127 15.0933 86.394 14.624C85.7753 14.1547 85.4233 13.504 85.338 12.672H86.618C86.778 13.7173 87.5247 14.24 88.858 14.24C90.5647 14.24 91.418 13.3867 91.418 11.68V10.88C90.7673 11.7547 89.8447 12.192 88.65 12.192C87.4873 12.192 86.5593 11.7973 85.866 11.008C85.162 10.2187 84.81 9.17333 84.81 7.872C84.81 6.54933 85.162 5.49867 85.866 4.72C86.5487 3.94133 87.4767 3.552 88.65 3.552C89.8767 3.552 90.8207 4.016 91.482 4.944ZM88.81 11.04C89.6207 11.04 90.266 10.7573 90.746 10.192C91.226 9.62667 91.466 8.85333 91.466 7.872C91.466 6.89067 91.226 6.11733 90.746 5.552C90.266 4.98667 89.6207 4.704 88.81 4.704C88.01 4.704 87.3647 4.992 86.874 5.568C86.394 6.144 86.154 6.912 86.154 7.872C86.154 8.832 86.394 9.6 86.874 10.176C87.3647 10.752 88.01 11.04 88.81 11.04ZM95.9283 2.496H94.5683V0.927999H95.9283V2.496ZM95.8963 12H94.6163V3.744H95.8963V12ZM104.571 10.96H105.035V12C104.822 12.032 104.587 12.048 104.331 12.048C103.467 12.048 103.003 11.6533 102.939 10.864C102.363 11.7493 101.467 12.192 100.251 12.192C99.3447 12.192 98.63 11.984 98.1074 11.568C97.5954 11.1413 97.3394 10.544 97.3394 9.776C97.3394 8.28267 98.358 7.42933 100.395 7.216L101.579 7.088C102.443 6.992 102.875 6.61333 102.875 5.952C102.875 5.49333 102.731 5.16267 102.443 4.96C102.166 4.75733 101.691 4.656 101.019 4.656C100.305 4.656 99.7874 4.77867 99.4674 5.024C99.158 5.25867 98.982 5.68 98.9394 6.288H97.6594C97.766 4.464 98.886 3.552 101.019 3.552C103.089 3.552 104.123 4.352 104.123 5.952V10.56C104.123 10.8267 104.273 10.96 104.571 10.96ZM100.315 11.104C100.998 11.104 101.595 10.896 102.107 10.48C102.619 10.0747 102.875 9.49333 102.875 8.736V7.76C102.641 7.94133 102.278 8.05867 101.787 8.112L100.587 8.256C99.894 8.34133 99.398 8.50133 99.0994 8.736C98.8114 8.97067 98.6674 9.30667 98.6674 9.744C98.6674 10.1707 98.806 10.5067 99.0834 10.752C99.3607 10.9867 99.7714 11.104 100.315 11.104ZM109.075 12.192C106.867 12.192 105.699 11.2533 105.571 9.376H106.867C106.942 9.99467 107.144 10.4373 107.475 10.704C107.816 10.96 108.35 11.088 109.075 11.088C110.398 11.088 111.059 10.6613 111.059 9.808C111.059 9.43467 110.92 9.152 110.643 8.96C110.376 8.768 109.886 8.60267 109.171 8.464L108.403 8.32C106.686 8 105.827 7.18933 105.827 5.888C105.827 5.17333 106.094 4.608 106.627 4.192C107.171 3.76533 107.907 3.552 108.835 3.552C111.022 3.552 112.142 4.464 112.195 6.288H110.915C110.883 5.69067 110.702 5.26933 110.371 5.024C110.04 4.77867 109.528 4.656 108.835 4.656C108.28 4.656 107.854 4.76267 107.555 4.976C107.256 5.18933 107.107 5.488 107.107 5.872C107.107 6.23467 107.235 6.50667 107.491 6.688C107.747 6.86933 108.174 7.024 108.771 7.152L109.507 7.296C110.52 7.49867 111.246 7.78667 111.683 8.16C112.131 8.53333 112.355 9.056 112.355 9.728C112.355 10.5067 112.062 11.1147 111.475 11.552C110.899 11.9787 110.099 12.192 109.075 12.192ZM122.887 4.928V0.608H124.167V12H122.951V10.72C122.289 11.7013 121.345 12.192 120.119 12.192C118.956 12.192 118.028 11.7973 117.335 11.008C116.631 10.2187 116.279 9.17333 116.279 7.872C116.279 6.54933 116.631 5.49867 117.335 4.72C118.017 3.94133 118.945 3.552 120.119 3.552C121.303 3.552 122.225 4.01067 122.887 4.928ZM117.623 7.936C117.623 8.91733 117.863 9.68 118.343 10.224C118.823 10.768 119.468 11.04 120.279 11.04C121.089 11.04 121.735 10.7573 122.215 10.192C122.695 9.63733 122.935 8.864 122.935 7.872C122.935 6.89067 122.695 6.11733 122.215 5.552C121.735 4.98667 121.089 4.704 120.279 4.704C119.479 4.704 118.833 4.99733 118.343 5.584C117.863 6.16 117.623 6.944 117.623 7.936ZM133.285 7.872V8.32H127.013C127.077 9.216 127.328 9.89333 127.765 10.352C128.202 10.8 128.8 11.024 129.557 11.024C130.698 11.024 131.429 10.512 131.749 9.488H133.077C132.853 10.32 132.437 10.9813 131.829 11.472C131.221 11.952 130.453 12.192 129.525 12.192C128.384 12.192 127.461 11.8027 126.757 11.024C126.042 10.2453 125.685 9.19467 125.685 7.872C125.685 6.57067 126.037 5.52533 126.741 4.736C127.434 3.94667 128.352 3.552 129.493 3.552C130.677 3.552 131.605 3.96267 132.277 4.784C132.949 5.60533 133.285 6.63467 133.285 7.872ZM129.493 4.72C128.821 4.72 128.272 4.93333 127.845 5.36C127.418 5.776 127.152 6.37867 127.045 7.168H131.909C131.845 6.44267 131.6 5.856 131.173 5.408C130.746 4.94933 130.186 4.72 129.493 4.72ZM141.275 12.192C140.133 12.192 139.211 11.7973 138.507 11.008C137.803 10.2187 137.451 9.17333 137.451 7.872C137.451 6.54933 137.803 5.49867 138.507 4.72C139.189 3.94133 140.112 3.552 141.275 3.552C142.256 3.552 143.061 3.81867 143.691 4.352C144.32 4.88533 144.699 5.616 144.827 6.544H143.499C143.403 5.95733 143.147 5.504 142.731 5.184C142.325 4.864 141.84 4.704 141.275 4.704C140.517 4.704 139.915 4.98133 139.467 5.536C139.019 6.08 138.795 6.85867 138.795 7.872C138.795 8.87467 139.019 9.65333 139.467 10.208C139.925 10.7627 140.528 11.04 141.275 11.04C141.84 11.04 142.331 10.8747 142.747 10.544C143.163 10.2133 143.419 9.75467 143.515 9.168H144.827C144.688 10.096 144.293 10.832 143.643 11.376C143.003 11.92 142.213 12.192 141.275 12.192ZM152.674 11.008C151.917 11.7973 150.957 12.192 149.794 12.192C148.632 12.192 147.672 11.7973 146.914 11.008C146.168 10.2293 145.794 9.184 145.794 7.872C145.794 6.56 146.168 5.51467 146.914 4.736C147.672 3.94667 148.632 3.552 149.794 3.552C150.957 3.552 151.917 3.94667 152.674 4.736C153.421 5.51467 153.794 6.56 153.794 7.872C153.794 9.184 153.421 10.2293 152.674 11.008ZM147.858 10.192C148.338 10.7573 148.984 11.04 149.794 11.04C150.605 11.04 151.25 10.7573 151.73 10.192C152.21 9.63733 152.45 8.864 152.45 7.872C152.45 6.86933 152.21 6.09067 151.73 5.536C151.25 4.98133 150.605 4.704 149.794 4.704C148.984 4.704 148.338 4.98133 147.858 5.536C147.378 6.09067 147.138 6.86933 147.138 7.872C147.138 8.864 147.378 9.63733 147.858 10.192ZM159.127 3.552C160.045 3.552 160.759 3.80267 161.271 4.304C161.783 4.80533 162.039 5.50933 162.039 6.416V12H160.759V6.544C160.759 5.31733 160.13 4.704 158.871 4.704C158.274 4.704 157.746 4.928 157.287 5.376C156.829 5.824 156.599 6.47467 156.599 7.328V12H155.319V3.744H156.535V4.976C157.165 4.02667 158.029 3.552 159.127 3.552ZM167.264 3.744V4.864H165.568V10.224C165.568 10.6933 165.882 10.928 166.512 10.928H167.264V12C166.912 12.032 166.608 12.048 166.352 12.048C164.976 12.048 164.288 11.4773 164.288 10.336V4.864H162.928V3.744H164.288V1.408H165.568V3.744H167.264ZM175.66 7.872V8.32H169.388C169.452 9.216 169.703 9.89333 170.14 10.352C170.577 10.8 171.175 11.024 171.932 11.024C173.073 11.024 173.804 10.512 174.124 9.488H175.452C175.228 10.32 174.812 10.9813 174.204 11.472C173.596 11.952 172.828 12.192 171.9 12.192C170.759 12.192 169.836 11.8027 169.132 11.024C168.417 10.2453 168.06 9.19467 168.06 7.872C168.06 6.57067 168.412 5.52533 169.116 4.736C169.809 3.94667 170.727 3.552 171.868 3.552C173.052 3.552 173.98 3.96267 174.652 4.784C175.324 5.60533 175.66 6.63467 175.66 7.872ZM171.868 4.72C171.196 4.72 170.647 4.93333 170.22 5.36C169.793 5.776 169.527 6.37867 169.42 7.168H174.284C174.22 6.44267 173.975 5.856 173.548 5.408C173.121 4.94933 172.561 4.72 171.868 4.72ZM181.072 0.191999H182.8L180.832 2.496H179.696L181.072 0.191999ZM182.384 8.416V3.744H183.664V12H182.448V10.768C181.819 11.7173 180.955 12.192 179.856 12.192C178.939 12.192 178.224 11.9413 177.712 11.44C177.2 10.9387 176.944 10.2347 176.944 9.328V3.744H178.224V9.2C178.224 10.4267 178.854 11.04 180.112 11.04C180.71 11.04 181.238 10.816 181.696 10.368C182.155 9.92 182.384 9.26933 182.384 8.416ZM191.793 4.928V0.608H193.073V12H191.857V10.72C191.196 11.7013 190.252 12.192 189.025 12.192C187.862 12.192 186.934 11.7973 186.241 11.008C185.537 10.2187 185.185 9.17333 185.185 7.872C185.185 6.54933 185.537 5.49867 186.241 4.72C186.924 3.94133 187.852 3.552 189.025 3.552C190.209 3.552 191.132 4.01067 191.793 4.928ZM186.529 7.936C186.529 8.91733 186.769 9.68 187.249 10.224C187.729 10.768 188.374 11.04 189.185 11.04C189.996 11.04 190.641 10.7573 191.121 10.192C191.601 9.63733 191.841 8.864 191.841 7.872C191.841 6.89067 191.601 6.11733 191.121 5.552C190.641 4.98667 189.996 4.704 189.185 4.704C188.385 4.704 187.74 4.99733 187.249 5.584C186.769 6.16 186.529 6.944 186.529 7.936ZM201.471 11.008C200.714 11.7973 199.754 12.192 198.591 12.192C197.429 12.192 196.469 11.7973 195.711 11.008C194.965 10.2293 194.591 9.184 194.591 7.872C194.591 6.56 194.965 5.51467 195.711 4.736C196.469 3.94667 197.429 3.552 198.591 3.552C199.754 3.552 200.714 3.94667 201.471 4.736C202.218 5.51467 202.591 6.56 202.591 7.872C202.591 9.184 202.218 10.2293 201.471 11.008ZM196.655 10.192C197.135 10.7573 197.781 11.04 198.591 11.04C199.402 11.04 200.047 10.7573 200.527 10.192C201.007 9.63733 201.247 8.864 201.247 7.872C201.247 6.86933 201.007 6.09067 200.527 5.536C200.047 4.98133 199.402 4.704 198.591 4.704C197.781 4.704 197.135 4.98133 196.655 5.536C196.175 6.09067 195.935 6.86933 195.935 7.872C195.935 8.864 196.175 9.63733 196.655 10.192ZM203.236 12V10.4H204.852V12.144C204.852 13.424 204.366 14.112 203.396 14.208L203.236 14.224V13.36L203.348 13.344C203.742 13.3013 203.94 12.9387 203.94 12.256V12H203.236ZM216.337 10.96H216.801V12C216.588 12.032 216.353 12.048 216.097 12.048C215.233 12.048 214.769 11.6533 214.705 10.864C214.129 11.7493 213.233 12.192 212.017 12.192C211.11 12.192 210.396 11.984 209.873 11.568C209.361 11.1413 209.105 10.544 209.105 9.776C209.105 8.28267 210.124 7.42933 212.161 7.216L213.345 7.088C214.209 6.992 214.641 6.61333 214.641 5.952C214.641 5.49333 214.497 5.16267 214.209 4.96C213.932 4.75733 213.457 4.656 212.785 4.656C212.07 4.656 211.553 4.77867 211.233 5.024C210.924 5.25867 210.748 5.68 210.705 6.288H209.425C209.532 4.464 210.652 3.552 212.785 3.552C214.854 3.552 215.889 4.352 215.889 5.952V10.56C215.889 10.8267 216.038 10.96 216.337 10.96ZM212.081 11.104C212.764 11.104 213.361 10.896 213.873 10.48C214.385 10.0747 214.641 9.49333 214.641 8.736V7.76C214.406 7.94133 214.044 8.05867 213.553 8.112L212.353 8.256C211.66 8.34133 211.164 8.50133 210.865 8.736C210.577 8.97067 210.433 9.30667 210.433 9.744C210.433 10.1707 210.572 10.5067 210.849 10.752C211.126 10.9867 211.537 11.104 212.081 11.104ZM223.369 8.416V3.744H224.649V12H223.433V10.768C222.803 11.7173 221.939 12.192 220.841 12.192C219.923 12.192 219.209 11.9413 218.697 11.44C218.185 10.9387 217.929 10.2347 217.929 9.328V3.744H219.209V9.2C219.209 10.4267 219.838 11.04 221.097 11.04C221.694 11.04 222.222 10.816 222.681 10.368C223.139 9.92 223.369 9.26933 223.369 8.416ZM230.185 3.744V4.864H228.489V10.224C228.489 10.6933 228.804 10.928 229.433 10.928H230.185V12C229.833 12.032 229.529 12.048 229.273 12.048C227.897 12.048 227.209 11.4773 227.209 10.336V4.864H225.849V3.744H227.209V1.408H228.489V3.744H230.185ZM237.862 11.008C237.105 11.7973 236.145 12.192 234.982 12.192C233.819 12.192 232.859 11.7973 232.102 11.008C231.355 10.2293 230.982 9.184 230.982 7.872C230.982 6.56 231.355 5.51467 232.102 4.736C232.859 3.94667 233.819 3.552 234.982 3.552C236.145 3.552 237.105 3.94667 237.862 4.736C238.609 5.51467 238.982 6.56 238.982 7.872C238.982 9.184 238.609 10.2293 237.862 11.008ZM233.046 10.192C233.526 10.7573 234.171 11.04 234.982 11.04C235.793 11.04 236.438 10.7573 236.918 10.192C237.398 9.63733 237.638 8.864 237.638 7.872C237.638 6.86933 237.398 6.09067 236.918 5.536C236.438 4.98133 235.793 4.704 234.982 4.704C234.171 4.704 233.526 4.98133 233.046 5.536C232.566 6.09067 232.326 6.86933 232.326 7.872C232.326 8.864 232.566 9.63733 233.046 10.192ZM249.195 3.552C250.091 3.552 250.784 3.81333 251.275 4.336C251.776 4.848 252.027 5.536 252.027 6.4V12H250.747V6.528C250.747 5.312 250.171 4.704 249.019 4.704C248.411 4.704 247.904 4.94933 247.499 5.44C247.104 5.92 246.907 6.60267 246.907 7.488V12H245.627V6.528C245.627 5.312 245.051 4.704 243.899 4.704C243.302 4.704 242.8 4.94933 242.395 5.44C241.99 5.92 241.787 6.60267 241.787 7.488V12H240.507V3.744H241.723V4.96C242.267 4.02133 243.062 3.552 244.107 3.552C245.344 3.552 246.192 4.06933 246.651 5.104C247.227 4.06933 248.075 3.552 249.195 3.552ZM260.696 10.96H261.16V12C260.947 12.032 260.712 12.048 260.456 12.048C259.592 12.048 259.128 11.6533 259.064 10.864C258.488 11.7493 257.592 12.192 256.376 12.192C255.47 12.192 254.755 11.984 254.232 11.568C253.72 11.1413 253.464 10.544 253.464 9.776C253.464 8.28267 254.483 7.42933 256.52 7.216L257.704 7.088C258.568 6.992 259 6.61333 259 5.952C259 5.49333 258.856 5.16267 258.568 4.96C258.291 4.75733 257.816 4.656 257.144 4.656C256.43 4.656 255.912 4.77867 255.592 5.024C255.283 5.25867 255.107 5.68 255.064 6.288H253.784C253.891 4.464 255.011 3.552 257.144 3.552C259.214 3.552 260.248 4.352 260.248 5.952V10.56C260.248 10.8267 260.398 10.96 260.696 10.96ZM256.44 11.104C257.123 11.104 257.72 10.896 258.232 10.48C258.744 10.0747 259 9.49333 259 8.736V7.76C258.766 7.94133 258.403 8.05867 257.912 8.112L256.712 8.256C256.019 8.34133 255.523 8.50133 255.224 8.736C254.936 8.97067 254.792 9.30667 254.792 9.744C254.792 10.1707 254.931 10.5067 255.208 10.752C255.486 10.9867 255.896 11.104 256.44 11.104ZM265.634 11.04C266.199 11.04 266.69 10.8747 267.106 10.544C267.522 10.2133 267.778 9.75467 267.874 9.168H269.186C269.069 9.968 268.759 10.6293 268.258 11.152C267.767 11.6747 267.138 12 266.37 12.128L265.714 12.88H265.858C266.295 12.88 266.642 12.9973 266.898 13.232C267.165 13.4667 267.298 13.7707 267.298 14.144C267.298 15.168 266.567 15.68 265.106 15.68C264.775 15.68 264.45 15.648 264.13 15.584V14.848C264.429 14.8907 264.738 14.912 265.058 14.912C265.367 14.912 265.613 14.848 265.794 14.72C265.975 14.592 266.066 14.4107 266.066 14.176C266.066 13.7387 265.762 13.52 265.154 13.52C264.951 13.52 264.802 13.5253 264.706 13.536V12.928L265.298 12.176C264.231 12.0907 263.383 11.664 262.754 10.896C262.125 10.1173 261.81 9.10933 261.81 7.872C261.81 6.54933 262.162 5.49867 262.866 4.72C263.549 3.94133 264.471 3.552 265.634 3.552C266.615 3.552 267.421 3.81867 268.05 4.352C268.679 4.88533 269.058 5.616 269.186 6.544H267.858C267.762 5.95733 267.506 5.504 267.09 5.184C266.685 4.864 266.199 4.704 265.634 4.704C264.877 4.704 264.274 4.98133 263.826 5.536C263.378 6.08 263.154 6.85867 263.154 7.872C263.154 8.87467 263.378 9.65333 263.826 10.208C264.285 10.7627 264.887 11.04 265.634 11.04ZM272.538 2.496H271.45C271.45 1.184 271.93 0.528 272.89 0.528C273.231 0.528 273.695 0.677333 274.282 0.976C274.719 1.21067 275.055 1.328 275.29 1.328C275.588 1.328 275.738 1.06133 275.738 0.528H276.826C276.826 1.84 276.346 2.496 275.386 2.496C275.087 2.496 274.602 2.34133 273.93 2.032C273.46 1.808 273.146 1.696 272.986 1.696C272.687 1.696 272.538 1.96267 272.538 2.496ZM277.034 11.008C276.276 11.7973 275.316 12.192 274.154 12.192C272.991 12.192 272.031 11.7973 271.274 11.008C270.527 10.2293 270.154 9.184 270.154 7.872C270.154 6.56 270.527 5.51467 271.274 4.736C272.031 3.94667 272.991 3.552 274.154 3.552C275.316 3.552 276.276 3.94667 277.034 4.736C277.78 5.51467 278.154 6.56 278.154 7.872C278.154 9.184 277.78 10.2293 277.034 11.008ZM272.218 10.192C272.698 10.7573 273.343 11.04 274.154 11.04C274.964 11.04 275.61 10.7573 276.09 10.192C276.57 9.63733 276.81 8.864 276.81 7.872C276.81 6.86933 276.57 6.09067 276.09 5.536C275.61 4.98133 274.964 4.704 274.154 4.704C273.343 4.704 272.698 4.98133 272.218 5.536C271.738 6.09067 271.498 6.86933 271.498 7.872C271.498 8.864 271.738 9.63733 272.218 10.192ZM286.879 7.872V8.32H280.607C280.671 9.216 280.921 9.89333 281.359 10.352C281.796 10.8 282.393 11.024 283.151 11.024C284.292 11.024 285.023 10.512 285.343 9.488H286.671C286.447 10.32 286.031 10.9813 285.423 11.472C284.815 11.952 284.047 12.192 283.119 12.192C281.977 12.192 281.055 11.8027 280.351 11.024C279.636 10.2453 279.279 9.19467 279.279 7.872C279.279 6.57067 279.631 5.52533 280.335 4.736C281.028 3.94667 281.945 3.552 283.087 3.552C284.271 3.552 285.199 3.96267 285.871 4.784C286.543 5.60533 286.879 6.63467 286.879 7.872ZM283.087 4.72C282.415 4.72 281.865 4.93333 281.439 5.36C281.012 5.776 280.745 6.37867 280.639 7.168H285.503C285.439 6.44267 285.193 5.856 284.767 5.408C284.34 4.94933 283.78 4.72 283.087 4.72ZM291.231 12.192C289.023 12.192 287.855 11.2533 287.727 9.376H289.023C289.098 9.99467 289.301 10.4373 289.631 10.704C289.973 10.96 290.506 11.088 291.231 11.088C292.554 11.088 293.215 10.6613 293.215 9.808C293.215 9.43467 293.077 9.152 292.799 8.96C292.533 8.768 292.042 8.60267 291.327 8.464L290.559 8.32C288.842 8 287.983 7.18933 287.983 5.888C287.983 5.17333 288.25 4.608 288.783 4.192C289.327 3.76533 290.063 3.552 290.991 3.552C293.178 3.552 294.298 4.464 294.351 6.288H293.071C293.039 5.69067 292.858 5.26933 292.527 5.024C292.197 4.77867 291.685 4.656 290.991 4.656C290.437 4.656 290.01 4.76267 289.711 4.976C289.413 5.18933 289.263 5.488 289.263 5.872C289.263 6.23467 289.391 6.50667 289.647 6.688C289.903 6.86933 290.33 7.024 290.927 7.152L291.663 7.296C292.677 7.49867 293.402 7.78667 293.839 8.16C294.287 8.53333 294.511 9.056 294.511 9.728C294.511 10.5067 294.218 11.1147 293.631 11.552C293.055 11.9787 292.255 12.192 291.231 12.192ZM306.035 7.872V8.32H299.763C299.827 9.216 300.078 9.89333 300.515 10.352C300.952 10.8 301.55 11.024 302.307 11.024C303.448 11.024 304.179 10.512 304.499 9.488H305.827C305.603 10.32 305.187 10.9813 304.579 11.472C303.971 11.952 303.203 12.192 302.275 12.192C301.134 12.192 300.211 11.8027 299.507 11.024C298.792 10.2453 298.435 9.19467 298.435 7.872C298.435 6.57067 298.787 5.52533 299.491 4.736C300.184 3.94667 301.102 3.552 302.243 3.552C303.427 3.552 304.355 3.96267 305.027 4.784C305.699 5.60533 306.035 6.63467 306.035 7.872ZM302.243 4.72C301.571 4.72 301.022 4.93333 300.595 5.36C300.168 5.776 299.902 6.37867 299.795 7.168H304.659C304.595 6.44267 304.35 5.856 303.923 5.408C303.496 4.94933 302.936 4.72 302.243 4.72ZM4.768 27.552C5.68533 27.552 6.4 27.8027 6.912 28.304C7.424 28.8053 7.68 29.5093 7.68 30.416V36H6.4V30.544C6.4 29.3173 5.77067 28.704 4.512 28.704C3.91467 28.704 3.38667 28.928 2.928 29.376C2.46933 29.824 2.24 30.4747 2.24 31.328V36H0.96V27.744H2.176V28.976C2.80533 28.0267 3.66933 27.552 4.768 27.552ZM14.7281 32.416V27.744H16.0081V36H14.7921V34.768C14.1628 35.7173 13.2988 36.192 12.2001 36.192C11.2828 36.192 10.5681 35.9413 10.0561 35.44C9.54413 34.9387 9.28813 34.2347 9.28813 33.328V27.744H10.5681V33.2C10.5681 34.4267 11.1975 35.04 12.4561 35.04C13.0535 35.04 13.5815 34.816 14.0401 34.368C14.4988 33.92 14.7281 33.2693 14.7281 32.416ZM21.5448 27.744V28.864H19.8488V34.224C19.8488 34.6933 20.1634 34.928 20.7928 34.928H21.5448V36C21.1928 36.032 20.8888 36.048 20.6328 36.048C19.2568 36.048 18.5688 35.4773 18.5688 34.336V28.864H17.2088V27.744H18.5688V25.408H19.8488V27.744H21.5448ZM26.7695 27.616C26.9828 27.616 27.1268 27.6213 27.2015 27.632V28.864H26.8815C26.0282 28.864 25.3615 29.0773 24.8815 29.504C24.4122 29.92 24.1775 30.5173 24.1775 31.296V36H22.8975V27.744H24.1135V29.2C24.6682 28.144 25.5535 27.616 26.7695 27.616ZM29.7095 26.496H28.3495V24.928H29.7095V26.496ZM29.6775 36H28.3975V27.744H29.6775V36ZM35.0246 35.04C35.59 35.04 36.0806 34.8747 36.4966 34.544C36.9126 34.2133 37.1686 33.7547 37.2646 33.168H38.5766C38.4593 33.968 38.15 34.6293 37.6486 35.152C37.158 35.6747 36.5286 36 35.7606 36.128L35.1046 36.88H35.2486C35.686 36.88 36.0326 36.9973 36.2886 37.232C36.5553 37.4667 36.6886 37.7707 36.6886 38.144C36.6886 39.168 35.958 39.68 34.4966 39.68C34.166 39.68 33.8406 39.648 33.5206 39.584V38.848C33.8193 38.8907 34.1286 38.912 34.4486 38.912C34.758 38.912 35.0033 38.848 35.1846 38.72C35.366 38.592 35.4566 38.4107 35.4566 38.176C35.4566 37.7387 35.1526 37.52 34.5446 37.52C34.342 37.52 34.1926 37.5253 34.0966 37.536V36.928L34.6886 36.176C33.622 36.0907 32.774 35.664 32.1446 34.896C31.5153 34.1173 31.2006 33.1093 31.2006 31.872C31.2006 30.5493 31.5526 29.4987 32.2566 28.72C32.9393 27.9413 33.862 27.552 35.0246 27.552C36.006 27.552 36.8113 27.8187 37.4406 28.352C38.07 28.8853 38.4486 29.616 38.5766 30.544H37.2486C37.1526 29.9573 36.8966 29.504 36.4806 29.184C36.0753 28.864 35.59 28.704 35.0246 28.704C34.2673 28.704 33.6646 28.9813 33.2166 29.536C32.7686 30.08 32.5446 30.8587 32.5446 31.872C32.5446 32.8747 32.7686 33.6533 33.2166 34.208C33.6753 34.7627 34.278 35.04 35.0246 35.04ZM41.9764 25.696C41.6777 25.696 41.5284 25.9627 41.5284 26.496H40.4404C40.4404 25.184 40.9204 24.528 41.8804 24.528C42.2217 24.528 42.6857 24.6773 43.2724 24.976C43.7097 25.2107 44.0457 25.328 44.2804 25.328C44.579 25.328 44.7284 25.0613 44.7284 24.528H45.8164C45.8164 25.84 45.3364 26.496 44.3764 26.496C44.0777 26.496 43.5924 26.3413 42.9204 26.032C42.451 25.808 42.1364 25.696 41.9764 25.696ZM46.6964 34.96H47.1604V36C46.947 36.032 46.7124 36.048 46.4564 36.048C45.5924 36.048 45.1284 35.6533 45.0644 34.864C44.4884 35.7493 43.5924 36.192 42.3764 36.192C41.4697 36.192 40.755 35.984 40.2324 35.568C39.7204 35.1413 39.4644 34.544 39.4644 33.776C39.4644 32.2827 40.483 31.4293 42.5204 31.216L43.7044 31.088C44.5684 30.992 45.0004 30.6133 45.0004 29.952C45.0004 29.4933 44.8564 29.1627 44.5684 28.96C44.291 28.7573 43.8164 28.656 43.1444 28.656C42.4297 28.656 41.9124 28.7787 41.5924 29.024C41.283 29.2587 41.107 29.68 41.0644 30.288H39.7844C39.891 28.464 41.011 27.552 43.1444 27.552C45.2137 27.552 46.2484 28.352 46.2484 29.952V34.56C46.2484 34.8267 46.3977 34.96 46.6964 34.96ZM42.4404 35.104C43.123 35.104 43.7204 34.896 44.2324 34.48C44.7444 34.0747 45.0004 33.4933 45.0004 32.736V31.76C44.7657 31.9413 44.403 32.0587 43.9124 32.112L42.7124 32.256C42.019 32.3413 41.523 32.5013 41.2244 32.736C40.9364 32.9707 40.7924 33.3067 40.7924 33.744C40.7924 34.1707 40.931 34.5067 41.2084 34.752C41.4857 34.9867 41.8964 35.104 42.4404 35.104ZM54.69 35.008C53.9327 35.7973 52.9727 36.192 51.81 36.192C50.6473 36.192 49.6873 35.7973 48.93 35.008C48.1833 34.2293 47.81 33.184 47.81 31.872C47.81 30.56 48.1833 29.5147 48.93 28.736C49.6873 27.9467 50.6473 27.552 51.81 27.552C52.9727 27.552 53.9327 27.9467 54.69 28.736C55.4367 29.5147 55.81 30.56 55.81 31.872C55.81 33.184 55.4367 34.2293 54.69 35.008ZM49.874 34.192C50.354 34.7573 50.9993 35.04 51.81 35.04C52.6207 35.04 53.266 34.7573 53.746 34.192C54.226 33.6373 54.466 32.864 54.466 31.872C54.466 30.8693 54.226 30.0907 53.746 29.536C53.266 28.9813 52.6207 28.704 51.81 28.704C50.9993 28.704 50.354 28.9813 49.874 29.536C49.394 30.0907 49.154 30.8693 49.154 31.872C49.154 32.864 49.394 33.6373 49.874 34.192ZM66.5899 28.928V24.608H67.8699V36H66.6539V34.72C65.9925 35.7013 65.0485 36.192 63.8219 36.192C62.6592 36.192 61.7312 35.7973 61.0379 35.008C60.3339 34.2187 59.9819 33.1733 59.9819 31.872C59.9819 30.5493 60.3339 29.4987 61.0379 28.72C61.7205 27.9413 62.6485 27.552 63.8219 27.552C65.0059 27.552 65.9285 28.0107 66.5899 28.928ZM61.3259 31.936C61.3259 32.9173 61.5659 33.68 62.0459 34.224C62.5259 34.768 63.1712 35.04 63.9819 35.04C64.7925 35.04 65.4379 34.7573 65.9179 34.192C66.3979 33.6373 66.6379 32.864 66.6379 31.872C66.6379 30.8907 66.3979 30.1173 65.9179 29.552C65.4379 28.9867 64.7925 28.704 63.9819 28.704C63.1819 28.704 62.5365 28.9973 62.0459 29.584C61.5659 30.16 61.3259 30.944 61.3259 31.936ZM76.9881 31.872V32.32H70.7161C70.7801 33.216 71.0308 33.8933 71.4681 34.352C71.9055 34.8 72.5028 35.024 73.2601 35.024C74.4015 35.024 75.1321 34.512 75.4521 33.488H76.7801C76.5561 34.32 76.1401 34.9813 75.5321 35.472C74.9241 35.952 74.1561 36.192 73.2281 36.192C72.0868 36.192 71.1641 35.8027 70.4601 35.024C69.7455 34.2453 69.3881 33.1947 69.3881 31.872C69.3881 30.5707 69.7401 29.5253 70.4441 28.736C71.1375 27.9467 72.0548 27.552 73.1961 27.552C74.3801 27.552 75.3081 27.9627 75.9801 28.784C76.6521 29.6053 76.9881 30.6347 76.9881 31.872ZM73.1961 28.72C72.5241 28.72 71.9748 28.9333 71.5481 29.36C71.1215 29.776 70.8548 30.3787 70.7481 31.168H75.6121C75.5481 30.4427 75.3028 29.856 74.8761 29.408C74.4495 28.9493 73.8895 28.72 73.1961 28.72ZM82.8338 36H81.5538V24.608H82.8338V36ZM91.9569 31.872V32.32H85.6849C85.7489 33.216 85.9995 33.8933 86.4369 34.352C86.8742 34.8 87.4715 35.024 88.2289 35.024C89.3702 35.024 90.1009 34.512 90.4209 33.488H91.7489C91.5249 34.32 91.1089 34.9813 90.5009 35.472C89.8929 35.952 89.1249 36.192 88.1969 36.192C87.0555 36.192 86.1329 35.8027 85.4289 35.024C84.7142 34.2453 84.3569 33.1947 84.3569 31.872C84.3569 30.5707 84.7089 29.5253 85.4129 28.736C86.1062 27.9467 87.0235 27.552 88.1649 27.552C89.3489 27.552 90.2769 27.9627 90.9489 28.784C91.6209 29.6053 91.9569 30.6347 91.9569 31.872ZM88.1649 28.72C87.4929 28.72 86.9435 28.9333 86.5169 29.36C86.0902 29.776 85.8235 30.3787 85.7169 31.168H90.5809C90.5169 30.4427 90.2715 29.856 89.8449 29.408C89.4182 28.9493 88.8582 28.72 88.1649 28.72ZM100.15 34.96H100.614V36C100.4 36.032 100.166 36.048 99.9095 36.048C99.0455 36.048 98.5815 35.6533 98.5175 34.864C97.9415 35.7493 97.0455 36.192 95.8295 36.192C94.9228 36.192 94.2082 35.984 93.6855 35.568C93.1735 35.1413 92.9175 34.544 92.9175 33.776C92.9175 32.2827 93.9362 31.4293 95.9735 31.216L97.1575 31.088C98.0215 30.992 98.4535 30.6133 98.4535 29.952C98.4535 29.4933 98.3095 29.1627 98.0215 28.96C97.7442 28.7573 97.2695 28.656 96.5975 28.656C95.8828 28.656 95.3655 28.7787 95.0455 29.024C94.7362 29.2587 94.5602 29.68 94.5175 30.288H93.2375C93.3442 28.464 94.4642 27.552 96.5975 27.552C98.6668 27.552 99.7015 28.352 99.7015 29.952V34.56C99.7015 34.8267 99.8508 34.96 100.15 34.96ZM95.8935 35.104C96.5762 35.104 97.1735 34.896 97.6855 34.48C98.1975 34.0747 98.4535 33.4933 98.4535 32.736V31.76C98.2188 31.9413 97.8562 32.0587 97.3655 32.112L96.1655 32.256C95.4722 32.3413 94.9762 32.5013 94.6775 32.736C94.3895 32.9707 94.2455 33.3067 94.2455 33.744C94.2455 34.1707 94.3842 34.5067 94.6615 34.752C94.9388 34.9867 95.3495 35.104 95.8935 35.104ZM107.871 28.928V24.608H109.151V36H107.935V34.72C107.274 35.7013 106.33 36.192 105.103 36.192C103.94 36.192 103.012 35.7973 102.319 35.008C101.615 34.2187 101.263 33.1733 101.263 31.872C101.263 30.5493 101.615 29.4987 102.319 28.72C103.002 27.9413 103.93 27.552 105.103 27.552C106.287 27.552 107.21 28.0107 107.871 28.928ZM102.607 31.936C102.607 32.9173 102.847 33.68 103.327 34.224C103.807 34.768 104.452 35.04 105.263 35.04C106.074 35.04 106.719 34.7573 107.199 34.192C107.679 33.6373 107.919 32.864 107.919 31.872C107.919 30.8907 107.679 30.1173 107.199 29.552C106.719 28.9867 106.074 28.704 105.263 28.704C104.463 28.704 103.818 28.9973 103.327 29.584C102.847 30.16 102.607 30.944 102.607 31.936ZM113.981 36.192C111.773 36.192 110.605 35.2533 110.477 33.376H111.773C111.848 33.9947 112.051 34.4373 112.381 34.704C112.723 34.96 113.256 35.088 113.981 35.088C115.304 35.088 115.965 34.6613 115.965 33.808C115.965 33.4347 115.827 33.152 115.549 32.96C115.283 32.768 114.792 32.6027 114.077 32.464L113.309 32.32C111.592 32 110.733 31.1893 110.733 29.888C110.733 29.1733 111 28.608 111.533 28.192C112.077 27.7653 112.813 27.552 113.741 27.552C115.928 27.552 117.048 28.464 117.101 30.288H115.821C115.789 29.6907 115.608 29.2693 115.277 29.024C114.947 28.7787 114.435 28.656 113.741 28.656C113.187 28.656 112.76 28.7627 112.461 28.976C112.163 29.1893 112.013 29.488 112.013 29.872C112.013 30.2347 112.141 30.5067 112.397 30.688C112.653 30.8693 113.08 31.024 113.677 31.152L114.413 31.296C115.427 31.4987 116.152 31.7867 116.589 32.16C117.037 32.5333 117.261 33.056 117.261 33.728C117.261 34.5067 116.968 35.1147 116.381 35.552C115.805 35.9787 115.005 36.192 113.981 36.192ZM118.298 36V34.4H119.914V36.144C119.914 37.424 119.429 38.112 118.458 38.208L118.298 38.224V37.36L118.41 37.344C118.805 37.3013 119.002 36.9387 119.002 36.256V36H118.298ZM128.072 36.192C126.93 36.192 126.008 35.7973 125.304 35.008C124.6 34.2187 124.248 33.1733 124.248 31.872C124.248 30.5493 124.6 29.4987 125.304 28.72C125.986 27.9413 126.909 27.552 128.072 27.552C129.053 27.552 129.858 27.8187 130.488 28.352C131.117 28.8853 131.496 29.616 131.624 30.544H130.296C130.2 29.9573 129.944 29.504 129.528 29.184C129.122 28.864 128.637 28.704 128.072 28.704C127.314 28.704 126.712 28.9813 126.264 29.536C125.816 30.08 125.592 30.8587 125.592 31.872C125.592 32.8747 125.816 33.6533 126.264 34.208C126.722 34.7627 127.325 35.04 128.072 35.04C128.637 35.04 129.128 34.8747 129.544 34.544C129.96 34.2133 130.216 33.7547 130.312 33.168H131.624C131.485 34.096 131.09 34.832 130.44 35.376C129.8 35.92 129.01 36.192 128.072 36.192ZM136.863 27.616C137.077 27.616 137.221 27.6213 137.295 27.632V28.864H136.975C136.122 28.864 135.455 29.0773 134.975 29.504C134.506 29.92 134.271 30.5173 134.271 31.296V36H132.991V27.744H134.207V29.2C134.762 28.144 135.647 27.616 136.863 27.616ZM139.803 26.496H138.443V24.928H139.803V26.496ZM139.771 36H138.491V27.744H139.771V36ZM148.446 34.96H148.91V36C148.697 36.032 148.462 36.048 148.206 36.048C147.342 36.048 146.878 35.6533 146.814 34.864C146.238 35.7493 145.342 36.192 144.126 36.192C143.22 36.192 142.505 35.984 141.982 35.568C141.47 35.1413 141.214 34.544 141.214 33.776C141.214 32.2827 142.233 31.4293 144.27 31.216L145.454 31.088C146.318 30.992 146.75 30.6133 146.75 29.952C146.75 29.4933 146.606 29.1627 146.318 28.96C146.041 28.7573 145.566 28.656 144.894 28.656C144.18 28.656 143.662 28.7787 143.342 29.024C143.033 29.2587 142.857 29.68 142.814 30.288H141.534C141.641 28.464 142.761 27.552 144.894 27.552C146.964 27.552 147.998 28.352 147.998 29.952V34.56C147.998 34.8267 148.148 34.96 148.446 34.96ZM144.19 35.104C144.873 35.104 145.47 34.896 145.982 34.48C146.494 34.0747 146.75 33.4933 146.75 32.736V31.76C146.516 31.9413 146.153 32.0587 145.662 32.112L144.462 32.256C143.769 32.3413 143.273 32.5013 142.974 32.736C142.686 32.9707 142.542 33.3067 142.542 33.744C142.542 34.1707 142.681 34.5067 142.958 34.752C143.236 34.9867 143.646 35.104 144.19 35.104ZM158.726 27.552C159.622 27.552 160.315 27.8133 160.806 28.336C161.307 28.848 161.558 29.536 161.558 30.4V36H160.278V30.528C160.278 29.312 159.702 28.704 158.55 28.704C157.942 28.704 157.435 28.9493 157.03 29.44C156.635 29.92 156.438 30.6027 156.438 31.488V36H155.158V30.528C155.158 29.312 154.582 28.704 153.43 28.704C152.833 28.704 152.331 28.9493 151.926 29.44C151.521 29.92 151.318 30.6027 151.318 31.488V36H150.038V27.744H151.254V28.96C151.798 28.0213 152.593 27.552 153.638 27.552C154.875 27.552 155.723 28.0693 156.182 29.104C156.758 28.0693 157.606 27.552 158.726 27.552ZM169.956 35.008C169.198 35.7973 168.238 36.192 167.076 36.192C165.913 36.192 164.953 35.7973 164.196 35.008C163.449 34.2293 163.076 33.184 163.076 31.872C163.076 30.56 163.449 29.5147 164.196 28.736C164.953 27.9467 165.913 27.552 167.076 27.552C168.238 27.552 169.198 27.9467 169.956 28.736C170.702 29.5147 171.076 30.56 171.076 31.872C171.076 33.184 170.702 34.2293 169.956 35.008ZM165.14 34.192C165.62 34.7573 166.265 35.04 167.076 35.04C167.886 35.04 168.532 34.7573 169.012 34.192C169.492 33.6373 169.732 32.864 169.732 31.872C169.732 30.8693 169.492 30.0907 169.012 29.536C168.532 28.9813 167.886 28.704 167.076 28.704C166.265 28.704 165.62 28.9813 165.14 29.536C164.66 30.0907 164.42 30.8693 164.42 31.872C164.42 32.864 164.66 33.6373 165.14 34.192ZM175.356 36.192C173.148 36.192 171.98 35.2533 171.852 33.376H173.148C173.223 33.9947 173.426 34.4373 173.756 34.704C174.098 34.96 174.631 35.088 175.356 35.088C176.679 35.088 177.34 34.6613 177.34 33.808C177.34 33.4347 177.202 33.152 176.924 32.96C176.658 32.768 176.167 32.6027 175.452 32.464L174.684 32.32C172.967 32 172.108 31.1893 172.108 29.888C172.108 29.1733 172.375 28.608 172.908 28.192C173.452 27.7653 174.188 27.552 175.116 27.552C177.303 27.552 178.423 28.464 178.476 30.288H177.196C177.164 29.6907 176.983 29.2693 176.652 29.024C176.322 28.7787 175.81 28.656 175.116 28.656C174.562 28.656 174.135 28.7627 173.836 28.976C173.538 29.1893 173.388 29.488 173.388 29.872C173.388 30.2347 173.516 30.5067 173.772 30.688C174.028 30.8693 174.455 31.024 175.052 31.152L175.788 31.296C176.802 31.4987 177.527 31.7867 177.964 32.16C178.412 32.5333 178.636 33.056 178.636 33.728C178.636 34.5067 178.343 35.1147 177.756 35.552C177.18 35.9787 176.38 36.192 175.356 36.192ZM188.4 32.416V27.744H189.68V36H188.464V34.768C187.835 35.7173 186.971 36.192 185.872 36.192C184.955 36.192 184.24 35.9413 183.728 35.44C183.216 34.9387 182.96 34.2347 182.96 33.328V27.744H184.24V33.2C184.24 34.4267 184.869 35.04 186.128 35.04C186.725 35.04 187.253 34.816 187.712 34.368C188.171 33.92 188.4 33.2693 188.4 32.416ZM200.289 27.552C201.185 27.552 201.878 27.8133 202.369 28.336C202.87 28.848 203.121 29.536 203.121 30.4V36H201.841V30.528C201.841 29.312 201.265 28.704 200.113 28.704C199.505 28.704 198.998 28.9493 198.593 29.44C198.198 29.92 198.001 30.6027 198.001 31.488V36H196.721V30.528C196.721 29.312 196.145 28.704 194.993 28.704C194.395 28.704 193.894 28.9493 193.489 29.44C193.083 29.92 192.881 30.6027 192.881 31.488V36H191.601V27.744H192.817V28.96C193.361 28.0213 194.155 27.552 195.201 27.552C196.438 27.552 197.286 28.0693 197.745 29.104C198.321 28.0693 199.169 27.552 200.289 27.552ZM211.79 34.96H212.254V36C212.041 36.032 211.806 36.048 211.55 36.048C210.686 36.048 210.222 35.6533 210.158 34.864C209.582 35.7493 208.686 36.192 207.47 36.192C206.563 36.192 205.849 35.984 205.326 35.568C204.814 35.1413 204.558 34.544 204.558 33.776C204.558 32.2827 205.577 31.4293 207.614 31.216L208.798 31.088C209.662 30.992 210.094 30.6133 210.094 29.952C210.094 29.4933 209.95 29.1627 209.662 28.96C209.385 28.7573 208.91 28.656 208.238 28.656C207.523 28.656 207.006 28.7787 206.686 29.024C206.377 29.2587 206.201 29.68 206.158 30.288H204.878C204.985 28.464 206.105 27.552 208.238 27.552C210.307 27.552 211.342 28.352 211.342 29.952V34.56C211.342 34.8267 211.491 34.96 211.79 34.96ZM207.534 35.104C208.217 35.104 208.814 34.896 209.326 34.48C209.838 34.0747 210.094 33.4933 210.094 32.736V31.76C209.859 31.9413 209.497 32.0587 209.006 32.112L207.806 32.256C207.113 32.3413 206.617 32.5013 206.318 32.736C206.03 32.9707 205.886 33.3067 205.886 33.744C205.886 34.1707 206.025 34.5067 206.302 34.752C206.579 34.9867 206.99 35.104 207.534 35.104ZM217.741 26.496H216.381V24.928H217.741V26.496ZM215.805 39.184C215.463 39.184 215.234 39.1787 215.117 39.168V38.064H215.645C216.167 38.064 216.429 37.8293 216.429 37.36V27.744H217.709V37.472C217.709 38.6133 217.074 39.184 215.805 39.184ZM226.112 35.008C225.355 35.7973 224.395 36.192 223.232 36.192C222.069 36.192 221.109 35.7973 220.352 35.008C219.605 34.2293 219.232 33.184 219.232 31.872C219.232 30.56 219.605 29.5147 220.352 28.736C221.109 27.9467 222.069 27.552 223.232 27.552C224.395 27.552 225.355 27.9467 226.112 28.736C226.859 29.5147 227.232 30.56 227.232 31.872C227.232 33.184 226.859 34.2293 226.112 35.008ZM221.296 34.192C221.776 34.7573 222.421 35.04 223.232 35.04C224.043 35.04 224.688 34.7573 225.168 34.192C225.648 33.6373 225.888 32.864 225.888 31.872C225.888 30.8693 225.648 30.0907 225.168 29.536C224.688 28.9813 224.043 28.704 223.232 28.704C222.421 28.704 221.776 28.9813 221.296 29.536C220.816 30.0907 220.576 30.8693 220.576 31.872C220.576 32.864 220.816 33.6373 221.296 34.192ZM232.629 27.616C232.842 27.616 232.986 27.6213 233.061 27.632V28.864H232.741C231.888 28.864 231.221 29.0773 230.741 29.504C230.272 29.92 230.037 30.5173 230.037 31.296V36H228.757V27.744H229.973V29.2C230.528 28.144 231.413 27.616 232.629 27.616ZM238.065 27.552C238.982 27.552 239.697 27.8027 240.209 28.304C240.721 28.8053 240.977 29.5093 240.977 30.416V36H239.697V30.544C239.697 29.3173 239.068 28.704 237.809 28.704C237.212 28.704 236.684 28.928 236.225 29.376C235.766 29.824 235.537 30.4747 235.537 31.328V36H234.257V27.744H235.473V28.976C236.102 28.0267 236.966 27.552 238.065 27.552ZM249.65 34.96H250.114V36C249.9 36.032 249.666 36.048 249.41 36.048C248.546 36.048 248.082 35.6533 248.018 34.864C247.442 35.7493 246.546 36.192 245.33 36.192C244.423 36.192 243.708 35.984 243.186 35.568C242.674 35.1413 242.418 34.544 242.418 33.776C242.418 32.2827 243.436 31.4293 245.474 31.216L246.658 31.088C247.522 30.992 247.954 30.6133 247.954 29.952C247.954 29.4933 247.81 29.1627 247.522 28.96C247.244 28.7573 246.77 28.656 246.098 28.656C245.383 28.656 244.866 28.7787 244.546 29.024C244.236 29.2587 244.06 29.68 244.018 30.288H242.738C242.844 28.464 243.964 27.552 246.098 27.552C248.167 27.552 249.202 28.352 249.202 29.952V34.56C249.202 34.8267 249.351 34.96 249.65 34.96ZM245.394 35.104C246.076 35.104 246.674 34.896 247.186 34.48C247.698 34.0747 247.954 33.4933 247.954 32.736V31.76C247.719 31.9413 247.356 32.0587 246.866 32.112L245.666 32.256C244.972 32.3413 244.476 32.5013 244.178 32.736C243.89 32.9707 243.746 33.3067 243.746 33.744C243.746 34.1707 243.884 34.5067 244.162 34.752C244.439 34.9867 244.85 35.104 245.394 35.104ZM257.371 28.928V24.608H258.651V36H257.435V34.72C256.774 35.7013 255.83 36.192 254.603 36.192C253.44 36.192 252.512 35.7973 251.819 35.008C251.115 34.2187 250.763 33.1733 250.763 31.872C250.763 30.5493 251.115 29.4987 251.819 28.72C252.502 27.9413 253.43 27.552 254.603 27.552C255.787 27.552 256.71 28.0107 257.371 28.928ZM252.107 31.936C252.107 32.9173 252.347 33.68 252.827 34.224C253.307 34.768 253.952 35.04 254.763 35.04C255.574 35.04 256.219 34.7573 256.699 34.192C257.179 33.6373 257.419 32.864 257.419 31.872C257.419 30.8907 257.179 30.1173 256.699 29.552C256.219 28.9867 255.574 28.704 254.763 28.704C253.963 28.704 253.318 28.9973 252.827 29.584C252.347 30.16 252.107 30.944 252.107 31.936ZM267.321 34.96H267.785V36C267.572 36.032 267.337 36.048 267.081 36.048C266.217 36.048 265.753 35.6533 265.689 34.864C265.113 35.7493 264.217 36.192 263.001 36.192C262.095 36.192 261.38 35.984 260.857 35.568C260.345 35.1413 260.089 34.544 260.089 33.776C260.089 32.2827 261.108 31.4293 263.145 31.216L264.329 31.088C265.193 30.992 265.625 30.6133 265.625 29.952C265.625 29.4933 265.481 29.1627 265.193 28.96C264.916 28.7573 264.441 28.656 263.769 28.656C263.055 28.656 262.537 28.7787 262.217 29.024C261.908 29.2587 261.732 29.68 261.689 30.288H260.409C260.516 28.464 261.636 27.552 263.769 27.552C265.839 27.552 266.873 28.352 266.873 29.952V34.56C266.873 34.8267 267.023 34.96 267.321 34.96ZM263.065 35.104C263.748 35.104 264.345 34.896 264.857 34.48C265.369 34.0747 265.625 33.4933 265.625 32.736V31.76C265.391 31.9413 265.028 32.0587 264.537 32.112L263.337 32.256C262.644 32.3413 262.148 32.5013 261.849 32.736C261.561 32.9707 261.417 33.3067 261.417 33.744C261.417 34.1707 261.556 34.5067 261.833 34.752C262.111 34.9867 262.521 35.104 263.065 35.104ZM278.232 29.024V27.744H279.448V39.136H278.168V34.816C277.507 35.7333 276.584 36.192 275.4 36.192C274.237 36.192 273.309 35.7973 272.616 35.008C271.912 34.2187 271.56 33.1733 271.56 31.872C271.56 30.5493 271.912 29.4987 272.616 28.72C273.299 27.9413 274.227 27.552 275.4 27.552C276.627 27.552 277.571 28.0427 278.232 29.024ZM272.904 31.936C272.904 32.9173 273.144 33.68 273.624 34.224C274.104 34.768 274.749 35.04 275.56 35.04C276.371 35.04 277.016 34.7573 277.496 34.192C277.976 33.6373 278.216 32.864 278.216 31.872C278.216 30.8907 277.976 30.1173 277.496 29.552C277.016 28.9867 276.371 28.704 275.56 28.704C274.76 28.704 274.115 28.9973 273.624 29.584C273.144 30.16 272.904 30.944 272.904 31.936ZM286.806 32.416V27.744H288.086V36H286.87V34.768C286.241 35.7173 285.377 36.192 284.278 36.192C283.361 36.192 282.646 35.9413 282.134 35.44C281.622 34.9387 281.366 34.2347 281.366 33.328V27.744H282.646V33.2C282.646 34.4267 283.276 35.04 284.534 35.04C285.132 35.04 285.66 34.816 286.118 34.368C286.577 33.92 286.806 33.2693 286.806 32.416ZM297.207 31.872V32.32H290.935C290.999 33.216 291.25 33.8933 291.687 34.352C292.124 34.8 292.722 35.024 293.479 35.024C294.62 35.024 295.351 34.512 295.671 33.488H296.999C296.775 34.32 296.359 34.9813 295.751 35.472C295.143 35.952 294.375 36.192 293.447 36.192C292.306 36.192 291.383 35.8027 290.679 35.024C289.964 34.2453 289.607 33.1947 289.607 31.872C289.607 30.5707 289.959 29.5253 290.663 28.736C291.356 27.9467 292.274 27.552 293.415 27.552C294.599 27.552 295.527 27.9627 296.199 28.784C296.871 29.6053 297.207 30.6347 297.207 31.872ZM293.415 28.72C292.743 28.72 292.194 28.9333 291.767 29.36C291.34 29.776 291.074 30.3787 290.967 31.168H295.831C295.767 30.4427 295.522 29.856 295.095 29.408C294.668 28.9493 294.108 28.72 293.415 28.72ZM308.525 34.96H308.989V36C308.775 36.032 308.541 36.048 308.285 36.048C307.421 36.048 306.957 35.6533 306.893 34.864C306.317 35.7493 305.421 36.192 304.205 36.192C303.298 36.192 302.583 35.984 302.061 35.568C301.549 35.1413 301.293 34.544 301.293 33.776C301.293 32.2827 302.311 31.4293 304.349 31.216L305.533 31.088C306.397 30.992 306.829 30.6133 306.829 29.952C306.829 29.4933 306.685 29.1627 306.397 28.96C306.119 28.7573 305.645 28.656 304.973 28.656C304.258 28.656 303.741 28.7787 303.421 29.024C303.111 29.2587 302.935 29.68 302.893 30.288H301.613C301.719 28.464 302.839 27.552 304.973 27.552C307.042 27.552 308.077 28.352 308.077 29.952V34.56C308.077 34.8267 308.226 34.96 308.525 34.96ZM304.269 35.104C304.951 35.104 305.549 34.896 306.061 34.48C306.573 34.0747 306.829 33.4933 306.829 32.736V31.76C306.594 31.9413 306.231 32.0587 305.741 32.112L304.541 32.256C303.847 32.3413 303.351 32.5013 303.053 32.736C302.765 32.9707 302.621 33.3067 302.621 33.744C302.621 34.1707 302.759 34.5067 303.037 34.752C303.314 34.9867 303.725 35.104 304.269 35.104ZM313.42 27.744V28.864H311.724V34.224C311.724 34.6933 312.038 34.928 312.668 34.928H313.42V36C313.068 36.032 312.764 36.048 312.508 36.048C311.132 36.048 310.444 35.4773 310.444 34.336V28.864H309.084V27.744H310.444V25.408H311.724V27.744H313.42ZM318.645 27.616C318.858 27.616 319.002 27.6213 319.077 27.632V28.864H318.757C317.903 28.864 317.237 29.0773 316.757 29.504C316.287 29.92 316.053 30.5173 316.053 31.296V36H314.773V27.744H315.989V29.2C316.543 28.144 317.429 27.616 318.645 27.616ZM326.462 34.96H326.926V36C326.713 36.032 326.478 36.048 326.222 36.048C325.358 36.048 324.894 35.6533 324.83 34.864C324.254 35.7493 323.358 36.192 322.142 36.192C321.235 36.192 320.521 35.984 319.998 35.568C319.486 35.1413 319.23 34.544 319.23 33.776C319.23 32.2827 320.249 31.4293 322.286 31.216L323.47 31.088C324.334 30.992 324.766 30.6133 324.766 29.952C324.766 29.4933 324.622 29.1627 324.334 28.96C324.057 28.7573 323.582 28.656 322.91 28.656C322.195 28.656 321.678 28.7787 321.358 29.024C321.049 29.2587 320.873 29.68 320.83 30.288H319.55C319.657 28.464 320.777 27.552 322.91 27.552C324.979 27.552 326.014 28.352 326.014 29.952V34.56C326.014 34.8267 326.163 34.96 326.462 34.96ZM322.206 35.104C322.889 35.104 323.486 34.896 323.998 34.48C324.51 34.0747 324.766 33.4933 324.766 32.736V31.76C324.531 31.9413 324.169 32.0587 323.678 32.112L322.478 32.256C321.785 32.3413 321.289 32.5013 320.99 32.736C320.702 32.9707 320.558 33.3067 320.558 33.744C320.558 34.1707 320.697 34.5067 320.974 34.752C321.251 34.9867 321.662 35.104 322.206 35.104ZM329.288 26.496H327.928V24.928H329.288V26.496ZM329.256 36H327.976V27.744H329.256V36ZM330.939 36V34.4H332.555V36.144C332.555 37.424 332.069 38.112 331.099 38.208L330.939 38.224V37.36L331.051 37.344C331.445 37.3013 331.643 36.9387 331.643 36.256V36H330.939ZM8.16 55.872V56.32H1.888C1.952 57.216 2.20267 57.8933 2.64 58.352C3.07733 58.8 3.67467 59.024 4.432 59.024C5.57333 59.024 6.304 58.512 6.624 57.488H7.952C7.728 58.32 7.312 58.9813 6.704 59.472C6.096 59.952 5.328 60.192 4.4 60.192C3.25867 60.192 2.336 59.8027 1.632 59.024C0.917333 58.2453 0.56 57.1947 0.56 55.872C0.56 54.5707 0.912 53.5253 1.616 52.736C2.30933 51.9467 3.22667 51.552 4.368 51.552C5.552 51.552 6.48 51.9627 7.152 52.784C7.824 53.6053 8.16 54.6347 8.16 55.872ZM4.368 52.72C3.696 52.72 3.14667 52.9333 2.72 53.36C2.29333 53.776 2.02667 54.3787 1.92 55.168H6.784C6.72 54.4427 6.47467 53.856 6.048 53.408C5.62133 52.9493 5.06133 52.72 4.368 52.72ZM13.4868 51.552C14.4041 51.552 15.1188 51.8027 15.6308 52.304C16.1428 52.8053 16.3988 53.5093 16.3988 54.416V60H15.1188V54.544C15.1188 53.3173 14.4894 52.704 13.2308 52.704C12.6334 52.704 12.1054 52.928 11.6468 53.376C11.1881 53.824 10.9588 54.4747 10.9588 55.328V60H9.67875V51.744H10.8948V52.976C11.5241 52.0267 12.3881 51.552 13.4868 51.552ZM22.1211 55.408L23.4811 51.744H24.8571L21.6091 60H20.2651L17.0331 51.744H18.4251L19.7851 55.424C20.4571 57.2267 20.8465 58.2933 20.9531 58.624C21.1451 58.0587 21.5345 56.9867 22.1211 55.408ZM31.8931 59.008C31.1358 59.7973 30.1758 60.192 29.0131 60.192C27.8505 60.192 26.8905 59.7973 26.1331 59.008C25.3865 58.2293 25.0131 57.184 25.0131 55.872C25.0131 54.56 25.3865 53.5147 26.1331 52.736C26.8905 51.9467 27.8505 51.552 29.0131 51.552C30.1758 51.552 31.1358 51.9467 31.8931 52.736C32.6398 53.5147 33.0131 54.56 33.0131 55.872C33.0131 57.184 32.6398 58.2293 31.8931 59.008ZM27.0771 58.192C27.5571 58.7573 28.2025 59.04 29.0131 59.04C29.8238 59.04 30.4691 58.7573 30.9491 58.192C31.4291 57.6373 31.6691 56.864 31.6691 55.872C31.6691 54.8693 31.4291 54.0907 30.9491 53.536C30.4691 52.9813 29.8238 52.704 29.0131 52.704C28.2025 52.704 27.5571 52.9813 27.0771 53.536C26.5971 54.0907 26.3571 54.8693 26.3571 55.872C26.3571 56.864 26.5971 57.6373 27.0771 58.192ZM35.8181 60H34.5381V48.608H35.8181V60ZM41.793 55.408L43.153 51.744H44.529L41.281 60H39.937L36.705 51.744H38.097L39.457 55.424C40.129 57.2267 40.5183 58.2933 40.625 58.624C40.817 58.0587 41.2063 56.9867 41.793 55.408ZM52.285 55.872V56.32H46.013C46.077 57.216 46.3277 57.8933 46.765 58.352C47.2023 58.8 47.7997 59.024 48.557 59.024C49.6983 59.024 50.429 58.512 50.749 57.488H52.077C51.853 58.32 51.437 58.9813 50.829 59.472C50.221 59.952 49.453 60.192 48.525 60.192C47.3837 60.192 46.461 59.8027 45.757 59.024C45.0423 58.2453 44.685 57.1947 44.685 55.872C44.685 54.5707 45.037 53.5253 45.741 52.736C46.4343 51.9467 47.3517 51.552 48.493 51.552C49.677 51.552 50.605 51.9627 51.277 52.784C51.949 53.6053 52.285 54.6347 52.285 55.872ZM48.493 52.72C47.821 52.72 47.2717 52.9333 46.845 53.36C46.4183 53.776 46.1517 54.3787 46.045 55.168H50.909C50.845 54.4427 50.5997 53.856 50.173 53.408C49.7463 52.9493 49.1863 52.72 48.493 52.72ZM64.0506 55.872V56.32H57.7786C57.8426 57.216 58.0933 57.8933 58.5306 58.352C58.968 58.8 59.5653 59.024 60.3226 59.024C61.464 59.024 62.1946 58.512 62.5146 57.488H63.8426C63.6186 58.32 63.2026 58.9813 62.5946 59.472C61.9866 59.952 61.2186 60.192 60.2906 60.192C59.1493 60.192 58.2266 59.8027 57.5226 59.024C56.808 58.2453 56.4506 57.1947 56.4506 55.872C56.4506 54.5707 56.8026 53.5253 57.5066 52.736C58.2 51.9467 59.1173 51.552 60.2586 51.552C61.4426 51.552 62.3706 51.9627 63.0426 52.784C63.7146 53.6053 64.0506 54.6347 64.0506 55.872ZM60.2586 52.72C59.5866 52.72 59.0373 52.9333 58.6106 53.36C58.184 53.776 57.9173 54.3787 57.8106 55.168H62.6746C62.6106 54.4427 62.3653 53.856 61.9386 53.408C61.512 52.9493 60.952 52.72 60.2586 52.72ZM72.0403 60.192C70.8989 60.192 69.9763 59.7973 69.2723 59.008C68.5683 58.2187 68.2163 57.1733 68.2163 55.872C68.2163 54.5493 68.5683 53.4987 69.2723 52.72C69.9549 51.9413 70.8776 51.552 72.0403 51.552C73.0216 51.552 73.8269 51.8187 74.4563 52.352C75.0856 52.8853 75.4643 53.616 75.5923 54.544H74.2643C74.1683 53.9573 73.9123 53.504 73.4963 53.184C73.0909 52.864 72.6056 52.704 72.0403 52.704C71.2829 52.704 70.6803 52.9813 70.2323 53.536C69.7843 54.08 69.5603 54.8587 69.5603 55.872C69.5603 56.8747 69.7843 57.6533 70.2323 58.208C70.6909 58.7627 71.2936 59.04 72.0403 59.04C72.6056 59.04 73.0963 58.8747 73.5123 58.544C73.9283 58.2133 74.1843 57.7547 74.2803 57.168H75.5923C75.4536 58.096 75.0589 58.832 74.4083 59.376C73.7683 59.92 72.9789 60.192 72.0403 60.192ZM83.44 59.008C82.6827 59.7973 81.7227 60.192 80.56 60.192C79.3973 60.192 78.4373 59.7973 77.68 59.008C76.9333 58.2293 76.56 57.184 76.56 55.872C76.56 54.56 76.9333 53.5147 77.68 52.736C78.4373 51.9467 79.3973 51.552 80.56 51.552C81.7227 51.552 82.6827 51.9467 83.44 52.736C84.1867 53.5147 84.56 54.56 84.56 55.872C84.56 57.184 84.1867 58.2293 83.44 59.008ZM78.624 58.192C79.104 58.7573 79.7493 59.04 80.56 59.04C81.3707 59.04 82.016 58.7573 82.496 58.192C82.976 57.6373 83.216 56.864 83.216 55.872C83.216 54.8693 82.976 54.0907 82.496 53.536C82.016 52.9813 81.3707 52.704 80.56 52.704C79.7493 52.704 79.104 52.9813 78.624 53.536C78.144 54.0907 77.904 54.8693 77.904 55.872C77.904 56.864 78.144 57.6373 78.624 58.192ZM89.893 51.552C90.8103 51.552 91.525 51.8027 92.037 52.304C92.549 52.8053 92.805 53.5093 92.805 54.416V60H91.525V54.544C91.525 53.3173 90.8957 52.704 89.637 52.704C89.0397 52.704 88.5117 52.928 88.053 53.376C87.5943 53.824 87.365 54.4747 87.365 55.328V60H86.085V51.744H87.301V52.976C87.9303 52.0267 88.7943 51.552 89.893 51.552ZM98.5274 55.408L99.8874 51.744H101.263L98.0154 60H96.6714L93.4394 51.744H94.8314L96.1914 55.424C96.8634 57.2267 97.2527 58.2933 97.3594 58.624C97.5514 58.0587 97.9407 56.9867 98.5274 55.408ZM109.019 55.872V56.32H102.747C102.811 57.216 103.062 57.8933 103.499 58.352C103.937 58.8 104.534 59.024 105.291 59.024C106.433 59.024 107.163 58.512 107.483 57.488H108.811C108.587 58.32 108.171 58.9813 107.563 59.472C106.955 59.952 106.187 60.192 105.259 60.192C104.118 60.192 103.195 59.8027 102.491 59.024C101.777 58.2453 101.419 57.1947 101.419 55.872C101.419 54.5707 101.771 53.5253 102.475 52.736C103.169 51.9467 104.086 51.552 105.227 51.552C106.411 51.552 107.339 51.9627 108.011 52.784C108.683 53.6053 109.019 54.6347 109.019 55.872ZM105.227 52.72C104.555 52.72 104.006 52.9333 103.579 53.36C103.153 53.776 102.886 54.3787 102.779 55.168H107.643C107.579 54.4427 107.334 53.856 106.907 53.408C106.481 52.9493 105.921 52.72 105.227 52.72ZM114.41 51.616C114.623 51.616 114.767 51.6213 114.842 51.632V52.864H114.522C113.669 52.864 113.002 53.0773 112.522 53.504C112.053 53.92 111.818 54.5173 111.818 55.296V60H110.538V51.744H111.754V53.2C112.309 52.144 113.194 51.616 114.41 51.616ZM119.732 51.744V52.864H118.036V58.224C118.036 58.6933 118.351 58.928 118.98 58.928H119.732V60C119.38 60.032 119.076 60.048 118.82 60.048C117.444 60.048 116.756 59.4773 116.756 58.336V52.864H115.396V51.744H116.756V49.408H118.036V51.744H119.732ZM128.129 55.872V56.32H121.857C121.921 57.216 122.171 57.8933 122.609 58.352C123.046 58.8 123.643 59.024 124.401 59.024C125.542 59.024 126.273 58.512 126.593 57.488H127.921C127.697 58.32 127.281 58.9813 126.673 59.472C126.065 59.952 125.297 60.192 124.369 60.192C123.227 60.192 122.305 59.8027 121.601 59.024C120.886 58.2453 120.529 57.1947 120.529 55.872C120.529 54.5707 120.881 53.5253 121.585 52.736C122.278 51.9467 123.195 51.552 124.337 51.552C125.521 51.552 126.449 51.9627 127.121 52.784C127.793 53.6053 128.129 54.6347 128.129 55.872ZM124.337 52.72C123.665 52.72 123.115 52.9333 122.689 53.36C122.262 53.776 121.995 54.3787 121.889 55.168H126.753C126.689 54.4427 126.443 53.856 126.017 53.408C125.59 52.9493 125.03 52.72 124.337 52.72ZM130.383 60H128.767V58.4H130.383V60ZM143.116 48.608V49.824H136.54V53.456H142.476V54.672H136.54V58.784H143.052V60H135.196V48.608H143.116ZM153.164 51.552C154.06 51.552 154.753 51.8133 155.244 52.336C155.745 52.848 155.996 53.536 155.996 54.4V60H154.716V54.528C154.716 53.312 154.14 52.704 152.988 52.704C152.38 52.704 151.873 52.9493 151.468 53.44C151.073 53.92 150.876 54.6027 150.876 55.488V60H149.596V54.528C149.596 53.312 149.02 52.704 147.868 52.704C147.27 52.704 146.769 52.9493 146.364 53.44C145.958 53.92 145.756 54.6027 145.756 55.488V60H144.476V51.744H145.692V52.96C146.236 52.0213 147.03 51.552 148.076 51.552C149.313 51.552 150.161 52.0693 150.62 53.104C151.196 52.0693 152.044 51.552 153.164 51.552ZM165.168 55.408L166.528 51.744H167.904L164.656 60H163.312L160.08 51.744H161.472L162.832 55.424C163.504 57.2267 163.893 58.2933 164 58.624C164.192 58.0587 164.581 56.9867 165.168 55.408ZM175.66 55.872V56.32H169.388C169.452 57.216 169.703 57.8933 170.14 58.352C170.577 58.8 171.175 59.024 171.932 59.024C173.073 59.024 173.804 58.512 174.124 57.488H175.452C175.228 58.32 174.812 58.9813 174.204 59.472C173.596 59.952 172.828 60.192 171.9 60.192C170.759 60.192 169.836 59.8027 169.132 59.024C168.417 58.2453 168.06 57.1947 168.06 55.872C168.06 54.5707 168.412 53.5253 169.116 52.736C169.809 51.9467 170.727 51.552 171.868 51.552C173.052 51.552 173.98 51.9627 174.652 52.784C175.324 53.6053 175.66 54.6347 175.66 55.872ZM171.868 52.72C171.196 52.72 170.647 52.9333 170.22 53.36C169.793 53.776 169.527 54.3787 169.42 55.168H174.284C174.22 54.4427 173.975 53.856 173.548 53.408C173.121 52.9493 172.561 52.72 171.868 52.72ZM179.576 58.88H182.888V60H176.216V59.04L179.992 54.176C180.174 53.952 180.387 53.6853 180.632 53.376C180.878 53.0667 181.022 52.8853 181.064 52.832C180.531 52.8533 179.944 52.864 179.304 52.864H176.376V51.744H182.664V52.704L178.888 57.568C178.707 57.792 178.494 58.0587 178.248 58.368C178.003 58.6773 177.859 58.8587 177.816 58.912C178.35 58.8907 178.936 58.88 179.576 58.88ZM193.668 52.928V48.608H194.948V60H193.732V58.72C193.071 59.7013 192.127 60.192 190.9 60.192C189.737 60.192 188.809 59.7973 188.116 59.008C187.412 58.2187 187.06 57.1733 187.06 55.872C187.06 54.5493 187.412 53.4987 188.116 52.72C188.799 51.9413 189.727 51.552 190.9 51.552C192.084 51.552 193.007 52.0107 193.668 52.928ZM188.404 55.936C188.404 56.9173 188.644 57.68 189.124 58.224C189.604 58.768 190.249 59.04 191.06 59.04C191.871 59.04 192.516 58.7573 192.996 58.192C193.476 57.6373 193.716 56.864 193.716 55.872C193.716 54.8907 193.476 54.1173 192.996 53.552C192.516 52.9867 191.871 52.704 191.06 52.704C190.26 52.704 189.615 52.9973 189.124 53.584C188.644 54.16 188.404 54.944 188.404 55.936ZM204.066 55.872V56.32H197.794C197.858 57.216 198.109 57.8933 198.546 58.352C198.984 58.8 199.581 59.024 200.338 59.024C201.48 59.024 202.21 58.512 202.53 57.488H203.858C203.634 58.32 203.218 58.9813 202.61 59.472C202.002 59.952 201.234 60.192 200.306 60.192C199.165 60.192 198.242 59.8027 197.538 59.024C196.824 58.2453 196.466 57.1947 196.466 55.872C196.466 54.5707 196.818 53.5253 197.522 52.736C198.216 51.9467 199.133 51.552 200.274 51.552C201.458 51.552 202.386 51.9627 203.058 52.784C203.73 53.6053 204.066 54.6347 204.066 55.872ZM200.274 52.72C199.602 52.72 199.053 52.9333 198.626 53.36C198.2 53.776 197.933 54.3787 197.826 55.168H202.69C202.626 54.4427 202.381 53.856 201.954 53.408C201.528 52.9493 200.968 52.72 200.274 52.72ZM212.056 60.192C210.915 60.192 209.992 59.7973 209.288 59.008C208.584 58.2187 208.232 57.1733 208.232 55.872C208.232 54.5493 208.584 53.4987 209.288 52.72C209.971 51.9413 210.893 51.552 212.056 51.552C213.037 51.552 213.843 51.8187 214.472 52.352C215.101 52.8853 215.48 53.616 215.608 54.544H214.28C214.184 53.9573 213.928 53.504 213.512 53.184C213.107 52.864 212.621 52.704 212.056 52.704C211.299 52.704 210.696 52.9813 210.248 53.536C209.8 54.08 209.576 54.8587 209.576 55.872C209.576 56.8747 209.8 57.6533 210.248 58.208C210.707 58.7627 211.309 59.04 212.056 59.04C212.621 59.04 213.112 58.8747 213.528 58.544C213.944 58.2133 214.2 57.7547 214.296 57.168H215.608C215.469 58.096 215.075 58.832 214.424 59.376C213.784 59.92 212.995 60.192 212.056 60.192ZM223.456 59.008C222.698 59.7973 221.738 60.192 220.576 60.192C219.413 60.192 218.453 59.7973 217.696 59.008C216.949 58.2293 216.576 57.184 216.576 55.872C216.576 54.56 216.949 53.5147 217.696 52.736C218.453 51.9467 219.413 51.552 220.576 51.552C221.738 51.552 222.698 51.9467 223.456 52.736C224.202 53.5147 224.576 54.56 224.576 55.872C224.576 57.184 224.202 58.2293 223.456 59.008ZM218.64 58.192C219.12 58.7573 219.765 59.04 220.576 59.04C221.386 59.04 222.032 58.7573 222.512 58.192C222.992 57.6373 223.232 56.864 223.232 55.872C223.232 54.8693 222.992 54.0907 222.512 53.536C222.032 52.9813 221.386 52.704 220.576 52.704C219.765 52.704 219.12 52.9813 218.64 53.536C218.16 54.0907 217.92 54.8693 217.92 55.872C217.92 56.864 218.16 57.6373 218.64 58.192ZM229.973 51.616C230.186 51.616 230.33 51.6213 230.405 51.632V52.864H230.085C229.231 52.864 228.565 53.0773 228.085 53.504C227.615 53.92 227.381 54.5173 227.381 55.296V60H226.101V51.744H227.317V53.2C227.871 52.144 228.757 51.616 229.973 51.616ZM235.473 51.616C235.686 51.616 235.83 51.6213 235.905 51.632V52.864H235.585C234.731 52.864 234.065 53.0773 233.585 53.504C233.115 53.92 232.881 54.5173 232.881 55.296V60H231.601V51.744H232.817V53.2C233.371 52.144 234.257 51.616 235.473 51.616ZM243.816 55.872V56.32H237.544C237.608 57.216 237.859 57.8933 238.296 58.352C238.734 58.8 239.331 59.024 240.088 59.024C241.23 59.024 241.96 58.512 242.28 57.488H243.608C243.384 58.32 242.968 58.9813 242.36 59.472C241.752 59.952 240.984 60.192 240.056 60.192C238.915 60.192 237.992 59.8027 237.288 59.024C236.574 58.2453 236.216 57.1947 236.216 55.872C236.216 54.5707 236.568 53.5253 237.272 52.736C237.966 51.9467 238.883 51.552 240.024 51.552C241.208 51.552 242.136 51.9627 242.808 52.784C243.48 53.6053 243.816 54.6347 243.816 55.872ZM240.024 52.72C239.352 52.72 238.803 52.9333 238.376 53.36C237.95 53.776 237.683 54.3787 237.576 55.168H242.44C242.376 54.4427 242.131 53.856 241.704 53.408C241.278 52.9493 240.718 52.72 240.024 52.72ZM249.207 51.616C249.42 51.616 249.564 51.6213 249.639 51.632V52.864H249.319C248.466 52.864 247.799 53.0773 247.319 53.504C246.85 53.92 246.615 54.5173 246.615 55.296V60H245.335V51.744H246.551V53.2C247.106 52.144 247.991 51.616 249.207 51.616ZM260.79 58.96H261.254V60C261.041 60.032 260.806 60.048 260.55 60.048C259.686 60.048 259.222 59.6533 259.158 58.864C258.582 59.7493 257.686 60.192 256.47 60.192C255.563 60.192 254.849 59.984 254.326 59.568C253.814 59.1413 253.558 58.544 253.558 57.776C253.558 56.2827 254.577 55.4293 256.614 55.216L257.798 55.088C258.662 54.992 259.094 54.6133 259.094 53.952C259.094 53.4933 258.95 53.1627 258.662 52.96C258.385 52.7573 257.91 52.656 257.238 52.656C256.523 52.656 256.006 52.7787 255.686 53.024C255.377 53.2587 255.201 53.68 255.158 54.288H253.878C253.985 52.464 255.105 51.552 257.238 51.552C259.307 51.552 260.342 52.352 260.342 53.952V58.56C260.342 58.8267 260.491 58.96 260.79 58.96ZM256.534 59.104C257.217 59.104 257.814 58.896 258.326 58.48C258.838 58.0747 259.094 57.4933 259.094 56.736V55.76C258.859 55.9413 258.497 56.0587 258.006 56.112L256.806 56.256C256.113 56.3413 255.617 56.5013 255.318 56.736C255.03 56.9707 254.886 57.3067 254.886 57.744C254.886 58.1707 255.025 58.5067 255.302 58.752C255.579 58.9867 255.99 59.104 256.534 59.104ZM265.685 51.744V52.864H263.989V58.224C263.989 58.6933 264.304 58.928 264.933 58.928H265.685V60C265.333 60.032 265.029 60.048 264.773 60.048C263.397 60.048 262.709 59.4773 262.709 58.336V52.864H261.349V51.744H262.709V49.408H263.989V51.744H265.685ZM270.91 51.616C271.123 51.616 271.267 51.6213 271.342 51.632V52.864H271.022C270.169 52.864 269.502 53.0773 269.022 53.504C268.553 53.92 268.318 54.5173 268.318 55.296V60H267.038V51.744H268.254V53.2C268.809 52.144 269.694 51.616 270.91 51.616ZM276.024 48.192H277.752L275.784 50.496H274.648L276.024 48.192ZM278.728 58.96H279.192V60C278.978 60.032 278.744 60.048 278.488 60.048C277.624 60.048 277.16 59.6533 277.096 58.864C276.52 59.7493 275.624 60.192 274.408 60.192C273.501 60.192 272.786 59.984 272.264 59.568C271.752 59.1413 271.496 58.544 271.496 57.776C271.496 56.2827 272.514 55.4293 274.552 55.216L275.736 55.088C276.6 54.992 277.032 54.6133 277.032 53.952C277.032 53.4933 276.888 53.1627 276.6 52.96C276.322 52.7573 275.848 52.656 275.176 52.656C274.461 52.656 273.944 52.7787 273.624 53.024C273.314 53.2587 273.138 53.68 273.096 54.288H271.816C271.922 52.464 273.042 51.552 275.176 51.552C277.245 51.552 278.28 52.352 278.28 53.952V58.56C278.28 58.8267 278.429 58.96 278.728 58.96ZM274.472 59.104C275.154 59.104 275.752 58.896 276.264 58.48C276.776 58.0747 277.032 57.4933 277.032 56.736V55.76C276.797 55.9413 276.434 56.0587 275.944 56.112L274.744 56.256C274.05 56.3413 273.554 56.5013 273.256 56.736C272.968 56.9707 272.824 57.3067 272.824 57.744C272.824 58.1707 272.962 58.5067 273.24 58.752C273.517 58.9867 273.928 59.104 274.472 59.104ZM283.231 60.192C281.023 60.192 279.855 59.2533 279.727 57.376H281.023C281.098 57.9947 281.301 58.4373 281.631 58.704C281.973 58.96 282.506 59.088 283.231 59.088C284.554 59.088 285.215 58.6613 285.215 57.808C285.215 57.4347 285.077 57.152 284.799 56.96C284.533 56.768 284.042 56.6027 283.327 56.464L282.559 56.32C280.842 56 279.983 55.1893 279.983 53.888C279.983 53.1733 280.25 52.608 280.783 52.192C281.327 51.7653 282.063 51.552 282.991 51.552C285.178 51.552 286.298 52.464 286.351 54.288H285.071C285.039 53.6907 284.858 53.2693 284.527 53.024C284.197 52.7787 283.685 52.656 282.991 52.656C282.437 52.656 282.01 52.7627 281.711 52.976C281.413 53.1893 281.263 53.488 281.263 53.872C281.263 54.2347 281.391 54.5067 281.647 54.688C281.903 54.8693 282.33 55.024 282.927 55.152L283.663 55.296C284.677 55.4987 285.402 55.7867 285.839 56.16C286.287 56.5333 286.511 57.056 286.511 57.728C286.511 58.5067 286.218 59.1147 285.631 59.552C285.055 59.9787 284.255 60.192 283.231 60.192ZM297.043 52.928V48.608H298.323V60H297.107V58.72C296.446 59.7013 295.502 60.192 294.275 60.192C293.112 60.192 292.184 59.7973 291.491 59.008C290.787 58.2187 290.435 57.1733 290.435 55.872C290.435 54.5493 290.787 53.4987 291.491 52.72C292.174 51.9413 293.102 51.552 294.275 51.552C295.459 51.552 296.382 52.0107 297.043 52.928ZM291.779 55.936C291.779 56.9173 292.019 57.68 292.499 58.224C292.979 58.768 293.624 59.04 294.435 59.04C295.246 59.04 295.891 58.7573 296.371 58.192C296.851 57.6373 297.091 56.864 297.091 55.872C297.091 54.8907 296.851 54.1173 296.371 53.552C295.891 52.9867 295.246 52.704 294.435 52.704C293.635 52.704 292.99 52.9973 292.499 53.584C292.019 54.16 291.779 54.944 291.779 55.936ZM306.721 59.008C305.964 59.7973 305.004 60.192 303.841 60.192C302.679 60.192 301.719 59.7973 300.961 59.008C300.215 58.2293 299.841 57.184 299.841 55.872C299.841 54.56 300.215 53.5147 300.961 52.736C301.719 51.9467 302.679 51.552 303.841 51.552C305.004 51.552 305.964 51.9467 306.721 52.736C307.468 53.5147 307.841 54.56 307.841 55.872C307.841 57.184 307.468 58.2293 306.721 59.008ZM301.905 58.192C302.385 58.7573 303.031 59.04 303.841 59.04C304.652 59.04 305.297 58.7573 305.777 58.192C306.257 57.6373 306.497 56.864 306.497 55.872C306.497 54.8693 306.257 54.0907 305.777 53.536C305.297 52.9813 304.652 52.704 303.841 52.704C303.031 52.704 302.385 52.9813 301.905 53.536C301.425 54.0907 301.185 54.8693 301.185 55.872C301.185 56.864 301.425 57.6373 301.905 58.192ZM312.122 60.192C309.914 60.192 308.746 59.2533 308.618 57.376H309.914C309.989 57.9947 310.191 58.4373 310.522 58.704C310.863 58.96 311.397 59.088 312.122 59.088C313.445 59.088 314.106 58.6613 314.106 57.808C314.106 57.4347 313.967 57.152 313.69 56.96C313.423 56.768 312.933 56.6027 312.218 56.464L311.45 56.32C309.733 56 308.874 55.1893 308.874 53.888C308.874 53.1733 309.141 52.608 309.674 52.192C310.218 51.7653 310.954 51.552 311.882 51.552C314.069 51.552 315.189 52.464 315.242 54.288H313.962C313.93 53.6907 313.749 53.2693 313.418 53.024C313.087 52.7787 312.575 52.656 311.882 52.656C311.327 52.656 310.901 52.7627 310.602 52.976C310.303 53.1893 310.154 53.488 310.154 53.872C310.154 54.2347 310.282 54.5067 310.538 54.688C310.794 54.8693 311.221 55.024 311.818 55.152L312.554 55.296C313.567 55.4987 314.293 55.7867 314.73 56.16C315.178 56.5333 315.402 57.056 315.402 57.728C315.402 58.5067 315.109 59.1147 314.522 59.552C313.946 59.9787 313.146 60.192 312.122 60.192ZM4.384 84.192C3.24267 84.192 2.32 83.7973 1.616 83.008C0.912 82.2187 0.56 81.1733 0.56 79.872C0.56 78.5493 0.912 77.4987 1.616 76.72C2.29867 75.9413 3.22133 75.552 4.384 75.552C5.36533 75.552 6.17067 75.8187 6.8 76.352C7.42933 76.8853 7.808 77.616 7.936 78.544H6.608C6.512 77.9573 6.256 77.504 5.84 77.184C5.43467 76.864 4.94933 76.704 4.384 76.704C3.62667 76.704 3.024 76.9813 2.576 77.536C2.128 78.08 1.904 78.8587 1.904 79.872C1.904 80.8747 2.128 81.6533 2.576 82.208C3.03467 82.7627 3.63733 83.04 4.384 83.04C4.94933 83.04 5.44 82.8747 5.856 82.544C6.272 82.2133 6.528 81.7547 6.624 81.168H7.936C7.79733 82.096 7.40267 82.832 6.752 83.376C6.112 83.92 5.32267 84.192 4.384 84.192ZM10.5838 84H9.30375V72.608H10.5838V84ZM13.8189 74.496H12.4589V72.928H13.8189V74.496ZM13.7869 84H12.5069V75.744H13.7869V84ZM22.91 79.872V80.32H16.638C16.702 81.216 16.9527 81.8933 17.39 82.352C17.8273 82.8 18.4247 83.024 19.182 83.024C20.3233 83.024 21.054 82.512 21.374 81.488H22.702C22.478 82.32 22.062 82.9813 21.454 83.472C20.846 83.952 20.078 84.192 19.15 84.192C18.0087 84.192 17.086 83.8027 16.382 83.024C15.6673 82.2453 15.31 81.1947 15.31 79.872C15.31 78.5707 15.662 77.5253 16.366 76.736C17.0593 75.9467 17.9767 75.552 19.118 75.552C20.302 75.552 21.23 75.9627 21.902 76.784C22.574 77.6053 22.91 78.6347 22.91 79.872ZM19.118 76.72C18.446 76.72 17.8967 76.9333 17.47 77.36C17.0433 77.776 16.7767 78.3787 16.67 79.168H21.534C21.47 78.4427 21.2247 77.856 20.798 77.408C20.3713 76.9493 19.8113 76.72 19.118 76.72ZM28.2368 75.552C29.1541 75.552 29.8688 75.8027 30.3808 76.304C30.8928 76.8053 31.1488 77.5093 31.1488 78.416V84H29.8688V78.544C29.8688 77.3173 29.2394 76.704 27.9808 76.704C27.3834 76.704 26.8554 76.928 26.3968 77.376C25.9381 77.824 25.7088 78.4747 25.7088 79.328V84H24.4288V75.744H25.6448V76.976C26.2741 76.0267 27.1381 75.552 28.2368 75.552ZM36.3729 75.744V76.864H34.6769V82.224C34.6769 82.6933 34.9915 82.928 35.6209 82.928H36.3729V84C36.0209 84.032 35.7169 84.048 35.4609 84.048C34.0849 84.048 33.3969 83.4773 33.3969 82.336V76.864H32.0369V75.744H33.3969V73.408H34.6769V75.744H36.3729ZM44.7694 79.872V80.32H38.4974C38.5614 81.216 38.812 81.8933 39.2494 82.352C39.6867 82.8 40.284 83.024 41.0414 83.024C42.1827 83.024 42.9134 82.512 43.2334 81.488H44.5614C44.3374 82.32 43.9214 82.9813 43.3134 83.472C42.7054 83.952 41.9374 84.192 41.0094 84.192C39.868 84.192 38.9454 83.8027 38.2414 83.024C37.5267 82.2453 37.1694 81.1947 37.1694 79.872C37.1694 78.5707 37.5214 77.5253 38.2254 76.736C38.9187 75.9467 39.836 75.552 40.9774 75.552C42.1614 75.552 43.0894 75.9627 43.7614 76.784C44.4334 77.6053 44.7694 78.6347 44.7694 79.872ZM40.9774 76.72C40.3054 76.72 39.756 76.9333 39.3294 77.36C38.9027 77.776 38.636 78.3787 38.5294 79.168H43.3934C43.3294 78.4427 43.084 77.856 42.6574 77.408C42.2307 76.9493 41.6707 76.72 40.9774 76.72ZM49.122 84.192C46.914 84.192 45.746 83.2533 45.618 81.376H46.914C46.9887 81.9947 47.1913 82.4373 47.522 82.704C47.8633 82.96 48.3967 83.088 49.122 83.088C50.4447 83.088 51.106 82.6613 51.106 81.808C51.106 81.4347 50.9673 81.152 50.69 80.96C50.4233 80.768 49.9327 80.6027 49.218 80.464L48.45 80.32C46.7327 80 45.874 79.1893 45.874 77.888C45.874 77.1733 46.1407 76.608 46.674 76.192C47.218 75.7653 47.954 75.552 48.882 75.552C51.0687 75.552 52.1887 76.464 52.242 78.288H50.962C50.93 77.6907 50.7487 77.2693 50.418 77.024C50.0873 76.7787 49.5753 76.656 48.882 76.656C48.3273 76.656 47.9007 76.7627 47.602 76.976C47.3033 77.1893 47.154 77.488 47.154 77.872C47.154 78.2347 47.282 78.5067 47.538 78.688C47.794 78.8693 48.2207 79.024 48.818 79.152L49.554 79.296C50.5673 79.4987 51.2927 79.7867 51.73 80.16C52.178 80.5333 52.402 81.056 52.402 81.728C52.402 82.5067 52.1087 83.1147 51.522 83.552C50.946 83.9787 50.146 84.192 49.122 84.192ZM53.4388 84V82.4H55.0548V84.144C55.0548 85.424 54.5694 86.112 53.5988 86.208L53.4388 86.224V85.36L53.5508 85.344C53.9454 85.3013 54.1428 84.9387 54.1428 84.256V84H53.4388ZM63.5481 73.696H62.8121C62.0761 73.696 61.7081 74.0853 61.7081 74.864V75.744H63.4681V76.864H61.7081V84H60.4281V76.864H59.0681V75.744H60.4281V74.896C60.4281 73.3493 61.1961 72.576 62.7321 72.576C62.9348 72.576 63.2068 72.5867 63.5481 72.608V73.696ZM71.0245 82.96H71.4885V84C71.2752 84.032 71.0405 84.048 70.7845 84.048C69.9205 84.048 69.4565 83.6533 69.3925 82.864C68.8165 83.7493 67.9205 84.192 66.7045 84.192C65.7978 84.192 65.0832 83.984 64.5605 83.568C64.0485 83.1413 63.7925 82.544 63.7925 81.776C63.7925 80.2827 64.8112 79.4293 66.8485 79.216L68.0325 79.088C68.8965 78.992 69.3285 78.6133 69.3285 77.952C69.3285 77.4933 69.1845 77.1627 68.8965 76.96C68.6192 76.7573 68.1445 76.656 67.4725 76.656C66.7578 76.656 66.2405 76.7787 65.9205 77.024C65.6112 77.2587 65.4352 77.68 65.3925 78.288H64.1125C64.2192 76.464 65.3392 75.552 67.4725 75.552C69.5418 75.552 70.5765 76.352 70.5765 77.952V82.56C70.5765 82.8267 70.7258 82.96 71.0245 82.96ZM66.7685 83.104C67.4512 83.104 68.0485 82.896 68.5605 82.48C69.0725 82.0747 69.3285 81.4933 69.3285 80.736V79.76C69.0938 79.9413 68.7312 80.0587 68.2405 80.112L67.0405 80.256C66.3472 80.3413 65.8512 80.5013 65.5525 80.736C65.2645 80.9707 65.1205 81.3067 65.1205 81.744C65.1205 82.1707 65.2592 82.5067 65.5365 82.752C65.8138 82.9867 66.2245 83.104 66.7685 83.104ZM75.5763 82.88H78.8883V84H72.2163V83.04L75.9923 78.176C76.1736 77.952 76.3869 77.6853 76.6323 77.376C76.8776 77.0667 77.0216 76.8853 77.0643 76.832C76.5309 76.8533 75.9443 76.864 75.3043 76.864H72.3763V75.744H78.6643V76.704L74.8883 81.568C74.7069 81.792 74.4936 82.0587 74.2483 82.368C74.0029 82.6773 73.8589 82.8587 73.8163 82.912C74.3496 82.8907 74.9363 82.88 75.5763 82.88ZM86.9725 79.872V80.32H80.7005C80.7645 81.216 81.0152 81.8933 81.4525 82.352C81.8898 82.8 82.4872 83.024 83.2445 83.024C84.3858 83.024 85.1165 82.512 85.4365 81.488H86.7645C86.5405 82.32 86.1245 82.9813 85.5165 83.472C84.9085 83.952 84.1405 84.192 83.2125 84.192C82.0712 84.192 81.1485 83.8027 80.4445 83.024C79.7298 82.2453 79.3725 81.1947 79.3725 79.872C79.3725 78.5707 79.7245 77.5253 80.4285 76.736C81.1218 75.9467 82.0392 75.552 83.1805 75.552C84.3645 75.552 85.2925 75.9627 85.9645 76.784C86.6365 77.6053 86.9725 78.6347 86.9725 79.872ZM83.1805 76.72C82.5085 76.72 81.9592 76.9333 81.5325 77.36C81.1058 77.776 80.8392 78.3787 80.7325 79.168H85.5965C85.5325 78.4427 85.2872 77.856 84.8605 77.408C84.4338 76.9493 83.8738 76.72 83.1805 76.72ZM97.1793 75.552C98.0753 75.552 98.7686 75.8133 99.2593 76.336C99.7606 76.848 100.011 77.536 100.011 78.4V84H98.7313V78.528C98.7313 77.312 98.1553 76.704 97.0033 76.704C96.3953 76.704 95.8886 76.9493 95.4833 77.44C95.0886 77.92 94.8913 78.6027 94.8913 79.488V84H93.6113V78.528C93.6113 77.312 93.0353 76.704 91.8833 76.704C91.2859 76.704 90.7846 76.9493 90.3793 77.44C89.9739 77.92 89.7713 78.6027 89.7713 79.488V84H88.4913V75.744H89.7073V76.96C90.2513 76.0213 91.0459 75.552 92.0913 75.552C93.3286 75.552 94.1766 76.0693 94.6353 77.104C95.2113 76.0693 96.0593 75.552 97.1793 75.552ZM108.409 83.008C107.651 83.7973 106.691 84.192 105.529 84.192C104.366 84.192 103.406 83.7973 102.649 83.008C101.902 82.2293 101.529 81.184 101.529 79.872C101.529 78.56 101.902 77.5147 102.649 76.736C103.406 75.9467 104.366 75.552 105.529 75.552C106.691 75.552 107.651 75.9467 108.409 76.736C109.155 77.5147 109.529 78.56 109.529 79.872C109.529 81.184 109.155 82.2293 108.409 83.008ZM103.593 82.192C104.073 82.7573 104.718 83.04 105.529 83.04C106.339 83.04 106.985 82.7573 107.465 82.192C107.945 81.6373 108.185 80.864 108.185 79.872C108.185 78.8693 107.945 78.0907 107.465 77.536C106.985 76.9813 106.339 76.704 105.529 76.704C104.718 76.704 104.073 76.9813 103.593 77.536C103.113 78.0907 102.873 78.8693 102.873 79.872C102.873 80.864 103.113 81.6373 103.593 82.192ZM113.81 84.192C111.602 84.192 110.434 83.2533 110.306 81.376H111.602C111.676 81.9947 111.879 82.4373 112.21 82.704C112.551 82.96 113.084 83.088 113.81 83.088C115.132 83.088 115.794 82.6613 115.794 81.808C115.794 81.4347 115.655 81.152 115.378 80.96C115.111 80.768 114.62 80.6027 113.906 80.464L113.138 80.32C111.42 80 110.562 79.1893 110.562 77.888C110.562 77.1733 110.828 76.608 111.362 76.192C111.906 75.7653 112.642 75.552 113.57 75.552C115.756 75.552 116.876 76.464 116.93 78.288H115.65C115.618 77.6907 115.436 77.2693 115.106 77.024C114.775 76.7787 114.263 76.656 113.57 76.656C113.015 76.656 112.588 76.7627 112.289 76.976C111.991 77.1893 111.842 77.488 111.842 77.872C111.842 78.2347 111.97 78.5067 112.226 78.688C112.482 78.8693 112.908 79.024 113.506 79.152L114.242 79.296C115.255 79.4987 115.98 79.7867 116.418 80.16C116.866 80.5333 117.09 81.056 117.09 81.728C117.09 82.5067 116.796 83.1147 116.21 83.552C115.634 83.9787 114.834 84.192 113.81 84.192ZM128.613 79.872V80.32H122.341C122.405 81.216 122.656 81.8933 123.093 82.352C123.53 82.8 124.128 83.024 124.885 83.024C126.026 83.024 126.757 82.512 127.077 81.488H128.405C128.181 82.32 127.765 82.9813 127.157 83.472C126.549 83.952 125.781 84.192 124.853 84.192C123.712 84.192 122.789 83.8027 122.085 83.024C121.37 82.2453 121.013 81.1947 121.013 79.872C121.013 78.5707 121.365 77.5253 122.069 76.736C122.762 75.9467 123.68 75.552 124.821 75.552C126.005 75.552 126.933 75.9627 127.605 76.784C128.277 77.6053 128.613 78.6347 128.613 79.872ZM124.821 76.72C124.149 76.72 123.6 76.9333 123.173 77.36C122.746 77.776 122.48 78.3787 122.373 79.168H127.237C127.173 78.4427 126.928 77.856 126.501 77.408C126.074 76.9493 125.514 76.72 124.821 76.72ZM131.412 84H130.132V72.608H131.412V84ZM140.535 79.872V80.32H134.263C134.327 81.216 134.578 81.8933 135.015 82.352C135.452 82.8 136.05 83.024 136.807 83.024C137.948 83.024 138.679 82.512 138.999 81.488H140.327C140.103 82.32 139.687 82.9813 139.079 83.472C138.471 83.952 137.703 84.192 136.775 84.192C135.634 84.192 134.711 83.8027 134.007 83.024C133.292 82.2453 132.935 81.1947 132.935 79.872C132.935 78.5707 133.287 77.5253 133.991 76.736C134.684 75.9467 135.602 75.552 136.743 75.552C137.927 75.552 138.855 75.9627 139.527 76.784C140.199 77.6053 140.535 78.6347 140.535 79.872ZM136.743 76.72C136.071 76.72 135.522 76.9333 135.095 77.36C134.668 77.776 134.402 78.3787 134.295 79.168H139.159C139.095 78.4427 138.85 77.856 138.423 77.408C137.996 76.9493 137.436 76.72 136.743 76.72ZM144.888 84.192C142.68 84.192 141.512 83.2533 141.384 81.376H142.68C142.754 81.9947 142.957 82.4373 143.288 82.704C143.629 82.96 144.162 83.088 144.888 83.088C146.21 83.088 146.872 82.6613 146.872 81.808C146.872 81.4347 146.733 81.152 146.456 80.96C146.189 80.768 145.698 80.6027 144.984 80.464L144.216 80.32C142.498 80 141.64 79.1893 141.64 77.888C141.64 77.1733 141.906 76.608 142.44 76.192C142.984 75.7653 143.72 75.552 144.648 75.552C146.834 75.552 147.954 76.464 148.008 78.288H146.728C146.696 77.6907 146.514 77.2693 146.184 77.024C145.853 76.7787 145.341 76.656 144.648 76.656C144.093 76.656 143.666 76.7627 143.368 76.976C143.069 77.1893 142.92 77.488 142.92 77.872C142.92 78.2347 143.048 78.5067 143.304 78.688C143.56 78.8693 143.986 79.024 144.584 79.152L145.32 79.296C146.333 79.4987 147.058 79.7867 147.496 80.16C147.944 80.5333 148.168 81.056 148.168 81.728C148.168 82.5067 147.874 83.1147 147.288 83.552C146.712 83.9787 145.912 84.192 144.888 84.192ZM156.699 79.408L158.059 75.744H159.435L156.187 84H154.843L151.611 75.744H153.003L154.363 79.424C155.035 81.2267 155.425 82.2933 155.531 82.624C155.723 82.0587 156.113 80.9867 156.699 79.408ZM161.71 74.496H160.35V72.928H161.71V74.496ZM161.678 84H160.398V75.744H161.678V84ZM167.473 75.616C167.686 75.616 167.83 75.6213 167.905 75.632V76.864H167.585C166.731 76.864 166.065 77.0773 165.585 77.504C165.115 77.92 164.881 78.5173 164.881 79.296V84H163.601V75.744H164.817V77.2C165.371 76.144 166.257 75.616 167.473 75.616ZM175.816 79.872V80.32H169.544C169.608 81.216 169.859 81.8933 170.296 82.352C170.734 82.8 171.331 83.024 172.088 83.024C173.23 83.024 173.96 82.512 174.28 81.488H175.608C175.384 82.32 174.968 82.9813 174.36 83.472C173.752 83.952 172.984 84.192 172.056 84.192C170.915 84.192 169.992 83.8027 169.288 83.024C168.574 82.2453 168.216 81.1947 168.216 79.872C168.216 78.5707 168.568 77.5253 169.272 76.736C169.966 75.9467 170.883 75.552 172.024 75.552C173.208 75.552 174.136 75.9627 174.808 76.784C175.48 77.6053 175.816 78.6347 175.816 79.872ZM172.024 76.72C171.352 76.72 170.803 76.9333 170.376 77.36C169.95 77.776 169.683 78.3787 169.576 79.168H174.44C174.376 78.4427 174.131 77.856 173.704 77.408C173.278 76.9493 172.718 76.72 172.024 76.72ZM186.023 75.552C186.919 75.552 187.612 75.8133 188.103 76.336C188.604 76.848 188.855 77.536 188.855 78.4V84H187.575V78.528C187.575 77.312 186.999 76.704 185.847 76.704C185.239 76.704 184.732 76.9493 184.327 77.44C183.932 77.92 183.735 78.6027 183.735 79.488V84H182.455V78.528C182.455 77.312 181.879 76.704 180.727 76.704C180.13 76.704 179.628 76.9493 179.223 77.44C178.818 77.92 178.615 78.6027 178.615 79.488V84H177.335V75.744H178.551V76.96C179.095 76.0213 179.89 75.552 180.935 75.552C182.172 75.552 183.02 76.0693 183.479 77.104C184.055 76.0693 184.903 75.552 186.023 75.552ZM200.571 82.96H201.035V84C200.822 84.032 200.587 84.048 200.331 84.048C199.467 84.048 199.003 83.6533 198.939 82.864C198.363 83.7493 197.467 84.192 196.251 84.192C195.345 84.192 194.63 83.984 194.107 83.568C193.595 83.1413 193.339 82.544 193.339 81.776C193.339 80.2827 194.358 79.4293 196.395 79.216L197.579 79.088C198.443 78.992 198.875 78.6133 198.875 77.952C198.875 77.4933 198.731 77.1627 198.443 76.96C198.166 76.7573 197.691 76.656 197.019 76.656C196.305 76.656 195.787 76.7787 195.467 77.024C195.158 77.2587 194.982 77.68 194.939 78.288H193.659C193.766 76.464 194.886 75.552 197.019 75.552C199.089 75.552 200.123 76.352 200.123 77.952V82.56C200.123 82.8267 200.273 82.96 200.571 82.96ZM196.315 83.104C196.998 83.104 197.595 82.896 198.107 82.48C198.619 82.0747 198.875 81.4933 198.875 80.736V79.76C198.641 79.9413 198.278 80.0587 197.787 80.112L196.587 80.256C195.894 80.3413 195.398 80.5013 195.099 80.736C194.811 80.9707 194.667 81.3067 194.667 81.744C194.667 82.1707 194.806 82.5067 195.083 82.752C195.361 82.9867 195.771 83.104 196.315 83.104ZM205.467 75.744V76.864H203.771V82.224C203.771 82.6933 204.085 82.928 204.715 82.928H205.467V84C205.115 84.032 204.811 84.048 204.555 84.048C203.179 84.048 202.491 83.4773 202.491 82.336V76.864H201.131V75.744H202.491V73.408H203.771V75.744H205.467ZM210.919 72.192H212.647L210.679 74.496H209.543L210.919 72.192ZM213.863 79.872V80.32H207.591C207.655 81.216 207.906 81.8933 208.343 82.352C208.78 82.8 209.378 83.024 210.135 83.024C211.276 83.024 212.007 82.512 212.327 81.488H213.655C213.431 82.32 213.015 82.9813 212.407 83.472C211.799 83.952 211.031 84.192 210.103 84.192C208.962 84.192 208.039 83.8027 207.335 83.024C206.62 82.2453 206.263 81.1947 206.263 79.872C206.263 78.5707 206.615 77.5253 207.319 76.736C208.012 75.9467 208.93 75.552 210.071 75.552C211.255 75.552 212.183 75.9627 212.855 76.784C213.527 77.6053 213.863 78.6347 213.863 79.872ZM210.071 76.72C209.399 76.72 208.85 76.9333 208.423 77.36C207.996 77.776 207.73 78.3787 207.623 79.168H212.487C212.423 78.4427 212.178 77.856 211.751 77.408C211.324 76.9493 210.764 76.72 210.071 76.72ZM222.637 79.408L223.997 75.744H225.373L222.125 84H220.781L217.549 75.744H218.941L220.301 79.424C220.973 81.2267 221.362 82.2933 221.469 82.624C221.661 82.0587 222.05 80.9867 222.637 79.408ZM232.409 83.008C231.651 83.7973 230.691 84.192 229.529 84.192C228.366 84.192 227.406 83.7973 226.649 83.008C225.902 82.2293 225.529 81.184 225.529 79.872C225.529 78.56 225.902 77.5147 226.649 76.736C227.406 75.9467 228.366 75.552 229.529 75.552C230.691 75.552 231.651 75.9467 232.409 76.736C233.155 77.5147 233.529 78.56 233.529 79.872C233.529 81.184 233.155 82.2293 232.409 83.008ZM227.593 82.192C228.073 82.7573 228.718 83.04 229.529 83.04C230.339 83.04 230.985 82.7573 231.465 82.192C231.945 81.6373 232.185 80.864 232.185 79.872C232.185 78.8693 231.945 78.0907 231.465 77.536C230.985 76.9813 230.339 76.704 229.529 76.704C228.718 76.704 228.073 76.9813 227.593 77.536C227.113 78.0907 226.873 78.8693 226.873 79.872C226.873 80.864 227.113 81.6373 227.593 82.192ZM238.478 84.192C237.336 84.192 236.414 83.7973 235.71 83.008C235.006 82.2187 234.654 81.1733 234.654 79.872C234.654 78.5493 235.006 77.4987 235.71 76.72C236.392 75.9413 237.315 75.552 238.478 75.552C239.459 75.552 240.264 75.8187 240.894 76.352C241.523 76.8853 241.902 77.616 242.03 78.544H240.702C240.606 77.9573 240.35 77.504 239.934 77.184C239.528 76.864 239.043 76.704 238.478 76.704C237.72 76.704 237.118 76.9813 236.67 77.536C236.222 78.08 235.998 78.8587 235.998 79.872C235.998 80.8747 236.222 81.6533 236.67 82.208C237.128 82.7627 237.731 83.04 238.478 83.04C239.043 83.04 239.534 82.8747 239.95 82.544C240.366 82.2133 240.622 81.7547 240.718 81.168H242.03C241.891 82.096 241.496 82.832 240.846 83.376C240.206 83.92 239.416 84.192 238.478 84.192ZM248.31 74.496L246.806 72.944L245.302 74.496H244.022L245.846 72.192H247.766L249.59 74.496H248.31ZM250.598 79.872V80.32H244.326C244.39 81.216 244.64 81.8933 245.078 82.352C245.515 82.8 246.112 83.024 246.87 83.024C248.011 83.024 248.742 82.512 249.062 81.488H250.39C250.166 82.32 249.75 82.9813 249.142 83.472C248.534 83.952 247.766 84.192 246.838 84.192C245.696 84.192 244.774 83.8027 244.07 83.024C243.355 82.2453 242.998 81.1947 242.998 79.872C242.998 78.5707 243.35 77.5253 244.054 76.736C244.747 75.9467 245.664 75.552 246.806 75.552C247.99 75.552 248.918 75.9627 249.59 76.784C250.262 77.6053 250.598 78.6347 250.598 79.872ZM246.806 76.72C246.134 76.72 245.584 76.9333 245.158 77.36C244.731 77.776 244.464 78.3787 244.358 79.168H249.222C249.158 78.4427 248.912 77.856 248.486 77.408C248.059 76.9493 247.499 76.72 246.806 76.72ZM268.939 80.064H254.843V78.912H268.939V80.064ZM277.633 75.552C278.796 75.552 279.729 75.9413 280.433 76.72C281.126 77.5093 281.473 78.56 281.473 79.872C281.473 81.1733 281.126 82.2187 280.433 83.008C279.729 83.7973 278.796 84.192 277.633 84.192C276.449 84.192 275.526 83.7333 274.865 82.816V87.136H273.585V75.744H274.801V77.024C275.462 76.0427 276.406 75.552 277.633 75.552ZM277.473 83.04C278.273 83.04 278.913 82.752 279.393 82.176C279.884 81.5893 280.129 80.8 280.129 79.808C280.129 78.8373 279.889 78.08 279.409 77.536C278.94 76.9813 278.294 76.704 277.473 76.704C276.662 76.704 276.017 76.9813 275.537 77.536C275.057 78.0907 274.817 78.8693 274.817 79.872C274.817 80.864 275.057 81.6373 275.537 82.192C276.017 82.7573 276.662 83.04 277.473 83.04ZM286.863 75.616C287.077 75.616 287.221 75.6213 287.295 75.632V76.864H286.975C286.122 76.864 285.455 77.0773 284.975 77.504C284.506 77.92 284.271 78.5173 284.271 79.296V84H282.991V75.744H284.207V77.2C284.762 76.144 285.647 75.616 286.863 75.616ZM294.487 83.008C293.73 83.7973 292.77 84.192 291.607 84.192C290.444 84.192 289.484 83.7973 288.727 83.008C287.98 82.2293 287.607 81.184 287.607 79.872C287.607 78.56 287.98 77.5147 288.727 76.736C289.484 75.9467 290.444 75.552 291.607 75.552C292.77 75.552 293.73 75.9467 294.487 76.736C295.234 77.5147 295.607 78.56 295.607 79.872C295.607 81.184 295.234 82.2293 294.487 83.008ZM289.671 82.192C290.151 82.7573 290.796 83.04 291.607 83.04C292.418 83.04 293.063 82.7573 293.543 82.192C294.023 81.6373 294.263 80.864 294.263 79.872C294.263 78.8693 294.023 78.0907 293.543 77.536C293.063 76.9813 292.418 76.704 291.607 76.704C290.796 76.704 290.151 76.9813 289.671 77.536C289.191 78.0907 288.951 78.8693 288.951 79.872C288.951 80.864 289.191 81.6373 289.671 82.192ZM300.94 75.552C301.857 75.552 302.572 75.8027 303.084 76.304C303.596 76.8053 303.852 77.5093 303.852 78.416V84H302.572V78.544C302.572 77.3173 301.943 76.704 300.684 76.704C300.087 76.704 299.559 76.928 299.1 77.376C298.641 77.824 298.412 78.4747 298.412 79.328V84H297.132V75.744H298.348V76.976C298.977 76.0267 299.841 75.552 300.94 75.552ZM309.076 75.744V76.864H307.38V82.224C307.38 82.6933 307.695 82.928 308.324 82.928H309.076V84C308.724 84.032 308.42 84.048 308.164 84.048C306.788 84.048 306.1 83.4773 306.1 82.336V76.864H304.74V75.744H306.1V73.408H307.38V75.744H309.076ZM316.753 83.008C315.995 83.7973 315.035 84.192 313.873 84.192C312.71 84.192 311.75 83.7973 310.993 83.008C310.246 82.2293 309.873 81.184 309.873 79.872C309.873 78.56 310.246 77.5147 310.993 76.736C311.75 75.9467 312.71 75.552 313.873 75.552C315.035 75.552 315.995 75.9467 316.753 76.736C317.499 77.5147 317.873 78.56 317.873 79.872C317.873 81.184 317.499 82.2293 316.753 83.008ZM311.937 82.192C312.417 82.7573 313.062 83.04 313.873 83.04C314.683 83.04 315.329 82.7573 315.809 82.192C316.289 81.6373 316.529 80.864 316.529 79.872C316.529 78.8693 316.289 78.0907 315.809 77.536C315.329 76.9813 314.683 76.704 313.873 76.704C313.062 76.704 312.417 76.9813 311.937 77.536C311.457 78.0907 311.217 78.8693 311.217 79.872C311.217 80.864 311.457 81.6373 311.937 82.192ZM322.153 84.192C319.945 84.192 318.777 83.2533 318.649 81.376H319.945C320.02 81.9947 320.223 82.4373 320.553 82.704C320.895 82.96 321.428 83.088 322.153 83.088C323.476 83.088 324.137 82.6613 324.137 81.808C324.137 81.4347 323.999 81.152 323.721 80.96C323.455 80.768 322.964 80.6027 322.249 80.464L321.481 80.32C319.764 80 318.905 79.1893 318.905 77.888C318.905 77.1733 319.172 76.608 319.705 76.192C320.249 75.7653 320.985 75.552 321.913 75.552C324.1 75.552 325.22 76.464 325.273 78.288H323.993C323.961 77.6907 323.78 77.2693 323.449 77.024C323.119 76.7787 322.607 76.656 321.913 76.656C321.359 76.656 320.932 76.7627 320.633 76.976C320.335 77.1893 320.185 77.488 320.185 77.872C320.185 78.2347 320.313 78.5067 320.569 78.688C320.825 78.8693 321.252 79.024 321.849 79.152L322.585 79.296C323.599 79.4987 324.324 79.7867 324.761 80.16C325.209 80.5333 325.433 81.056 325.433 81.728C325.433 82.5067 325.14 83.1147 324.553 83.552C323.977 83.9787 323.177 84.192 322.153 84.192ZM5.008 99.552C6.17067 99.552 7.104 99.9413 7.808 100.72C8.50133 101.509 8.848 102.56 8.848 103.872C8.848 105.173 8.50133 106.219 7.808 107.008C7.104 107.797 6.17067 108.192 5.008 108.192C3.824 108.192 2.90133 107.733 2.24 106.816V111.136H0.96V99.744H2.176V101.024C2.83733 100.043 3.78133 99.552 5.008 99.552ZM4.848 107.04C5.648 107.04 6.288 106.752 6.768 106.176C7.25867 105.589 7.504 104.8 7.504 103.808C7.504 102.837 7.264 102.08 6.784 101.536C6.31467 100.981 5.66933 100.704 4.848 100.704C4.03733 100.704 3.392 100.981 2.912 101.536C2.432 102.091 2.192 102.869 2.192 103.872C2.192 104.864 2.432 105.637 2.912 106.192C3.392 106.757 4.03733 107.04 4.848 107.04ZM16.962 106.96H17.426V108C17.2127 108.032 16.978 108.048 16.722 108.048C15.858 108.048 15.394 107.653 15.33 106.864C14.754 107.749 13.858 108.192 12.642 108.192C11.7353 108.192 11.0207 107.984 10.498 107.568C9.986 107.141 9.73 106.544 9.73 105.776C9.73 104.283 10.7487 103.429 12.786 103.216L13.97 103.088C14.834 102.992 15.266 102.613 15.266 101.952C15.266 101.493 15.122 101.163 14.834 100.96C14.5567 100.757 14.082 100.656 13.41 100.656C12.6953 100.656 12.178 100.779 11.858 101.024C11.5487 101.259 11.3727 101.68 11.33 102.288H10.05C10.1567 100.464 11.2767 99.552 13.41 99.552C15.4793 99.552 16.514 100.352 16.514 101.952V106.56C16.514 106.827 16.6633 106.96 16.962 106.96ZM12.706 107.104C13.3887 107.104 13.986 106.896 14.498 106.48C15.01 106.075 15.266 105.493 15.266 104.736V103.76C15.0313 103.941 14.6687 104.059 14.178 104.112L12.978 104.256C12.2847 104.341 11.7887 104.501 11.49 104.736C11.202 104.971 11.058 105.307 11.058 105.744C11.058 106.171 11.1967 106.507 11.474 106.752C11.7513 106.987 12.162 107.104 12.706 107.104ZM22.4258 99.616C22.6391 99.616 22.7831 99.6213 22.8578 99.632V100.864H22.5378C21.6844 100.864 21.0178 101.077 20.5378 101.504C20.0684 101.92 19.8338 102.517 19.8338 103.296V108H18.5538V99.744H19.7698V101.2C20.3244 100.144 21.2098 99.616 22.4258 99.616ZM30.2433 106.96H30.7073V108C30.4939 108.032 30.2593 108.048 30.0033 108.048C29.1393 108.048 28.6753 107.653 28.6113 106.864C28.0353 107.749 27.1393 108.192 25.9233 108.192C25.0166 108.192 24.3019 107.984 23.7793 107.568C23.2673 107.141 23.0113 106.544 23.0113 105.776C23.0113 104.283 24.0299 103.429 26.0673 103.216L27.2513 103.088C28.1153 102.992 28.5473 102.613 28.5473 101.952C28.5473 101.493 28.4033 101.163 28.1153 100.96C27.8379 100.757 27.3633 100.656 26.6913 100.656C25.9766 100.656 25.4593 100.779 25.1393 101.024C24.8299 101.259 24.6539 101.68 24.6113 102.288H23.3313C23.4379 100.464 24.5579 99.552 26.6913 99.552C28.7606 99.552 29.7953 100.352 29.7953 101.952V106.56C29.7953 106.827 29.9446 106.96 30.2433 106.96ZM25.9873 107.104C26.6699 107.104 27.2673 106.896 27.7793 106.48C28.2913 106.075 28.5473 105.493 28.5473 104.736V103.76C28.3126 103.941 27.9499 104.059 27.4593 104.112L26.2593 104.256C25.5659 104.341 25.0699 104.501 24.7713 104.736C24.4833 104.971 24.3393 105.307 24.3393 105.744C24.3393 106.171 24.4779 106.507 24.7553 106.752C25.0326 106.987 25.4433 107.104 25.9873 107.104ZM38.3059 108.192C37.1645 108.192 36.2419 107.797 35.5379 107.008C34.8339 106.219 34.4819 105.173 34.4819 103.872C34.4819 102.549 34.8339 101.499 35.5379 100.72C36.2205 99.9413 37.1432 99.552 38.3059 99.552C39.2872 99.552 40.0925 99.8187 40.7219 100.352C41.3512 100.885 41.7299 101.616 41.8579 102.544H40.5299C40.4339 101.957 40.1779 101.504 39.7619 101.184C39.3565 100.864 38.8712 100.704 38.3059 100.704C37.5485 100.704 36.9459 100.981 36.4979 101.536C36.0499 102.08 35.8259 102.859 35.8259 103.872C35.8259 104.875 36.0499 105.653 36.4979 106.208C36.9565 106.763 37.5592 107.04 38.3059 107.04C38.8712 107.04 39.3619 106.875 39.7779 106.544C40.1939 106.213 40.4499 105.755 40.5459 105.168H41.8579C41.7192 106.096 41.3245 106.832 40.6739 107.376C40.0339 107.92 39.2445 108.192 38.3059 108.192ZM49.7056 107.008C48.9483 107.797 47.9883 108.192 46.8256 108.192C45.663 108.192 44.703 107.797 43.9456 107.008C43.199 106.229 42.8256 105.184 42.8256 103.872C42.8256 102.56 43.199 101.515 43.9456 100.736C44.703 99.9467 45.663 99.552 46.8256 99.552C47.9883 99.552 48.9483 99.9467 49.7056 100.736C50.4523 101.515 50.8256 102.56 50.8256 103.872C50.8256 105.184 50.4523 106.229 49.7056 107.008ZM44.8896 106.192C45.3696 106.757 46.015 107.04 46.8256 107.04C47.6363 107.04 48.2816 106.757 48.7616 106.192C49.2416 105.637 49.4816 104.864 49.4816 103.872C49.4816 102.869 49.2416 102.091 48.7616 101.536C48.2816 100.981 47.6363 100.704 46.8256 100.704C46.015 100.704 45.3696 100.981 44.8896 101.536C44.4096 102.091 44.1696 102.869 44.1696 103.872C44.1696 104.864 44.4096 105.637 44.8896 106.192ZM61.0386 99.552C61.9346 99.552 62.628 99.8133 63.1186 100.336C63.62 100.848 63.8706 101.536 63.8706 102.4V108H62.5906V102.528C62.5906 101.312 62.0146 100.704 60.8626 100.704C60.2546 100.704 59.748 100.949 59.3426 101.44C58.948 101.92 58.7506 102.603 58.7506 103.488V108H57.4706V102.528C57.4706 101.312 56.8946 100.704 55.7426 100.704C55.1453 100.704 54.644 100.949 54.2386 101.44C53.8333 101.92 53.6306 102.603 53.6306 103.488V108H52.3506V99.744H53.5666V100.96C54.1106 100.021 54.9053 99.552 55.9506 99.552C57.188 99.552 58.036 100.069 58.4946 101.104C59.0706 100.069 59.9186 99.552 61.0386 99.552ZM69.8361 99.552C70.9988 99.552 71.9321 99.9413 72.6361 100.72C73.3295 101.509 73.6761 102.56 73.6761 103.872C73.6761 105.173 73.3295 106.219 72.6361 107.008C71.9321 107.797 70.9988 108.192 69.8361 108.192C68.6521 108.192 67.7295 107.733 67.0681 106.816V111.136H65.7881V99.744H67.0041V101.024C67.6655 100.043 68.6095 99.552 69.8361 99.552ZM69.6761 107.04C70.4761 107.04 71.1161 106.752 71.5961 106.176C72.0868 105.589 72.3321 104.8 72.3321 103.808C72.3321 102.837 72.0921 102.08 71.6121 101.536C71.1428 100.981 70.4975 100.704 69.6761 100.704C68.8655 100.704 68.2201 100.981 67.7401 101.536C67.2601 102.091 67.0201 102.869 67.0201 103.872C67.0201 104.864 67.2601 105.637 67.7401 106.192C68.2201 106.757 68.8655 107.04 69.6761 107.04ZM79.0664 99.616C79.2797 99.616 79.4237 99.6213 79.4984 99.632V100.864H79.1784C78.325 100.864 77.6584 101.077 77.1784 101.504C76.709 101.92 76.4744 102.517 76.4744 103.296V108H75.1944V99.744H76.4104V101.2C76.965 100.144 77.8504 99.616 79.0664 99.616ZM86.8839 106.96H87.3479V108C87.1345 108.032 86.8999 108.048 86.6439 108.048C85.7799 108.048 85.3159 107.653 85.2519 106.864C84.6759 107.749 83.7799 108.192 82.5639 108.192C81.6572 108.192 80.9425 107.984 80.4199 107.568C79.9079 107.141 79.6519 106.544 79.6519 105.776C79.6519 104.283 80.6705 103.429 82.7079 103.216L83.8919 103.088C84.7559 102.992 85.1879 102.613 85.1879 101.952C85.1879 101.493 85.0439 101.163 84.7559 100.96C84.4785 100.757 84.0039 100.656 83.3319 100.656C82.6172 100.656 82.0999 100.779 81.7799 101.024C81.4705 101.259 81.2945 101.68 81.2519 102.288H79.9719C80.0785 100.464 81.1985 99.552 83.3319 99.552C85.4012 99.552 86.4359 100.352 86.4359 101.952V106.56C86.4359 106.827 86.5852 106.96 86.8839 106.96ZM82.6279 107.104C83.3105 107.104 83.9079 106.896 84.4199 106.48C84.9319 106.075 85.1879 105.493 85.1879 104.736V103.76C84.9532 103.941 84.5905 104.059 84.0999 104.112L82.8999 104.256C82.2065 104.341 81.7105 104.501 81.4119 104.736C81.1239 104.971 80.9799 105.307 80.9799 105.744C80.9799 106.171 81.1185 106.507 81.3959 106.752C81.6732 106.987 82.0839 107.104 82.6279 107.104ZM92.3476 99.616C92.561 99.616 92.705 99.6213 92.7796 99.632V100.864H92.4596C91.6063 100.864 90.9396 101.077 90.4596 101.504C89.9903 101.92 89.7556 102.517 89.7556 103.296V108H88.4756V99.744H89.6916V101.2C90.2463 100.144 91.1316 99.616 92.3476 99.616ZM93.9141 108H92.2981V106.4H93.9141V108Z" fill="#CBCDF6"/>
</svg>
