<svg width="358" height="67" viewBox="0 0 358 67" fill="none" xmlns="http://www.w3.org/2000/svg">
<path d="M7.36667 18.4667C2.35 18.45 0.0666667 16.95 0.216667 13.2H4.73333C4.76667 14.0333 5.46667 14.5167 7.36667 14.55C9 14.5667 9.7 14.1333 9.7 13.6333C9.7 13.3667 9.63333 12.9 8.36667 12.7333L6.53333 12.45C3.9 12.0333 0.533333 11.85 0.533333 8.08333C0.533333 5.26667 2.78333 3.53333 7.41667 3.53333C11.55 3.53333 14.4333 4.6 14.3167 8.76667H9.81667C9.66667 7.95 8.95 7.45 7.3 7.45C5.88333 7.45 5.36667 7.85 5.36667 8.35C5.36667 8.58333 5.48333 9.05 6.43333 9.2L7.9 9.43333C10.7167 9.9 14.7167 9.85 14.7167 13.85C14.7167 16.9833 12.3167 18.4833 7.36667 18.4667ZM15.5109 18V4H28.3943V8.01667H20.5443V9.38333H28.0943V12.6167H20.5443V13.9667H28.3943V18H15.5109ZM36.912 18.4667C31.9286 18.4667 29.4953 16.4 29.4953 11.8V4H34.5786V11.6833C34.5786 13.25 35.2286 14.25 36.912 14.25C38.5953 14.25 39.2786 13.25 39.2786 11.6833V4H44.3286V11.7667C44.3286 16.4 41.8953 18.4667 36.912 18.4667ZM57.4716 18.4667C52.6883 18.4667 49.5383 15.5167 49.5383 11C49.5383 6.48333 52.6883 3.53333 57.4716 3.53333C60.9883 3.53333 64.6216 5.08333 65.0049 10.0167H60.2049C59.8883 8.56667 58.9049 7.88333 57.4716 7.88333C55.8549 7.88333 54.5383 9.06667 54.5383 11C54.5383 12.9167 55.8549 14.1167 57.4716 14.1167C58.9049 14.1167 59.8883 13.4333 60.2049 11.95H65.0049C64.6216 16.9167 61.0383 18.4667 57.4716 18.4667ZM65.8625 18V4H70.8958V13.8H78.1625V18H65.8625ZM79.3 18V4H84.3333V18H79.3ZM85.4328 18V4H98.3161V8.01667H90.4661V9.38333H98.0161V12.6167H90.4661V13.9667H98.3161V18H85.4328ZM99.4172 18V4H105.184L109.217 10.95H109.684V4H114.601V18H108.951L104.784 11.05H104.334V18H99.4172ZM130.57 4V8.2H125.603V18H120.553V8.2H115.603V4H130.57ZM131.566 18V4H144.449V8.01667H136.599V9.38333H144.149V12.6167H136.599V13.9667H144.449V18H131.566ZM149.925 18V4H162.808V8.01667H154.958V9.38333H162.508V12.6167H154.958V13.9667H162.808V18H149.925ZM170.746 18.4667C165.729 18.45 163.446 16.95 163.596 13.2H168.112C168.146 14.0333 168.846 14.5167 170.746 14.55C172.379 14.5667 173.079 14.1333 173.079 13.6333C173.079 13.3667 173.012 12.9 171.746 12.7333L169.912 12.45C167.279 12.0333 163.912 11.85 163.912 8.08333C163.912 5.26667 166.162 3.53333 170.796 3.53333C174.929 3.53333 177.812 4.6 177.696 8.76667H173.196C173.046 7.95 172.329 7.45 170.679 7.45C169.262 7.45 168.746 7.85 168.746 8.35C168.746 8.58333 168.862 9.05 169.812 9.2L171.279 9.43333C174.096 9.9 178.096 9.85 178.096 13.85C178.096 16.9833 175.696 18.4833 170.746 18.4667ZM193.363 4V8.2H188.396V18H183.346V8.2H178.396V4H193.363ZM203.01 0.183332L201.793 3.16667H197.343L198.56 0.183332H203.01ZM202.993 18L202.46 16.3167H196.76L196.227 18H191.027L196.077 4H203.143L208.21 18H202.993ZM197.943 12.6H201.277L200.043 8.73333H199.177L197.943 12.6ZM0.55 42V28H8.7C12.55 28 14.9 29.6667 14.9 33.5833C14.9 37.4833 12.55 39.15 8.71667 39.15H5.58333V42H0.55ZM5.58333 34.9667H8.25C9.18333 34.9667 9.8 34.5 9.8 33.5833C9.8 32.65 9.18333 32.1833 8.26667 32.1833H5.58333V34.9667ZM30.7401 42H25.7901L24.0234 38.5667H20.8568V42H15.8234V28H24.0568C27.9901 28 30.2234 29.6333 30.2234 33.4667C30.2234 35.3 29.4234 36.6333 28.3068 37.4667L30.7401 42ZM20.8568 32.1833V34.8167H23.6901C24.6901 34.8167 25.1734 34.3167 25.1734 33.5C25.1734 32.6833 24.6901 32.1833 23.6901 32.1833H20.8568ZM38.9445 42.4667C34.0612 42.4667 30.9445 39.5167 30.9445 35C30.9445 30.4833 34.0612 27.5333 38.9445 27.5333C43.8445 27.5333 46.9612 30.4833 46.9612 35C46.9612 39.5167 43.8445 42.4667 38.9445 42.4667ZM38.9445 38.1167C40.5612 38.1167 41.9445 37.0333 41.9445 35C41.9445 32.9667 40.5612 31.8833 38.9445 31.8833C37.3445 31.8833 35.9445 32.9667 35.9445 35C35.9445 37.0333 37.3445 38.1167 38.9445 38.1167ZM55.6747 42.4667C50.8914 42.4667 47.7414 39.5167 47.7414 35C47.7414 30.4833 50.8914 27.5333 55.6747 27.5333C59.1914 27.5333 62.8247 29.0833 63.2081 34.0167H58.4081C58.0914 32.5667 57.1081 31.8833 55.6747 31.8833C54.0581 31.8833 52.7414 33.0667 52.7414 35C52.7414 36.9167 54.0581 38.1167 55.6747 38.1167C57.1081 38.1167 58.0914 37.4333 58.4081 35.95H63.2081C62.8247 40.9167 59.2414 42.4667 55.6747 42.4667ZM71.4823 42.4667C66.499 42.4667 64.0656 40.4 64.0656 35.8V28H69.149V35.6833C69.149 37.25 69.799 38.25 71.4823 38.25C73.1656 38.25 73.849 37.25 73.849 35.6833V28H78.899V35.7667C78.899 40.4 76.4656 42.4667 71.4823 42.4667ZM94.9003 42H89.9503L88.1836 38.5667H85.0169V42H79.9836V28H88.2169C92.1503 28 94.3836 29.6333 94.3836 33.4667C94.3836 35.3 93.5836 36.6333 92.4669 37.4667L94.9003 42ZM85.0169 32.1833V34.8167H87.8503C88.8503 34.8167 89.3336 34.3167 89.3336 33.5C89.3336 32.6833 88.8503 32.1833 87.8503 32.1833H85.0169ZM106.978 42L106.444 40.3167H100.744L100.211 42H95.0109L100.061 28H107.128L112.194 42H106.978ZM101.928 36.6H105.261L104.028 32.7333H103.161L101.928 36.6ZM112.777 42V28H118.543L122.577 34.95H123.043V28H127.96V42H122.31L118.143 35.05H117.693V42H112.777ZM136.279 28C142.063 28 144.046 30.95 144.046 35C144.046 39.0333 142.063 42 136.279 42H129.046V28H136.279ZM136.279 37.7833C137.763 37.7833 138.979 37.0833 138.979 35C138.979 32.9 137.763 32.2167 136.279 32.2167H134.113L134.096 37.7833H136.279ZM152.714 42.4667C147.831 42.4667 144.714 39.5167 144.714 35C144.714 30.4833 147.831 27.5333 152.714 27.5333C157.614 27.5333 160.731 30.4833 160.731 35C160.731 39.5167 157.614 42.4667 152.714 42.4667ZM152.714 38.1167C154.331 38.1167 155.714 37.0333 155.714 35C155.714 32.9667 154.331 31.8833 152.714 31.8833C151.114 31.8833 149.714 32.9667 149.714 35C149.714 37.0333 151.114 38.1167 152.714 38.1167ZM165.96 42V28H174.11C177.96 28 180.31 29.6667 180.31 33.5833C180.31 37.4833 177.96 39.15 174.127 39.15H170.993V42H165.96ZM170.993 34.9667H173.66C174.593 34.9667 175.21 34.5 175.21 33.5833C175.21 32.65 174.593 32.1833 173.677 32.1833H170.993V34.9667ZM188.984 42.4667C184.1 42.4667 180.984 39.5167 180.984 35C180.984 30.4833 184.1 27.5333 188.984 27.5333C193.884 27.5333 197 30.4833 197 35C197 39.5167 193.884 42.4667 188.984 42.4667ZM188.984 38.1167C190.6 38.1167 191.984 37.0333 191.984 35C191.984 32.9667 190.6 31.8833 188.984 31.8833C187.384 31.8833 185.984 32.9667 185.984 35C185.984 37.0333 187.384 38.1167 188.984 38.1167ZM212.771 42H207.821L206.055 38.5667H202.888V42H197.855V28H206.088C210.021 28 212.255 29.6333 212.255 33.4667C212.255 35.3 211.455 36.6333 210.338 37.4667L212.771 42ZM202.888 32.1833V34.8167H205.721C206.721 34.8167 207.205 34.3167 207.205 33.5C207.205 32.6833 206.721 32.1833 205.721 32.1833H202.888ZM222.561 42L217.511 28H222.711L225.828 37.2667H226.361L229.478 28H234.694L229.628 42H222.561ZM241.679 42.4667C236.796 42.4667 233.679 39.5167 233.679 35C233.679 30.4833 236.796 27.5333 241.679 27.5333C246.579 27.5333 249.696 30.4833 249.696 35C249.696 39.5167 246.579 42.4667 241.679 42.4667ZM241.679 38.1167C243.296 38.1167 244.679 37.0333 244.679 35C244.679 32.9667 243.296 31.8833 241.679 31.8833C240.079 31.8833 238.679 32.9667 238.679 35C238.679 37.0333 240.079 38.1167 241.679 38.1167ZM258.409 42.4667C253.626 42.4667 250.476 39.5167 250.476 35C250.476 30.4833 253.626 27.5333 258.409 27.5333C261.926 27.5333 265.559 29.0833 265.942 34.0167H261.142C260.826 32.5667 259.842 31.8833 258.409 31.8833C256.792 31.8833 255.476 33.0667 255.476 35C255.476 36.9167 256.792 38.1167 258.409 38.1167C259.842 38.1167 260.826 37.4333 261.142 35.95H265.942C265.559 40.9167 261.976 42.4667 258.409 42.4667ZM267.9 27.1667L270.083 24.1833H276.133L278.317 27.1667H274.183L273.583 26.4333H272.633L272.033 27.1667H267.9ZM266.8 42V28H279.683V32.0167H271.833V33.3833H279.383V36.6167H271.833V37.9667H279.683V42H266.8ZM282.401 46.0167C282.568 44.6833 282.618 43.1167 282.601 42H280.701V37.8H286.534V38.7C286.534 42.8333 285.901 45.25 285.484 46.0167H282.401ZM291.917 42V28H298.251L300.134 35.3667H300.501L302.384 28H308.717V42H303.917V36.5333H303.534L302.167 42H298.467L297.101 36.5333H296.717V42H291.917ZM321.274 42L320.741 40.3167H315.041L314.508 42H309.308L314.358 28H321.424L326.491 42H321.274ZM316.224 36.6H319.558L318.324 32.7333H317.458L316.224 36.6ZM333.285 42.4667C328.268 42.45 325.985 40.95 326.135 37.2H330.651C330.685 38.0333 331.385 38.5167 333.285 38.55C334.918 38.5667 335.618 38.1333 335.618 37.6333C335.618 37.3667 335.551 36.9 334.285 36.7333L332.451 36.45C329.818 36.0333 326.451 35.85 326.451 32.0833C326.451 29.2667 328.701 27.5333 333.335 27.5333C337.468 27.5333 340.351 28.6 340.235 32.7667H335.735C335.585 31.95 334.868 31.45 333.218 31.45C331.801 31.45 331.285 31.85 331.285 32.35C331.285 32.5833 331.401 33.05 332.351 33.2L333.818 33.4333C336.635 33.9 340.635 33.85 340.635 37.85C340.635 40.9833 338.235 42.4833 333.285 42.4667ZM0.55 66V52H13.4333V56.0167H5.58333V57.3833H13.1333V60.6167H5.58333V61.9667H13.4333V66H0.55ZM14.5344 66V52H19.5677V61.8H26.8344V66H14.5344ZM27.9719 66V52H40.8552V56.0167H33.0052V57.3833H40.5552V60.6167H33.0052V61.9667H40.8552V66H27.9719ZM57.7979 66L57.2646 64.3167H51.5646L51.0313 66H45.8312L50.8812 52H57.9479L63.0146 66H57.7979ZM52.7479 60.6H56.0812L54.8479 56.7333H53.9812L52.7479 60.6ZM63.5969 66V52H68.6302V66H63.5969ZM69.7297 66V52H75.4964L79.5297 58.95H79.9964V52H84.913V66H79.263L75.0964 59.05H74.6464V66H69.7297ZM93.2326 52C99.0159 52 100.999 54.95 100.999 59C100.999 63.0333 99.0159 66 93.2326 66H85.9992V52H93.2326ZM93.2326 61.7833C94.7159 61.7833 95.9326 61.0833 95.9326 59C95.9326 56.9 94.7159 56.2167 93.2326 56.2167H91.0659L91.0492 61.7833H93.2326ZM112.036 66L111.503 64.3167H105.803L105.27 66H100.07L105.12 52H112.186L117.253 66H112.036ZM106.986 60.6H110.32L109.086 56.7333H108.22L106.986 60.6ZM122.21 66V52H127.977L132.01 58.95H132.477V52H137.393V66H131.743L127.577 59.05H127.127V66H122.21ZM143.663 51.0833H142.363C141.996 48.9167 143.546 48.0167 145.046 48.0167C146.38 48.0167 147.28 48.9333 148.38 48.9333C148.98 48.9333 149.38 48.6333 149.43 48.1333H150.713C151.08 50.2833 149.546 51.2 148.03 51.2C146.696 51.2 145.813 50.2833 144.713 50.2833C144.113 50.2833 143.713 50.5667 143.663 51.0833ZM149.946 66L149.413 64.3167H143.713L143.18 66H137.98L143.03 52H150.096L155.163 66H149.946ZM144.896 60.6H148.23L146.996 56.7333H146.13L144.896 60.6ZM162.148 66.4667C157.264 66.4667 154.148 63.5167 154.148 59C154.148 54.4833 157.264 51.5333 162.148 51.5333C167.048 51.5333 170.164 54.4833 170.164 59C170.164 63.5167 167.048 66.4667 162.148 66.4667ZM162.148 62.1167C163.764 62.1167 165.148 61.0333 165.148 59C165.148 56.9667 163.764 55.8833 162.148 55.8833C160.548 55.8833 159.148 56.9667 159.148 59C159.148 61.0333 160.548 62.1167 162.148 62.1167ZM189.769 52V56.2H184.803V66H179.753V56.2H174.803V52H189.769ZM190.765 66V52H203.648V56.0167H195.798V57.3833H203.348V60.6167H195.798V61.9667H203.648V66H190.765ZM209.124 66V52H222.008V56.0167H214.158V57.3833H221.708V60.6167H214.158V61.9667H222.008V66H209.124ZM223.109 66V52H228.875L232.909 58.95H233.375V52H238.292V66H232.642L228.475 59.05H228.025V66H223.109ZM247.061 66.4667C242.278 66.4667 239.128 63.5167 239.128 59C239.128 54.4833 242.278 51.5333 247.061 51.5333C250.578 51.5333 254.211 53.0833 254.595 58.0167H249.795C249.478 56.5667 248.495 55.8833 247.061 55.8833C245.445 55.8833 244.128 57.0667 244.128 59C244.128 60.9167 245.445 62.1167 247.061 62.1167C248.495 62.1167 249.478 61.4333 249.795 59.95H254.595C254.211 64.9167 250.628 66.4667 247.061 66.4667ZM263.417 66.4667C258.534 66.4667 255.417 63.5167 255.417 59C255.417 54.4833 258.534 51.5333 263.417 51.5333C268.317 51.5333 271.434 54.4833 271.434 59C271.434 63.5167 268.317 66.4667 263.417 66.4667ZM263.417 62.1167C265.034 62.1167 266.417 61.0333 266.417 59C266.417 56.9667 265.034 55.8833 263.417 55.8833C261.817 55.8833 260.417 56.9667 260.417 59C260.417 61.0333 261.817 62.1167 263.417 62.1167ZM272.288 66V52H278.055L282.088 58.95H282.555V52H287.472V66H281.822L277.655 59.05H277.205V66H272.288ZM303.441 52V56.2H298.474V66H293.424V56.2H288.474V52H303.441ZM319.353 66H314.403L312.637 62.5667H309.47V66H304.437V52H312.67C316.603 52 318.837 53.6333 318.837 57.4667C318.837 59.3 318.037 60.6333 316.92 61.4667L319.353 66ZM309.47 56.1833V58.8167H312.303C313.303 58.8167 313.787 58.3167 313.787 57.5C313.787 56.6833 313.303 56.1833 312.303 56.1833H309.47ZM327.558 66.4667C322.674 66.4667 319.558 63.5167 319.558 59C319.558 54.4833 322.674 51.5333 327.558 51.5333C332.458 51.5333 335.574 54.4833 335.574 59C335.574 63.5167 332.458 66.4667 327.558 66.4667ZM327.558 62.1167C329.174 62.1167 330.558 61.0333 330.558 59C330.558 56.9667 329.174 55.8833 327.558 55.8833C325.958 55.8833 324.558 56.9667 324.558 59C324.558 61.0333 325.958 62.1167 327.558 62.1167ZM343.846 66.4667C338.862 66.4667 336.429 64.4 336.429 59.8V52H341.512V59.6833C341.512 61.25 342.162 62.25 343.846 62.25C345.529 62.25 346.212 61.25 346.212 59.6833V52H351.262V59.7667C351.262 64.4 348.829 66.4667 343.846 66.4667ZM354.635 66.2667C353.302 66.2667 352.168 65.15 352.168 63.8333C352.168 62.5 353.302 61.3833 354.635 61.3833C355.985 61.3833 357.118 62.5 357.118 63.8333C357.118 65.15 355.985 66.2667 354.635 66.2667Z" fill="#F8F8F8"/>
</svg>
