<svg width="62" height="16" viewBox="0 0 62 16" fill="none" xmlns="http://www.w3.org/2000/svg">
<path d="M10.96 0.76V3.78H3.46V6.36H10.28V9.2H3.46V11.98H10.94V15H0.08V0.76H10.96ZM18.9833 10.7H12.9433V8.08H18.9833V10.7ZM33.8703 4.44C35.0036 4.44 35.8903 4.78 36.5303 5.46C37.1703 6.12667 37.4903 7.07333 37.4903 8.3V15H34.3703V8.84C34.3703 7.68 33.857 7.1 32.8303 7.1C32.2836 7.1 31.8503 7.28667 31.5303 7.66C31.2103 8.03333 31.0503 8.58 31.0503 9.3V15H27.9303V8.84C27.9303 7.68 27.417 7.1 26.3903 7.1C25.8436 7.1 25.4036 7.28667 25.0703 7.66C24.7503 8.03333 24.5903 8.58 24.5903 9.3V15H21.4703V4.68H24.5103V6.14C25.2703 5.00667 26.2503 4.44 27.4503 4.44C28.997 4.44 30.0636 5.06 30.6503 6.3C31.4903 5.06 32.5636 4.44 33.8703 4.44ZM50.2228 15H47.0828C46.9228 14.6933 46.8361 14.3067 46.8228 13.84C46.1295 14.7733 45.0295 15.24 43.5228 15.24C42.3895 15.24 41.4761 14.96 40.7828 14.4C40.1028 13.84 39.7628 13.0667 39.7628 12.08C39.7628 10.16 41.1095 9.08667 43.8028 8.86L45.4228 8.72C46.3161 8.62667 46.7628 8.28667 46.7628 7.7C46.7628 7.00667 46.2361 6.66 45.1828 6.66C44.5428 6.66 44.0895 6.76 43.8228 6.96C43.5695 7.14667 43.4161 7.5 43.3628 8.02H40.2628C40.4495 5.63333 42.0961 4.44 45.2028 4.44C48.2695 4.44 49.8028 5.5 49.8028 7.62V13.1C49.8028 13.9667 49.9428 14.6 50.2228 15ZM44.4628 13.14C45.1695 13.14 45.7295 12.96 46.1428 12.6C46.5561 12.2267 46.7628 11.6733 46.7628 10.94V10.18C46.5761 10.38 46.2295 10.5133 45.7228 10.58L44.4428 10.72C43.4428 10.8267 42.9428 11.24 42.9428 11.96C42.9428 12.32 43.0761 12.6067 43.3428 12.82C43.6095 13.0333 43.9828 13.14 44.4628 13.14ZM55.4952 3.5H52.5152V0.86H55.4952V3.5ZM55.5552 15H52.4352V4.68H55.5552V15ZM61.4966 15H58.3766V0.76H61.4966V15Z" fill="#9A9EED"/>
</svg>
