<svg width="216" height="18" viewBox="0 0 216 18" fill="none" xmlns="http://www.w3.org/2000/svg">
<path d="M5.56 15.24C4.09333 15.24 2.90667 14.7467 2 13.76C1.09333 12.7733 0.64 11.4667 0.64 9.84C0.64 8.2 1.09333 6.88667 2 5.9C2.89333 4.92667 4.08 4.44 5.56 4.44C6.82667 4.44 7.86667 4.78667 8.68 5.48C9.50667 6.17333 10 7.10667 10.16 8.28H8.12C7.98667 7.6 7.68667 7.08 7.22 6.72C6.76667 6.36 6.21333 6.18 5.56 6.18C4.69333 6.18 4 6.5 3.48 7.14C2.97333 7.76667 2.72 8.66667 2.72 9.84C2.72 11.0133 2.97333 11.92 3.48 12.56C4 13.1867 4.69333 13.5 5.56 13.5C6.22667 13.5 6.79333 13.3133 7.26 12.94C7.72667 12.5667 8.02 12.0267 8.14 11.32H10.18C10.02 12.52 9.52 13.4733 8.68 14.18C7.84 14.8867 6.8 15.24 5.56 15.24ZM21.1045 13.76C20.1579 14.7467 18.9245 15.24 17.4045 15.24C15.8845 15.24 14.6512 14.7467 13.7045 13.76C12.7579 12.7733 12.2845 11.4667 12.2845 9.84C12.2845 8.2 12.7579 6.88667 13.7045 5.9C14.6379 4.92667 15.8712 4.44 17.4045 4.44C18.9379 4.44 20.1712 4.92667 21.1045 5.9C22.0379 6.87333 22.5045 8.18667 22.5045 9.84C22.5045 11.48 22.0379 12.7867 21.1045 13.76ZM15.1845 12.54C15.7312 13.1933 16.4712 13.52 17.4045 13.52C18.3379 13.52 19.0712 13.1933 19.6045 12.54C20.1512 11.8867 20.4245 10.9867 20.4245 9.84C20.4245 8.69333 20.1512 7.79333 19.6045 7.14C19.0712 6.48667 18.3379 6.16 17.4045 6.16C16.4712 6.16 15.7312 6.48667 15.1845 7.14C14.6379 7.79333 14.3645 8.69333 14.3645 9.84C14.3645 10.9867 14.6379 11.8867 15.1845 12.54ZM30.4284 4.44C31.5618 4.44 32.4484 4.76 33.0884 5.4C33.7284 6.02667 34.0484 6.92 34.0484 8.08V15H32.0484V8.36C32.0484 6.92 31.3218 6.2 29.8684 6.2C29.2018 6.2 28.6018 6.45333 28.0684 6.96C27.5351 7.48 27.2684 8.22 27.2684 9.18V15H25.2684V4.68H27.1884V6.22C27.9751 5.03333 29.0551 4.44 30.4284 4.44ZM41.8325 4.68V6.32H39.7525V12.52C39.7525 12.8267 39.8392 13.0533 40.0125 13.2C40.1992 13.3333 40.5058 13.4 40.9325 13.4H41.8325V15C41.3925 15.04 40.9858 15.06 40.6125 15.06C39.6392 15.06 38.9192 14.8733 38.4525 14.5C37.9858 14.1267 37.7525 13.5267 37.7525 12.7V6.32H36.0925V4.68H37.7525V1.72H39.7525V4.68H41.8325ZM53.2383 13.46H53.7983V15C53.5049 15.04 53.1783 15.06 52.8183 15.06C52.1783 15.06 51.6983 14.9467 51.3783 14.72C51.0716 14.48 50.8849 14.1067 50.8183 13.6C50.1249 14.6933 49.0049 15.24 47.4583 15.24C46.3249 15.24 45.4249 14.9733 44.7583 14.44C44.1049 13.8933 43.7783 13.14 43.7783 12.18C43.7783 10.3133 45.0716 9.24667 47.6583 8.98L49.1783 8.82C49.7116 8.75333 50.0983 8.62 50.3383 8.42C50.5916 8.20667 50.7183 7.90667 50.7183 7.52C50.7183 7 50.5516 6.62667 50.2183 6.4C49.8983 6.16 49.3583 6.04 48.5983 6.04C47.7716 6.04 47.1783 6.18 46.8183 6.46C46.4583 6.72667 46.2516 7.20667 46.1983 7.9H44.2183C44.3649 5.59333 45.8249 4.44 48.5983 4.44C51.3183 4.44 52.6783 5.45333 52.6783 7.48V12.94C52.6783 13.2867 52.8649 13.46 53.2383 13.46ZM47.7583 13.68C48.6116 13.68 49.3183 13.44 49.8783 12.96C50.4383 12.48 50.7183 11.8 50.7183 10.92V9.84C50.4649 10.0533 50.0383 10.1933 49.4383 10.26L47.9983 10.42C47.2249 10.5133 46.6716 10.7 46.3383 10.98C46.0049 11.2467 45.8383 11.6267 45.8383 12.12C45.8383 12.6133 45.9983 13 46.3183 13.28C46.6516 13.5467 47.1316 13.68 47.7583 13.68ZM60.6684 4.68V6.32H58.5884V12.52C58.5884 12.8267 58.6751 13.0533 58.8484 13.2C59.0351 13.3333 59.3418 13.4 59.7684 13.4H60.6684V15C60.2284 15.04 59.8218 15.06 59.4484 15.06C58.4751 15.06 57.7551 14.8733 57.2884 14.5C56.8218 14.1267 56.5884 13.5267 56.5884 12.7V6.32H54.9284V4.68H56.5884V1.72H58.5884V4.68H60.6684ZM71.417 13.76C70.4704 14.7467 69.237 15.24 67.717 15.24C66.197 15.24 64.9637 14.7467 64.017 13.76C63.0704 12.7733 62.597 11.4667 62.597 9.84C62.597 8.2 63.0704 6.88667 64.017 5.9C64.9504 4.92667 66.1837 4.44 67.717 4.44C69.2504 4.44 70.4837 4.92667 71.417 5.9C72.3504 6.87333 72.817 8.18667 72.817 9.84C72.817 11.48 72.3504 12.7867 71.417 13.76ZM65.497 12.54C66.0437 13.1933 66.7837 13.52 67.717 13.52C68.6504 13.52 69.3837 13.1933 69.917 12.54C70.4637 11.8867 70.737 10.9867 70.737 9.84C70.737 8.69333 70.4637 7.79333 69.917 7.14C69.3837 6.48667 68.6504 6.16 67.717 6.16C66.7837 6.16 66.0437 6.48667 65.497 7.14C64.9504 7.79333 64.677 8.69333 64.677 9.84C64.677 10.9867 64.9504 11.8867 65.497 12.54ZM83.8786 0.439999C86.3853 0.439999 88.4319 1.14667 90.0186 2.56C91.6186 3.98667 92.4186 5.8 92.4186 8C92.4186 9.57333 92.0986 10.86 91.4586 11.86C90.8053 12.86 89.8786 13.36 88.6786 13.36C88.0253 13.36 87.4719 13.2133 87.0186 12.92C86.5653 12.6133 86.2653 12.1867 86.1186 11.64C85.5586 12.8 84.6253 13.38 83.3186 13.38C82.1986 13.38 81.3119 12.98 80.6586 12.18C80.0053 11.38 79.6786 10.2867 79.6786 8.9C79.6786 7.52667 80.0119 6.44 80.6786 5.64C81.3453 4.82667 82.2253 4.42 83.3186 4.42C84.3986 4.42 85.2119 4.85333 85.7586 5.72V4.68H87.6386V10.1C87.6386 11.1933 88.0319 11.74 88.8186 11.74C89.4186 11.74 89.8786 11.4133 90.1986 10.76C90.5319 10.1067 90.6986 9.21333 90.6986 8.08C90.6986 6.30667 90.0853 4.84667 88.8586 3.7C87.6053 2.55333 85.9386 1.98 83.8586 1.98C81.7919 1.98 80.1186 2.63333 78.8386 3.94C77.5586 5.23333 76.9186 6.91333 76.9186 8.98C76.9186 11.0733 77.5786 12.7467 78.8986 14C80.2053 15.2667 81.9053 15.9 83.9986 15.9C85.3986 15.9 86.6586 15.6733 87.7786 15.22V16.74C86.6586 17.1933 85.3786 17.42 83.9386 17.42C81.3119 17.42 79.2053 16.6333 77.6186 15.06C76.0053 13.4867 75.1986 11.46 75.1986 8.98C75.1986 6.51333 76.0053 4.47333 77.6186 2.86C79.2186 1.24667 81.3053 0.439999 83.8786 0.439999ZM82.0986 11.06C82.4719 11.5667 82.9986 11.82 83.6786 11.82C84.3586 11.82 84.8786 11.5667 85.2386 11.06C85.6119 10.54 85.7986 9.82 85.7986 8.9C85.7986 7.99333 85.6186 7.28 85.2586 6.76C84.8853 6.24 84.3519 5.98 83.6586 5.98C82.9653 5.98 82.4386 6.24 82.0786 6.76C81.7186 7.28 81.5386 7.99333 81.5386 8.9C81.5386 9.82 81.7253 10.54 82.0986 11.06ZM103.879 13.46H104.439V15C104.146 15.04 103.819 15.06 103.459 15.06C102.819 15.06 102.339 14.9467 102.019 14.72C101.712 14.48 101.526 14.1067 101.459 13.6C100.766 14.6933 99.6456 15.24 98.0989 15.24C96.9656 15.24 96.0656 14.9733 95.3989 14.44C94.7456 13.8933 94.4189 13.14 94.4189 12.18C94.4189 10.3133 95.7122 9.24667 98.2989 8.98L99.8189 8.82C100.352 8.75333 100.739 8.62 100.979 8.42C101.232 8.20667 101.359 7.90667 101.359 7.52C101.359 7 101.192 6.62667 100.859 6.4C100.539 6.16 99.9989 6.04 99.2389 6.04C98.4122 6.04 97.8189 6.18 97.4589 6.46C97.0989 6.72667 96.8922 7.20667 96.8389 7.9H94.8589C95.0056 5.59333 96.4656 4.44 99.2389 4.44C101.959 4.44 103.319 5.45333 103.319 7.48V12.94C103.319 13.2867 103.506 13.46 103.879 13.46ZM98.3989 13.68C99.2522 13.68 99.9589 13.44 100.519 12.96C101.079 12.48 101.359 11.8 101.359 10.92V9.84C101.106 10.0533 100.679 10.1933 100.079 10.26L98.6389 10.42C97.8656 10.5133 97.3122 10.7 96.9789 10.98C96.6456 11.2467 96.4789 11.6267 96.4789 12.12C96.4789 12.6133 96.6389 13 96.9589 13.28C97.2922 13.5467 97.7722 13.68 98.3989 13.68ZM111.901 4.52C112.194 4.52 112.387 4.52667 112.481 4.54V6.44H111.981C110.954 6.44 110.161 6.69333 109.601 7.2C109.041 7.70667 108.761 8.44 108.761 9.4V15H106.761V4.68H108.681V6.52C109.334 5.18667 110.407 4.52 111.901 4.52ZM126.209 4.44C127.329 4.44 128.202 4.77333 128.829 5.44C129.455 6.09333 129.769 6.97333 129.769 8.08V15H127.749V8.34C127.749 6.91333 127.089 6.2 125.769 6.2C125.062 6.2 124.482 6.47333 124.029 7.02C123.575 7.55333 123.349 8.32667 123.349 9.34V15H121.349V8.34C121.349 6.91333 120.682 6.2 119.349 6.2C118.642 6.2 118.062 6.47333 117.609 7.02C117.155 7.56667 116.929 8.34 116.929 9.34V15H114.929V4.68H116.849V6.22C117.555 5.03333 118.549 4.44 119.829 4.44C121.389 4.44 122.449 5.08667 123.009 6.38C123.742 5.08667 124.809 4.44 126.209 4.44ZM141.339 13.76C140.392 14.7467 139.159 15.24 137.639 15.24C136.119 15.24 134.886 14.7467 133.939 13.76C132.992 12.7733 132.519 11.4667 132.519 9.84C132.519 8.2 132.992 6.88667 133.939 5.9C134.872 4.92667 136.106 4.44 137.639 4.44C139.172 4.44 140.406 4.92667 141.339 5.9C142.272 6.87333 142.739 8.18667 142.739 9.84C142.739 11.48 142.272 12.7867 141.339 13.76ZM135.419 12.54C135.966 13.1933 136.706 13.52 137.639 13.52C138.572 13.52 139.306 13.1933 139.839 12.54C140.386 11.8867 140.659 10.9867 140.659 9.84C140.659 8.69333 140.386 7.79333 139.839 7.14C139.306 6.48667 138.572 6.16 137.639 6.16C136.706 6.16 135.966 6.48667 135.419 7.14C134.872 7.79333 134.599 8.69333 134.599 9.84C134.599 10.9867 134.872 11.8867 135.419 12.54ZM146.959 15H144.539V12.62H146.959V15ZM153.677 15.24C152.211 15.24 151.024 14.7467 150.117 13.76C149.211 12.7733 148.757 11.4667 148.757 9.84C148.757 8.2 149.211 6.88667 150.117 5.9C151.011 4.92667 152.197 4.44 153.677 4.44C154.944 4.44 155.984 4.78667 156.797 5.48C157.624 6.17333 158.117 7.10667 158.277 8.28H156.237C156.104 7.6 155.804 7.08 155.337 6.72C154.884 6.36 154.331 6.18 153.677 6.18C152.811 6.18 152.117 6.5 151.597 7.14C151.091 7.76667 150.837 8.66667 150.837 9.84C150.837 11.0133 151.091 11.92 151.597 12.56C152.117 13.1867 152.811 13.5 153.677 13.5C154.344 13.5 154.911 13.3133 155.377 12.94C155.844 12.5667 156.137 12.0267 156.257 11.32H158.297C158.137 12.52 157.637 13.4733 156.797 14.18C155.957 14.8867 154.917 15.24 153.677 15.24ZM169.222 13.76C168.275 14.7467 167.042 15.24 165.522 15.24C164.002 15.24 162.768 14.7467 161.822 13.76C160.875 12.7733 160.402 11.4667 160.402 9.84C160.402 8.2 160.875 6.88667 161.822 5.9C162.755 4.92667 163.988 4.44 165.522 4.44C167.055 4.44 168.288 4.92667 169.222 5.9C170.155 6.87333 170.622 8.18667 170.622 9.84C170.622 11.48 170.155 12.7867 169.222 13.76ZM163.302 12.54C163.848 13.1933 164.588 13.52 165.522 13.52C166.455 13.52 167.188 13.1933 167.722 12.54C168.268 11.8867 168.542 10.9867 168.542 9.84C168.542 8.69333 168.268 7.79333 167.722 7.14C167.188 6.48667 166.455 6.16 165.522 6.16C164.588 6.16 163.848 6.48667 163.302 7.14C162.755 7.79333 162.482 8.69333 162.482 9.84C162.482 10.9867 162.755 11.8867 163.302 12.54ZM184.666 4.44C185.786 4.44 186.659 4.77333 187.286 5.44C187.912 6.09333 188.226 6.97333 188.226 8.08V15H186.206V8.34C186.206 6.91333 185.546 6.2 184.226 6.2C183.519 6.2 182.939 6.47333 182.486 7.02C182.032 7.55333 181.806 8.32667 181.806 9.34V15H179.806V8.34C179.806 6.91333 179.139 6.2 177.806 6.2C177.099 6.2 176.519 6.47333 176.066 7.02C175.612 7.56667 175.386 8.34 175.386 9.34V15H173.386V4.68H175.306V6.22C176.012 5.03333 177.006 4.44 178.286 4.44C179.846 4.44 180.906 5.08667 181.466 6.38C182.199 5.08667 183.266 4.44 184.666 4.44ZM193.596 15H191.176V12.62H193.596V15ZM201.918 4.44C203.358 4.44 204.504 4.92667 205.358 5.9C206.211 6.87333 206.638 8.18667 206.638 9.84C206.638 11.48 206.211 12.7867 205.358 13.76C204.491 14.7467 203.344 15.24 201.918 15.24C200.398 15.24 199.251 14.64 198.478 13.44V15H196.558V0.76H198.558V6.12C199.331 5 200.451 4.44 201.918 4.44ZM199.338 12.54C199.871 13.1933 200.604 13.52 201.538 13.52C202.471 13.52 203.211 13.1867 203.758 12.52C204.291 11.8667 204.558 10.9467 204.558 9.76C204.558 8.61333 204.291 7.72667 203.758 7.1C203.224 6.47333 202.484 6.16 201.538 6.16C200.618 6.16 199.884 6.48 199.338 7.12C198.791 7.78667 198.518 8.69333 198.518 9.84C198.518 10.9867 198.791 11.8867 199.338 12.54ZM214.533 4.52C214.827 4.52 215.02 4.52667 215.113 4.54V6.44H214.613C213.587 6.44 212.793 6.69333 212.233 7.2C211.673 7.70667 211.393 8.44 211.393 9.4V15H209.393V4.68H211.313V6.52C211.967 5.18667 213.04 4.52 214.533 4.52Z" fill="#CBCDF6"/>
</svg>
