<svg width="317" height="20" viewBox="0 0 317 20" fill="none" xmlns="http://www.w3.org/2000/svg">
<path d="M6.54 15.32C4.66 15.32 3.19333 14.8933 2.14 14.04C1.1 13.1867 0.573333 11.94 0.56 10.3H2.7C2.74 12.4333 4.03333 13.5 6.58 13.5C7.63333 13.5 8.44 13.3 9 12.9C9.57333 12.4867 9.86 11.8933 9.86 11.12C9.86 10.4933 9.62667 10.0133 9.16 9.68C8.69333 9.33333 7.85333 9.02667 6.64 8.76L5.42 8.5C3.95333 8.20667 2.84667 7.72667 2.1 7.06C1.35333 6.39333 0.98 5.47333 0.98 4.3C0.98 3.12667 1.43333 2.19333 2.34 1.5C3.24667 0.793333 4.47333 0.439999 6.02 0.439999C7.88667 0.439999 9.28667 0.839999 10.22 1.64C11.1667 2.44 11.6533 3.54 11.68 4.94H9.56C9.49333 4.02 9.18667 3.34667 8.64 2.92C8.10667 2.48 7.24 2.26 6.04 2.26C5.10667 2.26 4.39333 2.43333 3.9 2.78C3.40667 3.12667 3.16 3.62 3.16 4.26C3.16 4.91333 3.38 5.40667 3.82 5.74C4.26 6.1 5.07333 6.40667 6.26 6.66L7.5 6.92C9.12667 7.26667 10.2933 7.76667 11 8.42C11.72 9.07333 12.08 9.95333 12.08 11.06C12.08 12.38 11.5867 13.42 10.6 14.18C9.62667 14.94 8.27333 15.32 6.54 15.32ZM24.2916 9.92V10.5H16.5116C16.6049 11.5133 16.9049 12.28 17.4116 12.8C17.9182 13.3067 18.6049 13.56 19.4716 13.56C20.7782 13.56 21.6316 12.9867 22.0316 11.84H24.0516C23.7716 12.8933 23.2249 13.7267 22.4116 14.34C21.6116 14.94 20.6182 15.24 19.4316 15.24C17.9516 15.24 16.7582 14.7467 15.8516 13.76C14.9449 12.7733 14.4916 11.4667 14.4916 9.84C14.4916 8.21333 14.9449 6.90667 15.8516 5.92C16.7582 4.93333 17.9382 4.44 19.3916 4.44C20.9116 4.44 22.1116 4.95333 22.9916 5.98C23.8582 7.00667 24.2916 8.32 24.2916 9.92ZM19.3916 6.12C18.6049 6.12 17.9582 6.36 17.4516 6.84C16.9582 7.32 16.6516 8.01333 16.5316 8.92H22.2316C22.1382 8.08 21.8382 7.40667 21.3316 6.9C20.8382 6.38 20.1916 6.12 19.3916 6.12ZM34.7253 6.14V4.68H36.6453V14.62C36.6453 16.0333 36.2186 17.14 35.3653 17.94C34.512 18.7533 33.2986 19.16 31.7253 19.16C30.3786 19.16 29.3053 18.8533 28.5053 18.24C27.7186 17.6267 27.272 16.7867 27.1653 15.72H29.1653C29.3253 16.9333 30.1853 17.54 31.7453 17.54C33.6786 17.54 34.6453 16.58 34.6453 14.66V13.52C33.8586 14.5867 32.752 15.12 31.3253 15.12C29.8853 15.12 28.7386 14.6333 27.8853 13.66C27.0186 12.6733 26.5853 11.38 26.5853 9.78C26.5853 8.18 27.0186 6.88667 27.8853 5.9C28.7386 4.92667 29.8786 4.44 31.3053 4.44C32.812 4.44 33.952 5.00667 34.7253 6.14ZM31.6853 13.4C32.6186 13.4 33.352 13.08 33.8853 12.44C34.432 11.7867 34.7053 10.9 34.7053 9.78C34.7053 8.66 34.432 7.78 33.8853 7.14C33.352 6.48667 32.6186 6.16 31.6853 6.16C30.7653 6.16 30.032 6.48667 29.4853 7.14C28.9386 7.79333 28.6653 8.67333 28.6653 9.78C28.6653 10.9 28.9386 11.7867 29.4853 12.44C30.032 13.08 30.7653 13.4 31.6853 13.4ZM53.8242 13.46H54.3842V15C54.0909 15.04 53.7642 15.06 53.4042 15.06C52.7642 15.06 52.2842 14.9467 51.9642 14.72C51.6576 14.48 51.4709 14.1067 51.4042 13.6C50.7109 14.6933 49.5909 15.24 48.0442 15.24C46.9109 15.24 46.0109 14.9733 45.3442 14.44C44.6909 13.8933 44.3642 13.14 44.3642 12.18C44.3642 10.3133 45.6576 9.24667 48.2442 8.98L49.7642 8.82C50.2976 8.75333 50.6842 8.62 50.9242 8.42C51.1776 8.20667 51.3042 7.90667 51.3042 7.52C51.3042 7 51.1376 6.62667 50.8042 6.4C50.4842 6.16 49.9442 6.04 49.1842 6.04C48.3576 6.04 47.7642 6.18 47.4042 6.46C47.0442 6.72667 46.8376 7.20667 46.7842 7.9H44.8042C44.9509 5.59333 46.4109 4.44 49.1842 4.44C51.9042 4.44 53.2642 5.45333 53.2642 7.48V12.94C53.2642 13.2867 53.4509 13.46 53.8242 13.46ZM48.3442 13.68C49.1976 13.68 49.9042 13.44 50.4642 12.96C51.0242 12.48 51.3042 11.8 51.3042 10.92V9.84C51.0509 10.0533 50.6242 10.1933 50.0242 10.26L48.5842 10.42C47.8109 10.5133 47.2576 10.7 46.9242 10.98C46.5909 11.2467 46.4242 11.6267 46.4242 12.12C46.4242 12.6133 46.5842 13 46.9042 13.28C47.2376 13.5467 47.7176 13.68 48.3442 13.68ZM67.1689 15.32C65.2889 15.32 63.8222 14.8933 62.7689 14.04C61.7289 13.1867 61.2022 11.94 61.1889 10.3H63.3289C63.3689 12.4333 64.6622 13.5 67.2089 13.5C68.2622 13.5 69.0689 13.3 69.6289 12.9C70.2022 12.4867 70.4889 11.8933 70.4889 11.12C70.4889 10.4933 70.2556 10.0133 69.7889 9.68C69.3222 9.33333 68.4822 9.02667 67.2689 8.76L66.0489 8.5C64.5822 8.20667 63.4756 7.72667 62.7289 7.06C61.9822 6.39333 61.6089 5.47333 61.6089 4.3C61.6089 3.12667 62.0622 2.19333 62.9689 1.5C63.8756 0.793333 65.1022 0.439999 66.6489 0.439999C68.5156 0.439999 69.9156 0.839999 70.8489 1.64C71.7956 2.44 72.2822 3.54 72.3089 4.94H70.1889C70.1222 4.02 69.8156 3.34667 69.2689 2.92C68.7356 2.48 67.8689 2.26 66.6689 2.26C65.7356 2.26 65.0222 2.43333 64.5289 2.78C64.0356 3.12667 63.7889 3.62 63.7889 4.26C63.7889 4.91333 64.0089 5.40667 64.4489 5.74C64.8889 6.1 65.7022 6.40667 66.8889 6.66L68.1289 6.92C69.7556 7.26667 70.9222 7.76667 71.6289 8.42C72.3489 9.07333 72.7089 9.95333 72.7089 11.06C72.7089 12.38 72.2156 13.42 71.2289 14.18C70.2556 14.94 68.9022 15.32 67.1689 15.32ZM84.9205 9.92V10.5H77.1405C77.2338 11.5133 77.5338 12.28 78.0405 12.8C78.5471 13.3067 79.2338 13.56 80.1005 13.56C81.4071 13.56 82.2605 12.9867 82.6605 11.84H84.6805C84.4005 12.8933 83.8538 13.7267 83.0405 14.34C82.2405 14.94 81.2471 15.24 80.0605 15.24C78.5805 15.24 77.3871 14.7467 76.4805 13.76C75.5738 12.7733 75.1205 11.4667 75.1205 9.84C75.1205 8.21333 75.5738 6.90667 76.4805 5.92C77.3871 4.93333 78.5671 4.44 80.0205 4.44C81.5405 4.44 82.7405 4.95333 83.6205 5.98C84.4871 7.00667 84.9205 8.32 84.9205 9.92ZM80.0205 6.12C79.2338 6.12 78.5871 6.36 78.0805 6.84C77.5871 7.32 77.2805 8.01333 77.1605 8.92H82.8605C82.7671 8.08 82.4671 7.40667 81.9605 6.9C81.4671 6.38 80.8205 6.12 80.0205 6.12ZM95.6744 4.68L91.9944 9.7L95.8744 15H93.5544L93.0744 14.32L90.8344 11.16C90.7544 11.2667 90.4144 11.74 89.8144 12.58C89.0944 13.5933 88.681 14.18 88.5744 14.34L88.0944 15H85.8144L89.6944 9.7L86.0144 4.68H88.3344L89.0344 5.64C89.2877 5.98667 89.621 6.46667 90.0344 7.08C90.461 7.68 90.741 8.07333 90.8744 8.26C91.2477 7.71333 91.861 6.84 92.7144 5.64L93.3944 4.68H95.6744ZM102.891 4.68V6.32H100.811V12.52C100.811 12.8267 100.898 13.0533 101.071 13.2C101.258 13.3333 101.564 13.4 101.991 13.4H102.891V15C102.451 15.04 102.044 15.06 101.671 15.06C100.698 15.06 99.9778 14.8733 99.5111 14.5C99.0444 14.1267 98.8111 13.5267 98.8111 12.7V6.32H97.1511V4.68H98.8111V1.72H100.811V4.68H102.891ZM114.297 13.46H114.857V15C114.564 15.04 114.237 15.06 113.877 15.06C113.237 15.06 112.757 14.9467 112.437 14.72C112.13 14.48 111.944 14.1067 111.877 13.6C111.184 14.6933 110.064 15.24 108.517 15.24C107.384 15.24 106.484 14.9733 105.817 14.44C105.164 13.8933 104.837 13.14 104.837 12.18C104.837 10.3133 106.13 9.24667 108.717 8.98L110.237 8.82C110.77 8.75333 111.157 8.62 111.397 8.42C111.65 8.20667 111.777 7.90667 111.777 7.52C111.777 7 111.61 6.62667 111.277 6.4C110.957 6.16 110.417 6.04 109.657 6.04C108.83 6.04 108.237 6.18 107.877 6.46C107.517 6.72667 107.31 7.20667 107.257 7.9H105.277C105.424 5.59333 106.884 4.44 109.657 4.44C112.377 4.44 113.737 5.45333 113.737 7.48V12.94C113.737 13.2867 113.924 13.46 114.297 13.46ZM108.817 13.68C109.67 13.68 110.377 13.44 110.937 12.96C111.497 12.48 111.777 11.8 111.777 10.92V9.84C111.524 10.0533 111.097 10.1933 110.497 10.26L109.057 10.42C108.284 10.5133 107.73 10.7 107.397 10.98C107.064 11.2467 106.897 11.6267 106.897 12.12C106.897 12.6133 107.057 13 107.377 13.28C107.71 13.5467 108.19 13.68 108.817 13.68ZM122.659 10.24H116.799V8.5H122.659V10.24ZM130.582 2.38H129.682C128.789 2.38 128.342 2.83333 128.342 3.74V4.68H130.502V6.32H128.342V15H126.342V6.32H124.682V4.68H126.342V3.74C126.342 1.71333 127.376 0.699999 129.442 0.699999C129.642 0.699999 130.022 0.719999 130.582 0.76V2.38ZM141.78 9.92V10.5H134C134.093 11.5133 134.393 12.28 134.9 12.8C135.407 13.3067 136.093 13.56 136.96 13.56C138.267 13.56 139.12 12.9867 139.52 11.84H141.54C141.26 12.8933 140.713 13.7267 139.9 14.34C139.1 14.94 138.107 15.24 136.92 15.24C135.44 15.24 134.247 14.7467 133.34 13.76C132.433 12.7733 131.98 11.4667 131.98 9.84C131.98 8.21333 132.433 6.90667 133.34 5.92C134.247 4.93333 135.427 4.44 136.88 4.44C138.4 4.44 139.6 4.95333 140.48 5.98C141.347 7.00667 141.78 8.32 141.78 9.92ZM136.88 6.12C136.093 6.12 135.447 6.36 134.94 6.84C134.447 7.32 134.14 8.01333 134.02 8.92H139.72C139.627 8.08 139.327 7.40667 138.82 6.9C138.327 6.38 137.68 6.12 136.88 6.12ZM146.574 3.22H144.534V1.08H146.574V3.22ZM146.554 15H144.554V4.68H146.554V15ZM154.932 4.52C155.225 4.52 155.419 4.52667 155.512 4.54V6.44H155.012C153.985 6.44 153.192 6.69333 152.632 7.2C152.072 7.70667 151.792 8.44 151.792 9.4V15H149.792V4.68H151.712V6.52C152.365 5.18667 153.439 4.52 154.932 4.52ZM166.176 13.46H166.736V15C166.442 15.04 166.116 15.06 165.756 15.06C165.116 15.06 164.636 14.9467 164.316 14.72C164.009 14.48 163.822 14.1067 163.756 13.6C163.062 14.6933 161.942 15.24 160.396 15.24C159.262 15.24 158.362 14.9733 157.696 14.44C157.042 13.8933 156.716 13.14 156.716 12.18C156.716 10.3133 158.009 9.24667 160.596 8.98L162.116 8.82C162.649 8.75333 163.036 8.62 163.276 8.42C163.529 8.20667 163.656 7.90667 163.656 7.52C163.656 7 163.489 6.62667 163.156 6.4C162.836 6.16 162.296 6.04 161.536 6.04C160.709 6.04 160.116 6.18 159.756 6.46C159.396 6.72667 159.189 7.20667 159.136 7.9H157.156C157.302 5.59333 158.762 4.44 161.536 4.44C164.256 4.44 165.616 5.45333 165.616 7.48V12.94C165.616 13.2867 165.802 13.46 166.176 13.46ZM160.696 13.68C161.549 13.68 162.256 13.44 162.816 12.96C163.376 12.48 163.656 11.8 163.656 10.92V9.84C163.402 10.0533 162.976 10.1933 162.376 10.26L160.936 10.42C160.162 10.5133 159.609 10.7 159.276 10.98C158.942 11.2467 158.776 11.6267 158.776 12.12C158.776 12.6133 158.936 13 159.256 13.28C159.589 13.5467 160.069 13.68 160.696 13.68ZM179.3 15.32C177.54 15.32 176.2 14.68 175.28 13.4C174.36 12.12 173.9 10.28 173.9 7.88C173.9 5.48 174.36 3.64 175.28 2.36C176.2 1.08 177.54 0.439999 179.3 0.439999C181.074 0.439999 182.414 1.08 183.32 2.36C184.24 3.62667 184.7 5.46667 184.7 7.88C184.7 10.2933 184.24 12.14 183.32 13.42C182.414 14.6867 181.074 15.32 179.3 15.32ZM179.3 13.46C181.42 13.46 182.48 11.6 182.48 7.88C182.48 4.16 181.42 2.3 179.3 2.3C177.194 2.3 176.14 4.16 176.14 7.88C176.14 11.6 177.194 13.46 179.3 13.46ZM195.562 1.58C197.015 2.71333 197.742 4.81333 197.742 7.88C197.742 10.28 197.282 12.14 196.362 13.46C195.442 14.78 194.115 15.44 192.382 15.44C191.035 15.44 189.929 15.1 189.062 14.42C188.195 13.7267 187.655 12.7733 187.442 11.56H189.502C189.635 12.24 189.949 12.7667 190.442 13.14C190.949 13.5 191.589 13.68 192.362 13.68C194.509 13.68 195.615 11.8867 195.682 8.3C195.282 8.88667 194.762 9.35333 194.122 9.7C193.495 10.0333 192.822 10.2 192.102 10.2C190.595 10.2 189.409 9.74667 188.542 8.84C187.675 7.93333 187.242 6.8 187.242 5.44C187.242 4.01333 187.709 2.84 188.642 1.92C189.589 1.01333 190.815 0.559999 192.322 0.559999C193.615 0.559999 194.695 0.899999 195.562 1.58ZM192.322 8.44C193.189 8.44 193.895 8.16 194.442 7.6C195.002 7.04 195.282 6.31333 195.282 5.42C195.282 4.51333 195.009 3.78 194.462 3.22C193.915 2.66 193.202 2.38 192.322 2.38C191.455 2.38 190.749 2.66667 190.202 3.24C189.655 3.8 189.382 4.52667 189.382 5.42C189.382 6.3 189.655 7.02667 190.202 7.6C190.762 8.16 191.469 8.44 192.322 8.44ZM202.928 7.56H200.508V5.18H202.928V7.56ZM202.928 15H200.508V12.62H202.928V15ZM211.09 15.32C209.33 15.32 207.99 14.68 207.07 13.4C206.15 12.12 205.69 10.28 205.69 7.88C205.69 5.48 206.15 3.64 207.07 2.36C207.99 1.08 209.33 0.439999 211.09 0.439999C212.863 0.439999 214.203 1.08 215.11 2.36C216.03 3.62667 216.49 5.46667 216.49 7.88C216.49 10.2933 216.03 12.14 215.11 13.42C214.203 14.6867 212.863 15.32 211.09 15.32ZM211.09 13.46C213.21 13.46 214.27 11.6 214.27 7.88C214.27 4.16 213.21 2.3 211.09 2.3C208.983 2.3 207.93 4.16 207.93 7.88C207.93 11.6 208.983 13.46 211.09 13.46ZM224.57 15.32C222.81 15.32 221.47 14.68 220.55 13.4C219.63 12.12 219.17 10.28 219.17 7.88C219.17 5.48 219.63 3.64 220.55 2.36C221.47 1.08 222.81 0.439999 224.57 0.439999C226.343 0.439999 227.683 1.08 228.59 2.36C229.51 3.62667 229.97 5.46667 229.97 7.88C229.97 10.2933 229.51 12.14 228.59 13.42C227.683 14.6867 226.343 15.32 224.57 15.32ZM224.57 13.46C226.69 13.46 227.75 11.6 227.75 7.88C227.75 4.16 226.69 2.3 224.57 2.3C222.463 2.3 221.41 4.16 221.41 7.88C221.41 11.6 222.463 13.46 224.57 13.46ZM241.45 0.339999L243.19 3.22H241.47L238.95 0.339999H241.45ZM246.93 13.46H247.49V15C247.196 15.04 246.87 15.06 246.51 15.06C245.87 15.06 245.39 14.9467 245.07 14.72C244.763 14.48 244.576 14.1067 244.51 13.6C243.816 14.6933 242.696 15.24 241.15 15.24C240.016 15.24 239.116 14.9733 238.45 14.44C237.796 13.8933 237.47 13.14 237.47 12.18C237.47 10.3133 238.763 9.24667 241.35 8.98L242.87 8.82C243.403 8.75333 243.79 8.62 244.03 8.42C244.283 8.20667 244.41 7.90667 244.41 7.52C244.41 7 244.243 6.62667 243.91 6.4C243.59 6.16 243.05 6.04 242.29 6.04C241.463 6.04 240.87 6.18 240.51 6.46C240.15 6.72667 239.943 7.20667 239.89 7.9H237.91C238.056 5.59333 239.516 4.44 242.29 4.44C245.01 4.44 246.37 5.45333 246.37 7.48V12.94C246.37 13.2867 246.556 13.46 246.93 13.46ZM241.45 13.68C242.303 13.68 243.01 13.44 243.57 12.96C244.13 12.48 244.41 11.8 244.41 10.92V9.84C244.156 10.0533 243.73 10.1933 243.13 10.26L241.69 10.42C240.916 10.5133 240.363 10.7 240.03 10.98C239.696 11.2467 239.53 11.6267 239.53 12.12C239.53 12.6133 239.69 13 240.01 13.28C240.343 13.5467 240.823 13.68 241.45 13.68ZM253.67 15.26C250.804 15.26 249.297 14.08 249.15 11.72H251.15C251.23 12.44 251.464 12.9467 251.85 13.24C252.237 13.5333 252.85 13.68 253.69 13.68C255.21 13.68 255.97 13.2 255.97 12.24C255.97 11.8267 255.81 11.5067 255.49 11.28C255.17 11.0533 254.597 10.8667 253.77 10.72L252.71 10.52C250.524 10.12 249.43 9.09333 249.43 7.44C249.43 6.52 249.784 5.79333 250.49 5.26C251.197 4.71333 252.17 4.44 253.41 4.44C256.25 4.44 257.704 5.59333 257.77 7.9H255.83C255.79 7.20667 255.577 6.72 255.19 6.44C254.804 6.14667 254.21 6 253.41 6C252.77 6 252.277 6.12 251.93 6.36C251.584 6.6 251.41 6.94 251.41 7.38C251.41 7.78 251.564 8.09333 251.87 8.32C252.177 8.53333 252.664 8.70667 253.33 8.84L254.41 9.02C255.677 9.26 256.59 9.62 257.15 10.1C257.71 10.58 257.99 11.2467 257.99 12.1C257.99 13.1 257.61 13.88 256.85 14.44C256.09 14.9867 255.03 15.26 253.67 15.26ZM268.902 0.76H270.622V15H268.482V4.84H265.222V3.26L265.542 3.24C266.569 3.17333 267.336 2.96 267.842 2.6C268.362 2.22667 268.716 1.61333 268.902 0.76ZM281.623 7.4C283.33 8.06667 284.183 9.25333 284.183 10.96C284.183 12.2933 283.697 13.3467 282.723 14.12C281.75 14.92 280.457 15.32 278.843 15.32C277.23 15.32 275.937 14.92 274.963 14.12C273.99 13.3467 273.503 12.2933 273.503 10.96C273.503 9.25333 274.357 8.06667 276.063 7.4C274.743 6.76 274.083 5.74667 274.083 4.36C274.083 3.13333 274.53 2.17333 275.423 1.48C276.29 0.786666 277.43 0.439999 278.843 0.439999C280.243 0.439999 281.39 0.786666 282.283 1.48C283.163 2.17333 283.603 3.13333 283.603 4.36C283.603 5.74667 282.943 6.76 281.623 7.4ZM281.583 4.42C281.583 3.71333 281.33 3.16667 280.823 2.78C280.317 2.39333 279.657 2.2 278.843 2.2C278.03 2.2 277.37 2.39333 276.863 2.78C276.357 3.16667 276.103 3.71333 276.103 4.42C276.103 5.12667 276.357 5.67333 276.863 6.06C277.37 6.44667 278.03 6.64 278.843 6.64C279.657 6.64 280.317 6.44667 280.823 6.06C281.33 5.67333 281.583 5.12667 281.583 4.42ZM276.523 12.82C277.097 13.2867 277.87 13.52 278.843 13.52C279.817 13.52 280.59 13.2867 281.163 12.82C281.723 12.3533 282.003 11.7067 282.003 10.88C282.003 10.0533 281.723 9.41333 281.163 8.96C280.603 8.49333 279.83 8.26 278.843 8.26C277.843 8.26 277.063 8.49333 276.503 8.96C275.943 9.41333 275.663 10.0533 275.663 10.88C275.663 11.72 275.95 12.3667 276.523 12.82ZM289.057 7.56H286.637V5.18H289.057V7.56ZM289.057 15H286.637V12.62H289.057V15ZM297.218 15.32C295.458 15.32 294.118 14.68 293.198 13.4C292.278 12.12 291.818 10.28 291.818 7.88C291.818 5.48 292.278 3.64 293.198 2.36C294.118 1.08 295.458 0.439999 297.218 0.439999C298.992 0.439999 300.332 1.08 301.238 2.36C302.158 3.62667 302.618 5.46667 302.618 7.88C302.618 10.2933 302.158 12.14 301.238 13.42C300.332 14.6867 298.992 15.32 297.218 15.32ZM297.218 13.46C299.338 13.46 300.398 11.6 300.398 7.88C300.398 4.16 299.338 2.3 297.218 2.3C295.112 2.3 294.058 4.16 294.058 7.88C294.058 11.6 295.112 13.46 297.218 13.46ZM310.699 15.32C308.939 15.32 307.599 14.68 306.679 13.4C305.759 12.12 305.299 10.28 305.299 7.88C305.299 5.48 305.759 3.64 306.679 2.36C307.599 1.08 308.939 0.439999 310.699 0.439999C312.472 0.439999 313.812 1.08 314.719 2.36C315.639 3.62667 316.099 5.46667 316.099 7.88C316.099 10.2933 315.639 12.14 314.719 13.42C313.812 14.6867 312.472 15.32 310.699 15.32ZM310.699 13.46C312.819 13.46 313.879 11.6 313.879 7.88C313.879 4.16 312.819 2.3 310.699 2.3C308.592 2.3 307.539 4.16 307.539 7.88C307.539 11.6 308.592 13.46 310.699 13.46Z" fill="#CBCDF6"/>
</svg>
