<svg width="40" height="40" viewBox="0 0 40 40" fill="none" xmlns="http://www.w3.org/2000/svg">
<rect width="40" height="40" rx="10" fill="url(#paint0_linear_29_1122)"/>
<path d="M20 9.3335C14.1091 9.3335 9.33337 14.1092 9.33337 20.0002C9.33337 21.9343 9.85662 23.7426 10.7532 25.3028C10.7906 25.3792 10.8416 25.5564 10.8424 25.8631C10.8432 26.1692 10.7936 26.5387 10.6899 26.9331C10.4777 27.7404 10.0791 28.5064 9.62588 28.9602C9.34709 29.2392 9.25843 29.6562 9.39953 30.0246C9.54064 30.393 9.88514 30.6439 10.2791 30.6654C11.2655 30.719 12.3509 30.5244 13.292 30.2503C13.9829 30.049 14.648 29.7896 15.1891 29.5128C15.8932 29.8703 16.8513 30.2598 18.03 30.4827C18.6684 30.6036 19.328 30.6668 20 30.6668C25.8909 30.6668 30.6667 25.8911 30.6667 20.0002C30.6667 14.1092 25.8909 9.3335 20 9.3335Z" fill="#9400FB"/>
<path fill-rule="evenodd" clip-rule="evenodd" d="M14.6667 17.667C14.6667 17.1147 15.1144 16.667 15.6667 16.667H24.3334C24.8856 16.667 25.3334 17.1147 25.3334 17.667C25.3334 18.2193 24.8856 18.667 24.3334 18.667H15.6667C15.1144 18.667 14.6667 18.2193 14.6667 17.667Z" fill="#ECCAFF"/>
<path fill-rule="evenodd" clip-rule="evenodd" d="M14.6667 22.3335C14.6667 21.7812 15.1144 21.3335 15.6667 21.3335H21.6667C22.219 21.3335 22.6667 21.7812 22.6667 22.3335C22.6667 22.8858 22.219 23.3335 21.6667 23.3335H15.6667C15.1144 23.3335 14.6667 22.8858 14.6667 22.3335Z" fill="#ECCAFF"/>
<defs>
<linearGradient id="paint0_linear_29_1122" x1="0" y1="20" x2="40" y2="20" gradientUnits="userSpaceOnUse">
<stop stop-color="#9A9EED"/>
<stop offset="1" stop-color="#BFC2EE"/>
</linearGradient>
</defs>
</svg>
