<svg width="131" height="16" viewBox="0 0 131 16" fill="none" xmlns="http://www.w3.org/2000/svg">
<path d="M14.62 15H11.04L10.2 12.52H4.28L3.46 15H0L5.24 0.76H9.26L14.62 15ZM6.04 7.26L5.22 9.7H9.24L8.42 7.26C8.16667 6.54 7.76667 5.34 7.22 3.66C6.51333 5.83333 6.12 7.03333 6.04 7.26ZM21.7467 4.68V6.96H19.7667V11.78C19.7667 12.1267 19.8534 12.3667 20.0267 12.5C20.2001 12.62 20.5067 12.68 20.9467 12.68H21.7467V15C21.3734 15.0533 20.8934 15.08 20.3067 15.08C19.0134 15.08 18.0801 14.8533 17.5067 14.4C16.9334 13.9333 16.6467 13.1733 16.6467 12.12V6.96H15.1067V4.68H16.6467V1.62H19.7667V4.68H21.7467ZM34.0966 10.14V10.76H26.4566C26.5632 11.4667 26.8232 12.0067 27.2366 12.38C27.6499 12.7533 28.1766 12.94 28.8166 12.94C29.8299 12.94 30.5232 12.5533 30.8966 11.78H33.8566C33.5766 12.8467 32.9832 13.6933 32.0766 14.32C31.1699 14.9333 30.0832 15.24 28.8166 15.24C27.2166 15.24 25.9232 14.7467 24.9366 13.76C23.9499 12.7733 23.4566 11.4667 23.4566 9.84C23.4566 8.2 23.9432 6.89333 24.9166 5.92C25.8766 4.93333 27.1632 4.44 28.7766 4.44C30.3766 4.44 31.6699 4.95333 32.6566 5.98C33.6166 7.02 34.0966 8.40667 34.0966 10.14ZM28.7366 6.74C27.4566 6.74 26.7032 7.42 26.4766 8.78H31.0366C30.9299 8.14 30.6766 7.64 30.2766 7.28C29.8766 6.92 29.3632 6.74 28.7366 6.74ZM42.8363 4.44C43.9296 4.44 44.7963 4.77333 45.4363 5.44C46.0896 6.09333 46.4163 7.02667 46.4163 8.24V15H43.2963V8.86C43.2963 7.68667 42.7429 7.1 41.6363 7.1C41.0763 7.1 40.6096 7.28667 40.2363 7.66C39.8629 8.03333 39.6763 8.56 39.6763 9.24V15H36.5563V4.68H39.5963V6.14C40.3963 5.00667 41.4763 4.44 42.8363 4.44ZM56.3164 5.92V0.76H59.4364V15H56.3964V13.66C55.7031 14.7133 54.6697 15.24 53.2964 15.24C51.9097 15.24 50.8164 14.7533 50.0164 13.78C49.2031 12.8067 48.7964 11.4933 48.7964 9.84C48.7964 8.18667 49.2031 6.87333 50.0164 5.9C50.8164 4.92667 51.9097 4.44 53.2964 4.44C54.6031 4.44 55.6097 4.93333 56.3164 5.92ZM54.1564 12.74C55.6364 12.74 56.3764 11.7733 56.3764 9.84C56.3764 7.90667 55.6364 6.94 54.1564 6.94C53.4631 6.94 52.9231 7.2 52.5364 7.72C52.1497 8.22667 51.9564 8.96 51.9564 9.92C51.9564 11.8 52.6897 12.74 54.1564 12.74ZM65.2881 3.5H62.3081V0.86H65.2881V3.5ZM65.3481 15H62.2281V4.68H65.3481V15ZM80.5695 4.44C81.7029 4.44 82.5895 4.78 83.2295 5.46C83.8695 6.12667 84.1895 7.07333 84.1895 8.3V15H81.0695V8.84C81.0695 7.68 80.5562 7.1 79.5295 7.1C78.9829 7.1 78.5495 7.28667 78.2295 7.66C77.9095 8.03333 77.7495 8.58 77.7495 9.3V15H74.6295V8.84C74.6295 7.68 74.1162 7.1 73.0895 7.1C72.5429 7.1 72.1029 7.28667 71.7695 7.66C71.4495 8.03333 71.2895 8.58 71.2895 9.3V15H68.1695V4.68H71.2095V6.14C71.9695 5.00667 72.9495 4.44 74.1495 4.44C75.6962 4.44 76.7629 5.06 77.3495 6.3C78.1895 5.06 79.2629 4.44 80.5695 4.44ZM97.202 10.14V10.76H89.562C89.6687 11.4667 89.9287 12.0067 90.342 12.38C90.7554 12.7533 91.282 12.94 91.922 12.94C92.9354 12.94 93.6287 12.5533 94.002 11.78H96.962C96.682 12.8467 96.0887 13.6933 95.182 14.32C94.2754 14.9333 93.1887 15.24 91.922 15.24C90.322 15.24 89.0287 14.7467 88.042 13.76C87.0554 12.7733 86.562 11.4667 86.562 9.84C86.562 8.2 87.0487 6.89333 88.022 5.92C88.982 4.93333 90.2687 4.44 91.882 4.44C93.482 4.44 94.7754 4.95333 95.762 5.98C96.722 7.02 97.202 8.40667 97.202 10.14ZM91.842 6.74C90.562 6.74 89.8087 7.42 89.582 8.78H94.142C94.0354 8.14 93.782 7.64 93.382 7.28C92.982 6.92 92.4687 6.74 91.842 6.74ZM105.942 4.44C107.035 4.44 107.902 4.77333 108.542 5.44C109.195 6.09333 109.522 7.02667 109.522 8.24V15H106.402V8.86C106.402 7.68667 105.848 7.1 104.742 7.1C104.182 7.1 103.715 7.28667 103.342 7.66C102.968 8.03333 102.782 8.56 102.782 9.24V15H99.6617V4.68H102.702V6.14C103.502 5.00667 104.582 4.44 105.942 4.44ZM117.969 4.68V6.96H115.989V11.78C115.989 12.1267 116.076 12.3667 116.249 12.5C116.423 12.62 116.729 12.68 117.169 12.68H117.969V15C117.596 15.0533 117.116 15.08 116.529 15.08C115.236 15.08 114.303 14.8533 113.729 14.4C113.156 13.9333 112.869 13.1733 112.869 12.12V6.96H111.329V4.68H112.869V1.62H115.989V4.68H117.969ZM129.039 13.76C128.053 14.7467 126.739 15.24 125.099 15.24C123.459 15.24 122.146 14.7467 121.159 13.76C120.173 12.7733 119.679 11.4667 119.679 9.84C119.679 8.2 120.173 6.88667 121.159 5.9C122.133 4.92667 123.446 4.44 125.099 4.44C126.753 4.44 128.066 4.92667 129.039 5.9C130.013 6.87333 130.499 8.18667 130.499 9.84C130.499 11.48 130.013 12.7867 129.039 13.76ZM125.099 12.74C125.819 12.74 126.373 12.4933 126.759 12C127.146 11.5067 127.339 10.7867 127.339 9.84C127.339 8.89333 127.146 8.17333 126.759 7.68C126.373 7.18667 125.819 6.94 125.099 6.94C124.366 6.94 123.806 7.18667 123.419 7.68C123.033 8.17333 122.839 8.89333 122.839 9.84C122.839 10.7867 123.033 11.5067 123.419 12C123.806 12.4933 124.366 12.74 125.099 12.74Z" fill="#9A9EED"/>
</svg>
