<svg width="44" height="44" viewBox="0 0 44 44" fill="none" xmlns="http://www.w3.org/2000/svg">
<rect width="44" height="44" rx="10" fill="url(#paint0_linear_29_1143)"/>
<path d="M17.6515 11.5736C16.534 11.6261 15.7713 11.8046 15.1045 12.0664C14.4145 12.3356 13.8295 12.6964 13.2468 13.2806C12.6648 13.8649 12.3063 14.4506 12.0393 15.1414C11.7805 15.8096 11.6058 16.5731 11.5563 17.6914C11.5068 18.8089 11.4963 19.1689 11.5015 22.0196C11.5068 24.8704 11.5195 25.2281 11.5735 26.3486C11.6268 27.4654 11.8045 28.2281 12.0663 28.8956C12.3355 29.5856 12.6963 30.1706 13.2805 30.7534C13.8648 31.3354 14.4498 31.6931 15.1428 31.9609C15.8103 32.2189 16.5745 32.3951 17.692 32.4439C18.8095 32.4926 19.1695 32.5039 22.0203 32.4986C24.871 32.4934 25.2295 32.4806 26.35 32.4274C27.4705 32.3741 28.2288 32.1956 28.8963 31.9346C29.5863 31.6646 30.172 31.3046 30.754 30.7196C31.336 30.1346 31.6945 29.5489 31.9608 28.8574C32.2195 28.1899 32.395 27.4256 32.4438 26.3089C32.4925 25.1884 32.5045 24.8306 32.4985 21.9791C32.4925 19.1276 32.4805 18.7706 32.4273 17.6509C32.374 16.5311 32.1963 15.7706 31.9345 15.1031C31.6645 14.4131 31.3045 13.8281 30.7203 13.2454C30.136 12.6626 29.5495 12.3049 28.858 12.0386C28.1898 11.7799 27.4263 11.6036 26.3088 11.5556C25.1913 11.5076 24.8313 11.4949 21.9798 11.5001C19.1283 11.5054 18.7713 11.5181 17.6515 11.5721M17.7745 30.5539C16.7508 30.5096 16.195 30.3394 15.8245 30.1969C15.334 30.0079 14.9845 29.7791 14.6155 29.4139C14.2465 29.0486 14.0193 28.6976 13.828 28.2079C13.684 27.8374 13.5108 27.2824 13.4628 26.2586C13.411 25.1524 13.3998 24.8201 13.3938 22.0166C13.3878 19.2131 13.3983 18.8816 13.447 17.7746C13.4905 16.7516 13.6615 16.1951 13.804 15.8246C13.993 15.3334 14.221 14.9846 14.587 14.6156C14.953 14.2466 15.3033 14.0194 15.793 13.8281C16.1628 13.6834 16.7185 13.5116 17.7415 13.4629C18.8485 13.4104 19.1808 13.3999 21.9835 13.3939C24.7863 13.3879 25.1193 13.3984 26.227 13.4471C27.25 13.4914 27.8065 13.6609 28.1763 13.8041C28.6668 13.9931 29.0163 14.2204 29.3853 14.5871C29.7543 14.9539 29.9815 15.3026 30.1735 15.7939C30.3183 16.1629 30.49 16.7179 30.538 17.7416C30.5905 18.8486 30.6025 19.1809 30.6078 21.9836C30.613 24.7864 30.6033 25.1194 30.5545 26.2256C30.5095 27.2494 30.34 27.8051 30.1975 28.1764C30.0085 28.6669 29.7805 29.0164 29.4138 29.3854C29.047 29.7544 28.6975 29.9816 28.2078 30.1729C27.838 30.3169 27.2823 30.4894 26.26 30.5381C25.153 30.5899 24.8208 30.6011 22.0173 30.6071C19.2138 30.6131 18.8815 30.6019 17.7745 30.5539ZM26.3343 16.3879C26.3358 17.0839 26.9005 17.6471 27.5965 17.6456C28.2925 17.6441 28.8558 17.0794 28.8543 16.3834C28.8528 15.6874 28.288 15.1241 27.592 15.1256C26.896 15.1271 26.3335 15.6919 26.3343 16.3879ZM16.609 22.0099C16.615 24.9874 19.033 27.3964 22.0105 27.3904C24.988 27.3844 27.3978 24.9664 27.3925 21.9889C27.3865 19.0114 24.9678 16.6016 21.9903 16.6076C19.0128 16.6136 16.603 19.0324 16.609 22.0099ZM18.5013 22.0061C18.4975 20.0734 20.0613 18.5029 21.9948 18.4991C23.9275 18.4954 25.498 20.0591 25.5018 21.9926C25.5055 23.9254 23.9418 25.4959 22.0083 25.4996C20.0755 25.5034 18.505 23.9404 18.5013 22.0076" fill="#F5E2FF"/>
<defs>
<linearGradient id="paint0_linear_29_1143" x1="44" y1="22" x2="0" y2="22" gradientUnits="userSpaceOnUse">
<stop stop-color="#575AC0"/>
<stop offset="1" stop-color="#333693"/>
</linearGradient>
</defs>
</svg>
