<svg width="44" height="44" viewBox="0 0 44 44" fill="none" xmlns="http://www.w3.org/2000/svg">
<rect width="44" height="44" rx="10" fill="url(#paint0_linear_29_1144)"/>
<path fill-rule="evenodd" clip-rule="evenodd" d="M29.5833 12.25H14.4167C13.2205 12.25 12.25 13.2197 12.25 14.4167V29.5833C12.25 30.7795 13.2197 31.75 14.4167 31.75H29.5833C30.7795 31.75 31.75 30.7803 31.75 29.5833V14.4167C31.75 13.2205 30.7803 12.25 29.5833 12.25ZM18.1458 29.0417H15.238V19.6525H18.1458V29.0417ZM16.678 18.4233C15.7278 18.4233 14.9583 17.6477 14.9583 16.6907C14.9583 15.7337 15.7278 14.9583 16.678 14.9583C17.6283 14.9583 18.397 15.7337 18.397 16.6907C18.397 17.6477 17.6275 18.4233 16.678 18.4233ZM29.0417 29.0417H26.1483V24.1135C26.1483 22.762 25.6345 22.0068 24.565 22.0068C23.4017 22.0068 22.7935 22.7928 22.7935 24.1135V29.0417H20.005V19.6525H22.7935V20.917C22.7935 20.917 23.632 19.3653 25.6248 19.3653C27.6175 19.3653 29.0417 20.581 29.0417 23.0965V29.0417Z" fill="#F5E2FF"/>
<defs>
<linearGradient id="paint0_linear_29_1144" x1="44" y1="22" x2="0" y2="22" gradientUnits="userSpaceOnUse">
<stop stop-color="#575AC0"/>
<stop offset="1" stop-color="#333693"/>
</linearGradient>
</defs>
</svg>
