<svg width="40" height="40" viewBox="0 0 40 40" fill="none" xmlns="http://www.w3.org/2000/svg">
<rect width="40" height="40" rx="10" fill="url(#paint0_linear_29_1123)"/>
<path d="M13 10C10.974 10 9.33333 11.6427 9.33333 13.6667V23C9.33333 25.024 10.974 26.6667 13 26.6667H14.6667V29.6667C14.6667 30.0511 14.887 30.4015 15.2335 30.568C15.5799 30.7345 15.9912 30.6877 16.2914 30.4476L21.0174 26.6667H27C29.026 26.6667 30.6667 25.024 30.6667 23V13.6667C30.6667 11.6427 29.026 10 27 10H13Z" fill="#9400FB"/>
<path opacity="0.75" d="M20 19.6667C19.264 19.6667 18.6667 19.068 18.6667 18.3333C18.6667 17.5987 19.264 17 20 17C20.736 17 21.3333 17.5987 21.3333 18.3333C21.3333 19.068 20.736 19.6667 20 19.6667Z" fill="#ECCAFF"/>
<path d="M15.3333 19.6667C14.5973 19.6667 14 19.068 14 18.3333C14 17.5987 14.5973 17 15.3333 17C16.0693 17 16.6667 17.5987 16.6667 18.3333C16.6667 19.068 16.0693 19.6667 15.3333 19.6667Z" fill="#ECCAFF"/>
<path opacity="0.5" d="M24.6667 19.6667C23.9307 19.6667 23.3333 19.068 23.3333 18.3333C23.3333 17.5987 23.9307 17 24.6667 17C25.4027 17 26 17.5987 26 18.3333C26 19.068 25.4027 19.6667 24.6667 19.6667Z" fill="#ECCAFF"/>
<defs>
<linearGradient id="paint0_linear_29_1123" x1="0" y1="20" x2="40" y2="20" gradientUnits="userSpaceOnUse">
<stop stop-color="#9A9EED"/>
<stop offset="1" stop-color="#BFC2EE"/>
</linearGradient>
</defs>
</svg>
