<svg width="156" height="20" viewBox="0 0 156 20" fill="none" xmlns="http://www.w3.org/2000/svg">
<path d="M5.48 19.92H3.6C1.82667 17.2267 0.94 13.9667 0.94 10.14C0.94 6.3 1.82667 3.03333 3.6 0.339999H5.48C4.62667 1.84667 4.00667 3.36667 3.62 4.9C3.23333 6.47333 3.04 8.22 3.04 10.14C3.04 12.02 3.23333 13.7467 3.62 15.32C3.99333 16.8533 4.61333 18.3867 5.48 19.92ZM15.7845 2.58C17.2379 3.71333 17.9645 5.81333 17.9645 8.88C17.9645 11.28 17.5045 13.14 16.5845 14.46C15.6645 15.78 14.3379 16.44 12.6045 16.44C11.2579 16.44 10.1512 16.1 9.28453 15.42C8.41786 14.7267 7.87786 13.7733 7.66453 12.56H9.72453C9.85786 13.24 10.1712 13.7667 10.6645 14.14C11.1712 14.5 11.8112 14.68 12.5845 14.68C14.7312 14.68 15.8379 12.8867 15.9045 9.3C15.5045 9.88667 14.9845 10.3533 14.3445 10.7C13.7179 11.0333 13.0445 11.2 12.3245 11.2C10.8179 11.2 9.6312 10.7467 8.76453 9.84C7.89786 8.93333 7.46453 7.8 7.46453 6.44C7.46453 5.01333 7.9312 3.84 8.86453 2.92C9.8112 2.01333 11.0379 1.56 12.5445 1.56C13.8379 1.56 14.9179 1.9 15.7845 2.58ZM12.5445 9.44C13.4112 9.44 14.1179 9.16 14.6645 8.6C15.2245 8.04 15.5045 7.31333 15.5045 6.42C15.5045 5.51333 15.2312 4.78 14.6845 4.22C14.1379 3.66 13.4245 3.38 12.5445 3.38C11.6779 3.38 10.9712 3.66667 10.4245 4.24C9.87786 4.8 9.60453 5.52667 9.60453 6.42C9.60453 7.3 9.87786 8.02667 10.4245 8.6C10.9845 9.16 11.6912 9.44 12.5445 9.44ZM28.8353 2.58C30.2886 3.71333 31.0153 5.81333 31.0153 8.88C31.0153 11.28 30.5553 13.14 29.6353 14.46C28.7153 15.78 27.3886 16.44 25.6553 16.44C24.3086 16.44 23.202 16.1 22.3353 15.42C21.4686 14.7267 20.9286 13.7733 20.7153 12.56H22.7753C22.9086 13.24 23.222 13.7667 23.7153 14.14C24.222 14.5 24.862 14.68 25.6353 14.68C27.782 14.68 28.8886 12.8867 28.9553 9.3C28.5553 9.88667 28.0353 10.3533 27.3953 10.7C26.7686 11.0333 26.0953 11.2 25.3753 11.2C23.8686 11.2 22.682 10.7467 21.8153 9.84C20.9486 8.93333 20.5153 7.8 20.5153 6.44C20.5153 5.01333 20.982 3.84 21.9153 2.92C22.862 2.01333 24.0886 1.56 25.5953 1.56C26.8886 1.56 27.9686 1.9 28.8353 2.58ZM25.5953 9.44C26.462 9.44 27.1686 9.16 27.7153 8.6C28.2753 8.04 28.5553 7.31333 28.5553 6.42C28.5553 5.51333 28.282 4.78 27.7353 4.22C27.1886 3.66 26.4753 3.38 25.5953 3.38C24.7286 3.38 24.022 3.66667 23.4753 4.24C22.9286 4.8 22.6553 5.52667 22.6553 6.42C22.6553 7.3 22.9286 8.02667 23.4753 8.6C24.0353 9.16 24.742 9.44 25.5953 9.44ZM34.9614 19.92H33.1014C33.9947 18.3467 34.6214 16.8133 34.9814 15.32C35.3547 13.8133 35.5414 12.0867 35.5414 10.14C35.5414 8.15333 35.3547 6.40667 34.9814 4.9C34.6081 3.40667 33.9814 1.88667 33.1014 0.339999H34.9614C36.7481 3.04667 37.6414 6.31333 37.6414 10.14C37.6414 13.9133 36.7481 17.1733 34.9614 19.92ZM53.7689 2.58C55.2222 3.71333 55.9489 5.81333 55.9489 8.88C55.9489 11.28 55.4889 13.14 54.5689 14.46C53.6489 15.78 52.3222 16.44 50.5889 16.44C49.2422 16.44 48.1356 16.1 47.2689 15.42C46.4022 14.7267 45.8622 13.7733 45.6489 12.56H47.7089C47.8422 13.24 48.1556 13.7667 48.6489 14.14C49.1556 14.5 49.7956 14.68 50.5689 14.68C52.7156 14.68 53.8222 12.8867 53.8889 9.3C53.4889 9.88667 52.9689 10.3533 52.3289 10.7C51.7022 11.0333 51.0289 11.2 50.3089 11.2C48.8022 11.2 47.6156 10.7467 46.7489 9.84C45.8822 8.93333 45.4489 7.8 45.4489 6.44C45.4489 5.01333 45.9156 3.84 46.8489 2.92C47.7956 2.01333 49.0222 1.56 50.5289 1.56C51.8222 1.56 52.9022 1.9 53.7689 2.58ZM50.5289 9.44C51.3956 9.44 52.1022 9.16 52.6489 8.6C53.2089 8.04 53.4889 7.31333 53.4889 6.42C53.4889 5.51333 53.2156 4.78 52.6689 4.22C52.1222 3.66 51.4089 3.38 50.5289 3.38C49.6622 3.38 48.9556 3.66667 48.4089 4.24C47.8622 4.8 47.5889 5.52667 47.5889 6.42C47.5889 7.3 47.8622 8.02667 48.4089 8.6C48.9689 9.16 49.6756 9.44 50.5289 9.44ZM66.8197 2.58C68.273 3.71333 68.9997 5.81333 68.9997 8.88C68.9997 11.28 68.5397 13.14 67.6197 14.46C66.6997 15.78 65.373 16.44 63.6397 16.44C62.293 16.44 61.1864 16.1 60.3197 15.42C59.453 14.7267 58.913 13.7733 58.6997 12.56H60.7597C60.893 13.24 61.2064 13.7667 61.6997 14.14C62.2064 14.5 62.8464 14.68 63.6197 14.68C65.7664 14.68 66.873 12.8867 66.9397 9.3C66.5397 9.88667 66.0197 10.3533 65.3797 10.7C64.753 11.0333 64.0797 11.2 63.3597 11.2C61.853 11.2 60.6664 10.7467 59.7997 9.84C58.933 8.93333 58.4997 7.8 58.4997 6.44C58.4997 5.01333 58.9664 3.84 59.8997 2.92C60.8464 2.01333 62.073 1.56 63.5797 1.56C64.873 1.56 65.953 1.9 66.8197 2.58ZM63.5797 9.44C64.4464 9.44 65.153 9.16 65.6997 8.6C66.2597 8.04 66.5397 7.31333 66.5397 6.42C66.5397 5.51333 66.2664 4.78 65.7197 4.22C65.173 3.66 64.4597 3.38 63.5797 3.38C62.713 3.38 62.0064 3.66667 61.4597 4.24C60.913 4.8 60.6397 5.52667 60.6397 6.42C60.6397 7.3 60.913 8.02667 61.4597 8.6C62.0197 9.16 62.7264 9.44 63.5797 9.44ZM79.8705 2.58C81.3238 3.71333 82.0505 5.81333 82.0505 8.88C82.0505 11.28 81.5905 13.14 80.6705 14.46C79.7505 15.78 78.4238 16.44 76.6905 16.44C75.3438 16.44 74.2371 16.1 73.3705 15.42C72.5038 14.7267 71.9638 13.7733 71.7505 12.56H73.8105C73.9438 13.24 74.2571 13.7667 74.7505 14.14C75.2571 14.5 75.8971 14.68 76.6705 14.68C78.8171 14.68 79.9238 12.8867 79.9905 9.3C79.5905 9.88667 79.0705 10.3533 78.4305 10.7C77.8038 11.0333 77.1305 11.2 76.4105 11.2C74.9038 11.2 73.7171 10.7467 72.8505 9.84C71.9838 8.93333 71.5505 7.8 71.5505 6.44C71.5505 5.01333 72.0171 3.84 72.9505 2.92C73.8971 2.01333 75.1238 1.56 76.6305 1.56C77.9238 1.56 79.0038 1.9 79.8705 2.58ZM76.6305 9.44C77.4971 9.44 78.2038 9.16 78.7505 8.6C79.3105 8.04 79.5905 7.31333 79.5905 6.42C79.5905 5.51333 79.3171 4.78 78.7705 4.22C78.2238 3.66 77.5105 3.38 76.6305 3.38C75.7638 3.38 75.0571 3.66667 74.5105 4.24C73.9638 4.8 73.6905 5.52667 73.6905 6.42C73.6905 7.3 73.9638 8.02667 74.5105 8.6C75.0705 9.16 75.7771 9.44 76.6305 9.44ZM92.9213 2.58C94.3746 3.71333 95.1013 5.81333 95.1013 8.88C95.1013 11.28 94.6413 13.14 93.7213 14.46C92.8013 15.78 91.4746 16.44 89.7413 16.44C88.3946 16.44 87.2879 16.1 86.4212 15.42C85.5546 14.7267 85.0146 13.7733 84.8013 12.56H86.8613C86.9946 13.24 87.3079 13.7667 87.8013 14.14C88.3079 14.5 88.9479 14.68 89.7213 14.68C91.8679 14.68 92.9746 12.8867 93.0413 9.3C92.6413 9.88667 92.1213 10.3533 91.4813 10.7C90.8546 11.0333 90.1813 11.2 89.4613 11.2C87.9546 11.2 86.7679 10.7467 85.9013 9.84C85.0346 8.93333 84.6013 7.8 84.6013 6.44C84.6013 5.01333 85.0679 3.84 86.0013 2.92C86.9479 2.01333 88.1746 1.56 89.6813 1.56C90.9746 1.56 92.0546 1.9 92.9213 2.58ZM89.6813 9.44C90.5479 9.44 91.2546 9.16 91.8013 8.6C92.3613 8.04 92.6413 7.31333 92.6413 6.42C92.6413 5.51333 92.3679 4.78 91.8213 4.22C91.2746 3.66 90.5613 3.38 89.6813 3.38C88.8146 3.38 88.1079 3.66667 87.5613 4.24C87.0146 4.8 86.7413 5.52667 86.7413 6.42C86.7413 7.3 87.0146 8.02667 87.5613 8.6C88.1213 9.16 88.8279 9.44 89.6813 9.44ZM103.627 11.24H97.7673V9.5H103.627V11.24ZM114.511 2.58C115.964 3.71333 116.691 5.81333 116.691 8.88C116.691 11.28 116.231 13.14 115.311 14.46C114.391 15.78 113.064 16.44 111.331 16.44C109.984 16.44 108.878 16.1 108.011 15.42C107.144 14.7267 106.604 13.7733 106.391 12.56H108.451C108.584 13.24 108.898 13.7667 109.391 14.14C109.898 14.5 110.538 14.68 111.311 14.68C113.458 14.68 114.564 12.8867 114.631 9.3C114.231 9.88667 113.711 10.3533 113.071 10.7C112.444 11.0333 111.771 11.2 111.051 11.2C109.544 11.2 108.358 10.7467 107.491 9.84C106.624 8.93333 106.191 7.8 106.191 6.44C106.191 5.01333 106.658 3.84 107.591 2.92C108.538 2.01333 109.764 1.56 111.271 1.56C112.564 1.56 113.644 1.9 114.511 2.58ZM111.271 9.44C112.138 9.44 112.844 9.16 113.391 8.6C113.951 8.04 114.231 7.31333 114.231 6.42C114.231 5.51333 113.958 4.78 113.411 4.22C112.864 3.66 112.151 3.38 111.271 3.38C110.404 3.38 109.698 3.66667 109.151 4.24C108.604 4.8 108.331 5.52667 108.331 6.42C108.331 7.3 108.604 8.02667 109.151 8.6C109.711 9.16 110.418 9.44 111.271 9.44ZM127.562 2.58C129.015 3.71333 129.742 5.81333 129.742 8.88C129.742 11.28 129.282 13.14 128.362 14.46C127.442 15.78 126.115 16.44 124.382 16.44C123.035 16.44 121.929 16.1 121.062 15.42C120.195 14.7267 119.655 13.7733 119.442 12.56H121.502C121.635 13.24 121.949 13.7667 122.442 14.14C122.949 14.5 123.589 14.68 124.362 14.68C126.509 14.68 127.615 12.8867 127.682 9.3C127.282 9.88667 126.762 10.3533 126.122 10.7C125.495 11.0333 124.822 11.2 124.102 11.2C122.595 11.2 121.409 10.7467 120.542 9.84C119.675 8.93333 119.242 7.8 119.242 6.44C119.242 5.01333 119.709 3.84 120.642 2.92C121.589 2.01333 122.815 1.56 124.322 1.56C125.615 1.56 126.695 1.9 127.562 2.58ZM124.322 9.44C125.189 9.44 125.895 9.16 126.442 8.6C127.002 8.04 127.282 7.31333 127.282 6.42C127.282 5.51333 127.009 4.78 126.462 4.22C125.915 3.66 125.202 3.38 124.322 3.38C123.455 3.38 122.749 3.66667 122.202 4.24C121.655 4.8 121.382 5.52667 121.382 6.42C121.382 7.3 121.655 8.02667 122.202 8.6C122.762 9.16 123.469 9.44 124.322 9.44ZM140.613 2.58C142.066 3.71333 142.793 5.81333 142.793 8.88C142.793 11.28 142.333 13.14 141.413 14.46C140.493 15.78 139.166 16.44 137.433 16.44C136.086 16.44 134.979 16.1 134.113 15.42C133.246 14.7267 132.706 13.7733 132.493 12.56H134.553C134.686 13.24 134.999 13.7667 135.493 14.14C135.999 14.5 136.639 14.68 137.413 14.68C139.559 14.68 140.666 12.8867 140.733 9.3C140.333 9.88667 139.813 10.3533 139.173 10.7C138.546 11.0333 137.873 11.2 137.153 11.2C135.646 11.2 134.459 10.7467 133.593 9.84C132.726 8.93333 132.293 7.8 132.293 6.44C132.293 5.01333 132.759 3.84 133.693 2.92C134.639 2.01333 135.866 1.56 137.373 1.56C138.666 1.56 139.746 1.9 140.613 2.58ZM137.373 9.44C138.239 9.44 138.946 9.16 139.493 8.6C140.053 8.04 140.333 7.31333 140.333 6.42C140.333 5.51333 140.059 4.78 139.513 4.22C138.966 3.66 138.253 3.38 137.373 3.38C136.506 3.38 135.799 3.66667 135.253 4.24C134.706 4.8 134.433 5.52667 134.433 6.42C134.433 7.3 134.706 8.02667 135.253 8.6C135.813 9.16 136.519 9.44 137.373 9.44ZM153.663 2.58C155.117 3.71333 155.843 5.81333 155.843 8.88C155.843 11.28 155.383 13.14 154.463 14.46C153.543 15.78 152.217 16.44 150.483 16.44C149.137 16.44 148.03 16.1 147.163 15.42C146.297 14.7267 145.757 13.7733 145.543 12.56H147.603C147.737 13.24 148.05 13.7667 148.543 14.14C149.05 14.5 149.69 14.68 150.463 14.68C152.61 14.68 153.717 12.8867 153.783 9.3C153.383 9.88667 152.863 10.3533 152.223 10.7C151.597 11.0333 150.923 11.2 150.203 11.2C148.697 11.2 147.51 10.7467 146.643 9.84C145.777 8.93333 145.343 7.8 145.343 6.44C145.343 5.01333 145.81 3.84 146.743 2.92C147.69 2.01333 148.917 1.56 150.423 1.56C151.717 1.56 152.797 1.9 153.663 2.58ZM150.423 9.44C151.29 9.44 151.997 9.16 152.543 8.6C153.103 8.04 153.383 7.31333 153.383 6.42C153.383 5.51333 153.11 4.78 152.563 4.22C152.017 3.66 151.303 3.38 150.423 3.38C149.557 3.38 148.85 3.66667 148.303 4.24C147.757 4.8 147.483 5.52667 147.483 6.42C147.483 7.3 147.757 8.02667 148.303 8.6C148.863 9.16 149.57 9.44 150.423 9.44Z" fill="#CBCDF6"/>
</svg>
