<svg width="102" height="19" viewBox="0 0 102 19" fill="none" xmlns="http://www.w3.org/2000/svg">
<path d="M15.14 5.64L16.34 0.76H19.86L15.96 15H12.18L11 9.96C10.6267 8.45333 10.2733 6.74 9.94 4.82C9.64667 6.36667 9.29333 8.08 8.88 9.96L7.68 15H3.9L0 0.76H3.54L4.72 5.64C5.22667 7.72 5.64667 9.58 5.98 11.22C6.43333 8.82 6.80667 6.96 7.1 5.64L8.24 0.76H11.62L12.76 5.64C13.1333 7.26667 13.5067 9.14 13.88 11.26C14.0667 10.4067 14.4867 8.53333 15.14 5.64ZM27.7503 4.44C28.8436 4.44 29.7103 4.77333 30.3503 5.44C31.0036 6.09333 31.3303 7.02667 31.3303 8.24V15H28.2103V8.86C28.2103 7.68667 27.657 7.1 26.5503 7.1C25.9903 7.1 25.5236 7.28667 25.1503 7.66C24.777 8.03333 24.5903 8.56 24.5903 9.24V15H21.4703V0.76H24.5903V6.04C25.377 4.97333 26.4303 4.44 27.7503 4.44ZM44.0705 15H40.9305C40.7705 14.6933 40.6838 14.3067 40.6705 13.84C39.9771 14.7733 38.8771 15.24 37.3705 15.24C36.2371 15.24 35.3238 14.96 34.6305 14.4C33.9505 13.84 33.6105 13.0667 33.6105 12.08C33.6105 10.16 34.9571 9.08667 37.6505 8.86L39.2705 8.72C40.1638 8.62667 40.6105 8.28667 40.6105 7.7C40.6105 7.00667 40.0838 6.66 39.0305 6.66C38.3905 6.66 37.9371 6.76 37.6705 6.96C37.4171 7.14667 37.2638 7.5 37.2105 8.02H34.1105C34.2971 5.63333 35.9438 4.44 39.0505 4.44C42.1171 4.44 43.6505 5.5 43.6505 7.62V13.1C43.6505 13.9667 43.7905 14.6 44.0705 15ZM38.3105 13.14C39.0171 13.14 39.5771 12.96 39.9905 12.6C40.4038 12.2267 40.6105 11.6733 40.6105 10.94V10.18C40.4238 10.38 40.0771 10.5133 39.5705 10.58L38.2905 10.72C37.2905 10.8267 36.7905 11.24 36.7905 11.96C36.7905 12.32 36.9238 12.6067 37.1905 12.82C37.4571 13.0333 37.8305 13.14 38.3105 13.14ZM52.0084 4.68V6.96H50.0284V11.78C50.0284 12.1267 50.1151 12.3667 50.2884 12.5C50.4618 12.62 50.7684 12.68 51.2084 12.68H52.0084V15C51.6351 15.0533 51.1551 15.08 50.5684 15.08C49.2751 15.08 48.3418 14.8533 47.7684 14.4C47.1951 13.9333 46.9084 13.1733 46.9084 12.12V6.96H45.3684V4.68H46.9084V1.62H50.0284V4.68H52.0084ZM58.7127 15.3C57.086 15.3 55.8727 15.02 55.0727 14.46C54.286 13.8867 53.846 12.9733 53.7527 11.72H56.7927C56.846 12.2667 57.0193 12.6533 57.3127 12.88C57.6193 13.1067 58.106 13.22 58.7727 13.22C59.9327 13.22 60.5127 12.8867 60.5127 12.22C60.5127 11.9 60.386 11.66 60.1327 11.5C59.8793 11.3267 59.4127 11.1867 58.7327 11.08L57.3927 10.86C55.0727 10.5 53.9127 9.44667 53.9127 7.7C53.9127 6.66 54.3127 5.86 55.1127 5.3C55.9127 4.72667 57.0593 4.44 58.5527 4.44C61.6327 4.44 63.2327 5.62 63.3527 7.98H60.4527C60.4393 7.00667 59.806 6.52 58.5527 6.52C57.4993 6.52 56.9727 6.84667 56.9727 7.5C56.9727 7.79333 57.0927 8.02 57.3327 8.18C57.5727 8.34 57.9527 8.46 58.4727 8.54L60.0127 8.76C61.2527 8.94667 62.166 9.3 62.7527 9.82C63.3393 10.34 63.6327 11.0533 63.6327 11.96C63.6327 13.0267 63.1993 13.8533 62.3327 14.44C61.4793 15.0133 60.2727 15.3 58.7127 15.3ZM75.9181 15H72.7781C72.6181 14.6933 72.5315 14.3067 72.5181 13.84C71.8248 14.7733 70.7248 15.24 69.2181 15.24C68.0848 15.24 67.1715 14.96 66.4781 14.4C65.7981 13.84 65.4581 13.0667 65.4581 12.08C65.4581 10.16 66.8048 9.08667 69.4981 8.86L71.1181 8.72C72.0115 8.62667 72.4581 8.28667 72.4581 7.7C72.4581 7.00667 71.9315 6.66 70.8781 6.66C70.2381 6.66 69.7848 6.76 69.5181 6.96C69.2648 7.14667 69.1115 7.5 69.0581 8.02H65.9581C66.1448 5.63333 67.7915 4.44 70.8981 4.44C73.9648 4.44 75.4981 5.5 75.4981 7.62V13.1C75.4981 13.9667 75.6381 14.6 75.9181 15ZM70.1581 13.14C70.8648 13.14 71.4248 12.96 71.8381 12.6C72.2515 12.2267 72.4581 11.6733 72.4581 10.94V10.18C72.2715 10.38 71.9248 10.5133 71.4181 10.58L70.1381 10.72C69.1381 10.8267 68.6381 11.24 68.6381 11.96C68.6381 12.32 68.7715 12.6067 69.0381 12.82C69.3048 13.0333 69.6781 13.14 70.1581 13.14ZM84.31 4.44C85.6967 4.44 86.7967 4.92667 87.61 5.9C88.41 6.87333 88.81 8.18667 88.81 9.84C88.81 11.4933 88.41 12.8067 87.61 13.78C86.7967 14.7533 85.6967 15.24 84.31 15.24C82.99 15.24 81.9767 14.74 81.27 13.74V18.92H78.15V4.68H81.19V6.06C81.8967 4.98 82.9367 4.44 84.31 4.44ZM83.45 12.74C84.1433 12.74 84.6833 12.4867 85.07 11.98C85.4567 11.46 85.65 10.72 85.65 9.76C85.65 7.88 84.9167 6.94 83.45 6.94C81.97 6.94 81.23 7.90667 81.23 9.84C81.23 11.7733 81.97 12.74 83.45 12.74ZM97.3413 4.44C98.7279 4.44 99.8279 4.92667 100.641 5.9C101.441 6.87333 101.841 8.18667 101.841 9.84C101.841 11.4933 101.441 12.8067 100.641 13.78C99.8279 14.7533 98.7279 15.24 97.3413 15.24C96.0213 15.24 95.0079 14.74 94.3013 13.74V18.92H91.1813V4.68H94.2213V6.06C94.9279 4.98 95.9679 4.44 97.3413 4.44ZM96.4813 12.74C97.1746 12.74 97.7146 12.4867 98.1013 11.98C98.4879 11.46 98.6813 10.72 98.6813 9.76C98.6813 7.88 97.9479 6.94 96.4813 6.94C95.0013 6.94 94.2613 7.90667 94.2613 9.84C94.2613 11.7733 95.0013 12.74 96.4813 12.74Z" fill="#9A9EED"/>
</svg>
