<svg width="515" height="18" viewBox="0 0 515 18" fill="none" xmlns="http://www.w3.org/2000/svg">
<path d="M12.186 12.344C10.902 13.64 9.294 14.288 7.362 14.288C5.43 14.288 3.828 13.64 2.556 12.344C1.272 11.06 0.63 9.476 0.63 7.592C0.63 5.72 1.272 4.13 2.556 2.822C3.828 1.526 5.43 0.877999 7.362 0.877999C9.294 0.877999 10.902 1.526 12.186 2.822C13.47 4.13 14.112 5.72 14.112 7.592C14.112 9.476 13.47 11.06 12.186 12.344ZM7.362 13.154C8.958 13.154 10.278 12.62 11.322 11.552C12.366 10.496 12.888 9.176 12.888 7.592C12.888 6.008 12.366 4.682 11.322 3.614C10.278 2.546 8.958 2.012 7.362 2.012C5.778 2.012 4.464 2.546 3.42 3.614C2.376 4.682 1.854 6.008 1.854 7.592C1.854 9.176 2.376 10.496 3.42 11.552C4.464 12.62 5.778 13.154 7.362 13.154ZM7.434 11.642C6.354 11.642 5.49 11.27 4.842 10.526C4.182 9.794 3.852 8.816 3.852 7.592C3.852 6.356 4.176 5.372 4.824 4.64C5.472 3.908 6.342 3.542 7.434 3.542C8.358 3.542 9.114 3.8 9.702 4.316C10.302 4.82 10.662 5.51 10.782 6.386H9.468C9.372 5.846 9.138 5.426 8.766 5.126C8.406 4.826 7.962 4.676 7.434 4.676C6.726 4.676 6.168 4.934 5.76 5.45C5.364 5.966 5.166 6.68 5.166 7.592C5.166 8.504 5.364 9.218 5.76 9.734C6.168 10.238 6.726 10.49 7.434 10.49C7.962 10.49 8.412 10.34 8.784 10.04C9.156 9.74 9.384 9.314 9.468 8.762H10.782C10.65 9.638 10.284 10.34 9.684 10.868C9.084 11.384 8.334 11.642 7.434 11.642ZM22.7138 12.632H29.4818V14H21.0218L21.0578 13.298C21.1298 12.242 21.3698 11.336 21.7778 10.58C22.1858 9.824 22.8758 9.164 23.8478 8.6L25.4678 7.664C26.2838 7.184 26.8598 6.716 27.1958 6.26C27.5438 5.804 27.7178 5.252 27.7178 4.604C27.7178 3.896 27.4898 3.332 27.0338 2.912C26.5898 2.48 25.9718 2.264 25.1798 2.264C23.3918 2.264 22.4978 3.182 22.4978 5.018H21.0038C20.9918 3.71 21.3578 2.696 22.1018 1.976C22.8458 1.256 23.8838 0.895999 25.2158 0.895999C26.4278 0.895999 27.4118 1.238 28.1678 1.922C28.9238 2.63 29.3018 3.524 29.3018 4.604C29.3018 6.26 28.3298 7.652 26.3858 8.78L25.0178 9.572C24.2258 10.052 23.6558 10.52 23.3078 10.976C22.9598 11.42 22.7618 11.972 22.7138 12.632ZM39.7914 12.56C39.0114 13.712 37.8534 14.288 36.3174 14.288C34.7694 14.288 33.6114 13.712 32.8434 12.56C32.0634 11.396 31.6734 9.74 31.6734 7.592C31.6734 5.444 32.0634 3.788 32.8434 2.624C33.6114 1.472 34.7694 0.895999 36.3174 0.895999C37.8534 0.895999 39.0114 1.472 39.7914 2.624C40.5714 3.788 40.9614 5.444 40.9614 7.592C40.9614 9.74 40.5714 11.396 39.7914 12.56ZM36.3174 2.264C34.2774 2.264 33.2574 4.04 33.2574 7.592C33.2574 11.144 34.2774 12.92 36.3174 12.92C38.3574 12.92 39.3774 11.144 39.3774 7.592C39.3774 4.04 38.3574 2.264 36.3174 2.264ZM44.9462 12.632H51.7142V14H43.2542L43.2902 13.298C43.3622 12.242 43.6022 11.336 44.0102 10.58C44.4182 9.824 45.1082 9.164 46.0802 8.6L47.7002 7.664C48.5162 7.184 49.0922 6.716 49.4282 6.26C49.7762 5.804 49.9502 5.252 49.9502 4.604C49.9502 3.896 49.7222 3.332 49.2662 2.912C48.8222 2.48 48.2042 2.264 47.4122 2.264C45.6242 2.264 44.7302 3.182 44.7302 5.018H43.2362C43.2242 3.71 43.5902 2.696 44.3342 1.976C45.0782 1.256 46.1162 0.895999 47.4482 0.895999C48.6602 0.895999 49.6442 1.238 50.4002 1.922C51.1562 2.63 51.5342 3.524 51.5342 4.604C51.5342 6.26 50.5622 7.652 48.6182 8.78L47.2502 9.572C46.4582 10.052 45.8882 10.52 45.5402 10.976C45.1922 11.42 44.9942 11.972 44.9462 12.632ZM58.0706 5.648C59.4386 5.648 60.5066 6.05 61.2746 6.854C62.0426 7.658 62.4266 8.696 62.4266 9.968C62.4266 11.228 62.0246 12.26 61.2206 13.064C60.4046 13.88 59.3246 14.288 57.9806 14.288C56.7566 14.288 55.7426 13.934 54.9386 13.226C54.1346 12.53 53.6966 11.6 53.6246 10.436H55.1366C55.2086 11.204 55.5086 11.81 56.0366 12.254C56.5646 12.698 57.2126 12.92 57.9806 12.92C58.8206 12.92 59.5046 12.65 60.0326 12.11C60.5726 11.558 60.8426 10.844 60.8426 9.968C60.8426 9.092 60.5726 8.384 60.0326 7.844C59.5046 7.292 58.8206 7.016 57.9806 7.016C56.7206 7.016 55.8446 7.532 55.3526 8.564H53.9486L55.0286 1.184H61.6526V2.552H56.2526L55.6406 6.584C56.3366 5.96 57.1466 5.648 58.0706 5.648ZM80.8342 14H79.2322L77.7382 10.274H71.9062L70.4302 14H68.8462L73.9582 1.184H75.6502L80.8342 14ZM72.5002 8.762L72.4462 8.906H77.1982L77.1262 8.744C76.8262 8.012 76.0462 6.038 74.7862 2.822C73.9342 5.102 73.1722 7.082 72.5002 8.762ZM87.3696 4.568C87.6096 4.568 87.7716 4.574 87.8556 4.586V5.972H87.4956C86.5356 5.972 85.7856 6.212 85.2456 6.692C84.7176 7.16 84.4536 7.832 84.4536 8.708V14H83.0136V4.712H84.3816V6.35C85.0056 5.162 86.0016 4.568 87.3696 4.568ZM99.9751 4.496C100.983 4.496 101.763 4.79 102.315 5.378C102.879 5.954 103.161 6.728 103.161 7.7V14H101.721V7.844C101.721 6.476 101.073 5.792 99.7771 5.792C99.0931 5.792 98.5231 6.068 98.0671 6.62C97.6231 7.16 97.4011 7.928 97.4011 8.924V14H95.9611V7.844C95.9611 6.476 95.3131 5.792 94.0171 5.792C93.3451 5.792 92.7811 6.068 92.3251 6.62C91.8691 7.16 91.6411 7.928 91.6411 8.924V14H90.2011V4.712H91.5691V6.08C92.1811 5.024 93.0751 4.496 94.2511 4.496C95.6431 4.496 96.5971 5.078 97.1131 6.242C97.7611 5.078 98.7151 4.496 99.9751 4.496ZM113.608 12.884C112.756 13.772 111.676 14.216 110.368 14.216C109.06 14.216 107.98 13.772 107.128 12.884C106.288 12.008 105.868 10.832 105.868 9.356C105.868 7.88 106.288 6.704 107.128 5.828C107.98 4.94 109.06 4.496 110.368 4.496C111.676 4.496 112.756 4.94 113.608 5.828C114.448 6.704 114.868 7.88 114.868 9.356C114.868 10.832 114.448 12.008 113.608 12.884ZM108.19 11.966C108.73 12.602 109.456 12.92 110.368 12.92C111.28 12.92 112.006 12.602 112.546 11.966C113.086 11.342 113.356 10.472 113.356 9.356C113.356 8.228 113.086 7.352 112.546 6.728C112.006 6.104 111.28 5.792 110.368 5.792C109.456 5.792 108.73 6.104 108.19 6.728C107.65 7.352 107.38 8.228 107.38 9.356C107.38 10.472 107.65 11.342 108.19 11.966ZM127.934 8.78V7.412H133.388V14H132.146L131.822 12.272C130.874 13.616 129.476 14.288 127.628 14.288C125.792 14.288 124.328 13.67 123.236 12.434C122.12 11.21 121.562 9.596 121.562 7.592C121.562 5.6 122.114 3.98 123.218 2.732C124.31 1.508 125.786 0.895999 127.646 0.895999C129.17 0.895999 130.43 1.304 131.426 2.12C132.422 2.936 133.028 4.022 133.244 5.378H131.678C131.522 4.43 131.066 3.674 130.31 3.11C129.578 2.558 128.69 2.282 127.646 2.282C126.278 2.282 125.186 2.762 124.37 3.722C123.554 4.682 123.146 5.972 123.146 7.592C123.146 9.212 123.554 10.502 124.37 11.462C125.186 12.422 126.278 12.902 127.646 12.902C128.858 12.902 129.89 12.512 130.742 11.732C131.594 10.952 132.02 9.968 132.02 8.78H127.934ZM140.903 4.568C141.143 4.568 141.305 4.574 141.389 4.586V5.972H141.029C140.069 5.972 139.319 6.212 138.779 6.692C138.251 7.16 137.987 7.832 137.987 8.708V14H136.547V4.712H137.915V6.35C138.539 5.162 139.535 4.568 140.903 4.568ZM150.479 12.884C149.627 13.772 148.547 14.216 147.239 14.216C145.931 14.216 144.851 13.772 143.999 12.884C143.159 12.008 142.739 10.832 142.739 9.356C142.739 7.88 143.159 6.704 143.999 5.828C144.851 4.94 145.931 4.496 147.239 4.496C148.547 4.496 149.627 4.94 150.479 5.828C151.319 6.704 151.739 7.88 151.739 9.356C151.739 10.832 151.319 12.008 150.479 12.884ZM145.061 11.966C145.601 12.602 146.327 12.92 147.239 12.92C148.151 12.92 148.877 12.602 149.417 11.966C149.957 11.342 150.227 10.472 150.227 9.356C150.227 8.228 149.957 7.352 149.417 6.728C148.877 6.104 148.151 5.792 147.239 5.792C146.327 5.792 145.601 6.104 145.061 6.728C144.521 7.352 144.251 8.228 144.251 9.356C144.251 10.472 144.521 11.342 145.061 11.966ZM163.882 8.906L165.196 4.712H166.744L163.648 14H162.136L160.768 9.698C160.3 8.174 159.988 7.124 159.832 6.548C159.556 7.532 159.238 8.582 158.878 9.698L157.528 14H156.016L152.92 4.712H154.468L155.782 8.906C156.106 9.926 156.442 11.054 156.79 12.29C157.174 10.922 157.504 9.794 157.78 8.906L159.076 4.712H160.588L161.884 8.906C162.544 11.102 162.88 12.218 162.892 12.254C162.988 11.882 163.318 10.766 163.882 8.906ZM172.988 4.712V5.972H171.08V12.002C171.08 12.53 171.434 12.794 172.142 12.794H172.988V14C172.592 14.036 172.25 14.054 171.962 14.054C170.414 14.054 169.64 13.412 169.64 12.128V5.972H168.11V4.712H169.64V2.084H171.08V4.712H172.988ZM179.794 4.496C180.826 4.496 181.63 4.778 182.206 5.342C182.782 5.906 183.07 6.698 183.07 7.718V14H181.63V7.862C181.63 6.482 180.922 5.792 179.506 5.792C178.834 5.792 178.24 6.044 177.724 6.548C177.208 7.052 176.95 7.784 176.95 8.744V14H175.51V1.184H176.95V5.99C177.658 4.994 178.606 4.496 179.794 4.496ZM201.836 14H200.234L198.74 10.274H192.908L191.432 14H189.848L194.96 1.184H196.652L201.836 14ZM193.502 8.762L193.448 8.906H198.2L198.128 8.744C197.828 8.012 197.048 6.038 195.788 2.822C194.936 5.102 194.174 7.082 193.502 8.762ZM210.984 6.062V4.712H212.352V13.64C212.352 14.912 211.98 15.914 211.236 16.646C210.492 17.378 209.424 17.744 208.032 17.744C206.88 17.744 205.956 17.48 205.26 16.952C204.564 16.424 204.168 15.692 204.072 14.756H205.512C205.692 15.932 206.532 16.52 208.032 16.52C209.952 16.52 210.912 15.56 210.912 13.64V12.74C210.18 13.724 209.142 14.216 207.798 14.216C206.49 14.216 205.446 13.772 204.666 12.884C203.874 11.996 203.478 10.82 203.478 9.356C203.478 7.868 203.874 6.686 204.666 5.81C205.434 4.934 206.478 4.496 207.798 4.496C209.178 4.496 210.24 5.018 210.984 6.062ZM207.978 12.92C208.89 12.92 209.616 12.602 210.156 11.966C210.696 11.33 210.966 10.46 210.966 9.356C210.966 8.252 210.696 7.382 210.156 6.746C209.616 6.11 208.89 5.792 207.978 5.792C207.078 5.792 206.352 6.116 205.8 6.764C205.26 7.412 204.99 8.276 204.99 9.356C204.99 10.436 205.26 11.3 205.8 11.948C206.352 12.596 207.078 12.92 207.978 12.92ZM223.61 9.356V9.86H216.554C216.626 10.868 216.908 11.63 217.4 12.146C217.892 12.65 218.564 12.902 219.416 12.902C220.7 12.902 221.522 12.326 221.882 11.174H223.376C223.124 12.11 222.656 12.854 221.972 13.406C221.288 13.946 220.424 14.216 219.38 14.216C218.096 14.216 217.058 13.778 216.266 12.902C215.462 12.026 215.06 10.844 215.06 9.356C215.06 7.892 215.456 6.716 216.248 5.828C217.028 4.94 218.06 4.496 219.344 4.496C220.676 4.496 221.72 4.958 222.476 5.882C223.232 6.806 223.61 7.964 223.61 9.356ZM219.344 5.81C218.588 5.81 217.97 6.05 217.49 6.53C217.01 6.998 216.71 7.676 216.59 8.564H222.062C221.99 7.748 221.714 7.088 221.234 6.584C220.754 6.068 220.124 5.81 219.344 5.81ZM230.602 4.496C231.634 4.496 232.438 4.778 233.014 5.342C233.59 5.906 233.878 6.698 233.878 7.718V14H232.438V7.862C232.438 6.482 231.73 5.792 230.314 5.792C229.642 5.792 229.048 6.044 228.532 6.548C228.016 7.052 227.758 7.784 227.758 8.744V14H226.318V4.712H227.686V6.098C228.394 5.03 229.366 4.496 230.602 4.496ZM240.891 14.216C239.607 14.216 238.569 13.772 237.777 12.884C236.985 11.996 236.589 10.82 236.589 9.356C236.589 7.868 236.985 6.686 237.777 5.81C238.545 4.934 239.583 4.496 240.891 4.496C241.995 4.496 242.901 4.796 243.609 5.396C244.317 5.996 244.743 6.818 244.887 7.862H243.393C243.285 7.202 242.997 6.692 242.529 6.332C242.073 5.972 241.527 5.792 240.891 5.792C240.039 5.792 239.361 6.104 238.857 6.728C238.353 7.34 238.101 8.216 238.101 9.356C238.101 10.484 238.353 11.36 238.857 11.984C239.373 12.608 240.051 12.92 240.891 12.92C241.527 12.92 242.079 12.734 242.547 12.362C243.015 11.99 243.303 11.474 243.411 10.814H244.887C244.731 11.858 244.287 12.686 243.555 13.298C242.835 13.91 241.947 14.216 240.891 14.216ZM251.822 8.564L253.136 4.712H254.702L250.778 15.458C250.502 16.238 250.124 16.784 249.644 17.096C249.164 17.42 248.534 17.582 247.754 17.582C247.49 17.582 247.202 17.564 246.89 17.528V16.322H247.736C248.564 16.322 249.128 15.938 249.428 15.17L249.752 14.306L246.26 4.712H247.844L249.158 8.582C249.626 9.95 250.07 11.288 250.49 12.596C250.838 11.48 251.282 10.136 251.822 8.564ZM256.794 14H254.976V12.2H256.794V14ZM263.399 1.184H273.677V2.552H269.321V14H267.755V2.552H263.399V1.184ZM281.251 12.884C280.399 13.772 279.319 14.216 278.011 14.216C276.703 14.216 275.623 13.772 274.771 12.884C273.931 12.008 273.511 10.832 273.511 9.356C273.511 7.88 273.931 6.704 274.771 5.828C275.623 4.94 276.703 4.496 278.011 4.496C279.319 4.496 280.399 4.94 281.251 5.828C282.091 6.704 282.511 7.88 282.511 9.356C282.511 10.832 282.091 12.008 281.251 12.884ZM275.833 11.966C276.373 12.602 277.099 12.92 278.011 12.92C278.923 12.92 279.649 12.602 280.189 11.966C280.729 11.342 280.999 10.472 280.999 9.356C280.999 8.228 280.729 7.352 280.189 6.728C279.649 6.104 278.923 5.792 278.011 5.792C277.099 5.792 276.373 6.104 275.833 6.728C275.293 7.352 275.023 8.228 275.023 9.356C275.023 10.472 275.293 11.342 275.833 11.966ZM292.21 6.044V1.184H293.65V14H292.282V12.56C291.538 13.664 290.476 14.216 289.096 14.216C287.788 14.216 286.744 13.772 285.964 12.884C285.172 11.996 284.776 10.82 284.776 9.356C284.776 7.868 285.172 6.686 285.964 5.81C286.732 4.934 287.776 4.496 289.096 4.496C290.428 4.496 291.466 5.012 292.21 6.044ZM286.288 9.428C286.288 10.532 286.558 11.39 287.098 12.002C287.638 12.614 288.364 12.92 289.276 12.92C290.188 12.92 290.914 12.602 291.454 11.966C291.994 11.342 292.264 10.472 292.264 9.356C292.264 8.252 291.994 7.382 291.454 6.746C290.914 6.11 290.188 5.792 289.276 5.792C288.376 5.792 287.65 6.122 287.098 6.782C286.558 7.43 286.288 8.312 286.288 9.428ZM304.099 12.884C303.247 13.772 302.167 14.216 300.859 14.216C299.551 14.216 298.471 13.772 297.619 12.884C296.779 12.008 296.359 10.832 296.359 9.356C296.359 7.88 296.779 6.704 297.619 5.828C298.471 4.94 299.551 4.496 300.859 4.496C302.167 4.496 303.247 4.94 304.099 5.828C304.939 6.704 305.359 7.88 305.359 9.356C305.359 10.832 304.939 12.008 304.099 12.884ZM298.681 11.966C299.221 12.602 299.947 12.92 300.859 12.92C301.771 12.92 302.497 12.602 303.037 11.966C303.577 11.342 303.847 10.472 303.847 9.356C303.847 8.228 303.577 7.352 303.037 6.728C302.497 6.104 301.771 5.792 300.859 5.792C299.947 5.792 299.221 6.104 298.681 6.728C298.141 7.352 297.871 8.228 297.871 9.356C297.871 10.472 298.141 11.342 298.681 11.966ZM311.174 14.216C308.69 14.216 307.376 13.16 307.232 11.048H308.69C308.774 11.744 309.002 12.242 309.374 12.542C309.758 12.83 310.358 12.974 311.174 12.974C312.662 12.974 313.406 12.494 313.406 11.534C313.406 11.114 313.25 10.796 312.938 10.58C312.638 10.364 312.086 10.178 311.282 10.022L310.418 9.86C308.486 9.5 307.52 8.588 307.52 7.124C307.52 6.32 307.82 5.684 308.42 5.216C309.032 4.736 309.86 4.496 310.904 4.496C313.364 4.496 314.624 5.522 314.684 7.574H313.244C313.208 6.902 313.004 6.428 312.632 6.152C312.26 5.876 311.684 5.738 310.904 5.738C310.28 5.738 309.8 5.858 309.464 6.098C309.128 6.338 308.96 6.674 308.96 7.106C308.96 7.514 309.104 7.82 309.392 8.024C309.68 8.228 310.16 8.402 310.832 8.546L311.66 8.708C312.8 8.936 313.616 9.26 314.108 9.68C314.612 10.1 314.864 10.688 314.864 11.444C314.864 12.32 314.534 13.004 313.874 13.496C313.226 13.976 312.326 14.216 311.174 14.216ZM329.018 12.884C328.166 13.772 327.086 14.216 325.778 14.216C324.47 14.216 323.39 13.772 322.538 12.884C321.698 12.008 321.278 10.832 321.278 9.356C321.278 7.88 321.698 6.704 322.538 5.828C323.39 4.94 324.47 4.496 325.778 4.496C327.086 4.496 328.166 4.94 329.018 5.828C329.858 6.704 330.278 7.88 330.278 9.356C330.278 10.832 329.858 12.008 329.018 12.884ZM323.6 11.966C324.14 12.602 324.866 12.92 325.778 12.92C326.69 12.92 327.416 12.602 327.956 11.966C328.496 11.342 328.766 10.472 328.766 9.356C328.766 8.228 328.496 7.352 327.956 6.728C327.416 6.104 326.69 5.792 325.778 5.792C324.866 5.792 324.14 6.104 323.6 6.728C323.06 7.352 322.79 8.228 322.79 9.356C322.79 10.472 323.06 11.342 323.6 11.966ZM336.094 14.216C333.61 14.216 332.296 13.16 332.152 11.048H333.61C333.694 11.744 333.922 12.242 334.294 12.542C334.678 12.83 335.278 12.974 336.094 12.974C337.582 12.974 338.326 12.494 338.326 11.534C338.326 11.114 338.17 10.796 337.858 10.58C337.558 10.364 337.006 10.178 336.202 10.022L335.338 9.86C333.406 9.5 332.44 8.588 332.44 7.124C332.44 6.32 332.74 5.684 333.34 5.216C333.952 4.736 334.78 4.496 335.824 4.496C338.284 4.496 339.544 5.522 339.604 7.574H338.164C338.128 6.902 337.924 6.428 337.552 6.152C337.18 5.876 336.604 5.738 335.824 5.738C335.2 5.738 334.72 5.858 334.384 6.098C334.048 6.338 333.88 6.674 333.88 7.106C333.88 7.514 334.024 7.82 334.312 8.024C334.6 8.228 335.08 8.402 335.752 8.546L336.58 8.708C337.72 8.936 338.536 9.26 339.028 9.68C339.532 10.1 339.784 10.688 339.784 11.444C339.784 12.32 339.454 13.004 338.794 13.496C338.146 13.976 337.246 14.216 336.094 14.216ZM353.632 6.044V1.184H355.072V14H353.704V12.56C352.96 13.664 351.898 14.216 350.518 14.216C349.21 14.216 348.166 13.772 347.386 12.884C346.594 11.996 346.198 10.82 346.198 9.356C346.198 7.868 346.594 6.686 347.386 5.81C348.154 4.934 349.198 4.496 350.518 4.496C351.85 4.496 352.888 5.012 353.632 6.044ZM347.71 9.428C347.71 10.532 347.98 11.39 348.52 12.002C349.06 12.614 349.786 12.92 350.698 12.92C351.61 12.92 352.336 12.602 352.876 11.966C353.416 11.342 353.686 10.472 353.686 9.356C353.686 8.252 353.416 7.382 352.876 6.746C352.336 6.11 351.61 5.792 350.698 5.792C349.798 5.792 349.072 6.122 348.52 6.782C347.98 7.43 347.71 8.312 347.71 9.428ZM359.706 3.308H358.176V1.544H359.706V3.308ZM359.67 14H358.23V4.712H359.67V14ZM367.19 4.568C367.43 4.568 367.592 4.574 367.676 4.586V5.972H367.316C366.356 5.972 365.606 6.212 365.066 6.692C364.538 7.16 364.274 7.832 364.274 8.708V14H362.834V4.712H364.202V6.35C364.826 5.162 365.822 4.568 367.19 4.568ZM377.576 9.356V9.86H370.52C370.592 10.868 370.874 11.63 371.366 12.146C371.858 12.65 372.53 12.902 373.382 12.902C374.666 12.902 375.488 12.326 375.848 11.174H377.342C377.09 12.11 376.622 12.854 375.938 13.406C375.254 13.946 374.39 14.216 373.346 14.216C372.062 14.216 371.024 13.778 370.232 12.902C369.428 12.026 369.026 10.844 369.026 9.356C369.026 7.892 369.422 6.716 370.214 5.828C370.994 4.94 372.026 4.496 373.31 4.496C374.642 4.496 375.686 4.958 376.442 5.882C377.198 6.806 377.576 7.964 377.576 9.356ZM373.31 5.81C372.554 5.81 371.936 6.05 371.456 6.53C370.976 6.998 370.676 7.676 370.556 8.564H376.028C375.956 7.748 375.68 7.088 375.2 6.584C374.72 6.068 374.09 5.81 373.31 5.81ZM381.761 3.308H380.231V1.544H381.761V3.308ZM381.725 14H380.285V4.712H381.725V14ZM388.957 4.712V5.972H387.049V12.002C387.049 12.53 387.403 12.794 388.111 12.794H388.957V14C388.561 14.036 388.219 14.054 387.931 14.054C386.383 14.054 385.609 13.412 385.609 12.128V5.972H384.079V4.712H385.609V2.084H387.049V4.712H388.957ZM398.593 12.884C397.741 13.772 396.661 14.216 395.353 14.216C394.045 14.216 392.965 13.772 392.113 12.884C391.273 12.008 390.853 10.832 390.853 9.356C390.853 7.88 391.273 6.704 392.113 5.828C392.965 4.94 394.045 4.496 395.353 4.496C396.661 4.496 397.741 4.94 398.593 5.828C399.433 6.704 399.853 7.88 399.853 9.356C399.853 10.832 399.433 12.008 398.593 12.884ZM393.175 11.966C393.715 12.602 394.441 12.92 395.353 12.92C396.265 12.92 396.991 12.602 397.531 11.966C398.071 11.342 398.341 10.472 398.341 9.356C398.341 8.228 398.071 7.352 397.531 6.728C396.991 6.104 396.265 5.792 395.353 5.792C394.441 5.792 393.715 6.104 393.175 6.728C392.635 7.352 392.365 8.228 392.365 9.356C392.365 10.472 392.635 11.342 393.175 11.966ZM405.669 14.216C403.185 14.216 401.871 13.16 401.727 11.048H403.185C403.269 11.744 403.497 12.242 403.869 12.542C404.253 12.83 404.853 12.974 405.669 12.974C407.157 12.974 407.901 12.494 407.901 11.534C407.901 11.114 407.745 10.796 407.433 10.58C407.133 10.364 406.581 10.178 405.777 10.022L404.913 9.86C402.981 9.5 402.015 8.588 402.015 7.124C402.015 6.32 402.315 5.684 402.915 5.216C403.527 4.736 404.355 4.496 405.399 4.496C407.859 4.496 409.119 5.522 409.179 7.574H407.739C407.703 6.902 407.499 6.428 407.127 6.152C406.755 5.876 406.179 5.738 405.399 5.738C404.775 5.738 404.295 5.858 403.958 6.098C403.623 6.338 403.455 6.674 403.455 7.106C403.455 7.514 403.599 7.82 403.887 8.024C404.175 8.228 404.655 8.402 405.327 8.546L406.155 8.708C407.295 8.936 408.111 9.26 408.603 9.68C409.107 10.1 409.359 10.688 409.359 11.444C409.359 12.32 409.029 13.004 408.369 13.496C407.721 13.976 406.821 14.216 405.669 14.216ZM420.579 4.568C420.819 4.568 420.981 4.574 421.065 4.586V5.972H420.705C419.745 5.972 418.995 6.212 418.455 6.692C417.927 7.16 417.663 7.832 417.663 8.708V14H416.223V4.712H417.591V6.35C418.215 5.162 419.211 4.568 420.579 4.568ZM430.965 9.356V9.86H423.909C423.981 10.868 424.263 11.63 424.755 12.146C425.247 12.65 425.919 12.902 426.771 12.902C428.055 12.902 428.877 12.326 429.237 11.174H430.731C430.479 12.11 430.011 12.854 429.327 13.406C428.643 13.946 427.779 14.216 426.735 14.216C425.451 14.216 424.413 13.778 423.621 12.902C422.817 12.026 422.415 10.844 422.415 9.356C422.415 7.892 422.811 6.716 423.603 5.828C424.383 4.94 425.415 4.496 426.699 4.496C428.031 4.496 429.075 4.958 429.831 5.882C430.587 6.806 430.965 7.964 430.965 9.356ZM426.699 5.81C425.943 5.81 425.325 6.05 424.845 6.53C424.365 6.998 424.065 7.676 423.945 8.564H429.417C429.345 7.748 429.069 7.088 428.589 6.584C428.109 6.068 427.479 5.81 426.699 5.81ZM436.862 14.216C434.378 14.216 433.064 13.16 432.92 11.048H434.378C434.462 11.744 434.69 12.242 435.062 12.542C435.446 12.83 436.046 12.974 436.862 12.974C438.35 12.974 439.094 12.494 439.094 11.534C439.094 11.114 438.938 10.796 438.626 10.58C438.326 10.364 437.774 10.178 436.97 10.022L436.106 9.86C434.174 9.5 433.208 8.588 433.208 7.124C433.208 6.32 433.508 5.684 434.108 5.216C434.72 4.736 435.548 4.496 436.592 4.496C439.052 4.496 440.312 5.522 440.372 7.574H438.932C438.896 6.902 438.692 6.428 438.32 6.152C437.948 5.876 437.372 5.738 436.592 5.738C435.968 5.738 435.488 5.858 435.152 6.098C434.816 6.338 434.648 6.674 434.648 7.106C434.648 7.514 434.792 7.82 435.08 8.024C435.368 8.228 435.848 8.402 436.52 8.546L437.348 8.708C438.488 8.936 439.304 9.26 439.796 9.68C440.3 10.1 440.552 10.688 440.552 11.444C440.552 12.32 440.222 13.004 439.562 13.496C438.914 13.976 438.014 14.216 436.862 14.216ZM451.088 9.356V9.86H444.032C444.104 10.868 444.386 11.63 444.878 12.146C445.37 12.65 446.042 12.902 446.894 12.902C448.178 12.902 449 12.326 449.36 11.174H450.854C450.602 12.11 450.134 12.854 449.45 13.406C448.766 13.946 447.902 14.216 446.858 14.216C445.574 14.216 444.536 13.778 443.744 12.902C442.94 12.026 442.538 10.844 442.538 9.356C442.538 7.892 442.934 6.716 443.726 5.828C444.506 4.94 445.538 4.496 446.822 4.496C448.154 4.496 449.198 4.958 449.954 5.882C450.71 6.806 451.088 7.964 451.088 9.356ZM446.822 5.81C446.066 5.81 445.448 6.05 444.968 6.53C444.488 6.998 444.188 7.676 444.068 8.564H449.54C449.468 7.748 449.192 7.088 448.712 6.584C448.232 6.068 447.602 5.81 446.822 5.81ZM458.153 4.568C458.393 4.568 458.555 4.574 458.639 4.586V5.972H458.279C457.319 5.972 456.569 6.212 456.029 6.692C455.501 7.16 455.237 7.832 455.237 8.708V14H453.797V4.712H455.165V6.35C455.789 5.162 456.785 4.568 458.153 4.568ZM465.982 8.834L467.512 4.712H469.06L465.406 14H463.894L460.258 4.712H461.824L463.354 8.852C464.11 10.88 464.548 12.08 464.668 12.452C464.884 11.816 465.322 10.61 465.982 8.834ZM478.369 12.83H478.891V14C478.651 14.036 478.387 14.054 478.099 14.054C477.127 14.054 476.605 13.61 476.533 12.722C475.885 13.718 474.877 14.216 473.509 14.216C472.489 14.216 471.685 13.982 471.097 13.514C470.521 13.034 470.233 12.362 470.233 11.498C470.233 9.818 471.379 8.858 473.671 8.618L475.003 8.474C475.975 8.366 476.461 7.94 476.461 7.196C476.461 6.68 476.299 6.308 475.975 6.08C475.663 5.852 475.129 5.738 474.373 5.738C473.569 5.738 472.987 5.876 472.627 6.152C472.279 6.416 472.081 6.89 472.033 7.574H470.593C470.713 5.522 471.973 4.496 474.373 4.496C476.701 4.496 477.865 5.396 477.865 7.196V12.38C477.865 12.68 478.033 12.83 478.369 12.83ZM473.581 12.992C474.349 12.992 475.021 12.758 475.597 12.29C476.173 11.834 476.461 11.18 476.461 10.328V9.23C476.197 9.434 475.789 9.566 475.237 9.626L473.887 9.788C473.107 9.884 472.549 10.064 472.213 10.328C471.889 10.592 471.727 10.97 471.727 11.462C471.727 11.942 471.883 12.32 472.195 12.596C472.507 12.86 472.969 12.992 473.581 12.992ZM488.056 6.044V1.184H489.496V14H488.128V12.56C487.384 13.664 486.322 14.216 484.942 14.216C483.634 14.216 482.59 13.772 481.81 12.884C481.018 11.996 480.622 10.82 480.622 9.356C480.622 7.868 481.018 6.686 481.81 5.81C482.578 4.934 483.622 4.496 484.942 4.496C486.274 4.496 487.312 5.012 488.056 6.044ZM482.134 9.428C482.134 10.532 482.404 11.39 482.944 12.002C483.484 12.614 484.21 12.92 485.122 12.92C486.034 12.92 486.76 12.602 487.3 11.966C487.84 11.342 488.11 10.472 488.11 9.356C488.11 8.252 487.84 7.382 487.3 6.746C486.76 6.11 486.034 5.792 485.122 5.792C484.222 5.792 483.496 6.122 482.944 6.782C482.404 7.43 482.134 8.312 482.134 9.428ZM499.944 12.884C499.092 13.772 498.012 14.216 496.704 14.216C495.396 14.216 494.316 13.772 493.464 12.884C492.624 12.008 492.204 10.832 492.204 9.356C492.204 7.88 492.624 6.704 493.464 5.828C494.316 4.94 495.396 4.496 496.704 4.496C498.012 4.496 499.092 4.94 499.944 5.828C500.784 6.704 501.204 7.88 501.204 9.356C501.204 10.832 500.784 12.008 499.944 12.884ZM494.526 11.966C495.066 12.602 495.792 12.92 496.704 12.92C497.616 12.92 498.342 12.602 498.882 11.966C499.422 11.342 499.692 10.472 499.692 9.356C499.692 8.228 499.422 7.352 498.882 6.728C498.342 6.104 497.616 5.792 496.704 5.792C495.792 5.792 495.066 6.104 494.526 6.728C493.986 7.352 493.716 8.228 493.716 9.356C493.716 10.472 493.986 11.342 494.526 11.966ZM507.02 14.216C504.536 14.216 503.222 13.16 503.078 11.048H504.536C504.62 11.744 504.848 12.242 505.22 12.542C505.604 12.83 506.204 12.974 507.02 12.974C508.508 12.974 509.252 12.494 509.252 11.534C509.252 11.114 509.096 10.796 508.784 10.58C508.484 10.364 507.932 10.178 507.128 10.022L506.264 9.86C504.332 9.5 503.366 8.588 503.366 7.124C503.366 6.32 503.666 5.684 504.266 5.216C504.878 4.736 505.706 4.496 506.75 4.496C509.21 4.496 510.47 5.522 510.53 7.574H509.09C509.054 6.902 508.85 6.428 508.478 6.152C508.106 5.876 507.53 5.738 506.75 5.738C506.126 5.738 505.646 5.858 505.31 6.098C504.974 6.338 504.806 6.674 504.806 7.106C504.806 7.514 504.95 7.82 505.238 8.024C505.526 8.228 506.006 8.402 506.678 8.546L507.506 8.708C508.646 8.936 509.462 9.26 509.954 9.68C510.458 10.1 510.71 10.688 510.71 11.444C510.71 12.32 510.38 13.004 509.72 13.496C509.072 13.976 508.172 14.216 507.02 14.216ZM514.694 14H512.876V12.2H514.694V14Z" fill="#6064C9"/>
</svg>
