<svg width="318" height="108" viewBox="0 0 318 108" fill="none" xmlns="http://www.w3.org/2000/svg">
<path d="M31.3709 27V1.8H54.5609V9.03H40.4309V11.49H54.0209V17.31H40.4309V19.74H54.5609V27H31.3709ZM69.8479 27.84C60.8179 27.81 56.7079 25.11 56.9779 18.36H65.1079C65.1679 19.86 66.4279 20.73 69.8479 20.79C72.7879 20.82 74.0479 20.04 74.0479 19.14C74.0479 18.66 73.9279 17.82 71.6479 17.52L68.3479 17.01C63.6079 16.26 57.5479 15.93 57.5479 9.15C57.5479 4.08 61.5979 0.959999 69.9379 0.959999C77.3779 0.959999 82.5679 2.88 82.3579 10.38H74.2579C73.9879 8.91 72.6979 8.01 69.7279 8.01C67.1779 8.01 66.2479 8.73 66.2479 9.63C66.2479 10.05 66.4579 10.89 68.1679 11.16L70.8079 11.58C75.8779 12.42 83.0779 12.33 83.0779 19.53C83.0779 25.17 78.7579 27.87 69.8479 27.84ZM99.3376 27.84C90.7276 27.84 85.0576 22.53 85.0576 14.4C85.0576 6.27 90.7276 0.959999 99.3376 0.959999C105.668 0.959999 112.208 3.75 112.898 12.63H104.258C103.688 10.02 101.918 8.79 99.3376 8.79C96.4276 8.79 94.0576 10.92 94.0576 14.4C94.0576 17.85 96.4276 20.01 99.3376 20.01C101.918 20.01 103.688 18.78 104.258 16.11H112.898C112.208 25.05 105.758 27.84 99.3376 27.84ZM134.183 27L133.223 23.97H122.963L122.003 27H112.643L121.733 1.8H134.453L143.573 27H134.183ZM125.093 17.28H131.093L128.873 10.32H127.313L125.093 17.28ZM145.621 27V1.8H154.681V19.44H167.761V27H145.621ZM170.808 27V1.8H193.998V9.03H179.868V11.49H193.458V17.31H179.868V19.74H193.998V27H170.808ZM218.125 27.84C209.095 27.81 204.985 25.11 205.255 18.36H213.385C213.445 19.86 214.705 20.73 218.125 20.79C221.065 20.82 222.325 20.04 222.325 19.14C222.325 18.66 222.205 17.82 219.925 17.52L216.625 17.01C211.885 16.26 205.825 15.93 205.825 9.15C205.825 4.08 209.875 0.959999 218.215 0.959999C225.655 0.959999 230.845 2.88 230.635 10.38H222.535C222.265 8.91 220.975 8.01 218.005 8.01C215.455 8.01 214.525 8.73 214.525 9.63C214.525 10.05 214.735 10.89 216.445 11.16L219.085 11.58C224.155 12.42 231.355 12.33 231.355 19.53C231.355 25.17 227.035 27.87 218.125 27.84ZM233.785 27V1.8H256.975V9.03H242.845V11.49H256.435V17.31H242.845V19.74H256.975V27H233.785ZM273.307 27.84C264.337 27.84 259.957 24.12 259.957 15.84V1.8H269.107V15.63C269.107 18.45 270.277 20.25 273.307 20.25C276.337 20.25 277.567 18.45 277.567 15.63V1.8H286.657V15.78C286.657 24.12 282.277 27.84 273.307 27.84ZM0.988047 67V41.8H24.118V49.36H10.048V51.94H23.548V58.45H10.048V67H0.988047ZM44.3898 67L43.4298 63.97H33.1698L32.2098 67H22.8498L31.9398 41.8H44.6598L53.7798 67H44.3898ZM35.2998 57.28H41.2998L39.0798 50.32H37.5198L35.2998 57.28ZM77.5202 41.8V49.36H68.5802V67H59.4902V49.36H50.5802V41.8H77.5202ZM93.6623 67.84C84.6923 67.84 80.3123 64.12 80.3123 55.84V41.8H89.4623V55.63C89.4623 58.45 90.6323 60.25 93.6623 60.25C96.6923 60.25 97.9223 58.45 97.9223 55.63V41.8H107.012V55.78C107.012 64.12 102.632 67.84 93.6623 67.84ZM136.815 67H127.905L124.725 60.82H119.025V67H109.965V41.8H124.785C131.865 41.8 135.885 44.74 135.885 51.64C135.885 54.94 134.445 57.34 132.435 58.84L136.815 67ZM119.025 49.33V54.07H124.125C125.925 54.07 126.795 53.17 126.795 51.7C126.795 50.23 125.925 49.33 124.125 49.33H119.025ZM159.554 67L158.594 63.97H148.334L147.374 67H138.014L147.104 41.8H159.824L168.944 67H159.554ZM150.464 57.28H156.464L154.244 50.32H152.684L150.464 57.28ZM170.992 67V41.8H182.392L185.782 55.06H186.442L189.832 41.8H201.232V67H192.592V57.16H191.902L189.442 67H182.782L180.322 57.16H179.632V67H170.992ZM204.195 67V41.8H227.385V49.03H213.255V51.49H226.845V57.31H213.255V59.74H227.385V67H204.195ZM230.367 67V41.8H240.747L248.007 54.31H248.847V41.8H257.697V67H247.527L240.027 54.49H239.217V67H230.367ZM287.442 41.8V49.36H278.502V67H269.412V49.36H260.502V41.8H287.442ZM303.024 67.84C294.234 67.84 288.624 62.53 288.624 54.4C288.624 46.27 294.234 40.96 303.024 40.96C311.844 40.96 317.454 46.27 317.454 54.4C317.454 62.53 311.844 67.84 303.024 67.84ZM303.024 60.01C305.934 60.01 308.424 58.06 308.424 54.4C308.424 50.74 305.934 48.79 303.024 48.79C300.144 48.79 297.624 50.74 297.624 54.4C297.624 58.06 300.144 60.01 303.024 60.01Z" fill="#F8F8F8"/>
<path d="M33.9157 107.84C25.3057 107.84 19.6357 102.53 19.6357 94.4C19.6357 86.27 25.3057 80.96 33.9157 80.96C40.2457 80.96 46.7857 83.75 47.4757 92.63H38.8357C38.2657 90.02 36.4957 88.79 33.9157 88.79C31.0057 88.79 28.6357 90.92 28.6357 94.4C28.6357 97.85 31.0057 100.01 33.9157 100.01C36.4957 100.01 38.2657 98.78 38.8357 96.11H47.4757C46.7857 105.05 40.3357 107.84 33.9157 107.84ZM64.356 107.84C55.566 107.84 49.956 102.53 49.956 94.4C49.956 86.27 55.566 80.96 64.356 80.96C73.176 80.96 78.786 86.27 78.786 94.4C78.786 102.53 73.176 107.84 64.356 107.84ZM64.356 100.01C67.266 100.01 69.756 98.06 69.756 94.4C69.756 90.74 67.266 88.79 64.356 88.79C61.476 88.79 58.956 90.74 58.956 94.4C58.956 98.06 61.476 100.01 64.356 100.01ZM81.324 107V81.8H92.724L96.114 95.06H96.774L100.164 81.8H111.564V107H102.924V97.16H102.234L99.774 107H93.114L90.654 97.16H89.964V107H81.324ZM144.042 107L143.082 103.97H132.822L131.862 107H122.502L131.592 81.8H144.312L153.432 107H144.042ZM134.952 97.28H140.952L138.732 90.32H137.172L134.952 97.28ZM184.995 107L184.035 103.97H173.775L172.815 107H163.455L172.545 81.8H185.265L194.385 107H184.995ZM175.905 97.28H181.905L179.685 90.32H178.125L175.905 97.28ZM223.283 107H214.373L211.193 100.82H205.493V107H196.433V81.8H211.253C218.333 81.8 222.353 84.74 222.353 91.64C222.353 94.94 220.913 97.34 218.903 98.84L223.283 107ZM205.493 89.33V94.07H210.593C212.393 94.07 213.263 93.17 213.263 91.7C213.263 90.23 212.393 89.33 210.593 89.33H205.493ZM225.84 107V81.8H237.24L240.63 95.06H241.29L244.68 81.8H256.08V107H247.44V97.16H246.75L244.29 107H237.63L235.17 97.16H234.48V107H225.84ZM272.993 107.84C264.203 107.84 258.593 102.53 258.593 94.4C258.593 86.27 264.203 80.96 272.993 80.96C281.813 80.96 287.423 86.27 287.423 94.4C287.423 102.53 281.813 107.84 272.993 107.84ZM272.993 100.01C275.903 100.01 278.393 98.06 278.393 94.4C278.393 90.74 275.903 88.79 272.993 88.79C270.113 88.79 267.593 90.74 267.593 94.4C267.593 98.06 270.113 100.01 272.993 100.01ZM291.521 97.19L289.751 81.8H299.141L297.341 97.19H291.521ZM294.431 107.48C292.031 107.48 289.991 105.47 289.991 103.1C289.991 100.7 292.031 98.69 294.431 98.69C296.861 98.69 298.901 100.7 298.901 103.1C298.901 105.47 296.861 107.48 294.431 107.48Z" fill="url(#paint0_linear_2038_496)"/>
<defs>
<linearGradient id="paint0_linear_2038_496" x1="-20" y1="50" x2="339" y2="50" gradientUnits="userSpaceOnUse">
<stop stop-color="#9A9EED"/>
<stop offset="1" stop-color="#BFC2EE"/>
</linearGradient>
</defs>
</svg>
