<svg width="237" height="43" viewBox="0 0 237 43" fill="none" xmlns="http://www.w3.org/2000/svg">
<rect width="237" height="43" rx="8" fill="url(#paint0_linear_13_690)"/>
<path d="M25.16 21.06V25.5H23.91L23.89 24.28C23.31 25.16 22.25 25.78 20.76 25.78C18.22 25.78 16.28 23.94 16.28 21.3C16.28 18.66 18.16 16.82 20.92 16.82C22.74 16.82 24.58 17.67 25.03 19.78H23.04C22.72 19.02 21.96 18.55 20.95 18.55C19.39 18.55 18.25 19.68 18.25 21.3C18.25 22.91 19.4 24.05 20.91 24.05C21.75 24.05 22.92 23.68 23.21 22.41H20.77V21.06H25.16ZM28.0628 25.5V17.1H35.1328V18.73H30.0528V20.57H34.9528V22.01H30.0528V23.86H35.1328V25.5H28.0628ZM41.6612 25.78C39.1013 25.78 37.7513 24.87 37.7613 22.9H39.5613C39.6312 23.69 40.2813 24.19 41.6612 24.2C42.9613 24.2 43.6712 23.76 43.6712 23.1C43.6712 22.52 43.2013 22.23 42.2013 22.06L41.1613 21.88C39.5713 21.6 37.9913 21.18 37.9913 19.35C37.9913 17.76 39.3313 16.82 41.6812 16.82C43.8713 16.82 45.3913 17.59 45.4113 19.67H43.6212C43.4913 18.91 42.9013 18.4 41.6413 18.4C40.5013 18.4 39.9013 18.79 39.9013 19.44C39.9013 19.95 40.3113 20.27 41.1713 20.43L42.0812 20.59C43.6812 20.88 45.6513 21.15 45.6513 23.16C45.6513 24.83 44.2812 25.78 41.6612 25.78ZM56.1231 17.1V18.77H52.9731V25.5H50.9731V18.77H47.8331V17.1H56.1231ZM59.9891 16.43H59.3191C59.2191 15.39 59.9191 14.95 60.6891 14.95C61.5191 14.95 61.9391 15.62 62.5591 15.62C62.9091 15.62 63.1091 15.43 63.1491 15.15H63.8091C63.9091 16.18 63.2191 16.63 62.4391 16.63C61.6191 16.63 61.1991 15.96 60.5791 15.96C60.2291 15.96 60.0291 16.14 59.9891 16.43ZM64.1591 25.5L63.6391 24.09H59.4991L58.9791 25.5H56.9191L60.1691 17.1H62.9691L66.2291 25.5H64.1591ZM60.0591 22.58H63.0791L61.7591 18.99H61.3791L60.0591 22.58ZM72.4798 25.78C69.7398 25.78 67.8698 23.94 67.8698 21.3C67.8698 18.66 69.7398 16.82 72.4798 16.82C75.2298 16.82 77.0998 18.66 77.0998 21.3C77.0998 23.94 75.2298 25.78 72.4798 25.78ZM72.4798 24.05C73.9798 24.05 75.1198 22.95 75.1198 21.3C75.1198 19.65 73.9798 18.55 72.4798 18.55C70.9898 18.55 69.8398 19.65 69.8398 21.3C69.8398 22.95 70.9898 24.05 72.4798 24.05ZM88.1963 17.1C91.4562 17.1 92.6963 18.91 92.6963 21.3C92.6963 23.69 91.4562 25.5 88.1963 25.5H84.3362V17.1H88.1963ZM88.1863 23.82C89.8163 23.82 90.6962 22.92 90.6962 21.3C90.6962 19.68 89.8163 18.78 88.1863 18.78H86.3462L86.3263 23.82H88.1863ZM95.4417 25.5V17.1H102.512V18.73H97.4317V20.57H102.332V22.01H97.4317V23.86H102.512V25.5H95.4417ZM109.907 25.5V17.1H112.457L114.537 22.99H114.687L116.767 17.1H119.317V25.5H117.407V20.44H117.237L115.387 25.5H113.837L111.987 20.44H111.817V25.5H109.907ZM122.262 16.6L122.972 14.96H124.762L124.052 16.6H122.262ZM122.172 25.5V17.1H124.162V25.5H122.172ZM130.88 17.1C134.14 17.1 135.38 18.91 135.38 21.3C135.38 23.69 134.14 25.5 130.88 25.5H127.02V17.1H130.88ZM130.87 23.82C132.5 23.82 133.38 22.92 133.38 21.3C133.38 19.68 132.5 18.78 130.87 18.78H129.03L129.01 23.82H130.87ZM138.125 25.5V17.1H140.115V25.5H138.125ZM149.913 25.5L149.393 24.09H145.253L144.733 25.5H142.673L145.923 17.1H148.723L151.983 25.5H149.913ZM145.813 22.58H148.833L147.513 18.99H147.133L145.813 22.58ZM157.931 25.78C155.371 25.78 154.021 24.87 154.031 22.9H155.831C155.901 23.69 156.551 24.19 157.931 24.2C159.231 24.2 159.941 23.76 159.941 23.1C159.941 22.52 159.471 22.23 158.471 22.06L157.431 21.88C155.841 21.6 154.261 21.18 154.261 19.35C154.261 17.76 155.601 16.82 157.951 16.82C160.141 16.82 161.661 17.59 161.681 19.67H159.891C159.761 18.91 159.171 18.4 157.911 18.4C156.771 18.4 156.171 18.79 156.171 19.44C156.171 19.95 156.581 20.27 157.441 20.43L158.351 20.59C159.951 20.88 161.921 21.15 161.921 23.16C161.921 24.83 160.551 25.78 157.931 25.78ZM169.129 25.5V17.1H173.519C175.759 17.1 176.979 18.17 176.979 20.18C176.979 22.18 175.759 23.25 173.519 23.25H171.119V25.5H169.129ZM171.119 21.58H173.389C174.369 21.58 174.979 21.11 174.979 20.18C174.979 19.24 174.369 18.77 173.389 18.77H171.119V21.58ZM185.546 25.5L185.026 24.09H180.886L180.366 25.5H178.306L181.556 17.1H184.356L187.616 25.5H185.546ZM181.446 22.58H184.466L183.146 18.99H182.766L181.446 22.58ZM198.137 21.06V25.5H196.887L196.867 24.28C196.287 25.16 195.227 25.78 193.737 25.78C191.197 25.78 189.257 23.94 189.257 21.3C189.257 18.66 191.137 16.82 193.897 16.82C195.717 16.82 197.557 17.67 198.007 19.78H196.017C195.697 19.02 194.937 18.55 193.927 18.55C192.367 18.55 191.227 19.68 191.227 21.3C191.227 22.91 192.377 24.05 193.887 24.05C194.727 24.05 195.897 23.68 196.187 22.41H193.747V21.06H198.137ZM207.874 25.5L207.354 24.09H203.214L202.694 25.5H200.634L203.884 17.1H206.684L209.944 25.5H207.874ZM203.774 22.58H206.794L205.474 18.99H205.094L203.774 22.58ZM215.892 25.78C213.332 25.78 211.982 24.87 211.992 22.9H213.792C213.862 23.69 214.512 24.19 215.892 24.2C217.192 24.2 217.902 23.76 217.902 23.1C217.902 22.52 217.432 22.23 216.432 22.06L215.392 21.88C213.802 21.6 212.222 21.18 212.222 19.35C212.222 17.76 213.562 16.82 215.912 16.82C218.102 16.82 219.622 17.59 219.642 19.67H217.852C217.722 18.91 217.132 18.4 215.872 18.4C214.732 18.4 214.132 18.79 214.132 19.44C214.132 19.95 214.542 20.27 215.402 20.43L216.312 20.59C217.912 20.88 219.882 21.15 219.882 23.16C219.882 24.83 218.512 25.78 215.892 25.78Z" fill="#F8F8F8"/>
<defs>
<linearGradient id="paint0_linear_13_690" x1="237" y1="21.5" x2="0" y2="21.5" gradientUnits="userSpaceOnUse">
<stop stop-color="#575AC0"/>
<stop offset="1" stop-color="#333693"/>
</linearGradient>
</defs>
</svg>
