<svg width="322" height="64" viewBox="0 0 322 64" fill="none" xmlns="http://www.w3.org/2000/svg">
<path d="M8.23333 15.4667C3.45 15.4667 0.3 12.5167 0.3 8C0.3 3.48333 3.45 0.533333 8.23333 0.533333C11.75 0.533333 15.3833 2.08333 15.7667 7.01667H10.9667C10.65 5.56667 9.66667 4.88333 8.23333 4.88333C6.61667 4.88333 5.3 6.06667 5.3 8C5.3 9.91667 6.61667 11.1167 8.23333 11.1167C9.66667 11.1167 10.65 10.4333 10.9667 8.95H15.7667C15.3833 13.9167 11.8 15.4667 8.23333 15.4667ZM26.5909 1H31.6409V15H26.5909V10.1167H21.6576V15H16.6242V1H21.6576V5.88333H26.5909V1ZM32.718 15V1H45.6013V5.01667H37.7513V6.38333H45.3013V9.61667H37.7513V10.9667H45.6013V15H32.718ZM61.7599 7.15V15H59.1599L59.0932 13.2667H59.0432C58.0599 14.5333 56.3432 15.4667 53.9099 15.4667C49.5932 15.4667 46.2766 12.5167 46.2766 8C46.2766 3.48333 49.4099 0.533333 54.3599 0.533333C57.7599 0.533333 61.2599 2.18333 61.7432 6.03333H56.7266C56.5266 5.53333 55.7432 4.88333 54.4766 4.88333C52.5932 4.88333 51.2766 6.06667 51.2766 8C51.2766 9.91667 52.6266 11.1167 54.3266 11.1167C54.7932 11.1167 56.4266 11.0667 56.9099 9.6H54.1432V7.15H61.7599ZM74.2237 15L73.6904 13.3167H67.9904L67.457 15H62.257L67.307 1H74.3737L79.4404 15H74.2237ZM69.1737 9.6H72.507L71.2737 5.73333H70.407L69.1737 9.6ZM91.631 1C97.4143 1 99.3977 3.95 99.3977 8C99.3977 12.0333 97.4143 15 91.631 15H84.3977V1H91.631ZM91.631 10.7833C93.1143 10.7833 94.331 10.0833 94.331 8C94.331 5.9 93.1143 5.21667 91.631 5.21667H89.4643L89.4477 10.7833H91.631ZM100.316 15V1H113.199V5.01667H105.349V6.38333H112.899V9.61667H105.349V10.9667H113.199V15H100.316ZM133.908 7.15V15H131.308L131.242 13.2667H131.192C130.208 14.5333 128.492 15.4667 126.058 15.4667C121.742 15.4667 118.425 12.5167 118.425 8C118.425 3.48333 121.558 0.533333 126.508 0.533333C129.908 0.533333 133.408 2.18333 133.892 6.03333H128.875C128.675 5.53333 127.892 4.88333 126.625 4.88333C124.742 4.88333 123.425 6.06667 123.425 8C123.425 9.91667 124.775 11.1167 126.475 11.1167C126.942 11.1167 128.575 11.0667 129.058 9.6H126.292V7.15H133.908ZM146.372 15L145.839 13.3167H140.139L139.605 15H134.405L139.455 1H146.522L151.589 15H146.372ZM141.322 9.6H144.655L143.422 5.73333H142.555L141.322 9.6ZM158.382 15.4667C153.366 15.45 151.082 13.95 151.232 10.2H155.749C155.782 11.0333 156.482 11.5167 158.382 11.55C160.016 11.5667 160.716 11.1333 160.716 10.6333C160.716 10.3667 160.649 9.9 159.382 9.73333L157.549 9.45C154.916 9.03333 151.549 8.85 151.549 5.08333C151.549 2.26667 153.799 0.533333 158.432 0.533333C162.566 0.533333 165.449 1.6 165.332 5.76667H160.832C160.682 4.95 159.966 4.45 158.316 4.45C156.899 4.45 156.382 4.85 156.382 5.35C156.382 5.58333 156.499 6.05 157.449 6.2L158.916 6.43333C161.732 6.9 165.732 6.85 165.732 10.85C165.732 13.9833 163.332 15.4833 158.382 15.4667ZM181 1V5.2H176.033V15H170.983V5.2H166.033V1H181ZM190.63 15L190.097 13.3167H184.397L183.863 15H178.663L183.713 1H190.78L195.847 15H190.63ZM185.58 9.6H188.913L187.68 5.73333H186.813L185.58 9.6ZM211.346 15H206.396L204.629 11.5667H201.462V15H196.429V1H204.662C208.596 1 210.829 2.63333 210.829 6.46667C210.829 8.3 210.029 9.63333 208.912 10.4667L211.346 15ZM201.462 5.18333V7.81667H204.296C205.296 7.81667 205.779 7.31667 205.779 6.5C205.779 5.68333 205.296 5.18333 204.296 5.18333H201.462ZM224.268 15.4667C219.485 15.4667 216.335 12.5167 216.335 8C216.335 3.48333 219.485 0.533333 224.268 0.533333C227.785 0.533333 231.418 2.08333 231.802 7.01667H227.002C226.685 5.56667 225.702 4.88333 224.268 4.88333C222.652 4.88333 221.335 6.06667 221.335 8C221.335 9.91667 222.652 11.1167 224.268 11.1167C225.702 11.1167 226.685 10.4333 227.002 8.95H231.802C231.418 13.9167 227.835 15.4667 224.268 15.4667ZM240.624 15.4667C235.741 15.4667 232.624 12.5167 232.624 8C232.624 3.48333 235.741 0.533333 240.624 0.533333C245.524 0.533333 248.641 3.48333 248.641 8C248.641 12.5167 245.524 15.4667 240.624 15.4667ZM240.624 11.1167C242.241 11.1167 243.624 10.0333 243.624 8C243.624 5.96667 242.241 4.88333 240.624 4.88333C239.024 4.88333 237.624 5.96667 237.624 8C237.624 10.0333 239.024 11.1167 240.624 11.1167ZM249.495 15V1H255.829L257.712 8.36667H258.079L259.962 1H266.295V15H261.495V9.53333H261.112L259.745 15H256.045L254.679 9.53333H254.295V15H249.495ZM12.0167 39L11.4833 37.3167H5.78333L5.25 39H0.05L5.1 25H12.1667L17.2333 39H12.0167ZM6.96667 33.6H10.3L9.06667 29.7333H8.2L6.96667 33.6ZM17.8156 39V25H23.5823L27.6156 31.95H28.0823V25H32.999V39H27.349L23.1823 32.05H22.7323V39H17.8156ZM39.2352 24.1667L40.4518 21.1833H44.9018L43.6852 24.1667H39.2352ZM41.5018 39.4667C36.5185 39.4667 34.0852 37.4 34.0852 32.8V25H39.1685V32.6833C39.1685 34.25 39.8185 35.25 41.5018 35.25C43.1852 35.25 43.8685 34.25 43.8685 32.6833V25H48.9185V32.7667C48.9185 37.4 46.4852 39.4667 41.5018 39.4667ZM50.0031 39V25H55.7698L59.8031 31.95H60.2698V25H65.1865V39H59.5365L55.3698 32.05H54.9198V39H50.0031ZM73.956 39.4667C69.1727 39.4667 66.0227 36.5167 66.0227 32C66.0227 27.4833 69.1727 24.5333 73.956 24.5333C77.4727 24.5333 81.106 26.0833 81.4893 31.0167H76.6893C76.3727 29.5667 75.3893 28.8833 73.956 28.8833C72.3393 28.8833 71.0227 30.0667 71.0227 32C71.0227 33.9167 72.3393 35.1167 73.956 35.1167C75.3893 35.1167 76.3727 34.4333 76.6893 32.95H81.4893C81.106 37.9167 77.5227 39.4667 73.956 39.4667ZM82.3469 39V25H87.3802V39H82.3469ZM96.2297 39.4667C91.3464 39.4667 88.2297 36.5167 88.2297 32C88.2297 27.4833 91.3464 24.5333 96.2297 24.5333C101.13 24.5333 104.246 27.4833 104.246 32C104.246 36.5167 101.13 39.4667 96.2297 39.4667ZM96.2297 35.1167C97.8464 35.1167 99.2297 34.0333 99.2297 32C99.2297 29.9667 97.8464 28.8833 96.2297 28.8833C94.6297 28.8833 93.2297 29.9667 93.2297 32C93.2297 34.0333 94.6297 35.1167 96.2297 35.1167ZM111.839 39.4667C106.823 39.45 104.539 37.95 104.689 34.2H109.206C109.239 35.0333 109.939 35.5167 111.839 35.55C113.473 35.5667 114.173 35.1333 114.173 34.6333C114.173 34.3667 114.106 33.9 112.839 33.7333L111.006 33.45C108.373 33.0333 105.006 32.85 105.006 29.0833C105.006 26.2667 107.256 24.5333 111.889 24.5333C116.023 24.5333 118.906 25.6 118.789 29.7667H114.289C114.139 28.95 113.423 28.45 111.773 28.45C110.356 28.45 109.839 28.85 109.839 29.35C109.839 29.5833 109.956 30.05 110.906 30.2L112.373 30.4333C115.189 30.9 119.189 30.85 119.189 34.85C119.189 37.9833 116.789 39.4833 111.839 39.4667ZM140.125 31.8167C140.125 33.75 139.359 35.2167 138.192 36.3833L140.009 38.25C139.175 39.35 138.275 40.2333 137.209 41.1L134.859 38.9667C134.025 39.2667 133.075 39.4667 132.109 39.4667C127.225 39.4667 124.109 36.5167 124.109 32C124.109 27.4833 127.225 24.5333 132.109 24.5333C137.009 24.5333 140.125 27.4833 140.125 31.8167ZM129.109 32C129.109 34.0333 130.509 35.1167 132.109 35.1167C133.725 35.1167 135.109 34.0333 135.109 32C135.109 29.9667 133.725 28.8833 132.109 28.8833C130.509 28.8833 129.109 29.9667 129.109 32ZM148.396 39.4667C143.413 39.4667 140.98 37.4 140.98 32.8V25H146.063V32.6833C146.063 34.25 146.713 35.25 148.396 35.25C150.08 35.25 150.763 34.25 150.763 32.6833V25H155.813V32.7667C155.813 37.4 153.38 39.4667 148.396 39.4667ZM156.898 39V25H169.781V29.0167H161.931V30.3833H169.481V33.6167H161.931V34.9667H169.781V39H156.898ZM175.257 39V25H181.024L185.057 31.95H185.524V25H190.44V39H184.79L180.624 32.05H180.174V39H175.257ZM196.71 24.0833H195.41C195.043 21.9167 196.593 21.0167 198.093 21.0167C199.427 21.0167 200.327 21.9333 201.427 21.9333C202.027 21.9333 202.427 21.6333 202.477 21.1333H203.76C204.127 23.2833 202.593 24.2 201.077 24.2C199.743 24.2 198.86 23.2833 197.76 23.2833C197.16 23.2833 196.76 23.5667 196.71 24.0833ZM202.993 39L202.46 37.3167H196.76L196.227 39H191.027L196.077 25H203.143L208.21 39H202.993ZM197.943 33.6H201.277L200.043 29.7333H199.177L197.943 33.6ZM215.195 39.4667C210.311 39.4667 207.195 36.5167 207.195 32C207.195 27.4833 210.311 24.5333 215.195 24.5333C220.095 24.5333 223.211 27.4833 223.211 32C223.211 36.5167 220.095 39.4667 215.195 39.4667ZM215.195 35.1167C216.811 35.1167 218.195 34.0333 218.195 32C218.195 29.9667 216.811 28.8833 215.195 28.8833C213.595 28.8833 212.195 29.9667 212.195 32C212.195 34.0333 213.595 35.1167 215.195 35.1167ZM242.816 25V29.2H237.849V39H232.799V29.2H227.849V25H242.816ZM258.728 39H253.778L252.012 35.5667H248.845V39H243.812V25H252.045C255.978 25 258.212 26.6333 258.212 30.4667C258.212 32.3 257.412 33.6333 256.295 34.4667L258.728 39ZM248.845 29.1833V31.8167H251.678C252.678 31.8167 253.162 31.3167 253.162 30.5C253.162 29.6833 252.678 29.1833 251.678 29.1833H248.845ZM270.806 39L270.272 37.3167H264.572L264.039 39H258.839L263.889 25H270.956L276.022 39H270.806ZM265.756 33.6H269.089L267.856 29.7333H266.989L265.756 33.6ZM276.355 39V34.95L283.155 29.5833V29.2H276.505V25H289.738V29.05L282.821 34.4167V34.8H289.638V39H276.355ZM290.589 39V25H303.472V29.0167H295.622V30.3833H303.172V33.6167H295.622V34.9667H303.472V39H290.589ZM304.573 39V25H310.907L312.79 32.3667H313.157L315.04 25H321.373V39H316.573V33.5333H316.19L314.823 39H311.123L309.757 33.5333H309.373V39H304.573ZM15.4667 63H10.5167L8.75 59.5667H5.58333V63H0.55V49H8.78333C12.7167 49 14.95 50.6333 14.95 54.4667C14.95 56.3 14.15 57.6333 13.0333 58.4667L15.4667 63ZM5.58333 53.1833V55.8167H8.41667C9.41667 55.8167 9.9 55.3167 9.9 54.5C9.9 53.6833 9.41667 53.1833 8.41667 53.1833H5.58333ZM16.3312 63V49H29.2146V53.0167H21.3646V54.3833H28.9146V57.6167H21.3646V58.9667H29.2146V63H16.3312ZM45.199 49V53.2H40.2323V63H35.1823V53.2H30.2323V49H45.199ZM53.3 63.4667C48.4167 63.4667 45.3 60.5167 45.3 56C45.3 51.4833 48.4167 48.5333 53.3 48.5333C58.2 48.5333 61.3167 51.4833 61.3167 56C61.3167 60.5167 58.2 63.4667 53.3 63.4667ZM53.3 59.1167C54.9167 59.1167 56.3 58.0333 56.3 56C56.3 53.9667 54.9167 52.8833 53.3 52.8833C51.7 52.8833 50.3 53.9667 50.3 56C50.3 58.0333 51.7 59.1167 53.3 59.1167ZM77.0878 63H72.1378L70.3711 59.5667H67.2044V63H62.1711V49H70.4044C74.3378 49 76.5711 50.6333 76.5711 54.4667C76.5711 56.3 75.7711 57.6333 74.6544 58.4667L77.0878 63ZM67.2044 53.1833V55.8167H70.0378C71.0378 55.8167 71.5211 55.3167 71.5211 54.5C71.5211 53.6833 71.0378 53.1833 70.0378 53.1833H67.2044ZM77.9523 63V49H83.719L87.7523 55.95H88.219V49H93.1357V63H87.4857L83.319 56.05H82.869V63H77.9523ZM101.972 63.4667C97.0885 63.4667 93.9719 60.5167 93.9719 56C93.9719 51.4833 97.0885 48.5333 101.972 48.5333C106.872 48.5333 109.989 51.4833 109.989 56C109.989 60.5167 106.872 63.4667 101.972 63.4667ZM101.972 59.1167C103.589 59.1167 104.972 58.0333 104.972 56C104.972 53.9667 103.589 52.8833 101.972 52.8833C100.372 52.8833 98.9719 53.9667 98.9719 56C98.9719 58.0333 100.372 59.1167 101.972 59.1167ZM112.818 63.2667C111.485 63.2667 110.352 62.15 110.352 60.8333C110.352 59.5 111.485 58.3833 112.818 58.3833C114.168 58.3833 115.302 59.5 115.302 60.8333C115.302 62.15 114.168 63.2667 112.818 63.2667Z" fill="#F8F8F8"/>
</svg>
