<svg width="16" height="14" viewBox="0 0 16 14" fill="none" xmlns="http://www.w3.org/2000/svg">
<path fill-rule="evenodd" clip-rule="evenodd" d="M0.767637 5.76764C1.08005 5.45522 1.58659 5.45522 1.89901 5.76764L7.99999 11.8686L14.101 5.76764C14.4134 5.45522 14.9199 5.45522 15.2323 5.76764C15.5447 6.08005 15.5447 6.58659 15.2323 6.89901L8.56567 13.5656C8.25326 13.8781 7.74672 13.8781 7.4343 13.5656L0.767637 6.89901C0.455221 6.58659 0.455221 6.08005 0.767637 5.76764Z" fill="#9A9EED"/>
<path fill-rule="evenodd" clip-rule="evenodd" d="M0.767637 0.434263C1.08005 0.121847 1.58659 0.121847 1.89901 0.434263L7.99999 6.53525L14.101 0.434263C14.4134 0.121847 14.9199 0.121847 15.2323 0.434263C15.5447 0.746679 15.5447 1.25322 15.2323 1.56563L8.56567 8.23227C8.25326 8.5447 7.74672 8.5447 7.4343 8.23227L0.767637 1.56563C0.455221 1.25322 0.455221 0.746679 0.767637 0.434263Z" fill="#DEA1FF"/>
</svg>
