<svg width="1139" height="148" viewBox="0 0 1139 148" fill="none" xmlns="http://www.w3.org/2000/svg">
<rect x="0.5" y="0.5" width="1138" height="147" rx="19.5" fill="#010224"/>
<rect x="0.5" y="0.5" width="1138" height="147" rx="19.5" stroke="url(#paint0_linear_29_2612)"/>
<rect x="39.5" y="41.5" width="65" height="65" rx="12.5" fill="url(#paint1_linear_29_2612)"/>
<rect x="39.5" y="41.5" width="65" height="65" rx="12.5" stroke="#6064C9"/>
<path d="M62.5 60C59.4616 60 57 62.4616 57 65.5V81.5C57 84.5384 59.4616 87 62.5 87H81.5C84.5384 87 87 84.5384 87 81.5V65.5C87 62.4616 84.5384 60 81.5 60H62.5Z" fill="#CBCDF6" fill-opacity="0.4"/>
<path fill-rule="evenodd" clip-rule="evenodd" d="M77.5 70.5C78.3284 70.5 79 71.1716 79 72V78C79 78.8284 78.3284 79.5 77.5 79.5C76.6716 79.5 76 78.8284 76 78V72C76 71.1716 76.6716 70.5 77.5 70.5Z" fill="#CBCDF6"/>
<path fill-rule="evenodd" clip-rule="evenodd" d="M66.5 73.5C67.3284 73.5 68 74.1716 68 75V78C68 78.8284 67.3284 79.5 66.5 79.5C65.6716 79.5 65 78.8284 65 78V75C65 74.1716 65.6716 73.5 66.5 73.5Z" fill="#CBCDF6"/>
<path fill-rule="evenodd" clip-rule="evenodd" d="M72 67.5C72.8284 67.5 73.5 68.1716 73.5 69V78C73.5 78.8284 72.8284 79.5 72 79.5C71.1716 79.5 70.5 78.8284 70.5 78V69C70.5 68.1716 71.1716 67.5 72 67.5Z" fill="#CBCDF6"/>
<path fill-rule="evenodd" clip-rule="evenodd" d="M54 85.5C54 84.6716 54.6716 84 55.5 84H88.5C89.3284 84 90 84.6716 90 85.5C90 86.3284 89.3284 87 88.5 87H55.5C54.6716 87 54 86.3284 54 85.5Z" fill="#CBCDF6"/>
<path d="M132.133 60.4667C127.6 60.4667 124.467 57.4 124.467 53C124.467 48.6 127.6 45.5333 132.133 45.5333C135.2 45.5333 138.35 46.9 139.033 51.0167H135.85C135.25 49.2167 133.867 48.4167 132.133 48.4167C129.65 48.4167 127.75 50.3 127.75 53C127.75 55.6833 129.65 57.5833 132.133 57.5833C133.867 57.5833 135.25 56.7833 135.85 54.9667H139.033C138.35 59.1 135.233 60.4667 132.133 60.4667ZM151.716 60.4667C147.15 60.4667 144.033 57.4 144.033 53C144.033 48.6 147.15 45.5333 151.716 45.5333C156.3 45.5333 159.416 48.6 159.416 53C159.416 57.4 156.3 60.4667 151.716 60.4667ZM151.716 57.5833C154.216 57.5833 156.116 55.75 156.116 53C156.116 50.25 154.216 48.4167 151.716 48.4167C149.233 48.4167 147.316 50.25 147.316 53C147.316 55.75 149.233 57.5833 151.716 57.5833ZM164.592 60V46H168.442L174.942 55.4167H175.258V46H178.508V60H174.725L168.142 50.5833H167.842V60H164.592ZM194.19 46H197.524V60H194.19V54.3833H187.24V60H183.924V46H187.24V51.6167H194.19V46ZM202.943 60V46H214.727V48.7167H206.26V51.7833H214.427V54.1833H206.26V57.2667H214.727V60H202.943ZM227.407 57.5833C229.14 57.5833 230.523 56.7833 231.123 54.9667H234.307C233.657 58.8667 230.84 60.3 227.923 60.45L227.69 60.65C228.59 60.7167 229.523 61.2833 229.523 62.4833C229.523 64.1667 227.657 64.75 225.69 64.3667V62.9167C226.973 63.1667 227.54 62.85 227.54 62.5167C227.54 62.15 226.973 61.75 225.69 62.1167V61.1L226.473 60.4167C222.457 60.0333 219.74 57.1 219.74 53C219.74 48.6 222.873 45.5333 227.407 45.5333C230.473 45.5333 233.623 46.9 234.307 51.0167H231.123C230.523 49.2167 229.14 48.4167 227.407 48.4167C224.923 48.4167 223.023 50.3 223.023 53C223.023 55.6833 224.923 57.5833 227.407 57.5833ZM250.186 60L249.319 57.65H242.419L241.552 60H238.119L243.536 46H248.202L253.636 60H250.186ZM243.352 55.1333H248.386L246.186 49.15H245.552L243.352 55.1333Z" fill="#CBCDF6"/>
<path d="M125.32 107V73.4H139.16L148.84 90.08H149.96V73.4H161.76V107H148.2L138.2 90.32H137.12V107H125.32ZM182.967 108.12C171.247 108.12 163.767 101.04 163.767 90.2C163.767 79.36 171.247 72.28 182.967 72.28C194.727 72.28 202.207 79.36 202.207 90.2C202.207 101.04 194.727 108.12 182.967 108.12ZM182.967 97.68C186.847 97.68 190.167 95.08 190.167 90.2C190.167 85.32 186.847 82.72 182.967 82.72C179.127 82.72 175.767 85.32 175.767 90.2C175.767 95.08 179.127 97.68 182.967 97.68ZM220.43 108.12C208.39 108.08 202.91 104.48 203.27 95.48H214.11C214.19 97.48 215.87 98.64 220.43 98.72C224.35 98.76 226.03 97.72 226.03 96.52C226.03 95.88 225.87 94.76 222.83 94.36L218.43 93.68C212.11 92.68 204.03 92.24 204.03 83.2C204.03 76.44 209.43 72.28 220.55 72.28C230.47 72.28 237.39 74.84 237.11 84.84H226.31C225.95 82.88 224.23 81.68 220.27 81.68C216.87 81.68 215.63 82.64 215.63 83.84C215.63 84.4 215.91 85.52 218.19 85.88L221.71 86.44C228.47 87.56 238.07 87.44 238.07 97.04C238.07 104.56 232.31 108.16 220.43 108.12ZM256.758 108.12C244.718 108.08 239.238 104.48 239.598 95.48H250.438C250.518 97.48 252.198 98.64 256.758 98.72C260.678 98.76 262.358 97.72 262.358 96.52C262.358 95.88 262.198 94.76 259.158 94.36L254.758 93.68C248.438 92.68 240.358 92.24 240.358 83.2C240.358 76.44 245.758 72.28 256.878 72.28C266.798 72.28 273.718 74.84 273.438 84.84H262.638C262.278 82.88 260.558 81.68 256.598 81.68C253.198 81.68 251.958 82.64 251.958 83.84C251.958 84.4 252.238 85.52 254.518 85.88L258.038 86.44C264.798 87.56 274.398 87.44 274.398 97.04C274.398 104.56 268.638 108.16 256.758 108.12ZM294.904 108.12C283.184 108.12 275.704 101.04 275.704 90.2C275.704 79.36 283.184 72.28 294.904 72.28C306.664 72.28 314.144 79.36 314.144 90.2C314.144 101.04 306.664 108.12 294.904 108.12ZM294.904 97.68C298.784 97.68 302.104 95.08 302.104 90.2C302.104 85.32 298.784 82.72 294.904 82.72C291.064 82.72 287.704 85.32 287.704 90.2C287.704 95.08 291.064 97.68 294.904 97.68ZM332.368 108.12C320.327 108.08 314.848 104.48 315.207 95.48H326.048C326.128 97.48 327.808 98.64 332.368 98.72C336.288 98.76 337.968 97.72 337.968 96.52C337.968 95.88 337.808 94.76 334.768 94.36L330.368 93.68C324.048 92.68 315.968 92.24 315.968 83.2C315.968 76.44 321.368 72.28 332.488 72.28C342.407 72.28 349.328 74.84 349.048 84.84H338.248C337.888 82.88 336.168 81.68 332.208 81.68C328.808 81.68 327.568 82.64 327.568 83.84C327.568 84.4 327.848 85.52 330.128 85.88L333.648 86.44C340.408 87.56 350.008 87.44 350.008 97.04C350.008 104.56 344.248 108.16 332.368 108.12ZM378.774 108.12C366.734 108.08 361.254 104.48 361.614 95.48H372.454C372.534 97.48 374.214 98.64 378.774 98.72C382.694 98.76 384.374 97.72 384.374 96.52C384.374 95.88 384.214 94.76 381.174 94.36L376.774 93.68C370.454 92.68 362.374 92.24 362.374 83.2C362.374 76.44 367.774 72.28 378.894 72.28C388.814 72.28 395.734 74.84 395.454 84.84H384.654C384.294 82.88 382.574 81.68 378.614 81.68C375.214 81.68 373.974 82.64 373.974 83.84C373.974 84.4 374.254 85.52 376.534 85.88L380.054 86.44C386.814 87.56 396.414 87.44 396.414 97.04C396.414 104.56 390.654 108.16 378.774 108.12ZM398.32 107V73.4H429.24V83.04H410.4V86.32H428.52V94.08H410.4V97.32H429.24V107H398.32ZM467.683 107H455.803L451.562 98.76H443.963V107H431.882V73.4H451.642C461.082 73.4 466.443 77.32 466.443 86.52C466.443 90.92 464.523 94.12 461.843 96.12L467.683 107ZM443.963 83.44V89.76H450.763C453.162 89.76 454.323 88.56 454.323 86.6C454.323 84.64 453.162 83.44 450.763 83.44H443.963ZM478.381 107L466.261 73.4H478.741L486.221 95.64H487.501L494.981 73.4H507.501L495.341 107H478.381ZM508.898 107V73.4H520.978V107H508.898ZM542.057 97.68C545.497 97.68 547.857 96.04 548.617 92.48H560.137C559.257 103.68 551.617 107.64 543.577 108.08L543.257 108.32C545.497 108.48 548.017 109.84 548.017 112.96C548.017 117.28 543.057 118.92 537.297 117.76V113.32C540.617 114.04 541.737 113.4 541.737 113.16C541.737 112.8 540.617 111.88 537.297 112.68V109.96L539.897 108.04C529.657 107.2 523.017 100.36 523.017 90.2C523.017 79.36 530.577 72.28 542.057 72.28C550.497 72.28 559.217 76 560.137 87.84H548.617C547.857 84.36 545.497 82.72 542.057 82.72C538.177 82.72 535.017 85.56 535.017 90.2C535.017 94.8 538.177 97.68 542.057 97.68ZM581.311 108.12C569.591 108.12 562.111 101.04 562.111 90.2C562.111 79.36 569.591 72.28 581.311 72.28C593.071 72.28 600.551 79.36 600.551 90.2C600.551 101.04 593.071 108.12 581.311 108.12ZM581.311 97.68C585.191 97.68 588.511 95.08 588.511 90.2C588.511 85.32 585.191 82.72 581.311 82.72C577.471 82.72 574.111 85.32 574.111 90.2C574.111 95.08 577.471 97.68 581.311 97.68ZM618.774 108.12C606.734 108.08 601.254 104.48 601.614 95.48H612.454C612.534 97.48 614.214 98.64 618.774 98.72C622.694 98.76 624.374 97.72 624.374 96.52C624.374 95.88 624.214 94.76 621.174 94.36L616.774 93.68C610.454 92.68 602.374 92.24 602.374 83.2C602.374 76.44 607.774 72.28 618.894 72.28C628.814 72.28 635.734 74.84 635.454 84.84H624.654C624.294 82.88 622.574 81.68 618.614 81.68C615.214 81.68 613.974 82.64 613.974 83.84C613.974 84.4 614.254 85.52 616.534 85.88L620.054 86.44C626.814 87.56 636.414 87.44 636.414 97.04C636.414 104.56 630.654 108.16 618.774 108.12Z" fill="url(#paint2_linear_29_2612)"/>
<line x1="705.5" y1="108" x2="705.5" y2="40" stroke="#6064C9" stroke-opacity="0.32"/>
<path d="M844.198 70.32C842.091 70.32 840.411 69.6333 839.158 68.26C837.878 66.9 837.238 65.1067 837.238 62.88C837.238 60.6667 837.878 58.8667 839.158 57.48C840.411 56.12 842.091 55.44 844.198 55.44C846.278 55.44 847.958 56.12 849.238 57.48C850.504 58.8667 851.138 60.6667 851.138 62.88C851.138 65.0933 850.504 66.8867 849.238 68.26C847.958 69.6333 846.278 70.32 844.198 70.32ZM840.758 66.9C841.611 67.9 842.758 68.4 844.198 68.4C845.638 68.4 846.784 67.9 847.638 66.9C848.491 65.9267 848.918 64.5867 848.918 62.88C848.918 61.1733 848.491 59.8267 847.638 58.84C846.771 57.8533 845.624 57.36 844.198 57.36C842.771 57.36 841.624 57.8533 840.758 58.84C839.891 59.8533 839.458 61.2 839.458 62.88C839.458 64.5733 839.891 65.9133 840.758 66.9ZM856.635 70.26C853.769 70.26 852.262 69.08 852.115 66.72H854.115C854.195 67.44 854.429 67.9467 854.815 68.24C855.202 68.5333 855.815 68.68 856.655 68.68C858.175 68.68 858.935 68.2 858.935 67.24C858.935 66.8267 858.775 66.5067 858.455 66.28C858.135 66.0533 857.562 65.8667 856.735 65.72L855.675 65.52C853.489 65.12 852.395 64.0933 852.395 62.44C852.395 61.52 852.749 60.7933 853.455 60.26C854.162 59.7133 855.135 59.44 856.375 59.44C859.215 59.44 860.669 60.5933 860.735 62.9H858.795C858.755 62.2067 858.542 61.72 858.155 61.44C857.769 61.1467 857.175 61 856.375 61C855.735 61 855.242 61.12 854.895 61.36C854.549 61.6 854.375 61.94 854.375 62.38C854.375 62.78 854.529 63.0933 854.835 63.32C855.142 63.5333 855.629 63.7067 856.295 63.84L857.375 64.02C858.642 64.26 859.555 64.62 860.115 65.1C860.675 65.58 860.955 66.2467 860.955 67.1C860.955 68.1 860.575 68.88 859.815 69.44C859.055 69.9867 857.995 70.26 856.635 70.26ZM870.307 70.26C867.441 70.26 865.934 69.08 865.787 66.72H867.787C867.867 67.44 868.101 67.9467 868.487 68.24C868.874 68.5333 869.487 68.68 870.327 68.68C871.847 68.68 872.607 68.2 872.607 67.24C872.607 66.8267 872.447 66.5067 872.127 66.28C871.807 66.0533 871.234 65.8667 870.407 65.72L869.347 65.52C867.161 65.12 866.067 64.0933 866.067 62.44C866.067 61.52 866.421 60.7933 867.127 60.26C867.834 59.7133 868.807 59.44 870.047 59.44C872.887 59.44 874.341 60.5933 874.407 62.9H872.467C872.427 62.2067 872.214 61.72 871.827 61.44C871.441 61.1467 870.847 61 870.047 61C869.407 61 868.914 61.12 868.567 61.36C868.221 61.6 868.047 61.94 868.047 62.38C868.047 62.78 868.201 63.0933 868.507 63.32C868.814 63.5333 869.301 63.7067 869.967 63.84L871.047 64.02C872.314 64.26 873.227 64.62 873.787 65.1C874.347 65.58 874.627 66.2467 874.627 67.1C874.627 68.1 874.247 68.88 873.487 69.44C872.727 69.9867 871.667 70.26 870.307 70.26ZM885.436 64.92V65.5H877.656C877.749 66.5133 878.049 67.28 878.556 67.8C879.063 68.3067 879.749 68.56 880.616 68.56C881.923 68.56 882.776 67.9867 883.176 66.84H885.196C884.916 67.8933 884.369 68.7267 883.556 69.34C882.756 69.94 881.763 70.24 880.576 70.24C879.096 70.24 877.903 69.7467 876.996 68.76C876.089 67.7733 875.636 66.4667 875.636 64.84C875.636 63.2133 876.089 61.9067 876.996 60.92C877.903 59.9333 879.083 59.44 880.536 59.44C882.056 59.44 883.256 59.9533 884.136 60.98C885.003 62.0067 885.436 63.32 885.436 64.92ZM880.536 61.12C879.749 61.12 879.103 61.36 878.596 61.84C878.103 62.32 877.796 63.0133 877.676 63.92H883.376C883.283 63.08 882.983 62.4067 882.476 61.9C881.983 61.38 881.336 61.12 880.536 61.12ZM892.35 59.52C892.643 59.52 892.837 59.5267 892.93 59.54V61.44H892.43C891.403 61.44 890.61 61.6933 890.05 62.2C889.49 62.7067 889.21 63.44 889.21 64.4V70H887.21V59.68H889.13V61.52C889.783 60.1867 890.857 59.52 892.35 59.52ZM900.192 63.46L901.572 59.68H903.692L899.732 70H897.512L893.572 59.68H895.732L897.132 63.46C898.079 66.2733 898.586 67.8067 898.652 68.06C898.692 67.9267 898.779 67.66 898.912 67.26C899.046 66.86 899.232 66.3133 899.472 65.62C899.712 64.9133 899.952 64.1933 900.192 63.46ZM906.808 58.22H904.768V56.08H906.808V58.22ZM906.788 70H904.788V59.68H906.788V70ZM916.046 66.32H918.086C917.953 67.36 917.56 68.22 916.906 68.9C916.253 69.58 915.42 70 914.406 70.16L913.586 71.1H913.786C914.36 71.1 914.82 71.2467 915.166 71.54C915.513 71.8467 915.686 72.2267 915.686 72.68C915.686 73.28 915.446 73.7467 914.966 74.08C914.5 74.4267 913.793 74.6 912.846 74.6C912.393 74.6 911.966 74.56 911.566 74.48V73.5C911.94 73.5533 912.326 73.58 912.726 73.58C913.566 73.58 913.986 73.2867 913.986 72.7C913.986 72.1667 913.606 71.9 912.846 71.9C912.593 71.9 912.406 71.9067 912.286 71.92V71.16L913.026 70.22C911.693 70.1267 910.613 69.5867 909.786 68.6C908.96 67.6267 908.546 66.3733 908.546 64.84C908.546 63.2 909 61.8867 909.906 60.9C910.8 59.9267 911.986 59.44 913.466 59.44C914.733 59.44 915.773 59.7867 916.586 60.48C917.413 61.1733 917.906 62.1067 918.066 63.28H916.026C915.893 62.6 915.593 62.08 915.126 61.72C914.673 61.36 914.12 61.18 913.466 61.18C912.6 61.18 911.906 61.5 911.386 62.14C910.88 62.7667 910.626 63.6667 910.626 64.84C910.626 66.0133 910.88 66.92 911.386 67.56C911.906 68.1867 912.6 68.5 913.466 68.5C914.133 68.5 914.7 68.3133 915.166 67.94C915.633 67.5667 915.926 67.0267 916.046 66.32ZM928.011 68.76C927.064 69.7467 925.831 70.24 924.311 70.24C922.791 70.24 921.557 69.7467 920.611 68.76C919.664 67.7733 919.191 66.4667 919.191 64.84C919.191 63.2 919.664 61.8867 920.611 60.9C921.544 59.9267 922.777 59.44 924.311 59.44C925.844 59.44 927.077 59.9267 928.011 60.9C928.944 61.8733 929.411 63.1867 929.411 64.84C929.411 66.48 928.944 67.7867 928.011 68.76ZM922.091 67.54C922.637 68.1933 923.377 68.52 924.311 68.52C925.244 68.52 925.977 68.1933 926.511 67.54C927.057 66.8867 927.331 65.9867 927.331 64.84C927.331 63.6933 927.057 62.7933 926.511 62.14C925.977 61.4867 925.244 61.16 924.311 61.16C923.377 61.16 922.637 61.4867 922.091 62.14C921.544 62.7933 921.271 63.6933 921.271 64.84C921.271 65.9867 921.544 66.8867 922.091 67.54ZM934.838 70.26C931.972 70.26 930.465 69.08 930.318 66.72H932.318C932.398 67.44 932.632 67.9467 933.018 68.24C933.405 68.5333 934.018 68.68 934.858 68.68C936.378 68.68 937.138 68.2 937.138 67.24C937.138 66.8267 936.978 66.5067 936.658 66.28C936.338 66.0533 935.765 65.8667 934.938 65.72L933.878 65.52C931.692 65.12 930.598 64.0933 930.598 62.44C930.598 61.52 930.952 60.7933 931.658 60.26C932.365 59.7133 933.338 59.44 934.578 59.44C937.418 59.44 938.872 60.5933 938.938 62.9H936.998C936.958 62.2067 936.745 61.72 936.358 61.44C935.972 61.1467 935.378 61 934.578 61C933.938 61 933.445 61.12 933.098 61.36C932.752 61.6 932.578 61.94 932.578 62.38C932.578 62.78 932.732 63.0933 933.038 63.32C933.345 63.5333 933.832 63.7067 934.498 63.84L935.578 64.02C936.845 64.26 937.758 64.62 938.318 65.1C938.878 65.58 939.158 66.2467 939.158 67.1C939.158 68.1 938.778 68.88 938.018 69.44C937.258 69.9867 936.198 70.26 934.838 70.26ZM950.05 59.44C951.49 59.44 952.637 59.9267 953.49 60.9C954.344 61.8733 954.77 63.1867 954.77 64.84C954.77 66.48 954.344 67.7867 953.49 68.76C952.624 69.7467 951.477 70.24 950.05 70.24C948.584 70.24 947.464 69.68 946.69 68.56V73.92H944.69V59.68H946.61V61.24C947.384 60.04 948.53 59.44 950.05 59.44ZM947.47 67.54C948.004 68.1933 948.737 68.52 949.67 68.52C950.604 68.52 951.344 68.1867 951.89 67.52C952.424 66.8667 952.69 65.9467 952.69 64.76C952.69 63.6133 952.424 62.7267 951.89 62.1C951.357 61.4733 950.617 61.16 949.67 61.16C948.75 61.16 948.017 61.48 947.47 62.12C946.924 62.7867 946.65 63.6933 946.65 64.84C946.65 65.9867 946.924 66.8867 947.47 67.54ZM964.866 68.76C963.92 69.7467 962.686 70.24 961.166 70.24C959.646 70.24 958.413 69.7467 957.466 68.76C956.52 67.7733 956.046 66.4667 956.046 64.84C956.046 63.2 956.52 61.8867 957.466 60.9C958.4 59.9267 959.633 59.44 961.166 59.44C962.7 59.44 963.933 59.9267 964.866 60.9C965.8 61.8733 966.266 63.1867 966.266 64.84C966.266 66.48 965.8 67.7867 964.866 68.76ZM958.946 67.54C959.493 68.1933 960.233 68.52 961.166 68.52C962.1 68.52 962.833 68.1933 963.366 67.54C963.913 66.8867 964.186 65.9867 964.186 64.84C964.186 63.6933 963.913 62.7933 963.366 62.14C962.833 61.4867 962.1 61.16 961.166 61.16C960.233 61.16 959.493 61.4867 958.946 62.14C958.4 62.7933 958.126 63.6933 958.126 64.84C958.126 65.9867 958.4 66.8867 958.946 67.54ZM975.61 61.08V55.76H977.61V70H975.69V68.48C974.917 69.6533 973.777 70.24 972.27 70.24C970.83 70.24 969.683 69.7533 968.83 68.78C967.977 67.8067 967.55 66.4933 967.55 64.84C967.55 63.1867 967.977 61.8733 968.83 60.9C969.683 59.9267 970.83 59.44 972.27 59.44C973.723 59.44 974.837 59.9867 975.61 61.08ZM969.63 64.92C969.63 66.0667 969.903 66.9533 970.45 67.58C970.997 68.2067 971.73 68.52 972.65 68.52C973.597 68.52 974.337 68.1933 974.87 67.54C975.403 66.9133 975.67 66.0133 975.67 64.84C975.67 63.68 975.403 62.7733 974.87 62.12C974.337 61.48 973.597 61.16 972.65 61.16C971.73 61.16 970.997 61.4933 970.45 62.16C969.903 62.8267 969.63 63.7467 969.63 64.92ZM989.186 64.92V65.5H981.406C981.499 66.5133 981.799 67.28 982.306 67.8C982.813 68.3067 983.499 68.56 984.366 68.56C985.673 68.56 986.526 67.9867 986.926 66.84H988.946C988.666 67.8933 988.119 68.7267 987.306 69.34C986.506 69.94 985.513 70.24 984.326 70.24C982.846 70.24 981.653 69.7467 980.746 68.76C979.839 67.7733 979.386 66.4667 979.386 64.84C979.386 63.2133 979.839 61.9067 980.746 60.92C981.653 59.9333 982.833 59.44 984.286 59.44C985.806 59.44 987.006 59.9533 987.886 60.98C988.753 62.0067 989.186 63.32 989.186 64.92ZM984.286 61.12C983.499 61.12 982.853 61.36 982.346 61.84C981.853 62.32 981.546 63.0133 981.426 63.92H987.126C987.033 63.08 986.733 62.4067 986.226 61.9C985.733 61.38 985.086 61.12 984.286 61.12ZM1002.24 59.44C1003.36 59.44 1004.23 59.7733 1004.86 60.44C1005.49 61.0933 1005.8 61.9733 1005.8 63.08V70H1003.78V63.34C1003.78 61.9133 1003.12 61.2 1001.8 61.2C1001.09 61.2 1000.51 61.4733 1000.06 62.02C999.607 62.5533 999.38 63.3267 999.38 64.34V70H997.38V63.34C997.38 61.9133 996.713 61.2 995.38 61.2C994.673 61.2 994.093 61.4733 993.64 62.02C993.187 62.5667 992.96 63.34 992.96 64.34V70H990.96V59.68H992.88V61.22C993.587 60.0333 994.58 59.44 995.86 59.44C997.42 59.44 998.48 60.0867 999.04 61.38C999.773 60.0867 1000.84 59.44 1002.24 59.44ZM1015.89 70.26C1013.03 70.26 1011.52 69.08 1011.37 66.72H1013.37C1013.45 67.44 1013.69 67.9467 1014.07 68.24C1014.46 68.5333 1015.07 68.68 1015.91 68.68C1017.43 68.68 1018.19 68.2 1018.19 67.24C1018.19 66.8267 1018.03 66.5067 1017.71 66.28C1017.39 66.0533 1016.82 65.8667 1015.99 65.72L1014.93 65.52C1012.75 65.12 1011.65 64.0933 1011.65 62.44C1011.65 61.52 1012.01 60.7933 1012.71 60.26C1013.42 59.7133 1014.39 59.44 1015.63 59.44C1018.47 59.44 1019.93 60.5933 1019.99 62.9H1018.05C1018.01 62.2067 1017.8 61.72 1017.41 61.44C1017.03 61.1467 1016.43 61 1015.63 61C1014.99 61 1014.5 61.12 1014.15 61.36C1013.81 61.6 1013.63 61.94 1013.63 62.38C1013.63 62.78 1013.79 63.0933 1014.09 63.32C1014.4 63.5333 1014.89 63.7067 1015.55 63.84L1016.63 64.02C1017.9 64.26 1018.81 64.62 1019.37 65.1C1019.93 65.58 1020.21 66.2467 1020.21 67.1C1020.21 68.1 1019.83 68.88 1019.07 69.44C1018.31 69.9867 1017.25 70.26 1015.89 70.26ZM1031.02 64.92V65.5H1023.24C1023.34 66.5133 1023.64 67.28 1024.14 67.8C1024.65 68.3067 1025.34 68.56 1026.2 68.56C1027.51 68.56 1028.36 67.9867 1028.76 66.84H1030.78C1030.5 67.8933 1029.96 68.7267 1029.14 69.34C1028.34 69.94 1027.35 70.24 1026.16 70.24C1024.68 70.24 1023.49 69.7467 1022.58 68.76C1021.68 67.7733 1021.22 66.4667 1021.22 64.84C1021.22 63.2133 1021.68 61.9067 1022.58 60.92C1023.49 59.9333 1024.67 59.44 1026.12 59.44C1027.64 59.44 1028.84 59.9533 1029.72 60.98C1030.59 62.0067 1031.02 63.32 1031.02 64.92ZM1026.12 61.12C1025.34 61.12 1024.69 61.36 1024.18 61.84C1023.69 62.32 1023.38 63.0133 1023.26 63.92H1028.96C1028.87 63.08 1028.57 62.4067 1028.06 61.9C1027.57 61.38 1026.92 61.12 1026.12 61.12ZM1037.94 59.52C1038.23 59.52 1038.42 59.5267 1038.52 59.54V61.44H1038.02C1036.99 61.44 1036.2 61.6933 1035.64 62.2C1035.08 62.7067 1034.8 63.44 1034.8 64.4V70H1032.8V59.68H1034.72V61.52C1035.37 60.1867 1036.44 59.52 1037.94 59.52ZM795.224 94.24C793.757 94.24 792.571 93.7467 791.664 92.76C790.757 91.7733 790.304 90.4667 790.304 88.84C790.304 87.2 790.757 85.8867 791.664 84.9C792.557 83.9267 793.744 83.44 795.224 83.44C796.491 83.44 797.531 83.7867 798.344 84.48C799.171 85.1733 799.664 86.1067 799.824 87.28H797.784C797.651 86.6 797.351 86.08 796.884 85.72C796.431 85.36 795.877 85.18 795.224 85.18C794.357 85.18 793.664 85.5 793.144 86.14C792.637 86.7667 792.384 87.6667 792.384 88.84C792.384 90.0133 792.637 90.92 793.144 91.56C793.664 92.1867 794.357 92.5 795.224 92.5C795.891 92.5 796.457 92.3133 796.924 91.94C797.391 91.5667 797.684 91.0267 797.804 90.32H799.844C799.684 91.52 799.184 92.4733 798.344 93.18C797.504 93.8867 796.464 94.24 795.224 94.24ZM809.769 92.76C808.822 93.7467 807.589 94.24 806.069 94.24C804.549 94.24 803.315 93.7467 802.369 92.76C801.422 91.7733 800.949 90.4667 800.949 88.84C800.949 87.2 801.422 85.8867 802.369 84.9C803.302 83.9267 804.535 83.44 806.069 83.44C807.602 83.44 808.835 83.9267 809.769 84.9C810.702 85.8733 811.169 87.1867 811.169 88.84C811.169 90.48 810.702 91.7867 809.769 92.76ZM803.849 91.54C804.395 92.1933 805.135 92.52 806.069 92.52C807.002 92.52 807.735 92.1933 808.269 91.54C808.815 90.8867 809.089 89.9867 809.089 88.84C809.089 87.6933 808.815 86.7933 808.269 86.14C807.735 85.4867 807.002 85.16 806.069 85.16C805.135 85.16 804.395 85.4867 803.849 86.14C803.302 86.7933 803.029 87.6933 803.029 88.84C803.029 89.9867 803.302 90.8867 803.849 91.54ZM818.093 83.44C819.226 83.44 820.113 83.76 820.753 84.4C821.393 85.0267 821.713 85.92 821.713 87.08V94H819.713V87.36C819.713 85.92 818.986 85.2 817.533 85.2C816.866 85.2 816.266 85.4533 815.733 85.96C815.199 86.48 814.933 87.22 814.933 88.18V94H812.933V83.68H814.853V85.22C815.639 84.0333 816.719 83.44 818.093 83.44ZM828.497 83.68V85.32H826.417V91.52C826.417 91.8267 826.503 92.0533 826.677 92.2C826.863 92.3333 827.17 92.4 827.597 92.4H828.497V94C828.057 94.04 827.65 94.06 827.277 94.06C826.303 94.06 825.583 93.8733 825.117 93.5C824.65 93.1267 824.417 92.5267 824.417 91.7V85.32H822.757V83.68H824.417V80.72H826.417V83.68H828.497ZM835.24 83.52C835.534 83.52 835.727 83.5267 835.82 83.54V85.44H835.32C834.294 85.44 833.5 85.6933 832.94 86.2C832.38 86.7067 832.1 87.44 832.1 88.4V94H830.1V83.68H832.02V85.52C832.674 84.1867 833.747 83.52 835.24 83.52ZM845.484 92.46H846.044V94C845.751 94.04 845.424 94.06 845.064 94.06C844.424 94.06 843.944 93.9467 843.624 93.72C843.318 93.48 843.131 93.1067 843.064 92.6C842.371 93.6933 841.251 94.24 839.704 94.24C838.571 94.24 837.671 93.9733 837.004 93.44C836.351 92.8933 836.024 92.14 836.024 91.18C836.024 89.3133 837.318 88.2467 839.904 87.98L841.424 87.82C841.958 87.7533 842.344 87.62 842.584 87.42C842.838 87.2067 842.964 86.9067 842.964 86.52C842.964 86 842.798 85.6267 842.464 85.4C842.144 85.16 841.604 85.04 840.844 85.04C840.018 85.04 839.424 85.18 839.064 85.46C838.704 85.7267 838.498 86.2067 838.444 86.9H836.464C836.611 84.5933 838.071 83.44 840.844 83.44C843.564 83.44 844.924 84.4533 844.924 86.48V91.94C844.924 92.2867 845.111 92.46 845.484 92.46ZM840.004 92.68C840.858 92.68 841.564 92.44 842.124 91.96C842.684 91.48 842.964 90.8 842.964 89.92V88.84C842.711 89.0533 842.284 89.1933 841.684 89.26L840.244 89.42C839.471 89.5133 838.918 89.7 838.584 89.98C838.251 90.2467 838.084 90.6267 838.084 91.12C838.084 91.6133 838.244 92 838.564 92.28C838.898 92.5467 839.378 92.68 840.004 92.68ZM851.915 83.68V85.32H849.835V91.52C849.835 91.8267 849.921 92.0533 850.095 92.2C850.281 92.3333 850.588 92.4 851.015 92.4H851.915V94C851.475 94.04 851.068 94.06 850.695 94.06C849.721 94.06 849.001 93.8733 848.535 93.5C848.068 93.1267 847.835 92.5267 847.835 91.7V85.32H846.175V83.68H847.835V80.72H849.835V83.68H851.915ZM862.32 92.46H862.88V94C862.587 94.04 862.26 94.06 861.9 94.06C861.26 94.06 860.78 93.9467 860.46 93.72C860.154 93.48 859.967 93.1067 859.9 92.6C859.207 93.6933 858.087 94.24 856.54 94.24C855.407 94.24 854.507 93.9733 853.84 93.44C853.187 92.8933 852.86 92.14 852.86 91.18C852.86 89.3133 854.154 88.2467 856.74 87.98L858.26 87.82C858.794 87.7533 859.18 87.62 859.42 87.42C859.674 87.2067 859.8 86.9067 859.8 86.52C859.8 86 859.634 85.6267 859.3 85.4C858.98 85.16 858.44 85.04 857.68 85.04C856.854 85.04 856.26 85.18 855.9 85.46C855.54 85.7267 855.334 86.2067 855.28 86.9H853.3C853.447 84.5933 854.907 83.44 857.68 83.44C860.4 83.44 861.76 84.4533 861.76 86.48V91.94C861.76 92.2867 861.947 92.46 862.32 92.46ZM856.84 92.68C857.694 92.68 858.4 92.44 858.96 91.96C859.52 91.48 859.8 90.8 859.8 89.92V88.84C859.547 89.0533 859.12 89.1933 858.52 89.26L857.08 89.42C856.307 89.5133 855.754 89.7 855.42 89.98C855.087 90.2467 854.92 90.6267 854.92 91.12C854.92 91.6133 855.08 92 855.4 92.28C855.734 92.5467 856.214 92.68 856.84 92.68ZM871.684 85.08V79.76H873.684V94H871.764V92.48C870.991 93.6533 869.851 94.24 868.344 94.24C866.904 94.24 865.758 93.7533 864.904 92.78C864.051 91.8067 863.624 90.4933 863.624 88.84C863.624 87.1867 864.051 85.8733 864.904 84.9C865.758 83.9267 866.904 83.44 868.344 83.44C869.798 83.44 870.911 83.9867 871.684 85.08ZM865.704 88.92C865.704 90.0667 865.978 90.9533 866.524 91.58C867.071 92.2067 867.804 92.52 868.724 92.52C869.671 92.52 870.411 92.1933 870.944 91.54C871.478 90.9133 871.744 90.0133 871.744 88.84C871.744 87.68 871.478 86.7733 870.944 86.12C870.411 85.48 869.671 85.16 868.724 85.16C867.804 85.16 867.071 85.4933 866.524 86.16C865.978 86.8267 865.704 87.7467 865.704 88.92ZM884.28 92.76C883.334 93.7467 882.1 94.24 880.58 94.24C879.06 94.24 877.827 93.7467 876.88 92.76C875.934 91.7733 875.46 90.4667 875.46 88.84C875.46 87.2 875.934 85.8867 876.88 84.9C877.814 83.9267 879.047 83.44 880.58 83.44C882.114 83.44 883.347 83.9267 884.28 84.9C885.214 85.8733 885.68 87.1867 885.68 88.84C885.68 90.48 885.214 91.7867 884.28 92.76ZM878.36 91.54C878.907 92.1933 879.647 92.52 880.58 92.52C881.514 92.52 882.247 92.1933 882.78 91.54C883.327 90.8867 883.6 89.9867 883.6 88.84C883.6 87.6933 883.327 86.7933 882.78 86.14C882.247 85.4867 881.514 85.16 880.58 85.16C879.647 85.16 878.907 85.4867 878.36 86.14C877.814 86.7933 877.54 87.6933 877.54 88.84C877.54 89.9867 877.814 90.8867 878.36 91.54ZM891.108 94.26C888.241 94.26 886.735 93.08 886.588 90.72H888.588C888.668 91.44 888.901 91.9467 889.288 92.24C889.675 92.5333 890.288 92.68 891.128 92.68C892.648 92.68 893.408 92.2 893.408 91.24C893.408 90.8267 893.248 90.5067 892.928 90.28C892.608 90.0533 892.035 89.8667 891.208 89.72L890.148 89.52C887.961 89.12 886.868 88.0933 886.868 86.44C886.868 85.52 887.221 84.7933 887.928 84.26C888.635 83.7133 889.608 83.44 890.848 83.44C893.688 83.44 895.141 84.5933 895.208 86.9H893.268C893.228 86.2067 893.015 85.72 892.628 85.44C892.241 85.1467 891.648 85 890.848 85C890.208 85 889.715 85.12 889.368 85.36C889.021 85.6 888.848 85.94 888.848 86.38C888.848 86.78 889.001 87.0933 889.308 87.32C889.615 87.5333 890.101 87.7067 890.768 87.84L891.848 88.02C893.115 88.26 894.028 88.62 894.588 89.1C895.148 89.58 895.428 90.2467 895.428 91.1C895.428 92.1 895.048 92.88 894.288 93.44C893.528 93.9867 892.468 94.26 891.108 94.26ZM904.78 94.26C901.913 94.26 900.407 93.08 900.26 90.72H902.26C902.34 91.44 902.573 91.9467 902.96 92.24C903.347 92.5333 903.96 92.68 904.8 92.68C906.32 92.68 907.08 92.2 907.08 91.24C907.08 90.8267 906.92 90.5067 906.6 90.28C906.28 90.0533 905.707 89.8667 904.88 89.72L903.82 89.52C901.633 89.12 900.54 88.0933 900.54 86.44C900.54 85.52 900.893 84.7933 901.6 84.26C902.307 83.7133 903.28 83.44 904.52 83.44C907.36 83.44 908.813 84.5933 908.88 86.9H906.94C906.9 86.2067 906.687 85.72 906.3 85.44C905.913 85.1467 905.32 85 904.52 85C903.88 85 903.387 85.12 903.04 85.36C902.693 85.6 902.52 85.94 902.52 86.38C902.52 86.78 902.673 87.0933 902.98 87.32C903.287 87.5333 903.773 87.7067 904.44 87.84L905.52 88.02C906.787 88.26 907.7 88.62 908.26 89.1C908.82 89.58 909.1 90.2467 909.1 91.1C909.1 92.1 908.72 92.88 907.96 93.44C907.2 93.9867 906.14 94.26 904.78 94.26ZM919.909 88.92V89.5H912.129C912.222 90.5133 912.522 91.28 913.029 91.8C913.535 92.3067 914.222 92.56 915.089 92.56C916.395 92.56 917.249 91.9867 917.649 90.84H919.669C919.389 91.8933 918.842 92.7267 918.029 93.34C917.229 93.94 916.235 94.24 915.049 94.24C913.569 94.24 912.375 93.7467 911.469 92.76C910.562 91.7733 910.109 90.4667 910.109 88.84C910.109 87.2133 910.562 85.9067 911.469 84.92C912.375 83.9333 913.555 83.44 915.009 83.44C916.529 83.44 917.729 83.9533 918.609 84.98C919.475 86.0067 919.909 87.32 919.909 88.92ZM915.009 85.12C914.222 85.12 913.575 85.36 913.069 85.84C912.575 86.32 912.269 87.0133 912.149 87.92H917.849C917.755 87.08 917.455 86.4067 916.949 85.9C916.455 85.38 915.809 85.12 915.009 85.12ZM927.043 83.44C928.483 83.44 929.629 83.9267 930.483 84.9C931.336 85.8733 931.763 87.1867 931.763 88.84C931.763 90.48 931.336 91.7867 930.483 92.76C929.616 93.7467 928.469 94.24 927.043 94.24C925.576 94.24 924.456 93.68 923.683 92.56V97.92H921.683V83.68H923.603V85.24C924.376 84.04 925.523 83.44 927.043 83.44ZM924.463 91.54C924.996 92.1933 925.729 92.52 926.663 92.52C927.596 92.52 928.336 92.1867 928.883 91.52C929.416 90.8667 929.683 89.9467 929.683 88.76C929.683 87.6133 929.416 86.7267 928.883 86.1C928.349 85.4733 927.609 85.16 926.663 85.16C925.743 85.16 925.009 85.48 924.463 86.12C923.916 86.7867 923.643 87.6933 923.643 88.84C923.643 89.9867 923.916 90.8867 924.463 91.54ZM942.242 92.46H942.802V94C942.509 94.04 942.182 94.06 941.822 94.06C941.182 94.06 940.702 93.9467 940.382 93.72C940.076 93.48 939.889 93.1067 939.822 92.6C939.129 93.6933 938.009 94.24 936.462 94.24C935.329 94.24 934.429 93.9733 933.762 93.44C933.109 92.8933 932.782 92.14 932.782 91.18C932.782 89.3133 934.076 88.2467 936.662 87.98L938.182 87.82C938.716 87.7533 939.102 87.62 939.342 87.42C939.596 87.2067 939.722 86.9067 939.722 86.52C939.722 86 939.556 85.6267 939.222 85.4C938.902 85.16 938.362 85.04 937.602 85.04C936.776 85.04 936.182 85.18 935.822 85.46C935.462 85.7267 935.256 86.2067 935.202 86.9H933.222C933.369 84.5933 934.829 83.44 937.602 83.44C940.322 83.44 941.682 84.4533 941.682 86.48V91.94C941.682 92.2867 941.869 92.46 942.242 92.46ZM936.762 92.68C937.616 92.68 938.322 92.44 938.882 91.96C939.442 91.48 939.722 90.8 939.722 89.92V88.84C939.469 89.0533 939.042 89.1933 938.442 89.26L937.002 89.42C936.229 89.5133 935.676 89.7 935.342 89.98C935.009 90.2467 934.842 90.6267 934.842 91.12C934.842 91.6133 935.002 92 935.322 92.28C935.656 92.5467 936.136 92.68 936.762 92.68ZM949.264 83.52C949.557 83.52 949.751 83.5267 949.844 83.54V85.44H949.344C948.317 85.44 947.524 85.6933 946.964 86.2C946.404 86.7067 946.124 87.44 946.124 88.4V94H944.124V83.68H946.044V85.52C946.697 84.1867 947.771 83.52 949.264 83.52ZM959.508 92.46H960.068V94C959.774 94.04 959.448 94.06 959.088 94.06C958.448 94.06 957.968 93.9467 957.648 93.72C957.341 93.48 957.154 93.1067 957.088 92.6C956.394 93.6933 955.274 94.24 953.728 94.24C952.594 94.24 951.694 93.9733 951.028 93.44C950.374 92.8933 950.048 92.14 950.048 91.18C950.048 89.3133 951.341 88.2467 953.928 87.98L955.448 87.82C955.981 87.7533 956.368 87.62 956.608 87.42C956.861 87.2067 956.988 86.9067 956.988 86.52C956.988 86 956.821 85.6267 956.488 85.4C956.168 85.16 955.628 85.04 954.868 85.04C954.041 85.04 953.448 85.18 953.088 85.46C952.728 85.7267 952.521 86.2067 952.468 86.9H950.488C950.634 84.5933 952.094 83.44 954.868 83.44C957.588 83.44 958.948 84.4533 958.948 86.48V91.94C958.948 92.2867 959.134 92.46 959.508 92.46ZM954.028 92.68C954.881 92.68 955.588 92.44 956.148 91.96C956.708 91.48 956.988 90.8 956.988 89.92V88.84C956.734 89.0533 956.308 89.1933 955.708 89.26L954.268 89.42C953.494 89.5133 952.941 89.7 952.608 89.98C952.274 90.2467 952.108 90.6267 952.108 91.12C952.108 91.6133 952.268 92 952.588 92.28C952.921 92.5467 953.401 92.68 954.028 92.68ZM968.872 85.08V79.76H970.872V94H968.952V92.48C968.179 93.6533 967.039 94.24 965.532 94.24C964.092 94.24 962.945 93.7533 962.092 92.78C961.239 91.8067 960.812 90.4933 960.812 88.84C960.812 87.1867 961.239 85.8733 962.092 84.9C962.945 83.9267 964.092 83.44 965.532 83.44C966.985 83.44 968.099 83.9867 968.872 85.08ZM962.892 88.92C962.892 90.0667 963.165 90.9533 963.712 91.58C964.259 92.2067 964.992 92.52 965.912 92.52C966.859 92.52 967.599 92.1933 968.132 91.54C968.665 90.9133 968.932 90.0133 968.932 88.84C968.932 87.68 968.665 86.7733 968.132 86.12C967.599 85.48 966.859 85.16 965.912 85.16C964.992 85.16 964.259 85.4933 963.712 86.16C963.165 86.8267 962.892 87.7467 962.892 88.92ZM982.008 92.46H982.568V94C982.274 94.04 981.948 94.06 981.588 94.06C980.948 94.06 980.468 93.9467 980.148 93.72C979.841 93.48 979.654 93.1067 979.588 92.6C978.894 93.6933 977.774 94.24 976.228 94.24C975.094 94.24 974.194 93.9733 973.528 93.44C972.874 92.8933 972.548 92.14 972.548 91.18C972.548 89.3133 973.841 88.2467 976.428 87.98L977.948 87.82C978.481 87.7533 978.868 87.62 979.108 87.42C979.361 87.2067 979.488 86.9067 979.488 86.52C979.488 86 979.321 85.6267 978.988 85.4C978.668 85.16 978.128 85.04 977.368 85.04C976.541 85.04 975.948 85.18 975.588 85.46C975.228 85.7267 975.021 86.2067 974.968 86.9H972.988C973.134 84.5933 974.594 83.44 977.368 83.44C980.088 83.44 981.448 84.4533 981.448 86.48V91.94C981.448 92.2867 981.634 92.46 982.008 92.46ZM976.528 92.68C977.381 92.68 978.088 92.44 978.648 91.96C979.208 91.48 979.488 90.8 979.488 89.92V88.84C979.234 89.0533 978.808 89.1933 978.208 89.26L976.768 89.42C975.994 89.5133 975.441 89.7 975.108 89.98C974.774 90.2467 974.608 90.6267 974.608 91.12C974.608 91.6133 974.768 92 975.088 92.28C975.421 92.5467 975.901 92.68 976.528 92.68ZM995.17 83.44C996.29 83.44 997.163 83.7733 997.79 84.44C998.416 85.0933 998.73 85.9733 998.73 87.08V94H996.71V87.34C996.71 85.9133 996.05 85.2 994.73 85.2C994.023 85.2 993.443 85.4733 992.99 86.02C992.536 86.5533 992.31 87.3267 992.31 88.34V94H990.31V87.34C990.31 85.9133 989.643 85.2 988.31 85.2C987.603 85.2 987.023 85.4733 986.57 86.02C986.116 86.5667 985.89 87.34 985.89 88.34V94H983.89V83.68H985.81V85.22C986.516 84.0333 987.51 83.44 988.79 83.44C990.35 83.44 991.41 84.0867 991.97 85.38C992.703 84.0867 993.77 83.44 995.17 83.44ZM1010.28 88.92V89.5H1002.5C1002.59 90.5133 1002.89 91.28 1003.4 91.8C1003.91 92.3067 1004.59 92.56 1005.46 92.56C1006.77 92.56 1007.62 91.9867 1008.02 90.84H1010.04C1009.76 91.8933 1009.21 92.7267 1008.4 93.34C1007.6 93.94 1006.61 94.24 1005.42 94.24C1003.94 94.24 1002.75 93.7467 1001.84 92.76C1000.93 91.7733 1000.48 90.4667 1000.48 88.84C1000.48 87.2133 1000.93 85.9067 1001.84 84.92C1002.75 83.9333 1003.93 83.44 1005.38 83.44C1006.9 83.44 1008.1 83.9533 1008.98 84.98C1009.85 86.0067 1010.28 87.32 1010.28 88.92ZM1005.38 85.12C1004.59 85.12 1003.95 85.36 1003.44 85.84C1002.95 86.32 1002.64 87.0133 1002.52 87.92H1008.22C1008.13 87.08 1007.83 86.4067 1007.32 85.9C1006.83 85.38 1006.18 85.12 1005.38 85.12ZM1017.21 83.44C1018.35 83.44 1019.23 83.76 1019.87 84.4C1020.51 85.0267 1020.83 85.92 1020.83 87.08V94H1018.83V87.36C1018.83 85.92 1018.11 85.2 1016.65 85.2C1015.99 85.2 1015.39 85.4533 1014.85 85.96C1014.32 86.48 1014.05 87.22 1014.05 88.18V94H1012.05V83.68H1013.97V85.22C1014.76 84.0333 1015.84 83.44 1017.21 83.44ZM1027.62 83.68V85.32H1025.54V91.52C1025.54 91.8267 1025.62 92.0533 1025.8 92.2C1025.98 92.3333 1026.29 92.4 1026.72 92.4H1027.62V94C1027.18 94.04 1026.77 94.06 1026.4 94.06C1025.42 94.06 1024.7 93.8733 1024.24 93.5C1023.77 93.1267 1023.54 92.5267 1023.54 91.7V85.32H1021.88V83.68H1023.54V80.72H1025.54V83.68H1027.62ZM1038.35 88.92V89.5H1030.57C1030.66 90.5133 1030.96 91.28 1031.47 91.8C1031.97 92.3067 1032.66 92.56 1033.53 92.56C1034.83 92.56 1035.69 91.9867 1036.09 90.84H1038.11C1037.83 91.8933 1037.28 92.7267 1036.47 93.34C1035.67 93.94 1034.67 94.24 1033.49 94.24C1032.01 94.24 1030.81 93.7467 1029.91 92.76C1029 91.7733 1028.55 90.4667 1028.55 88.84C1028.55 87.2133 1029 85.9067 1029.91 84.92C1030.81 83.9333 1031.99 83.44 1033.45 83.44C1034.97 83.44 1036.17 83.9533 1037.05 84.98C1037.91 86.0067 1038.35 87.32 1038.35 88.92ZM1033.45 85.12C1032.66 85.12 1032.01 85.36 1031.51 85.84C1031.01 86.32 1030.71 87.0133 1030.59 87.92H1036.29C1036.19 87.08 1035.89 86.4067 1035.39 85.9C1034.89 85.38 1034.25 85.12 1033.45 85.12Z" fill="#9A9EED"/>
<rect x="1059" y="54" width="40" height="40" rx="10" fill="#333693"/>
<path fill-rule="evenodd" clip-rule="evenodd" d="M1069.96 72.4595C1070.35 72.069 1070.98 72.069 1071.37 72.4595L1079 80.0857L1086.63 72.4595C1087.02 72.069 1087.65 72.069 1088.04 72.4595C1088.43 72.85 1088.43 73.4832 1088.04 73.8737L1079.71 82.207C1079.32 82.5976 1078.68 82.5976 1078.29 82.207L1069.96 73.8737C1069.57 73.4832 1069.57 72.85 1069.96 72.4595Z" fill="#9A9EED"/>
<path fill-rule="evenodd" clip-rule="evenodd" d="M1069.96 65.7929C1070.35 65.4024 1070.98 65.4024 1071.37 65.7929L1079 73.4191L1086.63 65.7929C1087.02 65.4024 1087.65 65.4024 1088.04 65.7929C1088.43 66.1834 1088.43 66.8166 1088.04 67.2071L1079.71 75.5404C1079.32 75.9309 1078.68 75.9309 1078.29 75.5404L1069.96 67.2071C1069.57 66.8166 1069.57 66.1834 1069.96 65.7929Z" fill="#DEA1FF"/>
<defs>
<linearGradient id="paint0_linear_29_2612" x1="0" y1="74" x2="1139" y2="74" gradientUnits="userSpaceOnUse">
<stop stop-color="#333693"/>
<stop offset="1" stop-color="#181946"/>
</linearGradient>
<linearGradient id="paint1_linear_29_2612" x1="104" y1="42" x2="40" y2="106" gradientUnits="userSpaceOnUse">
<stop stop-color="#7500CD"/>
<stop offset="0.5" stop-color="#413393"/>
<stop offset="1" stop-color="#333693"/>
</linearGradient>
<linearGradient id="paint2_linear_29_2612" x1="658" y1="84" x2="124" y2="84" gradientUnits="userSpaceOnUse">
<stop stop-color="#9A9EED"/>
<stop offset="1" stop-color="#575AC0"/>
</linearGradient>
</defs>
</svg>
