<svg width="358" height="148" viewBox="0 0 358 148" fill="none" xmlns="http://www.w3.org/2000/svg">
<rect x="0.5" y="0.5" width="357" height="147" rx="19.5" fill="#010224"/>
<rect x="0.5" y="0.5" width="357" height="147" rx="19.5" stroke="url(#paint0_linear_29_2933)"/>
<rect x="17.5938" y="19.5938" width="52.8125" height="52.8125" rx="10.1562" fill="url(#paint1_linear_29_2933)"/>
<rect x="17.5938" y="19.5938" width="52.8125" height="52.8125" rx="10.1562" stroke="#6064C9" stroke-width="0.8125"/>
<g clip-path="url(#clip0_29_2933)">
<path d="M36.2812 34.625C33.8125 34.625 31.8125 36.625 31.8125 39.0938V52.0938C31.8125 54.5625 33.8125 56.5625 36.2812 56.5625H51.7188C54.1875 56.5625 56.1875 54.5625 56.1875 52.0938V39.0938C56.1875 36.625 54.1875 34.625 51.7188 34.625H36.2812Z" fill="#CBCDF6" fill-opacity="0.4"/>
<path fill-rule="evenodd" clip-rule="evenodd" d="M48.4688 43.1562C49.1418 43.1562 49.6875 43.7019 49.6875 44.375V49.25C49.6875 49.9231 49.1418 50.4688 48.4688 50.4688C47.7957 50.4688 47.25 49.9231 47.25 49.25V44.375C47.25 43.7019 47.7957 43.1562 48.4688 43.1562Z" fill="#CBCDF6"/>
<path fill-rule="evenodd" clip-rule="evenodd" d="M39.5312 45.5938C40.2043 45.5938 40.75 46.1394 40.75 46.8125V49.25C40.75 49.9231 40.2043 50.4688 39.5312 50.4688C38.8582 50.4688 38.3125 49.9231 38.3125 49.25V46.8125C38.3125 46.1394 38.8582 45.5938 39.5312 45.5938Z" fill="#CBCDF6"/>
<path fill-rule="evenodd" clip-rule="evenodd" d="M44 40.7188C44.6731 40.7188 45.2188 41.2644 45.2188 41.9375V49.25C45.2188 49.9231 44.6731 50.4688 44 50.4688C43.3269 50.4688 42.7812 49.9231 42.7812 49.25V41.9375C42.7812 41.2644 43.3269 40.7188 44 40.7188Z" fill="#CBCDF6"/>
<path fill-rule="evenodd" clip-rule="evenodd" d="M29.375 55.3438C29.375 54.6707 29.9207 54.125 30.5938 54.125H57.4062C58.0793 54.125 58.625 54.6707 58.625 55.3438C58.625 56.0168 58.0793 56.5625 57.4062 56.5625H30.5938C29.9207 56.5625 29.375 56.0168 29.375 55.3438Z" fill="#CBCDF6"/>
</g>
<path d="M87.6933 41.3267C84.52 41.3267 82.3267 39.18 82.3267 36.1C82.3267 33.02 84.52 30.8733 87.6933 30.8733C89.84 30.8733 92.045 31.83 92.5233 34.7117H90.295C89.875 33.4517 88.9067 32.8917 87.6933 32.8917C85.955 32.8917 84.625 34.21 84.625 36.1C84.625 37.9783 85.955 39.3083 87.6933 39.3083C88.9067 39.3083 89.875 38.7483 90.295 37.4767H92.5233C92.045 40.37 89.8633 41.3267 87.6933 41.3267ZM102.601 41.3267C99.4048 41.3267 97.2232 39.18 97.2232 36.1C97.2232 33.02 99.4048 30.8733 102.601 30.8733C105.81 30.8733 107.991 33.02 107.991 36.1C107.991 39.18 105.81 41.3267 102.601 41.3267ZM102.601 39.3083C104.351 39.3083 105.681 38.025 105.681 36.1C105.681 34.175 104.351 32.8917 102.601 32.8917C100.863 32.8917 99.5215 34.175 99.5215 36.1C99.5215 38.025 100.863 39.3083 102.601 39.3083ZM112.814 41V31.2H115.509L120.059 37.7917H120.281V31.2H122.556V41H119.908L115.299 34.4083H115.089V41H112.814ZM134.733 31.2H137.067V41H134.733V37.0683H129.868V41H127.547V31.2H129.868V35.1317H134.733V31.2ZM142.06 41V31.2H150.309V33.1017H144.382V35.2483H150.099V36.9283H144.382V39.0867H150.309V41H142.06ZM160.385 39.3083C161.598 39.3083 162.566 38.7483 162.986 37.4767H165.215C164.76 40.2067 162.788 41.21 160.746 41.315L160.583 41.455C161.213 41.5017 161.866 41.8983 161.866 42.7383C161.866 43.9167 160.56 44.325 159.183 44.0567V43.0417C160.081 43.2167 160.478 42.995 160.478 42.7617C160.478 42.505 160.081 42.225 159.183 42.4817V41.77L159.731 41.2917C156.92 41.0233 155.018 38.97 155.018 36.1C155.018 33.02 157.211 30.8733 160.385 30.8733C162.531 30.8733 164.736 31.83 165.215 34.7117H162.986C162.566 33.4517 161.598 32.8917 160.385 32.8917C158.646 32.8917 157.316 34.21 157.316 36.1C157.316 37.9783 158.646 39.3083 160.385 39.3083ZM177.53 41L176.923 39.355H172.093L171.487 41H169.083L172.875 31.2H176.142L179.945 41H177.53ZM172.747 37.5933H176.27L174.73 33.405H174.287L172.747 37.5933Z" fill="#CBCDF6"/>
<path d="M82.66 64V47.2H89.58L94.42 55.54H94.98V47.2H100.88V64H94.1L89.1 55.66H88.56V64H82.66ZM111.483 64.56C105.623 64.56 101.883 61.02 101.883 55.6C101.883 50.18 105.623 46.64 111.483 46.64C117.363 46.64 121.103 50.18 121.103 55.6C121.103 61.02 117.363 64.56 111.483 64.56ZM111.483 59.34C113.423 59.34 115.083 58.04 115.083 55.6C115.083 53.16 113.423 51.86 111.483 51.86C109.563 51.86 107.883 53.16 107.883 55.6C107.883 58.04 109.563 59.34 111.483 59.34ZM130.215 64.56C124.195 64.54 121.455 62.74 121.635 58.24H127.055C127.095 59.24 127.935 59.82 130.215 59.86C132.175 59.88 133.015 59.36 133.015 58.76C133.015 58.44 132.935 57.88 131.415 57.68L129.215 57.34C126.055 56.84 122.015 56.62 122.015 52.1C122.015 48.72 124.715 46.64 130.275 46.64C135.235 46.64 138.695 47.92 138.555 52.92H133.155C132.975 51.94 132.115 51.34 130.135 51.34C128.435 51.34 127.815 51.82 127.815 52.42C127.815 52.7 127.955 53.26 129.095 53.44L130.855 53.72C134.235 54.28 139.035 54.22 139.035 59.02C139.035 62.78 136.155 64.58 130.215 64.56ZM148.379 64.56C142.359 64.54 139.619 62.74 139.799 58.24H145.219C145.259 59.24 146.099 59.82 148.379 59.86C150.339 59.88 151.179 59.36 151.179 58.76C151.179 58.44 151.099 57.88 149.579 57.68L147.379 57.34C144.219 56.84 140.179 56.62 140.179 52.1C140.179 48.72 142.879 46.64 148.439 46.64C153.399 46.64 156.859 47.92 156.719 52.92H151.319C151.139 51.94 150.279 51.34 148.299 51.34C146.599 51.34 145.979 51.82 145.979 52.42C145.979 52.7 146.119 53.26 147.259 53.44L149.019 53.72C152.399 54.28 157.199 54.22 157.199 59.02C157.199 62.78 154.319 64.58 148.379 64.56ZM167.452 64.56C161.592 64.56 157.852 61.02 157.852 55.6C157.852 50.18 161.592 46.64 167.452 46.64C173.332 46.64 177.072 50.18 177.072 55.6C177.072 61.02 173.332 64.56 167.452 64.56ZM167.452 59.34C169.392 59.34 171.052 58.04 171.052 55.6C171.052 53.16 169.392 51.86 167.452 51.86C165.532 51.86 163.852 53.16 163.852 55.6C163.852 58.04 165.532 59.34 167.452 59.34ZM186.184 64.56C180.164 64.54 177.424 62.74 177.604 58.24H183.024C183.064 59.24 183.904 59.82 186.184 59.86C188.144 59.88 188.984 59.36 188.984 58.76C188.984 58.44 188.904 57.88 187.384 57.68L185.184 57.34C182.024 56.84 177.984 56.62 177.984 52.1C177.984 48.72 180.684 46.64 186.244 46.64C191.204 46.64 194.664 47.92 194.524 52.92H189.124C188.944 51.94 188.084 51.34 186.104 51.34C184.404 51.34 183.784 51.82 183.784 52.42C183.784 52.7 183.924 53.26 185.064 53.44L186.824 53.72C190.204 54.28 195.004 54.22 195.004 59.02C195.004 62.78 192.124 64.58 186.184 64.56ZM209.387 64.56C203.367 64.54 200.627 62.74 200.807 58.24H206.227C206.267 59.24 207.107 59.82 209.387 59.86C211.347 59.88 212.187 59.36 212.187 58.76C212.187 58.44 212.107 57.88 210.587 57.68L208.387 57.34C205.227 56.84 201.187 56.62 201.187 52.1C201.187 48.72 203.887 46.64 209.447 46.64C214.407 46.64 217.867 47.92 217.727 52.92H212.327C212.147 51.94 211.287 51.34 209.307 51.34C207.607 51.34 206.987 51.82 206.987 52.42C206.987 52.7 207.127 53.26 208.267 53.44L210.027 53.72C213.407 54.28 218.207 54.22 218.207 59.02C218.207 62.78 215.327 64.58 209.387 64.56ZM219.16 64V47.2H234.62V52.02H225.2V53.66H234.26V57.54H225.2V59.16H234.62V64H219.16ZM253.841 64H247.901L245.781 59.88H241.981V64H235.941V47.2H245.821C250.541 47.2 253.221 49.16 253.221 53.76C253.221 55.96 252.261 57.56 250.921 58.56L253.841 64ZM241.981 52.22V55.38H245.381C246.581 55.38 247.161 54.78 247.161 53.8C247.161 52.82 246.581 52.22 245.381 52.22H241.981ZM259.19 64L253.13 47.2H259.37L263.11 58.32H263.75L267.49 47.2H273.75L267.67 64H259.19ZM274.449 64V47.2H280.489V64H274.449ZM291.028 59.34C292.748 59.34 293.928 58.52 294.308 56.74H300.068C299.628 62.34 295.808 64.32 291.788 64.54L291.628 64.66C292.748 64.74 294.008 65.42 294.008 66.98C294.008 69.14 291.528 69.96 288.648 69.38V67.16C290.308 67.52 290.868 67.2 290.868 67.08C290.868 66.9 290.308 66.44 288.648 66.84V65.48L289.948 64.52C284.828 64.1 281.508 60.68 281.508 55.6C281.508 50.18 285.288 46.64 291.028 46.64C295.248 46.64 299.608 48.5 300.068 54.42H294.308C293.928 52.68 292.748 51.86 291.028 51.86C289.088 51.86 287.508 53.28 287.508 55.6C287.508 57.9 289.088 59.34 291.028 59.34ZM310.655 64.56C304.795 64.56 301.055 61.02 301.055 55.6C301.055 50.18 304.795 46.64 310.655 46.64C316.535 46.64 320.275 50.18 320.275 55.6C320.275 61.02 316.535 64.56 310.655 64.56ZM310.655 59.34C312.595 59.34 314.255 58.04 314.255 55.6C314.255 53.16 312.595 51.86 310.655 51.86C308.735 51.86 307.055 53.16 307.055 55.6C307.055 58.04 308.735 59.34 310.655 59.34ZM329.387 64.56C323.367 64.54 320.627 62.74 320.807 58.24H326.227C326.267 59.24 327.107 59.82 329.387 59.86C331.347 59.88 332.187 59.36 332.187 58.76C332.187 58.44 332.107 57.88 330.587 57.68L328.387 57.34C325.227 56.84 321.187 56.62 321.187 52.1C321.187 48.72 323.887 46.64 329.447 46.64C334.407 46.64 337.867 47.92 337.727 52.92H332.327C332.147 51.94 331.287 51.34 329.307 51.34C327.607 51.34 326.987 51.82 326.987 52.42C326.987 52.7 327.127 53.26 328.267 53.44L330.027 53.72C333.407 54.28 338.207 54.22 338.207 59.02C338.207 62.78 335.327 64.58 329.387 64.56Z" fill="url(#paint2_linear_29_2933)"/>
<line x1="20" y1="83.5" x2="338" y2="83.5" stroke="#6064C9" stroke-opacity="0.3"/>
<path d="M25.32 109.224C23.8453 109.224 22.6693 108.743 21.792 107.782C20.896 106.83 20.448 105.575 20.448 104.016C20.448 102.467 20.896 101.207 21.792 100.236C22.6693 99.284 23.8453 98.808 25.32 98.808C26.776 98.808 27.952 99.284 28.848 100.236C29.7347 101.207 30.178 102.467 30.178 104.016C30.178 105.565 29.7347 106.821 28.848 107.782C27.952 108.743 26.776 109.224 25.32 109.224ZM22.912 106.83C23.5093 107.53 24.312 107.88 25.32 107.88C26.328 107.88 27.1307 107.53 27.728 106.83C28.3253 106.149 28.624 105.211 28.624 104.016C28.624 102.821 28.3253 101.879 27.728 101.188C27.1213 100.497 26.3187 100.152 25.32 100.152C24.3213 100.152 23.5187 100.497 22.912 101.188C22.3053 101.897 22.002 102.84 22.002 104.016C22.002 105.201 22.3053 106.139 22.912 106.83ZM34.0264 109.182C32.0197 109.182 30.965 108.356 30.8624 106.704H32.2624C32.3184 107.208 32.4817 107.563 32.7524 107.768C33.023 107.973 33.4524 108.076 34.0404 108.076C35.1044 108.076 35.6364 107.74 35.6364 107.068C35.6364 106.779 35.5244 106.555 35.3004 106.396C35.0764 106.237 34.675 106.107 34.0964 106.004L33.3544 105.864C31.8237 105.584 31.0584 104.865 31.0584 103.708C31.0584 103.064 31.3057 102.555 31.8004 102.182C32.295 101.799 32.9764 101.608 33.8444 101.608C35.8324 101.608 36.8497 102.415 36.8964 104.03H35.5384C35.5104 103.545 35.361 103.204 35.0904 103.008C34.8197 102.803 34.4044 102.7 33.8444 102.7C33.3964 102.7 33.051 102.784 32.8084 102.952C32.5657 103.12 32.4444 103.358 32.4444 103.666C32.4444 103.946 32.5517 104.165 32.7664 104.324C32.981 104.473 33.3217 104.595 33.7884 104.688L34.5444 104.814C35.431 104.982 36.0704 105.234 36.4624 105.57C36.8544 105.906 37.0504 106.373 37.0504 106.97C37.0504 107.67 36.7844 108.216 36.2524 108.608C35.7204 108.991 34.9784 109.182 34.0264 109.182ZM43.5967 109.182C41.59 109.182 40.5353 108.356 40.4327 106.704H41.8327C41.8887 107.208 42.052 107.563 42.3227 107.768C42.5933 107.973 43.0227 108.076 43.6107 108.076C44.6747 108.076 45.2067 107.74 45.2067 107.068C45.2067 106.779 45.0947 106.555 44.8707 106.396C44.6467 106.237 44.2453 106.107 43.6667 106.004L42.9247 105.864C41.394 105.584 40.6287 104.865 40.6287 103.708C40.6287 103.064 40.876 102.555 41.3707 102.182C41.8653 101.799 42.5467 101.608 43.4147 101.608C45.4027 101.608 46.42 102.415 46.4667 104.03H45.1087C45.0807 103.545 44.9313 103.204 44.6607 103.008C44.39 102.803 43.9747 102.7 43.4147 102.7C42.9667 102.7 42.6213 102.784 42.3787 102.952C42.136 103.12 42.0147 103.358 42.0147 103.666C42.0147 103.946 42.122 104.165 42.3367 104.324C42.5513 104.473 42.892 104.595 43.3587 104.688L44.1147 104.814C45.0013 104.982 45.6407 105.234 46.0327 105.57C46.4247 105.906 46.6207 106.373 46.6207 106.97C46.6207 107.67 46.3547 108.216 45.8227 108.608C45.2907 108.991 44.5487 109.182 43.5967 109.182ZM54.1869 105.444V105.85H48.7409C48.8062 106.559 49.0162 107.096 49.3709 107.46C49.7256 107.815 50.2062 107.992 50.8129 107.992C51.7276 107.992 52.3249 107.591 52.6049 106.788H54.0189C53.8229 107.525 53.4402 108.109 52.8709 108.538C52.3109 108.958 51.6156 109.168 50.7849 109.168C49.7489 109.168 48.9136 108.823 48.2789 108.132C47.6442 107.441 47.3269 106.527 47.3269 105.388C47.3269 104.249 47.6442 103.335 48.2789 102.644C48.9136 101.953 49.7396 101.608 50.7569 101.608C51.8209 101.608 52.6609 101.967 53.2769 102.686C53.8836 103.405 54.1869 104.324 54.1869 105.444ZM50.7569 102.784C50.2062 102.784 49.7536 102.952 49.3989 103.288C49.0536 103.624 48.8389 104.109 48.7549 104.744H52.7449C52.6796 104.156 52.4696 103.685 52.1149 103.33C51.7696 102.966 51.3169 102.784 50.7569 102.784ZM59.0265 101.664C59.2319 101.664 59.3672 101.669 59.4325 101.678V103.008H59.0825C58.3639 103.008 57.8085 103.185 57.4165 103.54C57.0245 103.895 56.8285 104.408 56.8285 105.08V109H55.4285V101.776H56.7725V103.064C57.2299 102.131 57.9812 101.664 59.0265 101.664ZM64.5162 104.422L65.4822 101.776H66.9662L64.1942 109H62.6402L59.8822 101.776H61.3942L62.3742 104.422C63.0368 106.391 63.3915 107.465 63.4382 107.642C63.4662 107.549 63.5268 107.362 63.6202 107.082C63.7135 106.802 63.8442 106.419 64.0122 105.934C64.1802 105.439 64.3482 104.935 64.5162 104.422ZM69.1472 100.754H67.7192V99.256H69.1472V100.754ZM69.1332 109H67.7332V101.776H69.1332V109ZM75.614 106.424H77.042C76.9487 107.152 76.6733 107.754 76.216 108.23C75.7587 108.706 75.1753 109 74.466 109.112L73.892 109.77H74.032C74.4333 109.77 74.7553 109.873 74.998 110.078C75.2407 110.293 75.362 110.559 75.362 110.876C75.362 111.296 75.194 111.623 74.858 111.856C74.5313 112.099 74.0367 112.22 73.374 112.22C73.0567 112.22 72.758 112.192 72.478 112.136V111.45C72.7393 111.487 73.01 111.506 73.29 111.506C73.878 111.506 74.172 111.301 74.172 110.89C74.172 110.517 73.906 110.33 73.374 110.33C73.1967 110.33 73.066 110.335 72.982 110.344V109.812L73.5 109.154C72.5667 109.089 71.8107 108.711 71.232 108.02C70.6533 107.339 70.364 106.461 70.364 105.388C70.364 104.24 70.6813 103.321 71.316 102.63C71.9413 101.949 72.772 101.608 73.808 101.608C74.6947 101.608 75.4227 101.851 75.992 102.336C76.5707 102.821 76.916 103.475 77.028 104.296H75.6C75.5067 103.82 75.2967 103.456 74.97 103.204C74.6527 102.952 74.2653 102.826 73.808 102.826C73.2013 102.826 72.716 103.05 72.352 103.498C71.9973 103.937 71.82 104.567 71.82 105.388C71.82 106.209 71.9973 106.844 72.352 107.292C72.716 107.731 73.2013 107.95 73.808 107.95C74.2747 107.95 74.6713 107.819 74.998 107.558C75.3247 107.297 75.53 106.919 75.614 106.424ZM83.9892 108.132C83.3265 108.823 82.4632 109.168 81.3992 109.168C80.3352 109.168 79.4719 108.823 78.8092 108.132C78.1465 107.441 77.8152 106.527 77.8152 105.388C77.8152 104.24 78.1465 103.321 78.8092 102.63C79.4625 101.949 80.3259 101.608 81.3992 101.608C82.4725 101.608 83.3359 101.949 83.9892 102.63C84.6425 103.311 84.9692 104.231 84.9692 105.388C84.9692 106.536 84.6425 107.451 83.9892 108.132ZM79.8452 107.278C80.2279 107.735 80.7459 107.964 81.3992 107.964C82.0525 107.964 82.5659 107.735 82.9392 107.278C83.3219 106.821 83.5132 106.191 83.5132 105.388C83.5132 104.585 83.3219 103.955 82.9392 103.498C82.5659 103.041 82.0525 102.812 81.3992 102.812C80.7459 102.812 80.2279 103.041 79.8452 103.498C79.4625 103.955 79.2712 104.585 79.2712 105.388C79.2712 106.191 79.4625 106.821 79.8452 107.278ZM88.7685 109.182C86.7619 109.182 85.7072 108.356 85.6045 106.704H87.0045C87.0605 107.208 87.2239 107.563 87.4945 107.768C87.7652 107.973 88.1945 108.076 88.7825 108.076C89.8465 108.076 90.3785 107.74 90.3785 107.068C90.3785 106.779 90.2665 106.555 90.0425 106.396C89.8185 106.237 89.4172 106.107 88.8385 106.004L88.0965 105.864C86.5659 105.584 85.8005 104.865 85.8005 103.708C85.8005 103.064 86.0479 102.555 86.5425 102.182C87.0372 101.799 87.7185 101.608 88.5865 101.608C90.5745 101.608 91.5919 102.415 91.6385 104.03H90.2805C90.2525 103.545 90.1032 103.204 89.8325 103.008C89.5619 102.803 89.1465 102.7 88.5865 102.7C88.1385 102.7 87.7932 102.784 87.5505 102.952C87.3079 103.12 87.1865 103.358 87.1865 103.666C87.1865 103.946 87.2939 104.165 87.5085 104.324C87.7232 104.473 88.0639 104.595 88.5305 104.688L89.2865 104.814C90.1732 104.982 90.8125 105.234 91.2045 105.57C91.5965 105.906 91.7925 106.373 91.7925 106.97C91.7925 107.67 91.5265 108.216 90.9945 108.608C90.4625 108.991 89.7205 109.182 88.7685 109.182ZM99.4169 101.608C100.425 101.608 101.228 101.949 101.825 102.63C102.422 103.311 102.721 104.231 102.721 105.388C102.721 106.536 102.422 107.451 101.825 108.132C101.218 108.823 100.416 109.168 99.4169 109.168C98.3902 109.168 97.6062 108.776 97.0649 107.992V111.744H95.6649V101.776H97.0089V102.868C97.5502 102.028 98.3529 101.608 99.4169 101.608ZM97.6109 107.278C97.9842 107.735 98.4975 107.964 99.1509 107.964C99.8042 107.964 100.322 107.731 100.705 107.264C101.078 106.807 101.265 106.163 101.265 105.332C101.265 104.529 101.078 103.909 100.705 103.47C100.332 103.031 99.8135 102.812 99.1509 102.812C98.5069 102.812 97.9935 103.036 97.6109 103.484C97.2282 103.951 97.0369 104.585 97.0369 105.388C97.0369 106.191 97.2282 106.821 97.6109 107.278ZM109.788 108.132C109.125 108.823 108.262 109.168 107.198 109.168C106.134 109.168 105.271 108.823 104.608 108.132C103.945 107.441 103.614 106.527 103.614 105.388C103.614 104.24 103.945 103.321 104.608 102.63C105.261 101.949 106.125 101.608 107.198 101.608C108.271 101.608 109.135 101.949 109.788 102.63C110.441 103.311 110.768 104.231 110.768 105.388C110.768 106.536 110.441 107.451 109.788 108.132ZM105.644 107.278C106.027 107.735 106.545 107.964 107.198 107.964C107.851 107.964 108.365 107.735 108.738 107.278C109.121 106.821 109.312 106.191 109.312 105.388C109.312 104.585 109.121 103.955 108.738 103.498C108.365 103.041 107.851 102.812 107.198 102.812C106.545 102.812 106.027 103.041 105.644 103.498C105.261 103.955 105.07 104.585 105.07 105.388C105.07 106.191 105.261 106.821 105.644 107.278ZM117.309 102.756V99.032H118.709V109H117.365V107.936C116.823 108.757 116.025 109.168 114.971 109.168C113.963 109.168 113.16 108.827 112.563 108.146C111.965 107.465 111.667 106.545 111.667 105.388C111.667 104.231 111.965 103.311 112.563 102.63C113.16 101.949 113.963 101.608 114.971 101.608C115.988 101.608 116.767 101.991 117.309 102.756ZM113.123 105.444C113.123 106.247 113.314 106.867 113.697 107.306C114.079 107.745 114.593 107.964 115.237 107.964C115.899 107.964 116.417 107.735 116.791 107.278C117.164 106.839 117.351 106.209 117.351 105.388C117.351 104.576 117.164 103.941 116.791 103.484C116.417 103.036 115.899 102.812 115.237 102.812C114.593 102.812 114.079 103.045 113.697 103.512C113.314 103.979 113.123 104.623 113.123 105.444ZM126.812 105.444V105.85H121.366C121.431 106.559 121.641 107.096 121.996 107.46C122.351 107.815 122.831 107.992 123.438 107.992C124.353 107.992 124.95 107.591 125.23 106.788H126.644C126.448 107.525 126.065 108.109 125.496 108.538C124.936 108.958 124.241 109.168 123.41 109.168C122.374 109.168 121.539 108.823 120.904 108.132C120.269 107.441 119.952 106.527 119.952 105.388C119.952 104.249 120.269 103.335 120.904 102.644C121.539 101.953 122.365 101.608 123.382 101.608C124.446 101.608 125.286 101.967 125.902 102.686C126.509 103.405 126.812 104.324 126.812 105.444ZM123.382 102.784C122.831 102.784 122.379 102.952 122.024 103.288C121.679 103.624 121.464 104.109 121.38 104.744H125.37C125.305 104.156 125.095 103.685 124.74 103.33C124.395 102.966 123.942 102.784 123.382 102.784ZM135.95 101.608C136.734 101.608 137.345 101.841 137.784 102.308C138.222 102.765 138.442 103.381 138.442 104.156V109H137.028V104.338C137.028 103.339 136.566 102.84 135.642 102.84C135.147 102.84 134.741 103.031 134.424 103.414C134.106 103.787 133.948 104.329 133.948 105.038V109H132.548V104.338C132.548 103.339 132.081 102.84 131.148 102.84C130.653 102.84 130.247 103.031 129.93 103.414C129.612 103.797 129.454 104.338 129.454 105.038V109H128.054V101.776H129.398V102.854C129.892 102.023 130.588 101.608 131.484 101.608C132.576 101.608 133.318 102.061 133.71 102.966C134.223 102.061 134.97 101.608 135.95 101.608ZM145.507 109.182C143.5 109.182 142.445 108.356 142.343 106.704H143.743C143.799 107.208 143.962 107.563 144.233 107.768C144.503 107.973 144.933 108.076 145.521 108.076C146.585 108.076 147.117 107.74 147.117 107.068C147.117 106.779 147.005 106.555 146.781 106.396C146.557 106.237 146.155 106.107 145.577 106.004L144.835 105.864C143.304 105.584 142.539 104.865 142.539 103.708C142.539 103.064 142.786 102.555 143.281 102.182C143.775 101.799 144.457 101.608 145.325 101.608C147.313 101.608 148.33 102.415 148.377 104.03H147.019C146.991 103.545 146.841 103.204 146.571 103.008C146.3 102.803 145.885 102.7 145.325 102.7C144.877 102.7 144.531 102.784 144.289 102.952C144.046 103.12 143.925 103.358 143.925 103.666C143.925 103.946 144.032 104.165 144.247 104.324C144.461 104.473 144.802 104.595 145.269 104.688L146.025 104.814C146.911 104.982 147.551 105.234 147.943 105.57C148.335 105.906 148.531 106.373 148.531 106.97C148.531 107.67 148.265 108.216 147.733 108.608C147.201 108.991 146.459 109.182 145.507 109.182ZM156.097 105.444V105.85H150.651C150.716 106.559 150.926 107.096 151.281 107.46C151.636 107.815 152.116 107.992 152.723 107.992C153.638 107.992 154.235 107.591 154.515 106.788H155.929C155.733 107.525 155.35 108.109 154.781 108.538C154.221 108.958 153.526 109.168 152.695 109.168C151.659 109.168 150.824 108.823 150.189 108.132C149.554 107.441 149.237 106.527 149.237 105.388C149.237 104.249 149.554 103.335 150.189 102.644C150.824 101.953 151.65 101.608 152.667 101.608C153.731 101.608 154.571 101.967 155.187 102.686C155.794 103.405 156.097 104.324 156.097 105.444ZM152.667 102.784C152.116 102.784 151.664 102.952 151.309 103.288C150.964 103.624 150.749 104.109 150.665 104.744H154.655C154.59 104.156 154.38 103.685 154.025 103.33C153.68 102.966 153.227 102.784 152.667 102.784ZM160.937 101.664C161.142 101.664 161.277 101.669 161.343 101.678V103.008H160.993C160.274 103.008 159.719 103.185 159.327 103.54C158.935 103.895 158.739 104.408 158.739 105.08V109H157.339V101.776H158.683V103.064C159.14 102.131 159.891 101.664 160.937 101.664ZM168.404 109.168C167.377 109.168 166.546 108.823 165.912 108.132C165.277 107.441 164.96 106.527 164.96 105.388C164.96 104.24 165.277 103.321 165.912 102.63C166.537 101.949 167.368 101.608 168.404 101.608C169.29 101.608 170.018 101.851 170.588 102.336C171.166 102.821 171.512 103.475 171.624 104.296H170.196C170.102 103.82 169.892 103.456 169.566 103.204C169.248 102.952 168.861 102.826 168.404 102.826C167.797 102.826 167.312 103.05 166.948 103.498C166.593 103.937 166.416 104.567 166.416 105.388C166.416 106.209 166.593 106.844 166.948 107.292C167.312 107.731 167.797 107.95 168.404 107.95C168.87 107.95 169.267 107.819 169.594 107.558C169.92 107.297 170.126 106.919 170.21 106.424H171.638C171.526 107.264 171.176 107.931 170.588 108.426C170 108.921 169.272 109.168 168.404 109.168ZM178.585 108.132C177.922 108.823 177.059 109.168 175.995 109.168C174.931 109.168 174.068 108.823 173.405 108.132C172.742 107.441 172.411 106.527 172.411 105.388C172.411 104.24 172.742 103.321 173.405 102.63C174.058 101.949 174.922 101.608 175.995 101.608C177.068 101.608 177.932 101.949 178.585 102.63C179.238 103.311 179.565 104.231 179.565 105.388C179.565 106.536 179.238 107.451 178.585 108.132ZM174.441 107.278C174.824 107.735 175.342 107.964 175.995 107.964C176.648 107.964 177.162 107.735 177.535 107.278C177.918 106.821 178.109 106.191 178.109 105.388C178.109 104.585 177.918 103.955 177.535 103.498C177.162 103.041 176.648 102.812 175.995 102.812C175.342 102.812 174.824 103.041 174.441 103.498C174.058 103.955 173.867 104.585 173.867 105.388C173.867 106.191 174.058 106.821 174.441 107.278ZM184.412 101.608C185.205 101.608 185.826 101.832 186.274 102.28C186.722 102.719 186.946 103.344 186.946 104.156V109H185.546V104.352C185.546 103.344 185.037 102.84 184.02 102.84C183.553 102.84 183.133 103.017 182.76 103.372C182.386 103.736 182.2 104.254 182.2 104.926V109H180.8V101.776H182.144V102.854C182.694 102.023 183.45 101.608 184.412 101.608ZM191.694 101.776V102.924H190.238V107.264C190.238 107.479 190.299 107.637 190.42 107.74C190.551 107.833 190.766 107.88 191.064 107.88H191.694V109C191.386 109.028 191.102 109.042 190.84 109.042C190.159 109.042 189.655 108.911 189.328 108.65C189.002 108.389 188.838 107.969 188.838 107.39V102.924H187.676V101.776H188.838V99.704H190.238V101.776H191.694ZM196.415 101.664C196.621 101.664 196.756 101.669 196.821 101.678V103.008H196.471C195.753 103.008 195.197 103.185 194.805 103.54C194.413 103.895 194.217 104.408 194.217 105.08V109H192.817V101.776H194.161V103.064C194.619 102.131 195.37 101.664 196.415 101.664ZM203.586 107.922H203.978V109C203.773 109.028 203.544 109.042 203.292 109.042C202.844 109.042 202.508 108.963 202.284 108.804C202.069 108.636 201.939 108.375 201.892 108.02C201.407 108.785 200.623 109.168 199.54 109.168C198.747 109.168 198.117 108.981 197.65 108.608C197.193 108.225 196.964 107.698 196.964 107.026C196.964 105.719 197.869 104.973 199.68 104.786L200.744 104.674C201.117 104.627 201.388 104.534 201.556 104.394C201.733 104.245 201.822 104.035 201.822 103.764C201.822 103.4 201.705 103.139 201.472 102.98C201.248 102.812 200.87 102.728 200.338 102.728C199.759 102.728 199.344 102.826 199.092 103.022C198.84 103.209 198.695 103.545 198.658 104.03H197.272C197.375 102.415 198.397 101.608 200.338 101.608C202.242 101.608 203.194 102.317 203.194 103.736V107.558C203.194 107.801 203.325 107.922 203.586 107.922ZM199.75 108.076C200.347 108.076 200.842 107.908 201.234 107.572C201.626 107.236 201.822 106.76 201.822 106.144V105.388C201.645 105.537 201.346 105.635 200.926 105.682L199.918 105.794C199.377 105.859 198.989 105.99 198.756 106.186C198.523 106.373 198.406 106.639 198.406 106.984C198.406 107.329 198.518 107.6 198.742 107.796C198.975 107.983 199.311 108.076 199.75 108.076ZM208.087 101.776V102.924H206.631V107.264C206.631 107.479 206.692 107.637 206.813 107.74C206.944 107.833 207.158 107.88 207.457 107.88H208.087V109C207.779 109.028 207.494 109.042 207.233 109.042C206.552 109.042 206.048 108.911 205.721 108.65C205.394 108.389 205.231 107.969 205.231 107.39V102.924H204.069V101.776H205.231V99.704H206.631V101.776H208.087ZM215.371 107.922H215.763V109C215.558 109.028 215.329 109.042 215.077 109.042C214.629 109.042 214.293 108.963 214.069 108.804C213.854 108.636 213.724 108.375 213.677 108.02C213.192 108.785 212.408 109.168 211.325 109.168C210.532 109.168 209.902 108.981 209.435 108.608C208.978 108.225 208.749 107.698 208.749 107.026C208.749 105.719 209.654 104.973 211.465 104.786L212.529 104.674C212.902 104.627 213.173 104.534 213.341 104.394C213.518 104.245 213.607 104.035 213.607 103.764C213.607 103.4 213.49 103.139 213.257 102.98C213.033 102.812 212.655 102.728 212.123 102.728C211.544 102.728 211.129 102.826 210.877 103.022C210.625 103.209 210.48 103.545 210.443 104.03H209.057C209.16 102.415 210.182 101.608 212.123 101.608C214.027 101.608 214.979 102.317 214.979 103.736V107.558C214.979 107.801 215.11 107.922 215.371 107.922ZM211.535 108.076C212.132 108.076 212.627 107.908 213.019 107.572C213.411 107.236 213.607 106.76 213.607 106.144V105.388C213.43 105.537 213.131 105.635 212.711 105.682L211.703 105.794C211.162 105.859 210.774 105.99 210.541 106.186C210.308 106.373 210.191 106.639 210.191 106.984C210.191 107.329 210.303 107.6 210.527 107.796C210.76 107.983 211.096 108.076 211.535 108.076ZM221.926 102.756V99.032H223.326V109H221.982V107.936C221.441 108.757 220.643 109.168 219.588 109.168C218.58 109.168 217.777 108.827 217.18 108.146C216.583 107.465 216.284 106.545 216.284 105.388C216.284 104.231 216.583 103.311 217.18 102.63C217.777 101.949 218.58 101.608 219.588 101.608C220.605 101.608 221.385 101.991 221.926 102.756ZM217.74 105.444C217.74 106.247 217.931 106.867 218.314 107.306C218.697 107.745 219.21 107.964 219.854 107.964C220.517 107.964 221.035 107.735 221.408 107.278C221.781 106.839 221.968 106.209 221.968 105.388C221.968 104.576 221.781 103.941 221.408 103.484C221.035 103.036 220.517 102.812 219.854 102.812C219.21 102.812 218.697 103.045 218.314 103.512C217.931 103.979 217.74 104.623 217.74 105.444ZM230.743 108.132C230.08 108.823 229.217 109.168 228.153 109.168C227.089 109.168 226.226 108.823 225.563 108.132C224.9 107.441 224.569 106.527 224.569 105.388C224.569 104.24 224.9 103.321 225.563 102.63C226.216 101.949 227.08 101.608 228.153 101.608C229.226 101.608 230.09 101.949 230.743 102.63C231.396 103.311 231.723 104.231 231.723 105.388C231.723 106.536 231.396 107.451 230.743 108.132ZM226.599 107.278C226.982 107.735 227.5 107.964 228.153 107.964C228.806 107.964 229.32 107.735 229.693 107.278C230.076 106.821 230.267 106.191 230.267 105.388C230.267 104.585 230.076 103.955 229.693 103.498C229.32 103.041 228.806 102.812 228.153 102.812C227.5 102.812 226.982 103.041 226.599 103.498C226.216 103.955 226.025 104.585 226.025 105.388C226.025 106.191 226.216 106.821 226.599 107.278ZM235.522 109.182C233.516 109.182 232.461 108.356 232.358 106.704H233.758C233.814 107.208 233.978 107.563 234.248 107.768C234.519 107.973 234.948 108.076 235.536 108.076C236.6 108.076 237.132 107.74 237.132 107.068C237.132 106.779 237.02 106.555 236.796 106.396C236.572 106.237 236.171 106.107 235.592 106.004L234.85 105.864C233.32 105.584 232.554 104.865 232.554 103.708C232.554 103.064 232.802 102.555 233.296 102.182C233.791 101.799 234.472 101.608 235.34 101.608C237.328 101.608 238.346 102.415 238.392 104.03H237.034C237.006 103.545 236.857 103.204 236.586 103.008C236.316 102.803 235.9 102.7 235.34 102.7C234.892 102.7 234.547 102.784 234.304 102.952C234.062 103.12 233.94 103.358 233.94 103.666C233.94 103.946 234.048 104.165 234.262 104.324C234.477 104.473 234.818 104.595 235.284 104.688L236.04 104.814C236.927 104.982 237.566 105.234 237.958 105.57C238.35 105.906 238.546 106.373 238.546 106.97C238.546 107.67 238.28 108.216 237.748 108.608C237.216 108.991 236.474 109.182 235.522 109.182ZM23.458 125.182C21.4513 125.182 20.3967 124.356 20.294 122.704H21.694C21.75 123.208 21.9133 123.563 22.184 123.768C22.4547 123.973 22.884 124.076 23.472 124.076C24.536 124.076 25.068 123.74 25.068 123.068C25.068 122.779 24.956 122.555 24.732 122.396C24.508 122.237 24.1067 122.107 23.528 122.004L22.786 121.864C21.2553 121.584 20.49 120.865 20.49 119.708C20.49 119.064 20.7373 118.555 21.232 118.182C21.7267 117.799 22.408 117.608 23.276 117.608C25.264 117.608 26.2813 118.415 26.328 120.03H24.97C24.942 119.545 24.7927 119.204 24.522 119.008C24.2513 118.803 23.836 118.7 23.276 118.7C22.828 118.7 22.4827 118.784 22.24 118.952C21.9973 119.12 21.876 119.358 21.876 119.666C21.876 119.946 21.9833 120.165 22.198 120.324C22.4127 120.473 22.7533 120.595 23.22 120.688L23.976 120.814C24.8627 120.982 25.502 121.234 25.894 121.57C26.286 121.906 26.482 122.373 26.482 122.97C26.482 123.67 26.216 124.216 25.684 124.608C25.152 124.991 24.41 125.182 23.458 125.182ZM34.0482 121.444V121.85H28.6022C28.6676 122.559 28.8776 123.096 29.2322 123.46C29.5869 123.815 30.0676 123.992 30.6742 123.992C31.5889 123.992 32.1862 123.591 32.4662 122.788H33.8802C33.6842 123.525 33.3016 124.109 32.7322 124.538C32.1722 124.958 31.4769 125.168 30.6462 125.168C29.6102 125.168 28.7749 124.823 28.1402 124.132C27.5056 123.441 27.1882 122.527 27.1882 121.388C27.1882 120.249 27.5056 119.335 28.1402 118.644C28.7749 117.953 29.6009 117.608 30.6182 117.608C31.6822 117.608 32.5222 117.967 33.1382 118.686C33.7449 119.405 34.0482 120.324 34.0482 121.444ZM30.6182 118.784C30.0676 118.784 29.6149 118.952 29.2602 119.288C28.9149 119.624 28.7002 120.109 28.6162 120.744H32.6062C32.5409 120.156 32.3309 119.685 31.9762 119.33C31.6309 118.966 31.1782 118.784 30.6182 118.784ZM39.0419 117.608C40.0499 117.608 40.8525 117.949 41.4499 118.63C42.0472 119.311 42.3459 120.231 42.3459 121.388C42.3459 122.536 42.0472 123.451 41.4499 124.132C40.8432 124.823 40.0405 125.168 39.0419 125.168C38.0152 125.168 37.2312 124.776 36.6899 123.992V127.744H35.2899V117.776H36.6339V118.868C37.1752 118.028 37.9779 117.608 39.0419 117.608ZM37.2359 123.278C37.6092 123.735 38.1225 123.964 38.7759 123.964C39.4292 123.964 39.9472 123.731 40.3299 123.264C40.7032 122.807 40.8899 122.163 40.8899 121.332C40.8899 120.529 40.7032 119.909 40.3299 119.47C39.9565 119.031 39.4385 118.812 38.7759 118.812C38.1319 118.812 37.6185 119.036 37.2359 119.484C36.8532 119.951 36.6619 120.585 36.6619 121.388C36.6619 122.191 36.8532 122.821 37.2359 123.278ZM49.6816 123.922H50.0736V125C49.8683 125.028 49.6396 125.042 49.3876 125.042C48.9396 125.042 48.6036 124.963 48.3796 124.804C48.165 124.636 48.0343 124.375 47.9876 124.02C47.5023 124.785 46.7183 125.168 45.6356 125.168C44.8423 125.168 44.2123 124.981 43.7456 124.608C43.2883 124.225 43.0596 123.698 43.0596 123.026C43.0596 121.719 43.965 120.973 45.7756 120.786L46.8396 120.674C47.213 120.627 47.4836 120.534 47.6516 120.394C47.829 120.245 47.9176 120.035 47.9176 119.764C47.9176 119.4 47.801 119.139 47.5676 118.98C47.3436 118.812 46.9656 118.728 46.4336 118.728C45.855 118.728 45.4396 118.826 45.1876 119.022C44.9356 119.209 44.791 119.545 44.7536 120.03H43.3676C43.4703 118.415 44.4923 117.608 46.4336 117.608C48.3376 117.608 49.2896 118.317 49.2896 119.736V123.558C49.2896 123.801 49.4203 123.922 49.6816 123.922ZM45.8456 124.076C46.443 124.076 46.9376 123.908 47.3296 123.572C47.7216 123.236 47.9176 122.76 47.9176 122.144V121.388C47.7403 121.537 47.4416 121.635 47.0216 121.682L46.0136 121.794C45.4723 121.859 45.085 121.99 44.8516 122.186C44.6183 122.373 44.5016 122.639 44.5016 122.984C44.5016 123.329 44.6136 123.6 44.8376 123.796C45.071 123.983 45.407 124.076 45.8456 124.076ZM54.5968 117.664C54.8022 117.664 54.9375 117.669 55.0028 117.678V119.008H54.6528C53.9342 119.008 53.3788 119.185 52.9868 119.54C52.5948 119.895 52.3988 120.408 52.3988 121.08V125H50.9988V117.776H52.3428V119.064C52.8002 118.131 53.5515 117.664 54.5968 117.664ZM61.7676 123.922H62.1596V125C61.9542 125.028 61.7256 125.042 61.4736 125.042C61.0256 125.042 60.6896 124.963 60.4656 124.804C60.2509 124.636 60.1202 124.375 60.0736 124.02C59.5882 124.785 58.8042 125.168 57.7216 125.168C56.9282 125.168 56.2982 124.981 55.8316 124.608C55.3742 124.225 55.1456 123.698 55.1456 123.026C55.1456 121.719 56.0509 120.973 57.8616 120.786L58.9256 120.674C59.2989 120.627 59.5696 120.534 59.7376 120.394C59.9149 120.245 60.0036 120.035 60.0036 119.764C60.0036 119.4 59.8869 119.139 59.6536 118.98C59.4296 118.812 59.0516 118.728 58.5196 118.728C57.9409 118.728 57.5256 118.826 57.2736 119.022C57.0216 119.209 56.8769 119.545 56.8396 120.03H55.4536C55.5562 118.415 56.5782 117.608 58.5196 117.608C60.4236 117.608 61.3756 118.317 61.3756 119.736V123.558C61.3756 123.801 61.5062 123.922 61.7676 123.922ZM57.9316 124.076C58.5289 124.076 59.0236 123.908 59.4156 123.572C59.8076 123.236 60.0036 122.76 60.0036 122.144V121.388C59.8262 121.537 59.5276 121.635 59.1076 121.682L58.0996 121.794C57.5582 121.859 57.1709 121.99 56.9376 122.186C56.7042 122.373 56.5876 122.639 56.5876 122.984C56.5876 123.329 56.6996 123.6 56.9236 123.796C57.1569 123.983 57.4929 124.076 57.9316 124.076ZM68.3224 118.756V115.032H69.7224V125H68.3784V123.936C67.8371 124.757 67.0391 125.168 65.9844 125.168C64.9764 125.168 64.1738 124.827 63.5764 124.146C62.9791 123.465 62.6804 122.545 62.6804 121.388C62.6804 120.231 62.9791 119.311 63.5764 118.63C64.1738 117.949 64.9764 117.608 65.9844 117.608C67.0018 117.608 67.7811 117.991 68.3224 118.756ZM64.1364 121.444C64.1364 122.247 64.3278 122.867 64.7104 123.306C65.0931 123.745 65.6064 123.964 66.2504 123.964C66.9131 123.964 67.4311 123.735 67.8044 123.278C68.1778 122.839 68.3644 122.209 68.3644 121.388C68.3644 120.576 68.1778 119.941 67.8044 119.484C67.4311 119.036 66.9131 118.812 66.2504 118.812C65.6064 118.812 65.0931 119.045 64.7104 119.512C64.3278 119.979 64.1364 120.623 64.1364 121.444ZM77.5176 123.922H77.9096V125C77.7042 125.028 77.4756 125.042 77.2236 125.042C76.7756 125.042 76.4396 124.963 76.2156 124.804C76.0009 124.636 75.8702 124.375 75.8236 124.02C75.3382 124.785 74.5542 125.168 73.4716 125.168C72.6782 125.168 72.0482 124.981 71.5816 124.608C71.1242 124.225 70.8956 123.698 70.8956 123.026C70.8956 121.719 71.8009 120.973 73.6116 120.786L74.6756 120.674C75.0489 120.627 75.3196 120.534 75.4876 120.394C75.6649 120.245 75.7536 120.035 75.7536 119.764C75.7536 119.4 75.6369 119.139 75.4036 118.98C75.1796 118.812 74.8016 118.728 74.2696 118.728C73.6909 118.728 73.2756 118.826 73.0236 119.022C72.7716 119.209 72.6269 119.545 72.5896 120.03H71.2036C71.3062 118.415 72.3282 117.608 74.2696 117.608C76.1736 117.608 77.1256 118.317 77.1256 119.736V123.558C77.1256 123.801 77.2562 123.922 77.5176 123.922ZM73.6816 124.076C74.2789 124.076 74.7736 123.908 75.1656 123.572C75.5576 123.236 75.7536 122.76 75.7536 122.144V121.388C75.5762 121.537 75.2776 121.635 74.8576 121.682L73.8496 121.794C73.3082 121.859 72.9209 121.99 72.6876 122.186C72.4542 122.373 72.3376 122.639 72.3376 122.984C72.3376 123.329 72.4496 123.6 72.6736 123.796C72.9069 123.983 73.2429 124.076 73.6816 124.076ZM86.7308 117.608C87.5148 117.608 88.1261 117.841 88.5648 118.308C89.0034 118.765 89.2228 119.381 89.2228 120.156V125H87.8088V120.338C87.8088 119.339 87.3468 118.84 86.4228 118.84C85.9281 118.84 85.5221 119.031 85.2048 119.414C84.8874 119.787 84.7288 120.329 84.7288 121.038V125H83.3288V120.338C83.3288 119.339 82.8621 118.84 81.9288 118.84C81.4341 118.84 81.0281 119.031 80.7108 119.414C80.3934 119.797 80.2348 120.338 80.2348 121.038V125H78.8348V117.776H80.1788V118.854C80.6734 118.023 81.3688 117.608 82.2648 117.608C83.3568 117.608 84.0988 118.061 84.4908 118.966C85.0041 118.061 85.7508 117.608 86.7308 117.608ZM97.308 121.444V121.85H91.862C91.9273 122.559 92.1373 123.096 92.492 123.46C92.8467 123.815 93.3273 123.992 93.934 123.992C94.8487 123.992 95.446 123.591 95.726 122.788H97.14C96.944 123.525 96.5613 124.109 95.992 124.538C95.432 124.958 94.7367 125.168 93.906 125.168C92.87 125.168 92.0347 124.823 91.4 124.132C90.7653 123.441 90.448 122.527 90.448 121.388C90.448 120.249 90.7653 119.335 91.4 118.644C92.0347 117.953 92.8607 117.608 93.878 117.608C94.942 117.608 95.782 117.967 96.398 118.686C97.0047 119.405 97.308 120.324 97.308 121.444ZM93.878 118.784C93.3273 118.784 92.8747 118.952 92.52 119.288C92.1747 119.624 91.96 120.109 91.876 120.744H95.866C95.8007 120.156 95.5907 119.685 95.236 119.33C94.8907 118.966 94.438 118.784 93.878 118.784ZM102.162 117.608C102.955 117.608 103.576 117.832 104.024 118.28C104.472 118.719 104.696 119.344 104.696 120.156V125H103.296V120.352C103.296 119.344 102.787 118.84 101.77 118.84C101.303 118.84 100.883 119.017 100.51 119.372C100.136 119.736 99.9496 120.254 99.9496 120.926V125H98.5496V117.776H99.8936V118.854C100.444 118.023 101.2 117.608 102.162 117.608ZM109.444 117.776V118.924H107.988V123.264C107.988 123.479 108.049 123.637 108.17 123.74C108.301 123.833 108.516 123.88 108.814 123.88H109.444V125C109.136 125.028 108.852 125.042 108.59 125.042C107.909 125.042 107.405 124.911 107.078 124.65C106.752 124.389 106.588 123.969 106.588 123.39V118.924H105.426V117.776H106.588V115.704H107.988V117.776H109.444ZM116.954 121.444V121.85H111.508C111.574 122.559 111.784 123.096 112.138 123.46C112.493 123.815 112.974 123.992 113.58 123.992C114.495 123.992 115.092 123.591 115.372 122.788H116.786C116.59 123.525 116.208 124.109 115.638 124.538C115.078 124.958 114.383 125.168 113.552 125.168C112.516 125.168 111.681 124.823 111.046 124.132C110.412 123.441 110.094 122.527 110.094 121.388C110.094 120.249 110.412 119.335 111.046 118.644C111.681 117.953 112.507 117.608 113.524 117.608C114.588 117.608 115.428 117.967 116.044 118.686C116.651 119.405 116.954 120.324 116.954 121.444ZM113.524 118.784C112.974 118.784 112.521 118.952 112.166 119.288C111.821 119.624 111.606 120.109 111.522 120.744H115.512C115.447 120.156 115.237 119.685 114.882 119.33C114.537 118.966 114.084 118.784 113.524 118.784Z" fill="#9A9EED"/>
<rect x="306" y="96" width="32" height="32" rx="8" fill="#333693"/>
<path fill-rule="evenodd" clip-rule="evenodd" d="M314.768 110.768C315.08 110.455 315.587 110.455 315.899 110.768L322 116.869L328.101 110.768C328.413 110.455 328.92 110.455 329.232 110.768C329.545 111.08 329.545 111.587 329.232 111.899L322.566 118.566C322.253 118.878 321.747 118.878 321.434 118.566L314.768 111.899C314.455 111.587 314.455 111.08 314.768 110.768Z" fill="#9A9EED"/>
<path fill-rule="evenodd" clip-rule="evenodd" d="M314.768 105.434C315.08 105.122 315.587 105.122 315.899 105.434L322 111.535L328.101 105.434C328.413 105.122 328.92 105.122 329.232 105.434C329.545 105.747 329.545 106.253 329.232 106.566L322.566 113.232C322.253 113.545 321.747 113.545 321.434 113.232L314.768 106.566C314.455 106.253 314.455 105.747 314.768 105.434Z" fill="#DEA1FF"/>
<defs>
<linearGradient id="paint0_linear_29_2933" x1="0" y1="74" x2="358" y2="74" gradientUnits="userSpaceOnUse">
<stop stop-color="#333693"/>
<stop offset="1" stop-color="#181946"/>
</linearGradient>
<linearGradient id="paint1_linear_29_2933" x1="70" y1="20" x2="18" y2="72" gradientUnits="userSpaceOnUse">
<stop stop-color="#7500CD"/>
<stop offset="0.5" stop-color="#413393"/>
<stop offset="1" stop-color="#333693"/>
</linearGradient>
<linearGradient id="paint2_linear_29_2933" x1="339" y1="53" x2="82" y2="53" gradientUnits="userSpaceOnUse">
<stop stop-color="#9A9EED"/>
<stop offset="1" stop-color="#575AC0"/>
</linearGradient>
<clipPath id="clip0_29_2933">
<rect width="29.25" height="29.25" fill="white" transform="translate(29.375 31.375)"/>
</clipPath>
</defs>
</svg>
