<svg width="226" height="44" viewBox="0 0 226 44" fill="none" xmlns="http://www.w3.org/2000/svg">
<rect y="0.111328" width="226" height="43" rx="8" fill="url(#paint0_linear_13_721)"/>
<path d="M20.13 25.8913C17.57 25.8913 16.22 24.9813 16.23 23.0113H18.03C18.1 23.8013 18.75 24.3013 20.13 24.3113C21.43 24.3113 22.14 23.8713 22.14 23.2113C22.14 22.6313 21.67 22.3413 20.67 22.1713L19.63 21.9913C18.04 21.7113 16.46 21.2913 16.46 19.4613C16.46 17.8713 17.8 16.9313 20.15 16.9313C22.34 16.9313 23.86 17.7013 23.88 19.7813H22.09C21.96 19.0213 21.37 18.5113 20.11 18.5113C18.97 18.5113 18.37 18.9013 18.37 19.5513C18.37 20.0613 18.78 20.3813 19.64 20.5413L20.55 20.7013C22.15 20.9913 24.12 21.2613 24.12 23.2713C24.12 24.9413 22.75 25.8913 20.13 25.8913ZM30.8472 25.8913C28.2572 25.8913 26.7972 24.6713 26.7972 22.1113V17.2113H28.8072V22.0613C28.8072 23.4013 29.4772 24.2113 30.8472 24.2113C32.2172 24.2113 32.8972 23.4013 32.8972 22.0613V17.2113H34.8972V22.1113C34.8972 24.6713 33.4372 25.8913 30.8472 25.8913ZM37.7503 25.6113V17.2113H42.1403C44.3803 17.2113 45.6003 18.2813 45.6003 20.2913C45.6003 22.2913 44.3803 23.3613 42.1403 23.3613H39.7403V25.6113H37.7503ZM39.7403 21.6913H42.0103C42.9903 21.6913 43.6003 21.2213 43.6003 20.2913C43.6003 19.3513 42.9903 18.8813 42.0103 18.8813H39.7403V21.6913ZM48.3519 25.6113V17.2113H55.4219V18.8413H50.3419V20.6813H55.2419V22.1213H50.3419V23.9713H55.4219V25.6113H48.3519ZM66.3455 25.6113H64.3655L62.9855 23.1113H60.2755V25.6113H58.2855V17.2113H62.6955C64.9455 17.2113 66.1355 18.2613 66.1355 20.2213C66.1355 21.3913 65.5655 22.2413 64.7055 22.7113L66.3455 25.6113ZM60.2755 18.8813V21.5813H62.5855C63.5955 21.5813 64.1555 21.1213 64.1555 20.2313C64.1555 19.3413 63.5955 18.8813 62.5855 18.8813H60.2755ZM71.4855 25.6113L68.2355 17.2113H70.2955L72.7555 23.7213H73.0155L75.4755 17.2113H77.5455L74.2855 25.6113H71.4855ZM80.098 25.6113V17.2113H82.088V25.6113H80.098ZM88.6456 25.8913C86.0856 25.8913 84.7356 24.9813 84.7456 23.0113H86.5456C86.6156 23.8013 87.2656 24.3013 88.6456 24.3113C89.9456 24.3113 90.6556 23.8713 90.6556 23.2113C90.6556 22.6313 90.1856 22.3413 89.1856 22.1713L88.1456 21.9913C86.5556 21.7113 84.9756 21.2913 84.9756 19.4613C84.9756 17.8713 86.3156 16.9313 88.6656 16.9313C90.8556 16.9313 92.3756 17.7013 92.3956 19.7813H90.6056C90.4756 19.0213 89.8856 18.5113 88.6256 18.5113C87.4856 18.5113 86.8856 18.9013 86.8856 19.5513C86.8856 20.0613 87.2956 20.3813 88.1556 20.5413L89.0656 20.7013C90.6656 20.9913 92.6356 21.2613 92.6356 23.2713C92.6356 24.9413 91.2656 25.8913 88.6456 25.8913ZM97.7313 16.5413H97.0613C96.9613 15.5013 97.6613 15.0613 98.4313 15.0613C99.2613 15.0613 99.6813 15.7313 100.301 15.7313C100.651 15.7313 100.851 15.5413 100.891 15.2613H101.551C101.651 16.2913 100.961 16.7413 100.181 16.7413C99.3613 16.7413 98.9413 16.0713 98.3212 16.0713C97.9712 16.0713 97.7713 16.2513 97.7313 16.5413ZM101.901 25.6113L101.381 24.2013H97.2413L96.7213 25.6113H94.6612L97.9112 17.2113H100.711L103.971 25.6113H101.901ZM97.8013 22.6913H100.821L99.5013 19.1013H99.1213L97.8013 22.6913ZM110.222 25.8913C107.482 25.8913 105.612 24.0513 105.612 21.4113C105.612 18.7713 107.482 16.9313 110.222 16.9313C112.972 16.9313 114.842 18.7713 114.842 21.4113C114.842 24.0513 112.972 25.8913 110.222 25.8913ZM110.222 24.1613C111.722 24.1613 112.862 23.0613 112.862 21.4113C112.862 19.7613 111.722 18.6613 110.222 18.6613C108.732 18.6613 107.582 19.7613 107.582 21.4113C107.582 23.0613 108.732 24.1613 110.222 24.1613ZM125.938 17.2113C129.198 17.2113 130.438 19.0213 130.438 21.4113C130.438 23.8013 129.198 25.6113 125.938 25.6113H122.078V17.2113H125.938ZM125.928 23.9313C127.558 23.9313 128.438 23.0313 128.438 21.4113C128.438 19.7913 127.558 18.8913 125.928 18.8913H124.088L124.068 23.9313H125.928ZM133.184 25.6113V17.2113H140.254V18.8413H135.174V20.6813H140.074V22.1213H135.174V23.9713H140.254V25.6113H133.184ZM150.599 25.6113L147.349 17.2113H149.409L151.869 23.7213H152.129L154.589 17.2113H156.659L153.399 25.6113H150.599ZM159.211 25.6113V17.2113H166.281V18.8413H161.201V20.6813H166.101V22.1213H161.201V23.9713H166.281V25.6113H159.211ZM169.145 25.6113V17.2113H171.455L175.355 22.8613H175.545V17.2113H177.495V25.6113H175.225L171.275 19.9613H171.095V25.6113H169.145ZM184.204 17.2113C187.464 17.2113 188.704 19.0213 188.704 21.4113C188.704 23.8013 187.464 25.6113 184.204 25.6113H180.344V17.2113H184.204ZM184.194 23.9313C185.824 23.9313 186.704 23.0313 186.704 21.4113C186.704 19.7913 185.824 18.8913 184.194 18.8913H182.354L182.334 23.9313H184.194ZM197.628 25.6113L197.108 24.2013H192.968L192.448 25.6113H190.388L193.638 17.2113H196.438L199.698 25.6113H197.628ZM193.528 22.6913H196.548L195.228 19.1013H194.848L193.528 22.6913ZM205.646 25.8913C203.086 25.8913 201.736 24.9813 201.746 23.0113H203.546C203.616 23.8013 204.266 24.3013 205.646 24.3113C206.946 24.3113 207.656 23.8713 207.656 23.2113C207.656 22.6313 207.186 22.3413 206.186 22.1713L205.146 21.9913C203.556 21.7113 201.976 21.2913 201.976 19.4613C201.976 17.8713 203.316 16.9313 205.666 16.9313C207.856 16.9313 209.376 17.7013 209.396 19.7813H207.606C207.476 19.0213 206.886 18.5113 205.626 18.5113C204.486 18.5113 203.886 18.9013 203.886 19.5513C203.886 20.0613 204.296 20.3813 205.156 20.5413L206.066 20.7013C207.666 20.9913 209.636 21.2613 209.636 23.2713C209.636 24.9413 208.266 25.8913 205.646 25.8913Z" fill="#F8F8F8"/>
<defs>
<linearGradient id="paint0_linear_13_721" x1="226" y1="21.6113" x2="0" y2="21.6113" gradientUnits="userSpaceOnUse">
<stop stop-color="#575AC0"/>
<stop offset="1" stop-color="#333693"/>
</linearGradient>
</defs>
</svg>
