<svg width="346" height="67" viewBox="0 0 346 67" fill="none" xmlns="http://www.w3.org/2000/svg">
<path d="M5.1 18.1113L0.05 4.11133H5.25L8.36667 13.378H8.9L12.0167 4.11133H17.2333L12.1667 18.1113H5.1ZM24.218 18.578C19.3346 18.578 16.218 15.628 16.218 11.1113C16.218 6.59466 19.3346 3.64466 24.218 3.64466C29.118 3.64466 32.2346 6.59466 32.2346 11.1113C32.2346 15.628 29.118 18.578 24.218 18.578ZM24.218 14.228C25.8346 14.228 27.218 13.1447 27.218 11.1113C27.218 9.07799 25.8346 7.99466 24.218 7.99466C22.618 7.99466 21.218 9.07799 21.218 11.1113C21.218 13.1447 22.618 14.228 24.218 14.228ZM40.9482 18.578C36.1648 18.578 33.0148 15.628 33.0148 11.1113C33.0148 6.59466 36.1648 3.64466 40.9482 3.64466C44.4648 3.64466 48.0982 5.19466 48.4815 10.128H43.6815C43.3648 8.67799 42.3815 7.99466 40.9482 7.99466C39.3315 7.99466 38.0148 9.17799 38.0148 11.1113C38.0148 13.028 39.3315 14.228 40.9482 14.228C42.3815 14.228 43.3648 13.5447 43.6815 12.0613H48.4815C48.0982 17.028 44.5148 18.578 40.9482 18.578ZM50.4391 3.27799L52.6224 0.294661H58.6724L60.8557 3.27799H56.7224L56.1224 2.54466H55.1724L54.5724 3.27799H50.4391ZM49.3391 18.1113V4.11133H62.2224V8.12799H54.3724V9.49466H61.9224V12.728H54.3724V14.078H62.2224V18.1113H49.3391ZM74.5151 18.578C69.4984 18.5613 67.2151 17.0613 67.3651 13.3113H71.8818C71.9151 14.1447 72.6151 14.628 74.5151 14.6613C76.1484 14.678 76.8484 14.2447 76.8484 13.7447C76.8484 13.478 76.7818 13.0113 75.5151 12.8447L73.6818 12.5613C71.0484 12.1447 67.6818 11.9613 67.6818 8.19466C67.6818 5.378 69.9318 3.64466 74.5651 3.64466C78.6984 3.64466 81.5818 4.71133 81.4651 8.87799H76.9651C76.8151 8.06133 76.0984 7.56133 74.4484 7.56133C73.0318 7.56133 72.5151 7.96133 72.5151 8.46133C72.5151 8.69466 72.6318 9.16133 73.5818 9.31133L75.0484 9.54466C77.8651 10.0113 81.8651 9.96133 81.8651 13.9613C81.8651 17.0947 79.4651 18.5947 74.5151 18.578ZM82.6594 18.1113V4.11133H95.5427V8.12799H87.6927V9.49466H95.2427V12.728H87.6927V14.078H95.5427V18.1113H82.6594ZM96.6437 18.1113V4.11133H102.41L106.444 11.0613H106.91V4.11133H111.827V18.1113H106.177L102.01 11.1613H101.56V18.1113H96.6437ZM127.797 4.11133V8.31133H122.83V18.1113H117.78V8.31133H112.83V4.11133H127.797ZM128.792 18.1113V4.11133H141.676V8.12799H133.826V9.49466H141.376V12.728H133.826V14.078H141.676V18.1113H128.792ZM162.918 10.928C162.918 12.8613 162.152 14.328 160.985 15.4947L162.802 17.3613C161.968 18.4613 161.068 19.3447 160.002 20.2113L157.652 18.078C156.818 18.378 155.868 18.578 154.902 18.578C150.018 18.578 146.902 15.628 146.902 11.1113C146.902 6.59466 150.018 3.64466 154.902 3.64466C159.802 3.64466 162.918 6.59466 162.918 10.928ZM151.902 11.1113C151.902 13.1447 153.302 14.228 154.902 14.228C156.518 14.228 157.902 13.1447 157.902 11.1113C157.902 9.07799 156.518 7.99466 154.902 7.99466C153.302 7.99466 151.902 9.07799 151.902 11.1113ZM171.189 18.578C166.206 18.578 163.773 16.5113 163.773 11.9113V4.11133H168.856V11.7947C168.856 13.3613 169.506 14.3613 171.189 14.3613C172.873 14.3613 173.556 13.3613 173.556 11.7947V4.11133H178.606V11.878C178.606 16.5113 176.173 18.578 171.189 18.578ZM179.691 18.1113V4.11133H192.574V8.12799H184.724V9.49466H192.274V12.728H184.724V14.078H192.574V18.1113H179.691ZM204.867 18.578C199.85 18.5613 197.567 17.0613 197.717 13.3113H202.233C202.267 14.1447 202.967 14.628 204.867 14.6613C206.5 14.678 207.2 14.2447 207.2 13.7447C207.2 13.478 207.133 13.0113 205.867 12.8447L204.033 12.5613C201.4 12.1447 198.033 11.9613 198.033 8.19466C198.033 5.378 200.283 3.64466 204.917 3.64466C209.05 3.64466 211.933 4.71133 211.817 8.87799H207.317C207.167 8.06133 206.45 7.56133 204.8 7.56133C203.383 7.56133 202.867 7.96133 202.867 8.46133C202.867 8.69466 202.983 9.16133 203.933 9.31133L205.4 9.54466C208.217 10.0113 212.217 9.96133 212.217 13.9613C212.217 17.0947 209.817 18.5947 204.867 18.578ZM213.011 18.1113V4.11133H225.894V8.12799H218.044V9.49466H225.594V12.728H218.044V14.078H225.894V18.1113H213.011ZM234.412 18.578C229.429 18.578 226.995 16.5113 226.995 11.9113V4.11133H232.079V11.7947C232.079 13.3613 232.729 14.3613 234.412 14.3613C236.095 14.3613 236.779 13.3613 236.779 11.7947V4.11133H241.829V11.878C241.829 16.5113 239.395 18.578 234.412 18.578ZM261.664 4.11133V8.31133H256.697V18.1113H251.647V8.31133H246.697V4.11133H261.664ZM262.659 18.1113V4.11133H267.693V18.1113H262.659ZM268.792 18.1113V4.11133H275.126L277.009 11.478H277.376L279.259 4.11133H285.592V18.1113H280.792V12.6447H280.409L279.042 18.1113H275.342L273.976 12.6447H273.592V18.1113H268.792ZM286.683 18.1113V4.11133H299.566V8.12799H291.716V9.49466H299.266V12.728H291.716V14.078H299.566V18.1113H286.683ZM312.276 4.11133C318.059 4.11133 320.042 7.06133 320.042 11.1113C320.042 15.1447 318.059 18.1113 312.276 18.1113H305.042V4.11133H312.276ZM312.276 13.8947C313.759 13.8947 314.976 13.1947 314.976 11.1113C314.976 9.01133 313.759 8.32799 312.276 8.32799H310.109L310.092 13.8947H312.276ZM320.96 18.1113V4.11133H333.843V8.12799H325.993V9.49466H333.543V12.728H325.993V14.078H333.843V18.1113H320.96ZM5.1 42.1113L0.05 28.1113H5.25L8.36667 37.378H8.9L12.0167 28.1113H17.2333L12.1667 42.1113H5.1ZM17.8156 42.1113V28.1113H30.699V32.128H22.849V33.4947H30.399V36.728H22.849V38.078H30.699V42.1113H17.8156ZM31.8 42.1113V28.1113H37.5667L41.6 35.0613H42.0667V28.1113H46.9833V42.1113H41.3333L37.1667 35.1613H36.7167V42.1113H31.8ZM55.3029 28.1113C61.0862 28.1113 63.0695 31.0613 63.0695 35.1113C63.0695 39.1447 61.0862 42.1113 55.3029 42.1113H48.0695V28.1113H55.3029ZM55.3029 37.8947C56.7862 37.8947 58.0029 37.1947 58.0029 35.1113C58.0029 33.0113 56.7862 32.328 55.3029 32.328H53.1362L53.1195 37.8947H55.3029ZM74.1065 42.1113L73.5732 40.428H67.8732L67.3398 42.1113H62.1398L67.1898 28.1113H74.2565L79.3232 42.1113H74.1065ZM69.0565 36.7113H72.3898L71.1565 32.8447H70.2898L69.0565 36.7113ZM86.1167 42.578C81.1 42.5613 78.8167 41.0613 78.9667 37.3113H83.4833C83.5167 38.1447 84.2167 38.628 86.1167 38.6613C87.75 38.678 88.45 38.2447 88.45 37.7447C88.45 37.478 88.3833 37.0113 87.1167 36.8447L85.2833 36.5613C82.65 36.1447 79.2833 35.9613 79.2833 32.1947C79.2833 29.378 81.5333 27.6447 86.1667 27.6447C90.3 27.6447 93.1833 28.7113 93.0667 32.878H88.5667C88.4167 32.0613 87.7 31.5613 86.05 31.5613C84.6333 31.5613 84.1167 31.9613 84.1167 32.4613C84.1167 32.6947 84.2333 33.1613 85.1833 33.3113L86.65 33.5447C89.4667 34.0113 93.4667 33.9613 93.4667 37.9613C93.4667 41.0947 91.0667 42.5947 86.1167 42.578ZM98.6359 42.1113V28.1113H106.786C110.636 28.1113 112.986 29.778 112.986 33.6947C112.986 37.5947 110.636 39.2613 106.803 39.2613H103.669V42.1113H98.6359ZM103.669 35.078H106.336C107.269 35.078 107.886 34.6113 107.886 33.6947C107.886 32.7613 107.269 32.2947 106.353 32.2947H103.669V35.078ZM121.659 42.578C116.776 42.578 113.659 39.628 113.659 35.1113C113.659 30.5947 116.776 27.6447 121.659 27.6447C126.559 27.6447 129.676 30.5947 129.676 35.1113C129.676 39.628 126.559 42.578 121.659 42.578ZM121.659 38.228C123.276 38.228 124.659 37.1447 124.659 35.1113C124.659 33.078 123.276 31.9947 121.659 31.9947C120.059 31.9947 118.659 33.078 118.659 35.1113C118.659 37.1447 120.059 38.228 121.659 38.228ZM137.764 28.1113C143.547 28.1113 145.53 31.0613 145.53 35.1113C145.53 39.1447 143.547 42.1113 137.764 42.1113H130.53V28.1113H137.764ZM137.764 37.8947C139.247 37.8947 140.464 37.1947 140.464 35.1113C140.464 33.0113 139.247 32.328 137.764 32.328H135.597L135.58 37.8947H137.764ZM146.448 42.1113V28.1113H159.332V32.128H151.482V33.4947H159.032V36.728H151.482V38.078H159.332V42.1113H146.448ZM175.349 42.1113H170.399L168.633 38.678H165.466V42.1113H160.433V28.1113H168.666C172.599 28.1113 174.833 29.7447 174.833 33.578C174.833 35.4113 174.033 36.7447 172.916 37.578L175.349 42.1113ZM165.466 32.2947V34.928H168.299C169.299 34.928 169.783 34.428 169.783 33.6113C169.783 32.7947 169.299 32.2947 168.299 32.2947H165.466ZM176.214 42.1113V28.1113H181.247V42.1113H176.214ZM193.814 42.1113L193.28 40.428H187.58L187.047 42.1113H181.847L186.897 28.1113H193.964L199.03 42.1113H193.814ZM188.764 36.7113H192.097L190.864 32.8447H189.997L188.764 36.7113ZM203.987 42.1113V28.1113H212.138C215.987 28.1113 218.338 29.778 218.338 33.6947C218.338 37.5947 215.987 39.2613 212.154 39.2613H209.021V42.1113H203.987ZM209.021 35.078H211.688C212.621 35.078 213.238 34.6113 213.238 33.6947C213.238 32.7613 212.621 32.2947 211.704 32.2947H209.021V35.078ZM219.261 42.1113V28.1113H232.144V32.128H224.294V33.4947H231.844V36.728H224.294V38.078H232.144V42.1113H219.261ZM248.162 42.1113H243.212L241.445 38.678H238.279V42.1113H233.245V28.1113H241.479C245.412 28.1113 247.645 29.7447 247.645 33.578C247.645 35.4113 246.845 36.7447 245.729 37.578L248.162 42.1113ZM238.279 32.2947V34.928H241.112C242.112 34.928 242.595 34.428 242.595 33.6113C242.595 32.7947 242.112 32.2947 241.112 32.2947H238.279ZM249.027 42.1113V28.1113H261.877V32.3113H254.06V33.7447H261.56V37.3613H254.06V42.1113H249.027ZM270.409 42.578C265.526 42.578 262.409 39.628 262.409 35.1113C262.409 30.5947 265.526 27.6447 270.409 27.6447C275.309 27.6447 278.426 30.5947 278.426 35.1113C278.426 39.628 275.309 42.578 270.409 42.578ZM270.409 38.228C272.026 38.228 273.409 37.1447 273.409 35.1113C273.409 33.078 272.026 31.9947 270.409 31.9947C268.809 31.9947 267.409 33.078 267.409 35.1113C267.409 37.1447 268.809 38.228 270.409 38.228ZM294.197 42.1113H289.247L287.48 38.678H284.314V42.1113H279.28V28.1113H287.514C291.447 28.1113 293.68 29.7447 293.68 33.578C293.68 35.4113 292.88 36.7447 291.764 37.578L294.197 42.1113ZM284.314 32.2947V34.928H287.147C288.147 34.928 288.63 34.428 288.63 33.6113C288.63 32.7947 288.147 32.2947 287.147 32.2947H284.314ZM295.062 42.1113V28.1113H301.395L303.278 35.478H303.645L305.528 28.1113H311.862V42.1113H307.062V36.6447H306.678L305.312 42.1113H301.612L300.245 36.6447H299.862V42.1113H295.062ZM324.419 42.1113L323.886 40.428H318.186L317.652 42.1113H312.452L317.502 28.1113H324.569L329.636 42.1113H324.419ZM319.369 36.7113H322.702L321.469 32.8447H320.602L319.369 36.7113ZM345.135 42.1113H340.185L338.418 38.678H335.251V42.1113H330.218V28.1113H338.451C342.385 28.1113 344.618 29.7447 344.618 33.578C344.618 35.4113 343.818 36.7447 342.701 37.578L345.135 42.1113ZM335.251 32.2947V34.928H338.085C339.085 34.928 339.568 34.428 339.568 33.6113C339.568 32.7947 339.085 32.2947 338.085 32.2947H335.251ZM0.55 66.1113V52.1113H6.88333L8.76667 59.478H9.13333L11.0167 52.1113H17.35V66.1113H12.55V60.6447H12.1667L10.8 66.1113H7.1L5.73333 60.6447H5.35V66.1113H0.55ZM29.9073 66.1113L29.374 64.428H23.674L23.1406 66.1113H17.9406L22.9906 52.1113H30.0573L35.124 66.1113H29.9073ZM24.8573 60.7113H28.1906L26.9573 56.8447H26.0906L24.8573 60.7113ZM35.7062 66.1113V52.1113H40.7396V66.1113H35.7062ZM48.6557 66.578C43.6391 66.5613 41.3557 65.0613 41.5057 61.3113H46.0224C46.0557 62.1447 46.7557 62.628 48.6557 62.6613C50.2891 62.678 50.9891 62.2447 50.9891 61.7447C50.9891 61.478 50.9224 61.0113 49.6557 60.8447L47.8224 60.5613C45.1891 60.1447 41.8224 59.9613 41.8224 56.1947C41.8224 53.378 44.0724 51.6447 48.7057 51.6447C52.8391 51.6447 55.7224 52.7113 55.6057 56.878H51.1057C50.9557 56.0613 50.2391 55.5613 48.5891 55.5613C47.1724 55.5613 46.6557 55.9613 46.6557 56.4613C46.6557 56.6947 46.7724 57.1613 47.7224 57.3113L49.1891 57.5447C52.0057 58.0113 56.0057 57.9613 56.0057 61.9613C56.0057 65.0947 53.6057 66.5947 48.6557 66.578ZM60.75 60.8113C60.2167 57.078 64.65 58.1447 64.65 56.5947C64.65 56.078 63.9833 55.7447 63.0333 55.7447C62.2833 55.7447 61.0167 55.8947 61.0167 57.378H56.4667C56.2667 53.5613 58.7 51.7447 63 51.7447C66.9833 51.7447 69.6667 53.028 69.6667 55.9947C69.6667 59.778 65.6667 58.628 65.6167 60.8113H60.75ZM63.1667 66.378C61.8333 66.378 60.7 65.2613 60.7 63.9447C60.7 62.6113 61.8333 61.4947 63.1667 61.4947C64.5167 61.4947 65.65 62.6113 65.65 63.9447C65.65 65.2613 64.5167 66.378 63.1667 66.378Z" fill="#F8F8F8"/>
</svg>
