<svg width="209" height="19" viewBox="0 0 209 19" fill="none" xmlns="http://www.w3.org/2000/svg">
<path d="M13.3667 9.28C13.3667 10.8267 12.78 12.0533 11.82 13.04L13.3 14.5333C12.74 15.2667 12.14 15.8533 11.4333 16.44L9.67333 14.8133C8.91333 15.1333 8.02 15.3733 7.08667 15.3733C3.3 15.3733 0.806667 12.96 0.806667 9.4C0.806667 5.84 3.3 3.42667 7.08667 3.42667C10.8733 3.42667 13.3667 5.84 13.3667 9.28ZM4.12667 9.4C4.12667 11.32 5.44667 12.48 7.08667 12.48C8.72667 12.48 10.0467 11.32 10.0467 9.4C10.0467 7.48 8.72667 6.32 7.08667 6.32C5.44667 6.32 4.12667 7.48 4.12667 9.4ZM20.8452 15.3733C17.1252 15.3733 15.1785 13.7333 15.1785 10.1867V3.8H18.5519V10.1067C18.5519 11.6267 19.2585 12.56 20.8452 12.56C22.4319 12.56 23.1519 11.6267 23.1519 10.1067V3.8H26.5119V10.1733C26.5119 13.7333 24.5652 15.3733 20.8452 15.3733ZM28.5067 15V3.8H38.3733V6.49333H31.8533V8.26667H38.1333V10.52H31.8533V12.2933H38.3733V15H28.5067ZM51.715 15H48.4217L46.795 11.96H43.7283V15H40.3817V3.8H46.6083C49.6883 3.8 51.3817 5.16 51.3817 7.98667C51.3817 9.52 50.675 10.6133 49.6617 11.2667L51.715 15ZM43.7283 6.58667V9.44H46.395C47.4617 9.44 48.035 8.93333 48.035 8.01333C48.035 7.09333 47.4617 6.58667 46.395 6.58667H43.7283ZM59.2742 15.3733C55.4875 15.3733 52.9942 12.96 52.9942 9.4C52.9942 5.84 55.4875 3.42667 59.2742 3.42667C63.0608 3.42667 65.5542 5.84 65.5542 9.4C65.5542 12.96 63.0608 15.3733 59.2742 15.3733ZM59.2742 12.48C60.9142 12.48 62.2342 11.32 62.2342 9.4C62.2342 7.48 60.9142 6.32 59.2742 6.32C57.6342 6.32 56.3142 7.48 56.3142 9.4C56.3142 11.32 57.6342 12.48 59.2742 12.48ZM71.8035 15V3.8H75.1502V15H71.8035ZM77.1473 15V3.8H81.0006L85.214 10.3467H85.5206V3.8H88.7873V15H85.014L80.7073 8.45333H80.414V15H77.1473ZM90.7879 15V3.8H100.628V6.6H94.1346V8.49333H100.321V10.9333H94.1346V15H90.7879ZM108.493 15.3733C104.706 15.3733 102.213 12.96 102.213 9.4C102.213 5.84 104.706 3.42667 108.493 3.42667C112.28 3.42667 114.773 5.84 114.773 9.4C114.773 12.96 112.28 15.3733 108.493 15.3733ZM108.493 12.48C110.133 12.48 111.453 11.32 111.453 9.4C111.453 7.48 110.133 6.32 108.493 6.32C106.853 6.32 105.533 7.48 105.533 9.4C105.533 11.32 106.853 12.48 108.493 12.48ZM127.918 15H124.625L122.998 11.96H119.931V15H116.585V3.8H122.811C125.891 3.8 127.585 5.16 127.585 7.98667C127.585 9.52 126.878 10.6133 125.865 11.2667L127.918 15ZM119.931 6.58667V9.44H122.598C123.665 9.44 124.238 8.93333 124.238 8.01333C124.238 7.09333 123.665 6.58667 122.598 6.58667H119.931ZM129.725 15V3.8H133.952L136.099 10.68H136.339L138.485 3.8H142.725V15H139.525V9.44H139.259L137.485 15H134.965L133.192 9.44H132.912V15H129.725ZM153.939 15L153.379 13.3867H148.339L147.779 15H144.325L148.512 3.8H153.205L157.405 15H153.939ZM149.205 10.8933H152.512L151.152 6.94667H150.565L149.205 10.8933ZM164 12.48C165.266 12.48 166.213 11.88 166.573 10.56H169.773C169.373 14.0133 166.96 15.24 164.453 15.36L164.306 15.48C165.04 15.5333 165.826 15.9867 165.826 16.9867C165.826 18.3733 164.253 18.8933 162.506 18.5333V17.2133C163.573 17.44 163.986 17.2133 163.986 17.0267C163.986 16.8267 163.573 16.52 162.506 16.7867V15.9333L163.253 15.3333C159.933 15.04 157.76 12.72 157.76 9.4C157.76 5.84 160.266 3.42667 164 3.42667C166.64 3.42667 169.346 4.58667 169.773 8.21333H166.573C166.213 6.92 165.266 6.32 164 6.32C162.36 6.32 161.08 7.54667 161.08 9.4C161.08 11.24 162.36 12.48 164 12.48ZM178.948 3.10667C177.854 3.10667 177.227 2.29333 176.374 2.29333C175.894 2.29333 175.601 2.53333 175.561 2.93333H174.601C174.388 1.37333 175.468 0.719999 176.588 0.719999C177.668 0.719999 178.308 1.53333 179.161 1.53333C179.628 1.53333 179.921 1.29333 179.974 0.893333H180.934C181.148 2.45333 180.068 3.10667 178.948 3.10667ZM177.774 15.3733C173.987 15.3733 171.494 12.96 171.494 9.4C171.494 5.84 173.987 3.42667 177.774 3.42667C181.561 3.42667 184.054 5.84 184.054 9.4C184.054 12.96 181.561 15.3733 177.774 15.3733ZM177.774 12.48C179.414 12.48 180.734 11.32 180.734 9.4C180.734 7.48 179.414 6.32 177.774 6.32C176.134 6.32 174.814 7.48 174.814 9.4C174.814 11.32 176.134 12.48 177.774 12.48ZM185.866 15V3.8H195.733V6.49333H189.213V8.26667H195.493V10.52H189.213V12.2933H195.733V15H185.866ZM202.925 15.3733C199.205 15.36 197.392 14.16 197.459 11.3467H200.472C200.525 12.2 201.245 12.7333 202.925 12.7467C204.445 12.76 205.192 12.2933 205.192 11.6533C205.192 11.16 204.845 10.7867 203.672 10.6L202.259 10.3733C200.139 10.0133 197.739 9.65333 197.739 6.93333C197.739 4.74667 199.525 3.42667 202.952 3.42667C206.059 3.42667 208.232 4.36 208.192 7.42667H205.205C205.059 6.58667 204.379 6.05333 202.872 6.05333C201.552 6.05333 200.952 6.46667 200.952 7.09333C200.952 7.53333 201.259 7.93333 202.219 8.09333L203.405 8.30667C205.605 8.68 208.512 8.84 208.512 11.7867C208.512 14.1467 206.645 15.3867 202.925 15.3733Z" fill="white"/>
</svg>
