<svg width="343" height="81" viewBox="0 0 343 81" fill="none" xmlns="http://www.w3.org/2000/svg">
<path d="M5.98631 6.755V5.39H10.6363V11H9.40631L9.12131 9.575C8.32131 10.685 7.16131 11.24 5.64131 11.24C4.10131 11.24 2.87631 10.725 1.96631 9.695C1.03631 8.675 0.571309 7.33 0.571309 5.66C0.571309 3.97 1.04131 2.62 1.98131 1.61C2.91131 0.589999 4.16131 0.0799993 5.73131 0.0799993C7.04131 0.0799993 8.12631 0.419999 8.98631 1.1C9.83631 1.79 10.3463 2.705 10.5163 3.845H8.86631C8.71631 3.125 8.35631 2.555 7.78631 2.135C7.22631 1.715 6.54631 1.505 5.74631 1.505C4.67631 1.505 3.82631 1.88 3.19631 2.63C2.55631 3.37 2.23631 4.38 2.23631 5.66C2.23631 6.94 2.55631 7.95 3.19631 8.69C3.84631 9.44 4.70631 9.815 5.77631 9.815C6.70631 9.815 7.49131 9.525 8.13131 8.945C8.77131 8.375 9.10631 7.645 9.13631 6.755H5.98631ZM19.2592 7.19V7.625H13.4242C13.4942 8.385 13.7192 8.96 14.0992 9.35C14.4792 9.73 14.9942 9.92 15.6442 9.92C16.6242 9.92 17.2642 9.49 17.5642 8.63H19.0792C18.8692 9.42 18.4592 10.045 17.8492 10.505C17.2492 10.955 16.5042 11.18 15.6142 11.18C14.5042 11.18 13.6092 10.81 12.9292 10.07C12.2492 9.33 11.9092 8.35 11.9092 7.13C11.9092 5.91 12.2492 4.93 12.9292 4.19C13.6092 3.45 14.4942 3.08 15.5842 3.08C16.7242 3.08 17.6242 3.465 18.2842 4.235C18.9342 5.005 19.2592 5.99 19.2592 7.19ZM15.5842 4.34C14.9942 4.34 14.5092 4.52 14.1292 4.88C13.7592 5.24 13.5292 5.76 13.4392 6.44H17.7142C17.6442 5.81 17.4192 5.305 17.0392 4.925C16.6692 4.535 16.1842 4.34 15.5842 4.34ZM24.4445 3.14C24.6645 3.14 24.8095 3.145 24.8795 3.155V4.58H24.5045C23.7345 4.58 23.1395 4.77 22.7195 5.15C22.2995 5.53 22.0895 6.08 22.0895 6.8V11H20.5895V3.26H22.0295V4.64C22.5195 3.64 23.3245 3.14 24.4445 3.14ZM32.1274 9.845H32.5474V11C32.3274 11.03 32.0824 11.045 31.8124 11.045C31.3324 11.045 30.9724 10.96 30.7324 10.79C30.5024 10.61 30.3624 10.33 30.3124 9.95C29.7924 10.77 28.9524 11.18 27.7924 11.18C26.9424 11.18 26.2674 10.98 25.7674 10.58C25.2774 10.17 25.0324 9.605 25.0324 8.885C25.0324 7.485 26.0024 6.685 27.9424 6.485L29.0824 6.365C29.4824 6.315 29.7724 6.215 29.9524 6.065C30.1424 5.905 30.2374 5.68 30.2374 5.39C30.2374 5 30.1124 4.72 29.8624 4.55C29.6224 4.37 29.2174 4.28 28.6474 4.28C28.0274 4.28 27.5824 4.385 27.3124 4.595C27.0424 4.795 26.8874 5.155 26.8474 5.675H25.3624C25.4724 3.945 26.5674 3.08 28.6474 3.08C30.6874 3.08 31.7074 3.84 31.7074 5.36V9.455C31.7074 9.715 31.8474 9.845 32.1274 9.845ZM28.0174 10.01C28.6574 10.01 29.1874 9.83 29.6074 9.47C30.0274 9.11 30.2374 8.6 30.2374 7.94V7.13C30.0474 7.29 29.7274 7.395 29.2774 7.445L28.1974 7.565C27.6174 7.635 27.2024 7.775 26.9524 7.985C26.7024 8.185 26.5774 8.47 26.5774 8.84C26.5774 9.21 26.6974 9.5 26.9374 9.71C27.1874 9.91 27.5474 10.01 28.0174 10.01ZM41.9987 3.08C42.8387 3.08 43.4937 3.33 43.9637 3.83C44.4337 4.32 44.6687 4.98 44.6687 5.81V11H43.1537V6.005C43.1537 4.935 42.6587 4.4 41.6687 4.4C41.1387 4.4 40.7037 4.605 40.3637 5.015C40.0237 5.415 39.8537 5.995 39.8537 6.755V11H38.3537V6.005C38.3537 4.935 37.8537 4.4 36.8537 4.4C36.3237 4.4 35.8887 4.605 35.5487 5.015C35.2087 5.425 35.0387 6.005 35.0387 6.755V11H33.5387V3.26H34.9787V4.415C35.5087 3.525 36.2537 3.08 37.2137 3.08C38.3837 3.08 39.1787 3.565 39.5987 4.535C40.1487 3.565 40.9487 3.08 41.9987 3.08ZM52.5965 10.07C51.8865 10.81 50.9615 11.18 49.8215 11.18C48.6815 11.18 47.7565 10.81 47.0465 10.07C46.3365 9.33 45.9815 8.35 45.9815 7.13C45.9815 5.9 46.3365 4.915 47.0465 4.175C47.7465 3.445 48.6715 3.08 49.8215 3.08C50.9715 3.08 51.8965 3.445 52.5965 4.175C53.2965 4.905 53.6465 5.89 53.6465 7.13C53.6465 8.36 53.2965 9.34 52.5965 10.07ZM48.1565 9.155C48.5665 9.645 49.1215 9.89 49.8215 9.89C50.5215 9.89 51.0715 9.645 51.4715 9.155C51.8815 8.665 52.0865 7.99 52.0865 7.13C52.0865 6.27 51.8815 5.595 51.4715 5.105C51.0715 4.615 50.5215 4.37 49.8215 4.37C49.1215 4.37 48.5665 4.615 48.1565 5.105C47.7465 5.595 47.5415 6.27 47.5415 7.13C47.5415 7.99 47.7465 8.665 48.1565 9.155ZM57.7172 11.195C55.5672 11.195 54.4372 10.31 54.3272 8.54H55.8272C55.8872 9.08 56.0622 9.46 56.3522 9.68C56.6422 9.9 57.1022 10.01 57.7322 10.01C58.8722 10.01 59.4422 9.65 59.4422 8.93C59.4422 8.62 59.3222 8.38 59.0822 8.21C58.8422 8.04 58.4122 7.9 57.7922 7.79L56.9972 7.64C55.3572 7.34 54.5372 6.57 54.5372 5.33C54.5372 4.64 54.8022 4.095 55.3322 3.695C55.8622 3.285 56.5922 3.08 57.5222 3.08C59.6522 3.08 60.7422 3.945 60.7922 5.675H59.3372C59.3072 5.155 59.1472 4.79 58.8572 4.58C58.5672 4.36 58.1222 4.25 57.5222 4.25C57.0422 4.25 56.6722 4.34 56.4122 4.52C56.1522 4.7 56.0222 4.955 56.0222 5.285C56.0222 5.585 56.1372 5.82 56.3672 5.99C56.5972 6.15 56.9622 6.28 57.4622 6.38L58.2722 6.515C59.2222 6.695 59.9072 6.965 60.3272 7.325C60.7472 7.685 60.9572 8.185 60.9572 8.825C60.9572 9.575 60.6722 10.16 60.1022 10.58C59.5322 10.99 58.7372 11.195 57.7172 11.195ZM68.4361 11.18C67.3361 11.18 66.4461 10.81 65.7661 10.07C65.0861 9.33 64.7461 8.35 64.7461 7.13C64.7461 5.9 65.0861 4.915 65.7661 4.175C66.4361 3.445 67.3261 3.08 68.4361 3.08C69.3861 3.08 70.1661 3.34 70.7761 3.86C71.3961 4.38 71.7661 5.08 71.8861 5.96H70.3561C70.2561 5.45 70.0311 5.06 69.6811 4.79C69.3411 4.52 68.9261 4.385 68.4361 4.385C67.7861 4.385 67.2661 4.625 66.8761 5.105C66.4961 5.575 66.3061 6.25 66.3061 7.13C66.3061 8.01 66.4961 8.69 66.8761 9.17C67.2661 9.64 67.7861 9.875 68.4361 9.875C68.9361 9.875 69.3611 9.735 69.7111 9.455C70.0611 9.175 70.2811 8.77 70.3711 8.24H71.9011C71.7811 9.14 71.4061 9.855 70.7761 10.385C70.1461 10.915 69.3661 11.18 68.4361 11.18ZM76.9299 3.14C77.1499 3.14 77.2949 3.145 77.3649 3.155V4.58H76.9899C76.2199 4.58 75.6249 4.77 75.2049 5.15C74.7849 5.53 74.5749 6.08 74.5749 6.8V11H73.0749V3.26H74.5149V4.64C75.0049 3.64 75.8099 3.14 76.9299 3.14ZM85.0307 7.19V7.625H79.1957C79.2657 8.385 79.4907 8.96 79.8707 9.35C80.2507 9.73 80.7657 9.92 81.4157 9.92C82.3957 9.92 83.0357 9.49 83.3357 8.63H84.8507C84.6407 9.42 84.2307 10.045 83.6207 10.505C83.0207 10.955 82.2757 11.18 81.3857 11.18C80.2757 11.18 79.3807 10.81 78.7007 10.07C78.0207 9.33 77.6807 8.35 77.6807 7.13C77.6807 5.91 78.0207 4.93 78.7007 4.19C79.3807 3.45 80.2657 3.08 81.3557 3.08C82.4957 3.08 83.3957 3.465 84.0557 4.235C84.7057 5.005 85.0307 5.99 85.0307 7.19ZM81.3557 4.34C80.7657 4.34 80.2807 4.52 79.9007 4.88C79.5307 5.24 79.3007 5.76 79.2107 6.44H83.4857C83.4157 5.81 83.1907 5.305 82.8107 4.925C82.4407 4.535 81.9557 4.34 81.3557 4.34ZM89.1821 11.195C87.0321 11.195 85.9021 10.31 85.7921 8.54H87.2921C87.3521 9.08 87.5271 9.46 87.8171 9.68C88.1071 9.9 88.5671 10.01 89.1971 10.01C90.3371 10.01 90.9071 9.65 90.9071 8.93C90.9071 8.62 90.7871 8.38 90.5471 8.21C90.3071 8.04 89.8771 7.9 89.2571 7.79L88.4621 7.64C86.8221 7.34 86.0021 6.57 86.0021 5.33C86.0021 4.64 86.2671 4.095 86.7971 3.695C87.3271 3.285 88.0571 3.08 88.9871 3.08C91.1171 3.08 92.2071 3.945 92.2571 5.675H90.8021C90.7721 5.155 90.6121 4.79 90.3221 4.58C90.0321 4.36 89.5871 4.25 88.9871 4.25C88.5071 4.25 88.1371 4.34 87.8771 4.52C87.6171 4.7 87.4871 4.955 87.4871 5.285C87.4871 5.585 87.6021 5.82 87.8321 5.99C88.0621 6.15 88.4271 6.28 88.9271 6.38L89.7371 6.515C90.6871 6.695 91.3721 6.965 91.7921 7.325C92.2121 7.685 92.4221 8.185 92.4221 8.825C92.4221 9.575 92.1371 10.16 91.5671 10.58C90.9971 10.99 90.2021 11.195 89.1821 11.195ZM96.8687 11.18C95.7687 11.18 94.8787 10.81 94.1987 10.07C93.5187 9.33 93.1787 8.35 93.1787 7.13C93.1787 5.9 93.5187 4.915 94.1987 4.175C94.8687 3.445 95.7587 3.08 96.8687 3.08C97.8187 3.08 98.5987 3.34 99.2087 3.86C99.8287 4.38 100.199 5.08 100.319 5.96H98.7887C98.6887 5.45 98.4637 5.06 98.1137 4.79C97.7737 4.52 97.3587 4.385 96.8687 4.385C96.2187 4.385 95.6987 4.625 95.3087 5.105C94.9287 5.575 94.7387 6.25 94.7387 7.13C94.7387 8.01 94.9287 8.69 95.3087 9.17C95.6987 9.64 96.2187 9.875 96.8687 9.875C97.3687 9.875 97.7937 9.735 98.1437 9.455C98.4937 9.175 98.7137 8.77 98.8037 8.24H100.334C100.214 9.14 99.8387 9.855 99.2087 10.385C98.5787 10.915 97.7987 11.18 96.8687 11.18ZM103.022 2.165H101.492V0.559999H103.022V2.165ZM103.007 11H101.507V3.26H103.007V11ZM113.146 3.08C113.986 3.08 114.641 3.33 115.111 3.83C115.581 4.32 115.816 4.98 115.816 5.81V11H114.301V6.005C114.301 4.935 113.806 4.4 112.816 4.4C112.286 4.4 111.851 4.605 111.511 5.015C111.171 5.415 111.001 5.995 111.001 6.755V11H109.501V6.005C109.501 4.935 109.001 4.4 108.001 4.4C107.471 4.4 107.036 4.605 106.696 5.015C106.356 5.425 106.186 6.005 106.186 6.755V11H104.686V3.26H106.126V4.415C106.656 3.525 107.401 3.08 108.361 3.08C109.531 3.08 110.326 3.565 110.746 4.535C111.296 3.565 112.096 3.08 113.146 3.08ZM124.479 7.19V7.625H118.644C118.714 8.385 118.939 8.96 119.319 9.35C119.699 9.73 120.214 9.92 120.864 9.92C121.844 9.92 122.484 9.49 122.784 8.63H124.299C124.089 9.42 123.679 10.045 123.069 10.505C122.469 10.955 121.724 11.18 120.834 11.18C119.724 11.18 118.829 10.81 118.149 10.07C117.469 9.33 117.129 8.35 117.129 7.13C117.129 5.91 117.469 4.93 118.149 4.19C118.829 3.45 119.714 3.08 120.804 3.08C121.944 3.08 122.844 3.465 123.504 4.235C124.154 5.005 124.479 5.99 124.479 7.19ZM120.804 4.34C120.214 4.34 119.729 4.52 119.349 4.88C118.979 5.24 118.749 5.76 118.659 6.44H122.934C122.864 5.81 122.639 5.305 122.259 4.925C121.889 4.535 121.404 4.34 120.804 4.34ZM129.679 3.08C130.529 3.08 131.194 3.32 131.674 3.8C132.154 4.27 132.394 4.94 132.394 5.81V11H130.894V6.02C130.894 4.94 130.349 4.4 129.259 4.4C128.759 4.4 128.309 4.59 127.909 4.97C127.509 5.36 127.309 5.915 127.309 6.635V11H125.809V3.26H127.249V4.415C127.839 3.525 128.649 3.08 129.679 3.08ZM137.482 3.26V4.49H135.922V9.14C135.922 9.37 135.987 9.54 136.117 9.65C136.257 9.75 136.487 9.8 136.807 9.8H137.482V11C137.152 11.03 136.847 11.045 136.567 11.045C135.837 11.045 135.297 10.905 134.947 10.625C134.597 10.345 134.422 9.895 134.422 9.275V4.49H133.177V3.26H134.422V1.04H135.922V3.26H137.482ZM144.794 10.07C144.084 10.81 143.159 11.18 142.019 11.18C140.879 11.18 139.954 10.81 139.244 10.07C138.534 9.33 138.179 8.35 138.179 7.13C138.179 5.9 138.534 4.915 139.244 4.175C139.944 3.445 140.869 3.08 142.019 3.08C143.169 3.08 144.094 3.445 144.794 4.175C145.494 4.905 145.844 5.89 145.844 7.13C145.844 8.36 145.494 9.34 144.794 10.07ZM140.354 9.155C140.764 9.645 141.319 9.89 142.019 9.89C142.719 9.89 143.269 9.645 143.669 9.155C144.079 8.665 144.284 7.99 144.284 7.13C144.284 6.27 144.079 5.595 143.669 5.105C143.269 4.615 142.719 4.37 142.019 4.37C141.319 4.37 140.764 4.615 140.354 5.105C139.944 5.595 139.739 6.27 139.739 7.13C139.739 7.99 139.944 8.665 140.354 9.155ZM157.189 7.19V7.625H151.354C151.424 8.385 151.649 8.96 152.029 9.35C152.409 9.73 152.924 9.92 153.574 9.92C154.554 9.92 155.194 9.49 155.494 8.63H157.009C156.799 9.42 156.389 10.045 155.779 10.505C155.179 10.955 154.434 11.18 153.544 11.18C152.434 11.18 151.539 10.81 150.859 10.07C150.179 9.33 149.839 8.35 149.839 7.13C149.839 5.91 150.179 4.93 150.859 4.19C151.539 3.45 152.424 3.08 153.514 3.08C154.654 3.08 155.554 3.465 156.214 4.235C156.864 5.005 157.189 5.99 157.189 7.19ZM153.514 4.34C152.924 4.34 152.439 4.52 152.059 4.88C151.689 5.24 151.459 5.76 151.369 6.44H155.644C155.574 5.81 155.349 5.305 154.969 4.925C154.599 4.535 154.114 4.34 153.514 4.34ZM166.979 3.08C167.819 3.08 168.474 3.33 168.944 3.83C169.414 4.32 169.649 4.98 169.649 5.81V11H168.134V6.005C168.134 4.935 167.639 4.4 166.649 4.4C166.119 4.4 165.684 4.605 165.344 5.015C165.004 5.415 164.834 5.995 164.834 6.755V11H163.334V6.005C163.334 4.935 162.834 4.4 161.834 4.4C161.304 4.4 160.869 4.605 160.529 5.015C160.189 5.425 160.019 6.005 160.019 6.755V11H158.519V3.26H159.959V4.415C160.489 3.525 161.234 3.08 162.194 3.08C163.364 3.08 164.159 3.565 164.579 4.535C165.129 3.565 165.929 3.08 166.979 3.08ZM178.149 1.535H177.474C176.804 1.535 176.469 1.875 176.469 2.555V3.26H178.089V4.49H176.469V11H174.969V4.49H173.724V3.26H174.969V2.555C174.969 1.035 175.744 0.274999 177.294 0.274999C177.444 0.274999 177.729 0.29 178.149 0.32V1.535ZM185.453 9.845H185.873V11C185.653 11.03 185.408 11.045 185.138 11.045C184.658 11.045 184.298 10.96 184.058 10.79C183.828 10.61 183.688 10.33 183.638 9.95C183.118 10.77 182.278 11.18 181.118 11.18C180.268 11.18 179.593 10.98 179.093 10.58C178.603 10.17 178.358 9.605 178.358 8.885C178.358 7.485 179.328 6.685 181.268 6.485L182.408 6.365C182.808 6.315 183.098 6.215 183.278 6.065C183.468 5.905 183.563 5.68 183.563 5.39C183.563 5 183.438 4.72 183.188 4.55C182.948 4.37 182.543 4.28 181.973 4.28C181.353 4.28 180.908 4.385 180.638 4.595C180.368 4.795 180.213 5.155 180.173 5.675H178.688C178.798 3.945 179.893 3.08 181.973 3.08C184.013 3.08 185.033 3.84 185.033 5.36V9.455C185.033 9.715 185.173 9.845 185.453 9.845ZM181.343 10.01C181.983 10.01 182.513 9.83 182.933 9.47C183.353 9.11 183.563 8.6 183.563 7.94V7.13C183.373 7.29 183.053 7.395 182.603 7.445L181.523 7.565C180.943 7.635 180.528 7.775 180.278 7.985C180.028 8.185 179.903 8.47 179.903 8.84C179.903 9.21 180.023 9.5 180.263 9.71C180.513 9.91 180.873 10.01 181.343 10.01ZM190.275 3.26V4.49H188.715V9.14C188.715 9.37 188.78 9.54 188.91 9.65C189.05 9.75 189.28 9.8 189.6 9.8H190.275V11C189.945 11.03 189.64 11.045 189.36 11.045C188.63 11.045 188.09 10.905 187.74 10.625C187.39 10.345 187.215 9.895 187.215 9.275V4.49H185.97V3.26H187.215V1.04H188.715V3.26H190.275ZM196.563 7.625V3.26H198.063V11H196.623V9.845C196.033 10.735 195.223 11.18 194.193 11.18C193.343 11.18 192.678 10.94 192.198 10.46C191.718 9.98 191.478 9.31 191.478 8.45V3.26H192.978V8.24C192.978 9.32 193.523 9.86 194.613 9.86C195.163 9.86 195.623 9.665 195.993 9.275C196.373 8.875 196.563 8.325 196.563 7.625ZM203.61 3.14C203.83 3.14 203.975 3.145 204.045 3.155V4.58H203.67C202.9 4.58 202.305 4.77 201.885 5.15C201.465 5.53 201.255 6.08 201.255 6.8V11H199.755V3.26H201.195V4.64C201.685 3.64 202.49 3.14 203.61 3.14ZM211.292 9.845H211.712V11C211.492 11.03 211.247 11.045 210.977 11.045C210.497 11.045 210.137 10.96 209.897 10.79C209.667 10.61 209.527 10.33 209.477 9.95C208.957 10.77 208.117 11.18 206.957 11.18C206.107 11.18 205.432 10.98 204.932 10.58C204.442 10.17 204.197 9.605 204.197 8.885C204.197 7.485 205.167 6.685 207.107 6.485L208.247 6.365C208.647 6.315 208.937 6.215 209.117 6.065C209.307 5.905 209.402 5.68 209.402 5.39C209.402 5 209.277 4.72 209.027 4.55C208.787 4.37 208.382 4.28 207.812 4.28C207.192 4.28 206.747 4.385 206.477 4.595C206.207 4.795 206.052 5.155 206.012 5.675H204.527C204.637 3.945 205.732 3.08 207.812 3.08C209.852 3.08 210.872 3.84 210.872 5.36V9.455C210.872 9.715 211.012 9.845 211.292 9.845ZM207.182 10.01C207.822 10.01 208.352 9.83 208.772 9.47C209.192 9.11 209.402 8.6 209.402 7.94V7.13C209.212 7.29 208.892 7.395 208.442 7.445L207.362 7.565C206.782 7.635 206.367 7.775 206.117 7.985C205.867 8.185 205.742 8.47 205.742 8.84C205.742 9.21 205.862 9.5 206.102 9.71C206.352 9.91 206.712 10.01 207.182 10.01ZM221.164 3.08C222.004 3.08 222.659 3.33 223.129 3.83C223.599 4.32 223.834 4.98 223.834 5.81V11H222.319V6.005C222.319 4.935 221.824 4.4 220.834 4.4C220.304 4.4 219.869 4.605 219.529 5.015C219.189 5.415 219.019 5.995 219.019 6.755V11H217.519V6.005C217.519 4.935 217.019 4.4 216.019 4.4C215.489 4.4 215.054 4.605 214.714 5.015C214.374 5.425 214.204 6.005 214.204 6.755V11H212.704V3.26H214.144V4.415C214.674 3.525 215.419 3.08 216.379 3.08C217.549 3.08 218.344 3.565 218.764 4.535C219.314 3.565 220.114 3.08 221.164 3.08ZM232.497 7.19V7.625H226.662C226.732 8.385 226.957 8.96 227.337 9.35C227.717 9.73 228.232 9.92 228.882 9.92C229.862 9.92 230.502 9.49 230.802 8.63H232.317C232.107 9.42 231.697 10.045 231.087 10.505C230.487 10.955 229.742 11.18 228.852 11.18C227.742 11.18 226.847 10.81 226.167 10.07C225.487 9.33 225.147 8.35 225.147 7.13C225.147 5.91 225.487 4.93 226.167 4.19C226.847 3.45 227.732 3.08 228.822 3.08C229.962 3.08 230.862 3.465 231.522 4.235C232.172 5.005 232.497 5.99 232.497 7.19ZM228.822 4.34C228.232 4.34 227.747 4.52 227.367 4.88C226.997 5.24 226.767 5.76 226.677 6.44H230.952C230.882 5.81 230.657 5.305 230.277 4.925C229.907 4.535 229.422 4.34 228.822 4.34ZM237.697 3.08C238.547 3.08 239.212 3.32 239.692 3.8C240.172 4.27 240.412 4.94 240.412 5.81V11H238.912V6.02C238.912 4.94 238.367 4.4 237.277 4.4C236.777 4.4 236.327 4.59 235.927 4.97C235.527 5.36 235.327 5.915 235.327 6.635V11H233.827V3.26H235.267V4.415C235.857 3.525 236.667 3.08 237.697 3.08ZM245.5 3.26V4.49H243.94V9.14C243.94 9.37 244.005 9.54 244.135 9.65C244.275 9.75 244.505 9.8 244.825 9.8H245.5V11C245.17 11.03 244.865 11.045 244.585 11.045C243.855 11.045 243.315 10.905 242.965 10.625C242.615 10.345 242.44 9.895 242.44 9.275V4.49H241.195V3.26H242.44V1.04H243.94V3.26H245.5ZM252.811 10.07C252.101 10.81 251.176 11.18 250.036 11.18C248.896 11.18 247.971 10.81 247.261 10.07C246.551 9.33 246.196 8.35 246.196 7.13C246.196 5.9 246.551 4.915 247.261 4.175C247.961 3.445 248.886 3.08 250.036 3.08C251.186 3.08 252.111 3.445 252.811 4.175C253.511 4.905 253.861 5.89 253.861 7.13C253.861 8.36 253.511 9.34 252.811 10.07ZM248.371 9.155C248.781 9.645 249.336 9.89 250.036 9.89C250.736 9.89 251.286 9.645 251.686 9.155C252.096 8.665 252.301 7.99 252.301 7.13C252.301 6.27 252.096 5.595 251.686 5.105C251.286 4.615 250.736 4.37 250.036 4.37C249.336 4.37 248.781 4.615 248.371 5.105C247.961 5.595 247.756 6.27 247.756 7.13C247.756 7.99 247.961 8.665 248.371 9.155ZM256.277 11H254.462V9.215H256.277V11ZM270.35 11H268.655L267.605 8.225H262.805L261.77 11H260.105L264.275 0.32H266.12L270.35 11ZM263.54 6.245L263.315 6.83H267.08L266.855 6.245C266.325 4.925 265.77 3.465 265.19 1.865C264.5 3.705 263.95 5.165 263.54 6.245ZM283.973 11H282.278L281.228 8.225H276.428L275.393 11H273.728L277.898 0.32H279.743L283.973 11ZM277.163 6.245L276.938 6.83H280.703L280.478 6.245C279.948 4.925 279.393 3.465 278.813 1.865C278.123 3.705 277.573 5.165 277.163 6.245ZM288.732 3.14C288.952 3.14 289.097 3.145 289.167 3.155V4.58H288.792C288.022 4.58 287.427 4.77 287.007 5.15C286.587 5.53 286.377 6.08 286.377 6.8V11H284.877V3.26H286.317V4.64C286.807 3.64 287.612 3.14 288.732 3.14ZM298.713 3.08C299.553 3.08 300.208 3.33 300.678 3.83C301.148 4.32 301.383 4.98 301.383 5.81V11H299.868V6.005C299.868 4.935 299.373 4.4 298.383 4.4C297.853 4.4 297.418 4.605 297.078 5.015C296.738 5.415 296.568 5.995 296.568 6.755V11H295.068V6.005C295.068 4.935 294.568 4.4 293.568 4.4C293.038 4.4 292.603 4.605 292.263 5.015C291.923 5.425 291.753 6.005 291.753 6.755V11H290.253V3.26H291.693V4.415C292.223 3.525 292.968 3.08 293.928 3.08C295.098 3.08 295.893 3.565 296.313 4.535C296.863 3.565 297.663 3.08 298.713 3.08ZM309.31 10.07C308.6 10.81 307.675 11.18 306.535 11.18C305.395 11.18 304.47 10.81 303.76 10.07C303.05 9.33 302.695 8.35 302.695 7.13C302.695 5.9 303.05 4.915 303.76 4.175C304.46 3.445 305.385 3.08 306.535 3.08C307.685 3.08 308.61 3.445 309.31 4.175C310.01 4.905 310.36 5.89 310.36 7.13C310.36 8.36 310.01 9.34 309.31 10.07ZM304.87 9.155C305.28 9.645 305.835 9.89 306.535 9.89C307.235 9.89 307.785 9.645 308.185 9.155C308.595 8.665 308.8 7.99 308.8 7.13C308.8 6.27 308.595 5.595 308.185 5.105C307.785 4.615 307.235 4.37 306.535 4.37C305.835 4.37 305.28 4.615 304.87 5.105C304.46 5.595 304.255 6.27 304.255 7.13C304.255 7.99 304.46 8.665 304.87 9.155ZM321.375 9.845H321.795V11C321.575 11.03 321.33 11.045 321.06 11.045C320.58 11.045 320.22 10.96 319.98 10.79C319.75 10.61 319.61 10.33 319.56 9.95C319.04 10.77 318.2 11.18 317.04 11.18C316.19 11.18 315.515 10.98 315.015 10.58C314.525 10.17 314.28 9.605 314.28 8.885C314.28 7.485 315.25 6.685 317.19 6.485L318.33 6.365C318.73 6.315 319.02 6.215 319.2 6.065C319.39 5.905 319.485 5.68 319.485 5.39C319.485 5 319.36 4.72 319.11 4.55C318.87 4.37 318.465 4.28 317.895 4.28C317.275 4.28 316.83 4.385 316.56 4.595C316.29 4.795 316.135 5.155 316.095 5.675H314.61C314.72 3.945 315.815 3.08 317.895 3.08C319.935 3.08 320.955 3.84 320.955 5.36V9.455C320.955 9.715 321.095 9.845 321.375 9.845ZM317.265 10.01C317.905 10.01 318.435 9.83 318.855 9.47C319.275 9.11 319.485 8.6 319.485 7.94V7.13C319.295 7.29 318.975 7.395 318.525 7.445L317.445 7.565C316.865 7.635 316.45 7.775 316.2 7.985C315.95 8.185 315.825 8.47 315.825 8.84C315.825 9.21 315.945 9.5 316.185 9.71C316.435 9.91 316.795 10.01 317.265 10.01ZM326.198 3.26V4.49H324.638V9.14C324.638 9.37 324.703 9.54 324.833 9.65C324.973 9.75 325.203 9.8 325.523 9.8H326.198V11C325.868 11.03 325.563 11.045 325.283 11.045C324.553 11.045 324.013 10.905 323.663 10.625C323.313 10.345 323.138 9.895 323.138 9.275V4.49H321.893V3.26H323.138V1.04H324.638V3.26H326.198ZM332.486 7.625V3.26H333.986V11H332.546V9.845C331.956 10.735 331.146 11.18 330.116 11.18C329.266 11.18 328.601 10.94 328.121 10.46C327.641 9.98 327.401 9.31 327.401 8.45V3.26H328.901V8.24C328.901 9.32 329.446 9.86 330.536 9.86C331.086 9.86 331.546 9.665 331.916 9.275C332.296 8.875 332.486 8.325 332.486 7.625ZM342.337 9.845H342.757V11C342.537 11.03 342.292 11.045 342.022 11.045C341.542 11.045 341.182 10.96 340.942 10.79C340.712 10.61 340.572 10.33 340.522 9.95C340.002 10.77 339.162 11.18 338.002 11.18C337.152 11.18 336.477 10.98 335.977 10.58C335.487 10.17 335.242 9.605 335.242 8.885C335.242 7.485 336.212 6.685 338.152 6.485L339.292 6.365C339.692 6.315 339.982 6.215 340.162 6.065C340.352 5.905 340.447 5.68 340.447 5.39C340.447 5 340.322 4.72 340.072 4.55C339.832 4.37 339.427 4.28 338.857 4.28C338.237 4.28 337.792 4.385 337.522 4.595C337.252 4.795 337.097 5.155 337.057 5.675H335.572C335.682 3.945 336.777 3.08 338.857 3.08C340.897 3.08 341.917 3.84 341.917 5.36V9.455C341.917 9.715 342.057 9.845 342.337 9.845ZM338.227 10.01C338.867 10.01 339.397 9.83 339.817 9.47C340.237 9.11 340.447 8.6 340.447 7.94V7.13C340.257 7.29 339.937 7.395 339.487 7.445L338.407 7.565C337.827 7.635 337.412 7.775 337.162 7.985C336.912 8.185 336.787 8.47 336.787 8.84C336.787 9.21 336.907 9.5 337.147 9.71C337.397 9.91 337.757 10.01 338.227 10.01ZM8.68514 33.18C7.58514 33.18 6.69514 32.81 6.01514 32.07C5.33514 31.33 4.99514 30.35 4.99514 29.13C4.99514 27.9 5.33514 26.915 6.01514 26.175C6.68514 25.445 7.57514 25.08 8.68514 25.08C9.63514 25.08 10.4151 25.34 11.0251 25.86C11.6451 26.38 12.0151 27.08 12.1351 27.96H10.6051C10.5051 27.45 10.2801 27.06 9.93014 26.79C9.59014 26.52 9.17514 26.385 8.68514 26.385C8.03514 26.385 7.51514 26.625 7.12514 27.105C6.74514 27.575 6.55514 28.25 6.55514 29.13C6.55514 30.01 6.74514 30.69 7.12514 31.17C7.51514 31.64 8.03514 31.875 8.68514 31.875C9.18514 31.875 9.61014 31.735 9.96014 31.455C10.3101 31.175 10.5301 30.77 10.6201 30.24H12.1501C12.0301 31.14 11.6551 31.855 11.0251 32.385C10.3951 32.915 9.61514 33.18 8.68514 33.18ZM19.5935 32.07C18.8835 32.81 17.9585 33.18 16.8185 33.18C15.6785 33.18 14.7535 32.81 14.0435 32.07C13.3335 31.33 12.9785 30.35 12.9785 29.13C12.9785 27.9 13.3335 26.915 14.0435 26.175C14.7435 25.445 15.6685 25.08 16.8185 25.08C17.9685 25.08 18.8935 25.445 19.5935 26.175C20.2935 26.905 20.6435 27.89 20.6435 29.13C20.6435 30.36 20.2935 31.34 19.5935 32.07ZM15.1535 31.155C15.5635 31.645 16.1185 31.89 16.8185 31.89C17.5185 31.89 18.0685 31.645 18.4685 31.155C18.8785 30.665 19.0835 29.99 19.0835 29.13C19.0835 28.27 18.8785 27.595 18.4685 27.105C18.0685 26.615 17.5185 26.37 16.8185 26.37C16.1185 26.37 15.5635 26.615 15.1535 27.105C14.7435 27.595 14.5385 28.27 14.5385 29.13C14.5385 29.99 14.7435 30.665 15.1535 31.155ZM30.4265 25.08C31.2665 25.08 31.9215 25.33 32.3915 25.83C32.8615 26.32 33.0965 26.98 33.0965 27.81V33H31.5815V28.005C31.5815 26.935 31.0865 26.4 30.0965 26.4C29.5665 26.4 29.1315 26.605 28.7915 27.015C28.4515 27.415 28.2815 27.995 28.2815 28.755V33H26.7815V28.005C26.7815 26.935 26.2815 26.4 25.2815 26.4C24.7515 26.4 24.3165 26.605 23.9765 27.015C23.6365 27.425 23.4665 28.005 23.4665 28.755V33H21.9665V25.26H23.4065V26.415C23.9365 25.525 24.6815 25.08 25.6415 25.08C26.8115 25.08 27.6065 25.565 28.0265 26.535C28.5765 25.565 29.3765 25.08 30.4265 25.08ZM41.0242 32.07C40.3142 32.81 39.3892 33.18 38.2492 33.18C37.1092 33.18 36.1842 32.81 35.4742 32.07C34.7642 31.33 34.4092 30.35 34.4092 29.13C34.4092 27.9 34.7642 26.915 35.4742 26.175C36.1742 25.445 37.0992 25.08 38.2492 25.08C39.3992 25.08 40.3242 25.445 41.0242 26.175C41.7242 26.905 42.0742 27.89 42.0742 29.13C42.0742 30.36 41.7242 31.34 41.0242 32.07ZM36.5842 31.155C36.9942 31.645 37.5492 31.89 38.2492 31.89C38.9492 31.89 39.4992 31.645 39.8992 31.155C40.3092 30.665 40.5142 29.99 40.5142 29.13C40.5142 28.27 40.3092 27.595 39.8992 27.105C39.4992 26.615 38.9492 26.37 38.2492 26.37C37.5492 26.37 36.9942 26.615 36.5842 27.105C36.1742 27.595 35.9692 28.27 35.9692 29.13C35.9692 29.99 36.1742 30.665 36.5842 31.155ZM49.2944 33.195C47.1444 33.195 46.0144 32.31 45.9044 30.54H47.4044C47.4644 31.08 47.6394 31.46 47.9294 31.68C48.2194 31.9 48.6794 32.01 49.3094 32.01C50.4494 32.01 51.0194 31.65 51.0194 30.93C51.0194 30.62 50.8994 30.38 50.6594 30.21C50.4194 30.04 49.9894 29.9 49.3694 29.79L48.5744 29.64C46.9344 29.34 46.1144 28.57 46.1144 27.33C46.1144 26.64 46.3794 26.095 46.9094 25.695C47.4394 25.285 48.1694 25.08 49.0994 25.08C51.2294 25.08 52.3194 25.945 52.3694 27.675H50.9144C50.8844 27.155 50.7244 26.79 50.4344 26.58C50.1444 26.36 49.6994 26.25 49.0994 26.25C48.6194 26.25 48.2494 26.34 47.9894 26.52C47.7294 26.7 47.5994 26.955 47.5994 27.285C47.5994 27.585 47.7144 27.82 47.9444 27.99C48.1744 28.15 48.5394 28.28 49.0394 28.38L49.8494 28.515C50.7994 28.695 51.4844 28.965 51.9044 29.325C52.3244 29.685 52.5344 30.185 52.5344 30.825C52.5344 31.575 52.2494 32.16 51.6794 32.58C51.1094 32.99 50.3144 33.195 49.2944 33.195ZM60.641 29.19V29.625H54.806C54.876 30.385 55.101 30.96 55.481 31.35C55.861 31.73 56.376 31.92 57.026 31.92C58.006 31.92 58.646 31.49 58.946 30.63H60.461C60.251 31.42 59.841 32.045 59.231 32.505C58.631 32.955 57.886 33.18 56.996 33.18C55.886 33.18 54.991 32.81 54.311 32.07C53.631 31.33 53.291 30.35 53.291 29.13C53.291 27.91 53.631 26.93 54.311 26.19C54.991 25.45 55.876 25.08 56.966 25.08C58.106 25.08 59.006 25.465 59.666 26.235C60.316 27.005 60.641 27.99 60.641 29.19ZM56.966 26.34C56.376 26.34 55.891 26.52 55.511 26.88C55.141 27.24 54.911 27.76 54.821 28.44H59.096C59.026 27.81 58.801 27.305 58.421 26.925C58.051 26.535 57.566 26.34 56.966 26.34ZM66.8513 29.625V25.26H68.3513V33H66.9113V31.845C66.3213 32.735 65.5113 33.18 64.4813 33.18C63.6313 33.18 62.9663 32.94 62.4863 32.46C62.0063 31.98 61.7663 31.31 61.7663 30.45V25.26H63.2663V30.24C63.2663 31.32 63.8113 31.86 64.9013 31.86C65.4513 31.86 65.9113 31.665 66.2813 31.275C66.6613 30.875 66.8513 30.325 66.8513 29.625ZM77.0949 25.08C78.1749 25.08 79.0349 25.445 79.6749 26.175C80.3149 26.905 80.6349 27.89 80.6349 29.13C80.6349 30.36 80.3149 31.34 79.6749 32.07C79.0249 32.81 78.1649 33.18 77.0949 33.18C75.9549 33.18 75.0949 32.73 74.5149 31.83V33H73.0749V22.32H74.5749V26.34C75.1549 25.5 75.9949 25.08 77.0949 25.08ZM75.1599 31.155C75.5599 31.645 76.1099 31.89 76.8099 31.89C77.5099 31.89 78.0649 31.64 78.4749 31.14C78.8749 30.65 79.0749 29.96 79.0749 29.07C79.0749 28.21 78.8749 27.545 78.4749 27.075C78.0749 26.605 77.5199 26.37 76.8099 26.37C76.1199 26.37 75.5699 26.61 75.1599 27.09C74.7499 27.59 74.5449 28.27 74.5449 29.13C74.5449 29.99 74.7499 30.665 75.1599 31.155ZM85.8068 25.14C86.0268 25.14 86.1718 25.145 86.2418 25.155V26.58H85.8668C85.0968 26.58 84.5018 26.77 84.0818 27.15C83.6618 27.53 83.4518 28.08 83.4518 28.8V33H81.9518V25.26H83.3918V26.64C83.8818 25.64 84.6868 25.14 85.8068 25.14ZM93.4897 31.845H93.9097V33C93.6897 33.03 93.4447 33.045 93.1747 33.045C92.6947 33.045 92.3347 32.96 92.0947 32.79C91.8647 32.61 91.7247 32.33 91.6747 31.95C91.1547 32.77 90.3147 33.18 89.1547 33.18C88.3047 33.18 87.6297 32.98 87.1297 32.58C86.6397 32.17 86.3947 31.605 86.3947 30.885C86.3947 29.485 87.3647 28.685 89.3047 28.485L90.4447 28.365C90.8447 28.315 91.1347 28.215 91.3147 28.065C91.5047 27.905 91.5997 27.68 91.5997 27.39C91.5997 27 91.4747 26.72 91.2247 26.55C90.9847 26.37 90.5797 26.28 90.0097 26.28C89.3897 26.28 88.9447 26.385 88.6747 26.595C88.4047 26.795 88.2497 27.155 88.2097 27.675H86.7247C86.8347 25.945 87.9297 25.08 90.0097 25.08C92.0497 25.08 93.0697 25.84 93.0697 27.36V31.455C93.0697 31.715 93.2097 31.845 93.4897 31.845ZM89.3797 32.01C90.0197 32.01 90.5497 31.83 90.9697 31.47C91.3897 31.11 91.5997 30.6 91.5997 29.94V29.13C91.4097 29.29 91.0897 29.395 90.6397 29.445L89.5597 29.565C88.9797 29.635 88.5647 29.775 88.3147 29.985C88.0647 30.185 87.9397 30.47 87.9397 30.84C87.9397 31.21 88.0597 31.5 88.2997 31.71C88.5497 31.91 88.9097 32.01 89.3797 32.01ZM100.093 30.24H101.623C101.523 31.02 101.228 31.665 100.738 32.175C100.248 32.685 99.6228 33 98.8628 33.12L98.2478 33.825H98.3978C98.8278 33.825 99.1728 33.935 99.4328 34.155C99.6928 34.385 99.8228 34.67 99.8228 35.01C99.8228 35.46 99.6428 35.81 99.2828 36.06C98.9328 36.32 98.4028 36.45 97.6928 36.45C97.3528 36.45 97.0328 36.42 96.7328 36.36V35.625C97.0128 35.665 97.3028 35.685 97.6028 35.685C98.2328 35.685 98.5478 35.465 98.5478 35.025C98.5478 34.625 98.2628 34.425 97.6928 34.425C97.5028 34.425 97.3628 34.43 97.2728 34.44V33.87L97.8278 33.165C96.8278 33.095 96.0178 32.69 95.3978 31.95C94.7778 31.22 94.4678 30.28 94.4678 29.13C94.4678 27.9 94.8078 26.915 95.4878 26.175C96.1578 25.445 97.0478 25.08 98.1578 25.08C99.1078 25.08 99.8878 25.34 100.498 25.86C101.118 26.38 101.488 27.08 101.608 27.96H100.078C99.9778 27.45 99.7528 27.06 99.4028 26.79C99.0628 26.52 98.6478 26.385 98.1578 26.385C97.5078 26.385 96.9878 26.625 96.5978 27.105C96.2178 27.575 96.0278 28.25 96.0278 29.13C96.0278 30.01 96.2178 30.69 96.5978 31.17C96.9878 31.64 97.5078 31.875 98.1578 31.875C98.6578 31.875 99.0828 31.735 99.4328 31.455C99.7828 31.175 100.003 30.77 100.093 30.24ZM109.066 32.07C108.356 32.81 107.431 33.18 106.291 33.18C105.151 33.18 104.226 32.81 103.516 32.07C102.806 31.33 102.451 30.35 102.451 29.13C102.451 27.9 102.806 26.915 103.516 26.175C104.216 25.445 105.141 25.08 106.291 25.08C107.441 25.08 108.366 25.445 109.066 26.175C109.766 26.905 110.116 27.89 110.116 29.13C110.116 30.36 109.766 31.34 109.066 32.07ZM104.626 31.155C105.036 31.645 105.591 31.89 106.291 31.89C106.991 31.89 107.541 31.645 107.941 31.155C108.351 30.665 108.556 29.99 108.556 29.13C108.556 28.27 108.351 27.595 107.941 27.105C107.541 26.615 106.991 26.37 106.291 26.37C105.591 26.37 105.036 26.615 104.626 27.105C104.216 27.595 104.011 28.27 104.011 29.13C104.011 29.99 104.216 30.665 104.626 31.155ZM121.461 29.19V29.625H115.626C115.696 30.385 115.921 30.96 116.301 31.35C116.681 31.73 117.196 31.92 117.846 31.92C118.826 31.92 119.466 31.49 119.766 30.63H121.281C121.071 31.42 120.661 32.045 120.051 32.505C119.451 32.955 118.706 33.18 117.816 33.18C116.706 33.18 115.811 32.81 115.131 32.07C114.451 31.33 114.111 30.35 114.111 29.13C114.111 27.91 114.451 26.93 115.131 26.19C115.811 25.45 116.696 25.08 117.786 25.08C118.926 25.08 119.826 25.465 120.486 26.235C121.136 27.005 121.461 27.99 121.461 29.19ZM117.786 26.34C117.196 26.34 116.711 26.52 116.331 26.88C115.961 27.24 115.731 27.76 115.641 28.44H119.916C119.846 27.81 119.621 27.305 119.241 26.925C118.871 26.535 118.386 26.34 117.786 26.34ZM125.613 33.195C123.463 33.195 122.333 32.31 122.223 30.54H123.723C123.783 31.08 123.958 31.46 124.248 31.68C124.538 31.9 124.998 32.01 125.628 32.01C126.768 32.01 127.338 31.65 127.338 30.93C127.338 30.62 127.218 30.38 126.978 30.21C126.738 30.04 126.308 29.9 125.688 29.79L124.893 29.64C123.253 29.34 122.433 28.57 122.433 27.33C122.433 26.64 122.698 26.095 123.228 25.695C123.758 25.285 124.488 25.08 125.418 25.08C127.548 25.08 128.638 25.945 128.688 27.675H127.233C127.203 27.155 127.043 26.79 126.753 26.58C126.463 26.36 126.018 26.25 125.418 26.25C124.938 26.25 124.568 26.34 124.308 26.52C124.048 26.7 123.918 26.955 123.918 27.285C123.918 27.585 124.033 27.82 124.263 27.99C124.493 28.15 124.858 28.28 125.358 28.38L126.168 28.515C127.118 28.695 127.803 28.965 128.223 29.325C128.643 29.685 128.853 30.185 128.853 30.825C128.853 31.575 128.568 32.16 127.998 32.58C127.428 32.99 126.633 33.195 125.613 33.195ZM133.513 25.26V26.49H131.953V31.14C131.953 31.37 132.018 31.54 132.148 31.65C132.288 31.75 132.518 31.8 132.838 31.8H133.513V33C133.183 33.03 132.878 33.045 132.598 33.045C131.868 33.045 131.328 32.905 130.978 32.625C130.628 32.345 130.453 31.895 130.453 31.275V26.49H129.208V25.26H130.453V23.04H131.953V25.26H133.513ZM138.57 25.14C138.79 25.14 138.935 25.145 139.005 25.155V26.58H138.63C137.86 26.58 137.265 26.77 136.845 27.15C136.425 27.53 136.215 28.08 136.215 28.8V33H134.715V25.26H136.155V26.64C136.645 25.64 137.45 25.14 138.57 25.14ZM146.253 31.845H146.673V33C146.453 33.03 146.208 33.045 145.938 33.045C145.458 33.045 145.098 32.96 144.858 32.79C144.628 32.61 144.488 32.33 144.438 31.95C143.918 32.77 143.078 33.18 141.918 33.18C141.068 33.18 140.393 32.98 139.893 32.58C139.403 32.17 139.158 31.605 139.158 30.885C139.158 29.485 140.128 28.685 142.068 28.485L143.208 28.365C143.608 28.315 143.898 28.215 144.078 28.065C144.268 27.905 144.363 27.68 144.363 27.39C144.363 27 144.238 26.72 143.988 26.55C143.748 26.37 143.343 26.28 142.773 26.28C142.153 26.28 141.708 26.385 141.438 26.595C141.168 26.795 141.013 27.155 140.973 27.675H139.488C139.598 25.945 140.693 25.08 142.773 25.08C144.813 25.08 145.833 25.84 145.833 27.36V31.455C145.833 31.715 145.973 31.845 146.253 31.845ZM142.143 32.01C142.783 32.01 143.313 31.83 143.733 31.47C144.153 31.11 144.363 30.6 144.363 29.94V29.13C144.173 29.29 143.853 29.395 143.403 29.445L142.323 29.565C141.743 29.635 141.328 29.775 141.078 29.985C140.828 30.185 140.703 30.47 140.703 30.84C140.703 31.21 140.823 31.5 141.063 31.71C141.313 31.91 141.673 32.01 142.143 32.01ZM151.076 25.26V26.49H149.516V31.14C149.516 31.37 149.581 31.54 149.711 31.65C149.851 31.75 150.081 31.8 150.401 31.8H151.076V33C150.746 33.03 150.441 33.045 150.161 33.045C149.431 33.045 148.891 32.905 148.541 32.625C148.191 32.345 148.016 31.895 148.016 31.275V26.49H146.771V25.26H148.016V23.04H149.516V25.26H151.076ZM156.167 22.005H158.042L156.152 24.165H154.862L156.167 22.005ZM159.122 29.19V29.625H153.287C153.357 30.385 153.582 30.96 153.962 31.35C154.342 31.73 154.857 31.92 155.507 31.92C156.487 31.92 157.127 31.49 157.427 30.63H158.942C158.732 31.42 158.322 32.045 157.712 32.505C157.112 32.955 156.367 33.18 155.477 33.18C154.367 33.18 153.472 32.81 152.792 32.07C152.112 31.33 151.772 30.35 151.772 29.13C151.772 27.91 152.112 26.93 152.792 26.19C153.472 25.45 154.357 25.08 155.447 25.08C156.587 25.08 157.487 25.465 158.147 26.235C158.797 27.005 159.122 27.99 159.122 29.19ZM155.447 26.34C154.857 26.34 154.372 26.52 153.992 26.88C153.622 27.24 153.392 27.76 153.302 28.44H157.577C157.507 27.81 157.282 27.305 156.902 26.925C156.532 26.535 156.047 26.34 155.447 26.34ZM166.198 26.355V25.26H167.638V32.715C167.638 33.775 167.318 34.605 166.678 35.205C166.038 35.815 165.128 36.12 163.948 36.12C162.938 36.12 162.133 35.89 161.533 35.43C160.943 34.97 160.608 34.34 160.528 33.54H162.028C162.148 34.45 162.793 34.905 163.963 34.905C165.413 34.905 166.138 34.185 166.138 32.745V31.89C165.548 32.69 164.718 33.09 163.648 33.09C162.568 33.09 161.708 32.725 161.068 31.995C160.418 31.255 160.093 30.285 160.093 29.085C160.093 27.885 160.418 26.915 161.068 26.175C161.708 25.445 162.563 25.08 163.633 25.08C164.763 25.08 165.618 25.505 166.198 26.355ZM163.918 31.8C164.618 31.8 165.168 31.56 165.568 31.08C165.978 30.59 166.183 29.925 166.183 29.085C166.183 28.245 165.978 27.585 165.568 27.105C165.168 26.615 164.618 26.37 163.918 26.37C163.228 26.37 162.678 26.615 162.268 27.105C161.858 27.595 161.653 28.255 161.653 29.085C161.653 29.925 161.858 30.59 162.268 31.08C162.678 31.56 163.228 31.8 163.918 31.8ZM170.845 24.165H169.315V22.56H170.845V24.165ZM170.83 33H169.33V25.26H170.83V33ZM175.838 33.18C174.738 33.18 173.848 32.81 173.168 32.07C172.488 31.33 172.148 30.35 172.148 29.13C172.148 27.9 172.488 26.915 173.168 26.175C173.838 25.445 174.728 25.08 175.838 25.08C176.788 25.08 177.568 25.34 178.178 25.86C178.798 26.38 179.168 27.08 179.288 27.96H177.758C177.658 27.45 177.433 27.06 177.083 26.79C176.743 26.52 176.328 26.385 175.838 26.385C175.188 26.385 174.668 26.625 174.278 27.105C173.898 27.575 173.708 28.25 173.708 29.13C173.708 30.01 173.898 30.69 174.278 31.17C174.668 31.64 175.188 31.875 175.838 31.875C176.338 31.875 176.763 31.735 177.113 31.455C177.463 31.175 177.683 30.77 177.773 30.24H179.303C179.183 31.14 178.808 31.855 178.178 32.385C177.548 32.915 176.768 33.18 175.838 33.18ZM186.747 32.07C186.037 32.81 185.112 33.18 183.972 33.18C182.832 33.18 181.907 32.81 181.197 32.07C180.487 31.33 180.132 30.35 180.132 29.13C180.132 27.9 180.487 26.915 181.197 26.175C181.897 25.445 182.822 25.08 183.972 25.08C185.122 25.08 186.047 25.445 186.747 26.175C187.447 26.905 187.797 27.89 187.797 29.13C187.797 30.36 187.447 31.34 186.747 32.07ZM182.307 31.155C182.717 31.645 183.272 31.89 183.972 31.89C184.672 31.89 185.222 31.645 185.622 31.155C186.032 30.665 186.237 29.99 186.237 29.13C186.237 28.27 186.032 27.595 185.622 27.105C185.222 26.615 184.672 26.37 183.972 26.37C183.272 26.37 182.717 26.615 182.307 27.105C181.897 27.595 181.692 28.27 181.692 29.13C181.692 29.99 181.897 30.665 182.307 31.155ZM188.397 33V31.215H190.212V33.15C190.212 34.45 189.672 35.13 188.592 35.19L188.397 35.205V34.275L188.562 34.26C188.972 34.21 189.177 33.87 189.177 33.24V33H188.397ZM196.23 24.165H194.7V22.56H196.23V24.165ZM196.215 33H194.715V25.26H196.215V33ZM201.764 25.08C202.614 25.08 203.279 25.32 203.759 25.8C204.239 26.27 204.479 26.94 204.479 27.81V33H202.979V28.02C202.979 26.94 202.434 26.4 201.344 26.4C200.844 26.4 200.394 26.59 199.994 26.97C199.594 27.36 199.394 27.915 199.394 28.635V33H197.894V25.26H199.334V26.415C199.924 25.525 200.734 25.08 201.764 25.08ZM209.567 25.26V26.49H208.007V31.14C208.007 31.37 208.072 31.54 208.202 31.65C208.342 31.75 208.572 31.8 208.892 31.8H209.567V33C209.237 33.03 208.932 33.045 208.652 33.045C207.922 33.045 207.382 32.905 207.032 32.625C206.682 32.345 206.507 31.895 206.507 31.275V26.49H205.262V25.26H206.507V23.04H208.007V25.26H209.567ZM217.614 29.19V29.625H211.779C211.849 30.385 212.074 30.96 212.454 31.35C212.834 31.73 213.349 31.92 213.999 31.92C214.979 31.92 215.619 31.49 215.919 30.63H217.434C217.224 31.42 216.814 32.045 216.204 32.505C215.604 32.955 214.859 33.18 213.969 33.18C212.859 33.18 211.964 32.81 211.284 32.07C210.604 31.33 210.264 30.35 210.264 29.13C210.264 27.91 210.604 26.93 211.284 26.19C211.964 25.45 212.849 25.08 213.939 25.08C215.079 25.08 215.979 25.465 216.639 26.235C217.289 27.005 217.614 27.99 217.614 29.19ZM213.939 26.34C213.349 26.34 212.864 26.52 212.484 26.88C212.114 27.24 211.884 27.76 211.794 28.44H216.069C215.999 27.81 215.774 27.305 215.394 26.925C215.024 26.535 214.539 26.34 213.939 26.34ZM224.689 26.355V25.26H226.129V32.715C226.129 33.775 225.809 34.605 225.169 35.205C224.529 35.815 223.619 36.12 222.439 36.12C221.429 36.12 220.624 35.89 220.024 35.43C219.434 34.97 219.099 34.34 219.019 33.54H220.519C220.639 34.45 221.284 34.905 222.454 34.905C223.904 34.905 224.629 34.185 224.629 32.745V31.89C224.039 32.69 223.209 33.09 222.139 33.09C221.059 33.09 220.199 32.725 219.559 31.995C218.909 31.255 218.584 30.285 218.584 29.085C218.584 27.885 218.909 26.915 219.559 26.175C220.199 25.445 221.054 25.08 222.124 25.08C223.254 25.08 224.109 25.505 224.689 26.355ZM222.409 31.8C223.109 31.8 223.659 31.56 224.059 31.08C224.469 30.59 224.674 29.925 224.674 29.085C224.674 28.245 224.469 27.585 224.059 27.105C223.659 26.615 223.109 26.37 222.409 26.37C221.719 26.37 221.169 26.615 220.759 27.105C220.349 27.595 220.144 28.255 220.144 29.085C220.144 29.925 220.349 30.59 220.759 31.08C221.169 31.56 221.719 31.8 222.409 31.8ZM231.676 25.14C231.896 25.14 232.041 25.145 232.111 25.155V26.58H231.736C230.966 26.58 230.371 26.77 229.951 27.15C229.531 27.53 229.321 28.08 229.321 28.8V33H227.821V25.26H229.261V26.64C229.751 25.64 230.556 25.14 231.676 25.14ZM239.359 31.845H239.779V33C239.559 33.03 239.314 33.045 239.044 33.045C238.564 33.045 238.204 32.96 237.964 32.79C237.734 32.61 237.594 32.33 237.544 31.95C237.024 32.77 236.184 33.18 235.024 33.18C234.174 33.18 233.499 32.98 232.999 32.58C232.509 32.17 232.264 31.605 232.264 30.885C232.264 29.485 233.234 28.685 235.174 28.485L236.314 28.365C236.714 28.315 237.004 28.215 237.184 28.065C237.374 27.905 237.469 27.68 237.469 27.39C237.469 27 237.344 26.72 237.094 26.55C236.854 26.37 236.449 26.28 235.879 26.28C235.259 26.28 234.814 26.385 234.544 26.595C234.274 26.795 234.119 27.155 234.079 27.675H232.594C232.704 25.945 233.799 25.08 235.879 25.08C237.919 25.08 238.939 25.84 238.939 27.36V31.455C238.939 31.715 239.079 31.845 239.359 31.845ZM235.249 32.01C235.889 32.01 236.419 31.83 236.839 31.47C237.259 31.11 237.469 30.6 237.469 29.94V29.13C237.279 29.29 236.959 29.395 236.509 29.445L235.429 29.565C234.849 29.635 234.434 29.775 234.184 29.985C233.934 30.185 233.809 30.47 233.809 30.84C233.809 31.21 233.929 31.5 234.169 31.71C234.419 31.91 234.779 32.01 235.249 32.01ZM244.64 25.08C245.49 25.08 246.155 25.32 246.635 25.8C247.115 26.27 247.355 26.94 247.355 27.81V33H245.855V28.02C245.855 26.94 245.31 26.4 244.22 26.4C243.72 26.4 243.27 26.59 242.87 26.97C242.47 27.36 242.27 27.915 242.27 28.635V33H240.77V25.26H242.21V26.415C242.8 25.525 243.61 25.08 244.64 25.08ZM254.732 26.31V22.32H256.232V33H254.792V31.86C254.212 32.74 253.357 33.18 252.227 33.18C251.147 33.18 250.287 32.815 249.647 32.085C249.007 31.355 248.687 30.37 248.687 29.13C248.687 27.89 249.007 26.905 249.647 26.175C250.287 25.445 251.147 25.08 252.227 25.08C253.317 25.08 254.152 25.49 254.732 26.31ZM250.247 29.19C250.247 30.05 250.452 30.715 250.862 31.185C251.272 31.655 251.822 31.89 252.512 31.89C253.222 31.89 253.777 31.645 254.177 31.155C254.577 30.685 254.777 30.01 254.777 29.13C254.777 28.26 254.577 27.58 254.177 27.09C253.777 26.61 253.222 26.37 252.512 26.37C251.822 26.37 251.272 26.62 250.862 27.12C250.452 27.62 250.247 28.31 250.247 29.19ZM264.178 32.07C263.468 32.81 262.543 33.18 261.403 33.18C260.263 33.18 259.338 32.81 258.628 32.07C257.918 31.33 257.563 30.35 257.563 29.13C257.563 27.9 257.918 26.915 258.628 26.175C259.328 25.445 260.253 25.08 261.403 25.08C262.553 25.08 263.478 25.445 264.178 26.175C264.878 26.905 265.228 27.89 265.228 29.13C265.228 30.36 264.878 31.34 264.178 32.07ZM259.738 31.155C260.148 31.645 260.703 31.89 261.403 31.89C262.103 31.89 262.653 31.645 263.053 31.155C263.463 30.665 263.668 29.99 263.668 29.13C263.668 28.27 263.463 27.595 263.053 27.105C262.653 26.615 262.103 26.37 261.403 26.37C260.703 26.37 260.148 26.615 259.738 27.105C259.328 27.595 259.123 28.27 259.123 29.13C259.123 29.99 259.328 30.665 259.738 31.155ZM278.044 25.08C278.884 25.08 279.539 25.33 280.009 25.83C280.479 26.32 280.714 26.98 280.714 27.81V33H279.199V28.005C279.199 26.935 278.704 26.4 277.714 26.4C277.184 26.4 276.749 26.605 276.409 27.015C276.069 27.415 275.899 27.995 275.899 28.755V33H274.399V28.005C274.399 26.935 273.899 26.4 272.899 26.4C272.369 26.4 271.934 26.605 271.594 27.015C271.254 27.425 271.084 28.005 271.084 28.755V33H269.584V25.26H271.024V26.415C271.554 25.525 272.299 25.08 273.259 25.08C274.429 25.08 275.224 25.565 275.644 26.535C276.194 25.565 276.994 25.08 278.044 25.08ZM289.046 31.845H289.466V33C289.246 33.03 289.001 33.045 288.731 33.045C288.251 33.045 287.891 32.96 287.651 32.79C287.421 32.61 287.281 32.33 287.231 31.95C286.711 32.77 285.871 33.18 284.711 33.18C283.861 33.18 283.186 32.98 282.686 32.58C282.196 32.17 281.951 31.605 281.951 30.885C281.951 29.485 282.921 28.685 284.861 28.485L286.001 28.365C286.401 28.315 286.691 28.215 286.871 28.065C287.061 27.905 287.156 27.68 287.156 27.39C287.156 27 287.031 26.72 286.781 26.55C286.541 26.37 286.136 26.28 285.566 26.28C284.946 26.28 284.501 26.385 284.231 26.595C283.961 26.795 283.806 27.155 283.766 27.675H282.281C282.391 25.945 283.486 25.08 285.566 25.08C287.606 25.08 288.626 25.84 288.626 27.36V31.455C288.626 31.715 288.766 31.845 289.046 31.845ZM284.936 32.01C285.576 32.01 286.106 31.83 286.526 31.47C286.946 31.11 287.156 30.6 287.156 29.94V29.13C286.966 29.29 286.646 29.395 286.196 29.445L285.116 29.565C284.536 29.635 284.121 29.775 283.871 29.985C283.621 30.185 283.496 30.47 283.496 30.84C283.496 31.21 283.616 31.5 283.856 31.71C284.106 31.91 284.466 32.01 284.936 32.01ZM294.313 25.14C294.533 25.14 294.678 25.145 294.748 25.155V26.58H294.373C293.603 26.58 293.008 26.77 292.588 27.15C292.168 27.53 291.958 28.08 291.958 28.8V33H290.458V25.26H291.898V26.64C292.388 25.64 293.193 25.14 294.313 25.14ZM302.794 33H301.069L298.609 29.085L297.319 30.345V33H295.834V22.32H297.319V28.62L300.724 25.26H302.599L299.674 28.11L302.794 33ZM310.133 29.19V29.625H304.298C304.368 30.385 304.593 30.96 304.973 31.35C305.353 31.73 305.868 31.92 306.518 31.92C307.498 31.92 308.138 31.49 308.438 30.63H309.953C309.743 31.42 309.333 32.045 308.723 32.505C308.123 32.955 307.378 33.18 306.488 33.18C305.378 33.18 304.483 32.81 303.803 32.07C303.123 31.33 302.783 30.35 302.783 29.13C302.783 27.91 303.123 26.93 303.803 26.19C304.483 25.45 305.368 25.08 306.458 25.08C307.598 25.08 308.498 25.465 309.158 26.235C309.808 27.005 310.133 27.99 310.133 29.19ZM306.458 26.34C305.868 26.34 305.383 26.52 305.003 26.88C304.633 27.24 304.403 27.76 304.313 28.44H308.588C308.518 27.81 308.293 27.305 307.913 26.925C307.543 26.535 307.058 26.34 306.458 26.34ZM314.714 25.26V26.49H313.154V31.14C313.154 31.37 313.219 31.54 313.349 31.65C313.489 31.75 313.719 31.8 314.039 31.8H314.714V33C314.384 33.03 314.079 33.045 313.799 33.045C313.069 33.045 312.529 32.905 312.179 32.625C311.829 32.345 311.654 31.895 311.654 31.275V26.49H310.409V25.26H311.654V23.04H313.154V25.26H314.714ZM317.432 24.165H315.902V22.56H317.432V24.165ZM317.417 33H315.917V25.26H317.417V33ZM322.965 25.08C323.815 25.08 324.48 25.32 324.96 25.8C325.44 26.27 325.68 26.94 325.68 27.81V33H324.18V28.02C324.18 26.94 323.635 26.4 322.545 26.4C322.045 26.4 321.595 26.59 321.195 26.97C320.795 27.36 320.595 27.915 320.595 28.635V33H319.095V25.26H320.535V26.415C321.125 25.525 321.935 25.08 322.965 25.08ZM333.117 26.355V25.26H334.557V32.715C334.557 33.775 334.237 34.605 333.597 35.205C332.957 35.815 332.047 36.12 330.867 36.12C329.857 36.12 329.052 35.89 328.452 35.43C327.862 34.97 327.527 34.34 327.447 33.54H328.947C329.067 34.45 329.712 34.905 330.882 34.905C332.332 34.905 333.057 34.185 333.057 32.745V31.89C332.467 32.69 331.637 33.09 330.567 33.09C329.487 33.09 328.627 32.725 327.987 31.995C327.337 31.255 327.012 30.285 327.012 29.085C327.012 27.885 327.337 26.915 327.987 26.175C328.627 25.445 329.482 25.08 330.552 25.08C331.682 25.08 332.537 25.505 333.117 26.355ZM330.837 31.8C331.537 31.8 332.087 31.56 332.487 31.08C332.897 30.59 333.102 29.925 333.102 29.085C333.102 28.245 332.897 27.585 332.487 27.105C332.087 26.615 331.537 26.37 330.837 26.37C330.147 26.37 329.597 26.615 329.187 27.105C328.777 27.595 328.572 28.255 328.572 29.085C328.572 29.925 328.777 30.59 329.187 31.08C329.597 31.56 330.147 31.8 330.837 31.8ZM336.039 33V31.215H337.854V33.15C337.854 34.45 337.314 35.13 336.234 35.19L336.039 35.205V34.275L336.204 34.26C336.614 34.21 336.819 33.87 336.819 33.24V33H336.039ZM19.6036 50.095L20.6386 47.26H22.2286L19.2586 55H17.5936L14.6386 47.26H16.2586L17.3086 50.095C18.0186 52.205 18.3986 53.355 18.4486 53.545C18.4786 53.445 18.5436 53.245 18.6436 52.945C18.7436 52.645 18.8836 52.235 19.0636 51.715C19.2436 51.185 19.4236 50.645 19.6036 50.095ZM29.6889 51.19V51.625H23.8539C23.9239 52.385 24.1489 52.96 24.5289 53.35C24.9089 53.73 25.4239 53.92 26.0739 53.92C27.0539 53.92 27.6939 53.49 27.9939 52.63H29.5089C29.2989 53.42 28.8889 54.045 28.2789 54.505C27.6789 54.955 26.9339 55.18 26.0439 55.18C24.9339 55.18 24.0389 54.81 23.3589 54.07C22.6789 53.33 22.3389 52.35 22.3389 51.13C22.3389 49.91 22.6789 48.93 23.3589 48.19C24.0389 47.45 24.9239 47.08 26.0139 47.08C27.1539 47.08 28.0539 47.465 28.7139 48.235C29.3639 49.005 29.6889 49.99 29.6889 51.19ZM26.0139 48.34C25.4239 48.34 24.9389 48.52 24.5589 48.88C24.1889 49.24 23.9589 49.76 23.8689 50.44H28.1439C28.0739 49.81 27.8489 49.305 27.4689 48.925C27.0989 48.535 26.6139 48.34 26.0139 48.34ZM34.8892 47.08C35.7392 47.08 36.4042 47.32 36.8842 47.8C37.3642 48.27 37.6042 48.94 37.6042 49.81V55H36.1042V50.02C36.1042 48.94 35.5592 48.4 34.4692 48.4C33.9692 48.4 33.5192 48.59 33.1192 48.97C32.7192 49.36 32.5192 49.915 32.5192 50.635V55H31.0192V47.26H32.4592V48.415C33.0492 47.525 33.8592 47.08 34.8892 47.08ZM44.9806 48.31V44.32H46.4806V55H45.0406V53.86C44.4606 54.74 43.6056 55.18 42.4756 55.18C41.3956 55.18 40.5356 54.815 39.8956 54.085C39.2556 53.355 38.9356 52.37 38.9356 51.13C38.9356 49.89 39.2556 48.905 39.8956 48.175C40.5356 47.445 41.3956 47.08 42.4756 47.08C43.5656 47.08 44.4006 47.49 44.9806 48.31ZM40.4956 51.19C40.4956 52.05 40.7006 52.715 41.1106 53.185C41.5206 53.655 42.0706 53.89 42.7606 53.89C43.4706 53.89 44.0256 53.645 44.4256 53.155C44.8256 52.685 45.0256 52.01 45.0256 51.13C45.0256 50.26 44.8256 49.58 44.4256 49.09C44.0256 48.61 43.4706 48.37 42.7606 48.37C42.0706 48.37 41.5206 48.62 41.1106 49.12C40.7006 49.62 40.4956 50.31 40.4956 51.19ZM54.8325 53.845H55.2525V55C55.0325 55.03 54.7875 55.045 54.5175 55.045C54.0375 55.045 53.6775 54.96 53.4375 54.79C53.2075 54.61 53.0675 54.33 53.0175 53.95C52.4975 54.77 51.6575 55.18 50.4975 55.18C49.6475 55.18 48.9725 54.98 48.4725 54.58C47.9825 54.17 47.7375 53.605 47.7375 52.885C47.7375 51.485 48.7075 50.685 50.6475 50.485L51.7875 50.365C52.1875 50.315 52.4775 50.215 52.6575 50.065C52.8475 49.905 52.9425 49.68 52.9425 49.39C52.9425 49 52.8175 48.72 52.5675 48.55C52.3275 48.37 51.9225 48.28 51.3525 48.28C50.7325 48.28 50.2875 48.385 50.0175 48.595C49.7475 48.795 49.5925 49.155 49.5525 49.675H48.0675C48.1775 47.945 49.2725 47.08 51.3525 47.08C53.3925 47.08 54.4125 47.84 54.4125 49.36V53.455C54.4125 53.715 54.5525 53.845 54.8325 53.845ZM50.7225 54.01C51.3625 54.01 51.8925 53.83 52.3125 53.47C52.7325 53.11 52.9425 52.6 52.9425 51.94V51.13C52.7525 51.29 52.4325 51.395 51.9825 51.445L50.9025 51.565C50.3225 51.635 49.9075 51.775 49.6575 51.985C49.4075 52.185 49.2825 52.47 49.2825 52.84C49.2825 53.21 49.4025 53.5 49.6425 53.71C49.8925 53.91 50.2525 54.01 50.7225 54.01ZM59.1381 55.195C56.9881 55.195 55.8581 54.31 55.7481 52.54H57.2481C57.3081 53.08 57.4831 53.46 57.7731 53.68C58.0631 53.9 58.5231 54.01 59.1531 54.01C60.2931 54.01 60.8631 53.65 60.8631 52.93C60.8631 52.62 60.7431 52.38 60.5031 52.21C60.2631 52.04 59.8331 51.9 59.2131 51.79L58.4181 51.64C56.7781 51.34 55.9581 50.57 55.9581 49.33C55.9581 48.64 56.2231 48.095 56.7531 47.695C57.2831 47.285 58.0131 47.08 58.9431 47.08C61.0731 47.08 62.1631 47.945 62.2131 49.675H60.7581C60.7281 49.155 60.5681 48.79 60.2781 48.58C59.9881 48.36 59.5431 48.25 58.9431 48.25C58.4631 48.25 58.0931 48.34 57.8331 48.52C57.5731 48.7 57.4431 48.955 57.4431 49.285C57.4431 49.585 57.5581 49.82 57.7881 49.99C58.0181 50.15 58.3831 50.28 58.8831 50.38L59.6931 50.515C60.6431 50.695 61.3281 50.965 61.7481 51.325C62.1681 51.685 62.3781 52.185 62.3781 52.825C62.3781 53.575 62.0931 54.16 61.5231 54.58C60.9531 54.99 60.1581 55.195 59.1381 55.195ZM73.517 51.19V51.625H67.682C67.752 52.385 67.977 52.96 68.357 53.35C68.737 53.73 69.252 53.92 69.902 53.92C70.882 53.92 71.522 53.49 71.822 52.63H73.337C73.127 53.42 72.717 54.045 72.107 54.505C71.507 54.955 70.762 55.18 69.872 55.18C68.762 55.18 67.867 54.81 67.187 54.07C66.507 53.33 66.167 52.35 66.167 51.13C66.167 49.91 66.507 48.93 67.187 48.19C67.867 47.45 68.752 47.08 69.842 47.08C70.982 47.08 71.882 47.465 72.542 48.235C73.192 49.005 73.517 49.99 73.517 51.19ZM69.842 48.34C69.252 48.34 68.767 48.52 68.387 48.88C68.017 49.24 67.787 49.76 67.697 50.44H71.972C71.902 49.81 71.677 49.305 71.297 48.925C70.927 48.535 70.442 48.34 69.842 48.34ZM78.4946 47.26V46.555C78.4946 45.035 79.2696 44.275 80.8196 44.275C80.9696 44.275 81.2546 44.29 81.6746 44.32V45.535H80.9996C80.3296 45.535 79.9946 45.875 79.9946 46.555V47.26H81.6146V48.49H79.9946V55H78.4946V48.49H77.2496V47.26H78.4946ZM82.7396 46.165V44.56H84.2696V46.165H82.7396ZM84.2546 55H82.7546V47.26H84.2546V55ZM89.8208 47.08C90.6708 47.08 91.3358 47.32 91.8158 47.8C92.2958 48.27 92.5358 48.94 92.5358 49.81V55H91.0358V50.02C91.0358 48.94 90.4908 48.4 89.4008 48.4C88.9008 48.4 88.4508 48.59 88.0508 48.97C87.6508 49.36 87.4508 49.915 87.4508 50.635V55H85.9508V47.26H87.3908V48.415C87.9808 47.525 88.7908 47.08 89.8208 47.08ZM100.887 53.845H101.307V55C101.087 55.03 100.842 55.045 100.572 55.045C100.092 55.045 99.7322 54.96 99.4922 54.79C99.2622 54.61 99.1222 54.33 99.0722 53.95C98.5522 54.77 97.7122 55.18 96.5522 55.18C95.7022 55.18 95.0272 54.98 94.5272 54.58C94.0372 54.17 93.7922 53.605 93.7922 52.885C93.7922 51.485 94.7622 50.685 96.7022 50.485L97.8422 50.365C98.2422 50.315 98.5322 50.215 98.7122 50.065C98.9022 49.905 98.9972 49.68 98.9972 49.39C98.9972 49 98.8722 48.72 98.6222 48.55C98.3822 48.37 97.9772 48.28 97.4072 48.28C96.7872 48.28 96.3422 48.385 96.0722 48.595C95.8022 48.795 95.6472 49.155 95.6072 49.675H94.1222C94.2322 47.945 95.3272 47.08 97.4072 47.08C99.4472 47.08 100.467 47.84 100.467 49.36V53.455C100.467 53.715 100.607 53.845 100.887 53.845ZM96.7772 54.01C97.4172 54.01 97.9472 53.83 98.3672 53.47C98.7872 53.11 98.9972 52.6 98.9972 51.94V51.13C98.8072 51.29 98.4872 51.395 98.0372 51.445L96.9572 51.565C96.3772 51.635 95.9622 51.775 95.7122 51.985C95.4622 52.185 95.3372 52.47 95.3372 52.84C95.3372 53.21 95.4572 53.5 95.6972 53.71C95.9472 53.91 96.3072 54.01 96.7772 54.01ZM106.168 47.08C107.018 47.08 107.683 47.32 108.163 47.8C108.643 48.27 108.883 48.94 108.883 49.81V55H107.383V50.02C107.383 48.94 106.838 48.4 105.748 48.4C105.248 48.4 104.798 48.59 104.398 48.97C103.998 49.36 103.798 49.915 103.798 50.635V55H102.298V47.26H103.738V48.415C104.328 47.525 105.138 47.08 106.168 47.08ZM115.84 52.24H117.37C117.27 53.02 116.975 53.665 116.485 54.175C115.995 54.685 115.37 55 114.61 55.12L113.995 55.825H114.145C114.575 55.825 114.92 55.935 115.18 56.155C115.44 56.385 115.57 56.67 115.57 57.01C115.57 57.46 115.39 57.81 115.03 58.06C114.68 58.32 114.15 58.45 113.44 58.45C113.1 58.45 112.78 58.42 112.48 58.36V57.625C112.76 57.665 113.05 57.685 113.35 57.685C113.98 57.685 114.295 57.465 114.295 57.025C114.295 56.625 114.01 56.425 113.44 56.425C113.25 56.425 113.11 56.43 113.02 56.44V55.87L113.575 55.165C112.575 55.095 111.765 54.69 111.145 53.95C110.525 53.22 110.215 52.28 110.215 51.13C110.215 49.9 110.555 48.915 111.235 48.175C111.905 47.445 112.795 47.08 113.905 47.08C114.855 47.08 115.635 47.34 116.245 47.86C116.865 48.38 117.235 49.08 117.355 49.96H115.825C115.725 49.45 115.5 49.06 115.15 48.79C114.81 48.52 114.395 48.385 113.905 48.385C113.255 48.385 112.735 48.625 112.345 49.105C111.965 49.575 111.775 50.25 111.775 51.13C111.775 52.01 111.965 52.69 112.345 53.17C112.735 53.64 113.255 53.875 113.905 53.875C114.405 53.875 114.83 53.735 115.18 53.455C115.53 53.175 115.75 52.77 115.84 52.24ZM125.233 53.845H125.653V55C125.433 55.03 125.188 55.045 124.918 55.045C124.438 55.045 124.078 54.96 123.838 54.79C123.608 54.61 123.468 54.33 123.418 53.95C122.898 54.77 122.058 55.18 120.898 55.18C120.048 55.18 119.373 54.98 118.873 54.58C118.383 54.17 118.138 53.605 118.138 52.885C118.138 51.485 119.108 50.685 121.048 50.485L122.188 50.365C122.588 50.315 122.878 50.215 123.058 50.065C123.248 49.905 123.343 49.68 123.343 49.39C123.343 49 123.218 48.72 122.968 48.55C122.728 48.37 122.323 48.28 121.753 48.28C121.133 48.28 120.688 48.385 120.418 48.595C120.148 48.795 119.993 49.155 119.953 49.675H118.468C118.578 47.945 119.673 47.08 121.753 47.08C123.793 47.08 124.813 47.84 124.813 49.36V53.455C124.813 53.715 124.953 53.845 125.233 53.845ZM121.123 54.01C121.763 54.01 122.293 53.83 122.713 53.47C123.133 53.11 123.343 52.6 123.343 51.94V51.13C123.153 51.29 122.833 51.395 122.383 51.445L121.303 51.565C120.723 51.635 120.308 51.775 120.058 51.985C119.808 52.185 119.683 52.47 119.683 52.84C119.683 53.21 119.803 53.5 120.043 53.71C120.293 53.91 120.653 54.01 121.123 54.01ZM129.538 55.195C127.388 55.195 126.258 54.31 126.148 52.54H127.648C127.708 53.08 127.883 53.46 128.173 53.68C128.463 53.9 128.923 54.01 129.553 54.01C130.693 54.01 131.263 53.65 131.263 52.93C131.263 52.62 131.143 52.38 130.903 52.21C130.663 52.04 130.233 51.9 129.613 51.79L128.818 51.64C127.178 51.34 126.358 50.57 126.358 49.33C126.358 48.64 126.623 48.095 127.153 47.695C127.683 47.285 128.413 47.08 129.343 47.08C131.473 47.08 132.563 47.945 132.613 49.675H131.158C131.128 49.155 130.968 48.79 130.678 48.58C130.388 48.36 129.943 48.25 129.343 48.25C128.863 48.25 128.493 48.34 128.233 48.52C127.973 48.7 127.843 48.955 127.843 49.285C127.843 49.585 127.958 49.82 128.188 49.99C128.418 50.15 128.783 50.28 129.283 50.38L130.093 50.515C131.043 50.695 131.728 50.965 132.148 51.325C132.568 51.685 132.778 52.185 132.778 52.825C132.778 53.575 132.493 54.16 131.923 54.58C131.353 54.99 130.558 55.195 129.538 55.195ZM140.947 47.08C142.027 47.08 142.887 47.445 143.527 48.175C144.167 48.905 144.487 49.89 144.487 51.13C144.487 52.36 144.167 53.34 143.527 54.07C142.877 54.81 142.017 55.18 140.947 55.18C139.847 55.18 139.007 54.76 138.427 53.92V57.94H136.927V47.26H138.367V48.43C138.947 47.53 139.807 47.08 140.947 47.08ZM139.012 53.155C139.412 53.645 139.962 53.89 140.662 53.89C141.362 53.89 141.917 53.64 142.327 53.14C142.727 52.65 142.927 51.96 142.927 51.07C142.927 50.21 142.727 49.545 142.327 49.075C141.927 48.605 141.372 48.37 140.662 48.37C139.972 48.37 139.422 48.61 139.012 49.09C138.602 49.59 138.397 50.27 138.397 51.13C138.397 51.99 138.602 52.665 139.012 53.155ZM152.347 53.845H152.767V55C152.547 55.03 152.302 55.045 152.032 55.045C151.552 55.045 151.192 54.96 150.952 54.79C150.722 54.61 150.582 54.33 150.532 53.95C150.012 54.77 149.172 55.18 148.012 55.18C147.162 55.18 146.487 54.98 145.987 54.58C145.497 54.17 145.252 53.605 145.252 52.885C145.252 51.485 146.222 50.685 148.162 50.485L149.302 50.365C149.702 50.315 149.992 50.215 150.172 50.065C150.362 49.905 150.457 49.68 150.457 49.39C150.457 49 150.332 48.72 150.082 48.55C149.842 48.37 149.437 48.28 148.867 48.28C148.247 48.28 147.802 48.385 147.532 48.595C147.262 48.795 147.107 49.155 147.067 49.675H145.582C145.692 47.945 146.787 47.08 148.867 47.08C150.907 47.08 151.927 47.84 151.927 49.36V53.455C151.927 53.715 152.067 53.845 152.347 53.845ZM148.237 54.01C148.877 54.01 149.407 53.83 149.827 53.47C150.247 53.11 150.457 52.6 150.457 51.94V51.13C150.267 51.29 149.947 51.395 149.497 51.445L148.417 51.565C147.837 51.635 147.422 51.775 147.172 51.985C146.922 52.185 146.797 52.47 146.797 52.84C146.797 53.21 146.917 53.5 147.157 53.71C147.407 53.91 147.767 54.01 148.237 54.01ZM157.613 47.14C157.833 47.14 157.978 47.145 158.048 47.155V48.58H157.673C156.903 48.58 156.308 48.77 155.888 49.15C155.468 49.53 155.258 50.08 155.258 50.8V55H153.758V47.26H155.198V48.64C155.688 47.64 156.493 47.14 157.613 47.14ZM165.296 53.845H165.716V55C165.496 55.03 165.251 55.045 164.981 55.045C164.501 55.045 164.141 54.96 163.901 54.79C163.671 54.61 163.531 54.33 163.481 53.95C162.961 54.77 162.121 55.18 160.961 55.18C160.111 55.18 159.436 54.98 158.936 54.58C158.446 54.17 158.201 53.605 158.201 52.885C158.201 51.485 159.171 50.685 161.111 50.485L162.251 50.365C162.651 50.315 162.941 50.215 163.121 50.065C163.311 49.905 163.406 49.68 163.406 49.39C163.406 49 163.281 48.72 163.031 48.55C162.791 48.37 162.386 48.28 161.816 48.28C161.196 48.28 160.751 48.385 160.481 48.595C160.211 48.795 160.056 49.155 160.016 49.675H158.531C158.641 47.945 159.736 47.08 161.816 47.08C163.856 47.08 164.876 47.84 164.876 49.36V53.455C164.876 53.715 165.016 53.845 165.296 53.845ZM161.186 54.01C161.826 54.01 162.356 53.83 162.776 53.47C163.196 53.11 163.406 52.6 163.406 51.94V51.13C163.216 51.29 162.896 51.395 162.446 51.445L161.366 51.565C160.786 51.635 160.371 51.775 160.121 51.985C159.871 52.185 159.746 52.47 159.746 52.84C159.746 53.21 159.866 53.5 160.106 53.71C160.356 53.91 160.716 54.01 161.186 54.01ZM175.485 48.355V47.26H176.925V54.715C176.925 55.775 176.605 56.605 175.965 57.205C175.325 57.815 174.415 58.12 173.235 58.12C172.225 58.12 171.42 57.89 170.82 57.43C170.23 56.97 169.895 56.34 169.815 55.54H171.315C171.435 56.45 172.08 56.905 173.25 56.905C174.7 56.905 175.425 56.185 175.425 54.745V53.89C174.835 54.69 174.005 55.09 172.935 55.09C171.855 55.09 170.995 54.725 170.355 53.995C169.705 53.255 169.38 52.285 169.38 51.085C169.38 49.885 169.705 48.915 170.355 48.175C170.995 47.445 171.85 47.08 172.92 47.08C174.05 47.08 174.905 47.505 175.485 48.355ZM173.205 53.8C173.905 53.8 174.455 53.56 174.855 53.08C175.265 52.59 175.47 51.925 175.47 51.085C175.47 50.245 175.265 49.585 174.855 49.105C174.455 48.615 173.905 48.37 173.205 48.37C172.515 48.37 171.965 48.615 171.555 49.105C171.145 49.595 170.94 50.255 170.94 51.085C170.94 51.925 171.145 52.59 171.555 53.08C171.965 53.56 172.515 53.8 173.205 53.8ZM185.607 51.19V51.625H179.772C179.842 52.385 180.067 52.96 180.447 53.35C180.827 53.73 181.342 53.92 181.992 53.92C182.972 53.92 183.612 53.49 183.912 52.63H185.427C185.217 53.42 184.807 54.045 184.197 54.505C183.597 54.955 182.852 55.18 181.962 55.18C180.852 55.18 179.957 54.81 179.277 54.07C178.597 53.33 178.257 52.35 178.257 51.13C178.257 49.91 178.597 48.93 179.277 48.19C179.957 47.45 180.842 47.08 181.932 47.08C183.072 47.08 183.972 47.465 184.632 48.235C185.282 49.005 185.607 49.99 185.607 51.19ZM181.932 48.34C181.342 48.34 180.857 48.52 180.477 48.88C180.107 49.24 179.877 49.76 179.787 50.44H184.062C183.992 49.81 183.767 49.305 183.387 48.925C183.017 48.535 182.532 48.34 181.932 48.34ZM190.792 47.14C191.012 47.14 191.157 47.145 191.227 47.155V48.58H190.852C190.082 48.58 189.487 48.77 189.067 49.15C188.647 49.53 188.437 50.08 188.437 50.8V55H186.937V47.26H188.377V48.64C188.867 47.64 189.672 47.14 190.792 47.14ZM198.475 53.845H198.895V55C198.675 55.03 198.43 55.045 198.16 55.045C197.68 55.045 197.32 54.96 197.08 54.79C196.85 54.61 196.71 54.33 196.66 53.95C196.14 54.77 195.3 55.18 194.14 55.18C193.29 55.18 192.615 54.98 192.115 54.58C191.625 54.17 191.38 53.605 191.38 52.885C191.38 51.485 192.35 50.685 194.29 50.485L195.43 50.365C195.83 50.315 196.12 50.215 196.3 50.065C196.49 49.905 196.585 49.68 196.585 49.39C196.585 49 196.46 48.72 196.21 48.55C195.97 48.37 195.565 48.28 194.995 48.28C194.375 48.28 193.93 48.385 193.66 48.595C193.39 48.795 193.235 49.155 193.195 49.675H191.71C191.82 47.945 192.915 47.08 194.995 47.08C197.035 47.08 198.055 47.84 198.055 49.36V53.455C198.055 53.715 198.195 53.845 198.475 53.845ZM194.365 54.01C195.005 54.01 195.535 53.83 195.955 53.47C196.375 53.11 196.585 52.6 196.585 51.94V51.13C196.395 51.29 196.075 51.395 195.625 51.445L194.545 51.565C193.965 51.635 193.55 51.775 193.3 51.985C193.05 52.185 192.925 52.47 192.925 52.84C192.925 53.21 193.045 53.5 193.285 53.71C193.535 53.91 193.895 54.01 194.365 54.01ZM203.741 47.14C203.961 47.14 204.106 47.145 204.176 47.155V48.58H203.801C203.031 48.58 202.436 48.77 202.016 49.15C201.596 49.53 201.386 50.08 201.386 50.8V55H199.886V47.26H201.326V48.64C201.816 47.64 202.621 47.14 203.741 47.14ZM211.742 55.18C210.642 55.18 209.752 54.81 209.072 54.07C208.392 53.33 208.052 52.35 208.052 51.13C208.052 49.9 208.392 48.915 209.072 48.175C209.742 47.445 210.632 47.08 211.742 47.08C212.692 47.08 213.472 47.34 214.082 47.86C214.702 48.38 215.072 49.08 215.192 49.96H213.662C213.562 49.45 213.337 49.06 212.987 48.79C212.647 48.52 212.232 48.385 211.742 48.385C211.092 48.385 210.572 48.625 210.182 49.105C209.802 49.575 209.612 50.25 209.612 51.13C209.612 52.01 209.802 52.69 210.182 53.17C210.572 53.64 211.092 53.875 211.742 53.875C212.242 53.875 212.667 53.735 213.017 53.455C213.367 53.175 213.587 52.77 213.677 52.24H215.207C215.087 53.14 214.712 53.855 214.082 54.385C213.452 54.915 212.672 55.18 211.742 55.18ZM220.236 47.14C220.456 47.14 220.601 47.145 220.671 47.155V48.58H220.296C219.526 48.58 218.931 48.77 218.511 49.15C218.091 49.53 217.881 50.08 217.881 50.8V55H216.381V47.26H217.821V48.64C218.311 47.64 219.116 47.14 220.236 47.14ZM228.336 51.19V51.625H222.501C222.571 52.385 222.796 52.96 223.176 53.35C223.556 53.73 224.071 53.92 224.721 53.92C225.701 53.92 226.341 53.49 226.641 52.63H228.156C227.946 53.42 227.536 54.045 226.926 54.505C226.326 54.955 225.581 55.18 224.691 55.18C223.581 55.18 222.686 54.81 222.006 54.07C221.326 53.33 220.986 52.35 220.986 51.13C220.986 49.91 221.326 48.93 222.006 48.19C222.686 47.45 223.571 47.08 224.661 47.08C225.801 47.08 226.701 47.465 227.361 48.235C228.011 49.005 228.336 49.99 228.336 51.19ZM224.661 48.34C224.071 48.34 223.586 48.52 223.206 48.88C222.836 49.24 222.606 49.76 222.516 50.44H226.791C226.721 49.81 226.496 49.305 226.116 48.925C225.746 48.535 225.261 48.34 224.661 48.34ZM232.488 55.195C230.338 55.195 229.208 54.31 229.098 52.54H230.598C230.658 53.08 230.833 53.46 231.123 53.68C231.413 53.9 231.873 54.01 232.503 54.01C233.643 54.01 234.213 53.65 234.213 52.93C234.213 52.62 234.093 52.38 233.853 52.21C233.613 52.04 233.183 51.9 232.563 51.79L231.768 51.64C230.128 51.34 229.308 50.57 229.308 49.33C229.308 48.64 229.573 48.095 230.103 47.695C230.633 47.285 231.363 47.08 232.293 47.08C234.423 47.08 235.513 47.945 235.563 49.675H234.108C234.078 49.155 233.918 48.79 233.628 48.58C233.338 48.36 232.893 48.25 232.293 48.25C231.813 48.25 231.443 48.34 231.183 48.52C230.923 48.7 230.793 48.955 230.793 49.285C230.793 49.585 230.908 49.82 231.138 49.99C231.368 50.15 231.733 50.28 232.233 50.38L233.043 50.515C233.993 50.695 234.678 50.965 235.098 51.325C235.518 51.685 235.728 52.185 235.728 52.825C235.728 53.575 235.443 54.16 234.873 54.58C234.303 54.99 233.508 55.195 232.488 55.195ZM240.174 55.18C239.074 55.18 238.184 54.81 237.504 54.07C236.824 53.33 236.484 52.35 236.484 51.13C236.484 49.9 236.824 48.915 237.504 48.175C238.174 47.445 239.064 47.08 240.174 47.08C241.124 47.08 241.904 47.34 242.514 47.86C243.134 48.38 243.504 49.08 243.624 49.96H242.094C241.994 49.45 241.769 49.06 241.419 48.79C241.079 48.52 240.664 48.385 240.174 48.385C239.524 48.385 239.004 48.625 238.614 49.105C238.234 49.575 238.044 50.25 238.044 51.13C238.044 52.01 238.234 52.69 238.614 53.17C239.004 53.64 239.524 53.875 240.174 53.875C240.674 53.875 241.099 53.735 241.449 53.455C241.799 53.175 242.019 52.77 242.109 52.24H243.639C243.519 53.14 243.144 53.855 242.514 54.385C241.884 54.915 241.104 55.18 240.174 55.18ZM246.328 46.165H244.798V44.56H246.328V46.165ZM246.313 55H244.813V47.26H246.313V55ZM256.452 47.08C257.292 47.08 257.947 47.33 258.417 47.83C258.887 48.32 259.122 48.98 259.122 49.81V55H257.607V50.005C257.607 48.935 257.112 48.4 256.122 48.4C255.592 48.4 255.157 48.605 254.817 49.015C254.477 49.415 254.307 49.995 254.307 50.755V55H252.807V50.005C252.807 48.935 252.307 48.4 251.307 48.4C250.777 48.4 250.342 48.605 250.002 49.015C249.662 49.425 249.492 50.005 249.492 50.755V55H247.992V47.26H249.432V48.415C249.962 47.525 250.707 47.08 251.667 47.08C252.837 47.08 253.632 47.565 254.052 48.535C254.602 47.565 255.402 47.08 256.452 47.08ZM267.785 51.19V51.625H261.95C262.02 52.385 262.245 52.96 262.625 53.35C263.005 53.73 263.52 53.92 264.17 53.92C265.15 53.92 265.79 53.49 266.09 52.63H267.605C267.395 53.42 266.985 54.045 266.375 54.505C265.775 54.955 265.03 55.18 264.14 55.18C263.03 55.18 262.135 54.81 261.455 54.07C260.775 53.33 260.435 52.35 260.435 51.13C260.435 49.91 260.775 48.93 261.455 48.19C262.135 47.45 263.02 47.08 264.11 47.08C265.25 47.08 266.15 47.465 266.81 48.235C267.46 49.005 267.785 49.99 267.785 51.19ZM264.11 48.34C263.52 48.34 263.035 48.52 262.655 48.88C262.285 49.24 262.055 49.76 261.965 50.44H266.24C266.17 49.81 265.945 49.305 265.565 48.925C265.195 48.535 264.71 48.34 264.11 48.34ZM272.985 47.08C273.835 47.08 274.5 47.32 274.98 47.8C275.46 48.27 275.7 48.94 275.7 49.81V55H274.2V50.02C274.2 48.94 273.655 48.4 272.565 48.4C272.065 48.4 271.615 48.59 271.215 48.97C270.815 49.36 270.615 49.915 270.615 50.635V55H269.115V47.26H270.555V48.415C271.145 47.525 271.955 47.08 272.985 47.08ZM280.788 47.26V48.49H279.228V53.14C279.228 53.37 279.293 53.54 279.423 53.65C279.563 53.75 279.793 53.8 280.113 53.8H280.788V55C280.458 55.03 280.153 55.045 279.873 55.045C279.143 55.045 278.603 54.905 278.253 54.625C277.903 54.345 277.728 53.895 277.728 53.275V48.49H276.483V47.26H277.728V45.04H279.228V47.26H280.788ZM288.099 54.07C287.389 54.81 286.464 55.18 285.324 55.18C284.184 55.18 283.259 54.81 282.549 54.07C281.839 53.33 281.484 52.35 281.484 51.13C281.484 49.9 281.839 48.915 282.549 48.175C283.249 47.445 284.174 47.08 285.324 47.08C286.474 47.08 287.399 47.445 288.099 48.175C288.799 48.905 289.149 49.89 289.149 51.13C289.149 52.36 288.799 53.34 288.099 54.07ZM283.659 53.155C284.069 53.645 284.624 53.89 285.324 53.89C286.024 53.89 286.574 53.645 286.974 53.155C287.384 52.665 287.589 51.99 287.589 51.13C287.589 50.27 287.384 49.595 286.974 49.105C286.574 48.615 286.024 48.37 285.324 48.37C284.624 48.37 284.069 48.615 283.659 49.105C283.249 49.595 283.044 50.27 283.044 51.13C283.044 51.99 283.249 52.665 283.659 53.155ZM297.36 47.14C297.58 47.14 297.725 47.145 297.795 47.155V48.58H297.42C296.65 48.58 296.055 48.77 295.635 49.15C295.215 49.53 295.005 50.08 295.005 50.8V55H293.505V47.26H294.945V48.64C295.435 47.64 296.24 47.14 297.36 47.14ZM305.46 51.19V51.625H299.625C299.695 52.385 299.92 52.96 300.3 53.35C300.68 53.73 301.195 53.92 301.845 53.92C302.825 53.92 303.465 53.49 303.765 52.63H305.28C305.07 53.42 304.66 54.045 304.05 54.505C303.45 54.955 302.705 55.18 301.815 55.18C300.705 55.18 299.81 54.81 299.13 54.07C298.45 53.33 298.11 52.35 298.11 51.13C298.11 49.91 298.45 48.93 299.13 48.19C299.81 47.45 300.695 47.08 301.785 47.08C302.925 47.08 303.825 47.465 304.485 48.235C305.135 49.005 305.46 49.99 305.46 51.19ZM301.785 48.34C301.195 48.34 300.71 48.52 300.33 48.88C299.96 49.24 299.73 49.76 299.64 50.44H303.915C303.845 49.81 303.62 49.305 303.24 48.925C302.87 48.535 302.385 48.34 301.785 48.34ZM313.377 53.845H313.797V55C313.577 55.03 313.332 55.045 313.062 55.045C312.582 55.045 312.222 54.96 311.982 54.79C311.752 54.61 311.612 54.33 311.562 53.95C311.042 54.77 310.202 55.18 309.042 55.18C308.192 55.18 307.517 54.98 307.017 54.58C306.527 54.17 306.282 53.605 306.282 52.885C306.282 51.485 307.252 50.685 309.192 50.485L310.332 50.365C310.732 50.315 311.022 50.215 311.202 50.065C311.392 49.905 311.487 49.68 311.487 49.39C311.487 49 311.362 48.72 311.112 48.55C310.872 48.37 310.467 48.28 309.897 48.28C309.277 48.28 308.832 48.385 308.562 48.595C308.292 48.795 308.137 49.155 308.097 49.675H306.612C306.722 47.945 307.817 47.08 309.897 47.08C311.937 47.08 312.957 47.84 312.957 49.36V53.455C312.957 53.715 313.097 53.845 313.377 53.845ZM309.267 54.01C309.907 54.01 310.437 53.83 310.857 53.47C311.277 53.11 311.487 52.6 311.487 51.94V51.13C311.297 51.29 310.977 51.395 310.527 51.445L309.447 51.565C308.867 51.635 308.452 51.775 308.202 51.985C307.952 52.185 307.827 52.47 307.827 52.84C307.827 53.21 307.947 53.5 308.187 53.71C308.437 53.91 308.797 54.01 309.267 54.01ZM316.23 55H314.73V44.32H316.23V55ZM327.931 51.19V51.625H322.096C322.166 52.385 322.391 52.96 322.771 53.35C323.151 53.73 323.666 53.92 324.316 53.92C325.296 53.92 325.936 53.49 326.236 52.63H327.751C327.541 53.42 327.131 54.045 326.521 54.505C325.921 54.955 325.176 55.18 324.286 55.18C323.176 55.18 322.281 54.81 321.601 54.07C320.921 53.33 320.581 52.35 320.581 51.13C320.581 49.91 320.921 48.93 321.601 48.19C322.281 47.45 323.166 47.08 324.256 47.08C325.396 47.08 326.296 47.465 326.956 48.235C327.606 49.005 327.931 49.99 327.931 51.19ZM324.256 48.34C323.666 48.34 323.181 48.52 322.801 48.88C322.431 49.24 322.201 49.76 322.111 50.44H326.386C326.316 49.81 326.091 49.305 325.711 48.925C325.341 48.535 324.856 48.34 324.256 48.34ZM82.9558 69.08C83.7958 69.08 84.4508 69.33 84.9208 69.83C85.3908 70.32 85.6258 70.98 85.6258 71.81V77H84.1108V72.005C84.1108 70.935 83.6158 70.4 82.6258 70.4C82.0958 70.4 81.6608 70.605 81.3208 71.015C80.9808 71.415 80.8108 71.995 80.8108 72.755V77H79.3108V72.005C79.3108 70.935 78.8108 70.4 77.8108 70.4C77.2808 70.4 76.8458 70.605 76.5058 71.015C76.1658 71.425 75.9958 72.005 75.9958 72.755V77H74.4958V69.26H75.9358V70.415C76.4658 69.525 77.2108 69.08 78.1708 69.08C79.3408 69.08 80.1358 69.565 80.5558 70.535C81.1058 69.565 81.9058 69.08 82.9558 69.08ZM94.2885 73.19V73.625H88.4535C88.5235 74.385 88.7485 74.96 89.1285 75.35C89.5085 75.73 90.0235 75.92 90.6735 75.92C91.6535 75.92 92.2935 75.49 92.5935 74.63H94.1085C93.8985 75.42 93.4885 76.045 92.8785 76.505C92.2785 76.955 91.5335 77.18 90.6435 77.18C89.5335 77.18 88.6385 76.81 87.9585 76.07C87.2785 75.33 86.9385 74.35 86.9385 73.13C86.9385 71.91 87.2785 70.93 87.9585 70.19C88.6385 69.45 89.5235 69.08 90.6135 69.08C91.7535 69.08 92.6535 69.465 93.3135 70.235C93.9635 71.005 94.2885 71.99 94.2885 73.19ZM90.6135 70.34C90.0235 70.34 89.5385 70.52 89.1585 70.88C88.7885 71.24 88.5585 71.76 88.4685 72.44H92.7435C92.6735 71.81 92.4485 71.305 92.0685 70.925C91.6985 70.535 91.2135 70.34 90.6135 70.34ZM99.4888 69.08C100.339 69.08 101.004 69.32 101.484 69.8C101.964 70.27 102.204 70.94 102.204 71.81V77H100.704V72.02C100.704 70.94 100.159 70.4 99.0688 70.4C98.5688 70.4 98.1188 70.59 97.7188 70.97C97.3188 71.36 97.1188 71.915 97.1188 72.635V77H95.6188V69.26H97.0588V70.415C97.6488 69.525 98.4588 69.08 99.4888 69.08ZM106.76 77.195C104.61 77.195 103.48 76.31 103.37 74.54H104.87C104.93 75.08 105.105 75.46 105.395 75.68C105.685 75.9 106.145 76.01 106.775 76.01C107.915 76.01 108.485 75.65 108.485 74.93C108.485 74.62 108.365 74.38 108.125 74.21C107.885 74.04 107.455 73.9 106.835 73.79L106.04 73.64C104.4 73.34 103.58 72.57 103.58 71.33C103.58 70.64 103.845 70.095 104.375 69.695C104.905 69.285 105.635 69.08 106.565 69.08C108.695 69.08 109.785 69.945 109.835 71.675H108.38C108.35 71.155 108.19 70.79 107.9 70.58C107.61 70.36 107.165 70.25 106.565 70.25C106.085 70.25 105.715 70.34 105.455 70.52C105.195 70.7 105.065 70.955 105.065 71.285C105.065 71.585 105.18 71.82 105.41 71.99C105.64 72.15 106.005 72.28 106.505 72.38L107.315 72.515C108.265 72.695 108.95 72.965 109.37 73.325C109.79 73.685 110 74.185 110 74.825C110 75.575 109.715 76.16 109.145 76.58C108.575 76.99 107.78 77.195 106.76 77.195ZM116.202 73.625V69.26H117.702V77H116.262V75.845C115.672 76.735 114.862 77.18 113.832 77.18C112.982 77.18 112.317 76.94 111.837 76.46C111.357 75.98 111.117 75.31 111.117 74.45V69.26H112.617V74.24C112.617 75.32 113.162 75.86 114.252 75.86C114.802 75.86 115.262 75.665 115.632 75.275C116.012 74.875 116.202 74.325 116.202 73.625ZM123.248 69.14C123.468 69.14 123.613 69.145 123.683 69.155V70.58H123.308C122.538 70.58 121.943 70.77 121.523 71.15C121.103 71.53 120.893 72.08 120.893 72.8V77H119.393V69.26H120.833V70.64C121.323 69.64 122.128 69.14 123.248 69.14ZM128.156 66.005H130.031L128.141 68.165H126.851L128.156 66.005ZM130.931 75.845H131.351V77C131.131 77.03 130.886 77.045 130.616 77.045C130.136 77.045 129.776 76.96 129.536 76.79C129.306 76.61 129.166 76.33 129.116 75.95C128.596 76.77 127.756 77.18 126.596 77.18C125.746 77.18 125.071 76.98 124.571 76.58C124.081 76.17 123.836 75.605 123.836 74.885C123.836 73.485 124.806 72.685 126.746 72.485L127.886 72.365C128.286 72.315 128.576 72.215 128.756 72.065C128.946 71.905 129.041 71.68 129.041 71.39C129.041 71 128.916 70.72 128.666 70.55C128.426 70.37 128.021 70.28 127.451 70.28C126.831 70.28 126.386 70.385 126.116 70.595C125.846 70.795 125.691 71.155 125.651 71.675H124.166C124.276 69.945 125.371 69.08 127.451 69.08C129.491 69.08 130.511 69.84 130.511 71.36V75.455C130.511 75.715 130.651 75.845 130.931 75.845ZM126.821 76.01C127.461 76.01 127.991 75.83 128.411 75.47C128.831 75.11 129.041 74.6 129.041 73.94V73.13C128.851 73.29 128.531 73.395 128.081 73.445L127.001 73.565C126.421 73.635 126.006 73.775 125.756 73.985C125.506 74.185 125.381 74.47 125.381 74.84C125.381 75.21 125.501 75.5 125.741 75.71C125.991 75.91 126.351 76.01 126.821 76.01ZM136.147 72.095L137.182 69.26H138.772L135.802 77H134.137L131.182 69.26H132.802L133.852 72.095C134.562 74.205 134.942 75.355 134.992 75.545C135.022 75.445 135.087 75.245 135.187 74.945C135.287 74.645 135.427 74.235 135.607 73.715C135.787 73.185 135.967 72.645 136.147 72.095ZM146.232 73.19V73.625H140.397C140.467 74.385 140.692 74.96 141.072 75.35C141.452 75.73 141.967 75.92 142.617 75.92C143.597 75.92 144.237 75.49 144.537 74.63H146.052C145.842 75.42 145.432 76.045 144.822 76.505C144.222 76.955 143.477 77.18 142.587 77.18C141.477 77.18 140.582 76.81 139.902 76.07C139.222 75.33 138.882 74.35 138.882 73.13C138.882 71.91 139.222 70.93 139.902 70.19C140.582 69.45 141.467 69.08 142.557 69.08C143.697 69.08 144.597 69.465 145.257 70.235C145.907 71.005 146.232 71.99 146.232 73.19ZM142.557 70.34C141.967 70.34 141.482 70.52 141.102 70.88C140.732 71.24 140.502 71.76 140.412 72.44H144.687C144.617 71.81 144.392 71.305 144.012 70.925C143.642 70.535 143.157 70.34 142.557 70.34ZM149.062 77H147.562V66.32H149.062V77ZM157.793 69.08C158.873 69.08 159.733 69.445 160.373 70.175C161.013 70.905 161.333 71.89 161.333 73.13C161.333 74.36 161.013 75.34 160.373 76.07C159.723 76.81 158.863 77.18 157.793 77.18C156.693 77.18 155.853 76.76 155.273 75.92V79.94H153.773V69.26H155.213V70.43C155.793 69.53 156.653 69.08 157.793 69.08ZM155.858 75.155C156.258 75.645 156.808 75.89 157.508 75.89C158.208 75.89 158.763 75.64 159.173 75.14C159.573 74.65 159.773 73.96 159.773 73.07C159.773 72.21 159.573 71.545 159.173 71.075C158.773 70.605 158.218 70.37 157.508 70.37C156.818 70.37 156.268 70.61 155.858 71.09C155.448 71.59 155.243 72.27 155.243 73.13C155.243 73.99 155.448 74.665 155.858 75.155ZM169.193 75.845H169.613V77C169.393 77.03 169.148 77.045 168.878 77.045C168.398 77.045 168.038 76.96 167.798 76.79C167.568 76.61 167.428 76.33 167.378 75.95C166.858 76.77 166.018 77.18 164.858 77.18C164.008 77.18 163.333 76.98 162.833 76.58C162.343 76.17 162.098 75.605 162.098 74.885C162.098 73.485 163.068 72.685 165.008 72.485L166.148 72.365C166.548 72.315 166.838 72.215 167.018 72.065C167.208 71.905 167.303 71.68 167.303 71.39C167.303 71 167.178 70.72 166.928 70.55C166.688 70.37 166.283 70.28 165.713 70.28C165.093 70.28 164.648 70.385 164.378 70.595C164.108 70.795 163.953 71.155 163.913 71.675H162.428C162.538 69.945 163.633 69.08 165.713 69.08C167.753 69.08 168.773 69.84 168.773 71.36V75.455C168.773 75.715 168.913 75.845 169.193 75.845ZM165.083 76.01C165.723 76.01 166.253 75.83 166.673 75.47C167.093 75.11 167.303 74.6 167.303 73.94V73.13C167.113 73.29 166.793 73.395 166.343 73.445L165.263 73.565C164.683 73.635 164.268 73.775 164.018 73.985C163.768 74.185 163.643 74.47 163.643 74.84C163.643 75.21 163.763 75.5 164.003 75.71C164.253 75.91 164.613 76.01 165.083 76.01ZM174.459 69.14C174.679 69.14 174.824 69.145 174.894 69.155V70.58H174.519C173.749 70.58 173.154 70.77 172.734 71.15C172.314 71.53 172.104 72.08 172.104 72.8V77H170.604V69.26H172.044V70.64C172.534 69.64 173.339 69.14 174.459 69.14ZM182.142 75.845H182.562V77C182.342 77.03 182.097 77.045 181.827 77.045C181.347 77.045 180.987 76.96 180.747 76.79C180.517 76.61 180.377 76.33 180.327 75.95C179.807 76.77 178.967 77.18 177.807 77.18C176.957 77.18 176.282 76.98 175.782 76.58C175.292 76.17 175.047 75.605 175.047 74.885C175.047 73.485 176.017 72.685 177.957 72.485L179.097 72.365C179.497 72.315 179.787 72.215 179.967 72.065C180.157 71.905 180.252 71.68 180.252 71.39C180.252 71 180.127 70.72 179.877 70.55C179.637 70.37 179.232 70.28 178.662 70.28C178.042 70.28 177.597 70.385 177.327 70.595C177.057 70.795 176.902 71.155 176.862 71.675H175.377C175.487 69.945 176.582 69.08 178.662 69.08C180.702 69.08 181.722 69.84 181.722 71.36V75.455C181.722 75.715 181.862 75.845 182.142 75.845ZM178.032 76.01C178.672 76.01 179.202 75.83 179.622 75.47C180.042 75.11 180.252 74.6 180.252 73.94V73.13C180.062 73.29 179.742 73.395 179.292 73.445L178.212 73.565C177.632 73.635 177.217 73.775 176.967 73.985C176.717 74.185 176.592 74.47 176.592 74.84C176.592 75.21 176.712 75.5 176.952 75.71C177.202 75.91 177.562 76.01 178.032 76.01ZM189.451 77.195C187.301 77.195 186.171 76.31 186.061 74.54H187.561C187.621 75.08 187.796 75.46 188.086 75.68C188.376 75.9 188.836 76.01 189.466 76.01C190.606 76.01 191.176 75.65 191.176 74.93C191.176 74.62 191.056 74.38 190.816 74.21C190.576 74.04 190.146 73.9 189.526 73.79L188.731 73.64C187.091 73.34 186.271 72.57 186.271 71.33C186.271 70.64 186.536 70.095 187.066 69.695C187.596 69.285 188.326 69.08 189.256 69.08C191.386 69.08 192.476 69.945 192.526 71.675H191.071C191.041 71.155 190.881 70.79 190.591 70.58C190.301 70.36 189.856 70.25 189.256 70.25C188.776 70.25 188.406 70.34 188.146 70.52C187.886 70.7 187.756 70.955 187.756 71.285C187.756 71.585 187.871 71.82 188.101 71.99C188.331 72.15 188.696 72.28 189.196 72.38L190.006 72.515C190.956 72.695 191.641 72.965 192.061 73.325C192.481 73.685 192.691 74.185 192.691 74.825C192.691 75.575 192.406 76.16 191.836 76.58C191.266 76.99 190.471 77.195 189.451 77.195ZM200.797 73.19V73.625H194.962C195.032 74.385 195.257 74.96 195.637 75.35C196.017 75.73 196.532 75.92 197.182 75.92C198.162 75.92 198.802 75.49 199.102 74.63H200.617C200.407 75.42 199.997 76.045 199.387 76.505C198.787 76.955 198.042 77.18 197.152 77.18C196.042 77.18 195.147 76.81 194.467 76.07C193.787 75.33 193.447 74.35 193.447 73.13C193.447 71.91 193.787 70.93 194.467 70.19C195.147 69.45 196.032 69.08 197.122 69.08C198.262 69.08 199.162 69.465 199.822 70.235C200.472 71.005 200.797 71.99 200.797 73.19ZM197.122 70.34C196.532 70.34 196.047 70.52 195.667 70.88C195.297 71.24 195.067 71.76 194.977 72.44H199.252C199.182 71.81 198.957 71.305 198.577 70.925C198.207 70.535 197.722 70.34 197.122 70.34ZM207.008 73.625V69.26H208.508V77H207.068V75.845C206.478 76.735 205.668 77.18 204.638 77.18C203.788 77.18 203.123 76.94 202.643 76.46C202.163 75.98 201.923 75.31 201.923 74.45V69.26H203.423V74.24C203.423 75.32 203.968 75.86 205.058 75.86C205.608 75.86 206.068 75.665 206.438 75.275C206.818 74.875 207.008 74.325 207.008 73.625ZM217.101 69.08C217.951 69.08 218.616 69.32 219.096 69.8C219.576 70.27 219.816 70.94 219.816 71.81V77H218.316V72.02C218.316 70.94 217.771 70.4 216.681 70.4C216.181 70.4 215.731 70.59 215.331 70.97C214.931 71.36 214.731 71.915 214.731 72.635V77H213.231V69.26H214.671V70.415C215.261 69.525 216.071 69.08 217.101 69.08ZM228.497 73.19V73.625H222.662C222.732 74.385 222.957 74.96 223.337 75.35C223.717 75.73 224.232 75.92 224.882 75.92C225.862 75.92 226.502 75.49 226.802 74.63H228.317C228.107 75.42 227.697 76.045 227.087 76.505C226.487 76.955 225.742 77.18 224.852 77.18C223.742 77.18 222.847 76.81 222.167 76.07C221.487 75.33 221.147 74.35 221.147 73.13C221.147 71.91 221.487 70.93 222.167 70.19C222.847 69.45 223.732 69.08 224.822 69.08C225.962 69.08 226.862 69.465 227.522 70.235C228.172 71.005 228.497 71.99 228.497 73.19ZM224.822 70.34C224.232 70.34 223.747 70.52 223.367 70.88C222.997 71.24 222.767 71.76 222.677 72.44H226.952C226.882 71.81 226.657 71.305 226.277 70.925C225.907 70.535 225.422 70.34 224.822 70.34ZM235.573 70.355V69.26H237.013V76.715C237.013 77.775 236.693 78.605 236.053 79.205C235.413 79.815 234.503 80.12 233.323 80.12C232.313 80.12 231.508 79.89 230.908 79.43C230.318 78.97 229.983 78.34 229.903 77.54H231.403C231.523 78.45 232.168 78.905 233.338 78.905C234.788 78.905 235.513 78.185 235.513 76.745V75.89C234.923 76.69 234.093 77.09 233.023 77.09C231.943 77.09 231.083 76.725 230.443 75.995C229.793 75.255 229.468 74.285 229.468 73.085C229.468 71.885 229.793 70.915 230.443 70.175C231.083 69.445 231.938 69.08 233.008 69.08C234.138 69.08 234.993 69.505 235.573 70.355ZM233.293 75.8C233.993 75.8 234.543 75.56 234.943 75.08C235.353 74.59 235.558 73.925 235.558 73.085C235.558 72.245 235.353 71.585 234.943 71.105C234.543 70.615 233.993 70.37 233.293 70.37C232.603 70.37 232.053 70.615 231.643 71.105C231.233 71.595 231.028 72.255 231.028 73.085C231.028 73.925 231.233 74.59 231.643 75.08C232.053 75.56 232.603 75.8 233.293 75.8ZM242.875 68.165H241.585L242.89 66.005H244.765L242.875 68.165ZM244.96 76.07C244.25 76.81 243.325 77.18 242.185 77.18C241.045 77.18 240.12 76.81 239.41 76.07C238.7 75.33 238.345 74.35 238.345 73.13C238.345 71.9 238.7 70.915 239.41 70.175C240.11 69.445 241.035 69.08 242.185 69.08C243.335 69.08 244.26 69.445 244.96 70.175C245.66 70.905 246.01 71.89 246.01 73.13C246.01 74.36 245.66 75.34 244.96 76.07ZM240.52 75.155C240.93 75.645 241.485 75.89 242.185 75.89C242.885 75.89 243.435 75.645 243.835 75.155C244.245 74.665 244.45 73.99 244.45 73.13C244.45 72.27 244.245 71.595 243.835 71.105C243.435 70.615 242.885 70.37 242.185 70.37C241.485 70.37 240.93 70.615 240.52 71.105C240.11 71.595 239.905 72.27 239.905 73.13C239.905 73.99 240.11 74.665 240.52 75.155ZM250.663 77.18C249.563 77.18 248.673 76.81 247.993 76.07C247.313 75.33 246.973 74.35 246.973 73.13C246.973 71.9 247.313 70.915 247.993 70.175C248.663 69.445 249.553 69.08 250.663 69.08C251.613 69.08 252.393 69.34 253.003 69.86C253.623 70.38 253.993 71.08 254.113 71.96H252.583C252.483 71.45 252.258 71.06 251.908 70.79C251.568 70.52 251.153 70.385 250.663 70.385C250.013 70.385 249.493 70.625 249.103 71.105C248.723 71.575 248.533 72.25 248.533 73.13C248.533 74.01 248.723 74.69 249.103 75.17C249.493 75.64 250.013 75.875 250.663 75.875C251.163 75.875 251.588 75.735 251.938 75.455C252.288 75.175 252.508 74.77 252.598 74.24H254.128C254.008 75.14 253.633 75.855 253.003 76.385C252.373 76.915 251.593 77.18 250.663 77.18ZM256.816 68.165H255.286V66.56H256.816V68.165ZM256.801 77H255.301V69.26H256.801V77ZM264.735 76.07C264.025 76.81 263.1 77.18 261.96 77.18C260.82 77.18 259.895 76.81 259.185 76.07C258.475 75.33 258.12 74.35 258.12 73.13C258.12 71.9 258.475 70.915 259.185 70.175C259.885 69.445 260.81 69.08 261.96 69.08C263.11 69.08 264.035 69.445 264.735 70.175C265.435 70.905 265.785 71.89 265.785 73.13C265.785 74.36 265.435 75.34 264.735 76.07ZM260.295 75.155C260.705 75.645 261.26 75.89 261.96 75.89C262.66 75.89 263.21 75.645 263.61 75.155C264.02 74.665 264.225 73.99 264.225 73.13C264.225 72.27 264.02 71.595 263.61 71.105C263.21 70.615 262.66 70.37 261.96 70.37C261.26 70.37 260.705 70.615 260.295 71.105C259.885 71.595 259.68 72.27 259.68 73.13C259.68 73.99 259.885 74.665 260.295 75.155ZM268.248 74H267.333L267.018 69.17V66.32H268.608V69.17L268.248 74ZM268.713 77H266.898V75.215H268.713V77Z" fill="#CBCDF6"/>
</svg>
