<svg width="312" height="37" viewBox="0 0 312 37" fill="none" xmlns="http://www.w3.org/2000/svg">
<path d="M10.5508 10.528C9.39875 11.68 7.96408 12.256 6.24675 12.256C4.51875 12.256 3.08942 11.68 1.95875 10.528C0.80675 9.39733 0.23075 7.98933 0.23075 6.304C0.23075 4.62933 0.80675 3.216 1.95875 2.064C3.10008 0.911999 4.52942 0.335999 6.24675 0.335999C7.96408 0.335999 9.39875 0.911999 10.5508 2.064C11.6921 3.22667 12.2628 4.64 12.2628 6.304C12.2628 7.97867 11.6921 9.38667 10.5508 10.528ZM6.24675 11.072C7.62275 11.072 8.75875 10.6133 9.65475 9.696C10.5401 8.77867 10.9828 7.648 10.9828 6.304C10.9828 4.94933 10.5401 3.81333 9.65475 2.896C8.75875 1.98933 7.62275 1.536 6.24675 1.536C4.88142 1.536 3.75075 1.98933 2.85475 2.896C1.95875 3.80267 1.51075 4.93867 1.51075 6.304C1.51075 7.648 1.95875 8.77867 2.85475 9.696C3.75075 10.6133 4.88142 11.072 6.24675 11.072ZM6.29475 9.808C5.34542 9.808 4.58275 9.488 4.00675 8.848C3.43075 8.208 3.14275 7.36 3.14275 6.304C3.14275 5.23733 3.42542 4.38933 3.99075 3.76C4.56675 3.12 5.33475 2.8 6.29475 2.8C7.12675 2.8 7.80408 3.02933 8.32675 3.488C8.86008 3.936 9.17475 4.54933 9.27075 5.328H7.91075C7.83608 4.89067 7.65475 4.55467 7.36675 4.32C7.07875 4.07467 6.72142 3.952 6.29475 3.952C5.72942 3.952 5.28675 4.16 4.96675 4.576C4.65742 4.98133 4.50275 5.55733 4.50275 6.304C4.50275 7.04 4.65742 7.616 4.96675 8.032C5.28675 8.43733 5.72942 8.64 6.29475 8.64C6.73208 8.64 7.10008 8.51733 7.39875 8.272C7.69742 8.02667 7.87875 7.68 7.94275 7.232H9.27075C9.18542 8.01067 8.87075 8.63467 8.32675 9.104C7.79342 9.57333 7.11608 9.808 6.29475 9.808ZM20.6236 10.512H26.5756V12H18.7036L18.7516 11.28C18.7943 10.5013 18.9703 9.75467 19.2796 9.04C19.6316 8.21867 20.357 7.52533 21.4556 6.96L22.7516 6.24C23.4343 5.87733 23.925 5.50933 24.2236 5.136C24.5223 4.752 24.6716 4.288 24.6716 3.744C24.6716 3.15733 24.485 2.69333 24.1116 2.352C23.749 2.01067 23.2423 1.84 22.5916 1.84C21.1303 1.84 20.3996 2.60267 20.3996 4.128H18.7196C18.709 2.93333 19.045 2.00533 19.7276 1.344C20.4103 0.682666 21.381 0.351999 22.6396 0.351999C23.7916 0.351999 24.709 0.661333 25.3916 1.28C26.085 1.90933 26.4316 2.70933 26.4316 3.68C26.4316 4.48 26.2076 5.184 25.7596 5.792C25.3116 6.4 24.6076 6.96 23.6476 7.472L22.5116 8.112C21.861 8.47467 21.3916 8.832 21.1036 9.184C20.8263 9.536 20.6663 9.97867 20.6236 10.512ZM32.8998 12.256C31.4918 12.256 30.4198 11.744 29.6838 10.72C28.9478 9.696 28.5798 8.224 28.5798 6.304C28.5798 4.384 28.9478 2.912 29.6838 1.888C30.4198 0.863999 31.4918 0.351999 32.8998 0.351999C34.3184 0.351999 35.3904 0.863999 36.1158 1.888C36.8518 2.90133 37.2198 4.37333 37.2198 6.304C37.2198 8.23467 36.8518 9.712 36.1158 10.736C35.3904 11.7493 34.3184 12.256 32.8998 12.256ZM32.8998 10.768C34.5958 10.768 35.4438 9.28 35.4438 6.304C35.4438 3.328 34.5958 1.84 32.8998 1.84C31.2144 1.84 30.3718 3.328 30.3718 6.304C30.3718 9.28 31.2144 10.768 32.8998 10.768ZM41.1705 10.512H47.1225V12H39.2505L39.2985 11.28C39.3412 10.5013 39.5172 9.75467 39.8265 9.04C40.1785 8.21867 40.9038 7.52533 42.0025 6.96L43.2985 6.24C43.9812 5.87733 44.4718 5.50933 44.7705 5.136C45.0692 4.752 45.2185 4.288 45.2185 3.744C45.2185 3.15733 45.0318 2.69333 44.6585 2.352C44.2958 2.01067 43.7892 1.84 43.1385 1.84C41.6772 1.84 40.9465 2.60267 40.9465 4.128H39.2665C39.2558 2.93333 39.5918 2.00533 40.2745 1.344C40.9572 0.682666 41.9278 0.351999 43.1865 0.351999C44.3385 0.351999 45.2558 0.661333 45.9385 1.28C46.6318 1.90933 46.9785 2.70933 46.9785 3.68C46.9785 4.48 46.7545 5.184 46.3065 5.792C45.8585 6.4 45.1545 6.96 44.1945 7.472L43.0585 8.112C42.4078 8.47467 41.9385 8.832 41.6505 9.184C41.3732 9.536 41.2132 9.97867 41.1705 10.512ZM53.1163 4.544C54.3323 4.544 55.2869 4.90667 55.9803 5.632C56.6629 6.34667 57.0043 7.25867 57.0043 8.368C57.0043 9.52 56.6309 10.4533 55.8843 11.168C55.1269 11.8933 54.1349 12.256 52.9083 12.256C51.7883 12.256 50.8549 11.9413 50.1083 11.312C49.3829 10.6933 48.9776 9.856 48.8923 8.8H50.5563C50.6309 9.408 50.8816 9.89333 51.3083 10.256C51.7456 10.6187 52.2789 10.8 52.9083 10.8C53.6123 10.8 54.1829 10.576 54.6203 10.128C55.0683 9.66933 55.2923 9.08267 55.2923 8.368C55.2923 7.64267 55.0683 7.056 54.6203 6.608C54.1829 6.14933 53.6123 5.92 52.9083 5.92C51.8843 5.92 51.1536 6.34667 50.7163 7.2H49.1483L50.1562 0.608H56.3483V2.096H51.5003L50.9883 5.36C51.5963 4.816 52.3056 4.544 53.1163 4.544ZM73.9321 12H72.1241L71.0041 9.04H65.8841L64.7801 12H63.0041L67.4521 0.608H69.4201L73.9321 12ZM66.6681 6.928L66.4281 7.552H70.4441L70.2041 6.928C69.6388 5.52 69.0468 3.96267 68.4281 2.256C67.6921 4.21867 67.1055 5.776 66.6681 6.928ZM80.008 3.616C80.2427 3.616 80.3973 3.62133 80.472 3.632V5.152H80.072C79.2507 5.152 78.616 5.35467 78.168 5.76C77.72 6.16533 77.496 6.752 77.496 7.52V12H75.896V3.744H77.432V5.216C77.9547 4.14933 78.8133 3.616 80.008 3.616ZM91.6544 3.552C92.5504 3.552 93.249 3.81867 93.7504 4.352C94.2517 4.87467 94.5024 5.57867 94.5024 6.464V12H92.8864V6.672C92.8864 5.53067 92.3584 4.96 91.3024 4.96C90.737 4.96 90.273 5.17867 89.9104 5.616C89.5477 6.04267 89.3664 6.66133 89.3664 7.472V12H87.7664V6.672C87.7664 5.53067 87.233 4.96 86.1664 4.96C85.601 4.96 85.137 5.17867 84.7744 5.616C84.4117 6.05333 84.2304 6.672 84.2304 7.472V12H82.6304V3.744H84.1664V4.976C84.7317 4.02667 85.5264 3.552 86.5504 3.552C87.7984 3.552 88.6464 4.06933 89.0944 5.104C89.681 4.06933 90.5344 3.552 91.6544 3.552ZM103.959 11.008C103.201 11.7973 102.215 12.192 100.999 12.192C99.7826 12.192 98.796 11.7973 98.0386 11.008C97.2813 10.2187 96.9026 9.17333 96.9026 7.872C96.9026 6.56 97.2813 5.50933 98.0386 4.72C98.7853 3.94133 99.772 3.552 100.999 3.552C102.225 3.552 103.212 3.94133 103.959 4.72C104.705 5.49867 105.079 6.54933 105.079 7.872C105.079 9.184 104.705 10.2293 103.959 11.008ZM99.2226 10.032C99.66 10.5547 100.252 10.816 100.999 10.816C101.745 10.816 102.332 10.5547 102.759 10.032C103.196 9.50933 103.415 8.78933 103.415 7.872C103.415 6.95467 103.196 6.23467 102.759 5.712C102.332 5.18933 101.745 4.928 100.999 4.928C100.252 4.928 99.66 5.18933 99.2226 5.712C98.7853 6.23467 98.5666 6.95467 98.5666 7.872C98.5666 8.78933 98.7853 9.50933 99.2226 10.032ZM117.116 7.472V6.016H122.076V12H120.764L120.46 10.48C119.607 11.664 118.369 12.256 116.748 12.256C115.105 12.256 113.799 11.7067 112.828 10.608C111.836 9.52 111.34 8.08533 111.34 6.304C111.34 4.50133 111.841 3.06133 112.844 1.984C113.836 0.895999 115.169 0.351999 116.844 0.351999C118.241 0.351999 119.399 0.714666 120.316 1.44C121.223 2.176 121.767 3.152 121.948 4.368H120.188C120.028 3.6 119.644 2.992 119.036 2.544C118.439 2.096 117.713 1.872 116.86 1.872C115.719 1.872 114.812 2.272 114.14 3.072C113.457 3.86133 113.116 4.93867 113.116 6.304C113.116 7.66933 113.457 8.74667 114.14 9.536C114.833 10.336 115.751 10.736 116.892 10.736C117.884 10.736 118.721 10.4267 119.404 9.808C120.087 9.2 120.444 8.42133 120.476 7.472H117.116ZM128.977 3.616C129.211 3.616 129.366 3.62133 129.441 3.632V5.152H129.041C128.219 5.152 127.585 5.35467 127.137 5.76C126.689 6.16533 126.465 6.752 126.465 7.52V12H124.865V3.744H126.401V5.216C126.923 4.14933 127.782 3.616 128.977 3.616ZM137.834 11.008C137.076 11.7973 136.09 12.192 134.874 12.192C133.658 12.192 132.671 11.7973 131.914 11.008C131.156 10.2187 130.778 9.17333 130.778 7.872C130.778 6.56 131.156 5.50933 131.914 4.72C132.66 3.94133 133.647 3.552 134.874 3.552C136.1 3.552 137.087 3.94133 137.834 4.72C138.58 5.49867 138.954 6.54933 138.954 7.872C138.954 9.184 138.58 10.2293 137.834 11.008ZM133.098 10.032C133.535 10.5547 134.127 10.816 134.874 10.816C135.62 10.816 136.207 10.5547 136.634 10.032C137.071 9.50933 137.29 8.78933 137.29 7.872C137.29 6.95467 137.071 6.23467 136.634 5.712C136.207 5.18933 135.62 4.928 134.874 4.928C134.127 4.928 133.535 5.18933 133.098 5.712C132.66 6.23467 132.442 6.95467 132.442 7.872C132.442 8.78933 132.66 9.50933 133.098 10.032ZM149.952 7.184L151.024 3.744H152.736L150 12H148.32L147.184 8.368C146.896 7.45067 146.634 6.56533 146.4 5.712C146.048 6.96 145.792 7.84533 145.632 8.368L144.512 12H142.816L140.08 3.744H141.808L142.864 7.184C143.152 8.112 143.44 9.09333 143.728 10.128C143.92 9.36 144.197 8.37867 144.56 7.184L145.616 3.744H147.216L148.256 7.184C148.693 8.66667 148.976 9.64267 149.104 10.112C149.232 9.64267 149.514 8.66667 149.952 7.184ZM158.613 3.744V5.056H156.949V10.016C156.949 10.2613 157.018 10.4427 157.157 10.56C157.306 10.6667 157.552 10.72 157.893 10.72H158.613V12C158.261 12.032 157.936 12.048 157.637 12.048C156.858 12.048 156.282 11.8987 155.909 11.6C155.536 11.3013 155.349 10.8213 155.349 10.16V5.056H154.021V3.744H155.349V1.376H156.949V3.744H158.613ZM165.024 3.552C165.931 3.552 166.64 3.808 167.152 4.32C167.664 4.82133 167.92 5.536 167.92 6.464V12H166.32V6.688C166.32 5.536 165.739 4.96 164.576 4.96C164.043 4.96 163.563 5.16267 163.136 5.568C162.709 5.984 162.496 6.576 162.496 7.344V12H160.896V0.608H162.496V4.88C163.125 3.99467 163.968 3.552 165.024 3.552ZM185.167 12H183.359L182.239 9.04H177.119L176.015 12H174.239L178.687 0.608H180.655L185.167 12ZM177.903 6.928L177.663 7.552H181.679L181.439 6.928C180.873 5.52 180.281 3.96267 179.663 2.256C178.927 4.21867 178.34 5.776 177.903 6.928ZM193.165 4.912V3.744H194.701V11.696C194.701 12.8267 194.359 13.712 193.677 14.352C192.994 15.0027 192.023 15.328 190.765 15.328C189.687 15.328 188.829 15.0827 188.189 14.592C187.559 14.1013 187.202 13.4293 187.117 12.576H188.717C188.845 13.5467 189.533 14.032 190.781 14.032C192.327 14.032 193.101 13.264 193.101 11.728V10.816C192.471 11.6693 191.586 12.096 190.445 12.096C189.293 12.096 188.375 11.7067 187.693 10.928C186.999 10.1387 186.653 9.104 186.653 7.824C186.653 6.544 186.999 5.50933 187.693 4.72C188.375 3.94133 189.287 3.552 190.429 3.552C191.634 3.552 192.546 4.00533 193.165 4.912ZM190.733 10.72C191.479 10.72 192.066 10.464 192.493 9.952C192.93 9.42933 193.149 8.72 193.149 7.824C193.149 6.928 192.93 6.224 192.493 5.712C192.066 5.18933 191.479 4.928 190.733 4.928C189.997 4.928 189.41 5.18933 188.973 5.712C188.535 6.23467 188.317 6.93867 188.317 7.824C188.317 8.72 188.535 9.42933 188.973 9.952C189.41 10.464 189.997 10.72 190.733 10.72ZM204.961 7.936V8.4H198.737C198.812 9.21067 199.052 9.824 199.457 10.24C199.863 10.6453 200.412 10.848 201.105 10.848C202.151 10.848 202.833 10.3893 203.153 9.472H204.769C204.545 10.3147 204.108 10.9813 203.457 11.472C202.817 11.952 202.023 12.192 201.073 12.192C199.889 12.192 198.935 11.7973 198.209 11.008C197.484 10.2187 197.121 9.17333 197.121 7.872C197.121 6.57067 197.484 5.52533 198.209 4.736C198.935 3.94667 199.879 3.552 201.041 3.552C202.257 3.552 203.217 3.96267 203.921 4.784C204.615 5.60533 204.961 6.656 204.961 7.936ZM201.041 4.896C200.412 4.896 199.895 5.088 199.489 5.472C199.095 5.856 198.849 6.41067 198.753 7.136H203.313C203.239 6.464 202.999 5.92533 202.593 5.52C202.199 5.104 201.681 4.896 201.041 4.896ZM211.508 3.552C212.415 3.552 213.124 3.808 213.636 4.32C214.148 4.82133 214.404 5.536 214.404 6.464V12H212.804V6.688C212.804 5.536 212.223 4.96 211.06 4.96C210.527 4.96 210.047 5.16267 209.62 5.568C209.194 5.984 208.98 6.576 208.98 7.344V12H207.38V3.744H208.916V4.976C209.546 4.02667 210.41 3.552 211.508 3.552ZM220.761 12.192C219.587 12.192 218.638 11.7973 217.913 11.008C217.187 10.2187 216.825 9.17333 216.825 7.872C216.825 6.56 217.187 5.50933 217.913 4.72C218.627 3.94133 219.577 3.552 220.761 3.552C221.774 3.552 222.606 3.82933 223.257 4.384C223.918 4.93867 224.313 5.68533 224.441 6.624H222.809C222.702 6.08 222.462 5.664 222.089 5.376C221.726 5.088 221.283 4.944 220.761 4.944C220.067 4.944 219.513 5.2 219.097 5.712C218.691 6.21333 218.489 6.93333 218.489 7.872C218.489 8.81067 218.691 9.536 219.097 10.048C219.513 10.5493 220.067 10.8 220.761 10.8C221.294 10.8 221.747 10.6507 222.121 10.352C222.494 10.0533 222.729 9.62133 222.825 9.056H224.457C224.329 10.016 223.929 10.7787 223.257 11.344C222.585 11.9093 221.753 12.192 220.761 12.192ZM230.904 6.576L231.864 3.744H233.56L230.2 13.04C229.923 13.8293 229.555 14.384 229.096 14.704C228.638 15.024 227.987 15.184 227.144 15.184C226.856 15.184 226.579 15.168 226.312 15.136V13.84H227.112C227.827 13.84 228.307 13.5093 228.552 12.848C228.574 12.784 228.606 12.6827 228.648 12.544C228.702 12.4053 228.744 12.2987 228.776 12.224L225.72 3.744H227.464L228.424 6.576C228.936 8.15467 229.347 9.472 229.656 10.528C230.072 9.17333 230.488 7.856 230.904 6.576ZM235.827 12H233.891V10.096H235.827V12ZM242.022 0.608H251.318V2.144H247.542V12H245.798V2.144H242.022V0.608ZM258.381 11.008C257.623 11.7973 256.637 12.192 255.421 12.192C254.205 12.192 253.218 11.7973 252.461 11.008C251.703 10.2187 251.325 9.17333 251.325 7.872C251.325 6.56 251.703 5.50933 252.461 4.72C253.207 3.94133 254.194 3.552 255.421 3.552C256.647 3.552 257.634 3.94133 258.381 4.72C259.127 5.49867 259.501 6.54933 259.501 7.872C259.501 9.184 259.127 10.2293 258.381 11.008ZM253.645 10.032C254.082 10.5547 254.674 10.816 255.421 10.816C256.167 10.816 256.754 10.5547 257.181 10.032C257.618 9.50933 257.837 8.78933 257.837 7.872C257.837 6.95467 257.618 6.23467 257.181 5.712C256.754 5.18933 256.167 4.928 255.421 4.928C254.674 4.928 254.082 5.18933 253.645 5.712C253.207 6.23467 252.989 6.95467 252.989 7.872C252.989 8.78933 253.207 9.50933 253.645 10.032ZM267.976 4.864V0.608H269.576V12H268.04V10.784C267.421 11.7227 266.509 12.192 265.304 12.192C264.152 12.192 263.234 11.8027 262.552 11.024C261.869 10.2453 261.528 9.19467 261.528 7.872C261.528 6.54933 261.869 5.49867 262.552 4.72C263.234 3.94133 264.152 3.552 265.304 3.552C266.466 3.552 267.357 3.98933 267.976 4.864ZM263.192 7.936C263.192 8.85333 263.41 9.56267 263.848 10.064C264.285 10.5653 264.872 10.816 265.608 10.816C266.365 10.816 266.957 10.5547 267.384 10.032C267.81 9.53067 268.024 8.81067 268.024 7.872C268.024 6.944 267.81 6.21867 267.384 5.696C266.957 5.184 266.365 4.928 265.608 4.928C264.872 4.928 264.285 5.19467 263.848 5.728C263.41 6.26133 263.192 6.99733 263.192 7.936ZM279.052 11.008C278.295 11.7973 277.308 12.192 276.092 12.192C274.876 12.192 273.89 11.7973 273.132 11.008C272.375 10.2187 271.996 9.17333 271.996 7.872C271.996 6.56 272.375 5.50933 273.132 4.72C273.879 3.94133 274.866 3.552 276.092 3.552C277.319 3.552 278.306 3.94133 279.052 4.72C279.799 5.49867 280.172 6.54933 280.172 7.872C280.172 9.184 279.799 10.2293 279.052 11.008ZM274.316 10.032C274.754 10.5547 275.346 10.816 276.092 10.816C276.839 10.816 277.426 10.5547 277.852 10.032C278.29 9.50933 278.508 8.78933 278.508 7.872C278.508 6.95467 278.29 6.23467 277.852 5.712C277.426 5.18933 276.839 4.928 276.092 4.928C275.346 4.928 274.754 5.18933 274.316 5.712C273.879 6.23467 273.66 6.95467 273.66 7.872C273.66 8.78933 273.879 9.50933 274.316 10.032ZM285.515 12.208C283.221 12.208 282.016 11.264 281.899 9.376H283.499C283.563 9.952 283.749 10.3573 284.059 10.592C284.368 10.8267 284.859 10.944 285.531 10.944C286.747 10.944 287.355 10.56 287.355 9.792C287.355 9.46133 287.227 9.20533 286.971 9.024C286.715 8.84267 286.256 8.69333 285.595 8.576L284.747 8.416C282.997 8.096 282.123 7.27467 282.123 5.952C282.123 5.216 282.405 4.63467 282.971 4.208C283.536 3.77067 284.315 3.552 285.307 3.552C287.579 3.552 288.741 4.47467 288.795 6.32H287.243C287.211 5.76533 287.04 5.376 286.731 5.152C286.421 4.91733 285.947 4.8 285.307 4.8C284.795 4.8 284.4 4.896 284.123 5.088C283.845 5.28 283.707 5.552 283.707 5.904C283.707 6.224 283.829 6.47467 284.075 6.656C284.32 6.82667 284.709 6.96533 285.243 7.072L286.107 7.216C287.12 7.408 287.851 7.696 288.299 8.08C288.747 8.464 288.971 8.99733 288.971 9.68C288.971 10.48 288.667 11.104 288.059 11.552C287.451 11.9893 286.603 12.208 285.515 12.208ZM302.068 11.008C301.311 11.7973 300.324 12.192 299.108 12.192C297.892 12.192 296.905 11.7973 296.148 11.008C295.391 10.2187 295.012 9.17333 295.012 7.872C295.012 6.56 295.391 5.50933 296.148 4.72C296.895 3.94133 297.881 3.552 299.108 3.552C300.335 3.552 301.321 3.94133 302.068 4.72C302.815 5.49867 303.188 6.54933 303.188 7.872C303.188 9.184 302.815 10.2293 302.068 11.008ZM297.332 10.032C297.769 10.5547 298.361 10.816 299.108 10.816C299.855 10.816 300.441 10.5547 300.868 10.032C301.305 9.50933 301.524 8.78933 301.524 7.872C301.524 6.95467 301.305 6.23467 300.868 5.712C300.441 5.18933 299.855 4.928 299.108 4.928C298.361 4.928 297.769 5.18933 297.332 5.712C296.895 6.23467 296.676 6.95467 296.676 7.872C296.676 8.78933 296.895 9.50933 297.332 10.032ZM308.53 12.208C306.237 12.208 305.031 11.264 304.914 9.376H306.514C306.578 9.952 306.765 10.3573 307.074 10.592C307.383 10.8267 307.874 10.944 308.546 10.944C309.762 10.944 310.37 10.56 310.37 9.792C310.37 9.46133 310.242 9.20533 309.986 9.024C309.73 8.84267 309.271 8.69333 308.61 8.576L307.762 8.416C306.013 8.096 305.138 7.27467 305.138 5.952C305.138 5.216 305.421 4.63467 305.986 4.208C306.551 3.77067 307.33 3.552 308.322 3.552C310.594 3.552 311.757 4.47467 311.81 6.32H310.258C310.226 5.76533 310.055 5.376 309.746 5.152C309.437 4.91733 308.962 4.8 308.322 4.8C307.81 4.8 307.415 4.896 307.138 5.088C306.861 5.28 306.722 5.552 306.722 5.904C306.722 6.224 306.845 6.47467 307.09 6.656C307.335 6.82667 307.725 6.96533 308.258 7.072L309.122 7.216C310.135 7.408 310.866 7.696 311.314 8.08C311.762 8.464 311.986 8.99733 311.986 9.68C311.986 10.48 311.682 11.104 311.074 11.552C310.466 11.9893 309.618 12.208 308.53 12.208ZM84.9678 28.864V24.608H86.5678V36H85.0318V34.784C84.4131 35.7227 83.5011 36.192 82.2958 36.192C81.1438 36.192 80.2265 35.8027 79.5438 35.024C78.8611 34.2453 78.5198 33.1947 78.5198 31.872C78.5198 30.5493 78.8611 29.4987 79.5438 28.72C80.2265 27.9413 81.1438 27.552 82.2958 27.552C83.4585 27.552 84.3491 27.9893 84.9678 28.864ZM80.1838 31.936C80.1838 32.8533 80.4025 33.5627 80.8398 34.064C81.2771 34.5653 81.8638 34.816 82.5998 34.816C83.3571 34.816 83.9491 34.5547 84.3758 34.032C84.8025 33.5307 85.0158 32.8107 85.0158 31.872C85.0158 30.944 84.8025 30.2187 84.3758 29.696C83.9491 29.184 83.3571 28.928 82.5998 28.928C81.8638 28.928 81.2771 29.1947 80.8398 29.728C80.4025 30.2613 80.1838 30.9973 80.1838 31.936ZM90.9886 26.576H89.3566V24.864H90.9886V26.576ZM90.9726 36H89.3726V27.744H90.9726V36ZM97.8752 27.616C98.1099 27.616 98.2645 27.6213 98.3392 27.632V29.152H97.9392C97.1179 29.152 96.4832 29.3547 96.0352 29.76C95.5872 30.1653 95.3632 30.752 95.3632 31.52V36H93.7632V27.744H95.2992V29.216C95.8219 28.1493 96.6805 27.616 97.8752 27.616ZM107.516 31.936V32.4H101.292C101.367 33.2107 101.607 33.824 102.012 34.24C102.417 34.6453 102.967 34.848 103.66 34.848C104.705 34.848 105.388 34.3893 105.708 33.472H107.324C107.1 34.3147 106.663 34.9813 106.012 35.472C105.372 35.952 104.577 36.192 103.628 36.192C102.444 36.192 101.489 35.7973 100.764 35.008C100.039 34.2187 99.6761 33.1733 99.6761 31.872C99.6761 30.5707 100.039 29.5253 100.764 28.736C101.489 27.9467 102.433 27.552 103.596 27.552C104.812 27.552 105.772 27.9627 106.476 28.784C107.169 29.6053 107.516 30.656 107.516 31.936ZM103.596 28.896C102.967 28.896 102.449 29.088 102.044 29.472C101.649 29.856 101.404 30.4107 101.308 31.136H105.868C105.793 30.464 105.553 29.9253 105.148 29.52C104.753 29.104 104.236 28.896 103.596 28.896ZM111.551 26.576H109.919V24.864H111.551V26.576ZM111.535 36H109.935V27.744H111.535V36ZM118.246 27.744V29.056H116.582V34.016C116.582 34.2613 116.651 34.4427 116.79 34.56C116.939 34.6667 117.184 34.72 117.526 34.72H118.246V36C117.894 36.032 117.568 36.048 117.27 36.048C116.491 36.048 115.915 35.8987 115.542 35.6C115.168 35.3013 114.982 34.8213 114.982 34.16V29.056H113.654V27.744H114.982V25.376H116.582V27.744H118.246ZM127.045 35.008C126.287 35.7973 125.301 36.192 124.085 36.192C122.869 36.192 121.882 35.7973 121.125 35.008C120.367 34.2187 119.989 33.1733 119.989 31.872C119.989 30.56 120.367 29.5093 121.125 28.72C121.871 27.9413 122.858 27.552 124.085 27.552C125.311 27.552 126.298 27.9413 127.045 28.72C127.791 29.4987 128.165 30.5493 128.165 31.872C128.165 33.184 127.791 34.2293 127.045 35.008ZM122.309 34.032C122.746 34.5547 123.338 34.816 124.085 34.816C124.831 34.816 125.418 34.5547 125.845 34.032C126.282 33.5093 126.501 32.7893 126.501 31.872C126.501 30.9547 126.282 30.2347 125.845 29.712C125.418 29.1893 124.831 28.928 124.085 28.928C123.338 28.928 122.746 29.1893 122.309 29.712C121.871 30.2347 121.653 30.9547 121.653 31.872C121.653 32.7893 121.871 33.5093 122.309 34.032ZM133.507 36.208C131.213 36.208 130.008 35.264 129.891 33.376H131.491C131.555 33.952 131.741 34.3573 132.051 34.592C132.36 34.8267 132.851 34.944 133.523 34.944C134.739 34.944 135.347 34.56 135.347 33.792C135.347 33.4613 135.219 33.2053 134.963 33.024C134.707 32.8427 134.248 32.6933 133.587 32.576L132.739 32.416C130.989 32.096 130.115 31.2747 130.115 29.952C130.115 29.216 130.397 28.6347 130.963 28.208C131.528 27.7707 132.307 27.552 133.299 27.552C135.571 27.552 136.733 28.4747 136.787 30.32H135.235C135.203 29.7653 135.032 29.376 134.723 29.152C134.413 28.9173 133.939 28.8 133.299 28.8C132.787 28.8 132.392 28.896 132.115 29.088C131.837 29.28 131.699 29.552 131.699 29.904C131.699 30.224 131.821 30.4747 132.067 30.656C132.312 30.8267 132.701 30.9653 133.235 31.072L134.099 31.216C135.112 31.408 135.843 31.696 136.291 32.08C136.739 32.464 136.963 32.9973 136.963 33.68C136.963 34.48 136.659 35.104 136.051 35.552C135.443 35.9893 134.595 36.208 133.507 36.208ZM147.5 27.616C147.735 27.616 147.89 27.6213 147.964 27.632V29.152H147.564C146.743 29.152 146.108 29.3547 145.66 29.76C145.212 30.1653 144.988 30.752 144.988 31.52V36H143.388V27.744H144.924V29.216C145.447 28.1493 146.306 27.616 147.5 27.616ZM157.141 31.936V32.4H150.917C150.992 33.2107 151.232 33.824 151.637 34.24C152.042 34.6453 152.592 34.848 153.285 34.848C154.33 34.848 155.013 34.3893 155.333 33.472H156.949C156.725 34.3147 156.288 34.9813 155.637 35.472C154.997 35.952 154.202 36.192 153.253 36.192C152.069 36.192 151.114 35.7973 150.389 35.008C149.664 34.2187 149.301 33.1733 149.301 31.872C149.301 30.5707 149.664 29.5253 150.389 28.736C151.114 27.9467 152.058 27.552 153.221 27.552C154.437 27.552 155.397 27.9627 156.101 28.784C156.794 29.6053 157.141 30.656 157.141 31.936ZM153.221 28.896C152.592 28.896 152.074 29.088 151.669 29.472C151.274 29.856 151.029 30.4107 150.933 31.136H155.493C155.418 30.464 155.178 29.9253 154.773 29.52C154.378 29.104 153.861 28.896 153.221 28.896ZM162.569 36.208C160.276 36.208 159.071 35.264 158.953 33.376H160.553C160.617 33.952 160.804 34.3573 161.113 34.592C161.423 34.8267 161.913 34.944 162.585 34.944C163.801 34.944 164.409 34.56 164.409 33.792C164.409 33.4613 164.281 33.2053 164.025 33.024C163.769 32.8427 163.311 32.6933 162.649 32.576L161.801 32.416C160.052 32.096 159.177 31.2747 159.177 29.952C159.177 29.216 159.46 28.6347 160.025 28.208C160.591 27.7707 161.369 27.552 162.361 27.552C164.633 27.552 165.796 28.4747 165.849 30.32H164.297C164.265 29.7653 164.095 29.376 163.785 29.152C163.476 28.9173 163.001 28.8 162.361 28.8C161.849 28.8 161.455 28.896 161.177 29.088C160.9 29.28 160.761 29.552 160.761 29.904C160.761 30.224 160.884 30.4747 161.129 30.656C161.375 30.8267 161.764 30.9653 162.297 31.072L163.161 31.216C164.175 31.408 164.905 31.696 165.353 32.08C165.801 32.464 166.025 32.9973 166.025 33.68C166.025 34.48 165.721 35.104 165.113 35.552C164.505 35.9893 163.657 36.208 162.569 36.208ZM175.672 31.936V32.4H169.448C169.523 33.2107 169.763 33.824 170.168 34.24C170.574 34.6453 171.123 34.848 171.816 34.848C172.862 34.848 173.544 34.3893 173.864 33.472H175.48C175.256 34.3147 174.819 34.9813 174.168 35.472C173.528 35.952 172.734 36.192 171.784 36.192C170.6 36.192 169.646 35.7973 168.92 35.008C168.195 34.2187 167.832 33.1733 167.832 31.872C167.832 30.5707 168.195 29.5253 168.92 28.736C169.646 27.9467 170.59 27.552 171.752 27.552C172.968 27.552 173.928 27.9627 174.632 28.784C175.326 29.6053 175.672 30.656 175.672 31.936ZM171.752 28.896C171.123 28.896 170.606 29.088 170.2 29.472C169.806 29.856 169.56 30.4107 169.464 31.136H174.024C173.95 30.464 173.71 29.9253 173.304 29.52C172.91 29.104 172.392 28.896 171.752 28.896ZM182.203 27.616C182.438 27.616 182.593 27.6213 182.667 27.632V29.152H182.267C181.446 29.152 180.811 29.3547 180.363 29.76C179.915 30.1653 179.691 30.752 179.691 31.52V36H178.091V27.744H179.627V29.216C180.15 28.1493 181.009 27.616 182.203 27.616ZM189.477 30.768L190.581 27.744H192.277L189.109 36H187.333L184.181 27.744H185.909L187.029 30.768C187.787 33.0187 188.192 34.2453 188.245 34.448C188.277 34.3413 188.347 34.128 188.453 33.808C188.56 33.488 188.709 33.0507 188.901 32.496C189.093 31.9307 189.285 31.3547 189.477 30.768ZM200.93 34.768H201.378V36C201.143 36.032 200.882 36.048 200.594 36.048C200.082 36.048 199.698 35.9573 199.442 35.776C199.196 35.584 199.047 35.2853 198.994 34.88C198.439 35.7547 197.543 36.192 196.306 36.192C195.399 36.192 194.679 35.9787 194.146 35.552C193.623 35.1147 193.362 34.512 193.362 33.744C193.362 32.2507 194.396 31.3973 196.466 31.184L197.682 31.056C198.108 31.0027 198.418 30.896 198.61 30.736C198.812 30.5653 198.914 30.3253 198.914 30.016C198.914 29.6 198.78 29.3013 198.514 29.12C198.258 28.928 197.826 28.832 197.218 28.832C196.556 28.832 196.082 28.944 195.794 29.168C195.506 29.3813 195.34 29.7653 195.298 30.32H193.714C193.831 28.4747 194.999 27.552 197.218 27.552C199.394 27.552 200.482 28.3627 200.482 29.984V34.352C200.482 34.6293 200.631 34.768 200.93 34.768ZM196.546 34.944C197.228 34.944 197.794 34.752 198.242 34.368C198.69 33.984 198.914 33.44 198.914 32.736V31.872C198.711 32.0427 198.37 32.1547 197.89 32.208L196.738 32.336C196.119 32.4107 195.676 32.56 195.41 32.784C195.143 32.9973 195.01 33.3013 195.01 33.696C195.01 34.0907 195.138 34.4 195.394 34.624C195.66 34.8373 196.044 34.944 196.546 34.944ZM209.421 28.864V24.608H211.021V36H209.485V34.784C208.866 35.7227 207.954 36.192 206.749 36.192C205.597 36.192 204.68 35.8027 203.997 35.024C203.314 34.2453 202.973 33.1947 202.973 31.872C202.973 30.5493 203.314 29.4987 203.997 28.72C204.68 27.9413 205.597 27.552 206.749 27.552C207.912 27.552 208.802 27.9893 209.421 28.864ZM204.637 31.936C204.637 32.8533 204.856 33.5627 205.293 34.064C205.73 34.5653 206.317 34.816 207.053 34.816C207.81 34.816 208.402 34.5547 208.829 34.032C209.256 33.5307 209.469 32.8107 209.469 31.872C209.469 30.944 209.256 30.2187 208.829 29.696C208.402 29.184 207.81 28.928 207.053 28.928C206.317 28.928 205.73 29.1947 205.293 29.728C204.856 30.2613 204.637 30.9973 204.637 31.936ZM220.498 35.008C219.74 35.7973 218.754 36.192 217.538 36.192C216.322 36.192 215.335 35.7973 214.578 35.008C213.82 34.2187 213.442 33.1733 213.442 31.872C213.442 30.56 213.82 29.5093 214.578 28.72C215.324 27.9413 216.311 27.552 217.538 27.552C218.764 27.552 219.751 27.9413 220.498 28.72C221.244 29.4987 221.618 30.5493 221.618 31.872C221.618 33.184 221.244 34.2293 220.498 35.008ZM215.762 34.032C216.199 34.5547 216.791 34.816 217.538 34.816C218.284 34.816 218.871 34.5547 219.298 34.032C219.735 33.5093 219.954 32.7893 219.954 31.872C219.954 30.9547 219.735 30.2347 219.298 29.712C218.871 29.1893 218.284 28.928 217.538 28.928C216.791 28.928 216.199 29.1893 215.762 29.712C215.324 30.2347 215.106 30.9547 215.106 31.872C215.106 32.7893 215.324 33.5093 215.762 34.032ZM226.96 36.208C224.666 36.208 223.461 35.264 223.344 33.376H224.944C225.008 33.952 225.194 34.3573 225.504 34.592C225.813 34.8267 226.304 34.944 226.976 34.944C228.192 34.944 228.8 34.56 228.8 33.792C228.8 33.4613 228.672 33.2053 228.416 33.024C228.16 32.8427 227.701 32.6933 227.04 32.576L226.192 32.416C224.442 32.096 223.568 31.2747 223.568 29.952C223.568 29.216 223.85 28.6347 224.416 28.208C224.981 27.7707 225.76 27.552 226.752 27.552C229.024 27.552 230.186 28.4747 230.24 30.32H228.688C228.656 29.7653 228.485 29.376 228.176 29.152C227.866 28.9173 227.392 28.8 226.752 28.8C226.24 28.8 225.845 28.896 225.568 29.088C225.29 29.28 225.152 29.552 225.152 29.904C225.152 30.224 225.274 30.4747 225.52 30.656C225.765 30.8267 226.154 30.9653 226.688 31.072L227.552 31.216C228.565 31.408 229.296 31.696 229.744 32.08C230.192 32.464 230.416 32.9973 230.416 33.68C230.416 34.48 230.112 35.104 229.504 35.552C228.896 35.9893 228.048 36.208 226.96 36.208ZM234.319 36H232.383V34.096H234.319V36Z" fill="#6064C9"/>
</svg>
