<svg width="176" height="44" viewBox="0 0 176 44" fill="none" xmlns="http://www.w3.org/2000/svg">
<rect y="0.111328" width="176" height="43" rx="8" fill="url(#paint0_linear_13_731)"/>
<path d="M16.43 25.6113V17.2113H18.42V25.6113H16.43ZM28.2177 25.6113L27.6977 24.2013H23.5577L23.0377 25.6113H20.9777L24.2277 17.2113H27.0277L30.2877 25.6113H28.2177ZM24.1177 22.6913H27.1377L25.8177 19.1013H25.4377L24.1177 22.6913ZM37.3714 25.6113V17.2113H44.4414V18.8413H39.3614V20.6813H44.2614V22.1213H39.3614V23.9713H44.4414V25.6113H37.3714ZM58.7763 25.6113L58.2562 24.2013H54.1163L53.5963 25.6113H51.5362L54.7862 17.2113H57.5862L60.8463 25.6113H58.7763ZM54.6763 22.6913H57.6963L56.3763 19.1013H55.9963L54.6763 22.6913ZM66.8745 25.8913C64.2845 25.8913 62.8245 24.6713 62.8245 22.1113V17.2113H64.8345V22.0613C64.8345 23.4013 65.5045 24.2113 66.8745 24.2113C68.2445 24.2113 68.9245 23.4013 68.9245 22.0613V17.2113H70.9245V22.1113C70.9245 24.6713 69.4645 25.8913 66.8745 25.8913ZM82.0177 17.2113V18.8813H78.8677V25.6113H76.8677V18.8813H73.7277V17.2113H82.0177ZM88.6283 25.8913C85.8883 25.8913 84.0183 24.0513 84.0183 21.4113C84.0183 18.7713 85.8883 16.9313 88.6283 16.9313C91.3783 16.9313 93.2483 18.7713 93.2483 21.4113C93.2483 24.0513 91.3783 25.8913 88.6283 25.8913ZM88.6283 24.1613C90.1283 24.1613 91.2683 23.0613 91.2683 21.4113C91.2683 19.7613 90.1283 18.6613 88.6283 18.6613C87.1383 18.6613 85.9883 19.7613 85.9883 21.4113C85.9883 23.0613 87.1383 24.1613 88.6283 24.1613ZM95.9534 25.6113V17.2113H98.5034L100.583 23.1013H100.733L102.813 17.2113H105.363V25.6113H103.453V20.5513H103.283L101.433 25.6113H99.8834L98.0334 20.5513H97.8634V25.6113H95.9534ZM115.159 25.6113L114.639 24.2013H110.499L109.979 25.6113H107.919L111.169 17.2113H113.969L117.229 25.6113H115.159ZM111.059 22.6913H114.079L112.759 19.1013H112.379L111.059 22.6913ZM123.47 24.1613C124.51 24.1613 125.34 23.6813 125.7 22.5913H127.61C127.22 24.9313 125.53 25.7913 123.78 25.8813L123.64 26.0013C124.18 26.0413 124.74 26.3813 124.74 27.1013C124.74 28.1113 123.62 28.4613 122.44 28.2313V27.3613C123.21 27.5113 123.55 27.3213 123.55 27.1213C123.55 26.9013 123.21 26.6613 122.44 26.8813V26.2713L122.91 25.8613C120.5 25.6313 118.87 23.8713 118.87 21.4113C118.87 18.7713 120.75 16.9313 123.47 16.9313C125.31 16.9313 127.2 17.7513 127.61 20.2213H125.7C125.34 19.1413 124.51 18.6613 123.47 18.6613C121.98 18.6613 120.84 19.7913 120.84 21.4113C120.84 23.0213 121.98 24.1613 123.47 24.1613ZM135.69 16.7013C134.87 16.7013 134.45 16.0313 133.83 16.0313C133.48 16.0313 133.28 16.2113 133.24 16.5013H132.57C132.47 15.4613 133.17 15.0213 133.94 15.0213C134.77 15.0213 135.19 15.6913 135.81 15.6913C136.16 15.6913 136.36 15.5013 136.4 15.2213H137.06C137.16 16.2513 136.47 16.7013 135.69 16.7013ZM134.82 25.8913C132.08 25.8913 130.21 24.0513 130.21 21.4113C130.21 18.7713 132.08 16.9313 134.82 16.9313C137.57 16.9313 139.44 18.7713 139.44 21.4113C139.44 24.0513 137.57 25.8913 134.82 25.8913ZM134.82 24.1613C136.32 24.1613 137.46 23.0613 137.46 21.4113C137.46 19.7613 136.32 18.6613 134.82 18.6613C133.33 18.6613 132.18 19.7613 132.18 21.4113C132.18 23.0613 133.33 24.1613 134.82 24.1613ZM142.145 25.6113V17.2113H149.215V18.8413H144.135V20.6813H149.035V22.1213H144.135V23.9713H149.215V25.6113H142.145ZM155.743 25.8913C153.183 25.8913 151.833 24.9813 151.843 23.0113H153.643C153.713 23.8013 154.363 24.3013 155.743 24.3113C157.043 24.3113 157.753 23.8713 157.753 23.2113C157.753 22.6313 157.283 22.3413 156.283 22.1713L155.243 21.9913C153.653 21.7113 152.073 21.2913 152.073 19.4613C152.073 17.8713 153.413 16.9313 155.763 16.9313C157.953 16.9313 159.473 17.7013 159.493 19.7813H157.703C157.573 19.0213 156.983 18.5113 155.723 18.5113C154.583 18.5113 153.983 18.9013 153.983 19.5513C153.983 20.0613 154.393 20.3813 155.253 20.5413L156.163 20.7013C157.763 20.9913 159.733 21.2613 159.733 23.2713C159.733 24.9413 158.363 25.8913 155.743 25.8913Z" fill="#F8F8F8"/>
<defs>
<linearGradient id="paint0_linear_13_731" x1="176" y1="21.6113" x2="0" y2="21.6113" gradientUnits="userSpaceOnUse">
<stop stop-color="#575AC0"/>
<stop offset="1" stop-color="#333693"/>
</linearGradient>
</defs>
</svg>
