<svg width="344" height="72" viewBox="0 0 344 72" fill="none" xmlns="http://www.w3.org/2000/svg">
<path d="M7.36667 18.578C2.35 18.5613 0.0666667 17.0613 0.216667 13.3113H4.73333C4.76667 14.1447 5.46667 14.628 7.36667 14.6613C9 14.678 9.7 14.2447 9.7 13.7447C9.7 13.478 9.63333 13.0113 8.36667 12.8447L6.53333 12.5613C3.9 12.1447 0.533333 11.9613 0.533333 8.19466C0.533333 5.378 2.78333 3.64466 7.41667 3.64466C11.55 3.64466 14.4333 4.71133 14.3167 8.87799H9.81667C9.66667 8.06133 8.95 7.56133 7.3 7.56133C5.88333 7.56133 5.36667 7.96133 5.36667 8.46133C5.36667 8.69466 5.48333 9.16133 6.43333 9.31133L7.9 9.54466C10.7167 10.0113 14.7167 9.96133 14.7167 13.9613C14.7167 17.0947 12.3167 18.5947 7.36667 18.578ZM15.5109 18.1113V4.11133H28.3943V8.12799H20.5443V9.49466H28.0943V12.728H20.5443V14.078H28.3943V18.1113H15.5109ZM36.912 18.578C31.9286 18.578 29.4953 16.5113 29.4953 11.9113V4.11133H34.5786V11.7947C34.5786 13.3613 35.2286 14.3613 36.912 14.3613C38.5953 14.3613 39.2786 13.3613 39.2786 11.7947V4.11133H44.3286V11.878C44.3286 16.5113 41.8953 18.578 36.912 18.578ZM49.7883 18.1113V4.11133H55.5549L59.5883 11.0613H60.0549V4.11133H64.9716V18.1113H59.3216L55.1549 11.1613H54.7049V18.1113H49.7883ZM66.0578 18.1113V4.11133H78.9411V8.12799H71.0911V9.49466H78.6411V12.728H71.0911V14.078H78.9411V18.1113H66.0578ZM95.0997 10.2613V18.1113H92.4997L92.4331 16.378H92.3831C91.3997 17.6447 89.6831 18.578 87.2497 18.578C82.9331 18.578 79.6164 15.628 79.6164 11.1113C79.6164 6.59466 82.7497 3.64466 87.6997 3.64466C91.0997 3.64466 94.5997 5.29466 95.0831 9.14466H90.0664C89.8664 8.64466 89.0831 7.99466 87.8164 7.99466C85.9331 7.99466 84.6164 9.17799 84.6164 11.1113C84.6164 13.028 85.9664 14.228 87.6664 14.228C88.1331 14.228 89.7664 14.178 90.2497 12.7113H87.4831V10.2613H95.0997ZM101.756 3.21133L102.973 0.227994H107.423L106.206 3.21133H101.756ZM104.023 18.578C99.1393 18.578 96.0227 15.628 96.0227 11.1113C96.0227 6.59466 99.1393 3.64466 104.023 3.64466C108.923 3.64466 112.039 6.59466 112.039 11.1113C112.039 15.628 108.923 18.578 104.023 18.578ZM104.023 14.228C105.639 14.228 107.023 13.1447 107.023 11.1113C107.023 9.07799 105.639 7.99466 104.023 7.99466C102.423 7.99466 101.023 9.07799 101.023 11.1113C101.023 13.1447 102.423 14.228 104.023 14.228ZM120.753 18.578C115.97 18.578 112.82 15.628 112.82 11.1113C112.82 6.59466 115.97 3.64466 120.753 3.64466C124.27 3.64466 127.903 5.19466 128.286 10.128H123.486C123.17 8.67799 122.186 7.99466 120.753 7.99466C119.136 7.99466 117.82 9.17799 117.82 11.1113C117.82 13.028 119.136 14.228 120.753 14.228C122.186 14.228 123.17 13.5447 123.486 12.0613H128.286C127.903 17.028 124.32 18.578 120.753 18.578ZM129.144 18.1113V4.11133H134.177V18.1113H129.144ZM143.027 18.578C138.143 18.578 135.027 15.628 135.027 11.1113C135.027 6.59466 138.143 3.64466 143.027 3.64466C147.927 3.64466 151.043 6.59466 151.043 11.1113C151.043 15.628 147.927 18.578 143.027 18.578ZM143.027 14.228C144.643 14.228 146.027 13.1447 146.027 11.1113C146.027 9.07799 144.643 7.99466 143.027 7.99466C141.427 7.99466 140.027 9.07799 140.027 11.1113C140.027 13.1447 141.427 14.228 143.027 14.228ZM156.273 18.1113V4.11133H169.156V8.12799H161.306V9.49466H168.856V12.728H161.306V14.078H169.156V18.1113H156.273ZM177.093 18.578C172.077 18.5613 169.793 17.0613 169.943 13.3113H174.46C174.493 14.1447 175.193 14.628 177.093 14.6613C178.727 14.678 179.427 14.2447 179.427 13.7447C179.427 13.478 179.36 13.0113 178.093 12.8447L176.26 12.5613C173.627 12.1447 170.26 11.9613 170.26 8.19466C170.26 5.378 172.51 3.64466 177.143 3.64466C181.277 3.64466 184.16 4.71133 184.043 8.87799H179.543C179.393 8.06133 178.677 7.56133 177.027 7.56133C175.61 7.56133 175.093 7.96133 175.093 8.46133C175.093 8.69466 175.21 9.16133 176.16 9.31133L177.627 9.54466C180.443 10.0113 184.443 9.96133 184.443 13.9613C184.443 17.0947 182.043 18.5947 177.093 18.578ZM199.711 4.11133V8.31133H194.744V18.1113H189.694V8.31133H184.744V4.11133H199.711ZM209.358 0.294661L208.141 3.27799H203.691L204.908 0.294661H209.358ZM209.341 18.1113L208.808 16.428H203.108L202.574 18.1113H197.374L202.424 4.11133H209.491L214.558 18.1113H209.341ZM204.291 12.7113H207.624L206.391 8.84466H205.524L204.291 12.7113ZM219.515 18.1113V4.11133H227.665C231.515 4.11133 233.865 5.77799 233.865 9.69466C233.865 13.5947 231.515 15.2613 227.682 15.2613H224.548V18.1113H219.515ZM224.548 11.078H227.215C228.148 11.078 228.765 10.6113 228.765 9.69466C228.765 8.76133 228.148 8.29466 227.232 8.29466H224.548V11.078ZM249.705 18.1113H244.755L242.988 14.678H239.822V18.1113H234.788V4.11133H243.022C246.955 4.11133 249.188 5.74466 249.188 9.57799C249.188 11.4113 248.388 12.7447 247.272 13.578L249.705 18.1113ZM239.822 8.29466V10.928H242.655C243.655 10.928 244.138 10.428 244.138 9.61133C244.138 8.79466 243.655 8.29466 242.655 8.29466H239.822ZM257.909 18.578C253.026 18.578 249.909 15.628 249.909 11.1113C249.909 6.59466 253.026 3.64466 257.909 3.64466C262.809 3.64466 265.926 6.59466 265.926 11.1113C265.926 15.628 262.809 18.578 257.909 18.578ZM257.909 14.228C259.526 14.228 260.909 13.1447 260.909 11.1113C260.909 9.07799 259.526 7.99466 257.909 7.99466C256.309 7.99466 254.909 9.07799 254.909 11.1113C254.909 13.1447 256.309 14.228 257.909 14.228ZM266.78 18.1113V4.11133H272.547L276.58 11.0613H277.047V4.11133H281.964V18.1113H276.314L272.147 11.1613H271.697V18.1113H266.78ZM297.933 4.11133V8.31133H292.967V18.1113H287.917V8.31133H282.967V4.11133H297.933ZM306.034 18.578C301.151 18.578 298.034 15.628 298.034 11.1113C298.034 6.59466 301.151 3.64466 306.034 3.64466C310.934 3.64466 314.051 6.59466 314.051 11.1113C314.051 15.628 310.934 18.578 306.034 18.578ZM306.034 14.228C307.651 14.228 309.034 13.1447 309.034 11.1113C309.034 9.07799 307.651 7.99466 306.034 7.99466C304.434 7.99466 303.034 9.07799 303.034 11.1113C303.034 13.1447 304.434 14.228 306.034 14.228ZM0.55 42.1113V28.1113H8.7C12.55 28.1113 14.9 29.778 14.9 33.6947C14.9 37.5947 12.55 39.2613 8.71667 39.2613H5.58333V42.1113H0.55ZM5.58333 35.078H8.25C9.18333 35.078 9.8 34.6113 9.8 33.6947C9.8 32.7613 9.18333 32.2947 8.26667 32.2947H5.58333V35.078ZM25.5714 42.1113L25.038 40.428H19.338L18.8047 42.1113H13.6047L18.6547 28.1113H25.7214L30.788 42.1113H25.5714ZM20.5214 36.7113H23.8547L22.6214 32.8447H21.7547L20.5214 36.7113ZM46.287 42.1113H41.337L39.5703 38.678H36.4036V42.1113H31.3703V28.1113H39.6036C43.537 28.1113 45.7703 29.7447 45.7703 33.578C45.7703 35.4113 44.9703 36.7447 43.8536 37.578L46.287 42.1113ZM36.4036 32.2947V34.928H39.237C40.237 34.928 40.7203 34.428 40.7203 33.6113C40.7203 32.7947 40.237 32.2947 39.237 32.2947H36.4036ZM58.3643 42.1113L57.831 40.428H52.131L51.5977 42.1113H46.3977L51.4477 28.1113H58.5143L63.581 42.1113H58.3643ZM53.3143 36.7113H56.6477L55.4143 32.8447H54.5477L53.3143 36.7113ZM76.2216 42.578C71.4383 42.578 68.2883 39.628 68.2883 35.1113C68.2883 30.5947 71.4383 27.6447 76.2216 27.6447C79.7383 27.6447 83.3716 29.1947 83.7549 34.128H78.9549C78.6383 32.678 77.6549 31.9947 76.2216 31.9947C74.6049 31.9947 73.2883 33.178 73.2883 35.1113C73.2883 37.028 74.6049 38.228 76.2216 38.228C77.6549 38.228 78.6383 37.5447 78.9549 36.0613H83.7549C83.3716 41.028 79.7883 42.578 76.2216 42.578ZM99.5292 42.1113H94.5792L92.8125 38.678H89.6458V42.1113H84.6125V28.1113H92.8458C96.7792 28.1113 99.0125 29.7447 99.0125 33.578C99.0125 35.4113 98.2125 36.7447 97.0958 37.578L99.5292 42.1113ZM89.6458 32.2947V34.928H92.4792C93.4792 34.928 93.9625 34.428 93.9625 33.6113C93.9625 32.7947 93.4792 32.2947 92.4792 32.2947H89.6458ZM100.394 42.1113V28.1113H113.277V32.128H105.427V33.4947H112.977V36.728H105.427V38.078H113.277V42.1113H100.394ZM121.214 42.578C116.198 42.5613 113.914 41.0613 114.064 37.3113H118.581C118.614 38.1447 119.314 38.628 121.214 38.6613C122.848 38.678 123.548 38.2447 123.548 37.7447C123.548 37.478 123.481 37.0113 122.214 36.8447L120.381 36.5613C117.748 36.1447 114.381 35.9613 114.381 32.1947C114.381 29.378 116.631 27.6447 121.264 27.6447C125.398 27.6447 128.281 28.7113 128.164 32.878H123.664C123.514 32.0613 122.798 31.5613 121.148 31.5613C119.731 31.5613 119.214 31.9613 119.214 32.4613C119.214 32.6947 119.331 33.1613 120.281 33.3113L121.748 33.5447C124.564 34.0113 128.564 33.9613 128.564 37.9613C128.564 41.0947 126.164 42.5947 121.214 42.578ZM137.042 42.578C132.259 42.578 129.109 39.628 129.109 35.1113C129.109 30.5947 132.259 27.6447 137.042 27.6447C140.559 27.6447 144.192 29.1947 144.575 34.128H139.775C139.459 32.678 138.475 31.9947 137.042 31.9947C135.425 31.9947 134.109 33.178 134.109 35.1113C134.109 37.028 135.425 38.228 137.042 38.228C138.475 38.228 139.459 37.5447 139.775 36.0613H144.575C144.192 41.028 140.609 42.578 137.042 42.578ZM145.433 42.1113V28.1113H158.316V32.128H150.466V33.4947H158.016V36.728H150.466V38.078H158.316V42.1113H145.433ZM174.334 42.1113H169.384L167.617 38.678H164.451V42.1113H159.417V28.1113H167.651C171.584 28.1113 173.817 29.7447 173.817 33.578C173.817 35.4113 173.017 36.7447 171.901 37.578L174.334 42.1113ZM164.451 32.2947V34.928H167.284C168.284 34.928 168.767 34.428 168.767 33.6113C168.767 32.7947 168.284 32.2947 167.284 32.2947H164.451ZM176.815 46.128C176.982 44.7947 177.032 43.228 177.015 42.1113H175.115V37.9113H180.948V38.8113C180.948 42.9447 180.315 45.3613 179.898 46.128H176.815ZM186.331 42.1113V28.1113H192.665L194.548 35.478H194.915L196.798 28.1113H203.131V42.1113H198.331V36.6447H197.948L196.581 42.1113H192.881L191.515 36.6447H191.131V42.1113H186.331ZM215.689 42.1113L215.155 40.428H209.455L208.922 42.1113H203.722L208.772 28.1113H215.839L220.905 42.1113H215.689ZM210.639 36.7113H213.972L212.739 32.8447H211.872L210.639 36.7113ZM227.699 42.578C222.682 42.5613 220.399 41.0613 220.549 37.3113H225.065C225.099 38.1447 225.799 38.628 227.699 38.6613C229.332 38.678 230.032 38.2447 230.032 37.7447C230.032 37.478 229.965 37.0113 228.699 36.8447L226.865 36.5613C224.232 36.1447 220.865 35.9613 220.865 32.1947C220.865 29.378 223.115 27.6447 227.749 27.6447C231.882 27.6447 234.765 28.7113 234.649 32.878H230.149C229.999 32.0613 229.282 31.5613 227.632 31.5613C226.215 31.5613 225.699 31.9613 225.699 32.4613C225.699 32.6947 225.815 33.1613 226.765 33.3113L228.232 33.5447C231.049 34.0113 235.049 33.9613 235.049 37.9613C235.049 41.0947 232.649 42.5947 227.699 42.578ZM247.035 42.578C242.018 42.5613 239.735 41.0613 239.885 37.3113H244.401C244.435 38.1447 245.135 38.628 247.035 38.6613C248.668 38.678 249.368 38.2447 249.368 37.7447C249.368 37.478 249.301 37.0113 248.035 36.8447L246.201 36.5613C243.568 36.1447 240.201 35.9613 240.201 32.1947C240.201 29.378 242.451 27.6447 247.085 27.6447C251.218 27.6447 254.101 28.7113 253.985 32.878H249.485C249.335 32.0613 248.618 31.5613 246.968 31.5613C245.551 31.5613 245.035 31.9613 245.035 32.4613C245.035 32.6947 245.151 33.1613 246.101 33.3113L247.568 33.5447C250.385 34.0113 254.385 33.9613 254.385 37.9613C254.385 41.0947 251.985 42.5947 247.035 42.578ZM262.596 42.578C257.612 42.578 255.179 40.5113 255.179 35.9113V28.1113H260.262V35.7947C260.262 37.3613 260.912 38.3613 262.596 38.3613C264.279 38.3613 264.962 37.3613 264.962 35.7947V28.1113H270.012V35.878C270.012 40.5113 267.579 42.578 262.596 42.578ZM281.431 42.1113L280.897 40.428H275.197L274.664 42.1113H269.464L274.514 28.1113H281.581L286.647 42.1113H281.431ZM276.381 36.7113H279.714L278.481 32.8447H277.614L276.381 36.7113ZM8.3 66.578C3.41667 66.578 0.3 63.628 0.3 59.1113C0.3 54.5947 3.41667 51.6447 8.3 51.6447C13.2 51.6447 16.3167 54.5947 16.3167 59.1113C16.3167 63.628 13.2 66.578 8.3 66.578ZM8.3 62.228C9.91667 62.228 11.3 61.1447 11.3 59.1113C11.3 57.078 9.91667 55.9947 8.3 55.9947C6.7 55.9947 5.3 57.078 5.3 59.1113C5.3 61.1447 6.7 62.228 8.3 62.228ZM17.1711 66.1113V52.1113H25.3211C29.1711 52.1113 31.5211 53.778 31.5211 57.6947C31.5211 61.5947 29.1711 63.2613 25.3378 63.2613H22.2044V66.1113H17.1711ZM22.2044 59.078H24.8711C25.8044 59.078 26.4211 58.6113 26.4211 57.6947C26.4211 56.7613 25.8044 56.2947 24.8878 56.2947H22.2044V59.078ZM32.4445 66.1113V52.1113H45.3279V56.128H37.4779V57.4947H45.0279V60.728H37.4779V62.078H45.3279V66.1113H32.4445ZM61.3456 66.1113H56.3956L54.6289 62.678H51.4622V66.1113H46.4289V52.1113H54.6622C58.5956 52.1113 60.8289 53.7447 60.8289 57.578C60.8289 59.4113 60.0289 60.7447 58.9122 61.578L61.3456 66.1113ZM51.4622 56.2947V58.928H54.2956C55.2956 58.928 55.7789 58.428 55.7789 57.6113C55.7789 56.7947 55.2956 56.2947 54.2956 56.2947H51.4622ZM73.4229 66.1113L72.8896 64.428H67.1896L66.6563 66.1113H61.4562L66.5062 52.1113H73.5729L78.6396 66.1113H73.4229ZM68.3729 60.7113H71.7062L70.4729 56.8447H69.6062L68.3729 60.7113ZM85.5576 62.228C86.9909 62.228 87.9742 61.5447 88.2909 60.0613H93.0909C92.7242 64.728 89.5409 66.378 86.1909 66.5613L86.0576 66.6613C86.9909 66.728 88.0409 67.2947 88.0409 68.5947C88.0409 70.3947 85.9742 71.078 83.5742 70.5947V68.7447C84.9576 69.0447 85.4242 68.778 85.4242 68.678C85.4242 68.528 84.9576 68.1447 83.5742 68.478V67.3447L84.6576 66.5447C80.3909 66.1947 77.6242 63.3447 77.6242 59.1113C77.6242 54.5947 80.7742 51.6447 85.5576 51.6447C89.0742 51.6447 92.7076 53.1947 93.0909 58.128H88.2909C87.9742 56.678 86.9909 55.9947 85.5576 55.9947C83.9409 55.9947 82.6242 57.178 82.6242 59.1113C82.6242 61.028 83.9409 62.228 85.5576 62.228ZM98.0771 51.1947H96.7771C96.4104 49.028 97.9604 48.128 99.4604 48.128C100.794 48.128 101.694 49.0447 102.794 49.0447C103.394 49.0447 103.794 48.7447 103.844 48.2447H105.127C105.494 50.3947 103.96 51.3113 102.444 51.3113C101.11 51.3113 100.227 50.3947 99.1271 50.3947C98.5271 50.3947 98.1271 50.678 98.0771 51.1947ZM104.36 66.1113L103.827 64.428H98.1271L97.5938 66.1113H92.3937L97.4437 52.1113H104.51L109.577 66.1113H104.36ZM99.3104 60.7113H102.644L101.41 56.8447H100.544L99.3104 60.7113ZM116.562 66.578C111.678 66.578 108.562 63.628 108.562 59.1113C108.562 54.5947 111.678 51.6447 116.562 51.6447C121.462 51.6447 124.578 54.5947 124.578 59.1113C124.578 63.628 121.462 66.578 116.562 66.578ZM116.562 62.228C118.178 62.228 119.562 61.1447 119.562 59.1113C119.562 57.078 118.178 55.9947 116.562 55.9947C114.962 55.9947 113.562 57.078 113.562 59.1113C113.562 61.1447 114.962 62.228 116.562 62.228ZM129.808 66.1113V52.1113H135.574L139.608 59.0613H140.074V52.1113H144.991V66.1113H139.341L135.174 59.1613H134.724V66.1113H129.808ZM151.261 51.1947H149.961C149.594 49.028 151.144 48.128 152.644 48.128C153.977 48.128 154.877 49.0447 155.977 49.0447C156.577 49.0447 156.977 48.7447 157.027 48.2447H158.311C158.677 50.3947 157.144 51.3113 155.627 51.3113C154.294 51.3113 153.411 50.3947 152.311 50.3947C151.711 50.3947 151.311 50.678 151.261 51.1947ZM157.544 66.1113L157.011 64.428H151.311L150.777 66.1113H145.577L150.627 52.1113H157.694L162.761 66.1113H157.544ZM152.494 60.7113H155.827L154.594 56.8447H153.727L152.494 60.7113ZM169.745 66.578C164.862 66.578 161.745 63.628 161.745 59.1113C161.745 54.5947 164.862 51.6447 169.745 51.6447C174.645 51.6447 177.762 54.5947 177.762 59.1113C177.762 63.628 174.645 66.578 169.745 66.578ZM169.745 62.228C171.362 62.228 172.745 61.1447 172.745 59.1113C172.745 57.078 171.362 55.9947 169.745 55.9947C168.145 55.9947 166.745 57.078 166.745 59.1113C166.745 61.1447 168.145 62.228 169.745 62.228ZM194.458 66.1113L193.925 64.428H188.225L187.691 66.1113H182.491L187.541 52.1113H194.608L199.675 66.1113H194.458ZM189.408 60.7113H192.741L191.508 56.8447H190.641L189.408 60.7113ZM206.593 66.578C201.809 66.578 198.659 63.628 198.659 59.1113C198.659 54.5947 201.809 51.6447 206.593 51.6447C210.109 51.6447 213.743 53.1947 214.126 58.128H209.326C209.009 56.678 208.026 55.9947 206.593 55.9947C204.976 55.9947 203.659 57.178 203.659 59.1113C203.659 61.028 204.976 62.228 206.593 62.228C208.026 62.228 209.009 61.5447 209.326 60.0613H214.126C213.743 65.028 210.159 66.578 206.593 66.578ZM222.948 66.578C218.065 66.578 214.948 63.628 214.948 59.1113C214.948 54.5947 218.065 51.6447 222.948 51.6447C227.848 51.6447 230.965 54.5947 230.965 59.1113C230.965 63.628 227.848 66.578 222.948 66.578ZM222.948 62.228C224.565 62.228 225.948 61.1447 225.948 59.1113C225.948 57.078 224.565 55.9947 222.948 55.9947C221.348 55.9947 219.948 57.078 219.948 59.1113C219.948 61.1447 221.348 62.228 222.948 62.228ZM231.82 66.1113V52.1113H238.153L240.036 59.478H240.403L242.286 52.1113H248.62V66.1113H243.82V60.6447H243.436L242.07 66.1113H238.37L237.003 60.6447H236.62V66.1113H231.82ZM249.71 66.1113V52.1113H257.86C261.71 52.1113 264.06 53.778 264.06 57.6947C264.06 61.5947 261.71 63.2613 257.877 63.2613H254.743V66.1113H249.71ZM254.743 59.078H257.41C258.343 59.078 258.96 58.6113 258.96 57.6947C258.96 56.7613 258.343 56.2947 257.427 56.2947H254.743V59.078ZM274.732 66.1113L274.198 64.428H268.498L267.965 66.1113H262.765L267.815 52.1113H274.882L279.948 66.1113H274.732ZM269.682 60.7113H273.015L271.782 56.8447H270.915L269.682 60.7113ZM280.53 66.1113V52.1113H286.297L290.33 59.0613H290.797V52.1113H295.714V66.1113H290.064L285.897 59.1613H285.447V66.1113H280.53ZM306.767 52.1113H311.817V66.1113H306.767V61.228H301.833V66.1113H296.8V52.1113H301.833V56.9947H306.767V52.1113ZM324.36 66.1113L323.827 64.428H318.127L317.594 66.1113H312.394L317.444 52.1113H324.51L329.577 66.1113H324.36ZM319.31 60.7113H322.644L321.41 56.8447H320.544L319.31 60.7113ZM334.109 60.8113C333.576 57.078 338.009 58.1447 338.009 56.5947C338.009 56.078 337.343 55.7447 336.393 55.7447C335.643 55.7447 334.376 55.8947 334.376 57.378H329.826C329.626 53.5613 332.059 51.7447 336.359 51.7447C340.343 51.7447 343.026 53.028 343.026 55.9947C343.026 59.778 339.026 58.628 338.976 60.8113H334.109ZM336.526 66.378C335.193 66.378 334.059 65.2613 334.059 63.9447C334.059 62.6113 335.193 61.4947 336.526 61.4947C337.876 61.4947 339.009 62.6113 339.009 63.9447C339.009 65.2613 337.876 66.378 336.526 66.378Z" fill="#F8F8F8"/>
</svg>
