<svg width="586" height="69" viewBox="0 0 586 69" fill="none" xmlns="http://www.w3.org/2000/svg">
<path d="M124.195 20V6H131.512C135.245 6 137.279 7.78333 137.279 11.1333C137.279 14.4667 135.245 16.25 131.512 16.25H127.512V20H124.195ZM127.512 13.4667H131.295C132.929 13.4667 133.945 12.6833 133.945 11.1333C133.945 9.56667 132.929 8.78333 131.295 8.78333H127.512V13.4667ZM155.964 20H152.664L150.364 15.8333H145.848V20H142.531V6H149.881C153.631 6 155.614 7.75 155.614 11.0167C155.614 12.9667 154.664 14.3833 153.231 15.1667L155.964 20ZM145.848 8.78333V13.2833H149.698C151.381 13.2833 152.314 12.5167 152.314 11.0333C152.314 9.55 151.381 8.78333 149.698 8.78333H145.848ZM161.082 20V6H164.399V20H161.082ZM169.828 20V6H173.678L180.178 15.4167H180.495V6H183.745V20H179.961L173.378 10.5833H173.078V20H169.828ZM196.577 20.4667C192.043 20.4667 188.91 17.4 188.91 13C188.91 8.6 192.043 5.53333 196.577 5.53333C199.643 5.53333 202.793 6.9 203.477 11.0167H200.293C199.693 9.21667 198.31 8.41667 196.577 8.41667C194.093 8.41667 192.193 10.3 192.193 13C192.193 15.6833 194.093 17.5833 196.577 17.5833C198.31 17.5833 199.693 16.7833 200.293 14.9667H203.477C202.793 19.1 199.677 20.4667 196.577 20.4667ZM208.668 20V6H211.985V20H208.668ZM217.414 20V6H224.731C228.464 6 230.497 7.78333 230.497 11.1333C230.497 14.4667 228.464 16.25 224.731 16.25H220.731V20H217.414ZM220.731 13.4667H224.514C226.147 13.4667 227.164 12.6833 227.164 11.1333C227.164 9.56667 226.147 8.78333 224.514 8.78333H220.731V13.4667ZM245.442 20L244.575 17.65H237.675L236.808 20H233.375L238.792 6H243.458L248.892 20H245.442ZM238.608 15.1333H243.642L241.442 9.15H240.808L238.608 15.1333ZM253.812 20V6H257.129V20H253.812ZM268.725 20.4667C264.458 20.4667 262.208 18.95 262.225 15.6667H265.225C265.342 16.9833 266.425 17.8167 268.725 17.8333C270.892 17.8333 272.075 17.1 272.075 16C272.075 15.0333 271.292 14.55 269.625 14.2667L267.892 13.9667C265.242 13.5 262.608 12.8 262.608 9.75C262.608 7.1 264.842 5.53333 268.758 5.53333C272.408 5.53333 274.942 6.81667 274.975 10.2833H271.992C271.775 9.01667 270.792 8.16667 268.692 8.16667C266.792 8.16667 265.792 8.81667 265.792 9.9C265.792 10.75 266.475 11.2833 267.908 11.55L269.425 11.8167C272.092 12.3 275.375 12.75 275.375 16.1C275.375 18.8833 273.092 20.4667 268.725 20.4667ZM302.156 20H298.856L296.556 15.8333H292.039V20H288.723V6H296.073C299.823 6 301.806 7.75 301.806 11.0167C301.806 12.9667 300.856 14.3833 299.423 15.1667L302.156 20ZM292.039 8.78333V13.2833H295.889C297.573 13.2833 298.506 12.5167 298.506 11.0333C298.506 9.55 297.573 8.78333 295.889 8.78333H292.039ZM307.273 20V6H319.057V8.71667H310.59V11.7833H318.757V14.1833H310.59V17.2667H319.057V20H307.273ZM330.604 20.4667C326.337 20.4667 324.087 18.95 324.104 15.6667H327.104C327.221 16.9833 328.304 17.8167 330.604 17.8333C332.771 17.8333 333.954 17.1 333.954 16C333.954 15.0333 333.171 14.55 331.504 14.2667L329.771 13.9667C327.121 13.5 324.487 12.8 324.487 9.75C324.487 7.1 326.721 5.53333 330.637 5.53333C334.287 5.53333 336.821 6.81667 336.854 10.2833H333.871C333.654 9.01667 332.671 8.16667 330.571 8.16667C328.671 8.16667 327.671 8.81667 327.671 9.9C327.671 10.75 328.354 11.2833 329.787 11.55L331.304 11.8167C333.971 12.3 337.254 12.75 337.254 16.1C337.254 18.8833 334.971 20.4667 330.604 20.4667ZM349.133 20.4667C344.816 20.4667 342.383 18.4333 342.383 14.1667V6H345.733V14.0833C345.733 16.3167 346.849 17.6667 349.133 17.6667C351.416 17.6667 352.549 16.3167 352.549 14.0833V6H355.883V14.1667C355.883 18.4333 353.449 20.4667 349.133 20.4667ZM361.305 20V6H364.621V17.2167H372.688V20H361.305ZM387.456 6V8.78333H382.206V20H378.873V8.78333H373.639V6H387.456ZM401.516 20L400.649 17.65H393.749L392.882 20H389.449L394.866 6H399.532L404.966 20H401.516ZM394.682 15.1333H399.716L397.516 9.15H396.882L394.682 15.1333ZM416.32 6C421.753 6 423.82 9.01667 423.82 13C423.82 16.9833 421.753 20 416.32 20H409.887V6H416.32ZM416.303 17.2C419.02 17.2 420.487 15.7 420.487 13C420.487 10.3 419.02 8.8 416.303 8.8H413.237L413.203 17.2H416.303ZM436.496 20.4667C431.929 20.4667 428.812 17.4 428.812 13C428.812 8.6 431.929 5.53333 436.496 5.53333C441.079 5.53333 444.196 8.6 444.196 13C444.196 17.4 441.079 20.4667 436.496 20.4667ZM436.496 17.5833C438.996 17.5833 440.896 15.75 440.896 13C440.896 10.25 438.996 8.41667 436.496 8.41667C434.012 8.41667 432.096 10.25 432.096 13C432.096 15.75 434.012 17.5833 436.496 17.5833ZM455.46 20.4667C451.193 20.4667 448.943 18.95 448.96 15.6667H451.96C452.076 16.9833 453.16 17.8167 455.46 17.8333C457.626 17.8333 458.81 17.1 458.81 16C458.81 15.0333 458.026 14.55 456.36 14.2667L454.626 13.9667C451.976 13.5 449.343 12.8 449.343 9.75C449.343 7.1 451.576 5.53333 455.493 5.53333C459.143 5.53333 461.676 6.81667 461.71 10.2833H458.726C458.51 9.01667 457.526 8.16667 455.426 8.16667C453.526 8.16667 452.526 8.81667 452.526 9.9C452.526 10.75 453.21 11.2833 454.643 11.55L456.16 11.8167C458.826 12.3 462.11 12.75 462.11 16.1C462.11 18.8833 459.826 20.4667 455.46 20.4667Z" fill="#FBF2FF"/>
<path d="M19.1097 33.4C32.9897 33.4 37.7497 40.48 37.7497 50.2C37.7497 59.88 32.9897 67 19.1097 67H1.74969V33.4H19.1097ZM19.1097 56.88C22.6697 56.88 25.5897 55.2 25.5897 50.2C25.5897 45.16 22.6697 43.52 19.1097 43.52H13.9097L13.8697 56.88H19.1097ZM39.9528 67V33.4H70.8728V43.04H52.0328V46.32H70.1528V54.08H52.0328V57.32H70.8728V67H39.9528ZM84.0153 67V33.4H97.8553L107.535 50.08H108.655V33.4H120.455V67H106.895L96.8953 50.32H95.8153V67H84.0153ZM141.662 68.12C129.942 68.12 122.462 61.04 122.462 50.2C122.462 39.36 129.942 32.28 141.662 32.28C153.422 32.28 160.902 39.36 160.902 50.2C160.902 61.04 153.422 68.12 141.662 68.12ZM141.662 57.68C145.542 57.68 148.862 55.08 148.862 50.2C148.862 45.32 145.542 42.72 141.662 42.72C137.822 42.72 134.462 45.32 134.462 50.2C134.462 55.08 137.822 57.68 141.662 57.68ZM179.125 68.12C167.085 68.08 161.605 64.48 161.965 55.48H172.805C172.885 57.48 174.565 58.64 179.125 58.72C183.045 58.76 184.725 57.72 184.725 56.52C184.725 55.88 184.565 54.76 181.525 54.36L177.125 53.68C170.805 52.68 162.725 52.24 162.725 43.2C162.725 36.44 168.125 32.28 179.245 32.28C189.165 32.28 196.085 34.84 195.805 44.84H185.005C184.645 42.88 182.925 41.68 178.965 41.68C175.565 41.68 174.325 42.64 174.325 43.84C174.325 44.4 174.605 45.52 176.885 45.88L180.405 46.44C187.165 47.56 196.765 47.44 196.765 57.04C196.765 64.56 191.005 68.16 179.125 68.12ZM215.453 68.12C203.413 68.08 197.933 64.48 198.293 55.48H209.133C209.213 57.48 210.893 58.64 215.453 58.72C219.373 58.76 221.053 57.72 221.053 56.52C221.053 55.88 220.893 54.76 217.853 54.36L213.453 53.68C207.133 52.68 199.053 52.24 199.053 43.2C199.053 36.44 204.453 32.28 215.573 32.28C225.493 32.28 232.413 34.84 232.133 44.84H221.333C220.973 42.88 219.253 41.68 215.293 41.68C211.893 41.68 210.653 42.64 210.653 43.84C210.653 44.4 210.933 45.52 213.213 45.88L216.733 46.44C223.493 47.56 233.093 47.44 233.093 57.04C233.093 64.56 227.333 68.16 215.453 68.12ZM253.6 68.12C241.88 68.12 234.4 61.04 234.4 50.2C234.4 39.36 241.88 32.28 253.6 32.28C265.36 32.28 272.84 39.36 272.84 50.2C272.84 61.04 265.36 68.12 253.6 68.12ZM253.6 57.68C257.48 57.68 260.8 55.08 260.8 50.2C260.8 45.32 257.48 42.72 253.6 42.72C249.76 42.72 246.4 45.32 246.4 50.2C246.4 55.08 249.76 57.68 253.6 57.68ZM291.063 68.12C279.023 68.08 273.543 64.48 273.903 55.48H284.743C284.823 57.48 286.503 58.64 291.063 58.72C294.983 58.76 296.663 57.72 296.663 56.52C296.663 55.88 296.503 54.76 293.463 54.36L289.063 53.68C282.743 52.68 274.663 52.24 274.663 43.2C274.663 36.44 280.063 32.28 291.183 32.28C301.103 32.28 308.023 34.84 307.743 44.84H296.943C296.583 42.88 294.863 41.68 290.903 41.68C287.503 41.68 286.263 42.64 286.263 43.84C286.263 44.4 286.543 45.52 288.823 45.88L292.343 46.44C299.103 47.56 308.703 47.44 308.703 57.04C308.703 64.56 302.943 68.16 291.063 68.12ZM339.549 68.12C328.069 68.12 320.509 61.04 320.509 50.2C320.509 39.36 328.069 32.28 339.549 32.28C347.989 32.28 356.709 36 357.629 47.84H346.109C345.349 44.36 342.989 42.72 339.549 42.72C335.669 42.72 332.509 45.56 332.509 50.2C332.509 54.8 335.669 57.68 339.549 57.68C342.989 57.68 345.349 56.04 346.109 52.48H357.629C356.709 64.4 348.109 68.12 339.549 68.12ZM359.687 67V33.4H371.767V56.92H389.207V67H359.687ZM391.937 67V33.4H404.017V67H391.937ZM406.656 67V33.4H437.576V43.04H418.736V46.32H436.856V54.08H418.736V57.32H437.576V67H406.656ZM440.218 67V33.4H454.058L463.738 50.08H464.858V33.4H476.658V67H463.098L453.098 50.32H452.018V67H440.218ZM514.985 33.4V43.48H503.065V67H490.945V43.48H479.065V33.4H514.985ZM517.375 67V33.4H548.295V43.04H529.455V46.32H547.575V54.08H529.455V57.32H548.295V67H517.375ZM567.344 68.12C555.304 68.08 549.824 64.48 550.184 55.48H561.024C561.104 57.48 562.784 58.64 567.344 58.72C571.264 58.76 572.944 57.72 572.944 56.52C572.944 55.88 572.784 54.76 569.744 54.36L565.344 53.68C559.024 52.68 550.944 52.24 550.944 43.2C550.944 36.44 556.344 32.28 567.464 32.28C577.384 32.28 584.304 34.84 584.024 44.84H573.224C572.864 42.88 571.144 41.68 567.184 41.68C563.784 41.68 562.544 42.64 562.544 43.84C562.544 44.4 562.824 45.52 565.104 45.88L568.624 46.44C575.384 47.56 584.984 47.44 584.984 57.04C584.984 64.56 579.224 68.16 567.344 68.12Z" fill="url(#paint0_linear_13_542)"/>
<defs>
<linearGradient id="paint0_linear_13_542" x1="586" y1="44" x2="0" y2="44" gradientUnits="userSpaceOnUse">
<stop stop-color="#9A9EED"/>
<stop offset="1" stop-color="#575AC0"/>
</linearGradient>
</defs>
</svg>
