<svg width="289" height="44" viewBox="0 0 289 44" fill="none" xmlns="http://www.w3.org/2000/svg">
<rect y="0.5" width="289" height="43" rx="8" fill="url(#paint0_linear_13_1012)"/>
<path d="M21.8 27.8733C17.9333 27.86 16.1067 26.66 16.2 23.7533H19.52C19.56 24.5133 20.2 24.98 21.8 24.9933C23.2133 25.0067 23.8667 24.6067 23.8667 24.0867C23.8667 23.7267 23.6667 23.3533 22.5733 23.1933L21.1333 22.9667C19.0133 22.62 16.4667 22.3667 16.4667 19.5C16.4667 17.2867 18.2667 15.9267 21.8267 15.9267C25.04 15.9267 27.28 16.82 27.2133 20.02H23.92C23.7867 19.2733 23.16 18.8067 21.7467 18.8067C20.52 18.8067 20.0133 19.18 20.0133 19.6867C20.0133 20.0067 20.2133 20.3933 21.0667 20.5267L22.2533 20.7267C24.48 21.1 27.5333 21.1667 27.5333 24.2333C27.5333 26.6733 25.64 27.8867 21.8 27.8733ZM36.0323 27.8733C32.179 27.8733 30.2323 26.2333 30.2323 22.62V16.3H33.9523V22.5267C33.9523 23.9133 34.5656 24.78 36.0323 24.78C37.499 24.78 38.139 23.9133 38.139 22.5267V16.3H41.8323V22.5933C41.8323 26.2333 39.8856 27.8733 36.0323 27.8733ZM44.7635 27.5V16.3H51.1235C54.1769 16.3 55.9902 17.66 55.9902 20.6733C55.9902 23.6867 54.1769 25.0467 51.1369 25.0467H48.4569V27.5H44.7635ZM48.4569 21.98H50.8035C51.6969 21.98 52.2702 21.54 52.2702 20.6733C52.2702 19.8067 51.6969 19.3667 50.8169 19.3667H48.4569V21.98ZM58.7948 27.5V16.3H68.8881V19.26H62.4881V20.6867H68.6481V23.1133H62.4881V24.54H68.8881V27.5H58.7948ZM83.466 27.5H79.8394L78.3194 24.6067H75.5194V27.5H71.826V16.3H78.2394C81.346 16.3 83.0927 17.6333 83.0927 20.58C83.0927 22.0867 82.4127 23.1533 81.466 23.82L83.466 27.5ZM75.5194 19.3667V21.8467H77.986C78.9194 21.8467 79.3994 21.3933 79.3994 20.6067C79.3994 19.82 78.9194 19.3667 77.986 19.3667H75.5194ZM89.1867 27.5L85.0667 16.3H88.88L91.5733 24.0333H91.9733L94.6667 16.3H98.48L94.36 27.5H89.1867ZM101.014 27.5V16.3H104.707V27.5H101.014ZM112.972 27.8733C109.105 27.86 107.279 26.66 107.372 23.7533H110.692C110.732 24.5133 111.372 24.98 112.972 24.9933C114.385 25.0067 115.039 24.6067 115.039 24.0867C115.039 23.7267 114.839 23.3533 113.745 23.1933L112.305 22.9667C110.185 22.62 107.639 22.3667 107.639 19.5C107.639 17.2867 109.439 15.9267 112.999 15.9267C116.212 15.9267 118.452 16.82 118.385 20.02H115.092C114.959 19.2733 114.332 18.8067 112.919 18.8067C111.692 18.8067 111.185 19.18 111.185 19.6867C111.185 20.0067 111.385 20.3933 112.239 20.5267L113.425 20.7267C115.652 21.1 118.705 21.1667 118.705 24.2333C118.705 26.6733 116.812 27.8867 112.972 27.8733ZM124.975 15.5267H123.975C123.722 13.8867 124.882 13.1933 126.042 13.1933C127.109 13.1933 127.789 13.9667 128.655 13.9667C129.135 13.9667 129.442 13.7267 129.482 13.3267H130.482C130.735 14.9667 129.575 15.66 128.415 15.66C127.335 15.66 126.669 14.8867 125.802 14.8867C125.322 14.8867 125.015 15.1267 124.975 15.5267ZM130.135 27.5L129.642 26.02H124.842L124.349 27.5H120.535L124.655 16.3H129.829L133.949 27.5H130.135ZM125.749 23.2867H128.735L127.562 19.7667H126.922L125.749 23.2867ZM141.566 27.8733C137.713 27.8733 135.22 25.4867 135.22 21.9C135.22 18.3133 137.713 15.9267 141.566 15.9267C145.42 15.9267 147.913 18.3133 147.913 21.9C147.913 25.4867 145.42 27.8733 141.566 27.8733ZM141.566 24.6867C143.033 24.6867 144.246 23.6733 144.246 21.9C144.246 20.1267 143.033 19.1133 141.566 19.1133C140.1 19.1133 138.886 20.1267 138.886 21.9C138.886 23.6733 140.1 24.6867 141.566 24.6867ZM161.75 16.3C166.31 16.3 167.91 18.6733 167.91 21.9C167.91 25.1133 166.31 27.5 161.75 27.5H156.123V16.3H161.75ZM161.75 24.4067C163.19 24.4067 164.203 23.6867 164.203 21.9C164.203 20.1 163.19 19.3933 161.75 19.3933H159.83V24.4067H161.75ZM170.717 27.5V16.3H180.81V19.26H174.41V20.6867H180.57V23.1133H174.41V24.54H180.81V27.5H170.717ZM192.937 27.5L188.817 16.3H192.63L195.323 24.0333H195.723L198.417 16.3H202.23L198.11 27.5H192.937ZM204.764 27.5V16.3H214.857V19.26H208.457V20.6867H214.617V23.1133H208.457V24.54H214.857V27.5H204.764ZM217.795 27.5V16.3H222.035L225.755 22.3533H226.088V16.3H229.688V27.5H225.541L221.728 21.4467H221.395V27.5H217.795ZM238.25 16.3C242.81 16.3 244.41 18.6733 244.41 21.9C244.41 25.1133 242.81 27.5 238.25 27.5H232.623V16.3H238.25ZM238.25 24.4067C239.69 24.4067 240.703 23.6867 240.703 21.9C240.703 20.1 239.69 19.3933 238.25 19.3933H236.33V24.4067H238.25ZM255.354 27.5L254.861 26.02H250.061L249.568 27.5H245.754L249.874 16.3H255.048L259.168 27.5H255.354ZM250.968 23.2867H253.954L252.781 19.7667H252.141L250.968 23.2867ZM266.566 27.8733C262.699 27.86 260.872 26.66 260.966 23.7533H264.286C264.326 24.5133 264.966 24.98 266.566 24.9933C267.979 25.0067 268.632 24.6067 268.632 24.0867C268.632 23.7267 268.432 23.3533 267.339 23.1933L265.899 22.9667C263.779 22.62 261.232 22.3667 261.232 19.5C261.232 17.2867 263.032 15.9267 266.592 15.9267C269.806 15.9267 272.046 16.82 271.979 20.02H268.686C268.552 19.2733 267.926 18.8067 266.512 18.8067C265.286 18.8067 264.779 19.18 264.779 19.6867C264.779 20.0067 264.979 20.3933 265.832 20.5267L267.019 20.7267C269.246 21.1 272.299 21.1667 272.299 24.2333C272.299 26.6733 270.406 27.8867 266.566 27.8733Z" fill="#F8F8F8"/>
<defs>
<linearGradient id="paint0_linear_13_1012" x1="289" y1="22" x2="0" y2="22" gradientUnits="userSpaceOnUse">
<stop stop-color="#575AC0"/>
<stop offset="1" stop-color="#333693"/>
</linearGradient>
</defs>
</svg>
