<svg width="43" height="44" viewBox="0 0 43 44" fill="none" xmlns="http://www.w3.org/2000/svg">
<rect x="0.5" y="1" width="42" height="42" rx="7.5" fill="url(#paint0_linear_13_493)"/>
<rect x="0.5" y="1" width="42" height="42" rx="7.5" stroke="#6064C9"/>
<path fill-rule="evenodd" clip-rule="evenodd" d="M11.5 17.2499C11.5 15.3255 13.0391 13.7666 14.9375 13.7666H28.0625C29.9609 13.7666 31.5 15.3255 31.5 17.2499V28.0166C31.5 29.941 29.9609 31.4999 28.0625 31.4999H14.9375C13.0391 31.4999 11.5 29.941 11.5 28.0166V17.2499ZM27.4375 20.4166C27.4375 21.4654 26.598 22.3166 25.5625 22.3166C24.527 22.3166 23.6875 21.4654 23.6875 20.4166C23.6875 19.3678 24.527 18.5166 25.5625 18.5166C26.598 18.5166 27.4375 19.3678 27.4375 20.4166Z" fill="#D9A3FF" fill-opacity="0.4"/>
<path fill-rule="evenodd" clip-rule="evenodd" d="M18.8725 20.7422C19.163 20.7018 19.4556 20.8015 19.663 21.0117L22.0493 23.4298L23.707 21.3413C24.0315 20.9325 24.6216 20.8676 25.0251 21.1965C25.4286 21.5253 25.4926 22.1233 25.168 22.5322L22.8555 25.4455C22.6887 25.6557 22.4415 25.7841 22.1756 25.7987C21.9098 25.8132 21.6504 25.7125 21.4621 25.5218L19.2112 23.2408L17.0046 27.2158C16.8514 27.4918 16.5726 27.6723 16.261 27.6972C15.9495 27.722 15.6462 27.5878 15.4523 27.3394L11.7023 22.5363C11.3811 22.1248 11.4498 21.5274 11.8559 21.2018C12.2619 20.8763 12.8515 20.946 13.1728 21.3574L16.0556 25.0499L18.1829 21.2176C18.3267 20.9586 18.5819 20.7827 18.8725 20.7422Z" fill="#F5E2FF"/>
<path d="M26.5 31.4999H24.625V22.0623C24.9007 22.224 25.221 22.3166 25.5625 22.3166C25.904 22.3166 26.2242 22.224 26.5 22.0623V31.4999Z" fill="#F5E2FF"/>
<path d="M26.5 13.7666H24.625V18.7709C24.9007 18.6092 25.221 18.5166 25.5625 18.5166C25.904 18.5166 26.2242 18.6092 26.5 18.7709V13.7666Z" fill="#F5E2FF"/>
<path fill-rule="evenodd" clip-rule="evenodd" d="M22.75 20.4167C22.75 18.8433 24.0091 17.5667 25.5625 17.5667C27.1159 17.5667 28.375 18.8433 28.375 20.4167C28.375 21.99 27.1159 23.2667 25.5625 23.2667C24.0091 23.2667 22.75 21.99 22.75 20.4167ZM25.5625 19.4667C25.0449 19.4667 24.625 19.8924 24.625 20.4167C24.625 20.9409 25.0449 21.3667 25.5625 21.3667C26.0801 21.3667 26.5 20.9409 26.5 20.4167C26.5 19.8924 26.0801 19.4667 25.5625 19.4667Z" fill="#F5E2FF"/>
<defs>
<linearGradient id="paint0_linear_13_493" x1="0" y1="22" x2="43" y2="22" gradientUnits="userSpaceOnUse">
<stop stop-color="#333693"/>
<stop offset="1" stop-color="#181946"/>
</linearGradient>
</defs>
</svg>
