<svg width="519" height="52" viewBox="0 0 519 52" fill="none" xmlns="http://www.w3.org/2000/svg">
<path d="M6.12 21.5L0.06 4.7H6.3L10.04 15.82H10.68L14.42 4.7H20.68L14.6 21.5H6.12ZM29.0616 22.06C23.2016 22.06 19.4616 18.52 19.4616 13.1C19.4616 7.68 23.2016 4.14 29.0616 4.14C34.9416 4.14 38.6816 7.68 38.6816 13.1C38.6816 18.52 34.9416 22.06 29.0616 22.06ZM29.0616 16.84C31.0016 16.84 32.6616 15.54 32.6616 13.1C32.6616 10.66 31.0016 9.36 29.0616 9.36C27.1416 9.36 25.4616 10.66 25.4616 13.1C25.4616 15.54 27.1416 16.84 29.0616 16.84ZM49.1378 22.06C43.3978 22.06 39.6178 18.52 39.6178 13.1C39.6178 7.68 43.3978 4.14 49.1378 4.14C53.3578 4.14 57.7178 6 58.1778 11.92H52.4178C52.0378 10.18 50.8578 9.36 49.1378 9.36C47.1978 9.36 45.6178 10.78 45.6178 13.1C45.6178 15.4 47.1978 16.84 49.1378 16.84C50.8578 16.84 52.0378 16.02 52.4178 14.24H58.1778C57.7178 20.2 53.4178 22.06 49.1378 22.06ZM60.5269 3.7L63.1469 0.119999H70.4069L73.0269 3.7H68.0669L67.3469 2.82H66.2069L65.4869 3.7H60.5269ZM59.2069 21.5V4.7H74.6669V9.52H65.2469V11.16H74.3069V15.04H65.2469V16.66H74.6669V21.5H59.2069ZM89.4181 22.06C83.3981 22.04 80.6581 20.24 80.8381 15.74H86.2581C86.2981 16.74 87.1381 17.32 89.4181 17.36C91.3781 17.38 92.2181 16.86 92.2181 16.26C92.2181 15.94 92.1381 15.38 90.6181 15.18L88.4181 14.84C85.2581 14.34 81.2181 14.12 81.2181 9.6C81.2181 6.22 83.9181 4.14 89.4781 4.14C94.4381 4.14 97.8981 5.42 97.7581 10.42H92.3581C92.1781 9.44 91.3181 8.84 89.3381 8.84C87.6381 8.84 87.0181 9.32 87.0181 9.92C87.0181 10.2 87.1581 10.76 88.2981 10.94L90.0581 11.22C93.4381 11.78 98.2381 11.72 98.2381 16.52C98.2381 20.28 95.3581 22.08 89.4181 22.06ZM99.1912 21.5V4.7H114.651V9.52H105.231V11.16H114.291V15.04H105.231V16.66H114.651V21.5H99.1912ZM115.972 21.5V4.7H122.892L127.732 13.04H128.293V4.7H134.193V21.5H127.412L122.413 13.16H121.873V21.5H115.972ZM153.356 4.7V9.74H147.396V21.5H141.336V9.74H135.396V4.7H153.356ZM154.551 21.5V4.7H170.011V9.52H160.591V11.16H169.651V15.04H160.591V16.66H170.011V21.5H154.551ZM195.502 12.88C195.502 15.2 194.582 16.96 193.182 18.36L195.362 20.6C194.362 21.92 193.282 22.98 192.002 24.02L189.182 21.46C188.182 21.82 187.042 22.06 185.882 22.06C180.022 22.06 176.282 18.52 176.282 13.1C176.282 7.68 180.022 4.14 185.882 4.14C191.762 4.14 195.502 7.68 195.502 12.88ZM182.282 13.1C182.282 15.54 183.962 16.84 185.882 16.84C187.822 16.84 189.482 15.54 189.482 13.1C189.482 10.66 187.822 9.36 185.882 9.36C183.962 9.36 182.282 10.66 182.282 13.1ZM205.427 22.06C199.447 22.06 196.527 19.58 196.527 14.06V4.7H202.627V13.92C202.627 15.8 203.407 17 205.427 17C207.447 17 208.267 15.8 208.267 13.92V4.7H214.327V14.02C214.327 19.58 211.407 22.06 205.427 22.06ZM215.629 21.5V4.7H231.089V9.52H221.669V11.16H230.729V15.04H221.669V16.66H231.089V21.5H215.629ZM245.84 22.06C239.82 22.04 237.08 20.24 237.26 15.74H242.68C242.72 16.74 243.56 17.32 245.84 17.36C247.8 17.38 248.64 16.86 248.64 16.26C248.64 15.94 248.56 15.38 247.04 15.18L244.84 14.84C241.68 14.34 237.64 14.12 237.64 9.6C237.64 6.22 240.34 4.14 245.9 4.14C250.86 4.14 254.32 5.42 254.18 10.42H248.78C248.6 9.44 247.74 8.84 245.76 8.84C244.06 8.84 243.44 9.32 243.44 9.92C243.44 10.2 243.58 10.76 244.72 10.94L246.48 11.22C249.86 11.78 254.66 11.72 254.66 16.52C254.66 20.28 251.78 22.08 245.84 22.06ZM255.613 21.5V4.7H271.073V9.52H261.653V11.16H270.713V15.04H261.653V16.66H271.073V21.5H255.613ZM281.294 22.06C275.314 22.06 272.394 19.58 272.394 14.06V4.7H278.494V13.92C278.494 15.8 279.274 17 281.294 17C283.314 17 284.134 15.8 284.134 13.92V4.7H290.194V14.02C290.194 19.58 287.274 22.06 281.294 22.06ZM313.997 4.7V9.74H308.037V21.5H301.977V9.74H296.037V4.7H313.997ZM315.191 21.5V4.7H321.231V21.5H315.191ZM322.551 21.5V4.7H330.151L332.411 13.54H332.851L335.111 4.7H342.711V21.5H336.951V14.94H336.491L334.851 21.5H330.411L328.771 14.94H328.311V21.5H322.551ZM344.019 21.5V4.7H359.479V9.52H350.059V11.16H359.119V15.04H350.059V16.66H359.479V21.5H344.019ZM374.731 4.7C381.671 4.7 384.051 8.24 384.051 13.1C384.051 17.94 381.671 21.5 374.731 21.5H366.051V4.7H374.731ZM374.731 16.44C376.511 16.44 377.971 15.6 377.971 13.1C377.971 10.58 376.511 9.76 374.731 9.76H372.131L372.111 16.44H374.731ZM385.152 21.5V4.7H400.612V9.52H391.192V11.16H400.252V15.04H391.192V16.66H400.612V21.5H385.152ZM412.643 21.5L406.583 4.7H412.823L416.563 15.82H417.203L420.943 4.7H427.203L421.123 21.5H412.643ZM427.902 21.5V4.7H443.362V9.52H433.942V11.16H443.002V15.04H433.942V16.66H443.362V21.5H427.902ZM444.683 21.5V4.7H451.603L456.443 13.04H457.003V4.7H462.903V21.5H456.123L451.123 13.16H450.583V21.5H444.683ZM472.887 4.7C479.827 4.7 482.207 8.24 482.207 13.1C482.207 17.94 479.827 21.5 472.887 21.5H464.207V4.7H472.887ZM472.887 16.44C474.667 16.44 476.127 15.6 476.127 13.1C476.127 10.58 474.667 9.76 472.887 9.76H470.287L470.267 16.44H472.887ZM495.451 21.5L494.811 19.48H487.971L487.331 21.5H481.091L487.151 4.7H495.631L501.711 21.5H495.451ZM489.391 15.02H493.391L491.911 10.38H490.871L489.391 15.02ZM509.863 22.06C503.843 22.04 501.103 20.24 501.283 15.74H506.703C506.743 16.74 507.583 17.32 509.863 17.36C511.823 17.38 512.663 16.86 512.663 16.26C512.663 15.94 512.583 15.38 511.063 15.18L508.863 14.84C505.703 14.34 501.663 14.12 501.663 9.6C501.663 6.22 504.363 4.14 509.923 4.14C514.883 4.14 518.343 5.42 518.203 10.42H512.803C512.623 9.44 511.763 8.84 509.783 8.84C508.083 8.84 507.463 9.32 507.463 9.92C507.463 10.2 507.603 10.76 508.743 10.94L510.503 11.22C513.883 11.78 518.683 11.72 518.683 16.52C518.683 20.28 515.803 22.08 509.863 22.06ZM0.66 50.5V33.7H10.44C15.06 33.7 17.88 35.7 17.88 40.4C17.88 45.08 15.06 47.08 10.46 47.08H6.7V50.5H0.66ZM6.7 42.06H9.9C11.02 42.06 11.76 41.5 11.76 40.4C11.76 39.28 11.02 38.72 9.92 38.72H6.7V42.06ZM28.2881 51.06C22.4281 51.06 18.6881 47.52 18.6881 42.1C18.6881 36.68 22.4281 33.14 28.2881 33.14C34.1681 33.14 37.9081 36.68 37.9081 42.1C37.9081 47.52 34.1681 51.06 28.2881 51.06ZM28.2881 45.84C30.2281 45.84 31.8881 44.54 31.8881 42.1C31.8881 39.66 30.2281 38.36 28.2881 38.36C26.3681 38.36 24.6881 39.66 24.6881 42.1C24.6881 44.54 26.3681 45.84 28.2881 45.84ZM47.6134 33.7C54.5534 33.7 56.9334 37.24 56.9334 42.1C56.9334 46.94 54.5534 50.5 47.6134 50.5H38.9334V33.7H47.6134ZM47.6134 45.44C49.3934 45.44 50.8534 44.6 50.8534 42.1C50.8534 39.58 49.3934 38.76 47.6134 38.76H45.0134L44.9934 45.44H47.6134ZM58.035 50.5V33.7H73.495V38.52H64.075V40.16H73.135V44.04H64.075V45.66H73.495V50.5H58.035ZM92.7163 50.5H86.7763L84.6562 46.38H80.8563V50.5H74.8162V33.7H84.6962C89.4162 33.7 92.0963 35.66 92.0963 40.26C92.0963 42.46 91.1363 44.06 89.7963 45.06L92.7163 50.5ZM80.8563 38.72V41.88H84.2563C85.4562 41.88 86.0363 41.28 86.0363 40.3C86.0363 39.32 85.4562 38.72 84.2563 38.72H80.8563ZM93.7537 50.5V33.7H99.7938V50.5H93.7537ZM114.873 50.5L114.233 48.48H107.393L106.753 50.5H100.513L106.573 33.7H115.053L121.133 50.5H114.873ZM108.813 44.02H112.813L111.333 39.38H110.293L108.813 44.02ZM127.082 50.5V33.7H136.862C141.482 33.7 144.302 35.7 144.302 40.4C144.302 45.08 141.482 47.08 136.882 47.08H133.122V50.5H127.082ZM133.122 42.06H136.322C137.442 42.06 138.182 41.5 138.182 40.4C138.182 39.28 137.442 38.72 136.342 38.72H133.122V42.06ZM145.41 50.5V33.7H160.87V38.52H151.45V40.16H160.51V44.04H151.45V45.66H160.87V50.5H145.41ZM180.091 50.5H174.151L172.031 46.38H168.231V50.5H162.191V33.7H172.071C176.791 33.7 179.471 35.66 179.471 40.26C179.471 42.46 178.511 44.06 177.171 45.06L180.091 50.5ZM168.231 38.72V41.88H171.631C172.831 41.88 173.411 41.28 173.411 40.3C173.411 39.32 172.831 38.72 171.631 38.72H168.231ZM181.129 50.5V33.7H196.549V38.74H187.169V40.46H196.169V44.8H187.169V50.5H181.129ZM206.788 51.06C200.928 51.06 197.188 47.52 197.188 42.1C197.188 36.68 200.928 33.14 206.788 33.14C212.668 33.14 216.408 36.68 216.408 42.1C216.408 47.52 212.668 51.06 206.788 51.06ZM206.788 45.84C208.728 45.84 210.388 44.54 210.388 42.1C210.388 39.66 208.728 38.36 206.788 38.36C204.868 38.36 203.188 39.66 203.188 42.1C203.188 44.54 204.868 45.84 206.788 45.84ZM235.333 50.5H229.393L227.273 46.38H223.473V50.5H217.433V33.7H227.313C232.033 33.7 234.713 35.66 234.713 40.26C234.713 42.46 233.753 44.06 232.413 45.06L235.333 50.5ZM223.473 38.72V41.88H226.873C228.073 41.88 228.653 41.28 228.653 40.3C228.653 39.32 228.073 38.72 226.873 38.72H223.473ZM236.371 50.5V33.7H243.971L246.231 42.54H246.671L248.931 33.7H256.531V50.5H250.771V43.94H250.311L248.671 50.5H244.231L242.591 43.94H242.131V50.5H236.371ZM271.6 50.5L270.96 48.48H264.12L263.48 50.5H257.24L263.3 33.7H271.78L277.86 50.5H271.6ZM265.54 44.02H269.54L268.06 39.38H267.02L265.54 44.02ZM296.458 50.5H290.518L288.398 46.38H284.598V50.5H278.558V33.7H288.438C293.158 33.7 295.838 35.66 295.838 40.26C295.838 42.46 294.878 44.06 293.538 45.06L296.458 50.5ZM284.598 38.72V41.88H287.998C289.198 41.88 289.778 41.28 289.778 40.3C289.778 39.32 289.198 38.72 287.998 38.72H284.598ZM302.746 50.5V33.7H310.346L312.606 42.54H313.046L315.306 33.7H322.906V50.5H317.146V43.94H316.686L315.046 50.5H310.606L308.966 43.94H308.506V50.5H302.746ZM337.975 50.5L337.335 48.48H330.495L329.855 50.5H323.615L329.675 33.7H338.155L344.235 50.5H337.975ZM331.915 44.02H335.915L334.435 39.38H333.395L331.915 44.02ZM344.933 50.5V33.7H350.973V50.5H344.933ZM360.473 51.06C354.453 51.04 351.713 49.24 351.893 44.74H357.313C357.353 45.74 358.193 46.32 360.473 46.36C362.433 46.38 363.273 45.86 363.273 45.26C363.273 44.94 363.193 44.38 361.673 44.18L359.473 43.84C356.313 43.34 352.273 43.12 352.273 38.6C352.273 35.22 354.973 33.14 360.533 33.14C365.493 33.14 368.953 34.42 368.813 39.42H363.413C363.233 38.44 362.373 37.84 360.393 37.84C358.693 37.84 358.073 38.32 358.073 38.92C358.073 39.2 358.213 39.76 359.353 39.94L361.113 40.22C364.493 40.78 369.293 40.72 369.293 45.52C369.293 49.28 366.413 51.08 360.473 51.06ZM374.986 44.14C374.346 39.66 379.666 40.94 379.666 39.08C379.666 38.46 378.866 38.06 377.726 38.06C376.826 38.06 375.306 38.24 375.306 40.02H369.846C369.606 35.44 372.526 33.26 377.686 33.26C382.466 33.26 385.686 34.8 385.686 38.36C385.686 42.9 380.886 41.52 380.826 44.14H374.986ZM377.886 50.82C376.286 50.82 374.926 49.48 374.926 47.9C374.926 46.3 376.286 44.96 377.886 44.96C379.506 44.96 380.866 46.3 380.866 47.9C380.866 49.48 379.506 50.82 377.886 50.82Z" fill="#F8F8F8"/>
</svg>
