<svg width="119" height="8" viewBox="0 0 119 8" fill="none" xmlns="http://www.w3.org/2000/svg">
<path d="M0.316667 7.5V0.5H6.48333V2.18333H2.40833V3.29167H6.33333V4.7H2.40833V5.80833H6.48333V7.5H0.316667ZM7.11354 7.5V0.5H9.52188L12.1552 4.59167H12.3469V0.5H14.3885V7.5H12.0302L9.33854 3.40833H9.15521V7.5H7.11354ZM22.1639 0.5V2.25H19.6139V7.5H17.5223V2.25H14.9723V0.5H22.1639ZM29.8414 7.5H27.7831L26.7664 5.6H24.8497V7.5H22.7581V0.5H26.6497C28.5747 0.5 29.6331 1.35 29.6331 3.11667C29.6331 4.075 29.1914 4.75833 28.5581 5.16667L29.8414 7.5ZM24.8497 2.24167V4.025H26.5164C27.1831 4.025 27.5414 3.70833 27.5414 3.13333C27.5414 2.55833 27.1831 2.24167 26.5164 2.24167H24.8497ZM35.9773 7.5L35.6273 6.49167H32.4773L32.1273 7.5H29.969L32.5857 0.5H35.519L38.144 7.5H35.9773ZM33.019 4.93333H35.0857L34.2357 2.46667H33.869L33.019 4.93333ZM45.6031 7.5H43.5448L42.5281 5.6H40.6115V7.5H38.5198V0.5H42.4115C44.3365 0.5 45.3948 1.35 45.3948 3.11667C45.3948 4.075 44.9531 4.75833 44.3198 5.16667L45.6031 7.5ZM40.6115 2.24167V4.025H42.2781C42.9448 4.025 43.3031 3.70833 43.3031 3.13333C43.3031 2.55833 42.9448 2.24167 42.2781 2.24167H40.6115ZM48.2561 7.5V0.5H54.4228V2.18333H50.3478V3.29167H54.2728V4.7H50.3478V5.80833H54.4228V7.5H48.2561ZM55.053 7.5V0.5H57.6947L59.0363 4.8H59.1863L60.528 0.5H63.178V7.5H61.178V4.025H61.0113L59.903 7.5H58.328L57.2197 4.025H57.0447V7.5H55.053ZM69.7264 7.73333C67.3931 7.73333 65.8264 6.225 65.8264 4C65.8264 1.775 67.3931 0.266666 69.7264 0.266666C71.3764 0.266666 73.0681 0.991666 73.3348 3.25833H71.3348C71.1098 2.45 70.5181 2.075 69.7264 2.075C68.7014 2.075 67.9014 2.84167 67.9014 4C67.9014 5.15 68.7014 5.925 69.7264 5.925C70.5181 5.925 71.1098 5.55 71.3348 4.725H73.3348C73.0681 7.00833 71.3931 7.73333 69.7264 7.73333ZM77.7104 7.73333C75.3437 7.73333 73.7854 6.225 73.7854 4C73.7854 1.775 75.3437 0.266666 77.7104 0.266666C80.0771 0.266666 81.6354 1.775 81.6354 4C81.6354 6.225 80.0771 7.73333 77.7104 7.73333ZM77.7104 5.925C78.7354 5.925 79.5604 5.2 79.5604 4C79.5604 2.8 78.7354 2.075 77.7104 2.075C76.6854 2.075 75.8604 2.8 75.8604 4C75.8604 5.2 76.6854 5.925 77.7104 5.925ZM82.1428 7.5V0.5H84.5512L87.1845 4.59167H87.3762V0.5H89.4178V7.5H87.0595L84.3678 3.40833H84.1845V7.5H82.1428ZM97.1932 0.5V2.25H94.6432V7.5H92.5516V2.25H90.0016V0.5H97.1932ZM102.13 7.5L101.78 6.49167H98.6297L98.2797 7.5H96.1214L98.738 0.5H101.671L104.296 7.5H102.13ZM99.1714 4.93333H101.238L100.388 2.46667H100.021L99.1714 4.93333ZM110.406 0.5V2.25H107.856V7.5H105.764V2.25H103.214V0.5H110.406ZM114.371 7.73333C112.004 7.73333 110.446 6.225 110.446 4C110.446 1.775 112.004 0.266666 114.371 0.266666C116.737 0.266666 118.296 1.775 118.296 4C118.296 6.225 116.737 7.73333 114.371 7.73333ZM114.371 5.925C115.396 5.925 116.221 5.2 116.221 4C116.221 2.8 115.396 2.075 114.371 2.075C113.346 2.075 112.521 2.8 112.521 4C112.521 5.2 113.346 5.925 114.371 5.925Z" fill="#323372"/>
</svg>
