<svg width="43" height="44" viewBox="0 0 43 44" fill="none" xmlns="http://www.w3.org/2000/svg">
<rect x="0.5" y="1" width="42" height="42" rx="7.5" fill="url(#paint0_linear_13_504)"/>
<rect x="0.5" y="1" width="42" height="42" rx="7.5" stroke="#6064C9"/>
<g clip-path="url(#clip0_13_504)">
<path fill-rule="evenodd" clip-rule="evenodd" d="M18.6875 13.45C20.2413 13.45 21.5 14.7255 21.5 16.3C21.5 14.7255 22.7587 13.45 24.3125 13.45C25.8663 13.45 27.125 14.7255 27.125 16.3C27.125 16.642 27.0562 16.965 26.9475 17.2677C26.9729 17.2661 26.9979 17.2627 27.0227 17.2592C27.0566 17.2546 27.0904 17.25 27.125 17.25C28.6788 17.25 29.9375 18.5255 29.9375 20.1C29.9375 20.8334 29.6562 21.4946 29.2075 22C29.6562 22.5054 29.9375 23.1665 29.9375 23.9C29.9375 25.4744 28.6788 26.7499 27.125 26.7499C27.0895 26.7499 27.0557 26.7453 27.022 26.7406C26.9974 26.7372 26.9727 26.7339 26.9475 26.7322C27.0562 27.0362 27.125 27.3592 27.125 27.6999C27.125 29.2744 25.8663 30.5499 24.3125 30.5499C22.7587 30.5499 21.5 29.2744 21.5 27.6999C21.5 29.2744 20.2413 30.5499 18.6875 30.5499C17.1337 30.5499 15.875 29.2744 15.875 27.6999C15.875 27.3592 15.9438 27.0362 16.0525 26.7322C16.0272 26.7339 16.0026 26.7372 15.978 26.7406C15.9442 26.7453 15.9104 26.7499 15.875 26.7499C14.3212 26.7499 13.0625 25.4744 13.0625 23.9C13.0625 23.1665 13.3438 22.5054 13.7925 22C13.3438 21.4946 13.0625 20.8334 13.0625 20.1C13.0625 18.5255 14.3212 17.25 15.875 17.25C15.9096 17.25 15.9434 17.2546 15.9773 17.2592C16.0022 17.2627 16.0271 17.2661 16.0525 17.2677C15.9438 16.965 15.875 16.642 15.875 16.3C15.875 14.7255 17.1337 13.45 18.6875 13.45Z" fill="#D9A3FF" fill-opacity="0.3"/>
<path d="M19.3875 23.0259L21.1338 24.7954C21.3688 25.0335 21.5 25.3553 21.5 25.6909V27.6999" stroke="#F5E2FF" stroke-width="1.5" stroke-linecap="round" stroke-linejoin="round"/>
<path d="M23.6125 20.974L21.8663 19.2045C21.6313 18.9664 21.5 18.6446 21.5 18.309V16.3" stroke="#F5E2FF" stroke-width="1.5" stroke-linecap="round" stroke-linejoin="round"/>
<path d="M14.9287 22.7841C14.4875 22.6219 14.1025 22.3509 13.7925 22" stroke="#F5E2FF" stroke-width="1.5" stroke-linecap="round" stroke-linejoin="round"/>
<path d="M28.0712 22.7841C28.5125 22.6219 28.8975 22.3509 29.2075 22" stroke="#F5E2FF" stroke-width="1.5" stroke-linecap="round" stroke-linejoin="round"/>
<path d="M21.5 16.3C21.5 14.7255 20.2413 13.45 18.6875 13.45C17.1337 13.45 15.875 14.7255 15.875 16.3C15.875 16.642 15.9438 16.965 16.0525 17.2677C15.9925 17.2639 15.935 17.25 15.875 17.25C14.3212 17.25 13.0625 18.5255 13.0625 20.1C13.0625 20.8334 13.3438 21.4946 13.7925 22C13.3438 22.5054 13.0625 23.1666 13.0625 23.9C13.0625 25.4744 14.3212 26.7499 15.875 26.7499C15.9362 26.7499 15.9925 26.736 16.0525 26.7322C15.9438 27.0362 15.875 27.3592 15.875 27.6999C15.875 29.2744 17.1337 30.5499 18.6875 30.5499C20.2413 30.5499 21.5 29.2744 21.5 27.6999" stroke="#F5E2FF" stroke-width="1.5" stroke-linecap="round" stroke-linejoin="round"/>
<path d="M16.0526 26.7323C16.4988 26.7044 16.9163 26.5765 17.2813 26.3662" stroke="#F5E2FF" stroke-width="1.5" stroke-linecap="round" stroke-linejoin="round"/>
<path d="M26.2175 18.3886C26.5388 18.0795 26.7913 17.6894 26.9475 17.2676" stroke="#F5E2FF" stroke-width="1.5" stroke-linecap="round" stroke-linejoin="round"/>
<path d="M16.7826 18.3886C16.4613 18.0795 16.2088 17.6894 16.0526 17.2676" stroke="#F5E2FF" stroke-width="1.5" stroke-linecap="round" stroke-linejoin="round"/>
<path d="M21.5 16.3C21.5 14.7255 22.7587 13.45 24.3125 13.45C25.8663 13.45 27.125 14.7255 27.125 16.3C27.125 16.642 27.0562 16.965 26.9475 17.2677C27.0075 17.2639 27.065 17.25 27.125 17.25C28.6788 17.25 29.9375 18.5255 29.9375 20.1C29.9375 20.8334 29.6563 21.4946 29.2075 22C29.6563 22.5054 29.9375 23.1666 29.9375 23.9C29.9375 25.4744 28.6788 26.7499 27.125 26.7499C27.0638 26.7499 27.0075 26.736 26.9475 26.7322C27.0562 27.0362 27.125 27.3592 27.125 27.6999C27.125 29.2744 25.8663 30.5499 24.3125 30.5499C22.7587 30.5499 21.5 29.2744 21.5 27.6999" stroke="#F5E2FF" stroke-width="1.5" stroke-linecap="round" stroke-linejoin="round"/>
<path d="M26.9475 26.7323C26.5012 26.7044 26.0837 26.5765 25.7188 26.3662" stroke="#F5E2FF" stroke-width="1.5" stroke-linecap="round" stroke-linejoin="round"/>
<path d="M19 24.5334C20.0355 24.5334 20.875 23.6827 20.875 22.6334C20.875 21.5841 20.0355 20.7334 19 20.7334C17.9645 20.7334 17.125 21.5841 17.125 22.6334C17.125 23.6827 17.9645 24.5334 19 24.5334Z" fill="#F5E2FF"/>
<path d="M24 23.2666C25.0355 23.2666 25.875 22.4159 25.875 21.3666C25.875 20.3172 25.0355 19.4666 24 19.4666C22.9645 19.4666 22.125 20.3172 22.125 21.3666C22.125 22.4159 22.9645 23.2666 24 23.2666Z" fill="#F5E2FF"/>
</g>
<defs>
<linearGradient id="paint0_linear_13_504" x1="0" y1="22" x2="43" y2="22" gradientUnits="userSpaceOnUse">
<stop stop-color="#333693"/>
<stop offset="1" stop-color="#181946"/>
</linearGradient>
<clipPath id="clip0_13_504">
<rect width="20" height="19" fill="white" transform="translate(11.5 12.5)"/>
</clipPath>
</defs>
</svg>
