<svg width="215" height="44" viewBox="0 0 215 44" fill="none" xmlns="http://www.w3.org/2000/svg">
<rect y="0.5" width="215" height="43" rx="8" fill="url(#paint0_linear_13_994)"/>
<path d="M16.5733 27.5V16.3H19.2267V27.5H16.5733ZM31.6235 27.5L30.9302 25.62H25.4102L24.7169 27.5H21.9702L26.3035 16.3H30.0369L34.3835 27.5H31.6235ZM26.1569 23.6067H30.1835L28.4235 18.82H27.9169L26.1569 23.6067ZM42.4952 27.5V16.3H51.9219V18.4733H45.1485V20.9267H51.6819V22.8467H45.1485V25.3133H51.9219V27.5H42.4952ZM69.7017 27.5L69.0083 25.62H63.4883L62.795 27.5H60.0483L64.3817 16.3H68.115L72.4617 27.5H69.7017ZM64.235 23.6067H68.2617L66.5017 18.82H65.995L64.235 23.6067ZM79.8327 27.8733C76.3794 27.8733 74.4327 26.2467 74.4327 22.8333V16.3H77.1127V22.7667C77.1127 24.5533 78.006 25.6333 79.8327 25.6333C81.6594 25.6333 82.566 24.5533 82.566 22.7667V16.3H85.2327V22.8333C85.2327 26.2467 83.286 27.8733 79.8327 27.8733ZM99.3569 16.3V18.5267H95.1569V27.5H92.4902V18.5267H88.3035V16.3H99.3569ZM107.504 27.8733C103.851 27.8733 101.358 25.42 101.358 21.9C101.358 18.38 103.851 15.9267 107.504 15.9267C111.171 15.9267 113.664 18.38 113.664 21.9C113.664 25.42 111.171 27.8733 107.504 27.8733ZM107.504 25.5667C109.504 25.5667 111.024 24.1 111.024 21.9C111.024 19.7 109.504 18.2333 107.504 18.2333C105.518 18.2333 103.984 19.7 103.984 21.9C103.984 24.1 105.518 25.5667 107.504 25.5667ZM116.605 27.5V16.3H120.005L122.778 24.1533H122.978L125.751 16.3H129.151V27.5H126.605V20.7533H126.378L123.911 27.5H121.845L119.378 20.7533H119.151V27.5H116.605ZM141.545 27.5L140.852 25.62H135.332L134.639 27.5H131.892L136.225 16.3H139.959L144.305 27.5H141.545ZM136.079 23.6067H140.105L138.345 18.82H137.839L136.079 23.6067ZM151.96 25.5667C153.346 25.5667 154.453 24.9267 154.933 23.4733H157.48C156.96 26.5933 154.706 27.74 152.373 27.86L152.186 28.02C152.906 28.0733 153.653 28.5267 153.653 29.4867C153.653 30.8333 152.16 31.3 150.586 30.9933V29.8333C151.613 30.0333 152.066 29.78 152.066 29.5133C152.066 29.22 151.613 28.9 150.586 29.1933V28.38L151.213 27.8333C148 27.5267 145.826 25.18 145.826 21.9C145.826 18.38 148.333 15.9267 151.96 15.9267C154.413 15.9267 156.933 17.02 157.48 20.3133H154.933C154.453 18.8733 153.346 18.2333 151.96 18.2333C149.973 18.2333 148.453 19.74 148.453 21.9C148.453 24.0467 149.973 25.5667 151.96 25.5667ZM167.586 15.62C166.493 15.62 165.933 14.7267 165.106 14.7267C164.64 14.7267 164.373 14.9667 164.32 15.3533H163.426C163.293 13.9667 164.226 13.38 165.253 13.38C166.36 13.38 166.92 14.2733 167.746 14.2733C168.213 14.2733 168.48 14.02 168.533 13.6467H169.413C169.546 15.02 168.626 15.62 167.586 15.62ZM166.426 27.8733C162.773 27.8733 160.28 25.42 160.28 21.9C160.28 18.38 162.773 15.9267 166.426 15.9267C170.093 15.9267 172.586 18.38 172.586 21.9C172.586 25.42 170.093 27.8733 166.426 27.8733ZM166.426 25.5667C168.426 25.5667 169.946 24.1 169.946 21.9C169.946 19.7 168.426 18.2333 166.426 18.2333C164.44 18.2333 162.906 19.7 162.906 21.9C162.906 24.1 164.44 25.5667 166.426 25.5667ZM175.526 27.5V16.3H184.953V18.4733H178.18V20.9267H184.713V22.8467H178.18V25.3133H184.953V27.5H175.526ZM192.991 27.8733C189.578 27.8733 187.778 26.66 187.791 24.0333H190.191C190.284 25.0867 191.151 25.7533 192.991 25.7667C194.724 25.7667 195.671 25.18 195.671 24.3C195.671 23.5267 195.044 23.14 193.711 22.9133L192.324 22.6733C190.204 22.3 188.098 21.74 188.098 19.3C188.098 17.18 189.884 15.9267 193.018 15.9267C195.938 15.9267 197.964 16.9533 197.991 19.7267H195.604C195.431 18.7133 194.644 18.0333 192.964 18.0333C191.444 18.0333 190.644 18.5533 190.644 19.42C190.644 20.1 191.191 20.5267 192.338 20.74L193.551 20.9533C195.684 21.34 198.311 21.7 198.311 24.38C198.311 26.6067 196.484 27.8733 192.991 27.8733Z" fill="#F8F8F8"/>
<defs>
<linearGradient id="paint0_linear_13_994" x1="215" y1="22" x2="0" y2="22" gradientUnits="userSpaceOnUse">
<stop stop-color="#575AC0"/>
<stop offset="1" stop-color="#333693"/>
</linearGradient>
</defs>
</svg>
