<svg width="600" height="57" viewBox="0 0 600 57" fill="none" xmlns="http://www.w3.org/2000/svg">
<path d="M8.84 22.06C2.82 22.04 0.08 20.24 0.26 15.74H5.68C5.72 16.74 6.56 17.32 8.84 17.36C10.8 17.38 11.64 16.86 11.64 16.26C11.64 15.94 11.56 15.38 10.04 15.18L7.84 14.84C4.68 14.34 0.64 14.12 0.64 9.6C0.64 6.22 3.34 4.14 8.9 4.14C13.86 4.14 17.32 5.42 17.18 10.42H11.78C11.6 9.44 10.74 8.84 8.76 8.84C7.06 8.84 6.44 9.32 6.44 9.92C6.44 10.2 6.58 10.76 7.72 10.94L9.48 11.22C12.86 11.78 17.66 11.72 17.66 16.52C17.66 20.28 14.78 22.08 8.84 22.06ZM18.6131 21.5V4.7H34.0731V9.52H24.6531V11.16H33.7131V15.04H24.6531V16.66H34.0731V21.5H18.6131ZM44.2944 22.06C38.3144 22.06 35.3944 19.58 35.3944 14.06V4.7H41.4944V13.92C41.4944 15.8 42.2744 17 44.2944 17C46.3144 17 47.1344 15.8 47.1344 13.92V4.7H53.1944V14.02C53.1944 19.58 50.2744 22.06 44.2944 22.06ZM59.7459 21.5V4.7H66.6659L71.5059 13.04H72.0659V4.7H77.9659V21.5H71.1859L66.1859 13.16H65.6459V21.5H59.7459ZM79.2694 21.5V4.7H94.7294V9.52H85.3094V11.16H94.3694V15.04H85.3094V16.66H94.7294V21.5H79.2694ZM114.12 12.08V21.5H111L110.92 19.42H110.86C109.68 20.94 107.62 22.06 104.7 22.06C99.5197 22.06 95.5397 18.52 95.5397 13.1C95.5397 7.68 99.2997 4.14 105.24 4.14C109.32 4.14 113.52 6.12 114.1 10.74H108.08C107.84 10.14 106.9 9.36 105.38 9.36C103.12 9.36 101.54 10.78 101.54 13.1C101.54 15.4 103.16 16.84 105.2 16.84C105.76 16.84 107.72 16.78 108.3 15.02H104.98V12.08H114.12ZM122.107 3.62L123.567 0.039999H128.907L127.447 3.62H122.107ZM124.827 22.06C118.967 22.06 115.227 18.52 115.227 13.1C115.227 7.68 118.967 4.14 124.827 4.14C130.707 4.14 134.447 7.68 134.447 13.1C134.447 18.52 130.707 22.06 124.827 22.06ZM124.827 16.84C126.767 16.84 128.427 15.54 128.427 13.1C128.427 10.66 126.767 9.36 124.827 9.36C122.907 9.36 121.227 10.66 121.227 13.1C121.227 15.54 122.907 16.84 124.827 16.84ZM144.903 22.06C139.163 22.06 135.383 18.52 135.383 13.1C135.383 7.68 139.163 4.14 144.903 4.14C149.123 4.14 153.483 6 153.943 11.92H148.183C147.803 10.18 146.623 9.36 144.903 9.36C142.963 9.36 141.383 10.78 141.383 13.1C141.383 15.4 142.963 16.84 144.903 16.84C146.623 16.84 147.803 16.02 148.183 14.24H153.943C153.483 20.2 149.183 22.06 144.903 22.06ZM154.972 21.5V4.7H161.013V21.5H154.972ZM171.632 22.06C165.772 22.06 162.032 18.52 162.032 13.1C162.032 7.68 165.772 4.14 171.632 4.14C177.512 4.14 181.252 7.68 181.252 13.1C181.252 18.52 177.512 22.06 171.632 22.06ZM171.632 16.84C173.572 16.84 175.232 15.54 175.232 13.1C175.232 10.66 173.572 9.36 171.632 9.36C169.712 9.36 168.032 10.66 168.032 13.1C168.032 15.54 169.712 16.84 171.632 16.84ZM187.527 21.5V4.7H202.987V9.52H193.567V11.16H202.627V15.04H193.567V16.66H202.987V21.5H187.527ZM212.512 22.06C206.492 22.04 203.752 20.24 203.932 15.74H209.352C209.392 16.74 210.232 17.32 212.512 17.36C214.472 17.38 215.312 16.86 215.312 16.26C215.312 15.94 215.232 15.38 213.712 15.18L211.512 14.84C208.352 14.34 204.312 14.12 204.312 9.6C204.312 6.22 207.012 4.14 212.572 4.14C217.532 4.14 220.992 5.42 220.852 10.42H215.452C215.272 9.44 214.412 8.84 212.432 8.84C210.732 8.84 210.112 9.32 210.112 9.92C210.112 10.2 210.252 10.76 211.392 10.94L213.152 11.22C216.532 11.78 221.332 11.72 221.332 16.52C221.332 20.28 218.452 22.08 212.512 22.06ZM239.653 4.7V9.74H233.693V21.5H227.633V9.74H221.693V4.7H239.653ZM251.229 0.119999L249.769 3.7H244.429L245.889 0.119999H251.229ZM251.209 21.5L250.569 19.48H243.729L243.089 21.5H236.849L242.909 4.7H251.389L257.469 21.5H251.209ZM245.149 15.02H249.149L247.669 10.38H246.629L245.149 15.02ZM263.418 21.5V4.7H273.198C277.818 4.7 280.638 6.7 280.638 11.4C280.638 16.08 277.818 18.08 273.218 18.08H269.458V21.5H263.418ZM269.458 13.06H272.658C273.778 13.06 274.518 12.5 274.518 11.4C274.518 10.28 273.778 9.72 272.678 9.72H269.458V13.06ZM299.646 21.5H293.706L291.586 17.38H287.786V21.5H281.746V4.7H291.626C296.346 4.7 299.026 6.66 299.026 11.26C299.026 13.46 298.066 15.06 296.726 16.06L299.646 21.5ZM287.786 9.72V12.88H291.186C292.386 12.88 292.966 12.28 292.966 11.3C292.966 10.32 292.386 9.72 291.186 9.72H287.786ZM309.491 22.06C303.631 22.06 299.891 18.52 299.891 13.1C299.891 7.68 303.631 4.14 309.491 4.14C315.371 4.14 319.111 7.68 319.111 13.1C319.111 18.52 315.371 22.06 309.491 22.06ZM309.491 16.84C311.431 16.84 313.091 15.54 313.091 13.1C313.091 10.66 311.431 9.36 309.491 9.36C307.571 9.36 305.891 10.66 305.891 13.1C305.891 15.54 307.571 16.84 309.491 16.84ZM320.137 21.5V4.7H327.057L331.897 13.04H332.457V4.7H338.357V21.5H331.577L326.577 13.16H326.037V21.5H320.137ZM357.52 4.7V9.74H351.56V21.5H345.5V9.74H339.56V4.7H357.52ZM367.241 22.06C361.381 22.06 357.641 18.52 357.641 13.1C357.641 7.68 361.381 4.14 367.241 4.14C373.121 4.14 376.861 7.68 376.861 13.1C376.861 18.52 373.121 22.06 367.241 22.06ZM367.241 16.84C369.181 16.84 370.841 15.54 370.841 13.1C370.841 10.66 369.181 9.36 367.241 9.36C365.321 9.36 363.641 10.66 363.641 13.1C363.641 15.54 365.321 16.84 367.241 16.84ZM383.137 21.5V4.7H392.917C397.537 4.7 400.357 6.7 400.357 11.4C400.357 16.08 397.537 18.08 392.937 18.08H389.177V21.5H383.137ZM389.177 13.06H392.377C393.497 13.06 394.237 12.5 394.237 11.4C394.237 10.28 393.497 9.72 392.397 9.72H389.177V13.06ZM413.162 21.5L412.522 19.48H405.682L405.042 21.5H398.802L404.862 4.7H413.342L419.422 21.5H413.162ZM407.102 15.02H411.102L409.622 10.38H408.582L407.102 15.02ZM438.021 21.5H432.081L429.961 17.38H426.161V21.5H420.121V4.7H430.001C434.721 4.7 437.401 6.66 437.401 11.26C437.401 13.46 436.441 15.06 435.101 16.06L438.021 21.5ZM426.161 9.72V12.88H429.561C430.761 12.88 431.341 12.28 431.341 11.3C431.341 10.32 430.761 9.72 429.561 9.72H426.161ZM452.514 21.5L451.874 19.48H445.034L444.394 21.5H438.154L444.214 4.7H452.694L458.774 21.5H452.514ZM446.454 15.02H450.454L448.974 10.38H447.934L446.454 15.02ZM473.943 22.06C468.202 22.06 464.423 18.52 464.423 13.1C464.423 7.68 468.202 4.14 473.943 4.14C478.163 4.14 482.523 6 482.983 11.92H477.223C476.843 10.18 475.663 9.36 473.943 9.36C472.003 9.36 470.423 10.78 470.423 13.1C470.423 15.4 472.003 16.84 473.943 16.84C475.663 16.84 476.843 16.02 477.223 14.24H482.983C482.523 20.2 478.223 22.06 473.943 22.06ZM501.912 21.5H495.972L493.852 17.38H490.052V21.5H484.012V4.7H493.892C498.612 4.7 501.292 6.66 501.292 11.26C501.292 13.46 500.332 15.06 498.992 16.06L501.912 21.5ZM490.052 9.72V12.88H493.452C494.652 12.88 495.232 12.28 495.232 11.3C495.232 10.32 494.652 9.72 493.452 9.72H490.052ZM502.949 21.5V4.7H518.409V9.52H508.989V11.16H518.049V15.04H508.989V16.66H518.409V21.5H502.949ZM527.934 22.06C521.914 22.04 519.174 20.24 519.354 15.74H524.774C524.814 16.74 525.654 17.32 527.934 17.36C529.894 17.38 530.734 16.86 530.734 16.26C530.734 15.94 530.654 15.38 529.134 15.18L526.934 14.84C523.774 14.34 519.734 14.12 519.734 9.6C519.734 6.22 522.434 4.14 527.994 4.14C532.954 4.14 536.414 5.42 536.274 10.42H530.874C530.694 9.44 529.834 8.84 527.854 8.84C526.154 8.84 525.534 9.32 525.534 9.92C525.534 10.2 525.674 10.76 526.814 10.94L528.574 11.22C531.954 11.78 536.754 11.72 536.754 16.52C536.754 20.28 533.874 22.08 527.934 22.06ZM546.927 22.06C541.187 22.06 537.407 18.52 537.407 13.1C537.407 7.68 541.187 4.14 546.927 4.14C551.147 4.14 555.507 6 555.967 11.92H550.207C549.827 10.18 548.647 9.36 546.927 9.36C544.987 9.36 543.407 10.78 543.407 13.1C543.407 15.4 544.987 16.84 546.927 16.84C548.647 16.84 549.827 16.02 550.207 14.24H555.967C555.507 20.2 551.207 22.06 546.927 22.06ZM556.996 21.5V4.7H572.456V9.52H563.036V11.16H572.096V15.04H563.036V16.66H572.456V21.5H556.996ZM591.677 21.5H585.737L583.617 17.38H579.817V21.5H573.777V4.7H583.657C588.377 4.7 591.057 6.66 591.057 11.26C591.057 13.46 590.097 15.06 588.757 16.06L591.677 21.5ZM579.817 9.72V12.88H583.217C584.417 12.88 584.997 12.28 584.997 11.3C584.997 10.32 584.417 9.72 583.217 9.72H579.817ZM594.655 26.32C594.855 24.72 594.915 22.84 594.895 21.5H592.615V16.46H599.615V17.54C599.615 22.5 598.855 25.4 598.355 26.32H594.655ZM0.66 50.5V33.7H8.26L10.52 42.54H10.96L13.22 33.7H20.82V50.5H15.06V43.94H14.6L12.96 50.5H8.52L6.88 43.94H6.42V50.5H0.66ZM35.8888 50.5L35.2487 48.48H28.4087L27.7688 50.5H21.5287L27.5887 33.7H36.0688L42.1488 50.5H35.8888ZM29.8287 44.02H33.8287L32.3488 39.38H31.3087L29.8287 44.02ZM50.3009 51.06C44.2809 51.04 41.5409 49.24 41.7209 44.74H47.1409C47.1809 45.74 48.0209 46.32 50.3009 46.36C52.2609 46.38 53.1009 45.86 53.1009 45.26C53.1009 44.94 53.0209 44.38 51.5009 44.18L49.3009 43.84C46.1409 43.34 42.1009 43.12 42.1009 38.6C42.1009 35.22 44.8009 33.14 50.3609 33.14C55.3209 33.14 58.7809 34.42 58.6409 39.42H53.2409C53.0609 38.44 52.2009 37.84 50.2209 37.84C48.5209 37.84 47.9009 38.32 47.9009 38.92C47.9009 39.2 48.0409 39.76 49.1809 39.94L50.9409 40.22C54.3209 40.78 59.1209 40.72 59.1209 45.52C59.1209 49.28 56.2409 51.08 50.3009 51.06ZM73.5041 51.06C67.4841 51.04 64.7441 49.24 64.9241 44.74H70.3441C70.3841 45.74 71.2241 46.32 73.5041 46.36C75.4641 46.38 76.3041 45.86 76.3041 45.26C76.3041 44.94 76.2241 44.38 74.7041 44.18L72.5041 43.84C69.3441 43.34 65.3041 43.12 65.3041 38.6C65.3041 35.22 68.0041 33.14 73.5641 33.14C78.5241 33.14 81.9841 34.42 81.8441 39.42H76.4441C76.2641 38.44 75.4041 37.84 73.4241 37.84C71.7241 37.84 71.1041 38.32 71.1041 38.92C71.1041 39.2 71.2441 39.76 72.3841 39.94L74.1441 40.22C77.5241 40.78 82.3241 40.72 82.3241 45.52C82.3241 49.28 79.4441 51.08 73.5041 51.06ZM92.1772 51.06C86.1972 51.06 83.2772 48.58 83.2772 43.06V33.7H89.3772V42.92C89.3772 44.8 90.1572 46 92.1772 46C94.1972 46 95.0172 44.8 95.0172 42.92V33.7H101.077V43.02C101.077 48.58 98.1572 51.06 92.1772 51.06ZM114.779 50.5L114.139 48.48H107.299L106.659 50.5H100.419L106.479 33.7H114.959L121.039 50.5H114.779ZM108.719 44.02H112.719L111.239 39.38H110.199L108.719 44.02ZM136.288 51.06C130.428 51.06 126.688 47.52 126.688 42.1C126.688 36.68 130.428 33.14 136.288 33.14C142.168 33.14 145.908 36.68 145.908 42.1C145.908 47.52 142.168 51.06 136.288 51.06ZM136.288 45.84C138.228 45.84 139.888 44.54 139.888 42.1C139.888 39.66 138.228 38.36 136.288 38.36C134.368 38.36 132.688 39.66 132.688 42.1C132.688 44.54 134.368 45.84 136.288 45.84ZM146.933 50.5V33.7H156.713C161.333 33.7 164.153 35.7 164.153 40.4C164.153 45.08 161.333 47.08 156.733 47.08H152.973V50.5H146.933ZM152.973 42.06H156.173C157.293 42.06 158.033 41.5 158.033 40.4C158.033 39.28 157.293 38.72 156.193 38.72H152.973V42.06ZM165.262 50.5V33.7H180.722V38.52H171.302V40.16H180.362V44.04H171.302V45.66H180.722V50.5H165.262ZM199.943 50.5H194.003L191.883 46.38H188.083V50.5H182.043V33.7H191.923C196.643 33.7 199.323 35.66 199.323 40.26C199.323 42.46 198.363 44.06 197.023 45.06L199.943 50.5ZM188.083 38.72V41.88H191.483C192.683 41.88 193.263 41.28 193.263 40.3C193.263 39.32 192.683 38.72 191.483 38.72H188.083ZM214.436 50.5L213.796 48.48H206.956L206.316 50.5H200.076L206.136 33.7H214.616L220.696 50.5H214.436ZM208.376 44.02H212.376L210.896 39.38H209.856L208.376 44.02ZM228.997 45.84C230.717 45.84 231.897 45.02 232.277 43.24H238.037C237.597 48.84 233.777 50.82 229.757 51.04L229.597 51.16C230.717 51.24 231.977 51.92 231.977 53.48C231.977 55.64 229.497 56.46 226.617 55.88V53.66C228.277 54.02 228.837 53.7 228.837 53.58C228.837 53.4 228.277 52.94 226.617 53.34V51.98L227.917 51.02C222.797 50.6 219.477 47.18 219.477 42.1C219.477 36.68 223.257 33.14 228.997 33.14C233.217 33.14 237.577 35 238.037 40.92H232.277C231.897 39.18 230.717 38.36 228.997 38.36C227.057 38.36 225.477 39.78 225.477 42.1C225.477 44.4 227.057 45.84 228.997 45.84ZM244.021 32.6H242.461C242.021 30 243.881 28.92 245.681 28.92C247.281 28.92 248.361 30.02 249.681 30.02C250.401 30.02 250.881 29.66 250.941 29.06H252.481C252.921 31.64 251.081 32.74 249.261 32.74C247.661 32.74 246.601 31.64 245.281 31.64C244.561 31.64 244.081 31.98 244.021 32.6ZM251.561 50.5L250.921 48.48H244.081L243.441 50.5H237.201L243.261 33.7H251.741L257.821 50.5H251.561ZM245.501 44.02H249.501L248.021 39.38H246.981L245.501 44.02ZM266.202 51.06C260.342 51.06 256.602 47.52 256.602 42.1C256.602 36.68 260.342 33.14 266.202 33.14C272.082 33.14 275.822 36.68 275.822 42.1C275.822 47.52 272.082 51.06 266.202 51.06ZM266.202 45.84C268.142 45.84 269.802 44.54 269.802 42.1C269.802 39.66 268.142 38.36 266.202 38.36C264.282 38.36 262.602 39.66 262.602 42.1C262.602 44.54 264.282 45.84 266.202 45.84ZM282.097 50.5V33.7H289.017L293.857 42.04H294.418V33.7H300.318V50.5H293.537L288.538 42.16H287.998V50.5H282.097ZM307.841 32.6H306.281C305.841 30 307.701 28.92 309.501 28.92C311.101 28.92 312.181 30.02 313.501 30.02C314.221 30.02 314.701 29.66 314.761 29.06H316.301C316.741 31.64 314.901 32.74 313.081 32.74C311.481 32.74 310.421 31.64 309.101 31.64C308.381 31.64 307.901 31.98 307.841 32.6ZM315.381 50.5L314.741 48.48H307.901L307.261 50.5H301.021L307.081 33.7H315.561L321.641 50.5H315.381ZM309.321 44.02H313.321L311.841 39.38H310.801L309.321 44.02ZM330.023 51.06C324.163 51.06 320.423 47.52 320.423 42.1C320.423 36.68 324.163 33.14 330.023 33.14C335.903 33.14 339.642 36.68 339.642 42.1C339.642 47.52 335.903 51.06 330.023 51.06ZM330.023 45.84C331.963 45.84 333.622 44.54 333.622 42.1C333.622 39.66 331.963 38.36 330.023 38.36C328.103 38.36 326.423 39.66 326.423 42.1C326.423 44.54 328.103 45.84 330.023 45.84ZM359.678 50.5L359.038 48.48H352.198L351.558 50.5H345.318L351.378 33.7H359.858L365.938 50.5H359.678ZM353.618 44.02H357.618L356.138 39.38H355.098L353.618 44.02ZM374.239 51.06C368.499 51.06 364.719 47.52 364.719 42.1C364.719 36.68 368.499 33.14 374.239 33.14C378.459 33.14 382.819 35 383.279 40.92H377.519C377.139 39.18 375.959 38.36 374.239 38.36C372.299 38.36 370.719 39.78 370.719 42.1C370.719 44.4 372.299 45.84 374.239 45.84C375.959 45.84 377.139 45.02 377.519 43.24H383.279C382.819 49.2 378.519 51.06 374.239 51.06ZM393.866 51.06C388.006 51.06 384.266 47.52 384.266 42.1C384.266 36.68 388.006 33.14 393.866 33.14C399.746 33.14 403.486 36.68 403.486 42.1C403.486 47.52 399.746 51.06 393.866 51.06ZM393.866 45.84C395.806 45.84 397.466 44.54 397.466 42.1C397.466 39.66 395.806 38.36 393.866 38.36C391.946 38.36 390.266 39.66 390.266 42.1C390.266 44.54 391.946 45.84 393.866 45.84ZM404.512 50.5V33.7H412.112L414.372 42.54H414.812L417.072 33.7H424.672V50.5H418.912V43.94H418.452L416.812 50.5H412.372L410.732 43.94H410.272V50.5H404.512ZM425.98 50.5V33.7H435.76C440.38 33.7 443.2 35.7 443.2 40.4C443.2 45.08 440.38 47.08 435.78 47.08H432.02V50.5H425.98ZM432.02 42.06H435.22C436.34 42.06 437.08 41.5 437.08 40.4C437.08 39.28 436.34 38.72 435.24 38.72H432.02V42.06ZM456.006 50.5L455.366 48.48H448.526L447.886 50.5H441.646L447.706 33.7H456.186L462.266 50.5H456.006ZM449.946 44.02H453.946L452.466 39.38H451.426L449.946 44.02ZM462.965 50.5V33.7H469.885L474.725 42.04H475.285V33.7H481.185V50.5H474.405L469.405 42.16H468.865V50.5H462.965ZM494.448 33.7H500.508V50.5H494.448V44.64H488.528V50.5H482.488V33.7H488.528V39.56H494.448V33.7ZM515.561 50.5L514.921 48.48H508.081L507.441 50.5H501.201L507.261 33.7H515.741L521.821 50.5H515.561ZM509.501 44.02H513.501L512.021 39.38H510.981L509.501 44.02ZM527.259 44.14C526.619 39.66 531.939 40.94 531.939 39.08C531.939 38.46 531.139 38.06 529.999 38.06C529.099 38.06 527.579 38.24 527.579 40.02H522.119C521.879 35.44 524.799 33.26 529.959 33.26C534.739 33.26 537.959 34.8 537.959 38.36C537.959 42.9 533.159 41.52 533.099 44.14H527.259ZM530.159 50.82C528.559 50.82 527.199 49.48 527.199 47.9C527.199 46.3 528.559 44.96 530.159 44.96C531.779 44.96 533.139 46.3 533.139 47.9C533.139 49.48 531.779 50.82 530.159 50.82Z" fill="#F8F8F8"/>
</svg>
