<svg width="234" height="43" viewBox="0 0 234 43" fill="none" xmlns="http://www.w3.org/2000/svg">
<rect width="234" height="43" rx="8" fill="url(#paint0_linear_13_711)"/>
<path d="M16.43 18.5V10.1H18.42V18.5H16.43ZM21.2777 18.5V10.1H23.8277L25.9077 15.99H26.0577L28.1377 10.1H30.6877V18.5H28.7777V13.44H28.6077L26.7577 18.5H25.2077L23.3577 13.44H23.1877V18.5H21.2777ZM33.5433 18.5V10.1H37.9333C40.1733 10.1 41.3933 11.17 41.3933 13.18C41.3933 15.18 40.1733 16.25 37.9333 16.25H35.5333V18.5H33.5433ZM35.5333 14.58H37.8033C38.7833 14.58 39.3933 14.11 39.3933 13.18C39.3933 12.24 38.7833 11.77 37.8033 11.77H35.5333V14.58ZM44.1448 18.5V10.1H46.1348V16.83H50.9748V18.5H44.1448ZM60.5848 18.5L60.0648 17.09H55.9248L55.4048 18.5H53.3448L56.5948 10.1H59.3948L62.6548 18.5H60.5848ZM56.4848 15.58H59.5048L58.1848 11.99H57.8048L56.4848 15.58ZM65.2073 18.5V10.1H67.5173L71.4173 15.75H71.6073V10.1H73.5573V18.5H71.2873L67.3373 12.85H67.1573V18.5H65.2073ZM84.6466 10.1V11.77H81.4966V18.5H79.4966V11.77H76.3566V10.1H84.6466ZM92.6825 18.5L92.1625 17.09H88.0225L87.5025 18.5H85.4425L88.6925 10.1H91.4925L94.7525 18.5H92.6825ZM88.5825 15.58H91.6025L90.2825 11.99H89.9025L88.5825 15.58ZM100.993 17.05C102.033 17.05 102.863 16.57 103.223 15.48H105.133C104.743 17.82 103.053 18.68 101.303 18.77L101.163 18.89C101.703 18.93 102.263 19.27 102.263 19.99C102.263 21 101.143 21.35 99.9633 21.12V20.25C100.733 20.4 101.073 20.21 101.073 20.01C101.073 19.79 100.733 19.55 99.9633 19.77V19.16L100.433 18.75C98.0233 18.52 96.3933 16.76 96.3933 14.3C96.3933 11.66 98.2733 9.82 100.993 9.82C102.833 9.82 104.723 10.64 105.133 13.11H103.223C102.863 12.03 102.033 11.55 100.993 11.55C99.5033 11.55 98.3633 12.68 98.3633 14.3C98.3633 15.91 99.5033 17.05 100.993 17.05ZM110.091 9.43H109.421C109.321 8.39 110.021 7.95 110.791 7.95C111.621 7.95 112.041 8.62 112.661 8.62C113.011 8.62 113.211 8.43 113.251 8.15H113.911C114.011 9.18 113.321 9.63 112.541 9.63C111.721 9.63 111.301 8.96 110.681 8.96C110.331 8.96 110.131 9.14 110.091 9.43ZM114.261 18.5L113.741 17.09H109.601L109.081 18.5H107.021L110.271 10.1H113.071L116.331 18.5H114.261ZM110.161 15.58H113.181L111.861 11.99H111.481L110.161 15.58ZM122.581 18.78C119.841 18.78 117.971 16.94 117.971 14.3C117.971 11.66 119.841 9.82 122.581 9.82C125.331 9.82 127.201 11.66 127.201 14.3C127.201 16.94 125.331 18.78 122.581 18.78ZM122.581 17.05C124.081 17.05 125.221 15.95 125.221 14.3C125.221 12.65 124.081 11.55 122.581 11.55C121.091 11.55 119.941 12.65 119.941 14.3C119.941 15.95 121.091 17.05 122.581 17.05ZM138.298 10.1C141.558 10.1 142.798 11.91 142.798 14.3C142.798 16.69 141.558 18.5 138.298 18.5H134.438V10.1H138.298ZM138.288 16.82C139.918 16.82 140.798 15.92 140.798 14.3C140.798 12.68 139.918 11.78 138.288 11.78H136.448L136.428 16.82H138.288ZM145.543 18.5V10.1H152.613V11.73H147.533V13.57H152.433V15.01H147.533V16.86H152.613V18.5H145.543ZM164.458 18.78C161.738 18.78 159.858 16.94 159.858 14.3C159.858 11.66 161.738 9.82 164.458 9.82C166.298 9.82 168.188 10.64 168.598 13.11H166.688C166.328 12.03 165.498 11.55 164.458 11.55C162.968 11.55 161.828 12.68 161.828 14.3C161.828 15.91 162.968 17.05 164.458 17.05C165.498 17.05 166.328 16.57 166.688 15.48H168.598C168.188 17.96 166.318 18.78 164.458 18.78ZM179.373 18.5H177.393L176.013 16H173.303V18.5H171.313V10.1H175.723C177.973 10.1 179.163 11.15 179.163 13.11C179.163 14.28 178.593 15.13 177.733 15.6L179.373 18.5ZM173.303 11.77V14.47H175.613C176.623 14.47 177.183 14.01 177.183 13.12C177.183 12.23 176.623 11.77 175.613 11.77H173.303ZM182.043 18.5V10.1H184.593L186.673 15.99H186.823L188.903 10.1H191.453V18.5H189.543V13.44H189.373L187.523 18.5H185.973L184.123 13.44H183.953V18.5H182.043ZM198.84 18.5V10.1H205.91V11.73H200.83V13.57H205.73V15.01H200.83V16.86H205.91V18.5H198.84ZM16.43 32.5V24.1H20.82C23.06 24.1 24.28 25.17 24.28 27.18C24.28 29.18 23.06 30.25 20.82 30.25H18.42V32.5H16.43ZM18.42 28.58H20.69C21.67 28.58 22.28 28.11 22.28 27.18C22.28 26.24 21.67 25.77 20.69 25.77H18.42V28.58ZM35.0916 32.5H33.1116L31.7316 30H29.0216V32.5H27.0316V24.1H31.4416C33.6916 24.1 34.8816 25.15 34.8816 27.11C34.8816 28.28 34.3116 29.13 33.4516 29.6L35.0916 32.5ZM29.0216 25.77V28.47H31.3316C32.3416 28.47 32.9016 28.01 32.9016 27.12C32.9016 26.23 32.3416 25.77 31.3316 25.77H29.0216ZM41.9759 32.78C39.2359 32.78 37.3659 30.94 37.3659 28.3C37.3659 25.66 39.2359 23.82 41.9759 23.82C44.7259 23.82 46.5959 25.66 46.5959 28.3C46.5959 30.94 44.7259 32.78 41.9759 32.78ZM41.9759 31.05C43.4759 31.05 44.6159 29.95 44.6159 28.3C44.6159 26.65 43.4759 25.55 41.9759 25.55C40.4859 25.55 39.3359 26.65 39.3359 28.3C39.3359 29.95 40.4859 31.05 41.9759 31.05ZM53.8097 32.78C51.0897 32.78 49.2097 30.94 49.2097 28.3C49.2097 25.66 51.0897 23.82 53.8097 23.82C55.6497 23.82 57.5397 24.64 57.9497 27.11H56.0397C55.6797 26.03 54.8497 25.55 53.8097 25.55C52.3197 25.55 51.1797 26.68 51.1797 28.3C51.1797 29.91 52.3197 31.05 53.8097 31.05C54.8497 31.05 55.6797 30.57 56.0397 29.48H57.9497C57.5397 31.96 55.6697 32.78 53.8097 32.78ZM60.6644 32.5V24.1H67.7344V25.73H62.6544V27.57H67.5544V29.01H62.6544V30.86H67.7344V32.5H60.6644ZM74.2628 32.78C71.7028 32.78 70.3528 31.87 70.3628 29.9H72.1628C72.2328 30.69 72.8828 31.19 74.2628 31.2C75.5628 31.2 76.2728 30.76 76.2728 30.1C76.2728 29.52 75.8028 29.23 74.8028 29.06L73.7628 28.88C72.1728 28.6 70.5928 28.18 70.5928 26.35C70.5928 24.76 71.9328 23.82 74.2828 23.82C76.4728 23.82 77.9928 24.59 78.0128 26.67H76.2228C76.0928 25.91 75.5028 25.4 74.2428 25.4C73.1028 25.4 72.5028 25.79 72.5028 26.44C72.5028 26.95 72.9128 27.27 73.7728 27.43L74.6828 27.59C76.2828 27.88 78.2528 28.15 78.2528 30.16C78.2528 31.83 76.8828 32.78 74.2628 32.78ZM84.6886 32.78C82.1286 32.78 80.7786 31.87 80.7886 29.9H82.5886C82.6586 30.69 83.3086 31.19 84.6886 31.2C85.9886 31.2 86.6986 30.76 86.6986 30.1C86.6986 29.52 86.2286 29.23 85.2286 29.06L84.1886 28.88C82.5986 28.6 81.0186 28.18 81.0186 26.35C81.0186 24.76 82.3586 23.82 84.7086 23.82C86.8986 23.82 88.4186 24.59 88.4386 26.67H86.6486C86.5186 25.91 85.9286 25.4 84.6686 25.4C83.5286 25.4 82.9286 25.79 82.9286 26.44C82.9286 26.95 83.3386 27.27 84.1986 27.43L85.1086 27.59C86.7086 27.88 88.6786 28.15 88.6786 30.16C88.6786 31.83 87.3086 32.78 84.6886 32.78ZM95.8158 32.78C93.0758 32.78 91.2058 30.94 91.2058 28.3C91.2058 25.66 93.0758 23.82 95.8158 23.82C98.5658 23.82 100.436 25.66 100.436 28.3C100.436 30.94 98.5658 32.78 95.8158 32.78ZM95.8158 31.05C97.3158 31.05 98.4558 29.95 98.4558 28.3C98.4558 26.65 97.3158 25.55 95.8158 25.55C94.3258 25.55 93.1758 26.65 93.1758 28.3C93.1758 29.95 94.3258 31.05 95.8158 31.05ZM106.794 32.78C104.234 32.78 102.884 31.87 102.894 29.9H104.694C104.764 30.69 105.414 31.19 106.794 31.2C108.094 31.2 108.804 30.76 108.804 30.1C108.804 29.52 108.334 29.23 107.334 29.06L106.294 28.88C104.704 28.6 103.124 28.18 103.124 26.35C103.124 24.76 104.464 23.82 106.814 23.82C109.004 23.82 110.524 24.59 110.544 26.67H108.754C108.624 25.91 108.034 25.4 106.774 25.4C105.634 25.4 105.034 25.79 105.034 26.44C105.034 26.95 105.444 27.27 106.304 27.43L107.214 27.59C108.814 27.88 110.784 28.15 110.784 30.16C110.784 31.83 109.414 32.78 106.794 32.78ZM122.442 32.78C119.723 32.78 117.843 30.94 117.843 28.3C117.843 25.66 119.723 23.82 122.442 23.82C124.283 23.82 126.173 24.64 126.582 27.11H124.673C124.312 26.03 123.483 25.55 122.442 25.55C120.952 25.55 119.812 26.68 119.812 28.3C119.812 29.91 120.952 31.05 122.442 31.05C123.483 31.05 124.312 30.57 124.673 29.48H126.582C126.173 31.96 124.303 32.78 122.442 32.78ZM133.792 32.78C131.052 32.78 129.182 30.94 129.182 28.3C129.182 25.66 131.052 23.82 133.792 23.82C136.542 23.82 138.412 25.66 138.412 28.3C138.412 30.94 136.542 32.78 133.792 32.78ZM133.792 31.05C135.292 31.05 136.432 29.95 136.432 28.3C136.432 26.65 135.292 25.55 133.792 25.55C132.302 25.55 131.152 26.65 131.152 28.3C131.152 29.95 132.302 31.05 133.792 31.05ZM141.117 32.5V24.1H143.668L145.748 29.99H145.898L147.978 24.1H150.527V32.5H148.618V27.44H148.448L146.598 32.5H145.048L143.198 27.44H143.028V32.5H141.117ZM153.383 32.5V24.1H160.453V25.73H155.373V27.57H160.273V29.01H155.373V30.86H160.453V32.5H153.383ZM171.377 32.5H169.397L168.017 30H165.307V32.5H163.317V24.1H167.727C169.977 24.1 171.167 25.15 171.167 27.11C171.167 28.28 170.597 29.13 169.737 29.6L171.377 32.5ZM165.307 25.77V28.47H167.617C168.627 28.47 169.187 28.01 169.187 27.12C169.187 26.23 168.627 25.77 167.617 25.77H165.307ZM178.251 32.78C175.531 32.78 173.651 30.94 173.651 28.3C173.651 25.66 175.531 23.82 178.251 23.82C180.091 23.82 181.981 24.64 182.391 27.11H180.481C180.121 26.03 179.291 25.55 178.251 25.55C176.761 25.55 175.621 26.68 175.621 28.3C175.621 29.91 176.761 31.05 178.251 31.05C179.291 31.05 180.121 30.57 180.481 29.48H182.391C181.981 31.96 180.111 32.78 178.251 32.78ZM185.106 32.5V24.1H187.096V32.5H185.106ZM196.893 32.5L196.373 31.09H192.233L191.713 32.5H189.653L192.903 24.1H195.703L198.963 32.5H196.893ZM192.793 29.58H195.813L194.493 25.99H194.113L192.793 29.58ZM201.516 32.5V24.1H203.506V32.5H201.516ZM210.064 32.78C207.504 32.78 206.154 31.87 206.164 29.9H207.964C208.034 30.69 208.684 31.19 210.064 31.2C211.364 31.2 212.074 30.76 212.074 30.1C212.074 29.52 211.604 29.23 210.604 29.06L209.564 28.88C207.974 28.6 206.394 28.18 206.394 26.35C206.394 24.76 207.734 23.82 210.084 23.82C212.274 23.82 213.794 24.59 213.814 26.67H212.024C211.894 25.91 211.304 25.4 210.044 25.4C208.904 25.4 208.304 25.79 208.304 26.44C208.304 26.95 208.714 27.27 209.574 27.43L210.484 27.59C212.084 27.88 214.054 28.15 214.054 30.16C214.054 31.83 212.684 32.78 210.064 32.78Z" fill="#F8F8F8"/>
<defs>
<linearGradient id="paint0_linear_13_711" x1="234" y1="21.5" x2="0" y2="21.5" gradientUnits="userSpaceOnUse">
<stop stop-color="#575AC0"/>
<stop offset="1" stop-color="#333693"/>
</linearGradient>
</defs>
</svg>
