<svg width="352" height="67" viewBox="0 0 352 67" fill="none" xmlns="http://www.w3.org/2000/svg">
<path d="M5.1 18L0.05 4H5.25L8.36667 13.2667H8.9L12.0167 4H17.2333L12.1667 18H5.1ZM24.218 18.4667C19.3346 18.4667 16.218 15.5167 16.218 11C16.218 6.48333 19.3346 3.53333 24.218 3.53333C29.118 3.53333 32.2346 6.48333 32.2346 11C32.2346 15.5167 29.118 18.4667 24.218 18.4667ZM24.218 14.1167C25.8346 14.1167 27.218 13.0333 27.218 11C27.218 8.96667 25.8346 7.88333 24.218 7.88333C22.618 7.88333 21.218 8.96667 21.218 11C21.218 13.0333 22.618 14.1167 24.218 14.1167ZM40.9482 18.4667C36.1648 18.4667 33.0148 15.5167 33.0148 11C33.0148 6.48333 36.1648 3.53333 40.9482 3.53333C44.4648 3.53333 48.0982 5.08333 48.4815 10.0167H43.6815C43.3648 8.56667 42.3815 7.88333 40.9482 7.88333C39.3315 7.88333 38.0148 9.06667 38.0148 11C38.0148 12.9167 39.3315 14.1167 40.9482 14.1167C42.3815 14.1167 43.3648 13.4333 43.6815 11.95H48.4815C48.0982 16.9167 44.5148 18.4667 40.9482 18.4667ZM50.4391 3.16667L52.6224 0.183332H58.6724L60.8557 3.16667H56.7224L56.1224 2.43333H55.1724L54.5724 3.16667H50.4391ZM49.3391 18V4H62.2224V8.01667H54.3724V9.38333H61.9224V12.6167H54.3724V13.9667H62.2224V18H49.3391ZM67.6984 18V4H80.5818V8.01667H72.7318V9.38333H80.2818V12.6167H72.7318V13.9667H80.5818V18H67.6984ZM88.519 18.4667C83.5023 18.45 81.219 16.95 81.369 13.2H85.8857C85.919 14.0333 86.619 14.5167 88.519 14.55C90.1523 14.5667 90.8523 14.1333 90.8523 13.6333C90.8523 13.3667 90.7857 12.9 89.519 12.7333L87.6857 12.45C85.0523 12.0333 81.6857 11.85 81.6857 8.08333C81.6857 5.26667 83.9357 3.53333 88.569 3.53333C92.7023 3.53333 95.5857 4.6 95.469 8.76667H90.969C90.819 7.95 90.1023 7.45 88.4523 7.45C87.0357 7.45 86.519 7.85 86.519 8.35C86.519 8.58333 86.6357 9.05 87.5857 9.2L89.0523 9.43333C91.869 9.9 95.869 9.85 95.869 13.85C95.869 16.9833 93.469 18.4833 88.519 18.4667ZM111.136 4V8.2H106.17V18H101.12V8.2H96.1698V4H111.136ZM120.783 0.183332L119.567 3.16667H115.117L116.333 0.183332H120.783ZM120.767 18L120.233 16.3167H114.533L114 18H108.8L113.85 4H120.917L125.983 18H120.767ZM115.717 12.6H119.05L117.817 8.73333H116.95L115.717 12.6ZM130.941 18V4H139.091C142.941 4 145.291 5.66667 145.291 9.58333C145.291 13.4833 142.941 15.15 139.107 15.15H135.974V18H130.941ZM135.974 10.9667H138.641C139.574 10.9667 140.191 10.5 140.191 9.58333C140.191 8.65 139.574 8.18333 138.657 8.18333H135.974V10.9667ZM146.214 18V4H159.097V8.01667H151.247V9.38333H158.797V12.6167H151.247V13.9667H159.097V18H146.214ZM175.115 18H170.165L168.398 14.5667H165.232V18H160.198V4H168.432C172.365 4 174.598 5.63333 174.598 9.46667C174.598 11.3 173.798 12.6333 172.682 13.4667L175.115 18ZM165.232 8.18333V10.8167H168.065C169.065 10.8167 169.548 10.3167 169.548 9.5C169.548 8.68333 169.065 8.18333 168.065 8.18333H165.232ZM183.213 4C188.996 4 190.98 6.95 190.98 11C190.98 15.0333 188.996 18 183.213 18H175.98V4H183.213ZM183.213 13.7833C184.696 13.7833 185.913 13.0833 185.913 11C185.913 8.9 184.696 8.21667 183.213 8.21667H181.046L181.03 13.7833H183.213ZM191.898 18V4H204.781V8.01667H196.931V9.38333H204.481V12.6167H196.931V13.9667H204.781V18H191.898ZM205.882 18V4H211.649L215.682 10.95H216.149V4H221.065V18H215.415L211.249 11.05H210.799V18H205.882ZM229.385 4C235.168 4 237.152 6.95 237.152 11C237.152 15.0333 235.168 18 229.385 18H222.152V4H229.385ZM229.385 13.7833C230.868 13.7833 232.085 13.0833 232.085 11C232.085 8.9 230.868 8.21667 229.385 8.21667H227.218L227.202 13.7833H229.385ZM245.82 18.4667C240.936 18.4667 237.82 15.5167 237.82 11C237.82 6.48333 240.936 3.53333 245.82 3.53333C250.72 3.53333 253.836 6.48333 253.836 11C253.836 15.5167 250.72 18.4667 245.82 18.4667ZM245.82 14.1167C247.436 14.1167 248.82 13.0333 248.82 11C248.82 8.96667 247.436 7.88333 245.82 7.88333C244.22 7.88333 242.82 8.96667 242.82 11C242.82 13.0333 244.22 14.1167 245.82 14.1167ZM263.616 18L258.566 4H263.766L266.882 13.2667H267.416L270.532 4H275.749L270.682 18H263.616ZM276.331 18V4H289.215V8.01667H281.365V9.38333H288.915V12.6167H281.365V13.9667H289.215V18H276.331ZM290.316 18V4H296.082L300.116 10.95H300.582V4H305.499V18H299.849L295.682 11.05H295.232V18H290.316ZM313.818 4C319.602 4 321.585 6.95 321.585 11C321.585 15.0333 319.602 18 313.818 18H306.585V4H313.818ZM313.818 13.7833C315.302 13.7833 316.518 13.0833 316.518 11C316.518 8.9 315.302 8.21667 313.818 8.21667H311.652L311.635 13.7833H313.818ZM332.622 18L332.089 16.3167H326.389L325.855 18H320.655L325.705 4H332.772L337.839 18H332.622ZM327.572 12.6H330.905L329.672 8.73333H328.805L327.572 12.6ZM344.632 18.4667C339.616 18.45 337.332 16.95 337.482 13.2H341.999C342.032 14.0333 342.732 14.5167 344.632 14.55C346.266 14.5667 346.966 14.1333 346.966 13.6333C346.966 13.3667 346.899 12.9 345.632 12.7333L343.799 12.45C341.166 12.0333 337.799 11.85 337.799 8.08333C337.799 5.26667 340.049 3.53333 344.682 3.53333C348.816 3.53333 351.699 4.6 351.582 8.76667H347.082C346.932 7.95 346.216 7.45 344.566 7.45C343.149 7.45 342.632 7.85 342.632 8.35C342.632 8.58333 342.749 9.05 343.699 9.2L345.166 9.43333C347.982 9.9 351.982 9.85 351.982 13.85C351.982 16.9833 349.582 18.4833 344.632 18.4667ZM0.55 42V28H8.7C12.55 28 14.9 29.6667 14.9 33.5833C14.9 37.4833 12.55 39.15 8.71667 39.15H5.58333V42H0.55ZM5.58333 34.9667H8.25C9.18333 34.9667 9.8 34.5 9.8 33.5833C9.8 32.65 9.18333 32.1833 8.26667 32.1833H5.58333V34.9667ZM23.5734 42.4667C18.6901 42.4667 15.5734 39.5167 15.5734 35C15.5734 30.4833 18.6901 27.5333 23.5734 27.5333C28.4734 27.5333 31.5901 30.4833 31.5901 35C31.5901 39.5167 28.4734 42.4667 23.5734 42.4667ZM23.5734 38.1167C25.1901 38.1167 26.5734 37.0333 26.5734 35C26.5734 32.9667 25.1901 31.8833 23.5734 31.8833C21.9734 31.8833 20.5734 32.9667 20.5734 35C20.5734 37.0333 21.9734 38.1167 23.5734 38.1167ZM47.3612 42H42.4112L40.6445 38.5667H37.4779V42H32.4445V28H40.6779C44.6112 28 46.8445 29.6333 46.8445 33.4667C46.8445 35.3 46.0445 36.6333 44.9279 37.4667L47.3612 42ZM37.4779 32.1833V34.8167H40.3112C41.3112 34.8167 41.7945 34.3167 41.7945 33.5C41.7945 32.6833 41.3112 32.1833 40.3112 32.1833H37.4779ZM52.6008 42V28H65.4508V32.2H57.6341V33.6333H65.1341V37.25H57.6341V42H52.6008ZM76.1573 42L75.624 40.3167H69.924L69.3906 42H64.1906L69.2406 28H76.3073L81.374 42H76.1573ZM71.1073 36.6H74.4406L73.2073 32.7333H72.3406L71.1073 36.6ZM81.9562 42V28H86.9896V37.8H94.2563V42H81.9562ZM105.687 28V32.2H100.721V42H95.6706V32.2H90.7206V28H105.687ZM115.317 42L114.784 40.3167H109.084L108.551 42H103.351L108.401 28H115.467L120.534 42H115.317ZM110.267 36.6H113.601L112.367 32.7333H111.501L110.267 36.6ZM132.725 28C138.508 28 140.491 30.95 140.491 35C140.491 39.0333 138.508 42 132.725 42H125.491V28H132.725ZM132.725 37.7833C134.208 37.7833 135.425 37.0833 135.425 35C135.425 32.9 134.208 32.2167 132.725 32.2167H130.558L130.541 37.7833H132.725ZM141.409 42V28H154.293V32.0167H146.443V33.3833H153.993V36.6167H146.443V37.9667H154.293V42H141.409ZM167.519 42.4667C162.635 42.4667 159.519 39.5167 159.519 35C159.519 30.4833 162.635 27.5333 167.519 27.5333C172.419 27.5333 175.535 30.4833 175.535 35C175.535 39.5167 172.419 42.4667 167.519 42.4667ZM167.519 38.1167C169.135 38.1167 170.519 37.0333 170.519 35C170.519 32.9667 169.135 31.8833 167.519 31.8833C165.919 31.8833 164.519 32.9667 164.519 35C164.519 37.0333 165.919 38.1167 167.519 38.1167ZM191.307 42H186.357L184.59 38.5667H181.423V42H176.39V28H184.623C188.557 28 190.79 29.6333 190.79 33.4667C190.79 35.3 189.99 36.6333 188.873 37.4667L191.307 42ZM181.423 32.1833V34.8167H184.257C185.257 34.8167 185.74 34.3167 185.74 33.5C185.74 32.6833 185.257 32.1833 184.257 32.1833H181.423ZM206.994 34.15V42H204.394L204.328 40.2667H204.278C203.294 41.5333 201.578 42.4667 199.144 42.4667C194.828 42.4667 191.511 39.5167 191.511 35C191.511 30.4833 194.644 27.5333 199.594 27.5333C202.994 27.5333 206.494 29.1833 206.978 33.0333H201.961C201.761 32.5333 200.978 31.8833 199.711 31.8833C197.828 31.8833 196.511 33.0667 196.511 35C196.511 36.9167 197.861 38.1167 199.561 38.1167C200.028 38.1167 201.661 38.0667 202.144 36.6H199.378V34.15H206.994ZM219.458 42L218.925 40.3167H213.225L212.691 42H207.491L212.541 28H219.608L224.675 42H219.458ZM214.408 36.6H217.741L216.508 32.7333H215.641L214.408 36.6ZM225.257 42V28H231.024L235.057 34.95H235.524V28H240.44V42H234.79L230.624 35.05H230.174V42H225.257ZM241.527 42V28H246.56V42H241.527ZM247.409 42V37.95L254.209 32.5833V32.2H247.559V28H260.793V32.05L253.876 37.4167V37.8H260.693V42H247.409ZM272.935 42L272.401 40.3167H266.701L266.168 42H260.968L266.018 28H273.085L278.151 42H272.935ZM267.885 36.6H271.218L269.985 32.7333H269.118L267.885 36.6ZM285.069 38.1167C286.503 38.1167 287.486 37.4333 287.803 35.95H292.603C292.236 40.6167 289.053 42.2667 285.703 42.45L285.569 42.55C286.503 42.6167 287.553 43.1833 287.553 44.4833C287.553 46.2833 285.486 46.9667 283.086 46.4833V44.6333C284.469 44.9333 284.936 44.6667 284.936 44.5667C284.936 44.4167 284.469 44.0333 283.086 44.3667V43.2333L284.169 42.4333C279.903 42.0833 277.136 39.2333 277.136 35C277.136 30.4833 280.286 27.5333 285.069 27.5333C288.586 27.5333 292.219 29.0833 292.603 34.0167H287.803C287.486 32.5667 286.503 31.8833 285.069 31.8833C283.453 31.8833 282.136 33.0667 282.136 35C282.136 36.9167 283.453 38.1167 285.069 38.1167ZM297.589 27.0833H296.289C295.922 24.9167 297.472 24.0167 298.972 24.0167C300.305 24.0167 301.205 24.9333 302.305 24.9333C302.905 24.9333 303.305 24.6333 303.355 24.1333H304.639C305.005 26.2833 303.472 27.2 301.955 27.2C300.622 27.2 299.739 26.2833 298.639 26.2833C298.039 26.2833 297.639 26.5667 297.589 27.0833ZM303.872 42L303.339 40.3167H297.639L297.105 42H291.905L296.955 28H304.022L309.089 42H303.872ZM298.822 36.6H302.155L300.922 32.7333H300.055L298.822 36.6ZM316.073 42.4667C311.19 42.4667 308.073 39.5167 308.073 35C308.073 30.4833 311.19 27.5333 316.073 27.5333C320.973 27.5333 324.09 30.4833 324.09 35C324.09 39.5167 320.973 42.4667 316.073 42.4667ZM316.073 38.1167C317.69 38.1167 319.073 37.0333 319.073 35C319.073 32.9667 317.69 31.8833 316.073 31.8833C314.473 31.8833 313.073 32.9667 313.073 35C313.073 37.0333 314.473 38.1167 316.073 38.1167ZM329.32 42V28H342.203V32.0167H334.353V33.3833H341.903V36.6167H334.353V37.9667H342.203V42H329.32ZM0.55 66V52H8.7C12.55 52 14.9 53.6667 14.9 57.5833C14.9 61.4833 12.55 63.15 8.71667 63.15H5.58333V66H0.55ZM5.58333 58.9667H8.25C9.18333 58.9667 9.8 58.5 9.8 57.5833C9.8 56.65 9.18333 56.1833 8.26667 56.1833H5.58333V58.9667ZM30.7401 66H25.7901L24.0234 62.5667H20.8568V66H15.8234V52H24.0568C27.9901 52 30.2234 53.6333 30.2234 57.4667C30.2234 59.3 29.4234 60.6333 28.3068 61.4667L30.7401 66ZM20.8568 56.1833V58.8167H23.6901C24.6901 58.8167 25.1734 58.3167 25.1734 57.5C25.1734 56.6833 24.6901 56.1833 23.6901 56.1833H20.8568ZM38.9445 66.4667C34.0612 66.4667 30.9445 63.5167 30.9445 59C30.9445 54.4833 34.0612 51.5333 38.9445 51.5333C43.8445 51.5333 46.9612 54.4833 46.9612 59C46.9612 63.5167 43.8445 66.4667 38.9445 66.4667ZM38.9445 62.1167C40.5612 62.1167 41.9445 61.0333 41.9445 59C41.9445 56.9667 40.5612 55.8833 38.9445 55.8833C37.3445 55.8833 35.9445 56.9667 35.9445 59C35.9445 61.0333 37.3445 62.1167 38.9445 62.1167ZM55.6747 66.4667C50.8914 66.4667 47.7414 63.5167 47.7414 59C47.7414 54.4833 50.8914 51.5333 55.6747 51.5333C59.1914 51.5333 62.8247 53.0833 63.2081 58.0167H58.4081C58.0914 56.5667 57.1081 55.8833 55.6747 55.8833C54.0581 55.8833 52.7414 57.0667 52.7414 59C52.7414 60.9167 54.0581 62.1167 55.6747 62.1167C57.1081 62.1167 58.0914 61.4333 58.4081 59.95H63.2081C62.8247 64.9167 59.2414 66.4667 55.6747 66.4667ZM64.0656 66V52H76.949V56.0167H69.099V57.3833H76.649V60.6167H69.099V61.9667H76.949V66H64.0656ZM84.8862 66.4667C79.8695 66.45 77.5862 64.95 77.7362 61.2H82.2529C82.2862 62.0333 82.9862 62.5167 84.8862 62.55C86.5195 62.5667 87.2195 62.1333 87.2195 61.6333C87.2195 61.3667 87.1529 60.9 85.8862 60.7333L84.0529 60.45C81.4195 60.0333 78.0529 59.85 78.0529 56.0833C78.0529 53.2667 80.3029 51.5333 84.9362 51.5333C89.0695 51.5333 91.9529 52.6 91.8362 56.7667H87.3362C87.1862 55.95 86.4695 55.45 84.8195 55.45C83.4029 55.45 82.8862 55.85 82.8862 56.35C82.8862 56.5833 83.0029 57.05 83.9529 57.2L85.4195 57.4333C88.2362 57.9 92.2362 57.85 92.2362 61.85C92.2362 64.9833 89.8362 66.4833 84.8862 66.4667ZM100.023 66.4667C95.0062 66.45 92.7229 64.95 92.8729 61.2H97.3896C97.4229 62.0333 98.1229 62.5167 100.023 62.55C101.656 62.5667 102.356 62.1333 102.356 61.6333C102.356 61.3667 102.29 60.9 101.023 60.7333L99.1896 60.45C96.5563 60.0333 93.1896 59.85 93.1896 56.0833C93.1896 53.2667 95.4396 51.5333 100.073 51.5333C104.206 51.5333 107.09 52.6 106.973 56.7667H102.473C102.323 55.95 101.606 55.45 99.9563 55.45C98.5396 55.45 98.0229 55.85 98.0229 56.35C98.0229 56.5833 98.1396 57.05 99.0896 57.2L100.556 57.4333C103.373 57.9 107.373 57.85 107.373 61.85C107.373 64.9833 104.973 66.4833 100.023 66.4667ZM115.917 66.4667C111.034 66.4667 107.917 63.5167 107.917 59C107.917 54.4833 111.034 51.5333 115.917 51.5333C120.817 51.5333 123.934 54.4833 123.934 59C123.934 63.5167 120.817 66.4667 115.917 66.4667ZM115.917 62.1167C117.534 62.1167 118.917 61.0333 118.917 59C118.917 56.9667 117.534 55.8833 115.917 55.8833C114.317 55.8833 112.917 56.9667 112.917 59C112.917 61.0333 114.317 62.1167 115.917 62.1167ZM131.527 66.4667C126.51 66.45 124.227 64.95 124.377 61.2H128.893C128.927 62.0333 129.627 62.5167 131.527 62.55C133.16 62.5667 133.86 62.1333 133.86 61.6333C133.86 61.3667 133.793 60.9 132.527 60.7333L130.693 60.45C128.06 60.0333 124.693 59.85 124.693 56.0833C124.693 53.2667 126.943 51.5333 131.577 51.5333C135.71 51.5333 138.593 52.6 138.477 56.7667H133.977C133.827 55.95 133.11 55.45 131.46 55.45C130.043 55.45 129.527 55.85 129.527 56.35C129.527 56.5833 129.643 57.05 130.593 57.2L132.06 57.4333C134.877 57.9 138.877 57.85 138.877 61.85C138.877 64.9833 136.477 66.4833 131.527 66.4667ZM143.621 60.7C143.088 56.9667 147.521 58.0333 147.521 56.4833C147.521 55.9667 146.854 55.6333 145.904 55.6333C145.154 55.6333 143.888 55.7833 143.888 57.2667H139.338C139.138 53.45 141.571 51.6333 145.871 51.6333C149.854 51.6333 152.538 52.9167 152.538 55.8833C152.538 59.6667 148.538 58.5167 148.488 60.7H143.621ZM146.038 66.2667C144.704 66.2667 143.571 65.15 143.571 63.8333C143.571 62.5 144.704 61.3833 146.038 61.3833C147.388 61.3833 148.521 62.5 148.521 63.8333C148.521 65.15 147.388 66.2667 146.038 66.2667Z" fill="#F8F8F8"/>
</svg>
