<svg width="257" height="23" viewBox="0 0 257 23" fill="none" xmlns="http://www.w3.org/2000/svg">
<path d="M16.0833 10.85C16.0833 12.7833 15.35 14.3167 14.15 15.55L16 17.4167C15.3 18.3333 14.55 19.0667 13.6667 19.8L11.4667 17.7667C10.5167 18.1667 9.4 18.4667 8.23333 18.4667C3.5 18.4667 0.383333 15.45 0.383333 11C0.383333 6.55 3.5 3.53333 8.23333 3.53333C12.9667 3.53333 16.0833 6.55 16.0833 10.85ZM4.53333 11C4.53333 13.4 6.18333 14.85 8.23333 14.85C10.2833 14.85 11.9333 13.4 11.9333 11C11.9333 8.6 10.2833 7.15 8.23333 7.15C6.18333 7.15 4.53333 8.6 4.53333 11ZM25.1815 18.4667C20.5315 18.4667 18.0982 16.4167 18.0982 11.9833V4H22.3148V11.8833C22.3148 13.7833 23.1982 14.95 25.1815 14.95C27.1648 14.95 28.0648 13.7833 28.0648 11.8833V4H32.2648V11.9667C32.2648 16.4167 29.8315 18.4667 25.1815 18.4667ZM34.5083 18V4H46.8417V7.36667H38.6917V9.58333H46.5417V12.4H38.6917V14.6167H46.8417V18H34.5083ZM63.2688 18H59.1521L57.1188 14.2H53.2854V18H49.1021V4H56.8854C60.7354 4 62.8521 5.7 62.8521 9.23333C62.8521 11.15 61.9688 12.5167 60.7021 13.3333L63.2688 18ZM53.2854 7.48333V11.05H56.6187C57.9521 11.05 58.6687 10.4167 58.6687 9.26667C58.6687 8.11667 57.9521 7.48333 56.6187 7.48333H53.2854ZM72.4677 18.4667C67.7344 18.4667 64.6177 15.45 64.6177 11C64.6177 6.55 67.7344 3.53333 72.4677 3.53333C77.201 3.53333 80.3177 6.55 80.3177 11C80.3177 15.45 77.201 18.4667 72.4677 18.4667ZM72.4677 14.85C74.5177 14.85 76.1677 13.4 76.1677 11C76.1677 8.6 74.5177 7.15 72.4677 7.15C70.4177 7.15 68.7677 8.6 68.7677 11C68.7677 13.4 70.4177 14.85 72.4677 14.85ZM87.6294 18V4H91.8128V18H87.6294ZM94.0591 18V4H98.8758L104.142 12.1833H104.526V4H108.609V18H103.892L98.5091 9.81667H98.1424V18H94.0591ZM110.86 18V4H123.16V7.5H115.043V9.86667H122.777V12.9167H115.043V18H110.86ZM132.741 18.4667C128.008 18.4667 124.891 15.45 124.891 11C124.891 6.55 128.008 3.53333 132.741 3.53333C137.474 3.53333 140.591 6.55 140.591 11C140.591 15.45 137.474 18.4667 132.741 18.4667ZM132.741 14.85C134.791 14.85 136.441 13.4 136.441 11C136.441 8.6 134.791 7.15 132.741 7.15C130.691 7.15 129.041 8.6 129.041 11C129.041 13.4 130.691 14.85 132.741 14.85ZM156.773 18H152.656L150.623 14.2H146.789V18H142.606V4H150.389C154.239 4 156.356 5.7 156.356 9.23333C156.356 11.15 155.473 12.5167 154.206 13.3333L156.773 18ZM146.789 7.48333V11.05H150.123C151.456 11.05 152.173 10.4167 152.173 9.26667C152.173 8.11667 151.456 7.48333 150.123 7.48333H146.789ZM158.782 18V4H164.065L166.748 12.6H167.048L169.732 4H175.032V18H171.032V11.05H170.698L168.482 18H165.332L163.115 11.05H162.765V18H158.782ZM188.798 18L188.098 15.9833H181.798L181.098 18H176.782L182.015 4H187.882L193.132 18H188.798ZM182.882 12.8667H187.015L185.315 7.93333H184.582L182.882 12.8667ZM201.125 14.85C202.708 14.85 203.891 14.1 204.341 12.45H208.341C207.841 16.7667 204.825 18.3 201.691 18.45L201.508 18.6C202.425 18.6667 203.408 19.2333 203.408 20.4833C203.408 22.2167 201.441 22.8667 199.258 22.4167V20.7667C200.591 21.05 201.108 20.7667 201.108 20.5333C201.108 20.2833 200.591 19.9 199.258 20.2333V19.1667L200.191 18.4167C196.041 18.05 193.325 15.15 193.325 11C193.325 6.55 196.458 3.53333 201.125 3.53333C204.425 3.53333 207.808 4.98333 208.341 9.51667H204.341C203.891 7.9 202.708 7.15 201.125 7.15C199.075 7.15 197.475 8.68333 197.475 11C197.475 13.3 199.075 14.85 201.125 14.85ZM219.559 3.13333C218.193 3.13333 217.409 2.11667 216.343 2.11667C215.743 2.11667 215.376 2.41667 215.326 2.91667H214.126C213.859 0.966666 215.209 0.149999 216.609 0.149999C217.959 0.149999 218.759 1.16667 219.826 1.16667C220.409 1.16667 220.776 0.866666 220.843 0.366667H222.043C222.309 2.31667 220.959 3.13333 219.559 3.13333ZM218.093 18.4667C213.359 18.4667 210.243 15.45 210.243 11C210.243 6.55 213.359 3.53333 218.093 3.53333C222.826 3.53333 225.943 6.55 225.943 11C225.943 15.45 222.826 18.4667 218.093 18.4667ZM218.093 14.85C220.143 14.85 221.793 13.4 221.793 11C221.793 8.6 220.143 7.15 218.093 7.15C216.043 7.15 214.393 8.6 214.393 11C214.393 13.4 216.043 14.85 218.093 14.85ZM227.958 18V4H240.291V7.36667H232.141V9.58333H239.991V12.4H232.141V14.6167H240.291V18H227.958ZM249.032 18.4667C244.382 18.45 242.115 16.95 242.198 13.4333H245.965C246.032 14.5 246.932 15.1667 249.032 15.1833C250.932 15.2 251.865 14.6167 251.865 13.8167C251.865 13.2 251.432 12.7333 249.965 12.5L248.198 12.2167C245.548 11.7667 242.548 11.3167 242.548 7.91667C242.548 5.18333 244.782 3.53333 249.065 3.53333C252.948 3.53333 255.665 4.7 255.615 8.53333H251.882C251.698 7.48333 250.848 6.81667 248.965 6.81667C247.315 6.81667 246.565 7.33333 246.565 8.11667C246.565 8.66667 246.948 9.16667 248.148 9.36667L249.632 9.63333C252.382 10.1 256.015 10.3 256.015 13.9833C256.015 16.9333 253.682 18.4833 249.032 18.4667Z" fill="white"/>
</svg>
