<svg width="253" height="16" viewBox="0 0 253 16" fill="none" xmlns="http://www.w3.org/2000/svg">
<path d="M0.633333 15V1H12.9667V4.36667H4.81667V6.58333H12.6667V9.4H4.81667V11.6167H12.9667V15H0.633333ZM15.2271 15V1H20.0438L25.3104 9.18333H25.6938V1H29.7771V15H25.0604L19.6771 6.81667H19.3104V15H15.2271ZM46.3279 1V4.5H41.2279V15H37.0445V4.5H31.9445V1H46.3279ZM62.6828 15H58.5661L56.5328 11.2H52.6995V15H48.5161V1H56.2995C60.1495 1 62.2661 2.7 62.2661 6.23333C62.2661 8.15 61.3828 9.51667 60.1161 10.3333L62.6828 15ZM52.6995 4.48333V8.05H56.0328C57.3661 8.05 58.0828 7.41667 58.0828 6.26667C58.0828 5.11667 57.3661 4.48333 56.0328 4.48333H52.6995ZM75.9547 15L75.2547 12.9833H68.9547L68.2547 15H63.938L69.1714 1H75.038L80.288 15H75.9547ZM70.038 9.86667H74.1714L72.4714 4.93333H71.738L70.038 9.86667ZM96.2063 15H92.0896L90.0563 11.2H86.2229V15H82.0396V1H89.8229C93.6729 1 95.7896 2.7 95.7896 6.23333C95.7896 8.15 94.9063 9.51667 93.6396 10.3333L96.2063 15ZM86.2229 4.48333V8.05H89.5562C90.8896 8.05 91.6062 7.41667 91.6062 6.26667C91.6062 5.11667 90.8896 4.48333 89.5562 4.48333H86.2229ZM103.512 15V1H115.846V4.36667H107.696V6.58333H115.546V9.4H107.696V11.6167H115.846V15H103.512ZM118.106 15V1H123.389L126.073 9.6H126.373L129.056 1H134.356V15H130.356V8.05H130.023L127.806 15H124.656L122.439 8.05H122.089V15H118.106ZM149.453 15.4667C144.786 15.4667 141.653 12.45 141.653 8C141.653 3.55 144.786 0.533333 149.453 0.533333C152.753 0.533333 156.136 1.98333 156.67 6.51667H152.67C152.22 4.9 151.036 4.15 149.453 4.15C147.403 4.15 145.803 5.68333 145.803 8C145.803 10.3 147.403 11.85 149.453 11.85C151.036 11.85 152.22 11.1 152.67 9.45H156.67C156.136 14.0167 152.786 15.4667 149.453 15.4667ZM166.421 15.4667C161.687 15.4667 158.571 12.45 158.571 8C158.571 3.55 161.687 0.533333 166.421 0.533333C171.154 0.533333 174.271 3.55 174.271 8C174.271 12.45 171.154 15.4667 166.421 15.4667ZM166.421 11.85C168.471 11.85 170.121 10.4 170.121 8C170.121 5.6 168.471 4.15 166.421 4.15C164.371 4.15 162.721 5.6 162.721 8C162.721 10.4 164.371 11.85 166.421 11.85ZM176.286 15V1H181.102L186.369 9.18333H186.752V1H190.836V15H186.119L180.736 6.81667H180.369V15H176.286ZM207.386 1V4.5H202.286V15H198.103V4.5H193.003V1H207.386ZM218.259 15L217.559 12.9833H211.259L210.559 15H206.243L211.476 1H217.343L222.593 15H218.259ZM212.343 9.86667H216.476L214.776 4.93333H214.043L212.343 9.86667ZM235.812 1V4.5H230.712V15H226.529V4.5H221.429V1H235.812ZM244.741 15.4667C240.008 15.4667 236.891 12.45 236.891 8C236.891 3.55 240.008 0.533333 244.741 0.533333C249.474 0.533333 252.591 3.55 252.591 8C252.591 12.45 249.474 15.4667 244.741 15.4667ZM244.741 11.85C246.791 11.85 248.441 10.4 248.441 8C248.441 5.6 246.791 4.15 244.741 4.15C242.691 4.15 241.041 5.6 241.041 8C241.041 10.4 242.691 11.85 244.741 11.85Z" fill="white"/>
</svg>
