<svg width="432" height="124" viewBox="0 0 432 124" fill="none" xmlns="http://www.w3.org/2000/svg">
<path d="M0.76 58V13.2H19.2133L32.12 35.44H33.6133V13.2H49.3467V58H31.2667L17.9333 35.76H16.4933V58H0.76ZM69.4092 10.2667H65.2492C64.0758 3.33333 69.0358 0.453331 73.8358 0.453331C78.1025 0.453331 80.9825 3.38667 84.5025 3.38667C86.4225 3.38667 87.7025 2.42667 87.8625 0.826664H91.9692C93.1425 7.70667 88.2358 10.64 83.3825 10.64C79.1158 10.64 76.2892 7.70667 72.7692 7.70667C70.8492 7.70667 69.5692 8.61333 69.4092 10.2667ZM89.5158 58L87.8092 52.6133H69.5692L67.8625 58H51.2225L67.3825 13.2H89.9958L106.209 58H89.5158ZM73.3558 40.72H84.0225L80.0758 28.3467H77.3025L73.3558 40.72ZM128.56 59.4933C112.933 59.4933 102.96 50.0533 102.96 35.6C102.96 21.1467 112.933 11.7067 128.56 11.7067C144.24 11.7067 154.213 21.1467 154.213 35.6C154.213 50.0533 144.24 59.4933 128.56 59.4933ZM128.56 45.5733C133.733 45.5733 138.16 42.1067 138.16 35.6C138.16 29.0933 133.733 25.6267 128.56 25.6267C123.44 25.6267 118.96 29.0933 118.96 35.6C118.96 42.1067 123.44 45.5733 128.56 45.5733ZM183.854 10.5333L187.748 0.986664H201.987L198.094 10.5333H183.854ZM170.947 58V13.2H212.174V26.0533H187.054V30.4267H211.214V40.7733H187.054V45.0933H212.174V58H170.947ZM251.511 59.4933C235.457 59.44 228.151 54.64 228.631 42.64H243.084C243.191 45.3067 245.431 46.8533 251.511 46.96C256.738 47.0133 258.978 45.6267 258.978 44.0267C258.978 43.1733 258.764 41.68 254.711 41.1467L248.844 40.24C240.418 38.9067 229.644 38.32 229.644 26.2667C229.644 17.2533 236.844 11.7067 251.671 11.7067C264.897 11.7067 274.124 15.12 273.751 28.4533H259.351C258.871 25.84 256.578 24.24 251.298 24.24C246.764 24.24 245.111 25.52 245.111 27.12C245.111 27.8667 245.484 29.36 248.524 29.84L253.218 30.5867C262.231 32.08 275.031 31.92 275.031 44.72C275.031 54.7467 267.351 59.5467 251.511 59.4933ZM295.119 10.32L299.013 0.773331H313.253L309.359 10.32H295.119ZM302.373 59.4933C286.746 59.4933 276.773 50.0533 276.773 35.6C276.773 21.1467 286.746 11.7067 302.373 11.7067C318.053 11.7067 328.026 21.1467 328.026 35.6C328.026 50.0533 318.053 59.4933 302.373 59.4933ZM302.373 45.5733C307.546 45.5733 311.972 42.1067 311.972 35.6C311.972 29.0933 307.546 25.6267 302.373 25.6267C297.253 25.6267 292.773 29.0933 292.773 35.6C292.773 42.1067 297.253 45.5733 302.373 45.5733Z" fill="white"/>
<path d="M0.76 122V77.2H21.0267L27.0533 100.773H28.2267L34.2533 77.2H54.52V122H39.16V104.507H37.9333L33.56 122H21.72L17.3467 104.507H16.12V122H0.76ZM94.7033 122L92.9967 116.613H74.7567L73.05 122H56.41L72.57 77.2H95.1833L111.397 122H94.7033ZM78.5433 104.72H89.21L85.2633 92.3467H82.49L78.5433 104.72ZM160.993 122H145.153L139.5 111.013H129.367V122H113.26V77.2H139.607C152.193 77.2 159.34 82.4267 159.34 94.6933C159.34 100.56 156.78 104.827 153.207 107.493L160.993 122ZM129.367 90.5867V99.0133H138.433C141.633 99.0133 143.18 97.4133 143.18 94.8C143.18 92.1867 141.633 90.5867 138.433 90.5867H129.367ZM213.947 122H197.52L186.427 106.907H185.413L179.813 112.933V122H163.76V77.2H179.813V93.7333H180.88L195.6 77.2H213.52L195.44 97.1467L213.947 122ZM215.135 122V77.2H256.362V90.0533H231.242V94.4267H255.402V104.773H231.242V109.093H256.362V122H215.135ZM307.512 77.2V90.64H291.618V122H275.458V90.64H259.618V77.2H307.512ZM310.697 122V77.2H326.804V122H310.697ZM330.322 122V77.2H348.776L361.682 99.44H363.176V77.2H378.909V122H360.829L347.496 99.76H346.056V122H330.322ZM431.132 96.88V122H422.812L422.598 116.453H422.438C419.292 120.507 413.798 123.493 406.012 123.493C392.198 123.493 381.585 114.053 381.585 99.6C381.585 85.1467 391.612 75.7067 407.452 75.7067C418.332 75.7067 429.532 80.9867 431.078 93.3067H415.025C414.385 91.7067 411.878 89.6267 407.825 89.6267C401.798 89.6267 397.585 93.4133 397.585 99.6C397.585 105.733 401.905 109.573 407.345 109.573C408.838 109.573 414.065 109.413 415.612 104.72H406.758V96.88H431.132Z" fill="url(#paint0_linear_7_340)"/>
<defs>
<linearGradient id="paint0_linear_7_340" x1="501" y1="60" x2="-1" y2="60" gradientUnits="userSpaceOnUse">
<stop stop-color="#9A9EED"/>
<stop offset="1" stop-color="#575AC0"/>
</linearGradient>
</defs>
</svg>
