<svg width="534" height="119" viewBox="0 0 534 119" fill="none" xmlns="http://www.w3.org/2000/svg">
<path d="M9.336 11.04V9.216H16.608V18H14.952L14.52 15.696C13.256 17.488 11.392 18.384 8.928 18.384C6.48 18.384 4.528 17.56 3.072 15.912C1.584 14.28 0.84 12.128 0.84 9.456C0.84 6.8 1.576 4.64 3.048 2.976C4.504 1.344 6.472 0.527999 8.952 0.527999C10.984 0.527999 12.664 1.072 13.992 2.16C15.32 3.248 16.128 4.696 16.416 6.504H14.328C14.12 5.24 13.512 4.232 12.504 3.48C11.528 2.744 10.344 2.376 8.952 2.376C7.128 2.376 5.672 3.016 4.584 4.296C3.496 5.576 2.952 7.296 2.952 9.456C2.952 11.616 3.496 13.336 4.584 14.616C5.672 15.896 7.128 16.536 8.952 16.536C10.568 16.536 11.944 16.016 13.08 14.976C14.216 13.936 14.784 12.624 14.784 11.04H9.336ZM30.1697 11.808V12.48H20.7617C20.8577 13.824 21.2337 14.84 21.8897 15.528C22.5457 16.2 23.4417 16.536 24.5777 16.536C26.2897 16.536 27.3857 15.768 27.8657 14.232H29.8577C29.5217 15.48 28.8977 16.472 27.9857 17.208C27.0737 17.928 25.9217 18.288 24.5297 18.288C22.8177 18.288 21.4337 17.704 20.3777 16.536C19.3057 15.368 18.7697 13.792 18.7697 11.808C18.7697 9.856 19.2977 8.288 20.3537 7.104C21.3937 5.92 22.7697 5.328 24.4817 5.328C26.2577 5.328 27.6497 5.944 28.6577 7.176C29.6657 8.408 30.1697 9.952 30.1697 11.808ZM24.4817 7.08C23.4737 7.08 22.6497 7.4 22.0097 8.04C21.3697 8.664 20.9697 9.568 20.8097 10.752H28.1057C28.0097 9.664 27.6417 8.784 27.0017 8.112C26.3617 7.424 25.5217 7.08 24.4817 7.08ZM38.2558 5.424C38.5758 5.424 38.7918 5.432 38.9038 5.448V7.296H38.4238C37.1438 7.296 36.1438 7.616 35.4238 8.256C34.7198 8.88 34.3678 9.776 34.3678 10.944V18H32.4478V5.616H34.2718V7.8C35.1038 6.216 36.4318 5.424 38.2558 5.424ZM49.9821 16.44H50.6781V18C50.3581 18.048 50.0061 18.072 49.6221 18.072C48.3261 18.072 47.6301 17.48 47.5341 16.296C46.6701 17.624 45.3261 18.288 43.5021 18.288C42.1421 18.288 41.0701 17.976 40.2861 17.352C39.5181 16.712 39.1341 15.816 39.1341 14.664C39.1341 12.424 40.6621 11.144 43.7181 10.824L45.4941 10.632C46.7901 10.488 47.4381 9.92 47.4381 8.928C47.4381 8.24 47.2221 7.744 46.7901 7.44C46.3741 7.136 45.6621 6.984 44.6541 6.984C43.5821 6.984 42.8061 7.168 42.3261 7.536C41.8621 7.888 41.5981 8.52 41.5341 9.432H39.6141C39.7741 6.696 41.4541 5.328 44.6541 5.328C47.7581 5.328 49.3101 6.528 49.3101 8.928V15.84C49.3101 16.24 49.5341 16.44 49.9821 16.44ZM43.5981 16.656C44.6221 16.656 45.5181 16.344 46.2861 15.72C47.0541 15.112 47.4381 14.24 47.4381 13.104V11.64C47.0861 11.912 46.5421 12.088 45.8061 12.168L44.0061 12.384C42.9661 12.512 42.2221 12.752 41.7741 13.104C41.3421 13.456 41.1261 13.96 41.1261 14.616C41.1261 15.256 41.3341 15.76 41.7501 16.128C42.1661 16.48 42.7821 16.656 43.5981 16.656ZM65.4017 5.328C66.7457 5.328 67.7857 5.72 68.5217 6.504C69.2737 7.272 69.6497 8.304 69.6497 9.6V18H67.7297V9.792C67.7297 7.968 66.8657 7.056 65.1377 7.056C64.2257 7.056 63.4657 7.424 62.8577 8.16C62.2657 8.88 61.9697 9.904 61.9697 11.232V18H60.0497V9.792C60.0497 7.968 59.1857 7.056 57.4577 7.056C56.5617 7.056 55.8097 7.424 55.2017 8.16C54.5937 8.88 54.2897 9.904 54.2897 11.232V18H52.3697V5.616H54.1937V7.44C55.0097 6.032 56.2017 5.328 57.7697 5.328C59.6257 5.328 60.8977 6.104 61.5857 7.656C62.4497 6.104 63.7217 5.328 65.4017 5.328ZM82.2459 16.512C81.1099 17.696 79.6699 18.288 77.9259 18.288C76.1819 18.288 74.7419 17.696 73.6059 16.512C72.4859 15.344 71.9259 13.776 71.9259 11.808C71.9259 9.84 72.4859 8.272 73.6059 7.104C74.7419 5.92 76.1819 5.328 77.9259 5.328C79.6699 5.328 81.1099 5.92 82.2459 7.104C83.3659 8.272 83.9259 9.84 83.9259 11.808C83.9259 13.776 83.3659 15.344 82.2459 16.512ZM75.0219 15.288C75.7419 16.136 76.7099 16.56 77.9259 16.56C79.1419 16.56 80.1099 16.136 80.8299 15.288C81.5499 14.456 81.9099 13.296 81.9099 11.808C81.9099 10.304 81.5499 9.136 80.8299 8.304C80.1099 7.472 79.1419 7.056 77.9259 7.056C76.7099 7.056 75.7419 7.472 75.0219 8.304C74.3019 9.136 73.9419 10.304 73.9419 11.808C73.9419 13.296 74.3019 14.456 75.0219 15.288ZM90.3471 18.288C87.0351 18.288 85.2831 16.88 85.0911 14.064H87.0351C87.1471 14.992 87.4511 15.656 87.9471 16.056C88.4591 16.44 89.2591 16.632 90.3471 16.632C92.3311 16.632 93.3231 15.992 93.3231 14.712C93.3231 14.152 93.1151 13.728 92.6991 13.44C92.2991 13.152 91.5631 12.904 90.4911 12.696L89.3391 12.48C86.7631 12 85.4751 10.784 85.4751 8.832C85.4751 7.76 85.8751 6.912 86.6751 6.288C87.4911 5.648 88.5951 5.328 89.9871 5.328C93.2671 5.328 94.9471 6.696 95.0271 9.432H93.1071C93.0591 8.536 92.7871 7.904 92.2911 7.536C91.7951 7.168 91.0271 6.984 89.9871 6.984C89.1551 6.984 88.5151 7.144 88.0671 7.464C87.6191 7.784 87.3951 8.232 87.3951 8.808C87.3951 9.352 87.5871 9.76 87.9711 10.032C88.3551 10.304 88.9951 10.536 89.8911 10.728L90.9951 10.944C92.5151 11.248 93.6031 11.68 94.2591 12.24C94.9311 12.8 95.2671 13.584 95.2671 14.592C95.2671 15.76 94.8271 16.672 93.9471 17.328C93.0831 17.968 91.8831 18.288 90.3471 18.288ZM106.889 18.288C105.177 18.288 103.793 17.696 102.737 16.512C101.681 15.328 101.153 13.76 101.153 11.808C101.153 9.824 101.681 8.248 102.737 7.08C103.761 5.912 105.145 5.328 106.889 5.328C108.361 5.328 109.569 5.728 110.513 6.528C111.457 7.328 112.025 8.424 112.217 9.816H110.225C110.081 8.936 109.697 8.256 109.073 7.776C108.465 7.296 107.737 7.056 106.889 7.056C105.753 7.056 104.849 7.472 104.177 8.304C103.505 9.12 103.169 10.288 103.169 11.808C103.169 13.312 103.505 14.48 104.177 15.312C104.865 16.144 105.769 16.56 106.889 16.56C107.737 16.56 108.473 16.312 109.097 15.816C109.721 15.32 110.105 14.632 110.249 13.752H112.217C112.009 15.144 111.417 16.248 110.441 17.064C109.481 17.88 108.297 18.288 106.889 18.288ZM120.076 5.424C120.396 5.424 120.612 5.432 120.724 5.448V7.296H120.244C118.964 7.296 117.964 7.616 117.244 8.256C116.54 8.88 116.188 9.776 116.188 10.944V18H114.268V5.616H116.092V7.8C116.924 6.216 118.252 5.424 120.076 5.424ZM132.592 11.808V12.48H123.184C123.28 13.824 123.656 14.84 124.312 15.528C124.968 16.2 125.864 16.536 127 16.536C128.712 16.536 129.808 15.768 130.288 14.232H132.28C131.944 15.48 131.32 16.472 130.408 17.208C129.496 17.928 128.344 18.288 126.952 18.288C125.24 18.288 123.856 17.704 122.8 16.536C121.728 15.368 121.192 13.792 121.192 11.808C121.192 9.856 121.72 8.288 122.776 7.104C123.816 5.92 125.192 5.328 126.904 5.328C128.68 5.328 130.072 5.944 131.08 7.176C132.088 8.408 132.592 9.952 132.592 11.808ZM126.904 7.08C125.896 7.08 125.072 7.4 124.432 8.04C123.792 8.664 123.392 9.568 123.232 10.752H130.528C130.432 9.664 130.064 8.784 129.424 8.112C128.784 7.424 127.944 7.08 126.904 7.08ZM139.121 18.288C135.809 18.288 134.057 16.88 133.865 14.064H135.809C135.921 14.992 136.225 15.656 136.721 16.056C137.233 16.44 138.033 16.632 139.121 16.632C141.105 16.632 142.097 15.992 142.097 14.712C142.097 14.152 141.889 13.728 141.473 13.44C141.073 13.152 140.337 12.904 139.265 12.696L138.113 12.48C135.537 12 134.249 10.784 134.249 8.832C134.249 7.76 134.649 6.912 135.449 6.288C136.265 5.648 137.369 5.328 138.761 5.328C142.041 5.328 143.721 6.696 143.801 9.432H141.881C141.833 8.536 141.561 7.904 141.065 7.536C140.569 7.168 139.801 6.984 138.761 6.984C137.929 6.984 137.289 7.144 136.84 7.464C136.393 7.784 136.169 8.232 136.169 8.808C136.169 9.352 136.361 9.76 136.745 10.032C137.129 10.304 137.769 10.536 138.665 10.728L139.769 10.944C141.289 11.248 142.377 11.68 143.033 12.24C143.705 12.8 144.041 13.584 144.041 14.592C144.041 15.76 143.601 16.672 142.721 17.328C141.857 17.968 140.657 18.288 139.121 18.288ZM151.092 18.288C149.38 18.288 147.996 17.696 146.94 16.512C145.884 15.328 145.356 13.76 145.356 11.808C145.356 9.824 145.884 8.248 146.94 7.08C147.964 5.912 149.348 5.328 151.092 5.328C152.564 5.328 153.772 5.728 154.716 6.528C155.66 7.328 156.228 8.424 156.42 9.816H154.428C154.284 8.936 153.9 8.256 153.276 7.776C152.668 7.296 151.94 7.056 151.092 7.056C149.956 7.056 149.052 7.472 148.38 8.304C147.708 9.12 147.372 10.288 147.372 11.808C147.372 13.312 147.708 14.48 148.38 15.312C149.068 16.144 149.972 16.56 151.092 16.56C151.94 16.56 152.676 16.312 153.3 15.816C153.924 15.32 154.308 14.632 154.452 13.752H156.42C156.212 15.144 155.62 16.248 154.644 17.064C153.684 17.88 152.5 18.288 151.092 18.288ZM160.439 3.744H158.399V1.392H160.439V3.744ZM160.391 18H158.471V5.616H160.391V18ZM176.308 5.328C177.652 5.328 178.692 5.72 179.428 6.504C180.18 7.272 180.556 8.304 180.556 9.6V18H178.636V9.792C178.636 7.968 177.772 7.056 176.044 7.056C175.132 7.056 174.372 7.424 173.764 8.16C173.172 8.88 172.876 9.904 172.876 11.232V18H170.956V9.792C170.956 7.968 170.092 7.056 168.364 7.056C167.468 7.056 166.716 7.424 166.108 8.16C165.5 8.88 165.196 9.904 165.196 11.232V18H163.276V5.616H165.1V7.44C165.916 6.032 167.108 5.328 168.676 5.328C170.532 5.328 171.804 6.104 172.492 7.656C173.356 6.104 174.628 5.328 176.308 5.328ZM194.232 11.808V12.48H184.824C184.92 13.824 185.296 14.84 185.952 15.528C186.608 16.2 187.504 16.536 188.64 16.536C190.352 16.536 191.448 15.768 191.928 14.232H193.92C193.584 15.48 192.96 16.472 192.048 17.208C191.136 17.928 189.984 18.288 188.592 18.288C186.88 18.288 185.496 17.704 184.44 16.536C183.368 15.368 182.832 13.792 182.832 11.808C182.832 9.856 183.36 8.288 184.416 7.104C185.456 5.92 186.832 5.328 188.544 5.328C190.32 5.328 191.712 5.944 192.72 7.176C193.728 8.408 194.232 9.952 194.232 11.808ZM188.544 7.08C187.536 7.08 186.712 7.4 186.072 8.04C185.432 8.664 185.032 9.568 184.872 10.752H192.168C192.072 9.664 191.704 8.784 191.064 8.112C190.424 7.424 189.584 7.08 188.544 7.08ZM202.222 5.328C203.598 5.328 204.67 5.704 205.438 6.456C206.206 7.208 206.59 8.264 206.59 9.624V18H204.67V9.816C204.67 7.976 203.726 7.056 201.838 7.056C200.942 7.056 200.15 7.392 199.462 8.064C198.774 8.736 198.43 9.712 198.43 10.992V18H196.51V5.616H198.334V7.464C199.278 6.04 200.574 5.328 202.222 5.328ZM214.427 5.616V7.296H211.883V15.336C211.883 16.04 212.355 16.392 213.299 16.392H214.427V18C213.899 18.048 213.443 18.072 213.059 18.072C210.995 18.072 209.963 17.216 209.963 15.504V7.296H207.923V5.616H209.963V2.112H211.883V5.616H214.427ZM225.941 16.512C224.805 17.696 223.365 18.288 221.621 18.288C219.877 18.288 218.437 17.696 217.301 16.512C216.181 15.344 215.621 13.776 215.621 11.808C215.621 9.84 216.181 8.272 217.301 7.104C218.437 5.92 219.877 5.328 221.621 5.328C223.365 5.328 224.805 5.92 225.941 7.104C227.061 8.272 227.621 9.84 227.621 11.808C227.621 13.776 227.061 15.344 225.941 16.512ZM218.717 15.288C219.437 16.136 220.405 16.56 221.621 16.56C222.837 16.56 223.805 16.136 224.525 15.288C225.245 14.456 225.605 13.296 225.605 11.808C225.605 10.304 225.245 9.136 224.525 8.304C223.805 7.472 222.837 7.056 221.621 7.056C220.405 7.056 219.437 7.472 218.717 8.304C217.997 9.136 217.637 10.304 217.637 11.808C217.637 13.296 217.997 14.456 218.717 15.288ZM245.279 11.808V12.48H235.871C235.967 13.824 236.343 14.84 236.999 15.528C237.655 16.2 238.551 16.536 239.687 16.536C241.399 16.536 242.495 15.768 242.975 14.232H244.967C244.631 15.48 244.007 16.472 243.095 17.208C242.183 17.928 241.031 18.288 239.639 18.288C237.927 18.288 236.543 17.704 235.487 16.536C234.415 15.368 233.879 13.792 233.879 11.808C233.879 9.856 234.407 8.288 235.463 7.104C236.503 5.92 237.879 5.328 239.591 5.328C241.367 5.328 242.759 5.944 243.767 7.176C244.775 8.408 245.279 9.952 245.279 11.808ZM239.591 7.08C238.583 7.08 237.759 7.4 237.119 8.04C236.479 8.664 236.079 9.568 235.919 10.752H243.215C243.119 9.664 242.751 8.784 242.111 8.112C241.471 7.424 240.631 7.08 239.591 7.08ZM260.589 5.328C261.933 5.328 262.973 5.72 263.709 6.504C264.461 7.272 264.837 8.304 264.837 9.6V18H262.917V9.792C262.917 7.968 262.053 7.056 260.325 7.056C259.413 7.056 258.653 7.424 258.045 8.16C257.453 8.88 257.157 9.904 257.157 11.232V18H255.237V9.792C255.237 7.968 254.373 7.056 252.645 7.056C251.749 7.056 250.997 7.424 250.389 8.16C249.781 8.88 249.477 9.904 249.477 11.232V18H247.557V5.616H249.381V7.44C250.197 6.032 251.389 5.328 252.957 5.328C254.813 5.328 256.085 6.104 256.773 7.656C257.637 6.104 258.909 5.328 260.589 5.328ZM277.924 2.544H276.82C275.716 2.544 275.164 3.128 275.164 4.296V5.616H277.804V7.296H275.164V18H273.244V7.296H271.204V5.616H273.244V4.344C273.244 2.024 274.396 0.863999 276.7 0.863999C277.004 0.863999 277.412 0.879999 277.924 0.912V2.544ZM289.138 16.44H289.834V18C289.514 18.048 289.162 18.072 288.778 18.072C287.482 18.072 286.786 17.48 286.69 16.296C285.826 17.624 284.482 18.288 282.658 18.288C281.298 18.288 280.226 17.976 279.442 17.352C278.674 16.712 278.29 15.816 278.29 14.664C278.29 12.424 279.818 11.144 282.874 10.824L284.65 10.632C285.946 10.488 286.594 9.92 286.594 8.928C286.594 8.24 286.378 7.744 285.946 7.44C285.53 7.136 284.818 6.984 283.81 6.984C282.738 6.984 281.962 7.168 281.482 7.536C281.018 7.888 280.754 8.52 280.69 9.432H278.77C278.93 6.696 280.61 5.328 283.81 5.328C286.914 5.328 288.466 6.528 288.466 8.928V15.84C288.466 16.24 288.69 16.44 289.138 16.44ZM282.754 16.656C283.778 16.656 284.674 16.344 285.442 15.72C286.21 15.112 286.594 14.24 286.594 13.104V11.64C286.242 11.912 285.698 12.088 284.962 12.168L283.162 12.384C282.122 12.512 281.378 12.752 280.93 13.104C280.498 13.456 280.282 13.96 280.282 14.616C280.282 15.256 280.49 15.76 280.906 16.128C281.322 16.48 281.938 16.656 282.754 16.656ZM296.481 5.616V7.296H293.937V15.336C293.937 16.04 294.409 16.392 295.353 16.392H296.481V18C295.953 18.048 295.497 18.072 295.113 18.072C293.049 18.072 292.017 17.216 292.017 15.504V7.296H289.977V5.616H292.017V2.112H293.937V5.616H296.481ZM306.67 12.624V5.616H308.59V18H306.766V16.152C305.822 17.576 304.526 18.288 302.878 18.288C301.502 18.288 300.43 17.912 299.662 17.16C298.894 16.408 298.51 15.352 298.51 13.992V5.616H300.43V13.8C300.43 15.64 301.374 16.56 303.262 16.56C304.158 16.56 304.95 16.224 305.638 15.552C306.326 14.88 306.67 13.904 306.67 12.624ZM317.279 5.424C317.599 5.424 317.815 5.432 317.927 5.448V7.296H317.447C316.167 7.296 315.167 7.616 314.447 8.256C313.743 8.88 313.391 9.776 313.391 10.944V18H311.471V5.616H313.295V7.8C314.127 6.216 315.455 5.424 317.279 5.424ZM329.006 16.44H329.702V18C329.382 18.048 329.03 18.072 328.646 18.072C327.35 18.072 326.654 17.48 326.558 16.296C325.694 17.624 324.35 18.288 322.526 18.288C321.166 18.288 320.094 17.976 319.31 17.352C318.542 16.712 318.158 15.816 318.158 14.664C318.158 12.424 319.686 11.144 322.742 10.824L324.518 10.632C325.814 10.488 326.462 9.92 326.462 8.928C326.462 8.24 326.246 7.744 325.814 7.44C325.398 7.136 324.686 6.984 323.678 6.984C322.606 6.984 321.83 7.168 321.35 7.536C320.886 7.888 320.622 8.52 320.558 9.432H318.638C318.798 6.696 320.478 5.328 323.678 5.328C326.782 5.328 328.334 6.528 328.334 8.928V15.84C328.334 16.24 328.558 16.44 329.006 16.44ZM322.622 16.656C323.646 16.656 324.542 16.344 325.31 15.72C326.078 15.112 326.462 14.24 326.462 13.104V11.64C326.11 11.912 325.566 12.088 324.83 12.168L323.03 12.384C321.99 12.512 321.246 12.752 320.798 13.104C320.366 13.456 320.15 13.96 320.15 14.616C320.15 15.256 320.358 15.76 320.774 16.128C321.19 16.48 321.806 16.656 322.622 16.656ZM344.425 5.328C345.769 5.328 346.809 5.72 347.545 6.504C348.297 7.272 348.673 8.304 348.673 9.6V18H346.753V9.792C346.753 7.968 345.889 7.056 344.161 7.056C343.249 7.056 342.489 7.424 341.881 8.16C341.289 8.88 340.993 9.904 340.993 11.232V18H339.073V9.792C339.073 7.968 338.209 7.056 336.481 7.056C335.585 7.056 334.833 7.424 334.225 8.16C333.617 8.88 333.313 9.904 333.313 11.232V18H331.393V5.616H333.217V7.44C334.033 6.032 335.225 5.328 336.793 5.328C338.649 5.328 339.921 6.104 340.609 7.656C341.473 6.104 342.745 5.328 344.425 5.328ZM362.349 11.808V12.48H352.941C353.037 13.824 353.413 14.84 354.069 15.528C354.725 16.2 355.621 16.536 356.757 16.536C358.469 16.536 359.565 15.768 360.045 14.232H362.037C361.701 15.48 361.077 16.472 360.165 17.208C359.253 17.928 358.101 18.288 356.709 18.288C354.997 18.288 353.613 17.704 352.557 16.536C351.485 15.368 350.949 13.792 350.949 11.808C350.949 9.856 351.477 8.288 352.533 7.104C353.573 5.92 354.949 5.328 356.661 5.328C358.437 5.328 359.829 5.944 360.837 7.176C361.845 8.408 362.349 9.952 362.349 11.808ZM356.661 7.08C355.653 7.08 354.829 7.4 354.189 8.04C353.549 8.664 353.149 9.568 352.989 10.752H360.285C360.189 9.664 359.821 8.784 359.181 8.112C358.541 7.424 357.701 7.08 356.661 7.08ZM370.34 5.328C371.716 5.328 372.788 5.704 373.556 6.456C374.324 7.208 374.708 8.264 374.708 9.624V18H372.788V9.816C372.788 7.976 371.844 7.056 369.956 7.056C369.06 7.056 368.268 7.392 367.58 8.064C366.892 8.736 366.548 9.712 366.548 10.992V18H364.628V5.616H366.452V7.464C367.396 6.04 368.692 5.328 370.34 5.328ZM382.544 5.616V7.296H380V15.336C380 16.04 380.472 16.392 381.416 16.392H382.544V18C382.016 18.048 381.56 18.072 381.176 18.072C379.112 18.072 378.08 17.216 378.08 15.504V7.296H376.04V5.616H378.08V2.112H380V5.616H382.544ZM394.058 16.512C392.922 17.696 391.482 18.288 389.738 18.288C387.994 18.288 386.554 17.696 385.418 16.512C384.298 15.344 383.738 13.776 383.738 11.808C383.738 9.84 384.298 8.272 385.418 7.104C386.554 5.92 387.994 5.328 389.738 5.328C391.482 5.328 392.922 5.92 394.058 7.104C395.178 8.272 395.738 9.84 395.738 11.808C395.738 13.776 395.178 15.344 394.058 16.512ZM386.834 15.288C387.554 16.136 388.522 16.56 389.738 16.56C390.954 16.56 391.922 16.136 392.642 15.288C393.362 14.456 393.722 13.296 393.722 11.808C393.722 10.304 393.362 9.136 392.642 8.304C391.922 7.472 390.954 7.056 389.738 7.056C388.522 7.056 387.554 7.472 386.834 8.304C386.114 9.136 385.754 10.304 385.754 11.808C385.754 13.296 386.114 14.456 386.834 15.288ZM399.129 18H396.705V15.6H399.129V18ZM421.133 18H418.997L417.005 13.032H409.229L407.261 18H405.149L411.965 0.912H414.221L421.133 18ZM410.021 11.016L409.949 11.208H416.285L416.189 10.992C415.789 10.016 414.749 7.384 413.069 3.096C411.933 6.136 410.917 8.776 410.021 11.016ZM442.414 18H440.278L438.286 13.032H430.51L428.542 18H426.43L433.246 0.912H435.502L442.414 18ZM431.302 11.016L431.23 11.208H437.566L437.47 10.992C437.07 10.016 436.03 7.384 434.35 3.096C433.214 6.136 432.198 8.776 431.302 11.016ZM449.795 5.424C450.115 5.424 450.331 5.432 450.443 5.448V7.296H449.963C448.683 7.296 447.683 7.616 446.963 8.256C446.259 8.88 445.907 9.776 445.907 10.944V18H443.987V5.616H445.811V7.8C446.643 6.216 447.971 5.424 449.795 5.424ZM465.269 5.328C466.613 5.328 467.653 5.72 468.389 6.504C469.141 7.272 469.517 8.304 469.517 9.6V18H467.597V9.792C467.597 7.968 466.733 7.056 465.005 7.056C464.093 7.056 463.333 7.424 462.725 8.16C462.133 8.88 461.837 9.904 461.837 11.232V18H459.917V9.792C459.917 7.968 459.053 7.056 457.325 7.056C456.429 7.056 455.677 7.424 455.069 8.16C454.461 8.88 454.157 9.904 454.157 11.232V18H452.237V5.616H454.061V7.44C454.877 6.032 456.069 5.328 457.637 5.328C459.493 5.328 460.765 6.104 461.453 7.656C462.317 6.104 463.589 5.328 465.269 5.328ZM482.113 16.512C480.977 17.696 479.537 18.288 477.793 18.288C476.049 18.288 474.609 17.696 473.473 16.512C472.353 15.344 471.793 13.776 471.793 11.808C471.793 9.84 472.353 8.272 473.473 7.104C474.609 5.92 476.049 5.328 477.793 5.328C479.537 5.328 480.977 5.92 482.113 7.104C483.233 8.272 483.793 9.84 483.793 11.808C483.793 13.776 483.233 15.344 482.113 16.512ZM474.889 15.288C475.609 16.136 476.577 16.56 477.793 16.56C479.009 16.56 479.977 16.136 480.697 15.288C481.417 14.456 481.777 13.296 481.777 11.808C481.777 10.304 481.417 9.136 480.697 8.304C479.977 7.472 479.009 7.056 477.793 7.056C476.577 7.056 475.609 7.472 474.889 8.304C474.169 9.136 473.809 10.304 473.809 11.808C473.809 13.296 474.169 14.456 474.889 15.288ZM500.779 16.44H501.475V18C501.155 18.048 500.803 18.072 500.419 18.072C499.123 18.072 498.427 17.48 498.331 16.296C497.467 17.624 496.123 18.288 494.299 18.288C492.939 18.288 491.867 17.976 491.083 17.352C490.315 16.712 489.931 15.816 489.931 14.664C489.931 12.424 491.459 11.144 494.515 10.824L496.291 10.632C497.587 10.488 498.235 9.92 498.235 8.928C498.235 8.24 498.019 7.744 497.587 7.44C497.171 7.136 496.459 6.984 495.451 6.984C494.379 6.984 493.603 7.168 493.123 7.536C492.659 7.888 492.395 8.52 492.331 9.432H490.411C490.571 6.696 492.251 5.328 495.451 5.328C498.555 5.328 500.107 6.528 500.107 8.928V15.84C500.107 16.24 500.331 16.44 500.779 16.44ZM494.395 16.656C495.419 16.656 496.315 16.344 497.083 15.72C497.851 15.112 498.235 14.24 498.235 13.104V11.64C497.883 11.912 497.339 12.088 496.603 12.168L494.803 12.384C493.763 12.512 493.019 12.752 492.571 13.104C492.139 13.456 491.923 13.96 491.923 14.616C491.923 15.256 492.131 15.76 492.547 16.128C492.963 16.48 493.579 16.656 494.395 16.656ZM508.122 5.616V7.296H505.578V15.336C505.578 16.04 506.05 16.392 506.994 16.392H508.122V18C507.594 18.048 507.138 18.072 506.754 18.072C504.69 18.072 503.658 17.216 503.658 15.504V7.296H501.618V5.616H503.658V2.112H505.578V5.616H508.122ZM518.311 12.624V5.616H520.231V18H518.407V16.152C517.463 17.576 516.167 18.288 514.519 18.288C513.143 18.288 512.071 17.912 511.303 17.16C510.535 16.408 510.151 15.352 510.151 13.992V5.616H512.071V13.8C512.071 15.64 513.015 16.56 514.903 16.56C515.799 16.56 516.591 16.224 517.279 15.552C517.967 14.88 518.311 13.904 518.311 12.624ZM533.24 16.44H533.936V18C533.616 18.048 533.264 18.072 532.88 18.072C531.584 18.072 530.888 17.48 530.792 16.296C529.928 17.624 528.584 18.288 526.76 18.288C525.4 18.288 524.328 17.976 523.544 17.352C522.776 16.712 522.392 15.816 522.392 14.664C522.392 12.424 523.92 11.144 526.976 10.824L528.752 10.632C530.048 10.488 530.696 9.92 530.696 8.928C530.696 8.24 530.48 7.744 530.048 7.44C529.632 7.136 528.92 6.984 527.912 6.984C526.84 6.984 526.064 7.168 525.584 7.536C525.12 7.888 524.856 8.52 524.792 9.432H522.872C523.032 6.696 524.712 5.328 527.912 5.328C531.016 5.328 532.568 6.528 532.568 8.928V15.84C532.568 16.24 532.792 16.44 533.24 16.44ZM526.856 16.656C527.88 16.656 528.776 16.344 529.544 15.72C530.312 15.112 530.696 14.24 530.696 13.104V11.64C530.344 11.912 529.8 12.088 529.064 12.168L527.264 12.384C526.224 12.512 525.48 12.752 525.032 13.104C524.6 13.456 524.384 13.96 524.384 14.616C524.384 15.256 524.592 15.76 525.008 16.128C525.424 16.48 526.04 16.656 526.856 16.656ZM6.576 50.288C4.864 50.288 3.48 49.696 2.424 48.512C1.368 47.328 0.84 45.76 0.84 43.808C0.84 41.824 1.368 40.248 2.424 39.08C3.448 37.912 4.832 37.328 6.576 37.328C8.048 37.328 9.256 37.728 10.2 38.528C11.144 39.328 11.712 40.424 11.904 41.816H9.912C9.768 40.936 9.384 40.256 8.76 39.776C8.152 39.296 7.424 39.056 6.576 39.056C5.44 39.056 4.536 39.472 3.864 40.304C3.192 41.12 2.856 42.288 2.856 43.808C2.856 45.312 3.192 46.48 3.864 47.312C4.552 48.144 5.456 48.56 6.576 48.56C7.424 48.56 8.16 48.312 8.784 47.816C9.408 47.32 9.792 46.632 9.936 45.752H11.904C11.696 47.144 11.104 48.248 10.128 49.064C9.168 49.88 7.984 50.288 6.576 50.288ZM23.6756 48.512C22.5396 49.696 21.0996 50.288 19.3556 50.288C17.6116 50.288 16.1716 49.696 15.0356 48.512C13.9156 47.344 13.3556 45.776 13.3556 43.808C13.3556 41.84 13.9156 40.272 15.0356 39.104C16.1716 37.92 17.6116 37.328 19.3556 37.328C21.0996 37.328 22.5396 37.92 23.6756 39.104C24.7956 40.272 25.3556 41.84 25.3556 43.808C25.3556 45.776 24.7956 47.344 23.6756 48.512ZM16.4516 47.288C17.1716 48.136 18.1396 48.56 19.3556 48.56C20.5716 48.56 21.5396 48.136 22.2596 47.288C22.9796 46.456 23.3396 45.296 23.3396 43.808C23.3396 42.304 22.9796 41.136 22.2596 40.304C21.5396 39.472 20.5716 39.056 19.3556 39.056C18.1396 39.056 17.1716 39.472 16.4516 40.304C15.7316 41.136 15.3716 42.304 15.3716 43.808C15.3716 45.296 15.7316 46.456 16.4516 47.288ZM40.6751 37.328C42.0191 37.328 43.0591 37.72 43.7951 38.504C44.5471 39.272 44.9231 40.304 44.9231 41.6V50H43.0031V41.792C43.0031 39.968 42.1391 39.056 40.4111 39.056C39.4991 39.056 38.7391 39.424 38.1311 40.16C37.5391 40.88 37.2431 41.904 37.2431 43.232V50H35.3231V41.792C35.3231 39.968 34.4591 39.056 32.7311 39.056C31.8351 39.056 31.0831 39.424 30.4751 40.16C29.8671 40.88 29.5631 41.904 29.5631 43.232V50H27.6431V37.616H29.4671V39.44C30.2831 38.032 31.4751 37.328 33.0431 37.328C34.8991 37.328 36.1711 38.104 36.8591 39.656C37.7231 38.104 38.9951 37.328 40.6751 37.328ZM57.5194 48.512C56.3834 49.696 54.9434 50.288 53.1994 50.288C51.4554 50.288 50.0154 49.696 48.8794 48.512C47.7594 47.344 47.1994 45.776 47.1994 43.808C47.1994 41.84 47.7594 40.272 48.8794 39.104C50.0154 37.92 51.4554 37.328 53.1994 37.328C54.9434 37.328 56.3834 37.92 57.5194 39.104C58.6394 40.272 59.1994 41.84 59.1994 43.808C59.1994 45.776 58.6394 47.344 57.5194 48.512ZM50.2954 47.288C51.0154 48.136 51.9834 48.56 53.1994 48.56C54.4154 48.56 55.3834 48.136 56.1034 47.288C56.8234 46.456 57.1834 45.296 57.1834 43.808C57.1834 42.304 56.8234 41.136 56.1034 40.304C55.3834 39.472 54.4154 39.056 53.1994 39.056C51.9834 39.056 51.0154 39.472 50.2954 40.304C49.5754 41.136 49.2154 42.304 49.2154 43.808C49.2154 45.296 49.5754 46.456 50.2954 47.288ZM70.4252 50.288C67.1132 50.288 65.3612 48.88 65.1692 46.064H67.1132C67.2252 46.992 67.5292 47.656 68.0252 48.056C68.5372 48.44 69.3372 48.632 70.4252 48.632C72.4092 48.632 73.4012 47.992 73.4012 46.712C73.4012 46.152 73.1932 45.728 72.7772 45.44C72.3772 45.152 71.6412 44.904 70.5692 44.696L69.4172 44.48C66.8412 44 65.5532 42.784 65.5532 40.832C65.5532 39.76 65.9532 38.912 66.7532 38.288C67.5692 37.648 68.6732 37.328 70.0652 37.328C73.3452 37.328 75.0252 38.696 75.1052 41.432H73.1852C73.1372 40.536 72.8652 39.904 72.3692 39.536C71.8732 39.168 71.1052 38.984 70.0652 38.984C69.2332 38.984 68.5932 39.144 68.1452 39.464C67.6972 39.784 67.4732 40.232 67.4732 40.808C67.4732 41.352 67.6652 41.76 68.0492 42.032C68.4332 42.304 69.0732 42.536 69.9692 42.728L71.0732 42.944C72.5932 43.248 73.6812 43.68 74.3372 44.24C75.0092 44.8 75.3452 45.584 75.3452 46.592C75.3452 47.76 74.9052 48.672 74.0252 49.328C73.1612 49.968 71.9612 50.288 70.4252 50.288ZM88.0603 43.808V44.48H78.6523C78.7483 45.824 79.1243 46.84 79.7803 47.528C80.4363 48.2 81.3323 48.536 82.4683 48.536C84.1803 48.536 85.2763 47.768 85.7563 46.232H87.7483C87.4123 47.48 86.7883 48.472 85.8763 49.208C84.9643 49.928 83.8123 50.288 82.4203 50.288C80.7083 50.288 79.3243 49.704 78.2683 48.536C77.1963 47.368 76.6603 45.792 76.6603 43.808C76.6603 41.856 77.1883 40.288 78.2443 39.104C79.2843 37.92 80.6603 37.328 82.3723 37.328C84.1483 37.328 85.5403 37.944 86.5483 39.176C87.5563 40.408 88.0603 41.952 88.0603 43.808ZM82.3723 39.08C81.3643 39.08 80.5403 39.4 79.9003 40.04C79.2603 40.664 78.8603 41.568 78.7003 42.752H85.9963C85.9003 41.664 85.5323 40.784 84.8923 40.112C84.2523 39.424 83.4123 39.08 82.3723 39.08ZM98.1469 44.624V37.616H100.067V50H98.2429V48.152C97.2989 49.576 96.0029 50.288 94.3549 50.288C92.9789 50.288 91.9069 49.912 91.1389 49.16C90.3709 48.408 89.9869 47.352 89.9869 45.992V37.616H91.9069V45.8C91.9069 47.64 92.8509 48.56 94.7389 48.56C95.6349 48.56 96.4269 48.224 97.1149 47.552C97.8029 46.88 98.1469 45.904 98.1469 44.624ZM113.59 37.328C115.334 37.328 116.734 37.912 117.79 39.08C118.83 40.264 119.35 41.84 119.35 43.808C119.35 45.76 118.83 47.328 117.79 48.512C116.734 49.696 115.334 50.288 113.59 50.288C111.75 50.288 110.334 49.552 109.342 48.08V50H107.518V32.912H109.438V39.392C110.43 38.016 111.814 37.328 113.59 37.328ZM113.35 48.56C114.55 48.56 115.51 48.128 116.23 47.264C116.966 46.384 117.334 45.2 117.334 43.712C117.334 42.256 116.974 41.12 116.254 40.304C115.55 39.472 114.582 39.056 113.35 39.056C112.134 39.056 111.166 39.472 110.446 40.304C109.726 41.136 109.366 42.304 109.366 43.808C109.366 45.296 109.726 46.456 110.446 47.288C111.166 48.136 112.134 48.56 113.35 48.56ZM127.436 37.424C127.756 37.424 127.972 37.432 128.084 37.448V39.296H127.604C126.324 39.296 125.324 39.616 124.604 40.256C123.9 40.88 123.548 41.776 123.548 42.944V50H121.628V37.616H123.452V39.8C124.284 38.216 125.612 37.424 127.436 37.424ZM139.162 48.44H139.858V50C139.538 50.048 139.186 50.072 138.802 50.072C137.506 50.072 136.81 49.48 136.714 48.296C135.85 49.624 134.506 50.288 132.682 50.288C131.322 50.288 130.25 49.976 129.466 49.352C128.698 48.712 128.314 47.816 128.314 46.664C128.314 44.424 129.842 43.144 132.898 42.824L134.674 42.632C135.97 42.488 136.618 41.92 136.618 40.928C136.618 40.24 136.402 39.744 135.97 39.44C135.554 39.136 134.842 38.984 133.834 38.984C132.762 38.984 131.986 39.168 131.506 39.536C131.042 39.888 130.778 40.52 130.714 41.432H128.794C128.954 38.696 130.634 37.328 133.834 37.328C136.938 37.328 138.49 38.528 138.49 40.928V47.84C138.49 48.24 138.714 48.44 139.162 48.44ZM132.778 48.656C133.802 48.656 134.698 48.344 135.466 47.72C136.234 47.112 136.618 46.24 136.618 45.104V43.64C136.266 43.912 135.722 44.088 134.986 44.168L133.186 44.384C132.146 44.512 131.402 44.752 130.954 45.104C130.522 45.456 130.306 45.96 130.306 46.616C130.306 47.256 130.514 47.76 130.93 48.128C131.346 48.48 131.962 48.656 132.778 48.656ZM146.568 48.56C147.416 48.56 148.152 48.312 148.776 47.816C149.4 47.32 149.784 46.632 149.928 45.752H151.896C151.72 46.952 151.256 47.944 150.504 48.728C149.768 49.512 148.824 50 147.672 50.192L146.688 51.32H146.904C147.56 51.32 148.08 51.496 148.464 51.848C148.864 52.2 149.064 52.656 149.064 53.216C149.064 54.752 147.968 55.52 145.776 55.52C145.28 55.52 144.792 55.472 144.312 55.376V54.272C144.76 54.336 145.224 54.368 145.704 54.368C146.168 54.368 146.536 54.272 146.808 54.08C147.08 53.888 147.216 53.616 147.216 53.264C147.216 52.608 146.76 52.28 145.848 52.28C145.544 52.28 145.32 52.288 145.176 52.304V51.392L146.064 50.264C144.464 50.136 143.192 49.496 142.248 48.344C141.304 47.176 140.832 45.664 140.832 43.808C140.832 41.824 141.36 40.248 142.416 39.08C143.44 37.912 144.824 37.328 146.568 37.328C148.04 37.328 149.248 37.728 150.192 38.528C151.136 39.328 151.704 40.424 151.896 41.816H149.904C149.76 40.936 149.376 40.256 148.752 39.776C148.144 39.296 147.416 39.056 146.568 39.056C145.432 39.056 144.528 39.472 143.856 40.304C143.184 41.12 142.848 42.288 142.848 43.808C142.848 45.312 143.184 46.48 143.856 47.312C144.544 48.144 145.448 48.56 146.568 48.56ZM163.668 48.512C162.532 49.696 161.092 50.288 159.348 50.288C157.604 50.288 156.164 49.696 155.028 48.512C153.908 47.344 153.348 45.776 153.348 43.808C153.348 41.84 153.908 40.272 155.028 39.104C156.164 37.92 157.604 37.328 159.348 37.328C161.092 37.328 162.532 37.92 163.668 39.104C164.788 40.272 165.348 41.84 165.348 43.808C165.348 45.776 164.788 47.344 163.668 48.512ZM156.444 47.288C157.164 48.136 158.132 48.56 159.348 48.56C160.564 48.56 161.532 48.136 162.252 47.288C162.972 46.456 163.332 45.296 163.332 43.808C163.332 42.304 162.972 41.136 162.252 40.304C161.532 39.472 160.564 39.056 159.348 39.056C158.132 39.056 157.164 39.472 156.444 40.304C155.724 41.136 155.364 42.304 155.364 43.808C155.364 45.296 155.724 46.456 156.444 47.288ZM183.006 43.808V44.48H173.598C173.694 45.824 174.07 46.84 174.726 47.528C175.382 48.2 176.278 48.536 177.414 48.536C179.126 48.536 180.222 47.768 180.702 46.232H182.694C182.358 47.48 181.734 48.472 180.822 49.208C179.91 49.928 178.758 50.288 177.366 50.288C175.654 50.288 174.27 49.704 173.214 48.536C172.142 47.368 171.606 45.792 171.606 43.808C171.606 41.856 172.134 40.288 173.19 39.104C174.23 37.92 175.606 37.328 177.318 37.328C179.094 37.328 180.486 37.944 181.494 39.176C182.502 40.408 183.006 41.952 183.006 43.808ZM177.318 39.08C176.31 39.08 175.486 39.4 174.846 40.04C174.206 40.664 173.806 41.568 173.646 42.752H180.942C180.846 41.664 180.478 40.784 179.838 40.112C179.198 39.424 178.358 39.08 177.318 39.08ZM189.535 50.288C186.223 50.288 184.471 48.88 184.279 46.064H186.223C186.335 46.992 186.639 47.656 187.135 48.056C187.647 48.44 188.447 48.632 189.535 48.632C191.519 48.632 192.511 47.992 192.511 46.712C192.511 46.152 192.303 45.728 191.887 45.44C191.487 45.152 190.751 44.904 189.679 44.696L188.527 44.48C185.951 44 184.663 42.784 184.663 40.832C184.663 39.76 185.063 38.912 185.863 38.288C186.679 37.648 187.783 37.328 189.175 37.328C192.455 37.328 194.135 38.696 194.215 41.432H192.295C192.247 40.536 191.975 39.904 191.479 39.536C190.983 39.168 190.215 38.984 189.175 38.984C188.343 38.984 187.703 39.144 187.255 39.464C186.807 39.784 186.583 40.232 186.583 40.808C186.583 41.352 186.775 41.76 187.159 42.032C187.543 42.304 188.183 42.536 189.079 42.728L190.183 42.944C191.703 43.248 192.791 43.68 193.447 44.24C194.119 44.8 194.455 45.584 194.455 46.592C194.455 47.76 194.015 48.672 193.135 49.328C192.271 49.968 191.071 50.288 189.535 50.288ZM201.559 37.616V39.296H199.015V47.336C199.015 48.04 199.487 48.392 200.431 48.392H201.559V50C201.031 50.048 200.575 50.072 200.191 50.072C198.127 50.072 197.095 49.216 197.095 47.504V39.296H195.055V37.616H197.095V34.112H199.015V37.616H201.559ZM209.396 37.424C209.716 37.424 209.932 37.432 210.044 37.448V39.296H209.564C208.284 39.296 207.284 39.616 206.564 40.256C205.86 40.88 205.508 41.776 205.508 42.944V50H203.588V37.616H205.412V39.8C206.244 38.216 207.572 37.424 209.396 37.424ZM221.123 48.44H221.819V50C221.499 50.048 221.147 50.072 220.763 50.072C219.467 50.072 218.771 49.48 218.675 48.296C217.811 49.624 216.467 50.288 214.643 50.288C213.283 50.288 212.211 49.976 211.427 49.352C210.659 48.712 210.275 47.816 210.275 46.664C210.275 44.424 211.803 43.144 214.859 42.824L216.635 42.632C217.931 42.488 218.579 41.92 218.579 40.928C218.579 40.24 218.363 39.744 217.931 39.44C217.515 39.136 216.803 38.984 215.795 38.984C214.723 38.984 213.947 39.168 213.467 39.536C213.003 39.888 212.739 40.52 212.675 41.432H210.755C210.915 38.696 212.595 37.328 215.795 37.328C218.899 37.328 220.451 38.528 220.451 40.928V47.84C220.451 48.24 220.675 48.44 221.123 48.44ZM214.739 48.656C215.763 48.656 216.659 48.344 217.427 47.72C218.195 47.112 218.579 46.24 218.579 45.104V43.64C218.227 43.912 217.683 44.088 216.947 44.168L215.147 44.384C214.107 44.512 213.363 44.752 212.915 45.104C212.483 45.456 212.267 45.96 212.267 46.616C212.267 47.256 212.475 47.76 212.891 48.128C213.307 48.48 213.923 48.656 214.739 48.656ZM228.466 37.616V39.296H225.922V47.336C225.922 48.04 226.394 48.392 227.338 48.392H228.466V50C227.938 50.048 227.482 50.072 227.098 50.072C225.034 50.072 224.002 49.216 224.002 47.504V39.296H221.962V37.616H224.002V34.112H225.922V37.616H228.466ZM236.644 32.288H239.236L236.284 35.744H234.58L236.644 32.288ZM241.06 43.808V44.48H231.652C231.748 45.824 232.124 46.84 232.78 47.528C233.436 48.2 234.332 48.536 235.468 48.536C237.18 48.536 238.276 47.768 238.756 46.232H240.748C240.412 47.48 239.788 48.472 238.876 49.208C237.964 49.928 236.812 50.288 235.42 50.288C233.708 50.288 232.324 49.704 231.268 48.536C230.196 47.368 229.66 45.792 229.66 43.808C229.66 41.856 230.188 40.288 231.244 39.104C232.284 37.92 233.66 37.328 235.372 37.328C237.148 37.328 238.54 37.944 239.548 39.176C240.556 40.408 241.06 41.952 241.06 43.808ZM235.372 39.08C234.364 39.08 233.54 39.4 232.9 40.04C232.26 40.664 231.86 41.568 231.7 42.752H238.996C238.9 41.664 238.532 40.784 237.892 40.112C237.252 39.424 236.412 39.08 235.372 39.08ZM252.746 39.416V37.616H254.57V49.52C254.57 51.216 254.074 52.552 253.082 53.528C252.09 54.504 250.666 54.992 248.81 54.992C247.274 54.992 246.042 54.64 245.114 53.936C244.186 53.232 243.658 52.256 243.53 51.008H245.45C245.69 52.576 246.81 53.36 248.81 53.36C251.37 53.36 252.65 52.08 252.65 49.52V48.32C251.674 49.632 250.29 50.288 248.498 50.288C246.754 50.288 245.362 49.696 244.322 48.512C243.266 47.328 242.738 45.76 242.738 43.808C242.738 41.824 243.266 40.248 244.322 39.08C245.346 37.912 246.738 37.328 248.498 37.328C250.338 37.328 251.754 38.024 252.746 39.416ZM248.738 48.56C249.954 48.56 250.922 48.136 251.642 47.288C252.362 46.44 252.722 45.28 252.722 43.808C252.722 42.336 252.362 41.176 251.642 40.328C250.922 39.48 249.954 39.056 248.738 39.056C247.538 39.056 246.57 39.488 245.834 40.352C245.114 41.216 244.754 42.368 244.754 43.808C244.754 45.248 245.114 46.4 245.834 47.264C246.57 48.128 247.538 48.56 248.738 48.56ZM259.416 35.744H257.376V33.392H259.416V35.744ZM259.368 50H257.448V37.616H259.368V50ZM267.389 50.288C265.677 50.288 264.293 49.696 263.237 48.512C262.181 47.328 261.653 45.76 261.653 43.808C261.653 41.824 262.181 40.248 263.237 39.08C264.261 37.912 265.645 37.328 267.389 37.328C268.861 37.328 270.069 37.728 271.013 38.528C271.957 39.328 272.525 40.424 272.717 41.816H270.725C270.581 40.936 270.197 40.256 269.573 39.776C268.965 39.296 268.237 39.056 267.389 39.056C266.253 39.056 265.349 39.472 264.677 40.304C264.005 41.12 263.669 42.288 263.669 43.808C263.669 45.312 264.005 46.48 264.677 47.312C265.365 48.144 266.269 48.56 267.389 48.56C268.237 48.56 268.973 48.312 269.597 47.816C270.221 47.32 270.605 46.632 270.749 45.752H272.717C272.509 47.144 271.917 48.248 270.941 49.064C269.981 49.88 268.797 50.288 267.389 50.288ZM284.488 48.512C283.352 49.696 281.912 50.288 280.168 50.288C278.424 50.288 276.984 49.696 275.848 48.512C274.728 47.344 274.168 45.776 274.168 43.808C274.168 41.84 274.728 40.272 275.848 39.104C276.984 37.92 278.424 37.328 280.168 37.328C281.912 37.328 283.352 37.92 284.488 39.104C285.608 40.272 286.168 41.84 286.168 43.808C286.168 45.776 285.608 47.344 284.488 48.512ZM277.264 47.288C277.984 48.136 278.952 48.56 280.168 48.56C281.384 48.56 282.352 48.136 283.072 47.288C283.792 46.456 284.152 45.296 284.152 43.808C284.152 42.304 283.792 41.136 283.072 40.304C282.352 39.472 281.384 39.056 280.168 39.056C278.952 39.056 277.984 39.472 277.264 40.304C276.544 41.136 276.184 42.304 276.184 43.808C276.184 45.296 276.544 46.456 277.264 47.288ZM287.135 50V47.6H289.559V50.216C289.559 52.136 288.831 53.168 287.375 53.312L287.135 53.336V52.04L287.303 52.016C287.895 51.952 288.191 51.408 288.191 50.384V50H287.135ZM298.627 35.744H296.587V33.392H298.627V35.744ZM298.579 50H296.659V37.616H298.579V50ZM307.175 37.328C308.551 37.328 309.623 37.704 310.391 38.456C311.159 39.208 311.543 40.264 311.543 41.624V50H309.623V41.816C309.623 39.976 308.679 39.056 306.791 39.056C305.895 39.056 305.103 39.392 304.415 40.064C303.727 40.736 303.383 41.712 303.383 42.992V50H301.463V37.616H303.287V39.464C304.231 38.04 305.527 37.328 307.175 37.328ZM319.38 37.616V39.296H316.836V47.336C316.836 48.04 317.308 48.392 318.252 48.392H319.38V50C318.852 50.048 318.396 50.072 318.012 50.072C315.948 50.072 314.916 49.216 314.916 47.504V39.296H312.876V37.616H314.916V34.112H316.836V37.616H319.38ZM331.974 43.808V44.48H322.566C322.662 45.824 323.038 46.84 323.694 47.528C324.35 48.2 325.246 48.536 326.382 48.536C328.094 48.536 329.19 47.768 329.67 46.232H331.662C331.326 47.48 330.702 48.472 329.79 49.208C328.878 49.928 327.726 50.288 326.334 50.288C324.622 50.288 323.238 49.704 322.182 48.536C321.11 47.368 320.574 45.792 320.574 43.808C320.574 41.856 321.102 40.288 322.158 39.104C323.198 37.92 324.574 37.328 326.286 37.328C328.062 37.328 329.454 37.944 330.462 39.176C331.47 40.408 331.974 41.952 331.974 43.808ZM326.286 39.08C325.278 39.08 324.454 39.4 323.814 40.04C323.174 40.664 322.774 41.568 322.614 42.752H329.91C329.814 41.664 329.446 40.784 328.806 40.112C328.166 39.424 327.326 39.08 326.286 39.08ZM343.661 39.416V37.616H345.484V49.52C345.484 51.216 344.989 52.552 343.997 53.528C343.005 54.504 341.581 54.992 339.725 54.992C338.189 54.992 336.957 54.64 336.029 53.936C335.101 53.232 334.573 52.256 334.445 51.008H336.365C336.605 52.576 337.725 53.36 339.725 53.36C342.285 53.36 343.565 52.08 343.565 49.52V48.32C342.589 49.632 341.205 50.288 339.413 50.288C337.669 50.288 336.277 49.696 335.237 48.512C334.181 47.328 333.653 45.76 333.653 43.808C333.653 41.824 334.181 40.248 335.237 39.08C336.261 37.912 337.653 37.328 339.413 37.328C341.253 37.328 342.669 38.024 343.661 39.416ZM339.653 48.56C340.869 48.56 341.837 48.136 342.557 47.288C343.277 46.44 343.637 45.28 343.637 43.808C343.637 42.336 343.277 41.176 342.557 40.328C341.837 39.48 340.869 39.056 339.653 39.056C338.453 39.056 337.485 39.488 336.749 40.352C336.029 41.216 335.669 42.368 335.669 43.808C335.669 45.248 336.029 46.4 336.749 47.264C337.485 48.128 338.453 48.56 339.653 48.56ZM354.17 37.424C354.49 37.424 354.706 37.432 354.818 37.448V39.296H354.338C353.058 39.296 352.058 39.616 351.338 40.256C350.634 40.88 350.282 41.776 350.282 42.944V50H348.362V37.616H350.186V39.8C351.018 38.216 352.346 37.424 354.17 37.424ZM365.896 48.44H366.592V50C366.272 50.048 365.92 50.072 365.536 50.072C364.24 50.072 363.544 49.48 363.448 48.296C362.584 49.624 361.24 50.288 359.416 50.288C358.056 50.288 356.984 49.976 356.2 49.352C355.432 48.712 355.048 47.816 355.048 46.664C355.048 44.424 356.576 43.144 359.632 42.824L361.408 42.632C362.704 42.488 363.352 41.92 363.352 40.928C363.352 40.24 363.136 39.744 362.704 39.44C362.288 39.136 361.576 38.984 360.568 38.984C359.496 38.984 358.72 39.168 358.24 39.536C357.776 39.888 357.512 40.52 357.448 41.432H355.528C355.688 38.696 357.368 37.328 360.568 37.328C363.672 37.328 365.224 38.528 365.224 40.928V47.84C365.224 48.24 365.448 48.44 365.896 48.44ZM359.512 48.656C360.536 48.656 361.432 48.344 362.2 47.72C362.968 47.112 363.352 46.24 363.352 45.104V43.64C363 43.912 362.456 44.088 361.72 44.168L359.92 44.384C358.88 44.512 358.136 44.752 357.688 45.104C357.256 45.456 357.04 45.96 357.04 46.616C357.04 47.256 357.248 47.76 357.664 48.128C358.08 48.48 358.696 48.656 359.512 48.656ZM373.996 37.328C375.372 37.328 376.444 37.704 377.212 38.456C377.98 39.208 378.364 40.264 378.364 41.624V50H376.444V41.816C376.444 39.976 375.5 39.056 373.612 39.056C372.716 39.056 371.924 39.392 371.236 40.064C370.548 40.736 370.204 41.712 370.204 42.992V50H368.284V37.616H370.108V39.464C371.052 38.04 372.348 37.328 373.996 37.328ZM390.557 39.392V32.912H392.477V50H390.653V48.08C389.661 49.552 388.245 50.288 386.405 50.288C384.661 50.288 383.269 49.696 382.229 48.512C381.173 47.328 380.645 45.76 380.645 43.808C380.645 41.824 381.173 40.248 382.229 39.08C383.253 37.912 384.645 37.328 386.405 37.328C388.181 37.328 389.565 38.016 390.557 39.392ZM382.661 43.904C382.661 45.376 383.021 46.52 383.741 47.336C384.461 48.152 385.429 48.56 386.645 48.56C387.861 48.56 388.829 48.136 389.549 47.288C390.269 46.456 390.629 45.296 390.629 43.808C390.629 42.336 390.269 41.176 389.549 40.328C388.829 39.48 387.861 39.056 386.645 39.056C385.445 39.056 384.477 39.496 383.741 40.376C383.021 41.24 382.661 42.416 382.661 43.904ZM405.074 48.512C403.938 49.696 402.498 50.288 400.754 50.288C399.01 50.288 397.57 49.696 396.434 48.512C395.314 47.344 394.754 45.776 394.754 43.808C394.754 41.84 395.314 40.272 396.434 39.104C397.57 37.92 399.01 37.328 400.754 37.328C402.498 37.328 403.938 37.92 405.074 39.104C406.194 40.272 406.754 41.84 406.754 43.808C406.754 45.776 406.194 47.344 405.074 48.512ZM397.85 47.288C398.57 48.136 399.538 48.56 400.754 48.56C401.97 48.56 402.938 48.136 403.658 47.288C404.378 46.456 404.738 45.296 404.738 43.808C404.738 42.304 404.378 41.136 403.658 40.304C402.938 39.472 401.97 39.056 400.754 39.056C399.538 39.056 398.57 39.472 397.85 40.304C397.13 41.136 396.77 42.304 396.77 43.808C396.77 45.296 397.13 46.456 397.85 47.288ZM426.644 37.328C427.988 37.328 429.028 37.72 429.764 38.504C430.516 39.272 430.892 40.304 430.892 41.6V50H428.972V41.792C428.972 39.968 428.108 39.056 426.38 39.056C425.468 39.056 424.708 39.424 424.1 40.16C423.508 40.88 423.212 41.904 423.212 43.232V50H421.292V41.792C421.292 39.968 420.428 39.056 418.7 39.056C417.804 39.056 417.052 39.424 416.444 40.16C415.836 40.88 415.532 41.904 415.532 43.232V50H413.612V37.616H415.436V39.44C416.252 38.032 417.444 37.328 419.012 37.328C420.868 37.328 422.14 38.104 422.828 39.656C423.692 38.104 424.964 37.328 426.644 37.328ZM443.896 48.44H444.592V50C444.272 50.048 443.92 50.072 443.536 50.072C442.24 50.072 441.544 49.48 441.448 48.296C440.584 49.624 439.24 50.288 437.416 50.288C436.056 50.288 434.984 49.976 434.2 49.352C433.432 48.712 433.048 47.816 433.048 46.664C433.048 44.424 434.576 43.144 437.632 42.824L439.408 42.632C440.704 42.488 441.352 41.92 441.352 40.928C441.352 40.24 441.136 39.744 440.704 39.44C440.288 39.136 439.576 38.984 438.568 38.984C437.496 38.984 436.72 39.168 436.24 39.536C435.776 39.888 435.512 40.52 435.448 41.432H433.528C433.688 38.696 435.368 37.328 438.568 37.328C441.672 37.328 443.224 38.528 443.224 40.928V47.84C443.224 48.24 443.448 48.44 443.896 48.44ZM437.512 48.656C438.536 48.656 439.432 48.344 440.2 47.72C440.968 47.112 441.352 46.24 441.352 45.104V43.64C441 43.912 440.456 44.088 439.72 44.168L437.92 44.384C436.88 44.512 436.136 44.752 435.688 45.104C435.256 45.456 435.04 45.96 435.04 46.616C435.04 47.256 435.248 47.76 435.664 48.128C436.08 48.48 436.696 48.656 437.512 48.656ZM452.092 37.424C452.412 37.424 452.628 37.432 452.74 37.448V39.296H452.26C450.98 39.296 449.98 39.616 449.26 40.256C448.556 40.88 448.204 41.776 448.204 42.944V50H446.284V37.616H448.108V39.8C448.94 38.216 450.268 37.424 452.092 37.424ZM465.07 50H462.838L458.662 43.352L456.454 45.416V50H454.534V32.912H456.454V43.16L462.19 37.616H464.734L460.03 42.08L465.07 50ZM476.584 43.808V44.48H467.176C467.272 45.824 467.648 46.84 468.304 47.528C468.96 48.2 469.856 48.536 470.992 48.536C472.704 48.536 473.8 47.768 474.28 46.232H476.272C475.936 47.48 475.312 48.472 474.4 49.208C473.488 49.928 472.336 50.288 470.944 50.288C469.232 50.288 467.848 49.704 466.792 48.536C465.72 47.368 465.184 45.792 465.184 43.808C465.184 41.856 465.712 40.288 466.768 39.104C467.808 37.92 469.184 37.328 470.896 37.328C472.672 37.328 474.064 37.944 475.072 39.176C476.08 40.408 476.584 41.952 476.584 43.808ZM470.896 39.08C469.888 39.08 469.064 39.4 468.424 40.04C467.784 40.664 467.384 41.568 467.224 42.752H474.52C474.424 41.664 474.056 40.784 473.416 40.112C472.776 39.424 471.936 39.08 470.896 39.08ZM483.559 37.616V39.296H481.015V47.336C481.015 48.04 481.487 48.392 482.431 48.392H483.559V50C483.031 50.048 482.575 50.072 482.191 50.072C480.127 50.072 479.095 49.216 479.095 47.504V39.296H477.055V37.616H479.095V34.112H481.015V37.616H483.559ZM487.556 35.744H485.516V33.392H487.556V35.744ZM487.508 50H485.588V37.616H487.508V50ZM496.105 37.328C497.481 37.328 498.553 37.704 499.321 38.456C500.089 39.208 500.473 40.264 500.473 41.624V50H498.553V41.816C498.553 39.976 497.609 39.056 495.721 39.056C494.825 39.056 494.033 39.392 493.345 40.064C492.657 40.736 492.313 41.712 492.313 42.992V50H490.393V37.616H492.217V39.464C493.161 38.04 494.457 37.328 496.105 37.328ZM512.762 39.416V37.616H514.586V49.52C514.586 51.216 514.09 52.552 513.098 53.528C512.106 54.504 510.682 54.992 508.826 54.992C507.29 54.992 506.058 54.64 505.13 53.936C504.202 53.232 503.674 52.256 503.546 51.008H505.466C505.706 52.576 506.826 53.36 508.826 53.36C511.386 53.36 512.666 52.08 512.666 49.52V48.32C511.69 49.632 510.306 50.288 508.514 50.288C506.77 50.288 505.378 49.696 504.338 48.512C503.282 47.328 502.754 45.76 502.754 43.808C502.754 41.824 503.282 40.248 504.338 39.08C505.362 37.912 506.754 37.328 508.514 37.328C510.354 37.328 511.77 38.024 512.762 39.416ZM508.754 48.56C509.97 48.56 510.938 48.136 511.658 47.288C512.378 46.44 512.738 45.28 512.738 43.808C512.738 42.336 512.378 41.176 511.658 40.328C510.938 39.48 509.97 39.056 508.754 39.056C507.554 39.056 506.586 39.488 505.85 40.352C505.13 41.216 504.77 42.368 504.77 43.808C504.77 45.248 505.13 46.4 505.85 47.264C506.586 48.128 507.554 48.56 508.754 48.56ZM517.103 50V47.6H519.527V50.216C519.527 52.136 518.799 53.168 517.343 53.312L517.103 53.336V52.04L517.271 52.016C517.863 51.952 518.159 51.408 518.159 50.384V50H517.103ZM7.752 75.112L9.792 69.616H11.856L6.984 82H4.968L0.12 69.616H2.208L4.248 75.136C5.256 77.84 5.84 79.44 6 79.936C6.288 79.088 6.872 77.48 7.752 75.112ZM23.49 75.808V76.48H14.082C14.178 77.824 14.554 78.84 15.21 79.528C15.866 80.2 16.762 80.536 17.898 80.536C19.61 80.536 20.706 79.768 21.186 78.232H23.178C22.842 79.48 22.218 80.472 21.306 81.208C20.394 81.928 19.242 82.288 17.85 82.288C16.138 82.288 14.754 81.704 13.698 80.536C12.626 79.368 12.09 77.792 12.09 75.808C12.09 73.856 12.618 72.288 13.674 71.104C14.714 69.92 16.09 69.328 17.802 69.328C19.578 69.328 20.97 69.944 21.978 71.176C22.986 72.408 23.49 73.952 23.49 75.808ZM17.802 71.08C16.794 71.08 15.97 71.4 15.33 72.04C14.69 72.664 14.29 73.568 14.13 74.752H21.426C21.33 73.664 20.962 72.784 20.322 72.112C19.682 71.424 18.842 71.08 17.802 71.08ZM31.4801 69.328C32.8561 69.328 33.9281 69.704 34.6961 70.456C35.4641 71.208 35.8481 72.264 35.8481 73.624V82H33.9281V73.816C33.9281 71.976 32.9841 71.056 31.0961 71.056C30.2001 71.056 29.4081 71.392 28.7201 72.064C28.0321 72.736 27.6881 73.712 27.6881 74.992V82H25.7681V69.616H27.5921V71.464C28.5361 70.04 29.8321 69.328 31.4801 69.328ZM48.0411 71.392V64.912H49.9611V82H48.1371V80.08C47.1451 81.552 45.7291 82.288 43.8891 82.288C42.1451 82.288 40.7531 81.696 39.7131 80.512C38.6571 79.328 38.1291 77.76 38.1291 75.808C38.1291 73.824 38.6571 72.248 39.7131 71.08C40.7371 69.912 42.1291 69.328 43.8891 69.328C45.6651 69.328 47.0491 70.016 48.0411 71.392ZM40.1451 75.904C40.1451 77.376 40.5051 78.52 41.2251 79.336C41.9451 80.152 42.9131 80.56 44.1291 80.56C45.3451 80.56 46.3131 80.136 47.0331 79.288C47.7531 78.456 48.1131 77.296 48.1131 75.808C48.1131 74.336 47.7531 73.176 47.0331 72.328C46.3131 71.48 45.3451 71.056 44.1291 71.056C42.9291 71.056 41.9611 71.496 41.2251 72.376C40.5051 73.24 40.1451 74.416 40.1451 75.904ZM62.9664 80.44H63.6624V82C63.3424 82.048 62.9904 82.072 62.6064 82.072C61.3104 82.072 60.6144 81.48 60.5184 80.296C59.6544 81.624 58.3104 82.288 56.4864 82.288C55.1264 82.288 54.0544 81.976 53.2704 81.352C52.5024 80.712 52.1184 79.816 52.1184 78.664C52.1184 76.424 53.6464 75.144 56.7024 74.824L58.4784 74.632C59.7744 74.488 60.4224 73.92 60.4224 72.928C60.4224 72.24 60.2064 71.744 59.7744 71.44C59.3584 71.136 58.6464 70.984 57.6384 70.984C56.5664 70.984 55.7904 71.168 55.3104 71.536C54.8464 71.888 54.5824 72.52 54.5184 73.432H52.5984C52.7584 70.696 54.4384 69.328 57.6384 69.328C60.7424 69.328 62.2944 70.528 62.2944 72.928V79.84C62.2944 80.24 62.5184 80.44 62.9664 80.44ZM56.5824 80.656C57.6064 80.656 58.5024 80.344 59.2704 79.72C60.0384 79.112 60.4224 78.24 60.4224 77.104V75.64C60.0704 75.912 59.5264 76.088 58.7904 76.168L56.9904 76.384C55.9504 76.512 55.2064 76.752 54.7584 77.104C54.3264 77.456 54.1104 77.96 54.1104 78.616C54.1104 79.256 54.3184 79.76 54.7344 80.128C55.1504 80.48 55.7664 80.656 56.5824 80.656ZM69.7221 82.288C66.4101 82.288 64.6581 80.88 64.4661 78.064H66.4101C66.5221 78.992 66.8261 79.656 67.3221 80.056C67.8341 80.44 68.6341 80.632 69.7221 80.632C71.7061 80.632 72.6981 79.992 72.6981 78.712C72.6981 78.152 72.4901 77.728 72.0741 77.44C71.6741 77.152 70.9381 76.904 69.8661 76.696L68.7141 76.48C66.1381 76 64.8501 74.784 64.8501 72.832C64.8501 71.76 65.2501 70.912 66.0501 70.288C66.8661 69.648 67.9701 69.328 69.3621 69.328C72.6421 69.328 74.3221 70.696 74.4021 73.432H72.4821C72.4341 72.536 72.1621 71.904 71.6661 71.536C71.1701 71.168 70.4021 70.984 69.3621 70.984C68.5301 70.984 67.8901 71.144 67.4421 71.464C66.9941 71.784 66.7701 72.232 66.7701 72.808C66.7701 73.352 66.9621 73.76 67.3461 74.032C67.7301 74.304 68.3701 74.536 69.2661 74.728L70.3701 74.944C71.8901 75.248 72.9781 75.68 73.6341 76.24C74.3061 76.8 74.6421 77.584 74.6421 78.592C74.6421 79.76 74.2021 80.672 73.3221 81.328C72.4581 81.968 71.2581 82.288 69.7221 82.288ZM91.9275 75.808V76.48H82.5195C82.6155 77.824 82.9915 78.84 83.6475 79.528C84.3035 80.2 85.1995 80.536 86.3355 80.536C88.0475 80.536 89.1435 79.768 89.6235 78.232H91.6155C91.2795 79.48 90.6555 80.472 89.7435 81.208C88.8315 81.928 87.6795 82.288 86.2875 82.288C84.5755 82.288 83.1915 81.704 82.1355 80.536C81.0635 79.368 80.5275 77.792 80.5275 75.808C80.5275 73.856 81.0555 72.288 82.1115 71.104C83.1515 69.92 84.5275 69.328 86.2395 69.328C88.0155 69.328 89.4075 69.944 90.4155 71.176C91.4235 72.408 91.9275 73.952 91.9275 75.808ZM86.2395 71.08C85.2315 71.08 84.4075 71.4 83.7675 72.04C83.1275 72.664 82.7275 73.568 82.5675 74.752H89.8635C89.7675 73.664 89.3995 72.784 88.7595 72.112C88.1195 71.424 87.2795 71.08 86.2395 71.08ZM99.7359 69.616V68.344C99.7359 66.024 100.888 64.864 103.192 64.864C103.496 64.864 103.904 64.88 104.416 64.912V66.544H103.312C102.208 66.544 101.656 67.128 101.656 68.296V69.616H104.296V71.296H101.656V82H99.7359V71.296H97.6959V69.616H99.7359ZM106.144 67.744V65.392H108.184V67.744H106.144ZM108.136 82H106.216V69.616H108.136V82ZM116.722 69.328C118.098 69.328 119.17 69.704 119.938 70.456C120.706 71.208 121.09 72.264 121.09 73.624V82H119.17V73.816C119.17 71.976 118.226 71.056 116.338 71.056C115.442 71.056 114.65 71.392 113.962 72.064C113.274 72.736 112.93 73.712 112.93 74.992V82H111.01V69.616H112.834V71.464C113.778 70.04 115.074 69.328 116.722 69.328ZM134.099 80.44H134.795V82C134.475 82.048 134.123 82.072 133.739 82.072C132.443 82.072 131.747 81.48 131.651 80.296C130.787 81.624 129.443 82.288 127.619 82.288C126.259 82.288 125.187 81.976 124.403 81.352C123.635 80.712 123.251 79.816 123.251 78.664C123.251 76.424 124.779 75.144 127.835 74.824L129.611 74.632C130.907 74.488 131.555 73.92 131.555 72.928C131.555 72.24 131.339 71.744 130.907 71.44C130.491 71.136 129.779 70.984 128.771 70.984C127.699 70.984 126.923 71.168 126.443 71.536C125.979 71.888 125.715 72.52 125.651 73.432H123.731C123.891 70.696 125.571 69.328 128.771 69.328C131.875 69.328 133.427 70.528 133.427 72.928V79.84C133.427 80.24 133.651 80.44 134.099 80.44ZM127.715 80.656C128.739 80.656 129.635 80.344 130.403 79.72C131.171 79.112 131.555 78.24 131.555 77.104V75.64C131.203 75.912 130.659 76.088 129.923 76.168L128.123 76.384C127.083 76.512 126.339 76.752 125.891 77.104C125.459 77.456 125.243 77.96 125.243 78.616C125.243 79.256 125.451 79.76 125.867 80.128C126.283 80.48 126.899 80.656 127.715 80.656ZM142.199 69.328C143.575 69.328 144.647 69.704 145.415 70.456C146.183 71.208 146.567 72.264 146.567 73.624V82H144.647V73.816C144.647 71.976 143.703 71.056 141.815 71.056C140.919 71.056 140.127 71.392 139.439 72.064C138.751 72.736 138.407 73.712 138.407 74.992V82H136.487V69.616H138.311V71.464C139.255 70.04 140.551 69.328 142.199 69.328ZM154.584 80.56C155.432 80.56 156.168 80.312 156.792 79.816C157.416 79.32 157.8 78.632 157.944 77.752H159.912C159.736 78.952 159.272 79.944 158.52 80.728C157.784 81.512 156.84 82 155.688 82.192L154.704 83.32H154.92C155.576 83.32 156.096 83.496 156.48 83.848C156.88 84.2 157.08 84.656 157.08 85.216C157.08 86.752 155.984 87.52 153.792 87.52C153.296 87.52 152.808 87.472 152.328 87.376V86.272C152.776 86.336 153.24 86.368 153.72 86.368C154.184 86.368 154.552 86.272 154.824 86.08C155.096 85.888 155.232 85.616 155.232 85.264C155.232 84.608 154.776 84.28 153.864 84.28C153.56 84.28 153.336 84.288 153.192 84.304V83.392L154.08 82.264C152.48 82.136 151.208 81.496 150.264 80.344C149.32 79.176 148.848 77.664 148.848 75.808C148.848 73.824 149.376 72.248 150.432 71.08C151.456 69.912 152.84 69.328 154.584 69.328C156.056 69.328 157.264 69.728 158.208 70.528C159.152 71.328 159.72 72.424 159.912 73.816H157.92C157.776 72.936 157.392 72.256 156.768 71.776C156.16 71.296 155.432 71.056 154.584 71.056C153.448 71.056 152.544 71.472 151.872 72.304C151.2 73.12 150.864 74.288 150.864 75.808C150.864 77.312 151.2 78.48 151.872 79.312C152.56 80.144 153.464 80.56 154.584 80.56ZM172.091 80.44H172.787V82C172.467 82.048 172.115 82.072 171.731 82.072C170.435 82.072 169.739 81.48 169.643 80.296C168.779 81.624 167.435 82.288 165.611 82.288C164.251 82.288 163.179 81.976 162.395 81.352C161.627 80.712 161.243 79.816 161.243 78.664C161.243 76.424 162.771 75.144 165.827 74.824L167.603 74.632C168.899 74.488 169.547 73.92 169.547 72.928C169.547 72.24 169.331 71.744 168.899 71.44C168.483 71.136 167.771 70.984 166.763 70.984C165.691 70.984 164.915 71.168 164.435 71.536C163.971 71.888 163.707 72.52 163.643 73.432H161.723C161.883 70.696 163.563 69.328 166.763 69.328C169.867 69.328 171.419 70.528 171.419 72.928V79.84C171.419 80.24 171.643 80.44 172.091 80.44ZM165.707 80.656C166.731 80.656 167.627 80.344 168.395 79.72C169.163 79.112 169.547 78.24 169.547 77.104V75.64C169.195 75.912 168.651 76.088 167.915 76.168L166.115 76.384C165.075 76.512 164.331 76.752 163.883 77.104C163.451 77.456 163.235 77.96 163.235 78.616C163.235 79.256 163.443 79.76 163.859 80.128C164.275 80.48 164.891 80.656 165.707 80.656ZM178.847 82.288C175.535 82.288 173.783 80.88 173.591 78.064H175.535C175.647 78.992 175.951 79.656 176.447 80.056C176.959 80.44 177.759 80.632 178.847 80.632C180.831 80.632 181.823 79.992 181.823 78.712C181.823 78.152 181.615 77.728 181.199 77.44C180.799 77.152 180.063 76.904 178.991 76.696L177.839 76.48C175.263 76 173.975 74.784 173.975 72.832C173.975 71.76 174.375 70.912 175.175 70.288C175.991 69.648 177.095 69.328 178.487 69.328C181.767 69.328 183.447 70.696 183.527 73.432H181.607C181.559 72.536 181.287 71.904 180.791 71.536C180.295 71.168 179.527 70.984 178.487 70.984C177.655 70.984 177.015 71.144 176.567 71.464C176.119 71.784 175.895 72.232 175.895 72.808C175.895 73.352 176.087 73.76 176.471 74.032C176.855 74.304 177.495 74.536 178.391 74.728L179.495 74.944C181.015 75.248 182.103 75.68 182.759 76.24C183.431 76.8 183.767 77.584 183.767 78.592C183.767 79.76 183.327 80.672 182.447 81.328C181.583 81.968 180.383 82.288 178.847 82.288ZM196.325 69.328C198.069 69.328 199.469 69.912 200.525 71.08C201.565 72.264 202.085 73.84 202.085 75.808C202.085 77.76 201.565 79.328 200.525 80.512C199.469 81.696 198.069 82.288 196.325 82.288C194.549 82.288 193.165 81.6 192.173 80.224V86.704H190.253V69.616H192.077V71.536C193.069 70.064 194.485 69.328 196.325 69.328ZM196.085 80.56C197.285 80.56 198.245 80.128 198.965 79.264C199.701 78.384 200.069 77.2 200.069 75.712C200.069 74.256 199.709 73.12 198.989 72.304C198.285 71.472 197.317 71.056 196.085 71.056C194.869 71.056 193.901 71.472 193.181 72.304C192.461 73.136 192.101 74.304 192.101 75.808C192.101 77.296 192.461 78.456 193.181 79.288C193.901 80.136 194.869 80.56 196.085 80.56ZM214.256 80.44H214.952V82C214.632 82.048 214.28 82.072 213.896 82.072C212.6 82.072 211.904 81.48 211.808 80.296C210.944 81.624 209.6 82.288 207.776 82.288C206.416 82.288 205.344 81.976 204.56 81.352C203.792 80.712 203.408 79.816 203.408 78.664C203.408 76.424 204.936 75.144 207.992 74.824L209.768 74.632C211.064 74.488 211.712 73.92 211.712 72.928C211.712 72.24 211.496 71.744 211.064 71.44C210.648 71.136 209.936 70.984 208.928 70.984C207.856 70.984 207.08 71.168 206.6 71.536C206.136 71.888 205.872 72.52 205.808 73.432H203.888C204.048 70.696 205.728 69.328 208.928 69.328C212.032 69.328 213.584 70.528 213.584 72.928V79.84C213.584 80.24 213.808 80.44 214.256 80.44ZM207.872 80.656C208.896 80.656 209.792 80.344 210.56 79.72C211.328 79.112 211.712 78.24 211.712 77.104V75.64C211.36 75.912 210.816 76.088 210.08 76.168L208.28 76.384C207.24 76.512 206.496 76.752 206.048 77.104C205.616 77.456 205.4 77.96 205.4 78.616C205.4 79.256 205.608 79.76 206.024 80.128C206.44 80.48 207.056 80.656 207.872 80.656ZM222.451 69.424C222.771 69.424 222.987 69.432 223.099 69.448V71.296H222.619C221.339 71.296 220.339 71.616 219.619 72.256C218.915 72.88 218.563 73.776 218.563 74.944V82H216.643V69.616H218.467V71.8C219.299 70.216 220.627 69.424 222.451 69.424ZM234.177 80.44H234.873V82C234.553 82.048 234.201 82.072 233.817 82.072C232.521 82.072 231.825 81.48 231.729 80.296C230.865 81.624 229.521 82.288 227.697 82.288C226.337 82.288 225.265 81.976 224.481 81.352C223.713 80.712 223.329 79.816 223.329 78.664C223.329 76.424 224.857 75.144 227.913 74.824L229.689 74.632C230.985 74.488 231.633 73.92 231.633 72.928C231.633 72.24 231.417 71.744 230.985 71.44C230.569 71.136 229.857 70.984 228.849 70.984C227.777 70.984 227.001 71.168 226.521 71.536C226.057 71.888 225.793 72.52 225.729 73.432H223.809C223.969 70.696 225.649 69.328 228.849 69.328C231.953 69.328 233.505 70.528 233.505 72.928V79.84C233.505 80.24 233.729 80.44 234.177 80.44ZM227.793 80.656C228.817 80.656 229.713 80.344 230.481 79.72C231.249 79.112 231.633 78.24 231.633 77.104V75.64C231.281 75.912 230.737 76.088 230.001 76.168L228.201 76.384C227.161 76.512 226.417 76.752 225.969 77.104C225.537 77.456 225.321 77.96 225.321 78.616C225.321 79.256 225.529 79.76 225.945 80.128C226.361 80.48 226.977 80.656 227.793 80.656ZM250.543 71.416V69.616H252.367V81.52C252.367 83.216 251.871 84.552 250.879 85.528C249.887 86.504 248.463 86.992 246.607 86.992C245.071 86.992 243.839 86.64 242.911 85.936C241.983 85.232 241.455 84.256 241.327 83.008H243.247C243.487 84.576 244.607 85.36 246.607 85.36C249.167 85.36 250.447 84.08 250.447 81.52V80.32C249.471 81.632 248.087 82.288 246.295 82.288C244.551 82.288 243.159 81.696 242.119 80.512C241.063 79.328 240.535 77.76 240.535 75.808C240.535 73.824 241.063 72.248 242.119 71.08C243.143 69.912 244.535 69.328 246.295 69.328C248.135 69.328 249.551 70.024 250.543 71.416ZM246.535 80.56C247.751 80.56 248.719 80.136 249.439 79.288C250.159 78.44 250.519 77.28 250.519 75.808C250.519 74.336 250.159 73.176 249.439 72.328C248.719 71.48 247.751 71.056 246.535 71.056C245.335 71.056 244.367 71.488 243.631 72.352C242.911 73.216 242.551 74.368 242.551 75.808C242.551 77.248 242.911 78.4 243.631 79.264C244.367 80.128 245.335 80.56 246.535 80.56ZM266.045 75.808V76.48H256.637C256.733 77.824 257.109 78.84 257.765 79.528C258.421 80.2 259.317 80.536 260.453 80.536C262.165 80.536 263.261 79.768 263.741 78.232H265.733C265.397 79.48 264.773 80.472 263.861 81.208C262.949 81.928 261.797 82.288 260.405 82.288C258.693 82.288 257.309 81.704 256.253 80.536C255.181 79.368 254.645 77.792 254.645 75.808C254.645 73.856 255.173 72.288 256.229 71.104C257.269 69.92 258.645 69.328 260.357 69.328C262.133 69.328 263.525 69.944 264.533 71.176C265.541 72.408 266.045 73.952 266.045 75.808ZM260.357 71.08C259.349 71.08 258.525 71.4 257.885 72.04C257.245 72.664 256.845 73.568 256.685 74.752H263.981C263.885 73.664 263.517 72.784 262.877 72.112C262.237 71.424 261.397 71.08 260.357 71.08ZM274.131 69.424C274.451 69.424 274.667 69.432 274.779 69.448V71.296H274.299C273.019 71.296 272.019 71.616 271.299 72.256C270.595 72.88 270.243 73.776 270.243 74.944V82H268.323V69.616H270.147V71.8C270.979 70.216 272.307 69.424 274.131 69.424ZM285.857 80.44H286.553V82C286.233 82.048 285.881 82.072 285.497 82.072C284.201 82.072 283.505 81.48 283.409 80.296C282.545 81.624 281.201 82.288 279.377 82.288C278.017 82.288 276.945 81.976 276.161 81.352C275.393 80.712 275.009 79.816 275.009 78.664C275.009 76.424 276.537 75.144 279.593 74.824L281.369 74.632C282.665 74.488 283.313 73.92 283.313 72.928C283.313 72.24 283.097 71.744 282.665 71.44C282.249 71.136 281.537 70.984 280.529 70.984C279.457 70.984 278.681 71.168 278.201 71.536C277.737 71.888 277.473 72.52 277.409 73.432H275.489C275.649 70.696 277.329 69.328 280.529 69.328C283.633 69.328 285.185 70.528 285.185 72.928V79.84C285.185 80.24 285.409 80.44 285.857 80.44ZM279.473 80.656C280.497 80.656 281.393 80.344 282.161 79.72C282.929 79.112 283.313 78.24 283.313 77.104V75.64C282.961 75.912 282.417 76.088 281.681 76.168L279.881 76.384C278.841 76.512 278.097 76.752 277.649 77.104C277.217 77.456 277.001 77.96 277.001 78.616C277.001 79.256 277.209 79.76 277.625 80.128C278.041 80.48 278.657 80.656 279.473 80.656ZM294.053 69.424C294.373 69.424 294.589 69.432 294.701 69.448V71.296H294.221C292.941 71.296 291.941 71.616 291.221 72.256C290.517 72.88 290.165 73.776 290.165 74.944V82H288.245V69.616H290.069V71.8C290.901 70.216 292.229 69.424 294.053 69.424ZM306.435 82.288C304.723 82.288 303.339 81.696 302.283 80.512C301.227 79.328 300.699 77.76 300.699 75.808C300.699 73.824 301.227 72.248 302.283 71.08C303.307 69.912 304.691 69.328 306.435 69.328C307.907 69.328 309.115 69.728 310.059 70.528C311.003 71.328 311.571 72.424 311.763 73.816H309.771C309.627 72.936 309.243 72.256 308.619 71.776C308.011 71.296 307.283 71.056 306.435 71.056C305.299 71.056 304.395 71.472 303.723 72.304C303.051 73.12 302.715 74.288 302.715 75.808C302.715 77.312 303.051 78.48 303.723 79.312C304.411 80.144 305.315 80.56 306.435 80.56C307.283 80.56 308.019 80.312 308.643 79.816C309.267 79.32 309.651 78.632 309.795 77.752H311.763C311.555 79.144 310.963 80.248 309.987 81.064C309.027 81.88 307.843 82.288 306.435 82.288ZM319.623 69.424C319.943 69.424 320.159 69.432 320.271 69.448V71.296H319.791C318.511 71.296 317.511 71.616 316.791 72.256C316.087 72.88 315.735 73.776 315.735 74.944V82H313.815V69.616H315.639V71.8C316.471 70.216 317.799 69.424 319.623 69.424ZM332.138 75.808V76.48H322.73C322.826 77.824 323.202 78.84 323.858 79.528C324.514 80.2 325.41 80.536 326.546 80.536C328.258 80.536 329.354 79.768 329.834 78.232H331.826C331.49 79.48 330.866 80.472 329.954 81.208C329.042 81.928 327.89 82.288 326.498 82.288C324.786 82.288 323.402 81.704 322.346 80.536C321.274 79.368 320.738 77.792 320.738 75.808C320.738 73.856 321.266 72.288 322.322 71.104C323.362 69.92 324.738 69.328 326.45 69.328C328.226 69.328 329.618 69.944 330.626 71.176C331.634 72.408 332.138 73.952 332.138 75.808ZM326.45 71.08C325.442 71.08 324.618 71.4 323.978 72.04C323.338 72.664 322.938 73.568 322.778 74.752H330.074C329.978 73.664 329.61 72.784 328.97 72.112C328.33 71.424 327.49 71.08 326.45 71.08ZM338.667 82.288C335.355 82.288 333.603 80.88 333.411 78.064H335.355C335.467 78.992 335.771 79.656 336.267 80.056C336.779 80.44 337.579 80.632 338.667 80.632C340.651 80.632 341.643 79.992 341.643 78.712C341.643 78.152 341.435 77.728 341.019 77.44C340.619 77.152 339.883 76.904 338.811 76.696L337.659 76.48C335.083 76 333.795 74.784 333.795 72.832C333.795 71.76 334.195 70.912 334.995 70.288C335.811 69.648 336.915 69.328 338.307 69.328C341.587 69.328 343.267 70.696 343.347 73.432H341.427C341.379 72.536 341.107 71.904 340.611 71.536C340.115 71.168 339.347 70.984 338.307 70.984C337.475 70.984 336.835 71.144 336.387 71.464C335.939 71.784 335.715 72.232 335.715 72.808C335.715 73.352 335.907 73.76 336.291 74.032C336.675 74.304 337.315 74.536 338.211 74.728L339.315 74.944C340.835 75.248 341.923 75.68 342.579 76.24C343.251 76.8 343.587 77.584 343.587 78.592C343.587 79.76 343.147 80.672 342.267 81.328C341.403 81.968 340.203 82.288 338.667 82.288ZM350.639 82.288C348.927 82.288 347.543 81.696 346.487 80.512C345.431 79.328 344.903 77.76 344.903 75.808C344.903 73.824 345.431 72.248 346.487 71.08C347.511 69.912 348.895 69.328 350.639 69.328C352.111 69.328 353.319 69.728 354.263 70.528C355.207 71.328 355.775 72.424 355.967 73.816H353.975C353.831 72.936 353.447 72.256 352.823 71.776C352.215 71.296 351.487 71.056 350.639 71.056C349.503 71.056 348.599 71.472 347.927 72.304C347.255 73.12 346.919 74.288 346.919 75.808C346.919 77.312 347.255 78.48 347.927 79.312C348.615 80.144 349.519 80.56 350.639 80.56C351.487 80.56 352.223 80.312 352.847 79.816C353.471 79.32 353.855 78.632 353.999 77.752H355.967C355.759 79.144 355.167 80.248 354.191 81.064C353.231 81.88 352.047 82.288 350.639 82.288ZM359.986 67.744H357.946V65.392H359.986V67.744ZM359.938 82H358.018V69.616H359.938V82ZM375.855 69.328C377.199 69.328 378.239 69.72 378.975 70.504C379.727 71.272 380.103 72.304 380.103 73.6V82H378.183V73.792C378.183 71.968 377.319 71.056 375.591 71.056C374.679 71.056 373.919 71.424 373.311 72.16C372.719 72.88 372.423 73.904 372.423 75.232V82H370.503V73.792C370.503 71.968 369.639 71.056 367.911 71.056C367.015 71.056 366.263 71.424 365.655 72.16C365.047 72.88 364.743 73.904 364.743 75.232V82H362.823V69.616H364.647V71.44C365.463 70.032 366.655 69.328 368.223 69.328C370.079 69.328 371.351 70.104 372.039 71.656C372.903 70.104 374.175 69.328 375.855 69.328ZM393.779 75.808V76.48H384.371C384.467 77.824 384.843 78.84 385.499 79.528C386.155 80.2 387.051 80.536 388.187 80.536C389.899 80.536 390.995 79.768 391.475 78.232H393.467C393.131 79.48 392.507 80.472 391.595 81.208C390.683 81.928 389.531 82.288 388.139 82.288C386.427 82.288 385.043 81.704 383.987 80.536C382.915 79.368 382.379 77.792 382.379 75.808C382.379 73.856 382.907 72.288 383.963 71.104C385.003 69.92 386.379 69.328 388.091 69.328C389.867 69.328 391.259 69.944 392.267 71.176C393.275 72.408 393.779 73.952 393.779 75.808ZM388.091 71.08C387.083 71.08 386.259 71.4 385.619 72.04C384.979 72.664 384.579 73.568 384.419 74.752H391.715C391.619 73.664 391.251 72.784 390.611 72.112C389.971 71.424 389.131 71.08 388.091 71.08ZM401.769 69.328C403.145 69.328 404.217 69.704 404.985 70.456C405.753 71.208 406.137 72.264 406.137 73.624V82H404.217V73.816C404.217 71.976 403.273 71.056 401.385 71.056C400.489 71.056 399.697 71.392 399.009 72.064C398.321 72.736 397.977 73.712 397.977 74.992V82H396.057V69.616H397.881V71.464C398.825 70.04 400.121 69.328 401.769 69.328ZM413.973 69.616V71.296H411.429V79.336C411.429 80.04 411.901 80.392 412.845 80.392H413.973V82C413.445 82.048 412.989 82.072 412.605 82.072C410.541 82.072 409.509 81.216 409.509 79.504V71.296H407.469V69.616H409.509V66.112H411.429V69.616H413.973ZM425.488 80.512C424.352 81.696 422.912 82.288 421.168 82.288C419.424 82.288 417.984 81.696 416.848 80.512C415.728 79.344 415.168 77.776 415.168 75.808C415.168 73.84 415.728 72.272 416.848 71.104C417.984 69.92 419.424 69.328 421.168 69.328C422.912 69.328 424.352 69.92 425.488 71.104C426.608 72.272 427.168 73.84 427.168 75.808C427.168 77.776 426.608 79.344 425.488 80.512ZM418.264 79.288C418.984 80.136 419.952 80.56 421.168 80.56C422.384 80.56 423.352 80.136 424.072 79.288C424.792 78.456 425.152 77.296 425.152 75.808C425.152 74.304 424.792 73.136 424.072 72.304C423.352 71.472 422.384 71.056 421.168 71.056C419.952 71.056 418.984 71.472 418.264 72.304C417.544 73.136 417.184 74.304 417.184 75.808C417.184 77.296 417.544 78.456 418.264 79.288ZM439.834 69.424C440.154 69.424 440.37 69.432 440.482 69.448V71.296H440.002C438.722 71.296 437.722 71.616 437.002 72.256C436.298 72.88 435.946 73.776 435.946 74.944V82H434.026V69.616H435.85V71.8C436.682 70.216 438.01 69.424 439.834 69.424ZM452.349 75.808V76.48H442.941C443.037 77.824 443.413 78.84 444.069 79.528C444.725 80.2 445.621 80.536 446.757 80.536C448.469 80.536 449.565 79.768 450.045 78.232H452.037C451.701 79.48 451.077 80.472 450.165 81.208C449.253 81.928 448.101 82.288 446.709 82.288C444.997 82.288 443.613 81.704 442.557 80.536C441.485 79.368 440.949 77.792 440.949 75.808C440.949 73.856 441.477 72.288 442.533 71.104C443.573 69.92 444.949 69.328 446.661 69.328C448.437 69.328 449.829 69.944 450.837 71.176C451.845 72.408 452.349 73.952 452.349 75.808ZM446.661 71.08C445.653 71.08 444.829 71.4 444.189 72.04C443.549 72.664 443.149 73.568 442.989 74.752H450.285C450.189 73.664 449.821 72.784 449.181 72.112C448.541 71.424 447.701 71.08 446.661 71.08ZM464.638 80.44H465.334V82C465.014 82.048 464.662 82.072 464.278 82.072C462.982 82.072 462.286 81.48 462.19 80.296C461.326 81.624 459.982 82.288 458.158 82.288C456.798 82.288 455.726 81.976 454.942 81.352C454.174 80.712 453.79 79.816 453.79 78.664C453.79 76.424 455.318 75.144 458.374 74.824L460.15 74.632C461.446 74.488 462.094 73.92 462.094 72.928C462.094 72.24 461.878 71.744 461.446 71.44C461.03 71.136 460.318 70.984 459.31 70.984C458.238 70.984 457.462 71.168 456.982 71.536C456.518 71.888 456.254 72.52 456.19 73.432H454.27C454.43 70.696 456.11 69.328 459.31 69.328C462.414 69.328 463.966 70.528 463.966 72.928V79.84C463.966 80.24 464.19 80.44 464.638 80.44ZM458.254 80.656C459.278 80.656 460.174 80.344 460.942 79.72C461.71 79.112 462.094 78.24 462.094 77.104V75.64C461.742 75.912 461.198 76.088 460.462 76.168L458.662 76.384C457.622 76.512 456.878 76.752 456.43 77.104C455.998 77.456 455.782 77.96 455.782 78.616C455.782 79.256 455.99 79.76 456.406 80.128C456.822 80.48 457.438 80.656 458.254 80.656ZM468.829 82H466.909V64.912H468.829V82ZM487.084 75.808V76.48H477.676C477.772 77.824 478.148 78.84 478.804 79.528C479.46 80.2 480.356 80.536 481.492 80.536C483.204 80.536 484.3 79.768 484.78 78.232H486.772C486.436 79.48 485.812 80.472 484.9 81.208C483.988 81.928 482.836 82.288 481.444 82.288C479.732 82.288 478.348 81.704 477.292 80.536C476.22 79.368 475.684 77.792 475.684 75.808C475.684 73.856 476.212 72.288 477.268 71.104C478.308 69.92 479.684 69.328 481.396 69.328C483.172 69.328 484.564 69.944 485.572 71.176C486.58 72.408 487.084 73.952 487.084 75.808ZM481.396 71.08C480.388 71.08 479.564 71.4 478.924 72.04C478.284 72.664 477.884 73.568 477.724 74.752H485.02C484.924 73.664 484.556 72.784 483.916 72.112C483.276 71.424 482.436 71.08 481.396 71.08ZM14.472 101.328C15.816 101.328 16.856 101.72 17.592 102.504C18.344 103.272 18.72 104.304 18.72 105.6V114H16.8V105.792C16.8 103.968 15.936 103.056 14.208 103.056C13.296 103.056 12.536 103.424 11.928 104.16C11.336 104.88 11.04 105.904 11.04 107.232V114H9.12V105.792C9.12 103.968 8.256 103.056 6.528 103.056C5.632 103.056 4.88 103.424 4.272 104.16C3.664 104.88 3.36 105.904 3.36 107.232V114H1.44V101.616H3.264V103.44C4.08 102.032 5.272 101.328 6.84 101.328C8.696 101.328 9.968 102.104 10.656 103.656C11.52 102.104 12.792 101.328 14.472 101.328ZM32.3963 107.808V108.48H22.9883C23.0843 109.824 23.4603 110.84 24.1163 111.528C24.7723 112.2 25.6683 112.536 26.8043 112.536C28.5163 112.536 29.6123 111.768 30.0923 110.232H32.0843C31.7483 111.48 31.1243 112.472 30.2123 113.208C29.3003 113.928 28.1483 114.288 26.7563 114.288C25.0443 114.288 23.6603 113.704 22.6043 112.536C21.5323 111.368 20.9963 109.792 20.9963 107.808C20.9963 105.856 21.5243 104.288 22.5803 103.104C23.6203 101.92 24.9963 101.328 26.7083 101.328C28.4843 101.328 29.8763 101.944 30.8843 103.176C31.8923 104.408 32.3963 105.952 32.3963 107.808ZM26.7083 103.08C25.7003 103.08 24.8763 103.4 24.2363 104.04C23.5963 104.664 23.1963 105.568 23.0363 106.752H30.3323C30.2363 105.664 29.8683 104.784 29.2283 104.112C28.5883 103.424 27.7483 103.08 26.7083 103.08ZM40.3864 101.328C41.7624 101.328 42.8344 101.704 43.6024 102.456C44.3704 103.208 44.7544 104.264 44.7544 105.624V114H42.8344V105.816C42.8344 103.976 41.8904 103.056 40.0024 103.056C39.1064 103.056 38.3144 103.392 37.6264 104.064C36.9384 104.736 36.5944 105.712 36.5944 106.992V114H34.6744V101.616H36.4984V103.464C37.4424 102.04 38.7384 101.328 40.3864 101.328ZM52.0033 114.288C48.6913 114.288 46.9393 112.88 46.7473 110.064H48.6913C48.8033 110.992 49.1073 111.656 49.6033 112.056C50.1153 112.44 50.9153 112.632 52.0033 112.632C53.9873 112.632 54.9793 111.992 54.9793 110.712C54.9793 110.152 54.7713 109.728 54.3553 109.44C53.9553 109.152 53.2193 108.904 52.1473 108.696L50.9953 108.48C48.4193 108 47.1313 106.784 47.1313 104.832C47.1313 103.76 47.5313 102.912 48.3313 102.288C49.1473 101.648 50.2513 101.328 51.6433 101.328C54.9233 101.328 56.6033 102.696 56.6833 105.432H54.7633C54.7153 104.536 54.4433 103.904 53.9473 103.536C53.4513 103.168 52.6833 102.984 51.6433 102.984C50.8113 102.984 50.1713 103.144 49.7233 103.464C49.2753 103.784 49.0513 104.232 49.0513 104.808C49.0513 105.352 49.2433 105.76 49.6273 106.032C50.0113 106.304 50.6513 106.536 51.5473 106.728L52.6513 106.944C54.1713 107.248 55.2593 107.68 55.9153 108.24C56.5873 108.8 56.9233 109.584 56.9233 110.592C56.9233 111.76 56.4833 112.672 55.6033 113.328C54.7393 113.968 53.5393 114.288 52.0033 114.288ZM66.9984 108.624V101.616H68.9184V114H67.0944V112.152C66.1504 113.576 64.8544 114.288 63.2064 114.288C61.8304 114.288 60.7584 113.912 59.9904 113.16C59.2224 112.408 58.8384 111.352 58.8384 109.992V101.616H60.7584V109.8C60.7584 111.64 61.7024 112.56 63.5904 112.56C64.4864 112.56 65.2784 112.224 65.9664 111.552C66.6544 110.88 66.9984 109.904 66.9984 108.624ZM77.6074 101.424C77.9274 101.424 78.1434 101.432 78.2554 101.448V103.296H77.7754C76.4954 103.296 75.4954 103.616 74.7754 104.256C74.0714 104.88 73.7194 105.776 73.7194 106.944V114H71.7994V101.616H73.6234V103.8C74.4554 102.216 75.7834 101.424 77.6074 101.424ZM85.2776 96.288H87.8696L84.9176 99.744H83.2136L85.2776 96.288ZM89.3336 112.44H90.0296V114C89.7096 114.048 89.3576 114.072 88.9736 114.072C87.6776 114.072 86.9816 113.48 86.8856 112.296C86.0216 113.624 84.6776 114.288 82.8536 114.288C81.4936 114.288 80.4216 113.976 79.6376 113.352C78.8696 112.712 78.4856 111.816 78.4856 110.664C78.4856 108.424 80.0136 107.144 83.0696 106.824L84.8456 106.632C86.1416 106.488 86.7896 105.92 86.7896 104.928C86.7896 104.24 86.5736 103.744 86.1416 103.44C85.7256 103.136 85.0136 102.984 84.0056 102.984C82.9336 102.984 82.1576 103.168 81.6776 103.536C81.2136 103.888 80.9496 104.52 80.8856 105.432H78.9656C79.1256 102.696 80.8056 101.328 84.0056 101.328C87.1096 101.328 88.6616 102.528 88.6616 104.928V111.84C88.6616 112.24 88.8856 112.44 89.3336 112.44ZM82.9496 112.656C83.9736 112.656 84.8696 112.344 85.6376 111.72C86.4056 111.112 86.7896 110.24 86.7896 109.104V107.64C86.4376 107.912 85.8936 108.088 85.1576 108.168L83.3576 108.384C82.3176 108.512 81.5736 108.752 81.1256 109.104C80.6936 109.456 80.4776 109.96 80.4776 110.616C80.4776 111.256 80.6856 111.76 81.1016 112.128C81.5176 112.48 82.1336 112.656 82.9496 112.656ZM97.4239 107.112L99.4639 101.616H101.528L96.6559 114H94.6399L89.7919 101.616H91.8799L93.9199 107.136C94.9279 109.84 95.5119 111.44 95.6719 111.936C95.9599 111.088 96.5439 109.48 97.4239 107.112ZM113.162 107.808V108.48H103.754C103.85 109.824 104.226 110.84 104.882 111.528C105.538 112.2 106.434 112.536 107.57 112.536C109.282 112.536 110.378 111.768 110.858 110.232H112.85C112.514 111.48 111.89 112.472 110.978 113.208C110.066 113.928 108.914 114.288 107.522 114.288C105.81 114.288 104.426 113.704 103.37 112.536C102.298 111.368 101.762 109.792 101.762 107.808C101.762 105.856 102.29 104.288 103.346 103.104C104.386 101.92 105.762 101.328 107.474 101.328C109.25 101.328 110.642 101.944 111.65 103.176C112.658 104.408 113.162 105.952 113.162 107.808ZM107.474 103.08C106.466 103.08 105.642 103.4 105.002 104.04C104.362 104.664 103.962 105.568 103.802 106.752H111.098C111.002 105.664 110.634 104.784 109.994 104.112C109.354 103.424 108.514 103.08 107.474 103.08ZM117.36 114H115.44V96.912H117.36V114ZM130.887 101.328C132.631 101.328 134.031 101.912 135.087 103.08C136.127 104.264 136.647 105.84 136.647 107.808C136.647 109.76 136.127 111.328 135.087 112.512C134.031 113.696 132.631 114.288 130.887 114.288C129.111 114.288 127.727 113.6 126.735 112.224V118.704H124.815V101.616H126.639V103.536C127.631 102.064 129.047 101.328 130.887 101.328ZM130.647 112.56C131.847 112.56 132.807 112.128 133.527 111.264C134.263 110.384 134.631 109.2 134.631 107.712C134.631 106.256 134.271 105.12 133.551 104.304C132.847 103.472 131.879 103.056 130.647 103.056C129.431 103.056 128.463 103.472 127.743 104.304C127.023 105.136 126.663 106.304 126.663 107.808C126.663 109.296 127.023 110.456 127.743 111.288C128.463 112.136 129.431 112.56 130.647 112.56ZM148.818 112.44H149.514V114C149.194 114.048 148.842 114.072 148.458 114.072C147.162 114.072 146.466 113.48 146.37 112.296C145.506 113.624 144.162 114.288 142.338 114.288C140.978 114.288 139.906 113.976 139.122 113.352C138.354 112.712 137.97 111.816 137.97 110.664C137.97 108.424 139.498 107.144 142.554 106.824L144.33 106.632C145.626 106.488 146.274 105.92 146.274 104.928C146.274 104.24 146.058 103.744 145.626 103.44C145.21 103.136 144.498 102.984 143.49 102.984C142.418 102.984 141.642 103.168 141.162 103.536C140.698 103.888 140.434 104.52 140.37 105.432H138.45C138.61 102.696 140.29 101.328 143.49 101.328C146.594 101.328 148.146 102.528 148.146 104.928V111.84C148.146 112.24 148.37 112.44 148.818 112.44ZM142.434 112.656C143.458 112.656 144.354 112.344 145.122 111.72C145.89 111.112 146.274 110.24 146.274 109.104V107.64C145.922 107.912 145.378 108.088 144.642 108.168L142.842 108.384C141.802 108.512 141.058 108.752 140.61 109.104C140.178 109.456 139.962 109.96 139.962 110.616C139.962 111.256 140.17 111.76 140.586 112.128C141.002 112.48 141.618 112.656 142.434 112.656ZM157.014 101.424C157.334 101.424 157.55 101.432 157.662 101.448V103.296H157.182C155.902 103.296 154.902 103.616 154.182 104.256C153.478 104.88 153.126 105.776 153.126 106.944V114H151.206V101.616H153.03V103.8C153.862 102.216 155.19 101.424 157.014 101.424ZM168.74 112.44H169.436V114C169.116 114.048 168.764 114.072 168.38 114.072C167.084 114.072 166.388 113.48 166.292 112.296C165.428 113.624 164.084 114.288 162.26 114.288C160.9 114.288 159.828 113.976 159.044 113.352C158.276 112.712 157.892 111.816 157.892 110.664C157.892 108.424 159.42 107.144 162.476 106.824L164.252 106.632C165.548 106.488 166.196 105.92 166.196 104.928C166.196 104.24 165.98 103.744 165.548 103.44C165.132 103.136 164.42 102.984 163.412 102.984C162.34 102.984 161.564 103.168 161.084 103.536C160.62 103.888 160.356 104.52 160.292 105.432H158.372C158.532 102.696 160.212 101.328 163.412 101.328C166.516 101.328 168.068 102.528 168.068 104.928V111.84C168.068 112.24 168.292 112.44 168.74 112.44ZM162.356 112.656C163.38 112.656 164.276 112.344 165.044 111.72C165.812 111.112 166.196 110.24 166.196 109.104V107.64C165.844 107.912 165.3 108.088 164.564 108.168L162.764 108.384C161.724 108.512 160.98 108.752 160.532 109.104C160.1 109.456 159.884 109.96 159.884 110.616C159.884 111.256 160.092 111.76 160.508 112.128C160.924 112.48 161.54 112.656 162.356 112.656ZM180.066 114.288C176.754 114.288 175.002 112.88 174.81 110.064H176.754C176.866 110.992 177.17 111.656 177.666 112.056C178.178 112.44 178.978 112.632 180.066 112.632C182.05 112.632 183.042 111.992 183.042 110.712C183.042 110.152 182.834 109.728 182.418 109.44C182.018 109.152 181.282 108.904 180.21 108.696L179.058 108.48C176.482 108 175.194 106.784 175.194 104.832C175.194 103.76 175.594 102.912 176.394 102.288C177.21 101.648 178.314 101.328 179.706 101.328C182.986 101.328 184.666 102.696 184.746 105.432H182.826C182.778 104.536 182.506 103.904 182.01 103.536C181.514 103.168 180.746 102.984 179.706 102.984C178.874 102.984 178.234 103.144 177.786 103.464C177.338 103.784 177.114 104.232 177.114 104.808C177.114 105.352 177.306 105.76 177.69 106.032C178.074 106.304 178.714 106.536 179.61 106.728L180.714 106.944C182.234 107.248 183.322 107.68 183.978 108.24C184.65 108.8 184.986 109.584 184.986 110.592C184.986 111.76 184.546 112.672 183.666 113.328C182.802 113.968 181.602 114.288 180.066 114.288ZM197.701 107.808V108.48H188.293C188.389 109.824 188.765 110.84 189.421 111.528C190.077 112.2 190.973 112.536 192.109 112.536C193.821 112.536 194.917 111.768 195.397 110.232H197.389C197.053 111.48 196.429 112.472 195.517 113.208C194.605 113.928 193.453 114.288 192.061 114.288C190.349 114.288 188.965 113.704 187.909 112.536C186.837 111.368 186.301 109.792 186.301 107.808C186.301 105.856 186.829 104.288 187.885 103.104C188.925 101.92 190.301 101.328 192.013 101.328C193.789 101.328 195.181 101.944 196.189 103.176C197.197 104.408 197.701 105.952 197.701 107.808ZM192.013 103.08C191.005 103.08 190.181 103.4 189.541 104.04C188.901 104.664 188.501 105.568 188.341 106.752H195.637C195.541 105.664 195.173 104.784 194.533 104.112C193.893 103.424 193.053 103.08 192.013 103.08ZM207.788 108.624V101.616H209.708V114H207.884V112.152C206.94 113.576 205.644 114.288 203.996 114.288C202.62 114.288 201.548 113.912 200.78 113.16C200.012 112.408 199.628 111.352 199.628 109.992V101.616H201.548V109.8C201.548 111.64 202.492 112.56 204.38 112.56C205.276 112.56 206.068 112.224 206.756 111.552C207.444 110.88 207.788 109.904 207.788 108.624ZM222.871 101.328C224.247 101.328 225.319 101.704 226.087 102.456C226.855 103.208 227.239 104.264 227.239 105.624V114H225.319V105.816C225.319 103.976 224.375 103.056 222.487 103.056C221.591 103.056 220.799 103.392 220.111 104.064C219.423 104.736 219.079 105.712 219.079 106.992V114H217.159V101.616H218.983V103.464C219.927 102.04 221.223 101.328 222.871 101.328ZM240.92 107.808V108.48H231.512C231.608 109.824 231.984 110.84 232.64 111.528C233.296 112.2 234.192 112.536 235.328 112.536C237.04 112.536 238.136 111.768 238.616 110.232H240.608C240.272 111.48 239.648 112.472 238.736 113.208C237.824 113.928 236.672 114.288 235.28 114.288C233.568 114.288 232.184 113.704 231.128 112.536C230.056 111.368 229.52 109.792 229.52 107.808C229.52 105.856 230.048 104.288 231.104 103.104C232.144 101.92 233.52 101.328 235.232 101.328C237.008 101.328 238.4 101.944 239.408 103.176C240.416 104.408 240.92 105.952 240.92 107.808ZM235.232 103.08C234.224 103.08 233.4 103.4 232.76 104.04C232.12 104.664 231.72 105.568 231.56 106.752H238.856C238.76 105.664 238.392 104.784 237.752 104.112C237.112 103.424 236.272 103.08 235.232 103.08ZM252.606 103.416V101.616H254.43V113.52C254.43 115.216 253.934 116.552 252.942 117.528C251.95 118.504 250.526 118.992 248.67 118.992C247.134 118.992 245.902 118.64 244.974 117.936C244.046 117.232 243.518 116.256 243.39 115.008H245.31C245.55 116.576 246.67 117.36 248.67 117.36C251.23 117.36 252.51 116.08 252.51 113.52V112.32C251.534 113.632 250.15 114.288 248.358 114.288C246.614 114.288 245.222 113.696 244.182 112.512C243.126 111.328 242.598 109.76 242.598 107.808C242.598 105.824 243.126 104.248 244.182 103.08C245.206 101.912 246.598 101.328 248.358 101.328C250.198 101.328 251.614 102.024 252.606 103.416ZM248.598 112.56C249.814 112.56 250.782 112.136 251.502 111.288C252.222 110.44 252.582 109.28 252.582 107.808C252.582 106.336 252.222 105.176 251.502 104.328C250.782 103.48 249.814 103.056 248.598 103.056C247.398 103.056 246.43 103.488 245.694 104.352C244.974 105.216 244.614 106.368 244.614 107.808C244.614 109.248 244.974 110.4 245.694 111.264C246.43 112.128 247.398 112.56 248.598 112.56ZM263.619 99.744H261.915L263.979 96.288H266.571L263.619 99.744ZM267.027 112.512C265.891 113.696 264.451 114.288 262.707 114.288C260.963 114.288 259.523 113.696 258.387 112.512C257.267 111.344 256.707 109.776 256.707 107.808C256.707 105.84 257.267 104.272 258.387 103.104C259.523 101.92 260.963 101.328 262.707 101.328C264.451 101.328 265.891 101.92 267.027 103.104C268.147 104.272 268.707 105.84 268.707 107.808C268.707 109.776 268.147 111.344 267.027 112.512ZM259.803 111.288C260.523 112.136 261.491 112.56 262.707 112.56C263.923 112.56 264.891 112.136 265.611 111.288C266.331 110.456 266.691 109.296 266.691 107.808C266.691 106.304 266.331 105.136 265.611 104.304C264.891 103.472 263.923 103.056 262.707 103.056C261.491 103.056 260.523 103.472 259.803 104.304C259.083 105.136 258.723 106.304 258.723 107.808C258.723 109.296 259.083 110.456 259.803 111.288ZM276.131 114.288C274.419 114.288 273.035 113.696 271.979 112.512C270.923 111.328 270.395 109.76 270.395 107.808C270.395 105.824 270.923 104.248 271.979 103.08C273.003 101.912 274.387 101.328 276.131 101.328C277.603 101.328 278.811 101.728 279.755 102.528C280.699 103.328 281.267 104.424 281.459 105.816H279.467C279.323 104.936 278.939 104.256 278.315 103.776C277.707 103.296 276.979 103.056 276.131 103.056C274.995 103.056 274.091 103.472 273.419 104.304C272.747 105.12 272.411 106.288 272.411 107.808C272.411 109.312 272.747 110.48 273.419 111.312C274.107 112.144 275.011 112.56 276.131 112.56C276.979 112.56 277.715 112.312 278.339 111.816C278.963 111.32 279.347 110.632 279.491 109.752H281.459C281.251 111.144 280.659 112.248 279.683 113.064C278.723 113.88 277.539 114.288 276.131 114.288ZM285.478 99.744H283.438V97.392H285.478V99.744ZM285.43 114H283.51V101.616H285.43V114ZM298.035 112.512C296.899 113.696 295.459 114.288 293.715 114.288C291.971 114.288 290.531 113.696 289.395 112.512C288.275 111.344 287.715 109.776 287.715 107.808C287.715 105.84 288.275 104.272 289.395 103.104C290.531 101.92 291.971 101.328 293.715 101.328C295.459 101.328 296.899 101.92 298.035 103.104C299.155 104.272 299.715 105.84 299.715 107.808C299.715 109.776 299.155 111.344 298.035 112.512ZM290.811 111.288C291.531 112.136 292.499 112.56 293.715 112.56C294.931 112.56 295.899 112.136 296.619 111.288C297.339 110.456 297.699 109.296 297.699 107.808C297.699 106.304 297.339 105.136 296.619 104.304C295.899 103.472 294.931 103.056 293.715 103.056C292.499 103.056 291.531 103.472 290.811 104.304C290.091 105.136 289.731 106.304 289.731 107.808C289.731 109.296 290.091 110.456 290.811 111.288ZM303.443 109.536H302.195L301.859 101.616V96.912H303.875V101.616L303.443 109.536ZM304.067 114H301.643V111.6H304.067V114Z" fill="#CBCDF6"/>
</svg>
