<svg width="278" height="77" viewBox="0 0 278 77" fill="none" xmlns="http://www.w3.org/2000/svg">
<path d="M33.475 36V8H45.0083L53.075 21.9H54.0083V8H63.8417V36H52.5417L44.2083 22.1H43.3083V36H33.475ZM77.3807 6.16667H74.7807C74.0474 1.83333 77.1474 0.0333319 80.1474 0.0333319C82.8141 0.0333319 84.6141 1.86667 86.8141 1.86667C88.0141 1.86667 88.8141 1.26667 88.9141 0.266665H91.4807C92.2141 4.56667 89.1474 6.4 86.1141 6.4C83.4474 6.4 81.6807 4.56667 79.4807 4.56667C78.2807 4.56667 77.4807 5.13333 77.3807 6.16667ZM89.9474 36L88.8807 32.6333H77.4807L76.4141 36H66.0141L76.1141 8H90.2474L100.381 36H89.9474ZM79.8474 25.2H86.5141L84.0474 17.4667H82.3141L79.8474 25.2ZM115.35 36.9333C105.583 36.9333 99.35 31.0333 99.35 22C99.35 12.9667 105.583 7.06667 115.35 7.06667C125.15 7.06667 131.383 12.9667 131.383 22C131.383 31.0333 125.15 36.9333 115.35 36.9333ZM115.35 28.2333C118.583 28.2333 121.35 26.0667 121.35 22C121.35 17.9333 118.583 15.7667 115.35 15.7667C112.15 15.7667 109.35 17.9333 109.35 22C109.35 26.0667 112.15 28.2333 115.35 28.2333ZM151.909 6.33333L154.342 0.366665H163.242L160.809 6.33333H151.909ZM143.842 36V8H169.609V16.0333H153.909V18.7667H169.009V25.2333H153.909V27.9333H169.609V36H143.842ZM196.194 36.9333C186.161 36.9 181.594 33.9 181.894 26.4H190.928C190.994 28.0667 192.394 29.0333 196.194 29.1C199.461 29.1333 200.861 28.2667 200.861 27.2667C200.861 26.7333 200.728 25.8 198.194 25.4667L194.528 24.9C189.261 24.0667 182.528 23.7 182.528 16.1667C182.528 10.5333 187.028 7.06667 196.294 7.06667C204.561 7.06667 210.328 9.2 210.094 17.5333H201.094C200.794 15.9 199.361 14.9 196.061 14.9C193.228 14.9 192.194 15.7 192.194 16.7C192.194 17.1667 192.428 18.1 194.328 18.4L197.261 18.8667C202.894 19.8 210.894 19.7 210.894 27.7C210.894 33.9667 206.094 36.9667 196.194 36.9333ZM224.449 6.2L226.883 0.233332H235.783L233.349 6.2H224.449ZM228.983 36.9333C219.216 36.9333 212.983 31.0333 212.983 22C212.983 12.9667 219.216 7.06667 228.983 7.06667C238.783 7.06667 245.016 12.9667 245.016 22C245.016 31.0333 238.783 36.9333 228.983 36.9333ZM228.983 28.2333C232.216 28.2333 234.983 26.0667 234.983 22C234.983 17.9333 232.216 15.7667 228.983 15.7667C225.783 15.7667 222.983 17.9333 222.983 22C222.983 26.0667 225.783 28.2333 228.983 28.2333Z" fill="white"/>
<path d="M0.935937 76V48H13.6026L17.3693 62.7333H18.1026L21.8693 48H34.5359V76H24.9359V65.0667H24.1693L21.4359 76H14.0359L11.3026 65.0667H10.5359V76H0.935937ZM60.6505 76L59.5839 72.6333H48.1839L47.1172 76H36.7172L46.8172 48H60.9505L71.0839 76H60.6505ZM50.5505 65.2H57.2172L54.7505 57.4667H53.0172L50.5505 65.2ZM103.082 76H93.1818L89.6484 69.1333H83.3151V76H73.2484V48H89.7151C97.5818 48 102.048 51.2667 102.048 58.9333C102.048 62.6 100.448 65.2667 98.2151 66.9333L103.082 76ZM83.3151 56.3667V61.6333H88.9818C90.9818 61.6333 91.9484 60.6333 91.9484 59C91.9484 57.3667 90.9818 56.3667 88.9818 56.3667H83.3151ZM137.178 76H126.911L119.978 66.5667H119.344L115.844 70.3333V76H105.811V48H115.844V58.3333H116.511L125.711 48H136.911L125.611 60.4667L137.178 76ZM138.92 76V48H164.687V56.0333H148.987V58.7667H164.087V65.2333H148.987V67.9333H164.687V76H138.92ZM197.656 48V56.4H187.722V76H177.622V56.4H167.722V48H197.656ZM200.647 76V48H210.714V76H200.647ZM213.912 76V48H225.446L233.512 61.9H234.446V48H244.279V76H232.979L224.646 62.1H223.746V76H213.912ZM277.918 60.3V76H272.718L272.585 72.5333H272.485C270.518 75.0667 267.085 76.9333 262.218 76.9333C253.585 76.9333 246.952 71.0333 246.952 62C246.952 52.9667 253.218 47.0667 263.118 47.0667C269.918 47.0667 276.918 50.3667 277.885 58.0667H267.852C267.452 57.0667 265.885 55.7667 263.352 55.7667C259.585 55.7667 256.952 58.1333 256.952 62C256.952 65.8333 259.652 68.2333 263.052 68.2333C263.985 68.2333 267.252 68.1333 268.218 65.2H262.685V60.3H277.918Z" fill="url(#paint0_linear_13_604)"/>
<path d="M0.935937 76V48H13.6026L17.3693 62.7333H18.1026L21.8693 48H34.5359V76H24.9359V65.0667H24.1693L21.4359 76H14.0359L11.3026 65.0667H10.5359V76H0.935937ZM60.6505 76L59.5839 72.6333H48.1839L47.1172 76H36.7172L46.8172 48H60.9505L71.0839 76H60.6505ZM50.5505 65.2H57.2172L54.7505 57.4667H53.0172L50.5505 65.2ZM103.082 76H93.1818L89.6484 69.1333H83.3151V76H73.2484V48H89.7151C97.5818 48 102.048 51.2667 102.048 58.9333C102.048 62.6 100.448 65.2667 98.2151 66.9333L103.082 76ZM83.3151 56.3667V61.6333H88.9818C90.9818 61.6333 91.9484 60.6333 91.9484 59C91.9484 57.3667 90.9818 56.3667 88.9818 56.3667H83.3151ZM137.178 76H126.911L119.978 66.5667H119.344L115.844 70.3333V76H105.811V48H115.844V58.3333H116.511L125.711 48H136.911L125.611 60.4667L137.178 76ZM138.92 76V48H164.687V56.0333H148.987V58.7667H164.087V65.2333H148.987V67.9333H164.687V76H138.92ZM197.656 48V56.4H187.722V76H177.622V56.4H167.722V48H197.656ZM200.647 76V48H210.714V76H200.647ZM213.912 76V48H225.446L233.512 61.9H234.446V48H244.279V76H232.979L224.646 62.1H223.746V76H213.912ZM277.918 60.3V76H272.718L272.585 72.5333H272.485C270.518 75.0667 267.085 76.9333 262.218 76.9333C253.585 76.9333 246.952 71.0333 246.952 62C246.952 52.9667 253.218 47.0667 263.118 47.0667C269.918 47.0667 276.918 50.3667 277.885 58.0667H267.852C267.452 57.0667 265.885 55.7667 263.352 55.7667C259.585 55.7667 256.952 58.1333 256.952 62C256.952 65.8333 259.652 68.2333 263.052 68.2333C263.985 68.2333 267.252 68.1333 268.218 65.2H262.685V60.3H277.918Z" fill="url(#paint1_linear_13_604)"/>
<defs>
<linearGradient id="paint0_linear_13_604" x1="319" y1="37" x2="-40" y2="37" gradientUnits="userSpaceOnUse">
<stop stop-color="#575AC0"/>
<stop offset="1" stop-color="#333693"/>
</linearGradient>
<linearGradient id="paint1_linear_13_604" x1="319" y1="37" x2="-40" y2="37" gradientUnits="userSpaceOnUse">
<stop stop-color="#9A9EED"/>
<stop offset="1" stop-color="#575AC0"/>
</linearGradient>
</defs>
</svg>
