<svg width="489" height="155" viewBox="0 0 489 155" fill="none" xmlns="http://www.w3.org/2000/svg">
<path d="M1.54 41V1.8H37.6133V13.0467H15.6333V16.8733H36.7733V25.9267H15.6333V29.7067H37.6133V41H1.54ZM60.8376 42.3067C46.7909 42.26 40.3976 38.06 40.8176 27.56H53.4643C53.5576 29.8933 55.5176 31.2467 60.8376 31.34C65.4109 31.3867 67.3709 30.1733 67.3709 28.7733C67.3709 28.0267 67.1843 26.72 63.6376 26.2533L58.5043 25.46C51.1309 24.2933 41.7043 23.78 41.7043 13.2333C41.7043 5.34667 48.0043 0.493332 60.9776 0.493332C72.5509 0.493332 80.6243 3.48 80.2976 15.1467H67.6976C67.2776 12.86 65.2709 11.46 60.6509 11.46C56.6843 11.46 55.2376 12.58 55.2376 13.98C55.2376 14.6333 55.5643 15.94 58.2243 16.36L62.3309 17.0133C70.2176 18.32 81.4176 18.18 81.4176 29.38C81.4176 38.1533 74.6976 42.3533 60.8376 42.3067ZM106.155 42.3067C92.7616 42.3067 83.9416 34.0467 83.9416 21.4C83.9416 8.75333 92.7616 0.493332 106.155 0.493332C116.002 0.493332 126.175 4.83333 127.248 18.6467H113.808C112.922 14.5867 110.168 12.6733 106.155 12.6733C101.628 12.6733 97.9416 15.9867 97.9416 21.4C97.9416 26.7667 101.628 30.1267 106.155 30.1267C110.168 30.1267 112.922 28.2133 113.808 24.06H127.248C126.175 37.9667 116.142 42.3067 106.155 42.3067ZM159.803 41L158.31 36.2867H142.35L140.856 41H126.296L140.436 1.8H160.223L174.41 41H159.803ZM145.663 25.88H154.996L151.543 15.0533H149.116L145.663 25.88ZM177.04 41V1.8H191.133V29.24H211.48V41H177.04ZM215.665 41V1.8H251.738V13.0467H229.758V16.8733H250.898V25.9267H229.758V29.7067H251.738V41H215.665ZM288.158 42.3067C274.111 42.26 267.718 38.06 268.138 27.56H280.785C280.878 29.8933 282.838 31.2467 288.158 31.34C292.731 31.3867 294.691 30.1733 294.691 28.7733C294.691 28.0267 294.505 26.72 290.958 26.2533L285.825 25.46C278.451 24.2933 269.025 23.78 269.025 13.2333C269.025 5.34667 275.325 0.493332 288.298 0.493332C299.871 0.493332 307.945 3.48 307.618 15.1467H295.018C294.598 12.86 292.591 11.46 287.971 11.46C284.005 11.46 282.558 12.58 282.558 13.98C282.558 14.6333 282.885 15.94 285.545 16.36L289.651 17.0133C297.538 18.32 308.738 18.18 308.738 29.38C308.738 38.1533 302.018 42.3533 288.158 42.3067ZM311.962 41V1.8H348.035V13.0467H326.055V16.8733H347.195V25.9267H326.055V29.7067H348.035V41H311.962ZM372.885 42.3067C358.931 42.3067 352.118 36.52 352.118 23.64V1.8H366.351V23.3133C366.351 27.7 368.171 30.5 372.885 30.5C377.598 30.5 379.511 27.7 379.511 23.3133V1.8H393.651V23.5467C393.651 36.52 386.838 42.3067 372.885 42.3067ZM1.54 97V57.8H37.52V69.56H15.6333V73.5733H36.6333V83.7H15.6333V97H1.54ZM68.4982 97L67.0049 92.2867H51.0449L49.5516 97H34.9916L49.1316 57.8H68.9182L83.1049 97H68.4982ZM54.3582 81.88H63.6916L60.2382 71.0533H57.8116L54.3582 81.88ZM119.479 57.8V69.56H105.572V97H91.4323V69.56H77.5723V57.8H119.479ZM144.033 98.3067C130.08 98.3067 123.267 92.52 123.267 79.64V57.8H137.5V79.3133C137.5 83.7 139.32 86.5 144.033 86.5C148.747 86.5 150.66 83.7 150.66 79.3133V57.8H164.8V79.5467C164.8 92.52 157.987 98.3067 144.033 98.3067ZM210.604 97H196.744L191.797 87.3867H182.93V97H168.837V57.8H191.89C202.904 57.8 209.157 62.3733 209.157 73.1067C209.157 78.24 206.917 81.9733 203.79 84.3067L210.604 97ZM182.93 69.5133V76.8867H190.864C193.664 76.8867 195.017 75.4867 195.017 73.2C195.017 70.9133 193.664 69.5133 190.864 69.5133H182.93ZM245.42 97L243.927 92.2867H227.967L226.473 97H211.913L226.053 57.8H245.84L260.027 97H245.42ZM231.28 81.88H240.613L237.16 71.0533H234.733L231.28 81.88ZM262.657 97V57.8H280.391L285.664 78.4267H286.691L291.964 57.8H309.697V97H296.257V81.6933H295.184L291.357 97H280.997L277.171 81.6933H276.097V97H262.657ZM313.751 97V57.8H349.824V69.0467H327.844V72.8733H348.984V81.9267H327.844V85.7067H349.824V97H313.751ZM353.907 97V57.8H370.054L381.347 77.26H382.654V57.8H396.421V97H380.601L368.934 77.54H367.674V97H353.907ZM442.135 57.8V69.56H428.229V97H414.089V69.56H400.229V57.8H442.135ZM465.818 98.3067C452.145 98.3067 443.418 90.0467 443.418 77.4C443.418 64.7533 452.145 56.4933 465.818 56.4933C479.538 56.4933 488.265 64.7533 488.265 77.4C488.265 90.0467 479.538 98.3067 465.818 98.3067ZM465.818 86.1267C470.345 86.1267 474.218 83.0933 474.218 77.4C474.218 71.7067 470.345 68.6733 465.818 68.6733C461.338 68.6733 457.418 71.7067 457.418 77.4C457.418 83.0933 461.338 86.1267 465.818 86.1267Z" fill="#F8F8F8"/>
<path d="M23.0533 154.307C9.66 154.307 0.84 146.047 0.84 133.4C0.84 120.753 9.66 112.493 23.0533 112.493C32.9 112.493 43.0733 116.833 44.1467 130.647H30.7067C29.82 126.587 27.0667 124.673 23.0533 124.673C18.5267 124.673 14.84 127.987 14.84 133.4C14.84 138.767 18.5267 142.127 23.0533 142.127C27.0667 142.127 29.82 140.213 30.7067 136.06H44.1467C43.0733 149.967 33.04 154.307 23.0533 154.307ZM69.8494 154.307C56.176 154.307 47.4494 146.047 47.4494 133.4C47.4494 120.753 56.176 112.493 69.8494 112.493C83.5694 112.493 92.296 120.753 92.296 133.4C92.296 146.047 83.5694 154.307 69.8494 154.307ZM69.8494 142.127C74.376 142.127 78.2494 139.093 78.2494 133.4C78.2494 127.707 74.376 124.673 69.8494 124.673C65.3694 124.673 61.4494 127.707 61.4494 133.4C61.4494 139.093 65.3694 142.127 69.8494 142.127ZM95.6884 153V113.8H113.422L118.695 134.427H119.722L124.995 113.8H142.728V153H129.288V137.693H128.215L124.388 153H114.028L110.202 137.693H109.128V153H95.6884ZM192.139 153L190.646 148.287H174.686L173.192 153H158.632L172.772 113.8H192.559L206.746 153H192.139ZM177.999 137.88H187.332L183.879 127.053H181.452L177.999 137.88ZM254.733 153L253.239 148.287H237.279L235.786 153H221.226L235.366 113.8H255.153L269.339 153H254.733ZM240.593 137.88H249.926L246.473 127.053H244.046L240.593 137.88ZM313.736 153H299.876L294.93 143.387H286.063V153H271.97V113.8H295.023C306.036 113.8 312.29 118.373 312.29 129.107C312.29 134.24 310.05 137.973 306.923 140.307L313.736 153ZM286.063 125.513V132.887H293.996C296.796 132.887 298.15 131.487 298.15 129.2C298.15 126.913 296.796 125.513 293.996 125.513H286.063ZM317.157 153V113.8H334.891L340.164 134.427H341.191L346.464 113.8H364.197V153H350.757V137.693H349.684L345.857 153H335.497L331.671 137.693H330.597V153H317.157ZM389.951 154.307C376.278 154.307 367.551 146.047 367.551 133.4C367.551 120.753 376.278 112.493 389.951 112.493C403.671 112.493 412.398 120.753 412.398 133.4C412.398 146.047 403.671 154.307 389.951 154.307ZM389.951 142.127C394.478 142.127 398.351 139.093 398.351 133.4C398.351 127.707 394.478 124.673 389.951 124.673C385.471 124.673 381.551 127.707 381.551 133.4C381.551 139.093 385.471 142.127 389.951 142.127ZM418.217 137.74L415.463 113.8H430.07L427.27 137.74H418.217ZM422.743 153.747C419.01 153.747 415.837 150.62 415.837 146.933C415.837 143.2 419.01 140.073 422.743 140.073C426.523 140.073 429.697 143.2 429.697 146.933C429.697 150.62 426.523 153.747 422.743 153.747Z" fill="url(#paint0_linear_13_547)"/>
<defs>
<linearGradient id="paint0_linear_13_547" x1="0" y1="70" x2="558" y2="70" gradientUnits="userSpaceOnUse">
<stop stop-color="#9A9EED"/>
<stop offset="1" stop-color="#BFC2EE"/>
</linearGradient>
</defs>
</svg>
