<svg width="543" height="139" viewBox="0 0 543 139" fill="none" xmlns="http://www.w3.org/2000/svg">
<path d="M0.94875 65V14.6H47.2088V29.72H19.0688V34.88H46.0688V47.9H19.0688V65H0.94875ZM78.9269 66.68C61.3469 66.68 50.1269 56.06 50.1269 39.8C50.1269 23.54 61.3469 12.92 78.9269 12.92C96.5669 12.92 107.787 23.54 107.787 39.8C107.787 56.06 96.5669 66.68 78.9269 66.68ZM78.9269 51.02C84.7469 51.02 89.7269 47.12 89.7269 39.8C89.7269 32.48 84.7469 28.58 78.9269 28.58C73.1669 28.58 68.1269 32.48 68.1269 39.8C68.1269 47.12 73.1669 51.02 78.9269 51.02ZM165.563 65H147.743L141.383 52.64H129.983V65H111.863V14.6H141.503C155.663 14.6 163.703 20.48 163.703 34.28C163.703 40.88 160.823 45.68 156.803 48.68L165.563 65ZM129.983 29.66V39.14H140.183C143.783 39.14 145.523 37.34 145.523 34.4C145.523 31.46 143.783 29.66 140.183 29.66H129.983ZM169.675 65V14.6H192.475L199.255 41.12H200.575L207.355 14.6H230.155V65H212.875V45.32H211.495L206.575 65H193.255L188.335 45.32H186.955V65H169.675ZM261.782 66.68C243.842 66.68 235.082 59.24 235.082 42.68V14.6H253.382V42.26C253.382 47.9 255.722 51.5 261.782 51.5C267.842 51.5 270.302 47.9 270.302 42.26V14.6H288.482V42.56C288.482 59.24 279.722 66.68 261.782 66.68ZM293.386 65V14.6H311.506V49.88H337.666V65H293.386ZM383.468 0.859997L379.088 11.6H363.068L367.448 0.859997H383.468ZM383.408 65L381.488 58.94H360.968L359.048 65H340.328L358.508 14.6H383.948L402.188 65H383.408ZM365.228 45.56H377.228L372.788 31.64H369.668L365.228 45.56ZM458.985 65H441.165L434.805 52.64H423.405V65H405.285V14.6H434.925C449.085 14.6 457.125 20.48 457.125 34.28C457.125 40.88 454.245 45.68 450.225 48.68L458.985 65ZM423.405 29.66V39.14H433.605C437.205 39.14 438.945 37.34 438.945 34.4C438.945 31.46 437.205 29.66 433.605 29.66H423.405ZM463.097 65V14.6H481.217V65H463.097ZM514.075 66.68C496.495 66.68 485.275 56.06 485.275 39.8C485.275 23.54 496.495 12.92 514.075 12.92C531.715 12.92 542.935 23.54 542.935 39.8C542.935 56.06 531.715 66.68 514.075 66.68ZM514.075 51.02C519.895 51.02 524.875 47.12 524.875 39.8C524.875 32.48 519.895 28.58 514.075 28.58C508.315 28.58 503.275 32.48 503.275 39.8C503.275 47.12 508.315 51.02 514.075 51.02Z" fill="white"/>
<path d="M38.4927 86.6C59.3127 86.6 66.4527 97.22 66.4527 111.8C66.4527 126.32 59.3127 137 38.4927 137H12.4527V86.6H38.4927ZM38.4927 121.82C43.8327 121.82 48.2127 119.3 48.2127 111.8C48.2127 104.24 43.8327 101.78 38.4927 101.78H30.6927L30.6327 121.82H38.4927ZM70.7573 137V86.6H117.137V101.06H88.8773V105.98H116.057V117.62H88.8773V122.48H117.137V137H70.7573ZM166.511 138.68C149.291 138.68 137.951 128.06 137.951 111.8C137.951 95.54 149.291 84.92 166.511 84.92C179.171 84.92 192.251 90.5 193.631 108.26H176.351C175.211 103.04 171.671 100.58 166.511 100.58C160.691 100.58 155.951 104.84 155.951 111.8C155.951 118.7 160.691 123.02 166.511 123.02C171.671 123.02 175.211 120.56 176.351 115.22H193.631C192.251 133.1 179.351 138.68 166.511 138.68ZM226.392 138.68C208.812 138.68 197.592 128.06 197.592 111.8C197.592 95.54 208.812 84.92 226.392 84.92C244.032 84.92 255.252 95.54 255.252 111.8C255.252 128.06 244.032 138.68 226.392 138.68ZM226.392 123.02C232.212 123.02 237.192 119.12 237.192 111.8C237.192 104.48 232.212 100.58 226.392 100.58C220.632 100.58 215.592 104.48 215.592 111.8C215.592 119.12 220.632 123.02 226.392 123.02ZM259.328 137V86.6H280.088L294.608 111.62H296.288V86.6H313.988V137H293.648L278.648 111.98H277.028V137H259.328ZM372.478 86.6V101.72H354.598V137H336.418V101.72H318.598V86.6H372.478ZM408.147 137L406.227 130.94H385.707L383.787 137H365.067L383.247 86.6H408.687L426.927 137H408.147ZM389.967 117.56H401.967L397.527 103.64H394.407L389.967 117.56ZM473.408 86.6V101.72H455.528V137H437.348V101.72H419.528V86.6H473.408ZM503.571 138.68C485.991 138.68 474.771 128.06 474.771 111.8C474.771 95.54 485.991 84.92 503.571 84.92C521.211 84.92 532.431 95.54 532.431 111.8C532.431 128.06 521.211 138.68 503.571 138.68ZM503.571 123.02C509.391 123.02 514.371 119.12 514.371 111.8C514.371 104.48 509.391 100.58 503.571 100.58C497.811 100.58 492.771 104.48 492.771 111.8C492.771 119.12 497.811 123.02 503.571 123.02Z" fill="url(#paint0_linear_13_520)"/>
<defs>
<linearGradient id="paint0_linear_13_520" x1="553" y1="67" x2="-9" y2="67" gradientUnits="userSpaceOnUse">
<stop stop-color="#575AC0"/>
<stop offset="1" stop-color="#333693"/>
</linearGradient>
</defs>
</svg>
