<svg width="234" height="16" viewBox="0 0 234 16" fill="none" xmlns="http://www.w3.org/2000/svg">
<path d="M0.133333 15V1H12.4667V4.36667H4.31667V6.58333H12.1667V9.4H4.31667V11.6167H12.4667V15H0.133333ZM14.7271 15V1H19.5438L24.8104 9.18333H25.1938V1H29.2771V15H24.5604L19.1771 6.81667H18.8104V15H14.7271ZM36.2612 15L31.0279 1H35.3445L38.9612 11.0667H39.4279L43.0445 1H47.3779L42.1279 15H36.2612ZM49.1294 15V1H53.3128V15H49.1294ZM67.0758 15L66.3758 12.9833H60.0758L59.3758 15H55.0591L60.2924 1H66.1591L71.4091 15H67.0758ZM61.1591 9.86667H65.2924L63.5924 4.93333H62.8591L61.1591 9.86667ZM87.3273 15H83.2107L81.1773 11.2H77.344V15H73.1607V1H80.944C84.794 1 86.9107 2.7 86.9107 6.23333C86.9107 8.15 86.0273 9.51667 84.7607 10.3333L87.3273 15ZM77.344 4.48333V8.05H80.6773C82.0107 8.05 82.7273 7.41667 82.7273 6.26667C82.7273 5.11667 82.0107 4.48333 80.6773 4.48333H77.344ZM108.8 15H104.683L102.65 11.2H98.8167V15H94.6333V1H102.417C106.267 1 108.383 2.7 108.383 6.23333C108.383 8.15 107.5 9.51667 106.233 10.3333L108.8 15ZM98.8167 4.48333V8.05H102.15C103.483 8.05 104.2 7.41667 104.2 6.26667C104.2 5.11667 103.483 4.48333 102.15 4.48333H98.8167ZM110.809 15V1H123.142V4.36667H114.992V6.58333H122.842V9.4H114.992V11.6167H123.142V15H110.809ZM131.883 15.4667C127.233 15.45 124.967 13.95 125.05 10.4333H128.817C128.883 11.5 129.783 12.1667 131.883 12.1833C133.783 12.2 134.717 11.6167 134.717 10.8167C134.717 10.2 134.283 9.73333 132.817 9.5L131.05 9.21667C128.4 8.76667 125.4 8.31667 125.4 4.91667C125.4 2.18333 127.633 0.533333 131.917 0.533333C135.8 0.533333 138.517 1.7 138.467 5.53333H134.733C134.55 4.48333 133.7 3.81667 131.817 3.81667C130.167 3.81667 129.417 4.33333 129.417 5.11667C129.417 5.66667 129.8 6.16667 131 6.36667L132.483 6.63333C135.233 7.1 138.867 7.3 138.867 10.9833C138.867 13.9333 136.533 15.4833 131.883 15.4667ZM140.856 15V1H148.589C152.373 1 154.573 2.73333 154.573 6.35C154.573 9.98333 152.373 11.7 148.606 11.7H145.039V15H140.856ZM145.039 8.21667H148.256C149.539 8.21667 150.356 7.6 150.356 6.35C150.356 5.11667 149.539 4.48333 148.256 4.48333H145.039V8.21667ZM164.261 15.4667C159.527 15.4667 156.411 12.45 156.411 8C156.411 3.55 159.527 0.533333 164.261 0.533333C168.994 0.533333 172.111 3.55 172.111 8C172.111 12.45 168.994 15.4667 164.261 15.4667ZM164.261 11.85C166.311 11.85 167.961 10.4 167.961 8C167.961 5.6 166.311 4.15 164.261 4.15C162.211 4.15 160.561 5.6 160.561 8C160.561 10.4 162.211 11.85 164.261 11.85ZM180.547 15.4667C175.897 15.45 173.631 13.95 173.714 10.4333H177.481C177.547 11.5 178.447 12.1667 180.547 12.1833C182.447 12.2 183.381 11.6167 183.381 10.8167C183.381 10.2 182.947 9.73333 181.481 9.5L179.714 9.21667C177.064 8.76667 174.064 8.31667 174.064 4.91667C174.064 2.18333 176.297 0.533333 180.581 0.533333C184.464 0.533333 187.181 1.7 187.131 5.53333H183.397C183.214 4.48333 182.364 3.81667 180.481 3.81667C178.831 3.81667 178.081 4.33333 178.081 5.11667C178.081 5.66667 178.464 6.16667 179.664 6.36667L181.147 6.63333C183.897 7.1 187.531 7.3 187.531 10.9833C187.531 13.9333 185.197 15.4833 180.547 15.4667ZM203.234 1V4.5H198.134V15H193.951V4.5H188.851V1H203.234ZM214.107 15L213.407 12.9833H207.107L206.407 15H202.09L207.324 1H213.19L218.44 15H214.107ZM208.19 9.86667H212.324L210.624 4.93333H209.89L208.19 9.86667ZM226.126 15.4667C221.476 15.45 219.209 13.95 219.292 10.4333H223.059C223.126 11.5 224.026 12.1667 226.126 12.1833C228.026 12.2 228.959 11.6167 228.959 10.8167C228.959 10.2 228.526 9.73333 227.059 9.5L225.292 9.21667C222.642 8.76667 219.642 8.31667 219.642 4.91667C219.642 2.18333 221.876 0.533333 226.159 0.533333C230.042 0.533333 232.759 1.7 232.709 5.53333H228.976C228.792 4.48333 227.942 3.81667 226.059 3.81667C224.409 3.81667 223.659 4.33333 223.659 5.11667C223.659 5.66667 224.042 6.16667 225.242 6.36667L226.726 6.63333C229.476 7.1 233.109 7.3 233.109 10.9833C233.109 13.9333 230.776 15.4833 226.126 15.4667Z" fill="white"/>
</svg>
