<svg width="43" height="44" viewBox="0 0 43 44" fill="none" xmlns="http://www.w3.org/2000/svg">
<rect x="0.5" y="1" width="42" height="42" rx="7.5" fill="url(#paint0_linear_1_783)"/>
<rect x="0.5" y="1" width="42" height="42" rx="7.5" stroke="#6064C9"/>
<path d="M23.504 13.3334H15.6667C13.6411 13.3334 12 14.9744 12 17V28.3334C12 30.359 13.6411 32 15.6667 32H27C29.0256 32 30.6667 30.359 30.6667 28.3334V20.496C30.3539 20.6065 30.0173 20.6667 29.6667 20.6667C28.0099 20.6667 26.6667 19.3236 26.6667 17.6667V17.3334H26.3333C24.6765 17.3334 23.3333 15.9902 23.3333 14.3334C23.3333 13.9827 23.3935 13.6461 23.504 13.3334Z" fill="#D9A3FF" fill-opacity="0.4"/>
<path fill-rule="evenodd" clip-rule="evenodd" d="M17 20.3334C17.5523 20.3334 18 20.7811 18 21.3334V27C18 27.5523 17.5523 28 17 28C16.4477 28 16 27.5523 16 27V21.3334C16 20.7811 16.4477 20.3334 17 20.3334Z" fill="#F5E2FF"/>
<path fill-rule="evenodd" clip-rule="evenodd" d="M25.6667 23.3334C26.219 23.3334 26.6667 23.7811 26.6667 24.3334V27C26.6667 27.5523 26.219 28 25.6667 28C25.1144 28 24.6667 27.5523 24.6667 27V24.3334C24.6667 23.7811 25.1144 23.3334 25.6667 23.3334Z" fill="#F5E2FF"/>
<path fill-rule="evenodd" clip-rule="evenodd" d="M21.3333 17.3334C21.8856 17.3334 22.3333 17.7811 22.3333 18.3334V27C22.3333 27.5523 21.8856 28 21.3333 28C20.781 28 20.3333 27.5523 20.3333 27V18.3334C20.3333 17.7811 20.781 17.3334 21.3333 17.3334Z" fill="#F5E2FF"/>
<path fill-rule="evenodd" clip-rule="evenodd" d="M30.6666 11C30.6666 10.4477 30.2189 10 29.6666 10C29.1144 10 28.6666 10.4477 28.6666 11V13.3333H26.3333C25.781 13.3333 25.3333 13.7811 25.3333 14.3333C25.3333 14.8856 25.781 15.3333 26.3333 15.3333H28.6666V17.6667C28.6666 18.2189 29.1144 18.6667 29.6666 18.6667C30.2189 18.6667 30.6666 18.2189 30.6666 17.6667V15.3333H33C33.5522 15.3333 34 14.8856 34 14.3333C34 13.7811 33.5522 13.3333 33 13.3333H30.6666V11Z" fill="#F5E2FF"/>
<defs>
<linearGradient id="paint0_linear_1_783" x1="0" y1="22" x2="43" y2="22" gradientUnits="userSpaceOnUse">
<stop stop-color="#333693"/>
<stop offset="1" stop-color="#181946"/>
</linearGradient>
</defs>
</svg>
