<svg width="291" height="44" viewBox="0 0 291 44" fill="none" xmlns="http://www.w3.org/2000/svg">
<rect y="0.5" width="291" height="43" rx="8" fill="url(#paint0_linear_29_1039)"/>
<path d="M28.2133 21.58V27.5H26.5467L26.52 25.8733C25.7467 27.0467 24.3333 27.8733 22.3467 27.8733C18.96 27.8733 16.3733 25.42 16.3733 21.9C16.3733 18.38 18.88 15.9267 22.56 15.9267C24.9867 15.9267 27.44 17.06 28.04 19.8733H25.3867C24.96 18.86 23.9467 18.2333 22.6 18.2333C20.52 18.2333 19 19.74 19 21.9C19 24.0467 20.5333 25.5667 22.5467 25.5667C23.6667 25.5667 25.2267 25.0733 25.6133 23.38H22.36V21.58H28.2133ZM31.4171 27.5V16.3H40.8438V18.4733H34.0704V20.9267H40.6038V22.8467H34.0704V25.3133H40.8438V27.5H31.4171ZM48.8817 27.8733C45.4683 27.8733 43.6683 26.66 43.6817 24.0333H46.0817C46.175 25.0867 47.0417 25.7533 48.8817 25.7667C50.615 25.7667 51.5617 25.18 51.5617 24.3C51.5617 23.5267 50.935 23.14 49.6017 22.9133L48.215 22.6733C46.095 22.3 43.9883 21.74 43.9883 19.3C43.9883 17.18 45.775 15.9267 48.9083 15.9267C51.8283 15.9267 53.855 16.9533 53.8817 19.7267H51.495C51.3217 18.7133 50.535 18.0333 48.855 18.0333C47.335 18.0333 46.535 18.5533 46.535 19.42C46.535 20.1 47.0817 20.5267 48.2283 20.74L49.4417 20.9533C51.575 21.34 54.2017 21.7 54.2017 24.38C54.2017 26.6067 52.375 27.8733 48.8817 27.8733ZM67.4975 16.3V18.5267H63.2975V27.5H60.6308V18.5267H56.4442V16.3H67.4975ZM71.9854 15.4067H71.0921C70.9588 14.02 71.8921 13.4333 72.9188 13.4333C74.0254 13.4333 74.5854 14.3267 75.4121 14.3267C75.8787 14.3267 76.1454 14.0733 76.1988 13.7H77.0788C77.2121 15.0733 76.2921 15.6733 75.2521 15.6733C74.1588 15.6733 73.5988 14.78 72.7721 14.78C72.3054 14.78 72.0388 15.02 71.9854 15.4067ZM77.5454 27.5L76.8521 25.62H71.3321L70.6388 27.5H67.8921L72.2254 16.3H75.9587L80.3054 27.5H77.5454ZM72.0788 23.6067H76.1054L74.3454 18.82H73.8388L72.0788 23.6067ZM87.9731 27.8733C84.3198 27.8733 81.8265 25.42 81.8265 21.9C81.8265 18.38 84.3198 15.9267 87.9731 15.9267C91.6398 15.9267 94.1331 18.38 94.1331 21.9C94.1331 25.42 91.6398 27.8733 87.9731 27.8733ZM87.9731 25.5667C89.9731 25.5667 91.4931 24.1 91.4931 21.9C91.4931 19.7 89.9731 18.2333 87.9731 18.2333C85.9865 18.2333 84.4531 19.7 84.4531 21.9C84.4531 24.1 85.9865 25.5667 87.9731 25.5667ZM107.595 16.3C111.942 16.3 113.595 18.7133 113.595 21.9C113.595 25.0867 111.942 27.5 107.595 27.5H102.448V16.3H107.595ZM107.582 25.26C109.755 25.26 110.928 24.06 110.928 21.9C110.928 19.74 109.755 18.54 107.582 18.54H105.128L105.102 25.26H107.582ZM116.589 27.5V16.3H126.016V18.4733H119.242V20.9267H125.776V22.8467H119.242V25.3133H126.016V27.5H116.589ZM134.542 27.5V16.3H137.942L140.715 24.1533H140.915L143.689 16.3H147.089V27.5H144.542V20.7533H144.315L141.849 27.5H139.782L137.315 20.7533H137.089V27.5H134.542ZM150.35 15.6333L151.296 13.4467H153.683L152.736 15.6333H150.35ZM150.23 27.5V16.3H152.883V27.5H150.23ZM161.173 16.3C165.52 16.3 167.173 18.7133 167.173 21.9C167.173 25.0867 165.52 27.5 161.173 27.5H156.026V16.3H161.173ZM161.16 25.26C163.333 25.26 164.506 24.06 164.506 21.9C164.506 19.74 163.333 18.54 161.16 18.54H158.706L158.68 25.26H161.16ZM170.167 27.5V16.3H172.82V27.5H170.167ZM185.217 27.5L184.524 25.62H179.004L178.311 27.5H175.564L179.897 16.3H183.631L187.977 27.5H185.217ZM179.751 23.6067H183.777L182.017 18.82H181.511L179.751 23.6067ZM195.241 27.8733C191.828 27.8733 190.028 26.66 190.041 24.0333H192.441C192.534 25.0867 193.401 25.7533 195.241 25.7667C196.974 25.7667 197.921 25.18 197.921 24.3C197.921 23.5267 197.294 23.14 195.961 22.9133L194.574 22.6733C192.454 22.3 190.348 21.74 190.348 19.3C190.348 17.18 192.134 15.9267 195.268 15.9267C198.188 15.9267 200.214 16.9533 200.241 19.7267H197.854C197.681 18.7133 196.894 18.0333 195.214 18.0333C193.694 18.0333 192.894 18.5533 192.894 19.42C192.894 20.1 193.441 20.5267 194.588 20.74L195.801 20.9533C197.934 21.34 200.561 21.7 200.561 24.38C200.561 26.6067 198.734 27.8733 195.241 27.8733ZM208.839 27.5V16.3H214.692C217.679 16.3 219.306 17.7267 219.306 20.4067C219.306 23.0733 217.679 24.5 214.692 24.5H211.492V27.5H208.839ZM211.492 22.2733H214.519C215.826 22.2733 216.639 21.6467 216.639 20.4067C216.639 19.1533 215.826 18.5267 214.519 18.5267H211.492V22.2733ZM230.061 27.5L229.368 25.62H223.848L223.154 27.5H220.408L224.741 16.3H228.474L232.821 27.5H230.061ZM224.594 23.6067H228.621L226.861 18.82H226.354L224.594 23.6067ZM246.182 21.58V27.5H244.515L244.489 25.8733C243.715 27.0467 242.302 27.8733 240.315 27.8733C236.929 27.8733 234.342 25.42 234.342 21.9C234.342 18.38 236.849 15.9267 240.529 15.9267C242.955 15.9267 245.409 17.06 246.009 19.8733H243.355C242.929 18.86 241.915 18.2333 240.569 18.2333C238.489 18.2333 236.969 19.74 236.969 21.9C236.969 24.0467 238.502 25.5667 240.515 25.5667C241.635 25.5667 243.195 25.0733 243.582 23.38H240.329V21.58H246.182ZM258.499 27.5L257.805 25.62H252.285L251.592 27.5H248.845L253.179 16.3H256.912L261.259 27.5H258.499ZM253.032 23.6067H257.059L255.299 18.82H254.792L253.032 23.6067ZM268.522 27.8733C265.109 27.8733 263.309 26.66 263.322 24.0333H265.722C265.816 25.0867 266.682 25.7533 268.522 25.7667C270.256 25.7667 271.202 25.18 271.202 24.3C271.202 23.5267 270.576 23.14 269.242 22.9133L267.856 22.6733C265.736 22.3 263.629 21.74 263.629 19.3C263.629 17.18 265.416 15.9267 268.549 15.9267C271.469 15.9267 273.496 16.9533 273.522 19.7267H271.136C270.962 18.7133 270.176 18.0333 268.496 18.0333C266.976 18.0333 266.176 18.5533 266.176 19.42C266.176 20.1 266.722 20.5267 267.869 20.74L269.082 20.9533C271.216 21.34 273.842 21.7 273.842 24.38C273.842 26.6067 272.016 27.8733 268.522 27.8733Z" fill="#F8F8F8"/>
<defs>
<linearGradient id="paint0_linear_29_1039" x1="291" y1="22" x2="0" y2="22" gradientUnits="userSpaceOnUse">
<stop stop-color="#575AC0"/>
<stop offset="1" stop-color="#333693"/>
</linearGradient>
</defs>
</svg>
