<svg width="594" height="53" viewBox="0 0 594 53" fill="none" xmlns="http://www.w3.org/2000/svg">
<path d="M9.88 23.06C4.14 23.06 0.36 19.52 0.36 14.1C0.36 8.68 4.14 5.14 9.88 5.14C14.1 5.14 18.46 7 18.92 12.92H13.16C12.78 11.18 11.6 10.36 9.88 10.36C7.94 10.36 6.36 11.78 6.36 14.1C6.36 16.4 7.94 17.84 9.88 17.84C11.6 17.84 12.78 17.02 13.16 15.24H18.92C18.46 21.2 14.16 23.06 9.88 23.06ZM31.9091 5.7H37.9691V22.5H31.9091V16.64H25.9891V22.5H19.9491V5.7H25.9891V11.56H31.9091V5.7ZM39.2616 22.5V5.7H54.7216V10.52H45.3016V12.16H54.3616V16.04H45.3016V17.66H54.7216V22.5H39.2616ZM74.1119 13.08V22.5H70.9919L70.9119 20.42H70.8519C69.6719 21.94 67.6119 23.06 64.6919 23.06C59.5119 23.06 55.5319 19.52 55.5319 14.1C55.5319 8.68 59.2919 5.14 65.2319 5.14C69.3119 5.14 73.5119 7.12 74.0919 11.74H68.0719C67.8319 11.14 66.8919 10.36 65.3719 10.36C63.1119 10.36 61.5319 11.78 61.5319 14.1C61.5319 16.4 63.1519 17.84 65.1919 17.84C65.7519 17.84 67.7119 17.78 68.2919 16.02H64.9719V13.08H74.1119ZM89.0684 22.5L88.4284 20.48H81.5884L80.9484 22.5H74.7084L80.7684 5.7H89.2484L95.3284 22.5H89.0684ZM83.0084 16.02H87.0084L85.5284 11.38H84.4884L83.0084 16.02ZM109.957 5.7C116.897 5.7 119.277 9.24 119.277 14.1C119.277 18.94 116.897 22.5 109.957 22.5H101.277V5.7H109.957ZM109.957 17.44C111.737 17.44 113.197 16.6 113.197 14.1C113.197 11.58 111.737 10.76 109.957 10.76H107.357L107.337 17.44H109.957ZM120.379 22.5V5.7H135.839V10.52H126.419V12.16H135.479V16.04H126.419V17.66H135.839V22.5H120.379ZM160.69 13.08V22.5H157.57L157.49 20.42H157.43C156.25 21.94 154.19 23.06 151.27 23.06C146.09 23.06 142.11 19.52 142.11 14.1C142.11 8.68 145.87 5.14 151.81 5.14C155.89 5.14 160.09 7.12 160.67 11.74H154.65C154.41 11.14 153.47 10.36 151.95 10.36C149.69 10.36 148.11 11.78 148.11 14.1C148.11 16.4 149.73 17.84 151.77 17.84C152.33 17.84 154.29 17.78 154.87 16.02H151.55V13.08H160.69ZM175.647 22.5L175.007 20.48H168.167L167.527 22.5H161.287L167.347 5.7H175.827L181.907 22.5H175.647ZM169.587 16.02H173.587L172.107 11.38H171.067L169.587 16.02ZM190.059 23.06C184.039 23.04 181.299 21.24 181.479 16.74H186.899C186.939 17.74 187.779 18.32 190.059 18.36C192.019 18.38 192.859 17.86 192.859 17.26C192.859 16.94 192.779 16.38 191.259 16.18L189.059 15.84C185.899 15.34 181.859 15.12 181.859 10.6C181.859 7.22 184.559 5.14 190.119 5.14C195.079 5.14 198.539 6.42 198.399 11.42H192.999C192.819 10.44 191.959 9.84 189.979 9.84C188.279 9.84 187.659 10.32 187.659 10.92C187.659 11.2 187.799 11.76 188.939 11.94L190.699 12.22C194.079 12.78 198.879 12.72 198.879 17.52C198.879 21.28 195.999 23.08 190.059 23.06ZM217.2 5.7V10.74H211.24V22.5H205.18V10.74H199.24V5.7H217.2ZM228.756 22.5L228.116 20.48H221.276L220.636 22.5H214.396L220.456 5.7H228.936L235.016 22.5H228.756ZM222.696 16.02H226.696L225.216 11.38H224.176L222.696 16.02ZM253.615 22.5H247.675L245.555 18.38H241.755V22.5H235.715V5.7H245.595C250.315 5.7 252.995 7.66 252.995 12.26C252.995 14.46 252.035 16.06 250.695 17.06L253.615 22.5ZM241.755 10.72V13.88H245.155C246.355 13.88 246.935 13.28 246.935 12.3C246.935 11.32 246.355 10.72 245.155 10.72H241.755ZM269.122 23.06C263.382 23.06 259.602 19.52 259.602 14.1C259.602 8.68 263.382 5.14 269.122 5.14C273.342 5.14 277.702 7 278.162 12.92H272.402C272.022 11.18 270.842 10.36 269.122 10.36C267.182 10.36 265.602 11.78 265.602 14.1C265.602 16.4 267.182 17.84 269.122 17.84C270.842 17.84 272.022 17.02 272.402 15.24H278.162C277.702 21.2 273.402 23.06 269.122 23.06ZM288.749 23.06C282.889 23.06 279.149 19.52 279.149 14.1C279.149 8.68 282.889 5.14 288.749 5.14C294.629 5.14 298.369 8.68 298.369 14.1C298.369 19.52 294.629 23.06 288.749 23.06ZM288.749 17.84C290.689 17.84 292.349 16.54 292.349 14.1C292.349 11.66 290.689 10.36 288.749 10.36C286.829 10.36 285.149 11.66 285.149 14.1C285.149 16.54 286.829 17.84 288.749 17.84ZM299.394 22.5V5.7H306.994L309.254 14.54H309.694L311.954 5.7H319.554V22.5H313.794V15.94H313.334L311.694 22.5H307.254L305.614 15.94H305.154V22.5H299.394ZM339.873 22.5L339.233 20.48H332.393L331.753 22.5H325.513L331.573 5.7H340.053L346.133 22.5H339.873ZM333.813 16.02H337.813L336.333 11.38H335.293L333.813 16.02ZM346.832 22.5V5.7H353.752L358.592 14.04H359.152V5.7H365.052V22.5H358.272L353.272 14.16H352.732V22.5H346.832ZM372.535 4.7L373.995 1.12H379.335L377.875 4.7H372.535ZM375.255 23.06C369.275 23.06 366.355 20.58 366.355 15.06V5.7H372.455V14.92C372.455 16.8 373.235 18 375.255 18C377.275 18 378.095 16.8 378.095 14.92V5.7H384.155V15.02C384.155 20.58 381.235 23.06 375.255 23.06ZM385.457 22.5V5.7H392.377L397.217 14.04H397.777V5.7H403.677V22.5H396.897L391.897 14.16H391.357V22.5H385.457ZM414.2 23.06C408.46 23.06 404.68 19.52 404.68 14.1C404.68 8.68 408.46 5.14 414.2 5.14C418.42 5.14 422.78 7 423.24 12.92H417.48C417.1 11.18 415.92 10.36 414.2 10.36C412.26 10.36 410.68 11.78 410.68 14.1C410.68 16.4 412.26 17.84 414.2 17.84C415.92 17.84 417.1 17.02 417.48 15.24H423.24C422.78 21.2 418.48 23.06 414.2 23.06ZM424.269 22.5V5.7H430.309V22.5H424.269ZM440.929 23.06C435.069 23.06 431.329 19.52 431.329 14.1C431.329 8.68 435.069 5.14 440.929 5.14C446.809 5.14 450.549 8.68 450.549 14.1C450.549 19.52 446.809 23.06 440.929 23.06ZM440.929 17.84C442.869 17.84 444.529 16.54 444.529 14.1C444.529 11.66 442.869 10.36 440.929 10.36C439.009 10.36 437.329 11.66 437.329 14.1C437.329 16.54 439.009 17.84 440.929 17.84ZM459.66 23.06C453.64 23.04 450.9 21.24 451.08 16.74H456.5C456.54 17.74 457.38 18.32 459.66 18.36C461.62 18.38 462.46 17.86 462.46 17.26C462.46 16.94 462.38 16.38 460.86 16.18L458.66 15.84C455.5 15.34 451.46 15.12 451.46 10.6C451.46 7.22 454.16 5.14 459.72 5.14C464.68 5.14 468.14 6.42 468 11.42H462.6C462.42 10.44 461.56 9.84 459.58 9.84C457.88 9.84 457.26 10.32 457.26 10.92C457.26 11.2 457.4 11.76 458.54 11.94L460.3 12.22C463.68 12.78 468.48 12.72 468.48 17.52C468.48 21.28 465.6 23.08 459.66 23.06ZM493.603 13.88C493.603 16.2 492.683 17.96 491.283 19.36L493.463 21.6C492.463 22.92 491.383 23.98 490.103 25.02L487.283 22.46C486.283 22.82 485.143 23.06 483.983 23.06C478.123 23.06 474.383 19.52 474.383 14.1C474.383 8.68 478.123 5.14 483.983 5.14C489.863 5.14 493.603 8.68 493.603 13.88ZM480.383 14.1C480.383 16.54 482.063 17.84 483.983 17.84C485.923 17.84 487.583 16.54 487.583 14.1C487.583 11.66 485.923 10.36 483.983 10.36C482.063 10.36 480.383 11.66 480.383 14.1ZM503.529 23.06C497.549 23.06 494.629 20.58 494.629 15.06V5.7H500.729V14.92C500.729 16.8 501.509 18 503.529 18C505.549 18 506.369 16.8 506.369 14.92V5.7H512.429V15.02C512.429 20.58 509.509 23.06 503.529 23.06ZM513.73 22.5V5.7H529.19V10.52H519.77V12.16H528.83V16.04H519.77V17.66H529.19V22.5H513.73ZM535.762 22.5V5.7H542.682L547.522 14.04H548.082V5.7H553.982V22.5H547.202L542.202 14.16H541.662V22.5H535.762ZM561.505 4.6H559.945C559.505 2 561.365 0.919999 563.165 0.919999C564.765 0.919999 565.845 2.02 567.165 2.02C567.885 2.02 568.365 1.66 568.425 1.06H569.965C570.405 3.64 568.565 4.74 566.745 4.74C565.145 4.74 564.085 3.64 562.765 3.64C562.045 3.64 561.565 3.98 561.505 4.6ZM569.045 22.5L568.405 20.48H561.565L560.925 22.5H554.685L560.745 5.7H569.225L575.305 22.5H569.045ZM562.985 16.02H566.985L565.505 11.38H564.465L562.985 16.02ZM583.687 23.06C577.827 23.06 574.087 19.52 574.087 14.1C574.087 8.68 577.827 5.14 583.687 5.14C589.567 5.14 593.307 8.68 593.307 14.1C593.307 19.52 589.567 23.06 583.687 23.06ZM583.687 17.84C585.627 17.84 587.287 16.54 587.287 14.1C587.287 11.66 585.627 10.36 583.687 10.36C581.767 10.36 580.087 11.66 580.087 14.1C580.087 16.54 581.767 17.84 583.687 17.84ZM18.52 34.7V39.74H12.56V51.5H6.5V39.74H0.56V34.7H18.52ZM37.6147 51.5H31.6747L29.5547 47.38H25.7547V51.5H19.7147V34.7H29.5947C34.3147 34.7 36.9947 36.66 36.9947 41.26C36.9947 43.46 36.0347 45.06 34.6947 46.06L37.6147 51.5ZM25.7547 39.72V42.88H29.1547C30.3547 42.88 30.9347 42.28 30.9347 41.3C30.9347 40.32 30.3547 39.72 29.1547 39.72H25.7547ZM52.1075 51.5L51.4675 49.48H44.6275L43.9875 51.5H37.7475L43.8075 34.7H52.2875L58.3675 51.5H52.1075ZM46.0475 45.02H50.0475L48.5675 40.38H47.5275L46.0475 45.02ZM58.7663 51.5V46.64L66.9263 40.2V39.74H58.9463V34.7H74.8263V39.56L66.5263 46V46.46H74.7063V51.5H58.7663ZM75.8475 51.5V34.7H91.3075V39.52H81.8875V41.16H90.9475V45.04H81.8875V46.66H91.3075V51.5H75.8475ZM92.6287 51.5V34.7H100.229L102.489 43.54H102.929L105.189 34.7H112.789V51.5H107.029V44.94H106.569L104.929 51.5H100.489L98.8487 44.94H98.3888V51.5H92.6287ZM137.248 51.5H131.308L129.188 47.38H125.388V51.5H119.347V34.7H129.227C133.947 34.7 136.628 36.66 136.628 41.26C136.628 43.46 135.668 45.06 134.328 46.06L137.248 51.5ZM125.388 39.72V42.88H128.788C129.987 42.88 130.568 42.28 130.568 41.3C130.568 40.32 129.987 39.72 128.788 39.72H125.388ZM138.285 51.5V34.7H153.745V39.52H144.325V41.16H153.385V45.04H144.325V46.66H153.745V51.5H138.285ZM172.926 34.7V39.74H166.966V51.5H160.906V39.74H154.966V34.7H172.926ZM182.648 52.06C176.788 52.06 173.048 48.52 173.048 43.1C173.048 37.68 176.788 34.14 182.648 34.14C188.528 34.14 192.267 37.68 192.267 43.1C192.267 48.52 188.528 52.06 182.648 52.06ZM182.648 46.84C184.588 46.84 186.247 45.54 186.247 43.1C186.247 40.66 184.588 39.36 182.648 39.36C180.728 39.36 179.048 40.66 179.048 43.1C179.048 45.54 180.728 46.84 182.648 46.84ZM211.193 51.5H205.253L203.133 47.38H199.333V51.5H193.293V34.7H203.173C207.893 34.7 210.573 36.66 210.573 41.26C210.573 43.46 209.613 45.06 208.273 46.06L211.193 51.5ZM199.333 39.72V42.88H202.733C203.933 42.88 204.513 42.28 204.513 41.3C204.513 40.32 203.933 39.72 202.733 39.72H199.333ZM212.23 51.5V34.7H219.15L223.99 43.04H224.55V34.7H230.45V51.5H223.67L218.67 43.16H218.13V51.5H212.23ZM241.054 52.06C235.194 52.06 231.454 48.52 231.454 43.1C231.454 37.68 235.194 34.14 241.054 34.14C246.934 34.14 250.674 37.68 250.674 43.1C250.674 48.52 246.934 52.06 241.054 52.06ZM241.054 46.84C242.994 46.84 244.654 45.54 244.654 43.1C244.654 40.66 242.994 39.36 241.054 39.36C239.134 39.36 237.454 40.66 237.454 43.1C237.454 45.54 239.134 46.84 241.054 46.84ZM254.07 51.82C252.47 51.82 251.11 50.48 251.11 48.9C251.11 47.3 252.47 45.96 254.07 45.96C255.69 45.96 257.05 47.3 257.05 48.9C257.05 50.48 255.69 51.82 254.07 51.82Z" fill="#F8F8F8"/>
</svg>
